<svg version="1.1" xmlns="http://www.w3.org/2000/svg" style="display:none;"><symbol id="boot" viewBox="0 0 1024 1024"><path fill="#00B4F4" d="M166.153 797.842v6.573h-67.7V680.27l-2.099 6.865-64.744-19.789 36.572-119.621-4.5 6.674L7.554 516.54l70.131-103.964-6.689 5.413-42.604-52.608 100.927-81.718-12.898 4.944-24.264-63.196 120.55-46.272-14.089.99-4.721-67.534 126.209-8.828-11.395-2.623 15.234-65.965 120.56 27.83-7.597-4.384L470.76 0l105.154 60.704-4.09-4.389 49.51-46.166 81.884 87.802-1.745-3.582 60.85-29.67 52.531 107.696-.479-3.016 66.873-10.593 19.698 124.378 1.402-8.853 66.868 10.593-19.996 126.24 4.944-10.14 60.85 29.676-56.34 115.505 8.232-8.827 49.515 46.17-87.534 93.86 10.598-6.118 33.847 58.625-110.027 63.523 11.072-2.557 15.23 65.96-121.584 28.066 9.372.656-4.726 67.529-121.7-8.51 6.204 2.38-24.263 63.206-116.494-44.718 7.365 5.963L481.167 1024l-96.156-77.86 4.747 7.038-56.128 37.857-68.734-101.895 2.043 6.683-64.775 19.805-36.016-117.786zm0-80.442 42.286-12.923 32.864 107.474 36.562-24.656 62.484 92.634 27.91-34.463 86.601 70.121 15.491-40.35 104.363 40.053 3.057-43.705 111.671 7.809-10.048-43.522 109.472-25.273-22.684-39.285 97.718-56.41-33.469-31.205 77.189-82.767-41.177-20.082 49.641-101.774-45.04-7.133 17.705-111.757-43.069 6.82-17.69-111.707-38.791 18.916-49.283-101.038-31.618 29.48-76.266-81.775-21.821 37.793-96.539-55.735-9.977 43.21-108.605-25.07 3.153 45.09-111.48 7.794 16.48 42.937-104.973 40.295 28.248 34.871-88.13 71.357 37.193 25.086-63.534 94.187 42.812 13.085-33.187 108.54h44.48V717.4zm149.63-414.019h136.53c15.86 0 31.628 1.12 47.316 3.36 15.688 2.245 29.479 6.724 41.373 13.448 11.895 6.72 20.95 16.117 27.154 28.183 6.205 12.066 7.93 28.097 5.17 48.088-2.759 20.681-10.946 37.832-24.565 51.452-13.62 13.62-30.251 23.355-49.904 29.217v1.034c11.723 1.725 22.15 5.084 31.285 10.088 9.14 4.994 16.636 11.375 22.498 19.128 5.861 7.759 9.998 16.808 12.409 27.149 2.421 10.34 2.759 21.378 1.039 33.096-2.76 19.305-9.135 35.421-19.138 48.35a118.845 118.845 0 0 1-36.198 31.285c-14.135 7.93-29.651 13.62-46.545 17.065-16.898 3.445-33.443 5.17-49.646 5.17H264.583l51.2-366.113zm59.992 146.342h58.439c6.204 0 12.409-.686 18.613-2.069a60.35 60.35 0 0 0 17.328-6.719 42.004 42.004 0 0 0 13.443-12.409c3.622-5.175 5.952-11.38 6.986-18.618 1.034-7.587.252-13.877-2.33-18.876a27.845 27.845 0 0 0-11.118-11.637c-4.827-2.755-10.432-4.742-16.808-5.943a101.391 101.391 0 0 0-18.876-1.816h-54.816l-10.86 78.087zM354.57 601.234h72.401c6.205 0 12.672-.686 19.396-2.068a55.286 55.286 0 0 0 18.361-7.239 53.48 53.48 0 0 0 14.477-13.443c4.137-5.518 6.724-12.237 7.758-20.167 1.035-8.62-.171-15.602-3.621-20.944-3.446-5.347-8.273-9.393-14.478-12.152-6.204-2.759-13.014-4.656-20.43-5.69a151.945 151.945 0 0 0-20.943-1.548h-61.032l-11.894 83.251zm389.226-292.041L658.202 621.93l-70.7-4.958 53.287-322.45 103.006 14.67zm-74.626 345.36-22.246 110.496-94.036-27.38 21.534-106.007 94.748 22.89z"/></symbol><symbol id="brush" viewBox="0 0 1024 1024"><path fill="#FAB958" d="m879.04 323.36-176.8-176.768a64.032 64.032 0 0 0-90.464.224l-67.36 67.392 44.864 44.64.96-.192h.032l176.64 176.576 30.304 30.4 14.848 14.88 66.72-66.72a64 64 0 0 0 .224-90.432m-553.12 492-13.6-13.632-88.32-88.64-14.08-14.144-40.704-43.392L160 645.76v156.128c0 35.136 28.576 63.68 63.68 63.68h154.208l-11.648-11.2-40.352-38.976zm219.136-511.488-45.248-45.056-320.16 320.16 45.248 45.248 176.544 176.704 45.184 45.024 318.976-318.976-43.936-46.496z"/></symbol><symbol id="chain" viewBox="0 0 1024 1024"><path fill="#4CC9C5" d="M123.82 122.82h326.74q1 0 1 1v326.74q0 1-1 1H123.82q-1 0-1-1V123.82q0-1 1-1Zm449.61 449.61h326.74q1 0 1 1v326.74q0 1-1 1H573.43q-1 0-1-1V573.43q0-1 1-1Z"/><path fill="#CFD8DC" d="M506.69 779.16H374.87a130.18 130.18 0 0 1-130-130V517.32h65.75v131.81a64.35 64.35 0 0 0 64.28 64.28h131.79zm272.47-272.48h-65.75V374.87a64.35 64.35 0 0 0-64.28-64.28H517.31v-65.75h131.82a130.18 130.18 0 0 1 130 130z"/></symbol><symbol id="code" viewBox="0 0 1241 1024"><path fill="#F04F2D" d="M781.432 558.578H459.933a50.55 50.55 0 0 0-49.394 38.996v.867a3.61 3.61 0 0 1 0 .866 50.55 50.55 0 0 0 13.72 46.506l127.603 127.748a50.933 50.933 0 1 0 71.854-72.215l-41.524-41.523h199.6a50.55 50.55 0 0 0 50.551-50.55 50.55 50.55 0 0 0-50.911-50.695z"/><path fill="#999" d="M1139.687 0H101.533A101.606 101.606 0 0 0 0 101.533v820.934A101.606 101.606 0 0 0 101.533 1024h1038.154a101.606 101.606 0 0 0 101.534-101.533V101.533A101.606 101.606 0 0 0 1139.687 0zm0 470.405a51.922 51.922 0 0 0-6.788-4.406L917.484 250.367a50.76 50.76 0 0 0-71.71 71.854L1035.483 512 845.92 701.852a50.68 50.68 0 0 0 71.637 71.709l214.621-214.838a50.55 50.55 0 0 0 7.222-4.766V922.25H101.533V549.19l.434.434a50.55 50.55 0 0 0 12.565 9.17l214.838 214.84a50.709 50.709 0 0 0 71.709-71.71L211.299 512l189.924-189.924a50.911 50.911 0 1 0-72.214-71.78l-215.2 215.703a49.106 49.106 0 0 0-11.626 8.738l-.65.65V101.533h1038.154z"/><path fill="#F04F2D" d="M409.022 414.583a50.55 50.55 0 0 0 50.55 50.55h321.499a50.55 50.55 0 0 0 49.394-38.996v-.866a3.61 3.61 0 0 1 0-.867 50.55 50.55 0 0 0-13.72-46.506L689.647 250.439a50.911 50.911 0 1 0-71.78 72.215l41.523 41.523H459.789a50.55 50.55 0 0 0-50.767 50.406z"/></symbol><symbol id="convert" viewBox="0 0 1024 1024"><path fill="#36A197" d="M987.392 861.184c-18.432 0-33.28-14.848-33.28-33.28v-587.52c0-36.736-29.824-66.56-66.56-66.56H458.496c-18.432 0-33.28-14.848-33.28-33.28s14.848-33.28 33.28-33.28h429.056c73.344 0 132.992 59.648 132.992 132.992v587.648c.128 18.432-14.72 33.28-33.152 33.28z"/><path fill="#36A197" d="M223.616 140.544 554.624 275.84l-78.592-135.296L554.624 5.376zm341.888 776.192H136.448c-73.344 0-132.992-59.648-132.992-132.992V195.968c0-18.432 14.848-33.28 33.28-33.28s33.28 14.848 33.28 33.28v587.648c0 36.736 29.824 66.56 66.56 66.56h429.056c18.432 0 33.28 14.848 33.28 33.28-.128 18.432-15.104 33.28-33.408 33.28z"/><path fill="#36A197" d="M800.384 883.456 469.376 748.16l78.592 135.296-78.592 135.168z"/></symbol><symbol id="csharp" viewBox="0 0 1024 1024"><path fill="#368832" d="M633.344 226.272h81.696v81.696h81.76v-81.696h81.664v81.696H960v81.664h-81.6v81.632H960v81.696h-81.632v81.664H796.8v-81.6h-81.6v81.664h-81.824v-81.6H551.68V471.2h81.696v-81.472H551.68v-81.824h81.728zm81.696 245.056h81.76v-81.696h-81.76zM470.048 768.416a326.4 326.4 0 0 1-148.896 29.28 243.2 243.2 0 0 1-188.48-74.752A282.848 282.848 0 0 1 64 523.744a301.952 301.952 0 0 1 77.184-215.008 261.792 261.792 0 0 1 200.288-82.464 355.2 355.2 0 0 1 128.576 20.416v119.84a217.92 217.92 0 0 0-119.136-33.152 153.376 153.376 0 0 0-118.4 48.928 188.128 188.128 0 0 0-45.024 132.544 184.768 184.768 0 0 0 42.496 127.744 145.632 145.632 0 0 0 114.4 47.584 233.216 233.216 0 0 0 125.664-35.456z"/></symbol><symbol id="dashboard" viewBox="0 0 1420 1024"><path fill="#4B9CD3" d="M1282.109 974.485c44.456-90.071 69.438-191.474 69.438-298.708C1351.547 302.557 1048.997 0 675.769 0 302.558 0 0 302.558 0 675.777c0 107.226 24.982 208.629 69.438 298.708h1212.67z"/><path fill="#FFF" d="M149.354 803.097h122.43q36.725 0 36.725 36.724v.008q0 36.725-36.724 36.725H149.354q-36.724 0-36.724-36.725v-.008q0-36.724 36.724-36.724Z"/><path fill="#686464" fill-opacity=".2" d="M665.984 974.485h617.01s129.768-237.5 26.932-523.967c-102.837-286.466-379.51-396.656-379.51-396.656l-264.44 920.623z"/><path fill="#FFF" d="M149.354 803.097h122.43q36.725 0 36.725 36.724v.008q0 36.725-36.724 36.725H149.354q-36.724 0-36.724-36.725v-.008q0-36.724 36.724-36.724Zm487.243-506.829V173.837q0-36.724 36.724-36.724h.008q36.725 0 36.725 36.724v122.43q0 36.725-36.725 36.725h-.008q-36.724 0-36.724-36.724ZM197.513 474.969l46.2 29.06q31.086 19.554 11.532 50.64l-.005.007q-19.553 31.086-50.64 11.532l-46.198-29.06q-31.086-19.555-11.533-50.64l.005-.007q19.554-31.086 50.64-11.532Zm954.899 91.235 46.2-29.06q31.085-19.554 11.531-50.64l-.004-.007q-19.554-31.086-50.64-11.532l-46.199 29.06q-31.086 19.554-11.532 50.64l.004.007q19.554 31.086 50.64 11.532ZM387.323 247.272l37.142 39.992q24.992 26.909-1.918 51.9l-.006.006q-26.909 24.992-51.9-1.918l-37.142-39.992q-24.992-26.909 1.917-51.9l.006-.006q26.91-24.991 51.901 1.918Zm597.411 89.985 37.142-39.992q24.991-26.91-1.918-51.9l-.006-.006q-26.909-24.992-51.9 1.917l-37.143 39.992q-24.991 26.91 1.918 51.901l.006.006q26.91 24.991 51.9-1.918Zm99.933 465.84h122.43q36.725 0 36.725 36.724v.008q0 36.725-36.724 36.725h-122.431q-36.725 0-36.725-36.725v-.008q0-36.724 36.725-36.724Zm-306.979.467c-57.447 47.983-88.791 108.804-151.311 33.954s-1.184-94.074 56.262-142.058 341.537-217.729 362.476-192.658c20.932 25.063-209.989 252.779-267.427 300.762z"/><path fill="#4B9CD3" d="M661.088 778.606a39.173 39.173 0 1 0 78.345 0 39.173 39.173 0 1 0-78.345 0Z"/></symbol><symbol id="dice" viewBox="0 0 1024 1024"><path fill="#FF8066" d="M894.3 196.9 592.8 22.8C549-2.6 473.3-2.6 429.4 22.8L127.9 196.9c-45 25.9-81.7 89.4-81.7 141.4v348.1c0 52 36.6 115.5 81.7 141.4l301.5 174.1c22 12.6 50.9 19.6 81.7 19.6 30.8 0 59.7-6.9 81.7-19.6l301.5-174.1c45-25.9 81.7-89.4 81.7-141.4V338.3c0-52-36.7-115.5-81.7-141.4zM487.4 914c0 10.5-2.3 19.1-6.4 24.2-3 3.8-7.6 5.8-12.4 5.6-7.5-.5-14.7-2.8-21.1-6.8L169.7 776.5c-32.6-18.7-60.1-66.4-60.1-104V379.9c0-9 1.8-29.8 18.7-29.8 6.1 0 13.3 2.4 21.1 6.8l277.8 160.4c32.5 18.7 60 66.4 60 104l.2 292.7zM511 468c-22.7 0-44.6-5.1-60-14L173.1 293.6c-11.9-6.9-18.9-15.2-18.9-23 0-7.7 6.9-16 18.9-22.9L450.9 87.2c15.3-8.9 37.3-14 60-14 22.8 0 44.6 5.1 60.1 14l277.8 160.4c11.9 6.9 18.7 15.2 18.7 22.9 0 7.8-6.8 16.1-18.7 23L571.1 454c-15.5 8.9-37.4 14-60.1 14zm397.9 204.4c0 37.5-27.5 85.2-60.1 104l-247 143.1-21.1 6.8c-17 0-18.8-20.8-18.8-29.7V604.1c0-37.5 27.6-85.2 60.1-104L869 357c6.3-4 13.5-6.3 21-6.8 17 0 18.8 20.8 18.8 29.8v292.4zm0 0"/><path fill="#FF8066" d="M201.6 465.7c-21.5 0-39 23.4-39 52.2 0 28.8 17.6 52.2 39.1 52.2s39-23.4 39-52.2c-.1-28.7-17.7-52.2-39.1-52.2zm0 177.5c-21.5 0-39 23.4-39 52.2 0 28.8 17.6 52.2 39.1 52.2s39-23.4 39-52.2c-.1-28.7-17.7-52.2-39.1-52.2zm150 75.6c-21.5 0-39.1 23.4-39.1 52.2 0 28.8 17.6 52.2 39.1 52.2s39-23.4 39-52.2c0-28.9-17.5-52.2-39-52.2zM688 560.4c-21.5 0-39 23.4-39 52.2 0 28.8 17.6 52.2 39.1 52.2s39-23.4 39-52.2c-.1-28.8-17.5-52.2-39.1-52.2zm125.4 56c-21.5 0-39 23.4-39 52.2 0 28.8 17.6 52.2 39.1 52.2s39-23.4 39-52.2c-.1-28.8-17.5-52.2-39.1-52.2zm-304-387.3c-31.6 0-57.3 17.6-57.3 39.1s25.7 39 57.3 39c31.7 0 57.4-17.6 57.4-39 0-21.6-25.8-39.1-57.4-39.1zM364.9 544.7c-21.5 0-39.1 23.4-39.1 52.2 0 28.8 17.6 52.2 39.1 52.2 10.9 0 21.4-6.1 28.8-17 6.6-9.6 10.3-22.1 10.3-35.1-.1-28.9-17.6-52.3-39.1-52.3zm0 0"/></symbol><symbol id="dictionary" viewBox="0 0 1024 1024"><path fill="#F9C27F" d="M885.333 785.92c0-45.227 32-82.773 74.667-91.307v-465.92c0-94.293-76.373-170.666-170.667-170.666H234.667C140.373 58.027 64 134.4 64 228.693V783.36c0 94.293 76.373 170.667 170.667 170.667H960v-76.374c-42.667-8.96-74.667-46.933-74.667-91.733zm-608-514.987H704c23.467 0 42.667 19.2 42.667 42.667s-19.2 42.667-42.667 42.667H277.333c-23.466 0-42.666-19.2-42.666-42.667s19.2-42.667 42.666-42.667zm0 213.334H704c23.467 0 42.667 19.2 42.667 42.666S727.467 569.6 704 569.6H277.333c-23.466 0-42.666-19.2-42.666-42.667s19.2-42.666 42.666-42.666zm524.8 339.626c-3.84 1.28-8.533 2.134-12.8 2.134H234.667c-23.467 0-42.667-19.2-42.667-42.667s19.2-42.667 42.667-42.667h554.666c4.694 0 8.96.854 12.8 2.134-8.106 11.946-12.8 26.026-12.8 40.533 0 14.507 4.694 28.16 12.8 40.533z"/></symbol><symbol id="diff" viewBox="0 0 1024 1024"><path fill="#3D8DE9" d="M684.672 909.76h151.723c24.64 0 44.65-16.661 44.65-37.163v-63.509c0-20.501-20.01-37.163-44.65-37.163H684.672c-24.619 0-44.65 16.662-44.65 37.163v63.51c0 20.48 20.01 37.162 44.65 37.162zm-.235-219.264h294.934c24.64 0 44.629-16.661 44.629-37.163v-63.466c0-20.544-19.99-37.206-44.63-37.206H684.673c-24.619 0-44.65 16.662-44.65 37.206v63.466c0 20.502 20.01 37.163 44.415 37.163zm.235-219.2H962.24c24.597 0 44.608-16.683 44.608-37.205v-63.446c0-20.522-20.01-37.162-44.608-37.162H684.672c-24.619 0-44.65 16.64-44.65 37.162v63.446c0 20.522 20.01 37.205 44.65 37.205zm0-219.221h185.536c24.619 0 44.63-16.662 44.63-37.184v-63.446c0-20.522-20.011-37.184-44.63-37.184H684.672c-24.619 0-44.65 16.662-44.65 37.184v63.446c0 20.501 20.01 37.184 44.65 37.184z"/><path fill="#278DF6" d="M519.083 0h42.666v1024h-42.666V0z"/><path fill="#5AD651" d="M405.312 872.576v-63.51c0-20.5-20.01-37.162-44.65-37.162H44.65C20.01 771.925 0 788.587 0 809.088v63.51c0 20.5 20.01 37.14 44.65 37.14h316.011c24.64 0 44.651-16.66 44.651-37.162zm0-219.243v-63.466c0-20.544-20.01-37.206-44.65-37.206H151.295c-24.64 0-44.63 16.683-44.63 37.206v63.466c0 20.502 19.99 37.163 44.63 37.163h209.6c24.405 0 44.416-16.661 44.416-37.163zm0-219.242v-63.446c0-20.522-20.01-37.162-44.65-37.162H83.114c-24.598 0-44.608 16.64-44.608 37.162v63.446c0 20.522 20.01 37.205 44.608 37.205h277.568c24.618 0 44.629-16.683 44.629-37.205zm0-219.2v-63.446c0-20.522-20.01-37.184-44.65-37.184H175.124c-24.618 0-44.629 16.662-44.629 37.184v63.446c0 20.522 20.01 37.184 44.63 37.184H360.66c24.64 0 44.651-16.683 44.651-37.184z"/><path fill="#278DF6" d="M519.083 1024h-42.667V0h42.667v1024z"/></symbol><symbol id="emoji" viewBox="0 0 1024 1024"><path fill="#FFDE46" d="M957.218 311.652V200.348h-66.784v-66.782h-66.782V66.782H712.348V0H311.652v66.782H200.348v66.784h-66.782v66.782H66.782v111.304l-66.766.006v400.696h66.766v111.298h66.784v66.782h66.782v66.784h111.304V1024h400.696v-66.782h111.304v-66.784h66.782v-66.782h66.784V712.354h22.274v-.006H1024V311.652z"/><path fill="#FFF" d="M957.218 311.652V200.348h-66.784v-66.782h-66.782V66.782H712.348V0H311.652v66.782H200.348v66.784h-66.782v66.782H66.782v111.304H0v66.782h133.566V267.13h66.782v-66.782h66.782v-66.782h489.74v66.782h66.782v66.782h66.782v111.304H1024v-66.782z"/><path d="M200.348 66.782h111.304v66.782H200.348zm-66.782 66.784h66.782v66.782h-66.782zm-66.784 66.782h66.782v111.304H66.782zm0 512h66.782v111.304H66.782zm66.784 111.304h66.782v66.782h-66.782zm66.782 66.782h111.304v66.782H200.348zM311.652 0h400.696v66.782H311.652zm0 957.218h400.696V1024H311.652zM0 311.652h66.782v400.696H0zm712.348-244.87h111.304v66.782H712.348zm111.304 66.784h66.782v66.782h-66.782zm66.782 66.782h66.782v111.304h-66.782zm0 512h66.782v111.304h-66.782zm-66.782 111.304h66.782v66.782h-66.782zm-111.304 66.782h111.304v66.782H712.348zm244.87-578.782H1024v400.696h-66.782zM267.13 623.304h66.782V756.87H267.13zm422.956 0h66.782V756.87h-66.782zM333.914 756.87h356.174v66.782H333.914zM244.87 267.13h133.566v267.13H244.87zm400.696 0h133.566v267.13H645.566z"/></symbol><symbol id="express" viewBox="0 0 1024 1024"><path fill="#FD6B56" d="M957.335 643.702c-1.948 13.343-15.536 22.39-30.368 20.216L604.891 616.8c-14.825-2.169-25.266-14.732-23.306-28.075l43.27-295.813c1.952-13.334 15.545-22.382 30.38-20.206l322.083 47.118c14.816 2.167 25.25 14.73 23.3 28.066l-43.283 295.812z"/><path fill="#FFD161" d="m782.737 290.746 89.973 13.26-13.583 92.167-89.975-13.26z"/><path fill="#F56F5C" d="m400.578 131.662 238.454 27.726s17.744-21.072 0-33.272l-47.667-2.531s12.174-72.887-79.878-80.65c-.002 0-97.6-6.655-110.91 88.727z"/><path fill="#FDD15E" d="M408.853 139.287a103.296 103.296 0 0 0-8.275 40.619c0 57.273 46.424 103.7 103.7 103.7 57.272 0 103.697-46.426 103.697-103.7 0-5.953-.615-11.749-1.574-17.433l-197.548-23.186z"/><path fill="#FFD161" d="M361.759 367.897s31.054-87.618 123.106-74.309c0 0 56.566-1.37 107.584 79.722 0 0 30.187 58.911 54.466 75.549 0 0 70.86 11.09 145.167 9.98 0 0 59.891 38.82-7.763 73.201 0 0-137.527 6.654-176.346-15.526 0 0-69.871-55.455-72.09-65.436 0 0-17.745-7.764-23.29 13.309l-56.564 104.851s-7.763 17.148 6.654 34.892l85.397 104.254s15.529 27.727-1.108 74.31l-66.545 170.8s-51.018 25.508-61-26.62c0 0 4.437-63.217 29.946-131.981 0 0 16.636-33.27 3.327-54.343l-75.418-77.637s-35.491-15.526-46.582 11.091l-32.163 67.655s-32.163 38.816-59.89 48.798L87.813 838.149s-64.326 7.762-64.326-41.036c0 0-5.545-26.618 27.727-43.254 0 0 129.762-42.145 148.617-53.236 18.855-11.09 27.727-21.074 59.891-106.473L361.76 367.897z"/></symbol><symbol id="fa" viewBox="0 0 1024 1024"><path fill="#F3896E" d="M326.295 592.6A333.145 333.145 0 0 0 .314 934.445v89.043h553.195V690.855A314.723 314.723 0 0 0 325.783 592.6zm-6.141-97.743a237.961 237.961 0 0 0 231.82-244.102A237.961 237.961 0 0 0 320.154 6.14 237.961 237.961 0 0 0 88.845 250.755a237.961 237.961 0 0 0 231.309 244.102zm294.253 528.631a24.564 24.564 0 0 1-24.564-24.563V34.287a24.564 24.564 0 1 1 51.174 0v964.638a24.564 24.564 0 0 1-26.61 24.563z"/><path fill="#F3896E" d="M995.144 252.802 673.77 418.095a51.174 51.174 0 0 1-73.691-44.01l-3.582-322.91a51.174 51.174 0 0 1 72.667-46.058l324.958 157.618a51.174 51.174 0 0 1 1.023 90.067z"/></symbol><symbol id="formatter" viewBox="0 0 1024 1024"><path fill="#20A0FF" d="M304.89 751.877a36.69 36.69 0 0 1 .393 51.92L95.472 1013.454a36.668 36.668 0 0 1-51.854-.392 36.69 36.69 0 0 1-.37-51.897l209.724-209.703a36.668 36.668 0 0 1 51.897.393l.022.043zm40.787-40.85-196.042-62.16 166.41-117.171-4.095-204.887L477.01 450.56l193.558-64.403-64.403 193.536 123.708 165.104-204.887-4.031-117.063 166.433-62.246-196.15z"/><path fill="#20A0FF" d="M282.406 310.36c0-85.668-72.812-155.17-162.576-155.17 89.764 0 162.576-69.5 162.576-155.19 0 85.69 72.77 155.19 162.555 155.19-89.763 0-162.555 69.393-162.555 155.17zm0 108.935h460.321c0-85.667-72.791-155.168-162.576-155.168 89.763 0 162.576-69.502 162.576-155.19 0 85.688 72.791 155.19 162.555 155.19-89.764 0-162.555 69.392-162.555 155.168H282.363zM413.13 593.593l460.647 258.528c0-57.105-48.542-103.446-108.348-103.446 59.806 0 108.348-46.342 108.348-103.446 0 57.104 48.52 103.446 108.326 103.446-59.697 0-108.326 46.341-108.326 103.446L413.13 593.593z"/></symbol><symbol id="free" viewBox="0 0 1024 1024"><path fill="#ea9518" d="M511.765 5.714C231.704 5.714 4.67 232.75 4.67 512.81s227.035 507.097 507.095 507.097c280.063 0 507.096-227.035 507.096-507.097S791.828 5.714 511.765 5.714zM273.833 443.238H169.436v42.216h96.777v43.892h-96.777v96.93H111.22v-226.93h162.614v43.892zm179.652 183.037-61.736-83.213h-27.114v83.213h-58.218v-226.93h98.149c13.411 0 24.942.763 34.596 2.286 9.651 1.524 18.693 4.827 27.127 9.907 8.535 5.082 15.316 11.66 20.346 19.735 5.03 8.078 7.544 18.213 7.544 30.406 0 16.764-3.887 30.43-11.659 40.997-7.773 10.567-18.875 19.354-33.3 26.365l75.745 97.235h-71.48zm253.419-183.037h-105.92v39.168h98.3v43.892h-98.3v56.085h105.92v43.893H542.765v-226.93h164.139v43.892zm197.79 39.168v43.892h-98.302v56.085h105.92v43.893H748.175v-226.93h164.139v43.892h-105.92v39.168h98.3z"/><path fill="#ea9518" d="M418.129 444.61c-3.963-1.624-8.588-2.615-13.87-2.972-5.284-.355-11.43-.533-18.44-.533h-21.185v61.114h17.984c9.347 0 17.169-.456 23.47-1.371 6.299-.915 11.583-2.996 15.85-6.248 4.063-3.148 7.036-6.63 8.916-10.44 1.88-3.81 2.82-8.915 2.82-15.317 0-5.688-1.17-10.566-3.506-14.63-2.337-4.065-6.35-7.265-12.04-9.603z"/></symbol><symbol id="gitpush" viewBox="0 0 1024 1024"><path fill="#59A869" d="m218.88 896-90.496-90.496 558.08-558.08 90.496 90.496z"/><path fill="#59A869" d="M832 640 384 192h448z"/></symbol><symbol id="graph" viewBox="0 0 1161 1024"><path fill="#0081FF" d="M897.62 294.103C802.195 200.46 717.454 116.075 635.917 37.742a95.067 95.067 0 0 0-149.544 0c-95.78 92.575-156.31 153.817-261.702 256.361-65.515 68.007-39.166 110.022 26.704 110.022h623.1c66.938-1.425 80.825-53.053 23.143-110.022z"/><path fill="#62BA46" d="M649.804 454.329h409.465q62.31 0 62.31 62.31v409.465q0 62.31-62.31 62.31H649.804q-62.31 0-62.31-62.31V516.639q0-62.31 62.31-62.31Z"/><path fill="#F2A23A" d="M0 721.371a267.043 267.043 0 1 0 534.085 0 267.043 267.043 0 1 0-534.085 0Z"/></symbol><symbol id="grid" viewBox="0 0 1024 1024"><path fill="#EF6C00" d="M807.533 896.078H216.675c-32.5 0-59.169-26.46-59.169-59.169V187.091c0-32.501 26.46-59.17 59.17-59.17h590.857c32.501 0 58.96 26.46 58.96 59.17v649.818c0 32.501-26.667 59.17-58.96 59.17z"/><path fill="#FFE0B2" d="M216.675 187.09v649.82h590.65l.208-649.82z"/><path fill="#00897B" d="M264.386 232.093h89.587v89.378h-89.587z"/><path fill="#EC407A" d="M264.386 388.974h89.587v89.379h-89.587z"/><path fill="#00897B" d="M264.386 545.856h89.587v89.378h-89.587z"/><path fill="#EC407A" d="M264.386 702.737h89.587v89.379h-89.587zM399.6 232.093h89.587v89.378H399.6z"/><path fill="#00897B" d="M399.6 388.974h89.587v89.379H399.6zm0 156.882h89.587v89.378H399.6zm0 156.88h89.587v89.38H399.6zm135.213-470.643H624.4v89.378h-89.587zm0 156.881H624.4v89.379h-89.587z"/><path fill="#EC407A" d="M534.813 545.856H624.4v89.378h-89.587z"/><path fill="#00897B" d="M534.813 702.737H624.4v89.379h-89.587zm135.214-470.644h89.587v89.378h-89.587zm0 156.881h89.587v89.379h-89.587zm0 156.882h89.587v89.378h-89.587z"/><path fill="#EC407A" d="M670.027 702.737h89.587v89.379h-89.587z"/></symbol><symbol id="icp" viewBox="0 0 1024 1024"><path fill="#1296db" d="m512.438 0-408.09 188.264v280.61c0 257.813 172.82 495.72 401.998 553.567l6.152 1.547 6.14-1.595c228.626-58.757 401.001-296.665 401.001-553.58V187.988zM869.85 468.657c0 232.44-153.26 447.613-357.473 503.636-204.824-54.968-358.217-270.2-358.217-503.636V219.873L512.438 54.848 869.85 219.813z"/><path fill="#1296db" d="M288.176 329.186v268.006h-58.938V329.186zm223.71 71.504a59.261 59.261 0 0 0-13.19-14.833 60.772 60.772 0 0 0-17.82-9.94 61.444 61.444 0 0 0-20.84-3.598q-19.894 0-33.78 7.686a63.83 63.83 0 0 0-22.52 20.65 90.439 90.439 0 0 0-12.579 29.462 146.822 146.822 0 0 0-3.933 34.163 136.51 136.51 0 0 0 3.933 32.845 88.616 88.616 0 0 0 12.58 28.707 64.31 64.31 0 0 0 22.519 20.457q13.886 7.699 33.78 7.699 27.04 0 42.233-16.512t18.635-43.517h57.054a136.365 136.365 0 0 1-11.631 45.423 108.941 108.941 0 0 1-24.774 34.535 105.344 105.344 0 0 1-36.034 21.765 131.905 131.905 0 0 1-45.423 7.506q-30.77 0-55.364-10.696a118.402 118.402 0 0 1-41.479-29.463 130.394 130.394 0 0 1-25.9-44.104 162.135 162.135 0 0 1-9.006-54.609 167.759 167.759 0 0 1 9.005-55.747 133.931 133.931 0 0 1 25.901-44.848 118.438 118.438 0 0 1 41.479-30.038q24.582-10.876 55.364-10.876a134.915 134.915 0 0 1 41.85 6.38 113.378 113.378 0 0 1 35.29 18.574 100.403 100.403 0 0 1 25.71 30.218 108.15 108.15 0 0 1 12.758 41.286h-57.067a47.965 47.965 0 0 0-6.75-18.575zm227.092-71.504q25.182 0 42.785 7.315t28.78 19.33a74.478 74.478 0 0 1 16.14 27.4 102.526 102.526 0 0 1 0 63.626 74.19 74.19 0 0 1-16.14 27.58q-11.08 11.991-28.78 19.33t-42.785 7.315h-61.935v96.098h-58.938V329.186zM722.838 455.3a122.54 122.54 0 0 0 19.51-1.499 45.363 45.363 0 0 0 16.524-5.816 31.849 31.849 0 0 0 11.451-12.195q4.305-7.89 4.305-20.649t-4.305-20.65a31.849 31.849 0 0 0-11.451-12.17 45.363 45.363 0 0 0-16.524-5.816 123.954 123.954 0 0 0-19.51-1.499h-45.795v80.342z"/></symbol><symbol id="idcard" viewBox="0 0 1415 1024"><path fill="#F5C539" d="M60.235 69.27h1298.07v894.495H60.236z"/><path fill="#333" d="M1258.918 0H156.612C69.27 0 0 69.27 0 156.612v707.764C0 954.73 69.27 1024 156.612 1024h1102.306c87.34 0 156.611-69.27 156.611-156.612V156.612C1415.53 69.27 1346.26 0 1258.918 0zm78.306 867.388c0 42.165-36.142 78.306-78.306 78.306H156.612c-42.165 0-78.306-36.141-78.306-78.306V156.612c0-42.165 36.141-78.306 78.306-78.306h1102.306c42.164 0 78.306 36.141 78.306 78.306v710.776zm0 0"/><path fill="#333" d="M1108.33 542.118c42.164-36.142 69.27-90.353 69.27-150.589 0-108.423-87.341-195.764-195.765-195.764s-195.764 87.34-195.764 195.764c0 60.236 27.105 114.447 69.27 150.589C768 587.294 707.765 680.658 707.765 786.07c0 21.082 18.07 39.153 39.153 39.153 21.082 0 39.153-18.071 39.153-39.153 0-108.424 87.34-195.765 195.764-195.765S1177.6 677.647 1177.6 786.07c0 21.082 18.07 39.153 39.153 39.153 21.082 0 39.153-18.071 39.153-39.153 3.012-105.412-57.224-195.765-147.577-243.953zM864.375 394.54c0-66.259 54.212-117.459 117.46-117.459 66.258 0 117.458 54.212 117.458 117.46 0 66.258-54.212 117.458-117.459 117.458S864.375 457.787 864.375 394.54zM668.612 277.082H195.765c-21.083 0-39.153 18.07-39.153 39.153s18.07 39.153 39.153 39.153h472.847c21.082 0 39.153-18.07 39.153-39.153 0-24.094-18.07-39.153-39.153-39.153zm-39.153 195.765H195.765c-21.083 0-39.153 18.07-39.153 39.153 0 21.082 18.07 39.153 39.153 39.153h433.694c21.082 0 39.153-18.07 39.153-39.153 0-21.082-18.07-39.153-39.153-39.153zM512 668.612H195.765c-21.083 0-39.153 18.07-39.153 39.153 0 21.082 18.07 39.153 39.153 39.153H512c21.082 0 39.153-18.07 39.153-39.153s-18.07-39.153-39.153-39.153zm0 0"/></symbol><symbol id="info" viewBox="0 0 1024 1024"><path fill="#3C72AE" d="M512 1024A512 512 0 1 1 512 0a512 512 0 0 1 0 1024zm0-166.434a59.733 59.733 0 0 0 59.733-59.665V456.567a59.733 59.733 0 0 0-119.466 0v341.334c0 32.973 26.76 59.665 59.733 59.665zm0-537.532a76.8 76.8 0 1 0 0-153.6 76.8 76.8 0 0 0 0 153.6z"/></symbol><symbol id="ip" viewBox="0 0 1024 1024"><path fill="#444445" d="M512 1023.2 194.1 747.1l-.7-.7c-85.3-83.3-132.2-193-132.2-309s47-225.7 132.2-308.9C235.1 87.9 284.1 56 339.2 34 394.2 12 452.3.8 512 .8 571.7.8 629.8 12 684.8 34c55.1 22.1 104.2 53.9 145.8 94.6 85.2 83.2 132.2 192.9 132.2 308.9 0 116-46.9 225.8-132.2 309l-.7.7-317.9 276zM237.5 700 512 938.4 786.5 700c72.4-71 112.3-164.2 112.2-262.6 0-98.6-40.1-192-112.9-263.1-71.2-69.6-171-109.5-273.8-109.5-102.8 0-202.6 39.9-273.8 109.5-72.8 71.1-112.9 164.5-112.9 263.1-.1 98.4 39.8 191.6 112.2 262.6z"/><path fill="#D93934" d="M320.1 256h64v384h-64zm320 0h-192v384h64V512h128c70.6 0 128-57.4 128-128s-57.4-128-128-128zm0 192h-128V320h128c35.3 0 64 28.7 64 64 0 35.2-28.7 64-64 64z"/></symbol><symbol id="js" viewBox="0 0 1024 1024"><path fill="#14ADC4" d="M943.004 243.916 527.964 4.47a31.926 31.926 0 0 0-31.927 0L80.997 243.916a31.926 31.926 0 0 0-15.964 27.457v478.892a31.926 31.926 0 0 0 15.963 27.457l118.127 68.322a162.824 162.824 0 0 0 52.36 5.108c88.754 0 116.21-34.48 116.21-119.404V328.84h-69.598v418.87c0 30.65-14.048 44.059-52.36 44.059a56.19 56.19 0 0 1-14.047 0l-102.802-60.022V289.89L512 68.96l383.114 220.93v441.858L512 952.678l-114.934-63.853a31.926 31.926 0 0 0-31.926 55.552l130.897 75.346a31.926 31.926 0 0 0 31.926 0l415.04-239.447a31.926 31.926 0 0 0 15.964-27.456V271.373a31.926 31.926 0 0 0-15.963-27.457z"/><path fill="#14ADC4" d="M618.633 667.257c-88.754 0-115.572-40.865-115.572-73.43h-70.238c7.662 106.634 104.08 127.705 187.726 127.705 112.38 0 184.533-40.227 184.533-127.705 0-51.082-35.757-84.285-127.704-97.694l-101.526-10.855C526.048 478.893 512 464.207 512 439.943c0-42.781 51.72-56.19 97.056-56.19 72.791 0 107.91 31.287 109.826 68.96h70.237c-1.277-69.599-55.551-123.873-175.594-123.873-101.525 0-165.377 43.42-165.377 118.127a102.802 102.802 0 0 0 97.694 97.694l115.573 15.324c56.19 7.663 69.599 22.987 69.599 49.167s-22.349 58.105-112.38 58.105z"/></symbol><symbol id="json" viewBox="0 0 1024 1024"><path fill="#1F81FF" d="M941.84 218.677 520.798 64.29a28.116 28.116 0 0 0-19.373 0L80.387 218.677A28.067 28.067 0 0 0 62 245.065V750.31a28.076 28.076 0 0 0 16.979 25.826l422.73 182.452a28.071 28.071 0 0 0 22.31 0l419.365-182.452a28.076 28.076 0 0 0 16.839-25.826V539.792a28.067 28.067 0 1 0-56.138 0v192.137L512.792 902.173 118.138 731.788V264.707l392.971-144.135 392.976 144.135v108.49a28.071 28.071 0 1 0 56.138 0V245.065a28.062 28.062 0 0 0-18.383-26.388zm0 0"/><path fill="#DD697C" d="M331.541 657.192c0-38.389 4.739-63.99 4.739-99.063 0-20.38-9.954-40.765-45.977-41.238v-33.178c36.023-.473 45.977-20.858 45.977-40.289 0-35.55-4.739-61.146-4.739-99.54 0-55.93 19.908-72.522 63.99-72.522h26.541v29.862h-12.321c-27.018 0-34.128 12.326-34.128 45.504 0 30.812 2.844 58.302 2.844 93.375 0 36.495-9.954 53.087-34.6 59.252v2.367c24.646 6.165 34.6 23.229 34.6 59.252 0 35.077-2.844 62.563-2.844 93.375 0 33.178 7.11 45.031 34.128 45.031h12.321v30.335h-26.541c-44.082 0-63.99-16.592-63.99-72.522zm134.613 55.458c32.234-13.27 51.192-36.972 51.665-64.939-1.9.472-3.317.472-5.216.472-19.435 0-36.5-12.32-36.5-35.073 0-21.33 17.065-35.077 37.922-35.077 26.541 0 42.183 22.275 42.183 58.779 0 49.77-28.912 88.16-77.733 106.645l-12.321-30.807zm9.005-282.024c0-22.275 16.114-38.866 36.495-38.866 20.385 0 36.499 16.591 36.499 38.867 0 21.802-16.114 37.921-36.5 37.921-20.38-.005-36.494-16.119-36.494-37.922zM601.23 699.38h12.325c27.018 0 34.128-11.853 34.128-45.032 0-30.811-2.371-58.297-2.371-93.375 0-36.022 9.477-53.086 34.128-59.251v-2.367c-24.651-6.165-34.128-22.752-34.128-59.252 0-35.073 2.371-62.568 2.371-93.375 0-33.178-7.11-45.504-34.128-45.504H601.23v-29.862h26.545c44.078 0 64.458 16.592 64.458 72.522 0 38.394-4.738 63.99-4.738 99.54 0 19.431 9.954 39.816 45.499 40.289v33.178c-35.545.473-45.5 20.858-45.5 41.238 0 35.073 4.739 60.67 4.739 99.063 0 55.935-20.38 72.522-64.458 72.522H601.23V699.38z"/></symbol><symbol id="key" viewBox="0 0 1024 1024"><path fill="#FC6C2E" d="M575.97 587.896a274.312 274.312 0 0 0-57.344-542.298 274.251 274.251 0 0 0-58.428 542.178v385.325H576.03v-.783h116.074V856.486H575.97v-56.923h173.96V683.671H575.97v-95.775zm-57.886-251.301a86.86 86.86 0 1 1 86.86-86.86c0 47.948-38.913 86.86-86.86 86.86z"/></symbol><symbol id="lock" viewBox="0 0 1024 1024"><path fill="#FF8100" d="M903.75 510.08a55.64 55.64 0 0 0-55.65-55.65H347.23V371H350a167 167 0 1 1 328.29 0h112.77c.88-9.15 1.38-18.42 1.38-27.82 0-153.69-124.57-278.26-278.26-278.26S235.91 189.44 235.91 343.13c0 9.4.51 18.67 1.4 27.82h-1.4v83.48h-55.65a55.64 55.64 0 0 0-55.65 55.65v111.31a55.72 55.72 0 0 0 1.28 11.71c-.49 5.34-1.28 10.64-1.28 16.11v139.13a167 167 0 0 0 167 167h445.18a167 167 0 0 0 167-167V649.21c0-5.47-.78-10.77-1.28-16.11a55.72 55.72 0 0 0 1.28-11.71zM540.61 725.73c.59 2.28 1.4 4.49 1.4 7v55.65a27.83 27.83 0 1 1-55.65 0v-55.69c0-2.47.81-4.68 1.39-7a55.66 55.66 0 1 1 52.86 0z"/></symbol><symbol id="lottery" viewBox="0 0 1024 1024"><path fill="#D81E06" d="m512.64 379.392-55.168-32.576L359.936 512h-8.896L233.728 351.552l-51.712 37.76L271.744 512H192v64h128v64H192v64h128v64h64v-64h128v-64H384v-64h128v-64h-77.696z"/><path fill="#D81E06" d="M896 192H128C57.408 192 0 249.408 0 320v448c0 70.592 57.408 128 128 128h768c70.592 0 128-57.408 128-128v-96.64l-64-5.248c-50.112-17.344-86.4-64.576-86.4-120.512 0-55.936 36.224-103.104 86.4-120.448l64-5.312V320c0-70.592-57.408-128-128-128zM128 832c-35.264 0-64-28.672-64-64V320c0-35.264 28.736-64 64-64h512v576H128zm832-473.536C874.112 377.536 809.6 454.08 809.6 545.6c0 91.584 64.512 168.064 150.4 187.2V768c0 35.328-28.672 64-64 64H704V256h192c35.328 0 64 28.736 64 64v38.464z"/></symbol><symbol id="love" viewBox="0 0 1024 1024"><path fill="#C53938" d="M524.1 171.66c-110.22-11.72-165.6 98.16-165.6 98.16s-94.89-78.33-191.09-23.26S4.8 449.48 147.14 606.6c142.34 157.11 315.27 158.04 315.27 158.04s157.95-70.41 225.07-271.5c67.12-201.1-53.16-309.76-163.38-321.48z"/><path fill="#F5E5E5" d="M887.36 476.37c-72.82-48.51-151.74 8.1-151.74 8.1s-37.73-89.5-125.17-86.17-187.98 82.47-145.87 244.44 162.74 225.87 162.74 225.87 136.25 8.52 256.75-107.6c120.5-116.13 76.11-236.13 3.29-284.64z"/></symbol><symbol id="markdown" viewBox="0 0 1024 1024"><path d="M231.668 1.895h561.578c126.88 0 229.736 102.858 229.736 229.735v561.58c0 126.878-102.855 229.736-229.736 229.736H231.668c-126.88 0-229.735-102.858-229.735-229.736V231.63c0-126.877 102.855-229.735 229.735-229.735z"/><path fill="#fff" d="M798.271 751.117 692.328 611.476h54.833V273.724h102.22v337.752h54.834L798.271 751.117zM519.996 467.432c0-15.605.345-32.107 1.044-49.48l-15.56 21.73c-.196.618-.394 1.255-.592 1.85l-8.138 11.953-124.612 189.59-46.11-71.579h-.285l-32.247-50.504-46.876-72.768h.415l-9.786-15.326-.527-2.133-16.408-24.24c1.199 37.8 1.826 65.336 1.826 82.492V750.18H120.697V275.337h159.72l88.626 131.15h1.518l91.16-131.15h161.875V750.18h-103.6V467.432z"/></symbol><symbol id="message" viewBox="0 0 1024 1024"><path fill="#17B3A3" d="M423.424 92.16C284.16 117.248 163.84 200.192 105.472 312.32 74.24 371.712 64 414.72 64.512 481.28c1.024 102.912 32.768 175.104 112.64 255.488l48.128 47.616 1.024 96.768 1.536 96.768 91.648-54.784 91.648-55.296h92.672c86.016-.512 95.744-1.536 138.752-14.336 92.672-28.672 148.992-62.464 209.92-127.488 41.984-44.544 65.024-81.408 82.432-131.584 62.464-179.712-23.04-367.104-209.92-458.752-69.12-34.304-114.176-44.544-202.752-46.592-40.96-.512-85.504.512-98.816 3.072zm193.536 68.608c16.896 4.608 52.224 18.944 78.848 31.744 39.424 19.456 56.32 31.744 90.112 65.536 70.656 70.144 96.256 129.536 96.256 220.672s-25.6 150.528-95.744 220.16c-46.08 45.568-95.232 74.752-161.792 95.232-32.256 10.24-49.664 12.288-107.52 12.288-37.888 0-76.288-1.536-85.504-3.584-13.824-3.072-24.064 1.024-79.36 34.304l-62.976 38.4-1.536-66.56-1.536-66.048-16.896-10.752C244.736 717.312 192 659.968 174.08 628.224c-28.672-50.176-38.4-87.04-38.4-149.504 0-58.88 6.656-87.04 30.72-135.68 46.08-91.648 143.872-162.816 258.56-186.88 42.496-9.216 149.504-6.656 192 4.608z"/><path fill="#17B3A3" d="M263.68 424.448c-23.04 10.24-33.28 27.136-33.28 54.784 0 26.112 27.136 53.248 53.248 53.248 26.624 0 46.08-11.776 56.832-34.304 8.192-16.896 8.192-20.992 2.048-39.424-12.8-35.328-45.056-49.664-78.848-34.304zm203.776 13.312c-16.896 16.896-17.92 19.968-15.36 41.984 6.656 59.904 86.528 73.216 109.568 18.432 16.384-40.448-9.216-78.336-53.248-78.336-19.456 0-25.6 2.56-40.96 17.92zm230.912-8.704c-15.36 12.288-22.528 28.16-22.528 49.664 0 26.624 27.136 53.76 53.248 53.76 26.624 0 46.08-11.776 56.832-33.792 7.168-15.872 7.68-22.016 3.072-38.4-8.192-27.136-27.136-40.448-56.32-40.448-14.336 0-27.648 3.584-34.304 9.216z"/></symbol><symbol id="microsoft" viewBox="0 0 1024 1024"><path fill="#F25022" d="M18.753 17.145h468.424l-.02 468.426H18.774V17.145h-.02zm0 0"/><path fill="#80BA01" d="M534.999 17.145h468.422c0 156.141.022 312.283-.02 468.426H535.038c-.06-156.162-.039-312.285-.039-468.426zm0 0"/><path fill="#02A4EF" d="M18.753 533.352c156.141.058 312.282-.019 468.424.058v468.386H18.753V533.352zm0 0"/><path fill="#FFB902" d="M535.018 533.41c156.124-.058 312.243-.019 468.383-.019v468.422H534.999c.019-156.163-.02-312.28.019-468.403zm0 0"/></symbol><symbol id="mind" viewBox="0 0 1024 1024"><path fill="#CFD8DC" d="m840.533 490.667-17.066-85.334-268.8 55.467V170.667h-85.334v262.4l-296.533-192-46.933 72.533 324.266 209.067-249.6 326.4 68.267 51.2 241.067-315.734 179.2 270.934 72.533-46.934-179.2-266.666z"/><path fill="#3F51B5" d="M362.667 512a149.333 149.333 0 1 0 298.666 0 149.333 149.333 0 1 0-298.666 0Z"/><path fill="#00BCD4" d="M405.333 170.667a106.667 106.667 0 1 0 213.334 0 106.667 106.667 0 1 0-213.334 0Zm320 277.333a106.667 106.667 0 1 0 213.334 0 106.667 106.667 0 1 0-213.334 0ZM42.667 277.333a106.667 106.667 0 1 0 213.333 0 106.667 106.667 0 1 0-213.333 0ZM128 874.667a106.667 106.667 0 1 0 213.333 0 106.667 106.667 0 1 0-213.333 0ZM618.667 832A106.667 106.667 0 1 0 832 832a106.667 106.667 0 1 0-213.333 0Z"/></symbol><symbol id="nginx" viewBox="0 0 1154 1024"><path fill="#00AA4E" d="m982.691 467.407-433.298 1.39a106.746 106.746 0 1 0-3.032 213.364h3.032l261.368-1.39-64.047 129.864H410.686L244.062 517.937 412.076 213.87h357.377l83.375 171.046h214.755L932.16 60.005 902.853 0H285.371l-29.308 54.7L29.308 466.648 0 518.695l29.308 51.92 227.387 398.686 30.57 54.699H881l28.55-60.005 169.277-341.08 75.795-154.75z"/></symbol><symbol id="nlp" viewBox="0 0 1024 1024"><path fill="#1AA95E" d="M519.68 980.992 116.736 752.128V271.872L519.68 27.648l402.944 236.544 7.68 487.936L519.68 980.992zM160.768 726.016l359.424 204.288 366.08-204.288-6.656-436.224L520.704 78.848l-359.424 217.6v429.568z"/><path fill="#1AA95E" d="M516.096 813.056h14.848v75.264h-14.848v-75.264zm282.112-172.544 60.416 30.208-6.656 13.312-60.416-30.208 6.656-13.312zm38.4-331.264 6.656 13.312-60.416 30.208-6.656-13.312 60.416-30.208zm-641.024 15.36L256 354.816l-6.656 13.312-60.416-30.208 6.656-13.312zm52.224 316.928 9.216 12.288-60.416 45.056-9.216-12.288 60.416-45.056zM516.096 135.68h14.848v75.264h-14.848V135.68zM463.36 60.416c0 33.28 27.136 60.416 60.416 60.416s60.416-27.136 60.416-60.416S557.056 0 523.776 0 463.36 27.136 463.36 60.416zm0 903.168c0 33.28 27.136 60.416 60.416 60.416s60.416-27.136 60.416-60.416-27.136-60.416-60.416-60.416c-33.28.512-60.416 27.136-60.416 60.416zm391.68-240.64c0 33.28 27.136 60.416 60.416 60.416s60.416-27.136 60.416-60.416-27.136-60.416-60.416-60.416-60.416 27.136-60.416 60.416zm0-452.096c0 33.28 27.136 60.416 60.416 60.416s60.416-27.136 60.416-60.416-27.136-60.416-60.416-60.416-60.416 27.136-60.416 60.416zM71.68 737.792c0 33.28 27.136 60.416 60.416 60.416s60.416-27.136 60.416-60.416-27.136-60.416-60.416-60.416-60.416 27.136-60.416 60.416zM56.832 301.056c0 33.28 27.136 60.416 60.416 60.416s60.416-27.136 60.416-60.416-27.136-60.416-60.416-60.416-60.416 27.136-60.416 60.416zm215.552 107.008h35.84l107.52 157.184h1.024V408.064h35.84v217.6h-34.816L308.736 466.432h-1.024v159.232h-35.84v-217.6zm222.72 0h35.328v187.392h117.76v30.72H495.104V408.064zm180.736 0h90.112c52.736 0 78.848 22.016 78.848 66.56 0 45.056-26.624 67.584-79.36 67.584h-53.76v83.456h-35.84v-217.6zm35.84 30.72V512h51.712c15.872 0 27.136-3.072 34.816-8.704 7.168-6.144 10.752-15.36 10.752-28.16s-3.584-22.016-11.264-27.648c-7.168-5.632-18.432-8.704-34.304-8.704H711.68z"/></symbol><symbol id="nsfw" viewBox="0 0 1024 1024"><path fill="#3AAAD8" d="M327.68 0v40.96H204.8c-90.49 0-163.84 73.35-163.84 163.84v122.88H0V204.8C0 91.689 91.689 0 204.8 0h122.88zm368.64 0H819.2C932.311 0 1024 91.689 1024 204.8v122.88h-40.96V204.8c0-90.49-73.35-163.84-163.84-163.84H696.32V0zM1024 696.32V819.2c0 113.111-91.689 204.8-204.8 204.8H696.32v-40.96H819.2c90.49 0 163.84-73.35 163.84-163.84V696.32H1024zM327.68 1024H204.8C91.689 1024 0 932.311 0 819.2V696.32h40.96V819.2c0 90.49 73.35 163.84 163.84 163.84h122.88V1024zM512 870.4c197.94 0 358.4-160.46 358.4-358.4S709.94 153.6 512 153.6 153.6 314.06 153.6 512 314.06 870.4 512 870.4zm0-40.96c-175.309 0-317.44-142.131-317.44-317.44S336.691 194.56 512 194.56 829.44 336.691 829.44 512 687.309 829.44 512 829.44z"/><path fill="#FFC221" d="M430.08 512a81.92 81.92 0 1 0 163.84 0 81.92 81.92 0 1 0-163.84 0z"/><path fill="#3AAAD8" d="M512 153.6a20.48 20.48 0 0 1 20.48 20.48v102.4h-40.96v-102.4A20.48 20.48 0 0 1 512 153.6zm0 716.8a20.48 20.48 0 0 1-20.48-20.48v-102.4h40.96v102.4A20.48 20.48 0 0 1 512 870.4zM870.4 512a20.48 20.48 0 0 1-20.48 20.48h-102.4v-40.96h102.4A20.48 20.48 0 0 1 870.4 512zm-716.8 0a20.48 20.48 0 0 1 20.48-20.48h102.4v40.96h-102.4A20.48 20.48 0 0 1 153.6 512z"/></symbol><symbol id="ocr" viewBox="0 0 1024 1024"><path fill="#518DE7" d="M1022.54 731.827V913.92a109.389 109.389 0 0 1-109.26 109.26H694.81a36.378 36.378 0 0 1-36.43-36.428c0-20.147 16.282-36.429 36.43-36.429h218.496c20.096 0 36.403-16.307 36.403-36.403V731.827a36.378 36.378 0 1 1 72.832 0zM294.068 950.323H112a36.454 36.454 0 0 1-36.429-36.403V731.827a36.403 36.403 0 1 0-72.832 0V913.92A109.389 109.389 0 0 0 112 1023.18h182.067a36.403 36.403 0 1 0 0-72.857zM38.17 328.09c20.096 0 36.403-16.308 36.403-36.404V109.62c0-20.07 16.358-36.429 36.429-36.429h182.067a36.429 36.429 0 0 0 0-72.832H111.002A109.389 109.389 0 0 0 1.74 109.62v182.067c0 20.096 16.307 36.404 36.429 36.404zM914.304.358H695.808a36.403 36.403 0 1 0 0 72.832h218.496c20.096 0 36.403 16.359 36.403 36.43v182.066a36.403 36.403 0 1 0 72.832 0V109.62A109.389 109.389 0 0 0 914.304.36zm-530.893 509.44c0 97.588-55.219 155.981-136.422 155.981-81.178 0-136.397-58.393-136.397-156.006 0-97.587 55.22-152.807 136.397-152.807 81.203 0 136.422 55.604 136.422 152.832zm-72.806 0c0-57.6-24.397-91.622-63.616-91.622-39.168 0-63.181 33.997-63.181 91.597 0 58.01 23.987 94.413 63.18 94.413 39.22 0 63.617-36.404 63.617-94.413zm246.784 94.388c-41.984 0-69.197-34.407-69.197-93.594 0-58.01 31.616-92.416 70.016-92.416 21.197 0 36.787 9.6 51.584 23.194l37.632-45.568c-20.429-20.813-51.635-38.836-90.42-38.836-75.596 0-142.002 56.832-142.002 156.007 0 100.813 64 152.806 139.596 152.806 38.81 0 72.013-14.797 97.204-44.006l-37.607-44.8c-14.003 15.206-33.203 27.213-56.806 27.213zm302.413-62.004 66.406 118.016h-80l-54.784-104.832h-34.432v104.807h-71.603v-297.6h109.21c63.59 0 116.403 21.606 116.403 93.619 0 43.597-20.404 71.578-51.2 85.99zm-18.79-86.016c0-27.98-18.023-37.196-52.02-37.196h-32v80h32c33.997 0 52.02-14.797 52.02-42.778z"/></symbol><symbol id="office" viewBox="0 0 1024 1024"><path fill="#d81e06" d="M925.013 68.267 634.88 0h-10.24L95.573 204.8c-6.826 3.413-10.24 10.24-10.24 17.067V768c0 6.827 3.414 10.24 6.827 13.653s10.24 3.414 17.067 0l136.533-68.266c6.827-3.414 10.24-10.24 10.24-13.654v-430.08L665.6 143.36v744.107L105.813 819.2c-10.24 0-17.066 3.413-17.066 13.653-3.414 10.24 3.413 17.067 10.24 20.48L645.12 1024h10.24l273.067-102.4c6.826-3.413 10.24-10.24 10.24-17.067v-819.2c0-6.826-6.827-13.653-13.654-17.066z"/></symbol><symbol id="p2p" viewBox="0 0 1024 1024"><path fill="#5FB86C" d="M511.56 939.742 189.013 750.739h233.612c7.275 42.876 44.196 75.55 88.935 75.55s81.633-32.674 88.909-75.55h233.664L511.534 939.742zm-38.163-845.54-125.44 216.912a89.064 89.064 0 0 0-28.558-5.074 90.618 90.618 0 0 0-60.067 158.322l-117.855 203.76V288.667L473.397 94.2zm7.508 556.133L375.35 467.779a90.359 90.359 0 0 0 32.13-50.927h208.084a90.41 90.41 0 0 0 32.156 50.927L542.266 650.31a89.4 89.4 0 0 0-30.68-5.722 89.323 89.323 0 0 0-30.655 5.722zm30.888-561.39 136.625 236.46a90.41 90.41 0 0 0-34.175 60.844h-205.47a90.41 90.41 0 0 0-33.865-60.584l136.885-236.72zM146.759 720.112l138.36-239.231c10.564 4.375 22.11 6.861 34.28 6.861 10.252 0 19.935-2.071 29.127-5.23L454.367 665.56a90.359 90.359 0 0 0-31.742 54.552H146.76zm453.71 0a90.307 90.307 0 0 0-31.69-54.526L674.541 482.51c9.191 3.159 18.849 5.23 29.101 5.23 12.247 0 23.898-2.486 34.565-6.939L876.463 720.11H600.47zm281.173-52.248L763.943 464.155a90.644 90.644 0 0 0-60.3-158.115c-9.916 0-19.288 1.993-28.22 4.945L550.396 94.59l331.246 194.077v379.196zM522.615 27.61a21.904 21.904 0 0 0-22.085 0L108.596 257.261a21.852 21.852 0 0 0-10.822 18.9v459.251a21.92 21.92 0 0 0 10.822 18.9L500.53 983.963a21.826 21.826 0 0 0 22.085 0l391.986-229.65a21.955 21.955 0 0 0 10.797-18.9V276.135c0-7.767-4.143-14.94-10.797-18.875L522.615 27.611z"/><path fill="#5FB86C" d="M491.287 49.23 97.747 731.346l42.617 24.596L533.904 73.8zM654.4 433.758 506.874 689.43l42.616 24.596 147.5-255.671z"/><path fill="#5FB86C" d="m377.316 433.759 147.5 255.671-42.616 24.596-147.5-255.671zM534.06 49.229l380.957 669.975-42.772 24.312L491.287 73.54z"/><path fill="#5FB86C" d="M306.816 418.173h394.42V368.98h-394.42zM134.642 762.52h750.185v-49.193H134.642z"/></symbol><symbol id="pdf" viewBox="0 0 1024 1024"><path fill="#EA4318" d="M938.667 1024H213.333A85.333 85.333 0 0 1 128 938.667V832H42.667A42.667 42.667 0 0 1 0 789.333V426.667a42.923 42.923 0 0 1 12.501-30.123A42.41 42.41 0 0 1 42.667 384H128V85.333A85.333 85.333 0 0 1 213.333 0h530.048L1024 282.453v656.214A85.333 85.333 0 0 1 938.667 1024zM192 832v106.667A21.333 21.333 0 0 0 213.333 960h725.334A21.333 21.333 0 0 0 960 938.667V308.82l-10.112-10.154H823.467a98.133 98.133 0 0 1-98.134-98.134v-128L716.8 64H213.333a21.675 21.675 0 0 0-15.104 6.23A21.333 21.333 0 0 0 192 85.332V384h640a42.667 42.667 0 0 1 42.667 42.667v362.666A42.667 42.667 0 0 1 832 832zm424.448-359.51v274.177h44.885V625.323h134.059v-38.4H661.333V510.89h142.123v-38.4zm-276.48 0v274.177h100.224a130.773 130.773 0 0 0 100.992-36.864 141.995 141.995 0 0 0 33.024-100.224 140.8 140.8 0 0 0-33.024-100.224 130.645 130.645 0 0 0-100.992-36.864H339.968zm-251.52 0v274.177h44.97V641.45h67.969c66.517 0 100.224-28.544 100.224-84.822s-33.451-84.096-99.456-84.096zm343.339 235.777h-46.934V510.89h46.934a103.168 103.168 0 0 1 74.88 23.424 104.107 104.107 0 0 1 23.04 75.306 105.856 105.856 0 0 1-23.04 74.88 102.912 102.912 0 0 1-74.88 23.766zM198.699 603.05h-65.28v-92.16h65.28a70.187 70.187 0 0 1 43.349 10.752 41.088 41.088 0 0 1 14.25 34.986 43.093 43.093 0 0 1-13.823 35.712 72.533 72.533 0 0 1-43.776 10.71z"/></symbol><symbol id="pdm" viewBox="0 0 1204 1024"><path fill="#3F92FE" d="M1101.523 12.83h-998.34c-45.779 0-83.185 37.406-83.185 83.245v831.97c0 45.779 37.346 83.245 83.185 83.245h998.34c45.779 0 83.185-37.406 83.185-83.245V96.075c0-45.779-37.346-83.245-83.185-83.245zm1.927 926.359H94.81v-673.43h1008.7v673.43h-.12z"/><path fill="#CAE1FF" d="M730.835 802.274v88.666H473.87v-88.666h256.964zm315.512 0v88.666H789.203v-88.666h257.205zM730.835 639.639v88.726H473.87v-88.787h256.964zm315.512 0v88.726H789.203v-88.787h257.205zM730.835 477.003v88.727H473.87v-88.666h256.964zm315.512 0v88.727H789.203v-88.666h257.205zM730.835 314.488v88.667H473.87v-88.667h256.964zm315.512 0v88.667H789.203v-88.667h257.205z"/><path fill="#84BAFF" d="M415.503 802.274v88.666H158.298v-88.666h257.205zm0-487.786v88.667H158.298v-88.667h257.205z"/><path fill="#FFB04B" d="M415.503 477.064v88.666H158.298v-88.666zm0 162.514v88.787H158.298v-88.787z"/></symbol><symbol id="ping" viewBox="0 0 1024 1024"><path fill="#2D74DA" d="M144 64c-44.8 0-80 35.2-80 80s35.2 80 80 80 80-35.2 80-80-35.2-80-80-80zm736 736c-44.8 0-80 35.2-80 80s35.2 80 80 80 80-35.2 80-80-35.2-80-80-80z"/><path fill="#E62325" d="M512 128h-32v32h32v-32zm-64 0h-32v32h32v-32zm-64 0h-32v32h32v-32zm-64 0h-32v32h32v-32zm-64 0h-32v32h32v-32z"/><path fill="#E62325" d="M512 128h-32v64h32v-64zm0 96h-32v32h32v-32zm0 64h-32v32h32v-32zm0 64h-32v32h32v-32zm0 64h-32v32h32v-32zm0 64h-32v32h32v-32zm0 64h-32v32h32v-32zm0 64h-32v32h32v-32zm0 64h-32v32h32v-32zm0 64h-32v32h32v-32zm0 64h-32v32h32v-32zm0 64h-32v32h32v-32zm288 0h-32v32h32v-32zm-64 0h-32v32h32v-32zm-64 0h-32v32h32v-32zm-64 0h-32v32h32v-32zm-64 0h-32v32h32v-32z"/></symbol><symbol id="ps" viewBox="0 0 1024 1024"><path fill="#50E6FF" d="M768 128H256a128 128 0 0 0-128 128v512a128 128 0 0 0 128 128h512a128 128 0 0 0 128-128V256a128 128 0 0 0-128-128z"/><path fill="#092347" d="M768 853.333H256A85.333 85.333 0 0 1 170.667 768V256A85.333 85.333 0 0 1 256 170.667h512A85.333 85.333 0 0 1 853.333 256v512A85.333 85.333 0 0 1 768 853.333z"/><path fill="#FFF" d="M309.483 327.936c0-2.261 1.642-4.16 3.882-4.416 8.534-.939 32.342-2.88 83.136-2.88 76.544 0 130.155 30.357 130.155 113.43 0 74.922-51.008 118.89-133.312 118.89h-25.941v125.483a3.806 3.806 0 0 1-3.798 3.797h-50.304a3.797 3.797 0 0 1-3.797-3.797V327.936zm57.92 172.267s25.322.17 31.04.17c46.997 0 68.373-27.861 68.373-65.194 0-34.966-20.779-62.23-64.213-62.23-17.899 0-35.179 1.024-35.179 1.024v126.23zm190.592 117.824c0-2.027 2.197-3.286 3.882-2.176 10.752 7.189 32.576 19.498 66.368 19.498 22.059 0 36.011-9.493 36.011-24.981 0-17.152-23.573-29.59-43.03-40.15-19.349-10.495-62.805-27.349-62.805-81.62 0-48.107 38.443-77.12 90.795-77.12 20.053 0 42.176 3.114 57.11 8.554a6.187 6.187 0 0 1 3.946 5.91v48.874c0 2.005-2.112 3.307-3.797 2.197-9.366-6.122-30.016-15.488-58.432-15.488-23.659 0-34.07 11.52-34.07 23.254 0 20.565 27.392 29.162 51.968 43.584 38.336 21.333 56.107 42.176 56.107 74.837 0 53.419-39.83 83.413-93.781 83.413-27.862 0-54.059-6.08-67.456-14.229a6.101 6.101 0 0 1-2.795-5.355l-.021-49.002z"/></symbol><symbol id="qrcode" viewBox="0 0 1024 1024"><path fill="#36ab60" d="M128 64H64v192h64V128.1h128.1v-64H128V64zm832.1-.1h-64v.2H768v64h128.1v127.8h64v-192zM128 767.6H64v192h64v-.2h128.1v-64H128V767.6zm832.1 0h-64v127.8H768v64h128.1v.2h64v-192z"/><path fill="#87c38f" d="M768.2 255.8v64h-64v-64h64m-448.1 0v64h-64v-64h64m127.7 192h.3v.3h-.3v-.3m320.4 256v64h-64v-64h64m-448.5 0v64h-64v-64h64m512.5-512h-192v128h-32v-64h-64v64h-32v-128h-64V320h31.5v63.8h-95.5v-192h-192v192H384v64.3h-63.8v-.1h-128v128h64v63.8h-64.3v192h192V738H449v93.6h64v-64.2h64v-24.9h63.2v89.2h192v-192h-64V576h64V448h-64v-64.3h64V191.8zm-256.3 192h128.2v64.3h-128v64h64v63.7h-64.8v-63.7l-63.2-.1v-63.9h64v-64.3h-.2zm-127.8 160v-31.7H481v31.7h-32.9zm-128 32v-63.7h64v64h31.7v31.8H481v31.7h-32v34.5h-65.3v-34.2h-31.6v-64h-32v-.1zM577 678.6v-38.8h63.2v-63.7h64v-32h64v31.7h-64v64h-64v38.8H577z"/></symbol><symbol id="rmb" viewBox="0 0 1024 1024"><path fill="#DD2634" d="M644.58 558.216H540.876v-54.107H644.58c19.163 0 34.38-15.217 34.38-34.38s-15.217-34.38-34.38-34.38h-86.232L671.07 300.647c12.4-14.654 10.145-36.635-4.51-49.034-14.653-12.4-36.634-10.145-49.033 4.509L506.496 389.133 394.902 256.122c-12.4-14.654-34.38-16.345-49.034-4.51-14.654 12.4-16.345 34.381-4.51 49.035L454.08 435.349h-85.668c-19.163 0-34.38 15.218-34.38 34.38s15.217 34.38 34.38 34.38h103.704v54.107H368.412c-19.163 0-34.38 15.217-34.38 34.38s15.217 34.38 34.38 34.38h103.704v118.358c0 19.163 15.217 34.38 34.38 34.38s34.38-15.217 34.38-34.38V626.976H644.58c19.163 0 34.38-15.217 34.38-34.38.564-18.6-15.217-34.38-34.38-34.38z"/><path fill="#DD2634" d="M924.13 120.856H98.443c-44.525 0-81.16 36.07-81.16 81.16v621.096c0 44.525 36.072 81.16 81.16 81.16h826.25c44.526 0 81.16-36.071 81.16-81.16V202.015c-.563-45.088-36.634-81.16-81.723-81.16zm30.998 667.876c0 40.016-33.253 72.142-73.832 72.142H141.278c-40.58 0-73.833-32.126-73.833-72.142V235.268c0-40.016 33.253-72.142 73.833-72.142h740.018c40.58 0 73.832 32.126 73.832 72.142v553.464zm-92.431 31.562c30.434 0 55.797-24.235 55.797-54.107v-74.96l-142.03 129.067h86.233zm0-618.279h-86.233l142.03 129.067v-74.397c0-30.435-24.799-54.67-55.797-54.67zM101.26 257.25v74.96l142.03-129.066h-86.232c-30.435 0-55.798 24.235-55.798 54.106zm0 509.502c0 29.871 24.8 54.106 55.798 54.106h86.232L101.26 691.791v74.96z"/></symbol><symbol id="sql" viewBox="0 0 1024 1024"><path fill="#EA5C87" d="M912 441.6h-48V252.8L678.4 64H252.8c-51.2 0-96 44.8-96 96v281.6H112c-25.6 0-48 22.4-48 48v281.6c0 25.6 22.4 48 48 48h48V864c0 51.2 41.6 92.8 92.8 92.8h518.4c51.2 0 92.8-41.6 92.8-92.8v-48h48c25.6 0 48-22.4 48-48V486.4c0-22.4-22.4-44.8-48-44.8zM204.8 160c0-25.6 22.4-48 48-48h377.6v92.8c0 51.2 41.6 92.8 92.8 92.8H816v140.8H204.8V160zm396.8 588.8c9.6 0 19.2 0 25.6-3.2l9.6 35.2c-9.6 3.2-22.4 6.4-41.6 6.4-48 0-83.2-25.6-99.2-64-51.2-9.6-86.4-54.4-86.4-124.8 0-80 44.8-124.8 108.8-124.8s108.8 44.8 108.8 124.8c0 67.2-32 108.8-80 121.6 12.8 22.4 35.2 28.8 54.4 28.8zm-368-89.6c16 16 41.6 25.6 60.8 25.6 25.6 0 38.4-9.6 38.4-28.8 0-19.2-16-22.4-35.2-32l-32-12.8c-25.6-9.6-48-28.8-48-64 0-38.4 35.2-70.4 83.2-70.4 28.8 0 57.6 9.6 76.8 32L352 537.6c-16-12.8-32-19.2-51.2-19.2-22.4 0-35.2 9.6-35.2 25.6s16 22.4 38.4 32l32 12.8c28.8 12.8 48 32 48 64 0 38.4-32 73.6-89.6 73.6-32 0-64-12.8-89.6-35.2l28.8-32zM819.2 864c0 25.6-22.4 48-48 48H252.8c-25.6 0-48-22.4-48-48v-48h614.4v48zm3.2-140.8H675.2v-240h48v201.6h99.2v38.4z"/><path fill="#EA5C87" d="M518.4 518.4c-35.2 0-57.6 32-57.6 83.2 0 54.4 22.4 86.4 57.6 86.4s57.6-32 57.6-86.4c3.2-51.2-19.2-83.2-57.6-83.2z"/></symbol><symbol id="swagger" viewBox="0 0 1024 1024"><path fill="#85ea2d" d="M512 0C229.675 0 0 229.675 0 512s229.675 512 512 512c282.283 0 512-229.675 512-512S794.283 0 512 0zm0 48.81c255.787 0 463.19 207.36 463.19 463.19 0 255.787-207.36 463.19-463.19 463.19-255.83 0-463.19-207.36-463.19-463.19C48.81 256.17 256.17 48.81 512 48.81zM357.12 250.369a286.165 286.165 0 0 0-18.048.213c-41.941 2.39-67.115 22.059-74.027 62.806-4.906 28.373-4.096 57.514-6.101 86.058-.555 14.934-2.133 29.739-4.907 44.288-5.717 25.984-16.938 34.048-43.349 35.414a113.067 113.067 0 0 0-10.41 1.792v62.421c48.042 2.347 54.527 19.285 58.453 69.504 1.408 18.304-.555 36.608.64 54.912.768 17.323 3.114 34.475 6.656 51.2 11.05 45.867 55.765 61.227 109.866 51.968v-54.741c-8.661 0-16.341.213-23.808 0-18.346-.555-25.216-5.12-26.965-22.827-2.39-22.827-1.792-46.08-3.2-69.12-2.73-42.71-7.467-84.821-49.195-112 21.462-15.787 37.035-34.645 41.942-59.648 3.541-17.493 5.717-35.03 7.082-52.779 1.195-17.706-.981-35.84.598-53.333 2.56-28.373 4.352-39.979 38.4-38.827 5.12 0 10.026-.725 15.744-1.152v-55.893c-6.827 0-13.227-.17-19.371-.256zm323.968.384a181.205 181.205 0 0 0-34.688 2.56v54.357c10.453 0 18.517 0 26.581.214 13.995.17 24.619 5.546 26.027 21.077 1.365 14.165 1.323 28.544 2.73 42.923 2.774 28.544 4.31 57.472 9.26 85.632 4.351 23.21 20.266 40.533 40.149 54.741-34.859 23.424-45.099 56.875-46.848 94.507-.982 25.77-1.579 51.754-2.944 77.738-1.195 23.638-9.472 31.318-33.28 31.915-6.699.17-13.227.768-20.651 1.195v55.68c13.952 0 26.752.81 39.552 0 39.765-2.347 63.787-21.632 71.68-60.246a505.204 505.204 0 0 0 5.888-64.17c1.365-19.67 1.195-39.552 3.157-59.051 2.944-30.507 16.939-43.093 47.446-45.099a41.472 41.472 0 0 0 8.49-1.962V480.34c-5.12-.597-8.704-1.152-12.416-1.365-22.869-.981-34.304-8.661-39.978-30.293a219.563 219.563 0 0 1-6.486-42.368c-1.578-26.368-1.408-52.95-3.157-79.36-3.413-50.859-33.877-74.795-80.512-76.203zm-293.973 225.28a36.01 36.01 0 0 0-3.542 71.85h2.347a35.413 35.413 0 0 0 37.419-33.28v-1.962a36.053 36.053 0 0 0-35.414-36.608zm124.202 0a34.475 34.475 0 0 0-35.584 33.28c0 1.152 0 2.133.171 3.328 0 21.461 14.592 35.243 36.65 35.243 21.633 0 35.243-14.166 35.243-36.395-.213-21.461-14.592-35.67-36.48-35.456zm126.422 0a36.736 36.736 0 0 0-37.376 35.627c0 20.053 16.128 36.224 36.224 36.224h.384c18.133 3.157 36.394-14.379 37.589-35.414.981-19.498-16.725-36.437-36.821-36.437z"/></symbol><symbol id="symbol" viewBox="0 0 1024 1024"><path fill="#efb336" d="M512 0C380.343 0 63.634 150.309 63.634 448c0 397.97 251.612 457.801 251.612 457.801H117.76S0 818.03 0 767.927V1024h433.006V905.801A740.279 740.279 0 0 1 256 448c0-266.167 141.897-384 256-384m0-64c131.657 0 447.634 150.309 447.634 448 0 397.97-250.88 457.801-250.88 457.801H905.51S1024 818.03 1024 767.927V1024H590.994V905.801A740.279 740.279 0 0 0 768 448c0-266.167-141.897-384-256-384"/></symbol><symbol id="tv" viewBox="0 0 1263 1024"><path fill="#38454F" d="M0 0h1263.66v827.915H0V0z"/><path fill="#61B972" d="M304.193 348.596h-63.706a22.615 22.615 0 0 1-22.615-22.615v-63.706c0-12.484 10.131-22.615 22.615-22.615h63.706c12.484 0 22.616 10.13 22.616 22.615v63.706c0 12.484-10.132 22.615-22.616 22.615"/><path fill="#48A0DC" d="M543.853 348.596h-63.706a22.615 22.615 0 0 1-22.615-22.615v-63.706c0-12.484 10.131-22.615 22.615-22.615h63.706c12.484 0 22.615 10.13 22.615 22.615v63.706c0 12.484-10.131 22.615-22.615 22.615"/><path fill="#ECBA16" d="M783.513 348.596h-63.706a22.615 22.615 0 0 1-22.616-22.615v-63.706c0-12.484 10.132-22.615 22.616-22.615h63.706c12.484 0 22.615 10.13 22.615 22.615v63.706c0 12.484-10.131 22.615-22.615 22.615"/><path fill="#BF4D90" d="M1023.172 348.596h-63.706a22.615 22.615 0 0 1-22.615-22.615v-63.706c0-12.484 10.131-22.615 22.615-22.615h63.706c12.484 0 22.615 10.13 22.615 22.615v63.706c0 12.484-10.13 22.615-22.615 22.615"/><path fill="#DD342E" d="M304.193 588.255h-63.706a22.615 22.615 0 0 1-22.615-22.615v-63.706c0-12.484 10.131-22.615 22.615-22.615h63.706c12.484 0 22.616 10.131 22.616 22.615v63.706c0 12.484-10.132 22.615-22.616 22.615"/><path fill="#A4E869" d="M543.853 588.255h-63.706a22.615 22.615 0 0 1-22.615-22.615v-63.706c0-12.484 10.131-22.615 22.615-22.615h63.706c12.484 0 22.615 10.131 22.615 22.615v63.706c0 12.484-10.131 22.615-22.615 22.615"/><path fill="#50508A" d="M783.513 588.255h-63.706a22.615 22.615 0 0 1-22.616-22.615v-63.706c0-12.484 10.132-22.615 22.616-22.615h63.706c12.484 0 22.615 10.131 22.615 22.615v63.706c0 12.484-10.131 22.615-22.615 22.615"/><path fill="#BE7C6D" d="M1023.172 588.255h-63.706a22.615 22.615 0 0 1-22.615-22.615v-63.706c0-12.484 10.131-22.615 22.615-22.615h63.706c12.484 0 22.615 10.131 22.615 22.615v63.706c0 12.484-10.13 22.615-22.615 22.615"/><path fill="#B0B6BB" d="M653.617 958.638V827.915h-43.574v130.723H326.809V1024H936.85v-65.362H653.617"/></symbol><symbol id="vector" viewBox="0 0 1024 1024"><path fill="#00DB84" d="M512 501.077V384H394.923A192 192 0 1 1 512 501.077z"/><path fill="#979797" d="M896 853.333H512L704 512z"/><path fill="#007AFF" d="M128 426.667h341.333V768H128z"/></symbol><symbol id="video" viewBox="0 0 1024 1024"><path fill="#F6AA00" d="M876.27 428.442H368.368l497.527-157.287c38.776-12.015 60.075-53.52 48.06-92.296L885.01 86.562c-12.015-38.775-53.521-60.075-92.296-48.06L119.876 250.948c-38.775 12.015-60.074 53.521-48.06 92.297l28.946 92.296a66.402 66.402 0 0 0 9.83 19.661c-12.561 14.2-20.207 32.768-20.207 52.975v401.408c0 44.237 36.045 80.282 80.282 80.282H876.27c44.237 0 80.282-36.045 80.282-80.282V508.177c0-44.237-36.045-79.735-80.282-79.735zM821.659 98.03c2.184 1.638 4.369 3.823 5.46 6.554l28.946 92.296c2.185 6.554-1.638 13.653-8.192 15.838l-45.33 14.2L821.659 98.03zm-173.67 49.698 77.004-24.576-20.207 134.349-77.005 24.576 20.207-134.349zM473.77 202.89l77.004-24.576L530.57 312.66l-77.005 24.576L473.77 202.89zM182.68 422.98l-7.645 2.185c-6.554 2.184-13.654-1.639-15.838-8.192l-29.491-91.75c-2.185-6.554 1.638-13.654 8.192-15.838l64.443-20.207-19.66 133.802zm96.666-30.583 20.207-134.349 77.005-24.576-20.207 134.349-77.005 24.576zM617.95 734.822 488.516 846.234c-8.192 7.1-19.114 10.376-30.037 10.376-5.461 0-10.923-1.092-16.384-2.73-15.838-5.462-26.214-18.57-26.214-33.315V597.743c0-14.746 10.376-27.853 26.214-33.314s33.86-2.73 45.875 7.646l129.434 111.41c16.93 14.2 16.93 37.138.546 51.337z"/></symbol><symbol id="vsc" viewBox="0 0 1024 1024"><path fill="#0065A9" d="M928.32 160.96 743.808 72.128a55.744 55.744 0 0 0-63.648 10.816L76.16 633.6a37.312 37.312 0 0 0-2.56 52.704c.8.864 1.6 1.696 2.464 2.464l49.312 44.8a37.28 37.28 0 0 0 47.648 2.112L900.544 184A37.056 37.056 0 0 1 960 213.504v-2.144a55.936 55.936 0 0 0-31.68-50.4z"/><path fill="#007ACC" d="m928.32 863.04-184.512 88.864a55.84 55.84 0 0 1-63.648-10.816L76.16 390.4a37.312 37.312 0 0 1-2.56-52.704c.8-.864 1.6-1.696 2.464-2.464l49.312-44.8a37.28 37.28 0 0 1 47.744-2.112L900.544 840A37.056 37.056 0 0 0 960 810.496v2.304a55.968 55.968 0 0 1-31.68 50.24z"/><path fill="#1F9CF0" d="M743.808 951.904a55.84 55.84 0 0 1-63.648-10.816 32.8 32.8 0 0 0 55.84-23.2V106.112a32.768 32.768 0 0 0-55.968-23.168 55.808 55.808 0 0 1 63.648-10.848L928.16 160.8A55.936 55.936 0 0 1 960 211.2v601.6a55.936 55.936 0 0 1-31.712 50.432z"/></symbol><symbol id="wallpaper" viewBox="0 0 1024 1024"><path fill="#33D413" d="M143.73 493.357h349.115V31.927c0-21.297-24.269-44.484-41.512-23.968l-298.07 423.933c-20.776 33.266-27.692 61.465-9.532 61.465z"/><path fill="#FFCB30" d="M530.275 144.216v349.141h461.43c21.311 0 44.498-24.254 23.968-41.51L591.754 153.734c-33.266-20.777-61.48-27.68-61.48-9.519z"/><path fill="#FF1843" d="M879.128 530.637H529.973v461.43c0 21.297 24.269 44.498 41.512 23.968l298.111-423.933c20.79-33.266 27.693-61.465 9.532-61.465z"/><path fill="#18ABFF" d="M493.708 881.517V532.362H32.276c-21.296 0-44.483 24.269-23.967 41.512l423.933 298.111c33.212 20.79 61.466 27.693 61.466 9.532z"/></symbol><symbol id="zoning" viewBox="0 0 1075 1024"><path fill="#3FA9F5" d="M521.726 337.676h-61.849c-32.42 61.35-64.343 111.228-71.326 121.702l-14.464 22.944-14.964-22.944c-6.983-10.474-38.905-60.352-71.326-121.702h-77.31l-19.952 168.09 414.987-9.976zM737.7 498.782a867.881 867.881 0 0 1 191.034 87.287V365.607S663.38 480.827 737.699 498.782zm66.837-116.715c0-7.482-214.975-41.897-214.975-41.897l82.797 134.67a1282.37 1282.37 0 0 0 132.178-92.773zM356.13 535.193H172.08l-45.888 158.114h153.126l76.813-158.114zm92.773 28.431A268.844 268.844 0 0 0 331.69 670.862a315.73 315.73 0 0 1 232.433 220.96H794.56a862.893 862.893 0 0 1 166.593-202.505S811.52 536.191 641.434 536.191a498.782 498.782 0 0 0-192.53 27.433z"/><path fill="#3FA9F5" d="m131.18 736.203-3.492 82.299 276.824 3.491 118.71 49.38-118.71-135.17H131.18z"/><path fill="#3FA9F5" d="M1009.037 309.744a42.895 42.895 0 0 0-42.397-37.908H470.85a337.676 337.676 0 0 0 40.402-119.707 137.165 137.165 0 0 0-274.33 0 337.676 337.676 0 0 0 40.4 119.707H156.12a42.895 42.895 0 0 0-42.397 34.915L10.474 873.368a42.895 42.895 0 0 0 42.397 49.878h384.561a1904.35 1904.35 0 0 0 370.595 85.292 42.396 42.396 0 0 0 24.44-7.98 1488.865 1488.865 0 0 0 220.462-199.514 42.895 42.895 0 0 0 10.475-33.917zM265.85 152.129a108.236 108.236 0 1 1 216.97 0c0 46.885-69.83 171.082-108.236 234.427-38.905-63.345-108.734-187.043-108.734-234.427zM850.424 933.72l-262.36-6.484c-68.832-18.455-126.69-36.91-138.661-40.9a40.401 40.401 0 0 0-12.969 0H52.871l-2.993-5.487 103.248-566.616a3.491 3.491 0 0 1 3.492-2.494h142.651c28.93 53.37 57.86 99.756 64.343 110.23l11.971 18.955 11.97-18.954c5.986-9.976 35.414-56.363 64.344-110.231H966.64a3.491 3.491 0 0 1 3.492 2.993l49.878 408.004A538.186 538.186 0 0 0 850.424 933.72z"/></symbol><symbol id="beian" viewBox="0 0 1024 1024"><path fill="#409EFF" d="M150.699 123.392a64 64 0 0 0-44.032 60.8v464.341c0 16.555 6.4 32.512 17.92 44.416C294.059 868.693 424.533 955.947 512 955.947s217.941-87.296 387.413-262.998a64 64 0 0 0 17.92-44.416V184.192a64 64 0 0 0-44.032-60.8C752.768 83.797 632.363 64 512 64s-240.768 19.797-361.301 59.392zm-13.312-40.533C262.144 41.813 387.072 21.333 512 21.333s249.856 20.48 374.613 61.526A106.667 106.667 0 0 1 960 184.192v464.341a106.667 106.667 0 0 1-29.867 74.027C753.024 906.197 614.912 998.613 512 998.613c-102.912 0-241.024-92.416-418.133-276.053A106.667 106.667 0 0 1 64 648.533V184.192a106.667 106.667 0 0 1 73.387-101.333z"/><path fill="#409EFF" d="M673.792 467.968V691.2h-35.328v-22.528H386.56V691.2h-35.328V467.968h322.56zM386.56 636.928h108.032v-54.272H386.56v54.272zm142.848 0h109.056v-54.272H529.408v54.272zM386.56 552.96h108.032v-54.272H386.56v54.272zm142.848-54.272v54.272h109.056v-54.272H529.408zm-85.504-283.136 36.352 8.192c-7.68 12.288-15.872 23.552-24.064 34.304h208.384v28.16c-31.744 38.912-70.144 71.68-115.2 99.328 55.296 23.552 120.32 39.936 196.096 50.176L729.6 468.48c-83.968-12.8-155.648-33.792-215.04-63.488-62.464 31.232-136.192 53.76-220.672 67.584l-15.872-32.256c76.8-10.752 143.36-29.184 200.704-54.784a405.12 405.12 0 0 1-81.408-64c-22.528 20.48-46.592 38.4-72.192 54.784l-23.552-28.672a433.835 433.835 0 0 0 142.336-132.096zm-24.576 84.992c25.6 26.112 56.832 48.64 93.696 68.096 40.96-22.528 76.288-48.64 105.984-78.336h-189.44l-10.24 10.24z"/></symbol><symbol id="bmi" viewBox="0 0 1024 1024"><path fill="#81D31B" d="M511.2 66.2c-245.8 0-445.8 200-445.8 445.8s200 445.8 445.8 445.8S957 757.8 957 512 757 66.2 511.2 66.2zm0 835.9c-215.1 0-390.1-175-390.1-390.1 0-215.1 175-390.1 390.1-390.1 215.1 0 390.1 175 390.1 390.1 0 215.1-175 390.1-390.1 390.1z"/><path fill="#81D31B" d="M391.2 505.7c21.6-10 32.3-25.8 32.3-47.3 0-6.3-1-12.2-3.1-17.9-4.2-11.3-12.1-20.8-22.5-27-6-3.6-12.8-6.1-20.3-7.4-7.6-1.3-16.5-1.9-26.8-1.9H281c-9.3 0-16.1 2.1-20.2 6.2-4.2 4.2-6.2 11-6.2 20.5v162c0 9.3 2 16.1 6.1 20.4 4.1 4.3 10.9 6.4 20.4 6.4H347c10 .1 19.9-.5 29.8-1.6 7.8-.9 15.4-2.9 22.7-5.8 10.3-4.4 19-11.9 25-21.4 6.2-9.7 9.3-20.5 9.3-32.6-.1-26-14.3-43.6-42.6-52.6zM298.3 437h35.4c15.9 0 27.7 1.8 35.4 5.4 7.7 3.6 11.6 10.8 11.6 21.7.1 4.9-1.2 9.6-3.7 13.8-2.8 5.5-7.7 9.8-13.6 11.8-5.9 2.1-14.3 3.1-25.2 3.1h-40V437zm46.9 150h-46.9v-62.9h45.4c15.2 0 26.6 2.4 34.3 7.3 7.6 4.9 11.5 12.8 11.5 23.7 0 21.3-14.8 31.9-44.3 31.9zm416.5-179.9c-4.1-4.4-10-6.8-16-6.5-6.4 0-11.5 2.2-15.5 6.6-4 4.4-6 11-6 19.8v169.8c0 8.8 2 15.5 6.1 19.9 4.1 4.5 9.2 6.7 15.5 6.7 6 .2 11.9-2.2 16-6.6 4.1-4.4 6.1-11.1 6.1-20V427c-.1-8.9-2.2-15.6-6.2-19.9zm-91.5 2c-4.9-3.3-11.5-4.9-19.9-4.9h-13.5c-8.1 0-14.1.7-17.7 2.2-3.7 1.4-6.6 4.3-8.2 7.9-1.8 3.8-3.8 10-6 18.7l-31.3 118.1L542.2 433c-2.3-8.6-4.3-14.9-6-18.7-1.8-3.8-4.5-6.5-8.1-7.9-3.7-1.5-9.6-2.2-17.7-2.2h-13.5c-8.3 0-14.9 1.6-19.8 4.9-4.9 3.3-7.4 9.6-7.4 19.1v170.5c0 8.3 1.9 14.5 5.6 18.6 3.7 4.1 9 6.3 14.4 6.1 5.5.2 10.9-2.1 14.6-6.2 3.7-4.1 5.5-10.3 5.5-18.5V449.9l34.5 137.4c1.1 4.5 2.3 8.8 3.4 13 1 4 2.6 7.8 4.6 11.4 2 3.5 4.7 6.3 8.2 8.5 3.5 2.2 7.8 3.3 13 3.3 6.7 0 12-1.7 15.9-5.2 3.6-3.1 6.3-7 7.9-11.4 1.4-4.2 3.3-10.7 5.5-19.6l34.6-137.4v148.8c0 8.2 1.9 14.4 5.6 18.5 3.6 4.1 8.8 6.4 14.3 6.2 5.6.2 11-2 14.8-6.2 3.7-4.1 5.5-10.3 5.5-18.5V428.2c-.1-9.4-2.5-15.8-7.4-19.1z"/><path fill="#81D31B" d="M511.2 149.8C311.1 149.8 149 311.9 149 512c0 200 162.2 362.2 362.2 362.2S873.4 712 873.4 512c0-200.1-162.2-362.2-362.2-362.2zm0 696.6c-184.4 0-334.4-150-334.4-334.4 0-184.4 150-334.4 334.4-334.4 184.4 0 334.4 150 334.4 334.4 0 184.3-150 334.4-334.4 334.4z"/></symbol></svg>