<svg viewBox="0 0 1024 1024" xmlns="http://www.w3.org/2000/svg" width="200" height="200"><path d="m749.227 666.453-159.574 90.454c-31.146 17.066-48.64 49.493-48.64 84.053v139.947l381.44-215.04c8.96-4.267 15.36-14.934 15.36-26.027V309.333l-124.16 68.694c-31.146 17.066-48.64 49.493-48.64 84.053v176.64c-.426 12.8-6.826 21.333-15.786 27.733" fill="#DA4725"/><path d="M259.413 640.853v-176.64c0-34.56-17.92-66.56-48.64-84.053L86.187 309.333v428.374c0 10.666 6.826 21.333 15.36 26.026l381.44 215.04V838.827c0-34.56-17.92-66.56-48.64-84.054l-159.574-88.32c-8.96-6.4-15.36-14.933-15.36-25.6" fill="#028DCF"/><path d="M692.48 136.107 532.907 45.653c-8.96-4.266-22.187-4.266-31.147 0L120.747 261.12l124.16 68.693c31.146 17.067 68.693 17.067 97.706 0l159.574-90.453c2.133-2.133 4.266-2.133 6.826-2.133 8.96-2.134 15.36-2.134 24.32 2.133l159.574 90.453c31.146 17.067 68.693 17.067 97.706 0l124.16-68.693L692.48 136.107z" fill="#72AE2C"/></svg>