<svg viewBox="0 0 1024 1024" xmlns="http://www.w3.org/2000/svg" width="200" height="200"><path d="M615.264 378.176h23.424l66.768-66.752 3.28-28.32c-124.224-109.648-313.84-97.824-423.472 26.384a299.52 299.52 0 0 0-64.64 119.968 36.366 36.366 0 0 1 23.44-1.424l133.488-22.016s6.784-11.232 10.304-10.528a166.528 166.528 0 0 1 227.888-17.312h-.48z" fill="#EA4335"/><path d="M800.528 429.44a300.704 300.704 0 0 0-90.64-146.128l-93.664 93.68a166.512 166.512 0 0 1 61.12 132.096v16.64a83.36 83.36 0 1 1 0 166.72H510.576l-16.64 16.88v100l16.64 16.64h166.768a216.928 216.928 0 0 0 208.8-152.496 216.992 216.992 0 0 0-85.6-244.016z" fill="#4285F4"/><path d="M343.6 825.04h166.752V691.552H343.6a82.64 82.64 0 0 1-34.448-7.488l-23.424 7.232-67.216 66.768-5.856 23.424A215.84 215.84 0 0 0 343.6 825.04z" fill="#34A853"/><path d="M343.6 391.984a216.832 216.832 0 0 0-130.912 388.768l96.72-96.72a83.36 83.36 0 0 1-41.648-110.32 83.36 83.36 0 0 1 151.952 0l96.736-96.72A216.784 216.784 0 0 0 343.6 392z" fill="#FBBC05"/></svg>