<svg viewBox="0 0 1300 1024" xmlns="http://www.w3.org/2000/svg" width="253.906" height="200"><path d="M602.432 956.982 909.425 903.1h2.676L753.982 717.25C667.26 615.568 596.23 531.522 596.23 530.913c0-.486 162.862-444.313 163.956-445.894 1.095-1.581 111.535 188.526 269.288 457.814 147.902 252.868 269.288 461.341 269.288 463.166l2.19 3.77H298.114l304.318-53.882v1.095zM0 900.668l165.295-283.52 165.66-283.031 194.12-159.7L717.128 14.474s0 3.527-2.919 7.784L505.006 465.477l-206.405 435.19H149.36c-81.978.609-149.361.609-149.361 0zm0 0" fill="#0087FF"/></svg>