<svg viewBox="0 0 1024 1024" xmlns="http://www.w3.org/2000/svg" width="200" height="200"><path d="M955.733 68.267v605.866c0 196.267-153.6 349.867-349.866 349.867H494.933c-196.266 0-349.866-153.6-349.866-349.867v-332.8h102.4v-93.866H332.8v-85.334h68.267V716.8c0 85.333 68.266 153.6 153.6 153.6h17.066c85.334 0 153.6-68.267 153.6-153.6V68.267h230.4zM204.8 256v59.733h-59.733V256H204.8zm85.333-93.867v59.734h-51.2v-59.734h51.2zm-85.333 0V204.8h-51.2v-42.667h51.2zm-93.867 8.534V204.8H68.267v-34.133h42.666zm281.6-102.4V128H332.8V68.267h59.733zm-102.4 8.533v42.667h-51.2V76.8h51.2zm-93.866 0v34.133H153.6V76.8h42.667zM102.4 85.333v25.6H68.267v-25.6H102.4zM273.067 0v25.6h-25.6V0h25.6zm-76.8 0v25.6h-34.134V0h34.134z" fill="#385FF5"/></svg>