<svg viewBox="0 0 1024 1024" xmlns="http://www.w3.org/2000/svg" width="200" height="200"><path d="M150.699 123.392a64 64 0 0 0-44.032 60.8v464.341c0 16.555 6.4 32.512 17.92 44.416C294.059 868.693 424.533 955.947 512 955.947s217.941-87.296 387.413-262.998a64 64 0 0 0 17.92-44.416V184.192a64 64 0 0 0-44.032-60.8C752.768 83.797 632.363 64 512 64s-240.768 19.797-361.301 59.392zm-13.312-40.533C262.144 41.813 387.072 21.333 512 21.333s249.856 20.48 374.613 61.526A106.667 106.667 0 0 1 960 184.192v464.341a106.667 106.667 0 0 1-29.867 74.027C753.024 906.197 614.912 998.613 512 998.613c-102.912 0-241.024-92.416-418.133-276.053A106.667 106.667 0 0 1 64 648.533V184.192a106.667 106.667 0 0 1 73.387-101.333z" fill="#409EFF"/><path d="M673.792 467.968V691.2h-35.328v-22.528H386.56V691.2h-35.328V467.968h322.56zM386.56 636.928h108.032v-54.272H386.56v54.272zm142.848 0h109.056v-54.272H529.408v54.272zM386.56 552.96h108.032v-54.272H386.56v54.272zm142.848-54.272v54.272h109.056v-54.272H529.408zm-85.504-283.136 36.352 8.192c-7.68 12.288-15.872 23.552-24.064 34.304h208.384v28.16c-31.744 38.912-70.144 71.68-115.2 99.328 55.296 23.552 120.32 39.936 196.096 50.176L729.6 468.48c-83.968-12.8-155.648-33.792-215.04-63.488-62.464 31.232-136.192 53.76-220.672 67.584l-15.872-32.256c76.8-10.752 143.36-29.184 200.704-54.784a405.12 405.12 0 0 1-81.408-64c-22.528 20.48-46.592 38.4-72.192 54.784l-23.552-28.672a433.835 433.835 0 0 0 142.336-132.096zm-24.576 84.992c25.6 26.112 56.832 48.64 93.696 68.096 40.96-22.528 76.288-48.64 105.984-78.336h-189.44l-10.24 10.24z" fill="#409EFF"/></svg>