<?xml version="1.0" standalone="no"?><!DOCTYPE svg PUBLIC "-//W3C//DTD SVG 1.1//EN" "http://www.w3.org/Graphics/SVG/1.1/DTD/svg11.dtd"><svg t="1566272786318" class="icon" viewBox="0 0 1024 1024" version="1.1" xmlns="http://www.w3.org/2000/svg" p-id="48972" xmlns:xlink="http://www.w3.org/1999/xlink" width="200" height="200"><defs><style type="text/css"></style></defs><path d="M150.698667 123.392A64 64 0 0 0 106.666667 184.192V648.533333c0 16.554667 6.4 32.512 17.92 44.416C294.058667 868.693333 424.533333 955.946667 512 955.946667s217.941333-87.296 387.413333-262.997334a64 64 0 0 0 17.92-44.416V184.192a64 64 0 0 0-44.032-60.8C752.768 83.797333 632.362667 64 512 64c-120.362667 0-240.768 19.797333-361.301333 59.392z m-13.312-40.533333C262.144 41.813333 387.072 21.333333 512 21.333333c124.928 0 249.856 20.48 374.613333 61.525334a106.666667 106.666667 0 0 1 73.386667 101.333333V648.533333a106.666667 106.666667 0 0 1-29.866667 74.026667c-177.109333 183.637333-315.221333 276.053333-418.133333 276.053333-102.912 0-241.024-92.416-418.133333-276.053333A106.666667 106.666667 0 0 1 64 648.533333V184.192a106.666667 106.666667 0 0 1 73.386667-101.333333z" fill="#409EFF" p-id="48973"></path><path d="M673.792 467.968V691.2h-35.328v-22.528H386.56v22.528h-35.328v-223.232h322.56z m-287.232 168.96h108.032v-54.272H386.56v54.272z m142.848 0h109.056v-54.272h-109.056v54.272zM386.56 552.96h108.032v-54.272H386.56v54.272z m142.848-54.272v54.272h109.056v-54.272h-109.056zM443.904 215.552l36.352 8.192c-7.68 12.288-15.872 23.552-24.064 34.304h208.384v28.16c-31.744 38.912-70.144 71.68-115.2 99.328 55.296 23.552 120.32 39.936 196.096 50.176l-15.872 32.768c-83.968-12.8-155.648-33.792-215.04-63.488-62.464 31.232-136.192 53.76-220.672 67.584l-15.872-32.256c76.8-10.752 143.36-29.184 200.704-54.784a405.12 405.12 0 0 1-81.408-64c-22.528 20.48-46.592 38.4-72.192 54.784l-23.552-28.672a433.834667 433.834667 0 0 0 142.336-132.096z m-24.576 84.992c25.6 26.112 56.832 48.64 93.696 68.096 40.96-22.528 76.288-48.64 105.984-78.336h-189.44l-10.24 10.24z" fill="#409EFF" p-id="48974"></path></svg>