<?xml version="1.0" standalone="no"?><!DOCTYPE svg PUBLIC "-//W3C//DTD SVG 1.1//EN" "http://www.w3.org/Graphics/SVG/1.1/DTD/svg11.dtd"><svg t="1609112653200" class="icon" viewBox="0 0 1024 1024" version="1.1" xmlns="http://www.w3.org/2000/svg" p-id="24966" xmlns:xlink="http://www.w3.org/1999/xlink" width="200" height="200"><defs><style type="text/css"></style></defs><path d="M912.32 448a89.92 89.92 0 0 0-71.52-26.08A76.8 76.8 0 0 1 773.333333 354.4a90.133333 90.133333 0 0 0-113.28-94.826667 97.866667 97.866667 0 0 1-60.853333-60.64 90.133333 90.133333 0 1 0-176.8-15.733333A76.8 76.8 0 0 1 354.826667 250.666667a90.186667 90.186667 0 1 0-7.786667 180.266666 92.32 92.32 0 0 0 23.306667-3.04 106.346667 106.346667 0 0 1 60.853333 60.8 90.133333 90.133333 0 0 0 94.933333 113.12 76.906667 76.906667 0 0 1 67.573334 67.68 90.666667 90.666667 0 0 0 2.773333 31.306667 96.906667 96.906667 0 0 1-23.306667 37.333333 98.24 98.24 0 0 1-37.333333 23.306667 89.013333 89.013333 0 0 0-31.413333-2.773333 76.906667 76.906667 0 0 1-67.573334-67.68A90.133333 90.133333 0 1 0 354.826667 773.333333a76.8 76.8 0 0 1 67.68 67.573334 90.186667 90.186667 0 1 0 176.96-15.466667 106.346667 106.346667 0 0 1 60.853333-60.853333 92.266667 92.266667 0 0 0 23.306667 3.04 90.133333 90.133333 0 1 0-7.733334-179.946667A76.8 76.8 0 0 1 608 519.893333a90.133333 90.133333 0 0 0-89.6-97.92 88.853333 88.853333 0 0 0-23.626667 3.146667 98.08 98.08 0 0 1-60.533333-60.693333 88.906667 88.906667 0 0 0 2.773333-31.413334 76.906667 76.906667 0 0 1 67.68-67.573333 89.28 89.28 0 0 0 31.04-2.773333 106.026667 106.026667 0 0 1 60.746667 60.746666 90.08 90.08 0 0 0 86.986667 113.386667 72.906667 72.906667 0 0 0 7.893333-0.373333 76.906667 76.906667 0 0 1 67.573333 67.68A90.133333 90.133333 0 1 0 912.32 448zM364.426667 358.08a24.48 24.48 0 1 1 7.146666-17.28 24.48 24.48 0 0 1-7.146666 17.28z m-0.373334 342.24a24.48 24.48 0 1 1 7.146667-17.28 24.426667 24.426667 0 0 1-7.146667 17.28z m165.333334 165.333333a24.48 24.48 0 1 1 7.146666-17.28 24.48 24.48 0 0 1-7.2 17.226667z m136.746666-205.76a24.48 24.48 0 1 1-7.146666 17.28 24.426667 24.426667 0 0 1 7.093333-17.333333zM518.08 487.413333A24.48 24.48 0 1 1 493.653333 512a24.48 24.48 0 0 1 24.426667-24.586667zM512 200a24.48 24.48 0 1 1 24.48-24.48A24.48 24.48 0 0 1 512 200z m188.266667 163.893333a24.48 24.48 0 1 1 7.36-17.226666 24.426667 24.426667 0 0 1-7.146667 17.226666z m165.333333 165.333334a24.48 24.48 0 1 1 7.306667-17.226667 24.426667 24.426667 0 0 1-7.146667 17.173333z" p-id="24967" fill="#707070"></path><path d="M239.466667 448a90.666667 90.666667 0 1 0 0 127.466667 90.08 90.08 0 0 0 0-127.466667z m-46.4 81.173333A24.48 24.48 0 1 1 200.213333 512a24.48 24.48 0 0 1-7.146666 17.173333z" p-id="24968" fill="#707070"></path></svg>