<svg viewBox="0 0 1024 1024" xmlns="http://www.w3.org/2000/svg" width="200" height="200"><path d="M912.32 448a89.92 89.92 0 0 0-71.52-26.08 76.8 76.8 0 0 1-67.467-67.52 90.133 90.133 0 0 0-113.28-94.827 97.867 97.867 0 0 1-60.853-60.64A90.133 90.133 0 1 0 422.4 183.2a76.8 76.8 0 0 1-67.573 67.467 90.187 90.187 0 1 0-7.787 180.266 92.32 92.32 0 0 0 23.307-3.04 106.347 106.347 0 0 1 60.853 60.8 90.133 90.133 0 0 0 94.933 113.12 76.907 76.907 0 0 1 67.574 67.68 90.667 90.667 0 0 0 2.773 31.307 96.907 96.907 0 0 1-23.307 37.333 98.24 98.24 0 0 1-37.333 23.307 89.013 89.013 0 0 0-31.413-2.773 76.907 76.907 0 0 1-67.574-67.68 90.133 90.133 0 1 0-82.026 82.346 76.8 76.8 0 0 1 67.68 67.574 90.187 90.187 0 1 0 176.96-15.467 106.347 106.347 0 0 1 60.853-60.853 92.267 92.267 0 0 0 23.307 3.04 90.133 90.133 0 1 0-7.734-179.947A76.8 76.8 0 0 1 608 519.893a90.133 90.133 0 0 0-89.6-97.92 88.853 88.853 0 0 0-23.627 3.147 98.08 98.08 0 0 1-60.533-60.693 88.907 88.907 0 0 0 2.773-31.414 76.907 76.907 0 0 1 67.68-67.573 89.28 89.28 0 0 0 31.04-2.773 106.027 106.027 0 0 1 60.747 60.746A90.08 90.08 0 0 0 683.467 436.8a72.907 72.907 0 0 0 7.893-.373 76.907 76.907 0 0 1 67.573 67.68A90.133 90.133 0 1 0 912.32 448zm-547.893-89.92a24.48 24.48 0 1 1 7.146-17.28 24.48 24.48 0 0 1-7.146 17.28zm-.374 342.24a24.48 24.48 0 1 1 7.147-17.28 24.427 24.427 0 0 1-7.147 17.28zm165.334 165.333a24.48 24.48 0 1 1 7.146-17.28 24.48 24.48 0 0 1-7.2 17.227zm136.746-205.76a24.48 24.48 0 1 1-7.146 17.28 24.427 24.427 0 0 1 7.093-17.333zM518.08 487.413A24.48 24.48 0 1 1 493.653 512a24.48 24.48 0 0 1 24.427-24.587zM512 200a24.48 24.48 0 1 1 24.48-24.48A24.48 24.48 0 0 1 512 200zm188.267 163.893a24.48 24.48 0 1 1 7.36-17.226 24.427 24.427 0 0 1-7.147 17.226zM865.6 529.227A24.48 24.48 0 1 1 872.907 512a24.427 24.427 0 0 1-7.147 17.173z" fill="#707070"/><path d="M239.467 448a90.667 90.667 0 1 0 0 127.467 90.08 90.08 0 0 0 0-127.467zm-46.4 81.173A24.48 24.48 0 1 1 200.213 512a24.48 24.48 0 0 1-7.146 17.173z" fill="#707070"/></svg>