<?xml version="1.0" standalone="no"?><!DOCTYPE svg PUBLIC "-//W3C//DTD SVG 1.1//EN" "http://www.w3.org/Graphics/SVG/1.1/DTD/svg11.dtd"><svg t="1566272400929" class="icon" viewBox="0 0 1241 1024" version="1.1" xmlns="http://www.w3.org/2000/svg" p-id="29542" xmlns:xlink="http://www.w3.org/1999/xlink" width="242.3828125" height="200"><defs><style type="text/css"></style></defs><path d="M781.431876 558.578279H459.933427a50.550071 50.550071 0 0 0-49.39464 38.995769v0.866573a3.610719 3.610719 0 0 1 0 0.866572 50.550071 50.550071 0 0 0 13.720733 46.506065l127.602821 127.74725a50.932807 50.932807 0 1 0 71.853315-72.214387l-41.523272-41.523272h199.600564a50.550071 50.550071 0 0 0 50.55007-50.55007 50.550071 50.550071 0 0 0-50.911142-50.6945z" fill="#F04F2D" p-id="29543"></path><path d="M1139.687447 0H101.533427A101.605642 101.605642 0 0 0 0 101.533427v820.933146a101.605642 101.605642 0 0 0 101.533427 101.533427h1038.15402a101.605642 101.605642 0 0 0 101.533427-101.533427V101.533427A101.605642 101.605642 0 0 0 1139.687447 0z m0 470.404513a51.922144 51.922144 0 0 0-6.788152-4.405077l-215.415515-215.632158a50.759492 50.759492 0 0 0-71.708886 71.853314l189.707193 189.779408-189.562764 189.851622a50.680056 50.680056 0 0 0 71.636671 71.708886l214.621157-214.8378a50.550071 50.550071 0 0 0 7.221439-4.766149v368.29337H101.533427V549.190409l0.433287 0.433286a50.550071 50.550071 0 0 0 12.565303 9.171227l214.8378 214.8378a50.708942 50.708942 0 0 0 71.708885-71.708886L211.299295 512l189.923836-189.923836a50.911142 50.911142 0 1 0-72.214386-71.781101l-215.198872 215.704373a49.105783 49.105783 0 0 0-11.626516 8.737941l-0.64993 0.649929V101.533427h1038.15402z" fill="#999999" p-id="29544"></path><path d="M409.022285 414.582793a50.550071 50.550071 0 0 0 50.55007 50.55007h321.498449a50.550071 50.550071 0 0 0 49.39464-38.995769v-0.866572a3.610719 3.610719 0 0 1 0-0.866573 50.550071 50.550071 0 0 0-13.720733-46.506065L689.647391 250.439492a50.911142 50.911142 0 1 0-71.7811 72.214387l41.523272 41.523272H459.788999a50.550071 50.550071 0 0 0-50.766714 50.405642z" fill="#F04F2D" p-id="29545"></path></svg>