<svg viewBox="0 0 1024 1024" xmlns="http://www.w3.org/2000/svg" width="200" height="200"><path d="M633.344 226.272h81.696v81.696h81.76v-81.696h81.664v81.696H960v81.664h-81.6v81.632H960v81.696h-81.632v81.664H796.8v-81.6h-81.6v81.664h-81.824v-81.6H551.68V471.2h81.696v-81.472H551.68v-81.824h81.728zm81.696 245.056h81.76v-81.696h-81.76zM470.048 768.416a326.4 326.4 0 0 1-148.896 29.28 243.2 243.2 0 0 1-188.48-74.752A282.848 282.848 0 0 1 64 523.744a301.952 301.952 0 0 1 77.184-215.008 261.792 261.792 0 0 1 200.288-82.464 355.2 355.2 0 0 1 128.576 20.416v119.84a217.92 217.92 0 0 0-119.136-33.152 153.376 153.376 0 0 0-118.4 48.928 188.128 188.128 0 0 0-45.024 132.544 184.768 184.768 0 0 0 42.496 127.744 145.632 145.632 0 0 0 114.4 47.584 233.216 233.216 0 0 0 125.664-35.456z" fill="#368832"/></svg>