<svg viewBox="0 0 1024 1024" xmlns="http://www.w3.org/2000/svg" width="200" height="200"><path d="M512 0C229.24 0 0 71.646 0 160.017v128c0 88.371 229.24 160.017 512 160.017s512-71.68 512-160.017v-128C1024 71.612 794.76 0 512 0z" fill="#1B90FB"/><path d="M512 544.017C229.24 544.017 0 472.371 0 384v192c0 88.371 229.24 160.017 512 160.017S1024 664.371 1024 576V384c0 88.371-229.24 160.017-512 160.017z" fill="#FFC31B"/><path d="M512 832C229.24 832 0 760.354 0 671.983v192C0 952.388 229.24 1024 512 1024s512-71.646 512-160.017v-192C1024 760.388 794.76 832 512 832z" fill="#2CCD7F"/></svg>