<?xml version="1.0" standalone="no"?><!DOCTYPE svg PUBLIC "-//W3C//DTD SVG 1.1//EN" "http://www.w3.org/Graphics/SVG/1.1/DTD/svg11.dtd"><svg t="1577151954559" class="icon" viewBox="0 0 1024 1024" version="1.1" xmlns="http://www.w3.org/2000/svg" p-id="3224" xmlns:xlink="http://www.w3.org/1999/xlink" width="200" height="200"><defs><style type="text/css"></style></defs><path d="M511.983838 0.02309C248.058338 0.02309 34.144879 71.600803 34.144879 159.999278v127.985569c0 88.398476 213.913459 159.976189 477.838959 159.976189s477.838959-71.577713 477.838959-159.976189V159.999278C989.822797 71.600803 775.897793 0.02309 511.983838 0.02309z m0 543.990619C248.058338 544.013709 34.144879 472.366728 34.144879 384.014431v191.966809C34.144879 664.333536 248.058338 735.980518 511.983838 735.980518s477.838959-71.646982 477.838959-159.999278v-191.989899c0 88.352297-213.925004 159.999278-477.838959 159.999279z m0 287.996393C248.058338 832.010102 34.144879 760.36312 34.144879 672.010823v191.989899c0 88.352297 213.913459 159.999278 477.838959 159.999278s477.838959-71.670071 477.838959-160.022368V671.93001c0 88.398476-213.925004 160.057002-477.838959 160.057002z" fill="#FECC45" p-id="3225"></path></svg>