<?xml version="1.0" standalone="no"?><!DOCTYPE svg PUBLIC "-//W3C//DTD SVG 1.1//EN" "http://www.w3.org/Graphics/SVG/1.1/DTD/svg11.dtd"><svg t="1611800741427" class="icon" viewBox="0 0 1024 1024" version="1.1" xmlns="http://www.w3.org/2000/svg" p-id="20969" xmlns:xlink="http://www.w3.org/1999/xlink" width="200" height="200"><defs><style type="text/css"></style></defs><path d="M512 0C229.239467 0 0 71.645867 0 160.017067v128c0 88.3712 229.239467 160.017067 512 160.017066 282.760533 0 512-71.68 512-160.017066v-128C1024 71.611733 794.760533 0 512 0z" fill="#1B90FB" p-id="20970"></path><path d="M512 544.017067c-282.760533 0-512-71.645867-512-160.017067v192c0 88.3712 229.239467 160.017067 512 160.017067 282.760533 0 512-71.645867 512-160.017067V384c0 88.3712-229.239467 160.017067-512 160.017067z" fill="#FFC31B" p-id="20971"></path><path d="M512 832c-282.760533 0-512-71.645867-512-160.017067v192C0 952.388267 229.239467 1024 512 1024c282.760533 0 512-71.645867 512-160.017067v-192c0 88.405333-229.239467 160.017067-512 160.017067z" fill="#2CCD7F" p-id="20972"></path></svg>