<?xml version="1.0" standalone="no"?><!DOCTYPE svg PUBLIC "-//W3C//DTD SVG 1.1//EN" "http://www.w3.org/Graphics/SVG/1.1/DTD/svg11.dtd"><svg t="1571634894897" class="icon" viewBox="0 0 1024 1024" version="1.1" xmlns="http://www.w3.org/2000/svg" p-id="2312" xmlns:xlink="http://www.w3.org/1999/xlink" width="200" height="200"><defs><style type="text/css"></style></defs><path d="M961.685 886.827l-82.643-82.556c-9.972-10.03-23.256-15.544-37.45-15.544-14.166 0-27.451 5.514-37.421 15.544-20.646 20.676-20.646 54.314 0 75.02l82.555 82.643c9.941 10.06 23.256 15.544 37.422 15.544 14.163 0 27.479-5.603 37.537-15.632 20.647-20.705 20.647-54.343 0-75.019zM46.831 468.947c0 54.842 10.381 108.305 30.939 158.981 21.204 52.378 52.349 99.359 92.703 139.685 40.354 40.295 87.306 71.558 139.655 92.791 50.619 20.499 104.052 30.939 158.923 30.939 54.725 0 108.275-10.44 158.895-30.939 52.377-21.233 99.329-52.496 139.653-92.791 40.267-40.325 71.528-87.307 92.732-139.685 20.529-50.677 30.939-104.14 30.939-158.981 0-54.87-10.41-108.333-30.939-159.011-21.204-52.378-52.378-99.36-92.732-139.684-40.236-40.295-87.276-71.559-139.653-92.791-50.619-20.5-104.053-30.94-158.895-30.94-54.871 0-108.304 10.44-158.923 30.94-52.349 21.232-99.301 52.496-139.655 92.791-40.236 40.324-71.499 87.306-92.703 139.684-20.558 50.678-30.939 104.141-30.939 159.011m658.888 233.678l-1.612 1.612c-62.849 62.73-146.253 97.336-235.056 97.336-88.832 0-172.354-34.605-235.085-97.453-62.73-62.847-97.365-146.253-97.365-235.084 0-88.802 34.635-172.237 97.365-235.085 62.848-62.848 146.253-97.424 235.085-97.424 88.362 0 171.563 34.283 234.41 96.897l2.258 1.084v1.173c61.792 62.614 95.754 145.404 95.754 233.472 0 88.07-33.962 170.829-95.754 233.472z" fill="#F18D19" p-id="2313"></path><path d="M644.515 434.225c-22.202 0-42.965 15.191-49.563 36.336l-12.435 40.089-82.203-232.387c-12.111-34.4-54.871-38.711-74.11-8.212L313.266 449.005h-88.274c-19.678 0-35.69 15.954-35.69 35.544 0 19.62 15.895 35.574 35.574 35.574h96.075c18.828 0 38.506-10.763 48.565-26.716l84.168-133.233 92.586 264.412c13.753 38.8 64.049 36.952 76.043-1.525l36.689-117.601h42.084c19.679 0 35.691-15.925 35.691-35.544s-16.013-35.574-35.604-35.574h-56.658v-0.117z" fill="#F18D19" p-id="2314"></path></svg>