<svg viewBox="0 0 1039 1024" xmlns="http://www.w3.org/2000/svg" width="202.93" height="200"><path d="M170.814 14.806H866.33q156.735 0 156.735 156.735V852.46q0 156.735-156.735 156.735H170.814q-156.735 0-156.735-156.735V171.54q0-156.735 156.735-156.735z" fill="#FFF"/><path d="M866.33 1016.987H170.814A164.684 164.684 0 0 1 6.286 852.459V171.437A164.684 164.684 0 0 1 170.814 7.013H866.33a164.684 164.684 0 0 1 164.527 164.424V852.46a164.684 164.684 0 0 1-164.527 164.528zM170.814 22.599A149.098 149.098 0 0 0 21.87 171.437V852.46a149.098 149.098 0 0 0 148.944 148.94H866.33a149.098 149.098 0 0 0 148.942-148.942V171.437A149.098 149.098 0 0 0 866.33 22.6z" fill="#AAA"/><path d="M130.24 262.455a129.877 129.877 0 1 0 259.754 0 129.877 129.877 0 1 0-259.754 0zm540.651 0a129.877 129.877 0 1 0 259.754 0 129.877 129.877 0 1 0-259.754 0z"/><path d="M389.63 522.208a129.877 129.877 0 1 0 259.754 0 129.877 129.877 0 1 0-259.754 0z" fill="red"/><path d="M130.24 781.962a129.877 129.877 0 1 0 259.754 0 129.877 129.877 0 1 0-259.754 0zm540.651 0a129.877 129.877 0 1 0 259.754 0 129.877 129.877 0 1 0-259.754 0z"/></svg>