<?xml version="1.0" standalone="no"?><!DOCTYPE svg PUBLIC "-//W3C//DTD SVG 1.1//EN" "http://www.w3.org/Graphics/SVG/1.1/DTD/svg11.dtd"><svg t="1609110319000" class="icon" viewBox="0 0 1039 1024" version="1.1" xmlns="http://www.w3.org/2000/svg" p-id="19993" xmlns:xlink="http://www.w3.org/1999/xlink" width="202.9296875" height="200"><defs><style type="text/css"></style></defs><path d="M14.078636 14.805946m156.735224 0l695.515804 0q156.735224 0 156.735224 156.735224l0 680.91766q0 156.735224-156.735224 156.735224l-695.515804 0q-156.735224 0-156.735224-156.735224l0-680.91766q0-156.735224 156.735224-156.735224Z" fill="#FFFFFF" p-id="19994"></path><path d="M866.329664 1016.986657H170.81386a164.683679 164.683679 0 0 1-164.527827-164.527827V171.437269A164.683679 164.683679 0 0 1 170.81386 7.013343h695.515804A164.683679 164.683679 0 0 1 1030.857491 171.437269v681.021561a164.683679 164.683679 0 0 1-164.527827 164.527827zM170.81386 22.598549A149.098473 149.098473 0 0 0 21.871239 171.437269v681.021561a149.098473 149.098473 0 0 0 148.942621 148.942621h695.515804a149.098473 149.098473 0 0 0 148.942621-148.942621V171.437269a149.098473 149.098473 0 0 0-148.942621-148.83872z" fill="#AAAAAA" p-id="19995"></path><path d="M260.117092 262.454873m-129.876719 0a129.876719 129.876719 0 1 0 259.753438 0 129.876719 129.876719 0 1 0-259.753438 0Z" p-id="19996"></path><path d="M800.767896 262.454873m-129.876718 0a129.876719 129.876719 0 1 0 259.753437 0 129.876719 129.876719 0 1 0-259.753437 0Z" p-id="19997"></path><path d="M519.506874 522.20831m-129.876718 0a129.876719 129.876719 0 1 0 259.753437 0 129.876719 129.876719 0 1 0-259.753437 0Z" fill="#FF0000" p-id="19998"></path><path d="M260.117092 781.961747m-129.876719 0a129.876719 129.876719 0 1 0 259.753438 0 129.876719 129.876719 0 1 0-259.753438 0Z" p-id="19999"></path><path d="M800.767896 781.961747m-129.876718 0a129.876719 129.876719 0 1 0 259.753437 0 129.876719 129.876719 0 1 0-259.753437 0Z" p-id="20000"></path></svg>