<?xml version="1.0" standalone="no"?><!DOCTYPE svg PUBLIC "-//W3C//DTD SVG 1.1//EN" "http://www.w3.org/Graphics/SVG/1.1/DTD/svg11.dtd"><svg t="1566272821021" class="icon" viewBox="0 0 1024 1024" version="1.1" xmlns="http://www.w3.org/2000/svg" p-id="50518" xmlns:xlink="http://www.w3.org/1999/xlink" width="200" height="200"><defs><style type="text/css"></style></defs><path d="M1002.23030938 143.02286064c-1.58797418 0-10.66211223-69.53058299-48.31978525-103.89888096-37.88452646-34.36829796-114.10728626-34.70857813-115.69526042-34.70857812-230.59653377 0-446.22073972-0.4537069-676.70384676 0-15.42603472 0-30.85206943 2.26853451-45.71097053 6.69217684-58.52819057 17.92142268-95.16502305 69.1903028-95.16502307 131.91528224v707.78276964l0.11342674 10.0949786c1.47454744 47.07209126 18.60198305 98.00069118 57.16706987 127.7184934 27.1089875 20.87051757 58.30133712 30.96549618 92.8964885 30.96549616h831.41790092v-4.08336213c0.68056036 0 1.13426728-24.84045298 1.13426727-74.74821236-21.66450466-12.47693982-35.0488583-35.3891385-35.16228505-60.3430182 0-25.8612935 14.17834074-48.31978523 35.16228505-60.4564449l-1.13426727-676.93070021z m-84.72976426 807.71171518H161.05771003c-38.67851354 1.13426728-71.11855716-29.26409528-72.25282439-67.94260884-1.13426728-38.67851354 29.26409528-71.11855716 67.94260881-72.25282439H917.50054512c-12.02323295 20.87051757-19.50939686 44.34984982-19.50939686 70.09771662 0 25.63444007 7.48616389 49.22719903 19.50939686 70.09771661zM712.65187814 325.18618244H287.98221633c-19.73625031 0-35.61599193-10.43525879-35.61599192-23.36590553 0-12.93064676 15.87974163-23.47933227 35.61599192-23.47933228h424.66966181c19.62282359 0 35.50256521 10.43525879 35.50256519 23.47933228 0 12.93064676-15.87974163 23.36590553-35.61599193 23.36590553h0.11342674z m0 211.20056362H287.98221633c-19.73625031 0-35.61599193-10.43525879-35.61599192-23.47933226 0-12.93064676 15.87974163-23.36590553 35.61599192-23.36590552h424.66966181c19.62282359 0 35.50256521 10.43525879 35.50256519 23.36590552 0 12.93064676-15.87974163 23.47933227-35.61599193 23.47933226h0.11342674z" fill="#FF7800" p-id="50519"></path></svg>