<svg viewBox="0 0 1024 1024" xmlns="http://www.w3.org/2000/svg" width="200" height="200"><path d="M684.672 909.76h151.723c24.64 0 44.65-16.661 44.65-37.163v-63.509c0-20.501-20.01-37.163-44.65-37.163H684.672c-24.619 0-44.65 16.662-44.65 37.163v63.51c0 20.48 20.01 37.162 44.65 37.162zm-.235-219.264h294.934c24.64 0 44.629-16.661 44.629-37.163v-63.466c0-20.544-19.99-37.206-44.63-37.206H684.673c-24.619 0-44.65 16.662-44.65 37.206v63.466c0 20.502 20.01 37.163 44.415 37.163zm.235-219.2H962.24c24.597 0 44.608-16.683 44.608-37.205v-63.446c0-20.522-20.01-37.162-44.608-37.162H684.672c-24.619 0-44.65 16.64-44.65 37.162v63.446c0 20.522 20.01 37.205 44.65 37.205zm0-219.221h185.536c24.619 0 44.63-16.662 44.63-37.184v-63.446c0-20.522-20.011-37.184-44.63-37.184H684.672c-24.619 0-44.65 16.662-44.65 37.184v63.446c0 20.501 20.01 37.184 44.65 37.184z" fill="#3D8DE9"/><path d="M519.083 0h42.666v1024h-42.666V0z" fill="#278DF6"/><path d="M405.312 872.576v-63.51c0-20.5-20.01-37.162-44.65-37.162H44.65C20.01 771.925 0 788.587 0 809.088v63.51c0 20.5 20.01 37.14 44.65 37.14h316.011c24.64 0 44.651-16.66 44.651-37.162zm0-219.243v-63.466c0-20.544-20.01-37.206-44.65-37.206H151.295c-24.64 0-44.63 16.683-44.63 37.206v63.466c0 20.502 19.99 37.163 44.63 37.163h209.6c24.405 0 44.416-16.661 44.416-37.163zm0-219.242v-63.446c0-20.522-20.01-37.162-44.65-37.162H83.114c-24.598 0-44.608 16.64-44.608 37.162v63.446c0 20.522 20.01 37.205 44.608 37.205h277.568c24.618 0 44.629-16.683 44.629-37.205zm0-219.2v-63.446c0-20.522-20.01-37.184-44.65-37.184H175.124c-24.618 0-44.629 16.662-44.629 37.184v63.446c0 20.522 20.01 37.184 44.63 37.184H360.66c24.64 0 44.651-16.683 44.651-37.184z" fill="#5AD651"/><path d="M519.083 1024h-42.667V0h42.667v1024z" fill="#278DF6"/></svg>