<?xml version="1.0" standalone="no"?><!DOCTYPE svg PUBLIC "-//W3C//DTD SVG 1.1//EN" "http://www.w3.org/Graphics/SVG/1.1/DTD/svg11.dtd"><svg t="1566271939624" class="icon" viewBox="0 0 1024 1024" version="1.1" xmlns="http://www.w3.org/2000/svg" p-id="9100" xmlns:xlink="http://www.w3.org/1999/xlink" width="200" height="200"><defs><style type="text/css"></style></defs><path d="M684.672 909.76h151.722667c24.64 0 44.650667-16.661333 44.650666-37.162667v-63.509333c0-20.501333-20.010667-37.162667-44.650666-37.162667h-151.722667c-24.618667 0-44.650667 16.661333-44.650667 37.162667v63.509333c0 20.48 20.010667 37.162667 44.650667 37.162667zM684.437333 690.496h294.933334c24.64 0 44.629333-16.661333 44.629333-37.162667V589.866667c0-20.544-19.989333-37.205333-44.629333-37.205334H684.672c-24.618667 0-44.650667 16.661333-44.650667 37.205334v63.466666c0 20.501333 20.010667 37.162667 44.416 37.162667zM684.672 471.296h277.568c24.597333 0 44.608-16.682667 44.608-37.205333v-63.445334c0-20.522667-20.010667-37.162667-44.608-37.162666H684.672c-24.618667 0-44.650667 16.64-44.650667 37.162666v63.445334c0 20.522667 20.010667 37.205333 44.650667 37.205333zM684.672 252.074667h185.536c24.618667 0 44.629333-16.661333 44.629333-37.184V151.445333c0-20.522667-20.010667-37.184-44.629333-37.184h-185.536c-24.618667 0-44.650667 16.661333-44.650667 37.184v63.445334c0 20.501333 20.010667 37.184 44.650667 37.184z" fill="#3D8DE9" p-id="9101"></path><path d="M519.082667 0h42.666666v1024h-42.666666V0z" fill="#278DF6" p-id="9102"></path><path d="M405.312 872.576v-63.509333c0-20.501333-20.010667-37.162667-44.650667-37.162667H44.650667C20.010667 771.925333 0 788.586667 0 809.088v63.509333c0 20.501333 20.010667 37.141333 44.650667 37.141334h316.010666c24.64 0 44.650667-16.661333 44.650667-37.162667zM405.312 653.333333V589.866667c0-20.544-20.010667-37.205333-44.650667-37.205334H151.296C126.656 552.661333 106.666667 569.344 106.666667 589.866667v63.466666c0 20.501333 19.989333 37.162667 44.629333 37.162667h209.6c24.405333 0 44.416-16.661333 44.416-37.162667zM405.312 434.090667v-63.445334c0-20.522667-20.010667-37.162667-44.650667-37.162666H83.114667c-24.597333 0-44.608 16.64-44.608 37.162666v63.445334c0 20.522667 20.010667 37.205333 44.608 37.205333h277.568c24.618667 0 44.629333-16.682667 44.629333-37.205333zM405.312 214.890667V151.445333c0-20.522667-20.010667-37.184-44.650667-37.184H175.125333c-24.618667 0-44.629333 16.661333-44.629333 37.184v63.445334c0 20.522667 20.010667 37.184 44.629333 37.184h185.536c24.64 0 44.650667-16.682667 44.650667-37.184z" fill="#5AD651" p-id="9103"></path><path d="M519.082667 1024h-42.666667V0h42.666667v1024z" fill="#278DF6" p-id="9104"></path></svg>