<?xml version="1.0" standalone="no"?><!DOCTYPE svg PUBLIC "-//W3C//DTD SVG 1.1//EN" "http://www.w3.org/Graphics/SVG/1.1/DTD/svg11.dtd"><svg t="1570008138961" class="icon" viewBox="0 0 1024 1024" version="1.1" xmlns="http://www.w3.org/2000/svg" p-id="12457" xmlns:xlink="http://www.w3.org/1999/xlink" width="200" height="200"><defs><style type="text/css"></style></defs><path d="M512 512m-512 0a512 512 0 1 0 1024 0 512 512 0 1 0-1024 0Z" fill="#36CEA1" p-id="12458"></path><path d="M766.72 800.64h-512a53.12 53.12 0 0 1-55.68-52.48v-60.16a52.48 52.48 0 0 1 55.68-52.48h512a53.12 53.12 0 0 1 55.68 52.48v60.16a51.2 51.2 0 0 1-53.76 52.48z m-64-122.24a39.68 39.68 0 0 0-39.04 39.04 38.4 38.4 0 0 0 39.04 39.04 40.96 40.96 0 0 0 39.04-40.96 40.32 40.32 0 0 0-39.04-37.76z m64-83.2h-512a53.12 53.12 0 0 1-55.68-52.48v-60.16a52.48 52.48 0 0 1 55.68-52.48h512a52.48 52.48 0 0 1 55.68 52.48v60.16a51.84 51.84 0 0 1-55.68 52.48z m-64-122.24a38.4 38.4 0 0 0-39.04 39.04 39.68 39.68 0 0 0 39.04 39.04 38.4 38.4 0 0 0 43.52-39.04 37.76 37.76 0 0 0-39.04-39.04z m64-83.2h-512a53.12 53.12 0 0 1-55.68-52.48v-64a52.48 52.48 0 0 1 55.68-52.48h512a53.12 53.12 0 0 1 55.68 52.48v60.16a52.48 52.48 0 0 1-53.76 53.76z m-64-124.16a39.04 39.04 0 1 0 0 78.08 39.68 39.68 0 0 0 39.04-39.04 38.4 38.4 0 0 0-39.04-39.04z m0 0" fill="#FFFFFF" p-id="12459"></path><path d="M702.08 513.92m-53.12 0a53.12 53.12 0 1 0 106.24 0 53.12 53.12 0 1 0-106.24 0Z" fill="#FFFFFF" p-id="12460"></path><path d="M410.24 460.16a188.16 188.16 0 0 0-30.08 0V576h25.6a67.84 67.84 0 0 0 48-15.36 64 64 0 0 0 16.64-46.72c0.64-23.04-10.24-53.76-60.16-53.76z m0 104.96h-12.16v-89.6h14.08c25.6 0 40.32 14.72 40.32 43.52s-16.64 46.08-42.88 46.08zM556.8 504.32v49.92a335.36 335.36 0 0 0-19.2-39.04l-26.88-53.76h-19.2V576h16.64v-41.6-50.56a384 384 0 0 0 19.2 39.68l27.52 52.48h19.84V461.44H556.8zM632.96 512c-14.72-6.4-21.12-11.52-21.12-21.12s5.76-15.36 19.84-15.36a42.88 42.88 0 0 1 21.12 5.12l4.48-14.72a54.4 54.4 0 0 0-24.96-5.12 33.92 33.92 0 0 0-38.4 32.64c0 16 11.52 26.24 29.44 33.28s19.84 12.16 19.84 21.76-7.68 17.92-21.76 17.92a50.56 50.56 0 0 1-25.6-7.04L591.36 576a56.96 56.96 0 0 0 28.16 7.04c26.24 0 40.96-14.72 40.96-34.56s-8.32-28.8-27.52-36.48z" fill="#36CEA1" p-id="12461"></path></svg>