<?xml version="1.0" standalone="no"?><!DOCTYPE svg PUBLIC "-//W3C//DTD SVG 1.1//EN" "http://www.w3.org/Graphics/SVG/1.1/DTD/svg11.dtd"><svg t="1566278558007" class="icon" viewBox="0 0 1445 1024" version="1.1" xmlns="http://www.w3.org/2000/svg" p-id="14465" xmlns:xlink="http://www.w3.org/1999/xlink" width="282.2265625" height="200"><defs><style type="text/css"></style></defs><path d="M683.670588 597.534118L81.498353 18.191059A148.781176 148.781176 0 0 1 153.238588 0.301176h1139.169883c33.430588 0 64.572235 10.601412 89.630117 28.491295L790.768941 597.534118c-14.034824 13.854118-33.008941 21.202824-53.488941 21.202823-20.48 0-39.514353-7.288471-53.609412-21.202823zM512.843294 536.515765L48.790588 982.799059a141.552941 141.552941 0 0 1-47.465412-105.291294V146.492235c0-29.214118 9.095529-56.32 24.335059-78.908235l487.183059 468.931765z" fill="#33C8DF" p-id="14466"></path><path d="M1349.391059 1012.736c-17.468235 7.348706-36.864 10.962824-56.982588 10.962824H153.238588c-12.167529 0-23.913412-1.445647-35.297882-3.97553l448.451765-431.706353 63.367529 61.078588a154.202353 154.202353 0 0 0 107.52 42.767059 154.202353 154.202353 0 0 0 107.459765-42.767059l63.367529-61.078588 441.283765 424.719059zM1444.321882 146.492235v731.01553c0 34.334118-12.528941 66.138353-33.430588 91.015529l-448.813176-432.007529 467.787294-450.680471c9.517176 18.251294 14.456471 39.092706 14.45647 60.656941z" fill="#33C8DF" p-id="14467"></path></svg>