<?xml version="1.0" standalone="no"?><!DOCTYPE svg PUBLIC "-//W3C//DTD SVG 1.1//EN" "http://www.w3.org/Graphics/SVG/1.1/DTD/svg11.dtd"><svg t="1598396749780" class="icon" viewBox="0 0 1024 1024" version="1.1" xmlns="http://www.w3.org/2000/svg" p-id="4265" xmlns:xlink="http://www.w3.org/1999/xlink" width="200" height="200"><defs><style type="text/css"></style></defs><path d="M512 512m-512 0a512 512 0 1 0 1024 0 512 512 0 1 0-1024 0Z" fill="#FFC51F" p-id="4266"></path><path d="M204.8 614.4c9.362286 124.810971 143.330743 223.787886 307.2 223.787886S809.837714 739.210971 819.2 614.4H204.8z" fill="#B67600" p-id="4267"></path><path d="M234.057143 409.6a87.771429 73.142857 90 1 0 146.285714 0 87.771429 73.142857 90 1 0-146.285714 0Z" fill="#815400" p-id="4268"></path><path d="M643.657143 409.6a87.771429 73.142857 90 1 0 146.285714 0 87.771429 73.142857 90 1 0-146.285714 0Z" fill="#815400" p-id="4269"></path></svg>