<svg viewBox="0 0 1024 1024" xmlns="http://www.w3.org/2000/svg" width="200" height="200"><path d="M778.004 378.258h-16.106v-65.763c0-137.793-112.105-249.897-249.898-249.897S262.102 174.702 262.102 312.495v65.763h-16.08c-85.415 0-154.903 69.488-154.903 154.902v268.92c0 85.4 69.488 154.888 154.902 154.888h531.982c85.39 0 154.876-69.487 154.876-154.888V533.159c0-85.414-69.487-154.901-154.875-154.901zM564.617 615.007v105.22c0 29.055-23.554 52.61-52.61 52.61s-52.61-23.554-52.61-52.61v-105.22c0-29.057 23.554-52.61 52.61-52.61s52.61 23.553 52.61 52.61zm-223.6-302.512c0-94.276 76.707-170.982 170.983-170.982s170.982 76.706 170.982 170.982v65.763H341.018v-65.763z" fill="#00b7ee"/></svg>