<?xml version="1.0" standalone="no"?><!DOCTYPE svg PUBLIC "-//W3C//DTD SVG 1.1//EN" "http://www.w3.org/Graphics/SVG/1.1/DTD/svg11.dtd"><svg t="1566271733715" class="icon" viewBox="0 0 1024 1024" version="1.1" xmlns="http://www.w3.org/2000/svg" p-id="1970" xmlns:xlink="http://www.w3.org/1999/xlink" width="200" height="200"><defs><style type="text/css"></style></defs><path d="M778.004353 378.257973l-16.10684 0 0-65.762773c0-137.793296-112.104217-249.897513-249.897513-249.897513S262.102487 174.701904 262.102487 312.4952l0 65.762773-16.081257 0c-85.414345 0-154.901952 69.487607-154.901952 154.901952l0 268.919752c0 85.401042 69.487607 154.888649 154.901952 154.888649l531.9821 0c85.388762 0 154.875347-69.487607 154.875347-154.888649L932.878676 533.158902C932.8797 447.744557 863.392092 378.257973 778.004353 378.257973zM564.617381 615.007025l0 105.220437c0 29.054733-23.554462 52.610218-52.610218 52.610218-29.055756 0-52.610218-23.554462-52.610218-52.610218L459.396945 615.007025c0-29.05678 23.554462-52.610218 52.610218-52.610218C541.062919 562.39783 564.617381 585.950246 564.617381 615.007025zM341.017814 312.4952c0-94.276177 76.706009-170.982186 170.982186-170.982186s170.982186 76.706009 170.982186 170.982186l0 65.762773L341.017814 378.257973 341.017814 312.4952z" fill="#00b7ee" p-id="1971"></path></svg>