<?xml version="1.0" standalone="no"?><!DOCTYPE svg PUBLIC "-//W3C//DTD SVG 1.1//EN" "http://www.w3.org/Graphics/SVG/1.1/DTD/svg11.dtd"><svg t="1566272339102" class="icon" viewBox="0 0 1024 1024" version="1.1" xmlns="http://www.w3.org/2000/svg" p-id="26827" xmlns:xlink="http://www.w3.org/1999/xlink" width="200" height="200"><defs><style type="text/css"></style></defs><path d="M957.335279 643.701657c-1.948444 13.34303-15.535838 22.389657-30.368323 20.216242l-322.076444-47.118222c-14.824727-2.168242-25.265131-14.731636-23.305051-28.074667l43.270465-295.813172c1.95103-13.33398 15.543596-22.381899 30.378666-20.205899l322.082909 47.118223c14.81697 2.166949 25.249616 14.730343 23.299879 28.065616l-43.282101 295.811879z" fill="#FD6B56" p-id="26828"></path><path d="M782.736815 290.746182l89.973656 13.260283-13.583515 92.166464-89.97495-13.260283z" fill="#FFD161" p-id="26829"></path><path d="M400.577946 131.661576l238.453656 27.726868s17.744162-21.072162 0-33.272242l-47.666424-2.531556s12.174222-72.886303-79.878464-80.64905c-0.001293 0-97.599354-6.656-110.908768 88.72598z" fill="#F56F5C" p-id="26830"></path><path d="M408.852693 139.287273a103.296 103.296 0 0 0-8.274747 40.618666c0 57.272889 46.423919 103.699394 103.699394 103.699394 57.272889 0 103.698101-46.425212 103.698101-103.699394 0-5.952646-0.615434-11.748848-1.574788-17.432565L408.852693 139.287273z" fill="#FDD15E" p-id="26831"></path><path d="M361.759037 367.896566s31.053576-87.617939 123.106262-74.308526c0 0 56.565657-1.370505 107.583354 79.722021 0 0 30.187313 58.91103 54.465939 75.548444 0 0 70.860283 11.090747 145.167515 9.981414 0 0 59.891071 38.818909-7.762747 73.200485 0 0-137.527596 6.653414-176.346505-15.526788 0 0-69.871192-55.45503-72.089859-65.435151 0 0-17.745455-7.76404-23.290828 13.308121l-56.563071 104.851394s-7.762747 17.148121 6.653415 34.892283l85.397979 104.25406s15.528081 27.726869-1.10804 74.309818l-66.545778 170.799839s-51.017697 25.508202-60.999111-26.620121c0 0 4.43604-63.216485 29.945535-131.98093 0 0 16.636121-33.269657 3.326707-54.343111l-75.417858-77.636525s-35.490909-15.526788-46.581657 11.090747l-32.162909 67.655112s-32.162909 38.816323-59.889778 48.797737l-150.835717 47.692283s-64.325818 7.761455-64.325818-41.036283c0 0-5.545374-26.617535 27.726869-43.253657 0 0 129.762263-42.145616 148.61705-53.236363 18.854788-11.090747 27.726869-21.073455 59.891071-106.472728l102.03798-226.253575z" fill="#FFD161" p-id="26832"></path></svg>