<?xml version="1.0" standalone="no"?><!DOCTYPE svg PUBLIC "-//W3C//DTD SVG 1.1//EN" "http://www.w3.org/Graphics/SVG/1.1/DTD/svg11.dtd"><svg t="1604186802838" class="icon" viewBox="0 0 1024 1024" version="1.1" xmlns="http://www.w3.org/2000/svg" p-id="2869" xmlns:xlink="http://www.w3.org/1999/xlink" width="200" height="200"><defs><style type="text/css"></style></defs><path d="M304.89088 751.877447a36.689702 36.689702 0 0 1 0.39217 51.918979l-209.811064 209.658553a36.667915 36.667915 0 0 1-51.853617-0.39217 36.689702 36.689702 0 0 1-0.370383-51.897192l209.723915-209.702128a36.667915 36.667915 0 0 1 51.897192 0.392171l0.021787 0.043574z m40.785702-40.851064l-196.041532-62.158979 166.410894-117.171744L311.949944 326.808511l165.060085 123.751489 193.557787-64.403064-64.403064 193.536L729.872667 744.796596 524.985518 740.765957l-117.062808 166.432681-62.246128-196.150468z" fill="#20A0FF" p-id="2870"></path><path d="M282.406454 310.359149c0-85.667404-72.812936-155.168681-162.57634-155.168681 89.763404 0 162.57634-69.501277 162.57634-155.190468 0 85.689191 72.769362 155.190468 162.554554 155.190468-89.763404 0-162.554553 69.39234-162.554554 155.168681z m0 108.93617H742.727135c0-85.667404-72.791149-155.168681-162.57634-155.168681 89.763404 0 162.57634-69.501277 162.57634-155.190468 0 85.689191 72.791149 155.190468 162.554554 155.190468-89.763404 0-162.554553 69.39234-162.554554 155.168681H282.36288z m130.723405 174.297872l460.647489 258.52732c0-57.10434-48.541957-103.445787-108.347915-103.445788 59.805957 0 108.347915-46.341447 108.347915-103.445787 0 57.10434 48.52017 103.445787 108.326128 103.445787-59.697021 0-108.326128 46.341447-108.326128 103.445788L413.129859 593.593191z" fill="#20A0FF" p-id="2871"></path></svg>