<?xml version="1.0" standalone="no"?><!DOCTYPE svg PUBLIC "-//W3C//DTD SVG 1.1//EN" "http://www.w3.org/Graphics/SVG/1.1/DTD/svg11.dtd"><svg t="1589851359659" class="icon" viewBox="0 0 1024 1024" version="1.1" xmlns="http://www.w3.org/2000/svg" p-id="1320" xmlns:xlink="http://www.w3.org/1999/xlink" width="200" height="200"><defs><style type="text/css"></style></defs><path d="M33.792 631.808c0 84.992 214.016 153.6 478.208 153.6 263.168 0 477.184-68.608 478.208-153.6V509.952C891.904 580.608 701.44 614.4 512 614.4c-189.44 0-379.904-33.792-478.208-105.472v122.88z" fill="#00CCFF" p-id="1321"></path><path d="M990.208 747.52C891.904 819.2 701.44 852.992 512 852.992 322.56 852.992 132.096 819.2 33.792 747.52v139.264C60.416 964.608 266.24 1024 512 1024s451.584-59.392 478.208-136.192V747.52zM33.792 392.192c0 84.992 214.016 153.6 478.208 153.6 263.168 0 477.184-68.608 478.208-153.6V270.336c-98.304 71.68-288.768 105.472-478.208 105.472-189.44 0-379.904-33.792-478.208-105.472v121.856z" fill="#00CCFF" p-id="1322"></path><path d="M33.792 153.6a478.208 153.6 0 1 0 956.416 0 478.208 153.6 0 1 0-956.416 0Z" fill="#00CCFF" p-id="1323"></path></svg>