<svg viewBox="0 0 1024 1024" xmlns="http://www.w3.org/2000/svg" width="200" height="200"><path d="M511.765 5.714C231.704 5.714 4.67 232.75 4.67 512.81s227.035 507.097 507.095 507.097c280.063 0 507.096-227.035 507.096-507.097S791.828 5.714 511.765 5.714zM273.833 443.238H169.436v42.216h96.777v43.892h-96.777v96.93H111.22v-226.93h162.614v43.892zm179.652 183.037-61.736-83.213h-27.114v83.213h-58.218v-226.93h98.149c13.411 0 24.942.763 34.596 2.286 9.651 1.524 18.693 4.827 27.127 9.907 8.535 5.082 15.316 11.66 20.346 19.735 5.03 8.078 7.544 18.213 7.544 30.406 0 16.764-3.887 30.43-11.659 40.997-7.773 10.567-18.875 19.354-33.3 26.365l75.745 97.235h-71.48zm253.419-183.037h-105.92v39.168h98.3v43.892h-98.3v56.085h105.92v43.893H542.765v-226.93h164.139v43.892zm197.79 39.168v43.892h-98.302v56.085h105.92v43.893H748.175v-226.93h164.139v43.892h-105.92v39.168h98.3z" fill="#ea9518"/><path d="M418.129 444.61c-3.963-1.624-8.588-2.615-13.87-2.972-5.284-.355-11.43-.533-18.44-.533h-21.185v61.114h17.984c9.347 0 17.169-.456 23.47-1.371 6.299-.915 11.583-2.996 15.85-6.248 4.063-3.148 7.036-6.63 8.916-10.44 1.88-3.81 2.82-8.915 2.82-15.317 0-5.688-1.17-10.566-3.506-14.63-2.337-4.065-6.35-7.265-12.04-9.603z" fill="#ea9518"/></svg>