<?xml version="1.0" standalone="no"?><!DOCTYPE svg PUBLIC "-//W3C//DTD SVG 1.1//EN" "http://www.w3.org/Graphics/SVG/1.1/DTD/svg11.dtd"><svg t="1593834364223" class="icon" viewBox="0 0 1024 1024" version="1.1" xmlns="http://www.w3.org/2000/svg" p-id="2673" xmlns:xlink="http://www.w3.org/1999/xlink" width="200" height="200"><defs><style type="text/css"></style></defs><path d="M651.074872 326.121035c-10.571972 9.387182-17.225023 14.733927-23.240111 20.718635-55.988921 55.745887-111.491774 111.977842-167.906004 167.268041a43.168886 43.168886 0 0 1-76.859452-19.442707 59.634429 59.634429 0 0 1 15.554165-44.627089c60.181255-62.976144 122.397918-123.977638 183.946239-185.617096a576.719304 576.719304 0 0 1 55.381336-54.105409 94.175613 94.175613 0 0 1 49.33587-20.019913c59.786325-2.36958 119.724546-1.154411 179.602008-0.78986a52.191517 52.191517 0 0 1 58.631914 58.601535c0.151896 99.795771 0.850618 199.621921-0.759481 299.387313a141.415316 141.415316 0 0 1-18.014883 45.204294 99.552737 99.552737 0 0 0-12.728897 32.414639c-0.972135 106.327305-0.486068 212.897645-0.698723 319.346467a51.249761 51.249761 0 1 1-101.618524 2.248063c-0.820239-59.877463-0.303792-119.754925-0.334172-179.632388v-124.190293c0-12.151692 1.488582-23.969213-17.012369-24.303384-17.984504-0.212655-20.384463 9.599837-20.354084 24.029971q0.334172 143.055795 0 286.111589a210.31541 210.31541 0 0 1-1.883512 33.113361 47.36122 47.36122 0 0 1-51.644691 41.285374 51.28014 51.28014 0 0 1-46.935911-45.295432c-0.78986-8.050496-0.334172-16.252888-0.364551-24.303384l-0.36455-576.628167c0.060758-8.384668-0.880998-16.860473-1.731617-30.77416z" fill="#00B8C1" p-id="2674"></path><path d="M342.118102 1023.688917c-48.789044 0-97.578087-0.455688-146.36713 0.273413-14.855444 0.212655-22.51101-3.037923-25.27552-19.533845-13.944067-82.935298-29.19444-165.688321-43.806849-248.532482-9.113769-50.854831-17.680712-101.770421-26.46031-152.68601a98.276809 98.276809 0 0 1-2.491097-17.498437 34.055117 34.055117 0 0 1 27.341307-35.695595 30.37923 30.37923 0 0 1 38.824656 21.083186 644.039678 644.039678 0 0 1 14.764306 71.269673c17.437678 97.213536 34.966494 194.639727 51.432037 292.126677 2.673372 15.888337 10.26818 18.440193 23.878075 18.227538q88.707352-0.668343 177.414703 0c13.549137 0 21.265461-2.703751 23.817317-18.622468 19.685741-117.17269 40.495514-234.132726 60.75846-351.1839a37.943658 37.943658 0 0 1 39.492999-33.903221 35.057632 35.057632 0 0 1 30.37923 43.594196c-8.718839 54.682614-18.045263 109.365228-27.645099 163.774429-14.308617 81.385957-29.832404 162.589639-43.01699 244.157872-3.037923 19.564224-11.45297 23.726179-29.012165 23.422387-47.908046-0.850618-95.967988-0.273413-144.02793-0.273413z" fill="#00B8C1" p-id="2675"></path><path d="M858.200463 85.24412a80.960648 80.960648 0 0 1-82.783402 82.023921 83.26947 83.26947 0 0 1-83.907433-84.241605 85.790946 85.790946 0 0 1 83.907433-83.026436 83.451745 83.451745 0 0 1 82.783402 85.24412z" fill="#00B8C1" p-id="2676"></path><path d="M362.35067 615.088272a41.467649 41.467649 0 1 1-41.862579-42.044855 42.105613 42.105613 0 0 1 41.862579 42.044855z" fill="#00B8C1" p-id="2677"></path><path d="M417.337076 628.546271c-5.316365-4.708781-9.842871-8.384668-14.004825-12.455485-32.201984-31.655158-32.080467-36.272801 5.012573-64.009037 4.070817-3.037923 12.303588-0.577205 18.622468-0.546827 0.546826 0 1.093652 0.911377 1.610099 1.458204 36.667731 39.06769 43.047369 25.123623-11.240315 75.553145z" fill="#00B8C1" p-id="2678"></path></svg>