<svg viewBox="0 0 1024 1024" xmlns="http://www.w3.org/2000/svg" width="200" height="200"><path d="M651.075 326.121c-10.572 9.387-17.225 14.734-23.24 20.719-55.99 55.746-111.492 111.978-167.906 167.268a43.169 43.169 0 0 1-76.86-19.443 59.634 59.634 0 0 1 15.554-44.627C458.805 387.062 521.021 326.06 582.57 264.42a576.72 576.72 0 0 1 55.381-54.106 94.176 94.176 0 0 1 49.336-20.02c59.786-2.37 119.724-1.154 179.602-.79a52.192 52.192 0 0 1 58.632 58.602c.152 99.796.85 199.622-.76 299.387a141.415 141.415 0 0 1-18.015 45.205 99.553 99.553 0 0 0-12.728 32.414c-.973 106.328-.486 212.898-.7 319.347a51.25 51.25 0 1 1-101.618 2.248c-.82-59.878-.303-119.755-.334-179.632v-124.19c0-12.152 1.489-23.97-17.012-24.304-17.985-.213-20.385 9.6-20.354 24.03q.334 143.056 0 286.111a210.315 210.315 0 0 1-1.884 33.114 47.361 47.361 0 0 1-51.644 41.285 51.28 51.28 0 0 1-46.936-45.295c-.79-8.05-.335-16.253-.365-24.304l-.365-576.628c.061-8.384-.88-16.86-1.731-30.774z" fill="#00B8C1"/><path d="M342.118 1023.689c-48.789 0-97.578-.456-146.367.273-14.855.213-22.511-3.038-25.276-19.534-13.944-82.935-29.194-165.688-43.806-248.532-9.114-50.855-17.681-101.77-26.46-152.686a98.277 98.277 0 0 1-2.492-17.498 34.055 34.055 0 0 1 27.342-35.696 30.38 30.38 0 0 1 38.824 21.083 644.04 644.04 0 0 1 14.764 71.27c17.438 97.213 34.967 194.64 51.433 292.126 2.673 15.889 10.268 18.44 23.878 18.228q88.707-.668 177.414 0c13.55 0 21.266-2.704 23.818-18.622 19.685-117.173 40.495-234.133 60.758-351.184a37.944 37.944 0 0 1 39.493-33.904 35.058 35.058 0 0 1 30.38 43.595c-8.72 54.682-18.046 109.365-27.646 163.774-14.308 81.386-29.832 162.59-43.017 244.158-3.038 19.564-11.453 23.726-29.012 23.422-47.908-.85-95.968-.273-144.028-.273zM858.2 85.244a80.96 80.96 0 0 1-82.783 82.024 83.27 83.27 0 0 1-83.907-84.242A85.79 85.79 0 0 1 775.417 0 83.452 83.452 0 0 1 858.2 85.244z" fill="#00B8C1"/><path d="M362.35 615.088a41.468 41.468 0 1 1-41.862-42.045 42.106 42.106 0 0 1 41.863 42.045zm54.987 13.458c-5.316-4.709-9.843-8.384-14.005-12.455-32.202-31.655-32.08-36.273 5.013-64.01 4.07-3.037 12.303-.576 18.622-.546.547 0 1.094.911 1.61 1.458 36.668 39.068 43.048 25.124-11.24 75.553z" fill="#00B8C1"/></svg>