<svg viewBox="0 0 1024 1024" xmlns="http://www.w3.org/2000/svg" width="128" height="128"><path d="M172.617 953.198c-35.255 22.455-11.483 76.873 28.892 66.267 16.091-4.242 43.008-13.166 77.092-27.428a794.331 794.331 0 0 0 164.791-93.111c141.531-104.814 226.89-246.93 228.206-429.349l152.43-8.046a36.571 36.571 0 0 0 24.137-62.171L518.875 63.854a36.571 36.571 0 0 0-54.272 2.34L159.232 434.981a36.571 36.571 0 0 0 30.062 59.83l173.714-9.07c9.509 253.075-30.574 365.934-190.39 467.457zM434.395 445.44a36.571 36.571 0 0 0-38.473-34.597l-127.268 6.583 226.523-273.335 244.078 248.686-106.789 5.632a36.571 36.571 0 0 0-34.67 38.473c9.143 173.349-65.39 305.225-197.85 403.383-8.997 6.583-18.067 13.02-27.356 19.164 58.514-98.67 71.753-225.28 61.879-413.989z"/></svg>