<?xml version="1.0" standalone="no"?><!DOCTYPE svg PUBLIC "-//W3C//DTD SVG 1.1//EN" "http://www.w3.org/Graphics/SVG/1.1/DTD/svg11.dtd"><svg t="1566288744702" class="icon" viewBox="0 0 1024 1024" version="1.1" xmlns="http://www.w3.org/2000/svg" p-id="3361" xmlns:xlink="http://www.w3.org/1999/xlink" width="200" height="200"><defs><style type="text/css"></style></defs><path d="M983.04 94.72H40.96c-15.36 0-28.16 12.8-28.16 25.6v148.48c0 15.36 12.8 28.16 28.16 28.16h942.08c15.36 0 28.16-12.8 28.16-28.16V120.32c0-15.36-12.8-25.6-28.16-25.6zM166.4 232.96H92.16V158.72h74.24v74.24z m125.44 0H217.6V158.72h74.24v74.24z m122.88 0h-74.24V158.72h74.24v74.24z m125.44 0h-74.24V158.72h74.24v74.24z m384 0h-189.44V158.72h189.44v74.24zM983.04 409.6H40.96c-15.36 0-28.16 12.8-28.16 28.16v148.48c0 15.36 12.8 28.16 28.16 28.16h942.08c15.36 0 28.16-12.8 28.16-28.16v-148.48c0-15.36-12.8-28.16-28.16-28.16zM166.4 550.4H92.16v-74.24h74.24v74.24z m125.44 0H217.6v-74.24h74.24v74.24z m122.88 0h-74.24v-74.24h74.24v74.24z m125.44-2.56h-74.24v-74.24h74.24v74.24z m384 0h-189.44v-74.24h189.44v74.24zM983.04 727.04H40.96c-15.36 0-28.16 12.8-28.16 28.16v148.48c0 15.36 12.8 28.16 28.16 28.16h942.08c15.36 0 28.16-12.8 28.16-28.16v-148.48c0-15.36-12.8-28.16-28.16-28.16zM166.4 865.28H92.16v-74.24h74.24v74.24z m125.44 0H217.6v-74.24h74.24v74.24z m122.88 0h-74.24v-74.24h74.24v74.24z m125.44 0h-74.24v-74.24h74.24v74.24z m384 0h-189.44v-74.24h189.44v74.24z" fill="#0E72AF" p-id="3362"></path></svg>