<?xml version="1.0" standalone="no"?><!DOCTYPE svg PUBLIC "-//W3C//DTD SVG 1.1//EN" "http://www.w3.org/Graphics/SVG/1.1/DTD/svg11.dtd"><svg t="1577946683320" class="icon" viewBox="0 0 1024 1024" version="1.1" xmlns="http://www.w3.org/2000/svg" p-id="2151" xmlns:xlink="http://www.w3.org/1999/xlink" width="200" height="200"><defs><style type="text/css"></style></defs><path d="M657.6 336c-8 0-16 1.6-22.4 1.6 0-6.4 1.6-11.2 1.6-17.6 0-115.2-92.8-208-208-208s-208 92.8-208 208c0 20.8 4.8 41.6 9.6 60.8-9.6-1.6-19.2-3.2-30.4-3.2-83.2 0-150.4 67.2-150.4 150.4s67.2 150.4 150.4 150.4h457.6c94.4 0 171.2-76.8 171.2-171.2C828.8 412.8 752 336 657.6 336z" fill="#84DBFF" p-id="2152"></path><path d="M667.2 336v1.6c3.2 0 6.4-1.6 9.6-1.6h-9.6z" fill="#FFFFFF" p-id="2153"></path><path d="M232 377.6c9.6 0 20.8 1.6 30.4 3.2-6.4-19.2-9.6-40-9.6-60.8 0-110.4 84.8-200 192-208-4.8 0-11.2-1.6-16-1.6-115.2 0-208 92.8-208 208 0 20.8 3.2 40 9.6 57.6 0 1.6 1.6 1.6 1.6 1.6zM81.6 528c0-78.4 59.2-142.4 134.4-150.4-4.8 0-11.2-1.6-16-1.6-83.2 0-150.4 67.2-150.4 150.4s67.2 150.4 150.4 150.4h32c-83.2 1.6-150.4-65.6-150.4-148.8z" fill="#C5F1FF" p-id="2154"></path><path d="M803.2 336c-8 0-16 1.6-22.4 1.6 0-6.4 1.6-11.2 1.6-17.6 0-115.2-92.8-208-208-208h-145.6c115.2 0 208 92.8 208 208 0 6.4-1.6 11.2-1.6 17.6 8-1.6 14.4-1.6 22.4-1.6 94.4 0 171.2 76.8 171.2 171.2S752 678.4 657.6 678.4h145.6c94.4 0 171.2-76.8 171.2-171.2 0-94.4-76.8-171.2-171.2-171.2z" fill="#52BADB" p-id="2155"></path><path d="M803.2 328c-4.8 0-9.6 0-14.4 1.6v-8c0-120-97.6-216-216-216h-145.6c-120 0-216 97.6-216 216 0 16 1.6 32 6.4 51.2-94.4-11.2-177.6 64-177.6 156.8 0 88 70.4 158.4 158.4 158.4h603.2c99.2 0 179.2-80 179.2-179.2s-78.4-180.8-177.6-180.8z m-292.8-208h64c110.4 0 200 89.6 200 200 0 3.2 0 6.4-1.6 9.6h-86.4c-9.6-1.6-19.2-3.2-28.8-3.2-4.8 0-9.6 0-14.4 1.6V320c0-83.2-52.8-163.2-129.6-198.4 0 0-1.6-1.6-3.2-1.6zM57.6 528c0-78.4 64-142.4 142.4-142.4 9.6 0 19.2 1.6 28.8 3.2 3.2 0 6.4 0 8-3.2 1.6-1.6 3.2-4.8 1.6-8-6.4-20.8-9.6-40-9.6-57.6 0-110.4 89.6-200 200-200S628.8 209.6 628.8 320c0 3.2 0 6.4-1.6 9.6 0 1.6 0 4.8-1.6 6.4 0 3.2 0 4.8 3.2 6.4 1.6 1.6 4.8 3.2 6.4 1.6h3.2c6.4-1.6 11.2-1.6 17.6-1.6 89.6 0 163.2 73.6 163.2 163.2S745.6 668.8 656 668.8H200c-78.4 1.6-142.4-62.4-142.4-140.8z m745.6 142.4h-70.4c62.4-28.8 105.6-94.4 105.6-163.2 0-70.4-41.6-132.8-100.8-161.6H785.6c6.4-1.6 11.2-1.6 17.6-1.6 89.6 0 163.2 73.6 163.2 163.2s-73.6 163.2-163.2 163.2z" fill="#63312D" p-id="2156"></path><path d="M302.4 484.8H576v84.8H302.4zM302.4 612.8H576v84.8H302.4zM302.4 739.2H576v84.8H302.4z" fill="#FFF2D2" p-id="2157"></path><path d="M361.6 528c0 8-6.4 16-16 16s-16-6.4-16-16 6.4-16 16-16 16 8 16 16zM361.6 654.4c0 8-6.4 16-16 16s-16-6.4-16-16 6.4-16 16-16 16 8 16 16zM361.6 780.8c0 8-6.4 16-16 16s-16-6.4-16-16 6.4-16 16-16c9.6 1.6 16 8 16 16zM392 515.2h144v24h-144zM392 643.2h144v24h-144z" fill="#F9A287" p-id="2158"></path><path d="M392 769.6h144v24h-144z" fill="#F9A287" p-id="2159"></path><path d="M729.6 881.6H470.4c-3.2-11.2-11.2-19.2-22.4-22.4V832h128c4.8 0 8-3.2 8-8v-84.8c0-4.8-3.2-8-8-8h-128v-25.6h128c4.8 0 8-3.2 8-8v-84.8c0-4.8-3.2-8-8-8h-128v-25.6h128c4.8 0 8-3.2 8-8v-84.8c0-4.8-3.2-8-8-8H302.4c-4.8 0-8 3.2-8 8v84.8c0 4.8 3.2 8 8 8h128v25.6h-128c-4.8 0-8 3.2-8 8v84.8c0 4.8 3.2 8 8 8h128v25.6h-128c-4.8 0-8 3.2-8 8v84.8c0 4.8 3.2 8 8 8h128v27.2c-11.2 3.2-20.8 12.8-22.4 25.6H150.4v16h260.8c4.8 11.2 16 20.8 28.8 20.8 14.4 0 27.2-9.6 30.4-24h260.8l-1.6-16zM310.4 492.8h257.6v68.8H310.4v-68.8z m0 128h257.6v68.8H310.4v-68.8z m0 126.4h257.6V816H310.4v-68.8z m129.6 156.8c-8 0-16-6.4-16-16s6.4-16 16-16 16 6.4 16 16-8 16-16 16z" fill="#63312D" p-id="2160"></path></svg>