<svg viewBox="0 0 1024 1024" xmlns="http://www.w3.org/2000/svg" width="200" height="200"><path d="M983.04 94.72H40.96c-15.36 0-28.16 12.8-28.16 25.6V268.8c0 15.36 12.8 28.16 28.16 28.16h942.08c15.36 0 28.16-12.8 28.16-28.16V120.32c0-15.36-12.8-25.6-28.16-25.6zM166.4 232.96H92.16v-74.24h74.24v74.24zm125.44 0H217.6v-74.24h74.24v74.24zm122.88 0h-74.24v-74.24h74.24v74.24zm125.44 0h-74.24v-74.24h74.24v74.24zm384 0H734.72v-74.24h189.44v74.24zm58.88 176.64H40.96c-15.36 0-28.16 12.8-28.16 28.16v148.48c0 15.36 12.8 28.16 28.16 28.16h942.08c15.36 0 28.16-12.8 28.16-28.16V437.76c0-15.36-12.8-28.16-28.16-28.16zM166.4 550.4H92.16v-74.24h74.24v74.24zm125.44 0H217.6v-74.24h74.24v74.24zm122.88 0h-74.24v-74.24h74.24v74.24zm125.44-2.56h-74.24V473.6h74.24v74.24zm384 0H734.72V473.6h189.44v74.24zm58.88 179.2H40.96c-15.36 0-28.16 12.8-28.16 28.16v148.48c0 15.36 12.8 28.16 28.16 28.16h942.08c15.36 0 28.16-12.8 28.16-28.16V755.2c0-15.36-12.8-28.16-28.16-28.16zM166.4 865.28H92.16v-74.24h74.24v74.24zm125.44 0H217.6v-74.24h74.24v74.24zm122.88 0h-74.24v-74.24h74.24v74.24zm125.44 0h-74.24v-74.24h74.24v74.24zm384 0H734.72v-74.24h189.44v74.24z" fill="#0E72AF"/></svg>