<?xml version="1.0" standalone="no"?><!DOCTYPE svg PUBLIC "-//W3C//DTD SVG 1.1//EN" "http://www.w3.org/Graphics/SVG/1.1/DTD/svg11.dtd"><svg t="1566282226841" class="icon" viewBox="0 0 1024 1024" version="1.1" xmlns="http://www.w3.org/2000/svg" p-id="44396" xmlns:xlink="http://www.w3.org/1999/xlink" width="200" height="200"><defs><style type="text/css"></style></defs><path d="M836.855172 0v217.158621h132.413794z" fill="#5E89C1" p-id="44397"></path><path d="M969.268966 296.606897V247.172414h-167.724138V0H54.731034v1024H971.034483l-1.765517-727.393103zM685.02069 109.462069h28.248276v167.724138h93.572413v26.482759h-121.820689v-194.206897zM459.034483 109.462069h40.606896v1.765517l44.137931 134.179311c3.531034 8.827586 5.296552 17.655172 7.062069 22.951724 1.765517-7.062069 5.296552-14.124138 8.827587-24.717242l45.903448-132.413793h37.075862v192.44138h-28.248276V151.834483l-51.2 150.068965h-24.717241V300.137931l-51.2-151.834483V300.137931H459.034483V109.462069z m-180.082759 0h153.6v26.482759h-63.558621v167.724138h-28.248275V134.17931h-61.793104V109.462069z m-181.848276 0h28.248276v77.682759h95.337931V109.462069h28.248276v192.441379H220.689655V211.862069H125.351724v90.041379H97.103448V109.462069z m854.510345 895.117241H72.386207V388.413793h879.227586v616.165517z" fill="#5E89C1" p-id="44398"></path><path d="M446.675862 768l-88.275862-88.275862 88.275862-88.275862h-68.855172l-84.744828 86.510345 84.744828 90.041379zM577.324138 768h68.855172l84.744828-90.041379-84.744828-86.510345h-68.855172l88.275862 88.275862z" fill="#5E89C1" p-id="44399"></path></svg>