<?xml version="1.0" standalone="no"?><!DOCTYPE svg PUBLIC "-//W3C//DTD SVG 1.1//EN" "http://www.w3.org/Graphics/SVG/1.1/DTD/svg11.dtd"><svg t="1576194460011" class="icon" viewBox="0 0 1024 1024" version="1.1" xmlns="http://www.w3.org/2000/svg" p-id="1969" xmlns:xlink="http://www.w3.org/1999/xlink" width="200" height="200"><defs><style type="text/css"></style></defs><path d="M512.437684 0L104.348592 188.26395v280.609216c0 257.813689 172.819111 495.721764 401.997494 553.567961l6.151554 1.546882 6.139564-1.594848c228.626781-58.757538 401.002213-296.665613 401.002213-553.579952V187.988149z m357.413712 468.657322c0 232.440026-153.261245 447.61253-357.473669 503.636044-204.823983-54.968277-358.217132-270.200738-358.217132-503.636044V219.873107L512.437684 54.848363l357.413712 164.964788z" fill="#1296db" p-id="1970"></path><path d="M288.175748 329.186112v268.006323h-58.937409v-268.006323zM511.886082 400.690439a59.261175 59.261175 0 0 0-13.190468-14.833281 60.772083 60.772083 0 0 0-17.819122-9.940816 61.443597 61.443597 0 0 0-20.84094-3.597401q-19.893624 0-33.779589 7.686446a63.829873 63.829873 0 0 0-22.519726 20.649078 90.438644 90.438644 0 0 0-12.578909 29.462708 146.821898 146.821898 0 0 0-3.933158 34.163312 136.509351 136.509351 0 0 0 3.933158 32.844265 88.615961 88.615961 0 0 0 12.578909 28.707254 64.309526 64.309526 0 0 0 22.519726 20.457217q13.885965 7.698437 33.779589 7.698436 27.040459 0 42.23348-16.512067t18.634534-43.516553h57.054769a136.365455 136.365455 0 0 1-11.631595 45.423175 108.941273 108.941273 0 0 1-24.774096 34.535043 105.343873 105.343873 0 0 1-36.03396 21.764272 131.904678 131.904678 0 0 1-45.423175 7.506575q-30.769764 0-55.363991-10.69627a118.402436 118.402436 0 0 1-41.478025-29.462709 130.39377 130.39377 0 0 1-25.901283-44.104127 162.134832 162.134832 0 0 1-9.005492-54.608537 167.758768 167.758768 0 0 1 9.005492-55.747714 133.931214 133.931214 0 0 1 25.901283-44.84759 118.43841 118.43841 0 0 1 41.478025-30.038293q24.582235-10.87614 55.363991-10.87614a134.914503 134.914503 0 0 1 41.849757 6.37939A113.378067 113.378067 0 0 1 537.235763 347.760689a100.403443 100.403443 0 0 1 25.709421 30.218162 108.149845 108.149845 0 0 1 12.75878 41.286165h-57.06676a47.965338 47.965338 0 0 0-6.751122-18.574577zM738.977973 329.186112q25.181802 0 42.785081 7.314714t28.779203 19.330031a74.478178 74.478178 0 0 1 16.140336 27.400199 102.525909 102.525909 0 0 1 0 63.62602 74.190386 74.190386 0 0 1-16.140336 27.580069q-11.079993 11.991334-28.779203 19.330031t-42.785081 7.314714h-61.935242v96.098554h-58.937409V329.186112z m-16.140336 126.112863a122.539446 122.539446 0 0 0 19.509901-1.498916 45.363218 45.363218 0 0 0 16.524059-5.815798 31.848984 31.848984 0 0 0 11.451724-12.195187q4.304889-7.890298 4.304889-20.649078t-4.304889-20.649077a31.848984 31.848984 0 0 0-11.451724-12.171205 45.363218 45.363218 0 0 0-16.524059-5.815797 123.954424 123.954424 0 0 0-19.509901-1.498917h-45.794906v80.341941z" fill="#1296db" p-id="1971"></path></svg>