<svg viewBox="0 0 1415 1024" xmlns="http://www.w3.org/2000/svg" width="276.367" height="200"><path d="M60.235 69.27h1298.07v894.495H60.236z" fill="#F5C539"/><path d="M1258.918 0H156.612C69.27 0 0 69.27 0 156.612v707.764C0 954.73 69.27 1024 156.612 1024h1102.306c87.34 0 156.611-69.27 156.611-156.612V156.612C1415.53 69.27 1346.26 0 1258.918 0zm78.306 867.388c0 42.165-36.142 78.306-78.306 78.306H156.612c-42.165 0-78.306-36.141-78.306-78.306V156.612c0-42.165 36.141-78.306 78.306-78.306h1102.306c42.164 0 78.306 36.141 78.306 78.306v710.776zm0 0" fill="#333"/><path d="M1108.33 542.118c42.164-36.142 69.27-90.353 69.27-150.589 0-108.423-87.341-195.764-195.765-195.764s-195.764 87.34-195.764 195.764c0 60.236 27.105 114.447 69.27 150.589C768 587.294 707.765 680.658 707.765 786.07c0 21.082 18.07 39.153 39.153 39.153 21.082 0 39.153-18.071 39.153-39.153 0-108.424 87.34-195.765 195.764-195.765S1177.6 677.647 1177.6 786.07c0 21.082 18.07 39.153 39.153 39.153 21.082 0 39.153-18.071 39.153-39.153 3.012-105.412-57.224-195.765-147.577-243.953zM864.375 394.54c0-66.259 54.212-117.459 117.46-117.459 66.258 0 117.458 54.212 117.458 117.46 0 66.258-54.212 117.458-117.459 117.458S864.375 457.787 864.375 394.54zM668.612 277.082H195.765c-21.083 0-39.153 18.07-39.153 39.153s18.07 39.153 39.153 39.153h472.847c21.082 0 39.153-18.07 39.153-39.153 0-24.094-18.07-39.153-39.153-39.153zm-39.153 195.765H195.765c-21.083 0-39.153 18.07-39.153 39.153 0 21.082 18.07 39.153 39.153 39.153h433.694c21.082 0 39.153-18.07 39.153-39.153 0-21.082-18.07-39.153-39.153-39.153zM512 668.612H195.765c-21.083 0-39.153 18.07-39.153 39.153 0 21.082 18.07 39.153 39.153 39.153H512c21.082 0 39.153-18.07 39.153-39.153s-18.07-39.153-39.153-39.153zm0 0" fill="#333"/></svg>