<?xml version="1.0" standalone="no"?><!DOCTYPE svg PUBLIC "-//W3C//DTD SVG 1.1//EN" "http://www.w3.org/Graphics/SVG/1.1/DTD/svg11.dtd"><svg t="1566271970135" class="icon" viewBox="0 0 1415 1024" version="1.1" xmlns="http://www.w3.org/2000/svg" p-id="9995" xmlns:xlink="http://www.w3.org/1999/xlink" width="276.3671875" height="200"><defs><style type="text/css"></style></defs><path d="M60.235294 69.270588h1298.070588V963.764706H60.235294z" fill="#F5C539" p-id="9996"></path><path d="M1258.917647 0H156.611765C69.270588 0 0 69.270588 0 156.611765v707.764706c0 90.352941 69.270588 159.623529 156.611765 159.623529h1102.305882c87.341176 0 156.611765-69.270588 156.611765-156.611765V156.611765C1415.529412 69.270588 1346.258824 0 1258.917647 0z m78.305882 867.388235c0 42.164706-36.141176 78.305882-78.305882 78.305883H156.611765c-42.164706 0-78.305882-36.141176-78.305883-78.305883V156.611765c0-42.164706 36.141176-78.305882 78.305883-78.305883h1102.305882c42.164706 0 78.305882 36.141176 78.305882 78.305883v710.77647z m0 0" fill="#333333" p-id="9997"></path><path d="M1108.329412 542.117647c42.164706-36.141176 69.270588-90.352941 69.270588-150.588235 0-108.423529-87.341176-195.764706-195.764706-195.764706s-195.764706 87.341176-195.764706 195.764706c0 60.235294 27.105882 114.447059 69.270588 150.588235-87.341176 45.176471-147.576471 138.541176-147.57647 243.952941 0 21.082353 18.070588 39.152941 39.152941 39.152941 21.082353 0 39.152941-18.070588 39.152941-39.152941 0-108.423529 87.341176-195.764706 195.764706-195.764706s195.764706 87.341176 195.764706 195.764706c0 21.082353 18.070588 39.152941 39.152941 39.152941 21.082353 0 39.152941-18.070588 39.152941-39.152941 3.011765-105.411765-57.223529-195.764706-147.57647-243.952941z m-243.952941-147.576471c0-66.258824 54.211765-117.458824 117.458823-117.458823 66.258824 0 117.458824 54.211765 117.458824 117.458823 0 66.258824-54.211765 117.458824-117.458824 117.458824-63.247059 0-117.458824-54.211765-117.458823-117.458824z m-195.764706-117.458823H195.764706c-21.082353 0-39.152941 18.070588-39.152941 39.152941 0 21.082353 18.070588 39.152941 39.152941 39.152941h472.847059c21.082353 0 39.152941-18.070588 39.152941-39.152941 0-24.094118-18.070588-39.152941-39.152941-39.152941z m-39.152941 195.764706H195.764706c-21.082353 0-39.152941 18.070588-39.152941 39.152941 0 21.082353 18.070588 39.152941 39.152941 39.152941h433.694118c21.082353 0 39.152941-18.070588 39.152941-39.152941 0-21.082353-18.070588-39.152941-39.152941-39.152941zM512 668.611765H195.764706c-21.082353 0-39.152941 18.070588-39.152941 39.152941 0 21.082353 18.070588 39.152941 39.152941 39.152941H512c21.082353 0 39.152941-18.070588 39.152941-39.152941 0-21.082353-18.070588-39.152941-39.152941-39.152941z m0 0" fill="#333333" p-id="9998"></path></svg>