<?xml version="1.0" standalone="no"?><!DOCTYPE svg PUBLIC "-//W3C//DTD SVG 1.1//EN" "http://www.w3.org/Graphics/SVG/1.1/DTD/svg11.dtd"><svg t="1566282572738" class="icon" viewBox="0 0 1133 1024" version="1.1" xmlns="http://www.w3.org/2000/svg" p-id="49139" xmlns:xlink="http://www.w3.org/1999/xlink" width="221.2890625" height="200"><defs><style type="text/css"></style></defs><path d="M70.802286 143.652571v715.081143c0 35.730286 35.401143 71.497143 70.802285 71.497143h849.737143c42.496 0 70.838857-28.598857 70.838857-71.497143V143.652571c0-35.730286-35.401143-71.497143-70.838857-71.497142H141.604571c-42.459429 0-70.802286 28.598857-70.802285 71.497142zM0 143.652571C0 65.024 63.744 0.658286 141.604571 0.658286h849.737143c77.897143 0 141.641143 64.365714 141.641143 142.994285v715.081143c0 78.628571-63.744 142.994286-141.641143 142.994286H141.604571c-77.897143 0-141.604571-64.365714-141.604571-142.994286V143.652571z" fill="#028EE3" p-id="49140"></path><path d="M35.401143 822.966857l276.150857-336.091428c28.342857-28.598857 63.744-28.598857 84.992 0l205.348571 264.594285 198.290286-200.228571c28.306286-28.598857 70.802286-28.598857 92.050286 7.168l205.348571 264.557714-35.401143 121.563429-955.977142 21.467428-70.802286-142.994285zM637.293714 322.413714a107.776 107.776 0 0 0 46.921143 89.014857c-1.353143 1.426286 17.225143 11.812571 38.034286 16.091429-7.314286-0.841143 6.656 2.194286 21.321143 2.194286 14.628571-0.036571 28.598857-3.035429 41.325714-8.484572 19.053714-8.155429 35.291429-21.76 46.811429-38.912 1.353143 1.389714 11.629714-17.371429 15.908571-38.363428-0.841143 7.387429 2.121143-6.729143 2.121143-21.577143a107.629714 107.629714 0 0 0-46.884572-88.941714c1.316571-1.426286-17.261714-11.849143-38.034285-16.128 7.314286 0.877714-6.656-2.121143-21.357715-2.121143-14.628571 0-28.598857 2.998857-41.325714 8.411428-19.017143 8.155429-35.291429 21.796571-46.774857 38.948572-1.389714-1.353143-11.702857 17.371429-15.945143 38.4 0.877714-7.424-2.121143 6.692571-2.121143 21.540571v-0.073143z" fill="#028EE3" p-id="49141"></path></svg>