<svg viewBox="0 0 1133 1024" xmlns="http://www.w3.org/2000/svg" width="221.289" height="200"><path d="M70.802 143.653v715.08c0 35.731 35.401 71.498 70.803 71.498h849.737c42.496 0 70.839-28.599 70.839-71.497V143.653c0-35.73-35.402-71.498-70.84-71.498H141.606c-42.46 0-70.803 28.6-70.803 71.498zm-70.802 0C0 65.024 63.744.658 141.605.658h849.737c77.897 0 141.64 64.366 141.64 142.995v715.08c0 78.63-63.743 142.995-141.64 142.995H141.605C63.707 1001.728 0 937.362 0 858.734V143.653z" fill="#028EE3"/><path d="m35.401 822.967 276.151-336.092c28.343-28.598 63.744-28.598 84.992 0L601.893 751.47l198.29-200.229c28.306-28.599 70.802-28.599 92.05 7.168l205.349 264.558-35.401 121.563-955.978 21.468-70.802-142.995zm601.893-500.553a107.776 107.776 0 0 0 46.92 89.015c-1.352 1.426 17.226 11.812 38.035 16.091-7.314-.841 6.656 2.194 21.321 2.194 14.629-.036 28.6-3.035 41.326-8.484 19.054-8.156 35.291-21.76 46.811-38.912 1.354 1.39 11.63-17.372 15.909-38.364-.841 7.388 2.121-6.729 2.121-21.577a107.63 107.63 0 0 0-46.884-88.942c1.316-1.426-17.262-11.849-38.035-16.128 7.315.878-6.656-2.12-21.357-2.12a105.364 105.364 0 0 0-41.326 8.41c-19.017 8.156-35.292 21.797-46.775 38.95-1.39-1.354-11.703 17.37-15.945 38.4.878-7.425-2.121 6.692-2.121 21.54v-.073z" fill="#028EE3"/></svg>