<svg viewBox="0 0 1024 1024" xmlns="http://www.w3.org/2000/svg" width="200" height="200"><path d="M512.033 1023.965a508.635 508.635 0 0 1-362.047-149.951A508.635 508.635 0 0 1 .036 512a508.602 508.602 0 0 1 149.95-362.014A508.635 508.635 0 0 1 512.033.036a508.602 508.602 0 0 1 362.014 149.95A508.635 508.635 0 0 1 1023.998 512a508.635 508.635 0 0 1-149.95 362.014 508.635 508.635 0 0 1-362.015 149.95zm0-271.048a90.461 90.461 0 0 0-90.36 90.36 90.461 90.461 0 0 0 90.36 90.36 90.461 90.461 0 0 0 90.361-90.36 90.461 90.461 0 0 0-90.36-90.36zm0-632.423a90.461 90.461 0 0 0-90.36 90.36V572.23a90.461 90.461 0 0 0 90.36 90.394 90.461 90.461 0 0 0 90.361-90.36V210.888a90.461 90.461 0 0 0-90.36-90.428z" fill="#03DD9A"/></svg>