<?xml version="1.0" standalone="no"?><!DOCTYPE svg PUBLIC "-//W3C//DTD SVG 1.1//EN" "http://www.w3.org/Graphics/SVG/1.1/DTD/svg11.dtd"><svg t="1566285938436" class="icon" viewBox="0 0 1024 1024" version="1.1" xmlns="http://www.w3.org/2000/svg" p-id="19881" xmlns:xlink="http://www.w3.org/1999/xlink" width="200" height="200"><defs><style type="text/css"></style></defs><path d="M512.033463 1023.96469A508.635273 508.635273 0 0 1 149.986035 874.013967 508.635273 508.635273 0 0 1 0.035313 512.000168 508.601644 508.601644 0 0 1 149.986035 149.986369 508.635273 508.635273 0 0 1 512.033463 0.035647 508.601644 508.601644 0 0 1 874.047262 149.986369a508.635273 508.635273 0 0 1 149.950723 362.013799 508.635273 508.635273 0 0 1-149.950723 362.013799 508.635273 508.635273 0 0 1-362.013799 149.950723z m0-271.047954a90.461414 90.461414 0 0 0-90.360527 90.360528 90.461414 90.461414 0 0 0 90.360527 90.360527 90.461414 90.461414 0 0 0 90.360528-90.360527 90.461414 90.461414 0 0 0-90.360528-90.360528z m0-632.422805a90.461414 90.461414 0 0 0-90.360527 90.360527v361.374852a90.461414 90.461414 0 0 0 90.360527 90.394156 90.461414 90.461414 0 0 0 90.360528-90.360527V210.888087a90.461414 90.461414 0 0 0-90.360528-90.427785z" fill="#03DD9A" p-id="19882"></path></svg>