<?xml version="1.0" standalone="no"?><!DOCTYPE svg PUBLIC "-//W3C//DTD SVG 1.1//EN" "http://www.w3.org/Graphics/SVG/1.1/DTD/svg11.dtd"><svg t="1566272601942" class="icon" viewBox="0 0 1024 1024" version="1.1" xmlns="http://www.w3.org/2000/svg" p-id="40759" xmlns:xlink="http://www.w3.org/1999/xlink" width="200" height="200"><defs><style type="text/css"></style></defs><path d="M512 1023.2L194.1 747.1l-0.7-0.7c-85.3-83.3-132.2-193-132.2-309s47-225.7 132.2-308.9C235.1 87.9 284.1 56 339.2 34 394.2 12 452.3 0.8 512 0.8 571.7 0.8 629.8 12 684.8 34c55.1 22.1 104.2 53.9 145.8 94.6 85.2 83.2 132.2 192.9 132.2 308.9 0 116-46.9 225.8-132.2 309l-0.7 0.7-317.9 276zM237.5 700L512 938.4 786.5 700c72.4-71 112.3-164.2 112.2-262.6 0-98.6-40.1-192-112.9-263.1-71.2-69.6-171-109.5-273.8-109.5-102.8 0-202.6 39.9-273.8 109.5-72.8 71.1-112.9 164.5-112.9 263.1-0.1 98.4 39.8 191.6 112.2 262.6z" fill="#444445" p-id="40760"></path><path d="M320.1 256h64v384h-64zM640.1 256h-192v384h64V512h128c70.6 0 128-57.4 128-128s-57.4-128-128-128z m0 192h-128V320h128c35.3 0 64 28.7 64 64 0 35.2-28.7 64-64 64z" fill="#D93934" p-id="40761"></path></svg>