<?xml version="1.0" standalone="no"?><!DOCTYPE svg PUBLIC "-//W3C//DTD SVG 1.1//EN" "http://www.w3.org/Graphics/SVG/1.1/DTD/svg11.dtd"><svg t="1566275609950" class="icon" viewBox="0 0 1024 1024" version="1.1" xmlns="http://www.w3.org/2000/svg" p-id="3333" xmlns:xlink="http://www.w3.org/1999/xlink" width="200" height="200"><defs><style type="text/css"></style></defs><path d="M808.96 413.696c-20.48-20.48-94.208-34.816-143.36-38.912 16.384-18.432 57.344-36.864 124.928-57.344 45.056-10.24 28.672-77.824-22.528-69.632-102.4 18.432-186.368 100.352-194.56 172.032 49.152 4.096 143.36 22.528 204.8 57.344 30.72 18.432 61.44-32.768 30.72-63.488zM253.952 247.808c-51.2-8.192-65.536 59.392-22.528 69.632 69.632 20.48 110.592 38.912 126.976 57.344-51.2 4.096-122.88 16.384-143.36 38.912-30.72 28.672 0 81.92 30.72 63.488 61.44-34.816 157.696-55.296 206.848-57.344-10.24-71.68-94.208-153.6-198.656-172.032zM512 0c-282.624 0-512 229.376-512 512s229.376 512 512 512 512-229.376 512-512-229.376-512-512-512zM512 950.272c-239.616 0-432.128-192.512-432.128-432.128s192.512-432.128 432.128-432.128 432.128 192.512 432.128 432.128-192.512 432.128-432.128 432.128zM632.832 614.4c-81.92 55.296-184.32 34.816-237.568 4.096-204.8-120.832-215.04 262.144 118.784 262.144 337.92 0 301.056-389.12 118.784-266.24z" fill="#d81e06" p-id="3334"></path></svg>