<?xml version="1.0" standalone="no"?><!DOCTYPE svg PUBLIC "-//W3C//DTD SVG 1.1//EN" "http://www.w3.org/Graphics/SVG/1.1/DTD/svg11.dtd"><svg t="1566599833735" class="icon" viewBox="0 0 1024 1024" version="1.1" xmlns="http://www.w3.org/2000/svg" p-id="8008" xmlns:xlink="http://www.w3.org/1999/xlink" width="200" height="200"><defs><style type="text/css"></style></defs><path d="M943.003574 243.916096L527.963095 4.469667a31.926191 31.926191 0 0 0-31.92619 0l-415.040479 239.446429a31.926191 31.926191 0 0 0-15.963095 27.456524v478.89286a31.926191 31.926191 0 0 0 15.963095 27.456524l118.126906 68.322048a162.823572 162.823572 0 0 0 52.358952 5.10819c88.75481 0 116.211334-34.480286 116.211334-119.403953V328.839764H298.094523v418.871621c0 30.649143-14.047524 44.058143-52.358953 44.058143a56.190096 56.190096 0 0 1-14.047524 0L128.885712 731.748289V289.889811l383.114288-220.929239 383.114288 220.929239v441.858478l-383.114288 220.92924-114.934286-63.852382a31.926191 31.926191 0 0 0-31.926191 55.551572l130.897382 75.34581a31.926191 31.926191 0 0 0 31.92619 0l415.040479-239.44643a31.926191 31.926191 0 0 0 15.963095-27.456524V271.37262a31.926191 31.926191 0 0 0-15.963095-27.456524z" fill="#14ADC4" p-id="8009"></path><path d="M618.633477 667.257384c-88.75481 0-115.57281-40.865524-115.57281-73.430238h-70.23762c7.662286 106.633477 104.079381 127.704763 187.726001 127.704762 112.380191 0 184.533382-40.227 184.533382-127.704762 0-51.081905-35.757334-84.285143-127.704762-97.694143L575.852381 485.278098c-49.804857-6.385238-63.852381-21.071286-63.852381-45.335191 0-42.781095 51.720429-56.190096 97.05562-56.190096 72.791715 0 107.910524 31.287667 109.826095 68.960572h70.23762c-1.277048-69.599096-55.551572-123.87362-175.594049-123.873619C512 328.839764 448.147619 372.259383 448.147619 446.966669a102.802334 102.802334 0 0 0 97.694143 97.694143l115.57281 15.324572c56.190096 7.662286 69.599096 22.986857 69.599096 49.166333s-22.348333 58.105667-112.380191 58.105667z" fill="#14ADC4" p-id="8010"></path></svg>