<?xml version="1.0" standalone="no"?><!DOCTYPE svg PUBLIC "-//W3C//DTD SVG 1.1//EN" "http://www.w3.org/Graphics/SVG/1.1/DTD/svg11.dtd"><svg t="1591885079380" class="icon" viewBox="0 0 1024 1024" version="1.1" xmlns="http://www.w3.org/2000/svg" p-id="14410" xmlns:xlink="http://www.w3.org/1999/xlink" width="200" height="200"><defs><style type="text/css"></style></defs><path d="M512 579.584a99.328 99.328 0 0 0-18.944 62.464A102.4 102.4 0 0 0 512 704a59.392 59.392 0 0 0 51.2 24.064 60.928 60.928 0 0 0 51.2-23.04 97.28 97.28 0 0 0 17.92-61.952 104.96 104.96 0 0 0-17.92-64 58.368 58.368 0 0 0-51.2-23.552 60.928 60.928 0 0 0-51.2 24.064z" p-id="14411" fill="#1296db"></path><path d="M970.24 431.104h-53.76V215.552L700.416 0H215.552a107.52 107.52 0 0 0-107.52 108.032v323.072H53.76A53.76 53.76 0 0 0 0 484.864v323.584a53.76 53.76 0 0 0 53.76 53.76h54.272v53.76A108.032 108.032 0 0 0 215.552 1024h592.896a108.032 108.032 0 0 0 107.52-108.032v-53.76h53.76a53.76 53.76 0 0 0 54.272-53.76V484.864a53.76 53.76 0 0 0-53.76-53.76zM161.792 102.4a53.76 53.76 0 0 1 53.76-55.808h431.104V153.6a108.032 108.032 0 0 0 108.032 108.032H862.72v162.304H161.792z m527.872 537.088a138.24 138.24 0 0 1-35.328 98.304 120.32 120.32 0 0 1-92.16 37.888 119.296 119.296 0 0 1-90.624-36.352 131.072 131.072 0 0 1-34.816-94.208 139.776 139.776 0 0 1 35.84-99.328 122.368 122.368 0 0 1 94.208-38.4 115.712 115.712 0 0 1 89.6 36.864 135.68 135.68 0 0 1 33.28 95.232z m-347.648 44.544a168.448 168.448 0 0 0-47.616-25.6q-60.928-25.6-60.928-75.264a65.536 65.536 0 0 1 27.648-56.32 121.344 121.344 0 0 1 72.704-19.968 179.2 179.2 0 0 1 64 9.728v51.2a105.984 105.984 0 0 0-60.928-17.92 62.464 62.464 0 0 0-32.768 7.68 22.528 22.528 0 0 0-12.288 19.968 25.6 25.6 0 0 0 8.192 18.432 156.672 156.672 0 0 0 41.472 23.04 135.168 135.168 0 0 1 51.2 34.816 69.12 69.12 0 0 1 14.336 44.032 66.56 66.56 0 0 1-26.624 56.832A124.928 124.928 0 0 1 307.2 775.68a161.28 161.28 0 0 1-73.216-14.336v-55.296A108.544 108.544 0 0 0 307.2 732.16a60.416 60.416 0 0 0 33.792-7.68 23.552 23.552 0 0 0 11.264-19.968 28.16 28.16 0 0 0-10.24-20.48zM97.28 775.68A97.28 97.28 0 0 1 60.928 768v-51.2a51.2 51.2 0 0 0 32.768 10.752q39.936 0 39.936-60.416V512h55.296v157.696a117.248 117.248 0 0 1-23.552 78.848A84.992 84.992 0 0 1 97.28 775.68zM862.208 908.8a53.76 53.76 0 0 1-53.76 53.76H215.552a53.76 53.76 0 0 1-53.76-53.76v-53.76h700.416z m102.4-137.728h-57.344l-110.08-167.936a192.512 192.512 0 0 1-12.288-20.992 409.6 409.6 0 0 1 0 41.472v147.456h-51.2V512H793.6l105.984 163.328 12.8 20.48a240.128 240.128 0 0 1 0-35.84V512h51.2z" p-id="14412" fill="#1296db"></path></svg>