<svg viewBox="0 0 1024 1024" xmlns="http://www.w3.org/2000/svg" width="200" height="200"><path d="M941.84 218.677 520.798 64.29a28.116 28.116 0 0 0-19.373 0L80.387 218.677A28.067 28.067 0 0 0 62 245.065V750.31a28.076 28.076 0 0 0 16.979 25.826l422.73 182.452a28.071 28.071 0 0 0 22.31 0l419.365-182.452a28.076 28.076 0 0 0 16.839-25.826V539.792a28.067 28.067 0 1 0-56.138 0v192.137L512.792 902.173 118.138 731.788V264.707l392.971-144.135 392.976 144.135v108.49a28.071 28.071 0 1 0 56.138 0V245.065a28.062 28.062 0 0 0-18.383-26.388zm0 0" fill="#1F81FF"/><path d="M331.541 657.192c0-38.389 4.739-63.99 4.739-99.063 0-20.38-9.954-40.765-45.977-41.238v-33.178c36.023-.473 45.977-20.858 45.977-40.289 0-35.55-4.739-61.146-4.739-99.54 0-55.93 19.908-72.522 63.99-72.522h26.541v29.862h-12.321c-27.018 0-34.128 12.326-34.128 45.504 0 30.812 2.844 58.302 2.844 93.375 0 36.495-9.954 53.087-34.6 59.252v2.367c24.646 6.165 34.6 23.229 34.6 59.252 0 35.077-2.844 62.563-2.844 93.375 0 33.178 7.11 45.031 34.128 45.031h12.321v30.335h-26.541c-44.082 0-63.99-16.592-63.99-72.522zm134.613 55.458c32.234-13.27 51.192-36.972 51.665-64.939-1.9.472-3.317.472-5.216.472-19.435 0-36.5-12.32-36.5-35.073 0-21.33 17.065-35.077 37.922-35.077 26.541 0 42.183 22.275 42.183 58.779 0 49.77-28.912 88.16-77.733 106.645l-12.321-30.807zm9.005-282.024c0-22.275 16.114-38.866 36.495-38.866 20.385 0 36.499 16.591 36.499 38.867 0 21.802-16.114 37.921-36.5 37.921-20.38-.005-36.494-16.119-36.494-37.922zM601.23 699.38h12.325c27.018 0 34.128-11.853 34.128-45.032 0-30.811-2.371-58.297-2.371-93.375 0-36.022 9.477-53.086 34.128-59.251v-2.367c-24.651-6.165-34.128-22.752-34.128-59.252 0-35.073 2.371-62.568 2.371-93.375 0-33.178-7.11-45.504-34.128-45.504H601.23v-29.862h26.545c44.078 0 64.458 16.592 64.458 72.522 0 38.394-4.738 63.99-4.738 99.54 0 19.431 9.954 39.816 45.499 40.289v33.178c-35.545.473-45.5 20.858-45.5 41.238 0 35.073 4.739 60.67 4.739 99.063 0 55.935-20.38 72.522-64.458 72.522H601.23V699.38z" fill="#DD697C"/></svg>