<?xml version="1.0" standalone="no"?><!DOCTYPE svg PUBLIC "-//W3C//DTD SVG 1.1//EN" "http://www.w3.org/Graphics/SVG/1.1/DTD/svg11.dtd"><svg t="1617944387612" class="icon" viewBox="0 0 1024 1024" version="1.1" xmlns="http://www.w3.org/2000/svg" p-id="55609" xmlns:xlink="http://www.w3.org/1999/xlink" width="200" height="200"><defs><style type="text/css"></style></defs><path d="M903.75 510.08a55.64 55.64 0 0 0-55.65-55.65H347.23V371H350a167 167 0 1 1 328.29 0h112.77c0.88-9.15 1.38-18.42 1.38-27.82 0-153.69-124.57-278.26-278.26-278.26S235.91 189.44 235.91 343.13c0 9.4 0.51 18.67 1.4 27.82h-1.4v83.48h-55.65a55.64 55.64 0 0 0-55.65 55.65v111.31a55.72 55.72 0 0 0 1.28 11.71c-0.49 5.34-1.28 10.64-1.28 16.11v139.13a167 167 0 0 0 167 167h445.18a167 167 0 0 0 167-167V649.21c0-5.47-0.78-10.77-1.28-16.11a55.72 55.72 0 0 0 1.28-11.71zM540.61 725.73c0.59 2.28 1.4 4.49 1.4 7v55.65a27.83 27.83 0 1 1-55.65 0v-55.69c0-2.47 0.81-4.68 1.39-7a55.66 55.66 0 1 1 52.86 0z" fill="#FF8100" p-id="55610"></path></svg>