<?xml version="1.0" standalone="no"?><!DOCTYPE svg PUBLIC "-//W3C//DTD SVG 1.1//EN" "http://www.w3.org/Graphics/SVG/1.1/DTD/svg11.dtd"><svg t="1566275723017" class="icon" viewBox="0 0 1024 1024" version="1.1" xmlns="http://www.w3.org/2000/svg" p-id="8190" xmlns:xlink="http://www.w3.org/1999/xlink" width="200" height="200"><defs><style type="text/css"></style></defs><path d="M512.64 379.392l-55.168-32.576L359.936 512h-8.896L233.728 351.552l-51.712 37.76L271.744 512H192v64h128v64H192v64h128v64h64v-64h128v-64H384v-64h128v-64h-77.696z" fill="#D81E06" p-id="8191"></path><path d="M896 192H128C57.408 192 0 249.408 0 320v448c0 70.592 57.408 128 128 128h768c70.592 0 128-57.408 128-128v-96.64l-64-5.248c-50.112-17.344-86.4-64.576-86.4-120.512 0-55.936 36.224-103.104 86.4-120.448l64-5.312V320c0-70.592-57.408-128-128-128zM128 832c-35.264 0-64-28.672-64-64V320c0-35.264 28.736-64 64-64h512v576H128z m832-473.536C874.112 377.536 809.6 454.08 809.6 545.6c0 91.584 64.512 168.064 150.4 187.2V768c0 35.328-28.672 64-64 64H704V256h192c35.328 0 64 28.736 64 64v38.464z" fill="#D81E06" p-id="8192"></path></svg>