<svg viewBox="0 0 1024 1024" xmlns="http://www.w3.org/2000/svg" width="200" height="200"><path d="M524.1 171.66c-110.22-11.72-165.6 98.16-165.6 98.16s-94.89-78.33-191.09-23.26S4.8 449.48 147.14 606.6c142.34 157.11 315.27 158.04 315.27 158.04s157.95-70.41 225.07-271.5c67.12-201.1-53.16-309.76-163.38-321.48z" fill="#C53938"/><path d="M887.36 476.37c-72.82-48.51-151.74 8.1-151.74 8.1s-37.73-89.5-125.17-86.17-187.98 82.47-145.87 244.44 162.74 225.87 162.74 225.87 136.25 8.52 256.75-107.6c120.5-116.13 76.11-236.13 3.29-284.64z" fill="#F5E5E5"/></svg>