<?xml version="1.0" standalone="no"?><!DOCTYPE svg PUBLIC "-//W3C//DTD SVG 1.1//EN" "http://www.w3.org/Graphics/SVG/1.1/DTD/svg11.dtd"><svg t="1591442149351" class="icon" viewBox="0 0 1024 1024" version="1.1" xmlns="http://www.w3.org/2000/svg" p-id="2599" xmlns:xlink="http://www.w3.org/1999/xlink" width="200" height="200"><defs><style type="text/css"></style></defs><path d="M423.424 92.16C284.16 117.248 163.84 200.192 105.472 312.32c-31.232 59.392-41.472 102.4-40.96 168.96 1.024 102.912 32.768 175.104 112.64 255.488l48.128 47.616 1.024 96.768 1.536 96.768 91.648-54.784 91.648-55.296h92.672c86.016-0.512 95.744-1.536 138.752-14.336 92.672-28.672 148.992-62.464 209.92-127.488 41.984-44.544 65.024-81.408 82.432-131.584 62.464-179.712-23.04-367.104-209.92-458.752-69.12-34.304-114.176-44.544-202.752-46.592-40.96-0.512-85.504 0.512-98.816 3.072z m193.536 68.608c16.896 4.608 52.224 18.944 78.848 31.744 39.424 19.456 56.32 31.744 90.112 65.536 70.656 70.144 96.256 129.536 96.256 220.672s-25.6 150.528-95.744 220.16c-46.08 45.568-95.232 74.752-161.792 95.232-32.256 10.24-49.664 12.288-107.52 12.288-37.888 0-76.288-1.536-85.504-3.584-13.824-3.072-24.064 1.024-79.36 34.304L289.28 875.52l-1.536-66.56-1.536-66.048-16.896-10.752c-24.576-14.848-77.312-72.192-95.232-103.936-28.672-50.176-38.4-87.04-38.4-149.504 0-58.88 6.656-87.04 30.72-135.68 46.08-91.648 143.872-162.816 258.56-186.88 42.496-9.216 149.504-6.656 192 4.608z" fill="#17B3A3" p-id="2600"></path><path d="M263.68 424.448c-23.04 10.24-33.28 27.136-33.28 54.784 0 26.112 27.136 53.248 53.248 53.248 26.624 0 46.08-11.776 56.832-34.304 8.192-16.896 8.192-20.992 2.048-39.424-12.8-35.328-45.056-49.664-78.848-34.304zM467.456 437.76c-16.896 16.896-17.92 19.968-15.36 41.984 6.656 59.904 86.528 73.216 109.568 18.432 16.384-40.448-9.216-78.336-53.248-78.336-19.456 0-25.6 2.56-40.96 17.92zM698.368 429.056c-15.36 12.288-22.528 28.16-22.528 49.664 0 26.624 27.136 53.76 53.248 53.76 26.624 0 46.08-11.776 56.832-33.792 7.168-15.872 7.68-22.016 3.072-38.4-8.192-27.136-27.136-40.448-56.32-40.448-14.336 0-27.648 3.584-34.304 9.216z" fill="#17B3A3" p-id="2601"></path></svg>