<svg viewBox="0 0 1024 1024" xmlns="http://www.w3.org/2000/svg" width="200" height="200"><path d="M519.68 980.992 116.736 752.128V271.872L519.68 27.648l402.944 236.544 7.68 487.936L519.68 980.992zM160.768 726.016l359.424 204.288 366.08-204.288-6.656-436.224L520.704 78.848l-359.424 217.6v429.568z" fill="#1AA95E"/><path d="M516.096 813.056h14.848v75.264h-14.848v-75.264zm282.112-172.544 60.416 30.208-6.656 13.312-60.416-30.208 6.656-13.312zm38.4-331.264 6.656 13.312-60.416 30.208-6.656-13.312 60.416-30.208zm-641.024 15.36L256 354.816l-6.656 13.312-60.416-30.208 6.656-13.312zm52.224 316.928 9.216 12.288-60.416 45.056-9.216-12.288 60.416-45.056zM516.096 135.68h14.848v75.264h-14.848V135.68zM463.36 60.416c0 33.28 27.136 60.416 60.416 60.416s60.416-27.136 60.416-60.416S557.056 0 523.776 0 463.36 27.136 463.36 60.416zm0 903.168c0 33.28 27.136 60.416 60.416 60.416s60.416-27.136 60.416-60.416-27.136-60.416-60.416-60.416c-33.28.512-60.416 27.136-60.416 60.416zm391.68-240.64c0 33.28 27.136 60.416 60.416 60.416s60.416-27.136 60.416-60.416-27.136-60.416-60.416-60.416-60.416 27.136-60.416 60.416zm0-452.096c0 33.28 27.136 60.416 60.416 60.416s60.416-27.136 60.416-60.416-27.136-60.416-60.416-60.416-60.416 27.136-60.416 60.416zM71.68 737.792c0 33.28 27.136 60.416 60.416 60.416s60.416-27.136 60.416-60.416-27.136-60.416-60.416-60.416-60.416 27.136-60.416 60.416zM56.832 301.056c0 33.28 27.136 60.416 60.416 60.416s60.416-27.136 60.416-60.416-27.136-60.416-60.416-60.416-60.416 27.136-60.416 60.416zm215.552 107.008h35.84l107.52 157.184h1.024V408.064h35.84v217.6h-34.816L308.736 466.432h-1.024v159.232h-35.84v-217.6zm222.72 0h35.328v187.392h117.76v30.72H495.104V408.064zm180.736 0h90.112c52.736 0 78.848 22.016 78.848 66.56 0 45.056-26.624 67.584-79.36 67.584h-53.76v83.456h-35.84v-217.6zm35.84 30.72V512h51.712c15.872 0 27.136-3.072 34.816-8.704 7.168-6.144 10.752-15.36 10.752-28.16s-3.584-22.016-11.264-27.648c-7.168-5.632-18.432-8.704-34.304-8.704H711.68z" fill="#1AA95E"/></svg>