<?xml version="1.0" standalone="no"?><!DOCTYPE svg PUBLIC "-//W3C//DTD SVG 1.1//EN" "http://www.w3.org/Graphics/SVG/1.1/DTD/svg11.dtd"><svg t="1601440640206" class="icon" viewBox="0 0 1024 1024" version="1.1" xmlns="http://www.w3.org/2000/svg" p-id="3912" xmlns:xlink="http://www.w3.org/1999/xlink" width="200" height="200"><defs><style type="text/css"></style></defs><path d="M519.68 980.992l-402.944-228.864v-480.256l402.944-244.224 402.944 236.544 7.68 487.936-410.624 228.864z m-358.912-254.976l359.424 204.288 366.08-204.288-6.656-436.224-358.912-210.944-359.424 217.6v429.568z" fill="#1AA95E" p-id="3913"></path><path d="M516.096 813.056h14.848v75.264h-14.848v-75.264z m282.112-172.544l60.416 30.208-6.656 13.312-60.416-30.208 6.656-13.312z m38.4-331.264l6.656 13.312-60.416 30.208-6.656-13.312 60.416-30.208z m-641.024 15.36l60.416 30.208-6.656 13.312-60.416-30.208 6.656-13.312z m52.224 316.928l9.216 12.288-60.416 45.056-9.216-12.288 60.416-45.056z m268.288-505.856h14.848v75.264h-14.848v-75.264zM463.36 60.416c0 33.28 27.136 60.416 60.416 60.416 33.28 0 60.416-27.136 60.416-60.416 0-33.28-27.136-60.416-60.416-60.416s-60.416 27.136-60.416 60.416zM463.36 963.584c0 33.28 27.136 60.416 60.416 60.416 33.28 0 60.416-27.136 60.416-60.416 0-33.28-27.136-60.416-60.416-60.416-33.28 0.512-60.416 27.136-60.416 60.416zM855.04 722.944c0 33.28 27.136 60.416 60.416 60.416s60.416-27.136 60.416-60.416c0-33.28-27.136-60.416-60.416-60.416s-60.416 27.136-60.416 60.416zM855.04 270.848c0 33.28 27.136 60.416 60.416 60.416s60.416-27.136 60.416-60.416c0-33.28-27.136-60.416-60.416-60.416s-60.416 27.136-60.416 60.416zM71.68 737.792c0 33.28 27.136 60.416 60.416 60.416 33.28 0 60.416-27.136 60.416-60.416 0-33.28-27.136-60.416-60.416-60.416s-60.416 27.136-60.416 60.416zM56.832 301.056c0 33.28 27.136 60.416 60.416 60.416 33.28 0 60.416-27.136 60.416-60.416 0-33.28-27.136-60.416-60.416-60.416s-60.416 27.136-60.416 60.416z" fill="#1AA95E" p-id="3914"></path><path d="M272.384 408.064h35.84l107.52 157.184h1.024v-157.184h35.84v217.6h-34.816l-109.056-159.232h-1.024v159.232h-35.84v-217.6zM495.104 408.064h35.328v187.392h117.76v30.72h-153.088v-218.112zM675.84 408.064h90.112c52.736 0 78.848 22.016 78.848 66.56 0 45.056-26.624 67.584-79.36 67.584H711.68v83.456h-35.84v-217.6z m35.84 30.72V512h51.712c15.872 0 27.136-3.072 34.816-8.704 7.168-6.144 10.752-15.36 10.752-28.16s-3.584-22.016-11.264-27.648c-7.168-5.632-18.432-8.704-34.304-8.704H711.68z" fill="#1AA95E" p-id="3915"></path></svg>