<?xml version="1.0" standalone="no"?><!DOCTYPE svg PUBLIC "-//W3C//DTD SVG 1.1//EN" "http://www.w3.org/Graphics/SVG/1.1/DTD/svg11.dtd"><svg t="1600040457582" class="icon" viewBox="0 0 1024 1024" version="1.1" xmlns="http://www.w3.org/2000/svg" p-id="23005" xmlns:xlink="http://www.w3.org/1999/xlink" width="200" height="200"><defs><style type="text/css"></style></defs><path d="M327.68 0v40.96H204.8C114.30912 40.96 40.96 114.30912 40.96 204.8v122.88H0V204.8C0 91.68896 91.68896 0 204.8 0h122.88z m368.64 0h122.88c113.11104 0 204.8 91.68896 204.8 204.8v122.88h-40.96V204.8c0-90.49088-73.34912-163.84-163.84-163.84H696.32V0z m327.68 696.32v122.88c0 113.11104-91.68896 204.8-204.8 204.8H696.32v-40.96h122.88c90.49088 0 163.84-73.34912 163.84-163.84V696.32h40.96z m-696.32 327.68H204.8C91.68896 1024 0 932.31104 0 819.2V696.32h40.96v122.88c0 90.49088 73.34912 163.84 163.84 163.84h122.88v40.96zM512 870.4c197.9392 0 358.4-160.4608 358.4-358.4S709.9392 153.6 512 153.6 153.6 314.0608 153.6 512s160.4608 358.4 358.4 358.4z m0-40.96c-175.3088 0-317.44-142.1312-317.44-317.44 0-175.3088 142.1312-317.44 317.44-317.44 175.3088 0 317.44 142.1312 317.44 317.44 0 175.3088-142.1312 317.44-317.44 317.44z" fill="#3AAAD8" p-id="23006"></path><path d="M512 512m-81.92 0a81.92 81.92 0 1 0 163.84 0 81.92 81.92 0 1 0-163.84 0Z" fill="#FFC221" p-id="23007"></path><path d="M512 153.6a20.48 20.48 0 0 1 20.48 20.48v102.4h-40.96V174.08a20.48 20.48 0 0 1 20.48-20.48z m0 716.8a20.48 20.48 0 0 1-20.48-20.48V747.52h40.96v102.4a20.48 20.48 0 0 1-20.48 20.48z m358.4-358.4a20.48 20.48 0 0 1-20.48 20.48H747.52v-40.96h102.4a20.48 20.48 0 0 1 20.48 20.48z m-716.8 0a20.48 20.48 0 0 1 20.48-20.48h102.4v40.96H174.08a20.48 20.48 0 0 1-20.48-20.48z" fill="#3AAAD8" p-id="23008"></path></svg>