<svg viewBox="0 0 1024 1024" xmlns="http://www.w3.org/2000/svg" width="200" height="200"><path d="M327.68 0v40.96H204.8c-90.49 0-163.84 73.35-163.84 163.84v122.88H0V204.8C0 91.689 91.689 0 204.8 0h122.88zm368.64 0H819.2C932.311 0 1024 91.689 1024 204.8v122.88h-40.96V204.8c0-90.49-73.35-163.84-163.84-163.84H696.32V0zM1024 696.32V819.2c0 113.111-91.689 204.8-204.8 204.8H696.32v-40.96H819.2c90.49 0 163.84-73.35 163.84-163.84V696.32H1024zM327.68 1024H204.8C91.689 1024 0 932.311 0 819.2V696.32h40.96V819.2c0 90.49 73.35 163.84 163.84 163.84h122.88V1024zM512 870.4c197.94 0 358.4-160.46 358.4-358.4S709.94 153.6 512 153.6 153.6 314.06 153.6 512 314.06 870.4 512 870.4zm0-40.96c-175.309 0-317.44-142.131-317.44-317.44S336.691 194.56 512 194.56 829.44 336.691 829.44 512 687.309 829.44 512 829.44z" fill="#3AAAD8"/><path d="M430.08 512a81.92 81.92 0 1 0 163.84 0 81.92 81.92 0 1 0-163.84 0z" fill="#FFC221"/><path d="M512 153.6a20.48 20.48 0 0 1 20.48 20.48v102.4h-40.96v-102.4A20.48 20.48 0 0 1 512 153.6zm0 716.8a20.48 20.48 0 0 1-20.48-20.48v-102.4h40.96v102.4A20.48 20.48 0 0 1 512 870.4zM870.4 512a20.48 20.48 0 0 1-20.48 20.48h-102.4v-40.96h102.4A20.48 20.48 0 0 1 870.4 512zm-716.8 0a20.48 20.48 0 0 1 20.48-20.48h102.4v40.96h-102.4A20.48 20.48 0 0 1 153.6 512z" fill="#3AAAD8"/></svg>