<?xml version="1.0" standalone="no"?><!DOCTYPE svg PUBLIC "-//W3C//DTD SVG 1.1//EN" "http://www.w3.org/Graphics/SVG/1.1/DTD/svg11.dtd"><svg t="1600047515173" class="icon" viewBox="0 0 1024 1024" version="1.1" xmlns="http://www.w3.org/2000/svg" p-id="11134" xmlns:xlink="http://www.w3.org/1999/xlink" width="200" height="200"><defs><style type="text/css"></style></defs><path d="M138.7 848V661.3H64V848c0 59.7 52.3 112 112 112h112v-74.7H176c-22.4 0-37.3-14.9-37.3-37.3zM64 176v186.7h74.7V176c0-22.4 14.9-37.3 37.3-37.3h112V64H176c-59.7 0-112 52.3-112 112z m821.3 672c0 22.4-14.9 37.3-37.3 37.3H736V960h112c59.7 0 112-52.3 112-112V661.3h-74.7V848zM848 64H736v74.7h112c22.4 0 37.3 14.9 37.3 37.3v186.7H960V176c0-59.7-52.3-112-112-112z" fill="#0070F3" p-id="11135"></path><path d="M362.7 346.2c-7.5-7.5-14.9-14.9-29.9-14.9-7.5-7.5-22.4-7.5-29.9-7.5s-22.4 0-29.9 7.5c-14.9 0-22.4 7.5-29.9 14.9-7.5 7.5-14.9 14.9-22.4 29.9-7.5 7.5-7.5 22.4-7.5 37.3v194.1c0 14.9 0 29.9 7.5 37.3 7.5 7.5 14.9 22.4 22.4 29.9 7.5 14.9 14.9 14.9 29.9 22.4 14.9 7.5 22.4 7.5 29.9 7.5s22.4-7.5 29.9-7.5c14.9-7.5 22.4-7.5 29.9-14.9 7.5-7.5 14.9-14.9 22.4-29.9 7.5-7.5 7.5-22.4 7.5-37.3V413.4c0-14.9 0-29.9-7.5-37.3-7.5-14.9-15-22.4-22.4-29.9zM340.3 615c0 14.9 0 22.4-7.5 29.9s-22.4 7.5-29.9 7.5-14.9-7.5-22.4-14.9c-7.5-7.5-14.9-14.9-14.9-22.4V413.4c0-14.9 0-22.4 7.5-29.9s14.9-7.5 22.4-7.5c7.5 0 14.9 0 22.4 7.5 7.5 7.5 22.4 14.9 22.4 29.9V615z m448 82.2H848l-59.7-171.7c14.9-7.5 29.9-22.4 37.3-37.3 7.5-14.9 7.5-37.3 7.5-52.3 0-74.7-29.9-112-97.1-112h-82.1v373.3h52.3V540.4H736l52.3 156.8z m-82.2-201.6V376.1H736c14.9 0 29.9 7.5 37.3 14.9 0 7.5 7.5 14.9 7.5 14.9v44.8c0 7.5 0 14.9-7.5 14.9 0 7.5-7.5 7.5-14.9 14.9-7.5 0-14.9 7.5-22.4 7.5h-29.9v7.6z" fill="#00E090" p-id="11136"></path><path d="M586.7 346.2c-14.9-14.9-37.3-22.4-67.2-22.4-7.5 0-22.4 0-29.9 7.5-14.9 0-22.4 7.5-29.9 14.9-7.5 7.5-14.9 22.4-14.9 29.9s-7.5 22.4-7.5 29.9v201.6c0 14.9 0 29.9 7.5 44.8 7.5 14.9 14.9 22.4 22.4 29.9 7.5 7.5 14.9 14.9 22.4 14.9 14.9 0 22.4 7.5 37.3 7.5s22.4 0 29.9-7.5 22.4-14.9 29.9-22.4c7.5-7.5 14.9-14.9 14.9-29.9 0-14.9 7.5-22.4 7.5-29.9v-22.4h-52.3v29.9c0 7.5-7.5 7.5-7.5 14.9 0 0-7.5 7.5-14.9 7.5h-14.9c-14.9 0-22.4 0-22.4-7.5-7.5-7.5-7.5-14.9-7.5-29.9V420.9c0-14.9 0-22.4 7.5-29.9 0-7.5 14.9-14.9 22.4-14.9 7.5 0 14.9 7.5 22.4 14.9 7.5 7.5 14.9 14.9 14.9 22.4v14.9h52.3v-14.9c0-14.9 0-22.4-7.5-37.3-7.5-14.9-7.5-22.4-14.9-29.9z" fill="#FC9C41" p-id="11137"></path></svg>