<?xml version="1.0" standalone="no"?><!DOCTYPE svg PUBLIC "-//W3C//DTD SVG 1.1//EN" "http://www.w3.org/Graphics/SVG/1.1/DTD/svg11.dtd"><svg t="1598779838049" class="icon" viewBox="0 0 1024 1024" version="1.1" xmlns="http://www.w3.org/2000/svg" p-id="8782" xmlns:xlink="http://www.w3.org/1999/xlink" width="200" height="200"><defs><style type="text/css"></style></defs><path d="M54.330514 0m73.142857 0l731.428572 0q73.142857 0 73.142857 73.142857l0 877.714286q0 73.142857-73.142857 73.142857l-731.428572 0q-73.142857 0-73.142857-73.142857l0-877.714286q0-73.142857 73.142857-73.142857Z" fill="#3296FA" p-id="8783"></path><path d="M200.616229 146.285714m36.571428 0l512 0q36.571429 0 36.571429 36.571429l0 219.428571q0 36.571429-36.571429 36.571429l-512 0q-36.571429 0-36.571428-36.571429l0-219.428571q0-36.571429 36.571428-36.571429Z" fill="#FFFFFF" p-id="8784"></path><path d="M200.616229 561.444571m36.571428 0l438.857143 0q36.571429 0 36.571429 36.571429l0 14.628571q0 36.571429-36.571429 36.571429l-438.857143 0q-36.571429 0-36.571428-36.571429l0-14.628571q0-36.571429 36.571428-36.571429Z" fill="#FFFFFF" p-id="8785"></path><path d="M237.187657 775.314286h292.571429a36.571429 36.571429 0 0 1 36.571428 36.571428v14.628572a36.571429 36.571429 0 0 1-36.571428 36.571428h-292.571429a36.571429 36.571429 0 0 1-36.571428-36.571428v-14.628572a36.571429 36.571429 0 0 1 36.571428-36.571428z" fill="#FFFFFF" p-id="8786"></path></svg>