<?xml version="1.0" standalone="no"?><!DOCTYPE svg PUBLIC "-//W3C//DTD SVG 1.1//EN" "http://www.w3.org/Graphics/SVG/1.1/DTD/svg11.dtd"><svg t="1590185529608" class="icon" viewBox="0 0 1024 1024" version="1.1" xmlns="http://www.w3.org/2000/svg" p-id="9396" xmlns:xlink="http://www.w3.org/1999/xlink" width="200" height="200"><defs><style type="text/css"></style></defs><path d="M511.55985659 939.7419935l-322.54715495-189.00258847h233.61237568c7.27530549 42.87510755 44.19553659 75.54925394 88.93477927 75.54925394s81.63358341-32.67414638 88.90888889-75.54925394h233.66415762l-322.59893688 189.00258847zM473.39686875 94.20137601l-125.44075853 216.91283198a89.06423349 89.06423349 0 0 0-28.55751467-5.07458962 90.61767941 90.61767941 0 0 0-60.0665754 158.32203022l-117.85476384 203.76032476V288.66691436l331.91961244-194.46553835z m7.50832236 556.13364149l-105.55665066-182.55578788a90.35877095 90.35877095 0 0 0 32.1304391-50.92713479H615.56306132a90.41055289 90.41055289 0 0 0 32.15633067 50.92713479l-105.4530868 182.5298963a89.40081303 89.40081303 0 0 0-30.68055703-5.72185835 89.32314075 89.32314075 0 0 0-30.65466668 5.72185835z m30.88768236-561.38946728l136.62556919 236.46036029a90.41055289 90.41055289 0 0 0-34.17581037 60.84329957h-205.46911407a90.41055289 90.41055289 0 0 0-33.86512119-60.5843911l136.88447644-236.71926876zM146.75897245 720.11062992l138.36025007-239.23067258c10.5634323 4.37553895 22.11071408 6.86105244 34.27937303 6.86105243 10.25274311 0 19.93588978-2.07126164 29.12711111-5.22993421l105.84144949 183.04771201a90.35877095 90.35877095 0 0 0-31.74207883 54.55184235H146.75897245z m453.70977303 0a90.30699023 90.30699023 0 0 0-31.69029689-54.525952l105.76377719-183.07360236c9.19122132 3.15867378 18.84847764 5.22993422 29.10121954 5.22993421 12.24633245 0 23.8971769-2.48551348 34.56417185-6.93872473l138.25668742 239.30834488h-275.99555911z m281.1737126-52.24756503l-117.69941925-203.70854161a90.64356978 90.64356978 0 0 0-60.29959351-158.11490491c-9.91616356 0-19.28861984 1.99358934-28.22093391 4.94513661l-125.02650668-216.39501748 331.24645335 194.07717686v379.19615053zM522.61521423 27.61032651a21.90358755 21.90358755 0 0 0-22.08482372 0l-391.93440712 229.65108979a21.85180562 21.85180562 0 0 0-10.82233954 18.90025836v459.25039764c0 7.76722963 4.1166317 14.96486283 10.82233954 18.90025836l391.93440712 229.65108979a21.82591525 21.82591525 0 0 0 22.08482372 0l391.98618783-229.65108979a21.95536949 21.95536949 0 0 0 10.79644919-18.90025836V276.1357843c0-7.76722963-4.14252206-14.93897125-10.79644919-18.874368l-391.98618783-229.65108979z" fill="#5FB86C" p-id="9397"></path><path d="M491.28738725 49.22911645L97.74775349 731.34722253l42.6161991 24.59622636 393.53963496-682.14399644zM654.39920947 433.75876384l-147.52558102 255.67130905 42.6162003 24.59622756 147.49969066-255.67130903z" fill="#5FB86C" p-id="9398"></path><path d="M377.31623822 433.75876384l147.49969067 255.67130905-42.6162003 24.59622756-147.49969067-255.67130903zM534.05893215 49.22911645l380.95672296 669.97533628-42.77154489 24.31142875L491.28738725 73.5405452z" fill="#5FB86C" p-id="9399"></path><path d="M306.81568355 418.17252386h394.41992059v-49.19245513H306.81568355zM134.64209423 762.5197037H884.82702222v-49.19245392H134.64209423z" fill="#5FB86C" p-id="9400"></path></svg>