<svg viewBox="0 0 1024 1024" xmlns="http://www.w3.org/2000/svg" width="200" height="200"><path d="M511.56 939.742 189.013 750.739h233.612c7.275 42.876 44.196 75.55 88.935 75.55s81.633-32.674 88.909-75.55h233.664L511.534 939.742zm-38.163-845.54-125.44 216.912a89.064 89.064 0 0 0-28.558-5.074 90.618 90.618 0 0 0-60.067 158.322l-117.855 203.76V288.667L473.397 94.2zm7.508 556.133L375.35 467.779a90.359 90.359 0 0 0 32.13-50.927h208.084a90.41 90.41 0 0 0 32.156 50.927L542.266 650.31a89.4 89.4 0 0 0-30.68-5.722 89.323 89.323 0 0 0-30.655 5.722zm30.888-561.39 136.625 236.46a90.41 90.41 0 0 0-34.175 60.844h-205.47a90.41 90.41 0 0 0-33.865-60.584l136.885-236.72zM146.759 720.112l138.36-239.231c10.564 4.375 22.11 6.861 34.28 6.861 10.252 0 19.935-2.071 29.127-5.23L454.367 665.56a90.359 90.359 0 0 0-31.742 54.552H146.76zm453.71 0a90.307 90.307 0 0 0-31.69-54.526L674.541 482.51c9.191 3.159 18.849 5.23 29.101 5.23 12.247 0 23.898-2.486 34.565-6.939L876.463 720.11H600.47zm281.173-52.248L763.943 464.155a90.644 90.644 0 0 0-60.3-158.115c-9.916 0-19.288 1.993-28.22 4.945L550.396 94.59l331.246 194.077v379.196zM522.615 27.61a21.904 21.904 0 0 0-22.085 0L108.596 257.261a21.852 21.852 0 0 0-10.822 18.9v459.251a21.92 21.92 0 0 0 10.822 18.9L500.53 983.963a21.826 21.826 0 0 0 22.085 0l391.986-229.65a21.955 21.955 0 0 0 10.797-18.9V276.135c0-7.767-4.143-14.94-10.797-18.875L522.615 27.611z" fill="#5FB86C"/><path d="M491.287 49.23 97.747 731.346l42.617 24.596L533.904 73.8zM654.4 433.758 506.874 689.43l42.616 24.596 147.5-255.671z" fill="#5FB86C"/><path d="m377.316 433.759 147.5 255.671-42.616 24.596-147.5-255.671zM534.06 49.229l380.957 669.975-42.772 24.312L491.287 73.54z" fill="#5FB86C"/><path d="M306.816 418.173h394.42V368.98h-394.42zM134.642 762.52h750.185v-49.193H134.642z" fill="#5FB86C"/></svg>