<svg viewBox="0 0 1204 1024" xmlns="http://www.w3.org/2000/svg" width="235.156" height="200"><path d="M1101.523 12.83h-998.34c-45.779 0-83.185 37.406-83.185 83.245v831.97c0 45.779 37.346 83.245 83.185 83.245h998.34c45.779 0 83.185-37.406 83.185-83.245V96.075c0-45.779-37.346-83.245-83.185-83.245zm1.927 926.359H94.81v-673.43h1008.7v673.43h-.12z" fill="#3F92FE"/><path d="M730.835 802.274v88.666H473.87v-88.666h256.964zm315.512 0v88.666H789.203v-88.666h257.205zM730.835 639.639v88.726H473.87v-88.787h256.964zm315.512 0v88.726H789.203v-88.787h257.205zM730.835 477.003v88.727H473.87v-88.666h256.964zm315.512 0v88.727H789.203v-88.666h257.205zM730.835 314.488v88.667H473.87v-88.667h256.964zm315.512 0v88.667H789.203v-88.667h257.205z" fill="#CAE1FF"/><path d="M415.503 802.274v88.666H158.298v-88.666h257.205zm0-487.786v88.667H158.298v-88.667h257.205z" fill="#84BAFF"/><path d="M415.503 477.064v88.666H158.298v-88.666zm0 162.514v88.787H158.298v-88.787z" fill="#FFB04B"/></svg>