<?xml version="1.0" standalone="no"?><!DOCTYPE svg PUBLIC "-//W3C//DTD SVG 1.1//EN" "http://www.w3.org/Graphics/SVG/1.1/DTD/svg11.dtd"><svg t="1570936052115" class="icon" viewBox="0 0 1024 1024" version="1.1" xmlns="http://www.w3.org/2000/svg" p-id="1359" xmlns:xlink="http://www.w3.org/1999/xlink" width="200" height="200"><defs><style type="text/css"></style></defs><path d="M512 13.653333C236.76928 13.653333 13.653333 236.76928 13.653333 512s223.115947 498.346667 498.346667 498.346667 498.346667-223.115947 498.346667-498.346667S787.23072 13.653333 512 13.653333z m0 952.32c-250.722987 0-453.973333-203.250347-453.973333-453.973333S261.277013 58.026667 512 58.026667c250.719573 0 453.973333 203.250347 453.973333 453.973333s-203.25376 453.973333-453.973333 453.973333z" fill="#1296db" p-id="1360"></path><path d="M508.245333 170.007893h-36.840106a2.901333 2.901333 0 0 0-2.901334 2.904747v306.906453c0 1.604267 1.297067 2.901333 2.901334 2.901334H508.245333c1.604267 0 2.901333-1.297067 2.901334-2.901334V172.909227a2.901333 2.901333 0 0 0-2.901334-2.901334zM820.954453 494.08H471.405227a2.901333 2.901333 0 0 0-2.901334 2.901333v36.840107c0 1.604267 1.297067 2.904747 2.901334 2.904747h349.549226c1.604267 0 2.904747-1.30048 2.904747-2.904747V496.981333a2.90816 2.90816 0 0 0-2.904747-2.901333z" fill="#1296db" p-id="1361"></path><path d="M253.955413 719.796907v80.370346h-27.76064v-215.016106h61.078187c23.227733 0 41.24672 5.60128 54.0672 16.797013 12.813653 11.195733 19.223893 27.20768 19.223893 48.0256 0 21.101227-7.49568 38.1952-22.48704 51.288747-14.99136 13.09696-33.73056 19.27168-56.2176 18.5344h-27.904z m0-110.216534v85.787307h25.678507c16.933547 0 29.794987-3.81952 38.591147-11.451733 8.789333-7.632213 13.185707-18.57536 13.185706-32.826027 0-27.66848-16.380587-41.506133-49.138346-41.506133h-28.317014zM393.321813 592.50688c0-4.809387 1.641813-8.861013 4.928854-12.14464 3.283627-3.28704 7.33184-4.928853 12.14464-4.928853 4.90496 0 9.045333 1.621333 12.424533 4.860586s5.065387 7.31136 5.065387 12.212907c0 4.8128-1.6896 8.81664-5.065387 12.008107-3.3792 3.19488-7.519573 4.788907-12.424533 4.788906s-8.977067-1.59744-12.21632-4.788906c-3.239253-3.191467-4.857173-7.195307-4.857174-12.008107z m3.19488 207.660373v-153.524906h27.20768v153.524906h-27.20768zM602.094933 800.167253h-27.067733v-87.309653c0-31.556267-11.523413-47.336107-34.563413-47.336107-11.93984 0-21.74976 4.44416-29.42976 13.325654-7.683413 8.884907-11.52 20.125013-11.52 33.73056v87.589546h-27.20768v-153.524906h27.20768v25.402026h0.556373c11.567787-19.339947 28.3648-29.013333 50.39104-29.013333 16.841387 0 29.65504 5.393067 38.4512 16.172373 8.789333 10.779307 13.185707 26.49088 13.185707 47.12448v93.83936zM780.741973 787.258027c0 56.818347-27.579733 85.230933-82.72896 85.230933-19.06688 0-35.628373-3.56352-49.698133-10.69056v-26.23488c17.12128 9.530027 33.54624 14.29504 49.281707 14.29504 37.290667 0 55.94112-19.61984 55.94112-58.852693v-16.244054h-0.556374c-11.659947 19.34336-29.06112 29.013333-52.19328 29.013334-19.247787 0-34.655573-6.894933-46.22336-20.6848-11.567787-13.786453-17.349973-32.068267-17.349973-54.828374 0-26.187093 6.386347-46.94016 19.155627-62.255786 12.76928-15.312213 29.794987-22.971733 51.080533-22.971734 20.44928 0 35.628373 8.147627 45.530453 24.429227h0.556374v-20.821333h27.20768v140.61568z m-27.204266-78.42816c0.088747-11.844267-3.887787-22.022827-11.93984-30.53568-8.04864-8.512853-17.954133-12.772693-29.702827-12.772694-14.80704 0-26.330453 5.440853-34.563413 16.308907-8.239787 10.878293-12.356267 25.801387-12.356267 44.765867 0 16.288427 3.979947 29.477547 11.93984 39.563946 7.95648 10.0864 18.507093 15.131307 31.645013 15.131307 13.233493 0 24.060587-4.8128 32.484694-14.434987 8.420693-9.622187 12.58496-21.838507 12.4928-36.645546v-21.38112z" fill="#1296db" p-id="1362"></path></svg>