<?xml version="1.0" standalone="no"?><!DOCTYPE svg PUBLIC "-//W3C//DTD SVG 1.1//EN" "http://www.w3.org/Graphics/SVG/1.1/DTD/svg11.dtd"><svg t="1566282798658" class="icon" viewBox="0 0 1861 1024" version="1.1" xmlns="http://www.w3.org/2000/svg" p-id="51725" xmlns:xlink="http://www.w3.org/1999/xlink" width="363.4765625" height="200"><defs><style type="text/css"></style></defs><path d="M186.181818 502.690909v223.418182H46.545455V83.781818h214.10909c158.254545 0 232.727273 65.163636 232.727273 204.8 0 65.163636-27.927273 121.018182-74.472727 158.254546-37.236364 37.236364-93.090909 55.854545-167.563636 55.854545H186.181818z m0-307.2v204.8h55.854546c83.781818 0 121.018182-37.236364 121.018181-102.4 0-65.163636-37.236364-102.4-121.018181-102.4H186.181818zM567.854545 121.018182c0-18.618182 9.309091-37.236364 18.618182-46.545455 18.618182-9.309091 37.236364-18.618182 65.163637-18.618182 18.618182 0 37.236364 9.309091 55.854545 18.618182 18.618182 9.309091 18.618182 27.927273 18.618182 46.545455s-9.309091 37.236364-18.618182 46.545454c-18.618182 18.618182-37.236364 27.927273-55.854545 27.927273-27.927273 0-46.545455-9.309091-55.854546-18.618182s-27.927273-37.236364-27.927273-55.854545z m18.618182 605.090909V269.963636h130.327273v456.145455H586.472727zM1266.036364 726.109091h-130.327273V465.454545c0-74.472727-27.927273-111.709091-74.472727-111.70909-27.927273 0-46.545455 9.309091-65.163637 27.927272-18.618182 18.618182-27.927273 46.545455-27.927272 74.472728v260.654545H828.509091V269.963636h130.327273v74.472728c37.236364-55.854545 83.781818-83.781818 148.945454-83.781819 102.4 0 148.945455 65.163636 148.945455 186.181819v279.272727zM1815.272727 670.254545c0 83.781818-27.927273 148.945455-74.472727 195.49091s-121.018182 65.163636-204.8 65.163636c-65.163636 0-111.709091-9.309091-148.945455-27.927273V791.272727c46.545455 27.927273 93.090909 37.236364 139.636364 37.236364s83.781818-9.309091 111.709091-37.236364c27.927273-27.927273 37.236364-55.854545 37.236364-102.4V651.636364c-27.927273 55.854545-83.781818 74.472727-139.636364 74.472727s-102.4-18.618182-139.636364-65.163636c-37.236364-37.236364-55.854545-93.090909-55.854545-167.563637s18.618182-139.636364 55.854545-186.181818c46.545455-27.927273 93.090909-46.545455 158.254546-46.545455 55.854545 0 93.090909 18.618182 121.018182 65.163637v-55.854546h130.327272v400.290909zM1684.945455 465.454545c0-27.927273-9.309091-55.854545-27.927273-74.472727-18.618182-18.618182-46.545455-27.927273-74.472727-27.927273-27.927273 0-55.854545 9.309091-74.472728 37.236364-18.618182 27.927273-27.927273 65.163636-27.927272 102.4 0 37.236364 9.309091 74.472727 27.927272 93.090909 18.618182 18.618182 37.236364 37.236364 74.472728 37.236364 27.927273 0 55.854545-9.309091 74.472727-37.236364s27.927273-55.854545 27.927273-93.090909V465.454545z" p-id="51726" fill="#13227a"></path></svg>