<svg viewBox="0 0 1861 1024" xmlns="http://www.w3.org/2000/svg" width="363.477" height="200"><path d="M186.182 502.69v223.42H46.545V83.781h214.11c158.254 0 232.727 65.163 232.727 204.8 0 65.163-27.927 121.018-74.473 158.254-37.236 37.237-93.09 55.855-167.564 55.855h-65.163zm0-307.2v204.8h55.854c83.782 0 121.019-37.235 121.019-102.4 0-65.163-37.237-102.4-121.019-102.4h-55.854zm381.673-74.472c0-18.618 9.309-37.236 18.618-46.545 18.618-9.31 37.236-18.618 65.163-18.618 18.619 0 37.237 9.309 55.855 18.618 18.618 9.309 18.618 27.927 18.618 46.545s-9.309 37.237-18.618 46.546c-18.618 18.618-37.236 27.927-55.855 27.927-27.927 0-46.545-9.31-55.854-18.618s-27.927-37.237-27.927-55.855zm18.618 605.091V269.964H716.8v456.145H586.473zm679.563 0H1135.71V465.455c0-74.473-27.927-111.71-74.473-111.71-27.927 0-46.545 9.31-65.163 27.928-18.618 18.618-27.928 46.545-27.928 74.472V716.8H828.51V269.964h130.327v74.472c37.237-55.854 83.782-83.781 148.946-83.781 102.4 0 148.945 65.163 148.945 186.181V726.11zm549.237-55.854c0 83.781-27.928 148.945-74.473 195.49S1619.782 930.91 1536 930.91c-65.164 0-111.71-9.309-148.945-27.927v-111.71c46.545 27.928 93.09 37.237 139.636 37.237s83.782-9.309 111.709-37.236c27.927-27.928 37.236-55.855 37.236-102.4v-37.237c-27.927 55.855-83.781 74.473-139.636 74.473s-102.4-18.618-139.636-65.164c-37.237-37.236-55.855-93.09-55.855-167.563s18.618-139.637 55.855-186.182c46.545-27.927 93.09-46.545 158.254-46.545 55.855 0 93.091 18.618 121.018 65.163v-55.854h130.328v400.29zm-130.328-204.8c0-27.928-9.309-55.855-27.927-74.473-18.618-18.618-46.545-27.927-74.473-27.927-27.927 0-55.854 9.309-74.472 37.236-18.618 27.927-27.928 65.164-27.928 102.4 0 37.236 9.31 74.473 27.928 93.09 18.618 18.619 37.236 37.237 74.472 37.237 27.928 0 55.855-9.309 74.473-37.236s27.927-55.855 27.927-93.091v-37.236z" fill="#13227a"/></svg>