<?xml version="1.0" standalone="no"?><!DOCTYPE svg PUBLIC "-//W3C//DTD SVG 1.1//EN" "http://www.w3.org/Graphics/SVG/1.1/DTD/svg11.dtd"><svg t="1566272835264" class="icon" viewBox="0 0 1055 1024" version="1.1" xmlns="http://www.w3.org/2000/svg" p-id="51426" xmlns:xlink="http://www.w3.org/1999/xlink" width="206.0546875" height="200"><defs><style type="text/css"></style></defs><path d="M0 0v1024h1055.411043V0z m1002.01227 973.742331H53.398773V53.398773h948.613497z" fill="#03C8FF" p-id="51427"></path><path d="M53.398773 53.398773h948.613497v920.343558H53.398773z" fill="#001C25" p-id="51428"></path><path d="M409.097423 263.852761H257.570552v483.730061h81.668712v-169.619632h72.59092A137.863067 137.863067 0 0 0 549.693252 440.100123v-35.651534A140.595828 140.595828 0 0 0 409.097423 263.852761zM468.02454 436.048098A69.669693 69.669693 0 0 1 398.354847 505.717791H339.239264v-169.619631h56.539877a72.402454 72.402454 0 0 1 72.245399 72.402453zM797.840491 395.779141a175.90184 175.90184 0 0 0-75.386503-18.846626c-28.678282 0-62.822086 6.282209-81.668712 18.846626-20.417178 13.600982-53.398773 40.834356-53.398773 91.092025 0 100.515337 141.349693 113.079755 141.349693 157.055214 0 28.269939-15.705521 37.693252-53.398773 37.693252s-78.527607-28.269939-78.527607-28.269939v84.809816s47.116564 18.846626 87.95092 18.846626 122.314601-18.846626 125.644172-100.515337c6.282209-153.91411-141.349693-109.93865-141.349693-175.901841 0-15.705521 25.128834-31.411043 50.257668-31.411043 34.552147 0 78.527607 21.98773 78.527608 21.98773z" fill="#03C8FF" p-id="51429"></path></svg>