<?xml version="1.0" standalone="no"?><!DOCTYPE svg PUBLIC "-//W3C//DTD SVG 1.1//EN" "http://www.w3.org/Graphics/SVG/1.1/DTD/svg11.dtd"><svg t="1576413482022" class="icon" viewBox="0 0 1024 1024" version="1.1" xmlns="http://www.w3.org/2000/svg" p-id="10445" xmlns:xlink="http://www.w3.org/1999/xlink" width="200" height="200"><defs><style type="text/css"></style></defs><path d="M811.008 302.42133333c-57.57155555-5.46133333-110.70577778 4.89244445-149.04888889 25.82755556 18.09066667 23.09688889 29.696 59.27822222 29.696 100.01066666 0 33.22311111-7.73688889 63.37422222-20.36622222 85.90222223 32.19911111 19.22844445 73.38666667 32.768 119.01155556 37.09155555 110.02311111 10.46755555 203.88977778-36.864 209.57866666-105.58577778s-78.848-132.77866667-188.87111111-143.24622222z" fill="#ff9500" p-id="10446"></path><path d="M5.91644445 491.52l1.13777777 35.27111111c2.50311111 77.02755555 29.80977778 152.00711111 79.18933333 216.63288889 47.33155555 62.00888889 113.32266667 112.86755555 191.0328889 147.11466667 17.29422222 7.62311111 37.43288889-0.22755555 44.94222222-17.52177778 7.62311111-17.29422222-0.22755555-37.43288889-17.52177778-44.94222222-67.12888889-29.58222222-123.904-73.15911111-164.29511111-126.06577778-32.99555555-43.23555555-54.04444445-91.81866667-61.89511111-142.22222222h867.66933333c-7.96444445 50.97244445-29.35466667 100.01066667-63.03288889 143.70133333-41.07377778 53.248-98.75911111 96.93866667-167.02577778 126.17955555-17.29422222 7.39555555-25.25866667 27.53422222-17.86311111 44.82844445 5.57511111 12.97066667 18.09066667 20.70755555 31.40266667 20.70755555 4.55111111 0 9.10222222-0.91022222 13.42577778-2.73066666 164.40888889-70.76977778 269.65333333-210.83022222 274.54577778-365.68177778l1.13777777-35.27111111H5.91644445z" fill="#9a9a9a" p-id="10447"></path><path d="M602.90844445 839.79377778h-180.90666667c-40.04977778 0-72.93155555 32.768-72.93155556 72.93155555s32.768 72.93155555 72.93155556 72.93155556h180.90666667c40.04977778 0 72.93155555-32.768 72.93155555-72.93155556s-32.88177778-72.93155555-72.93155555-72.93155555z m0 77.48266667h-180.90666667c-2.38933333 0-4.66488889-2.27555555-4.66488889-4.6648889s2.27555555-4.66488889 4.66488889-4.66488888h180.90666667c2.38933333 0 4.66488889 2.27555555 4.66488888 4.66488888s-2.27555555 4.66488889-4.66488888 4.6648889z" fill="#9a9a9a" p-id="10448"></path><path d="M496.18488889 354.41777778c-10.92266667-15.36-32.31288889-18.88711111-47.67288889-7.85066667-15.36 10.92266667-18.88711111 32.31288889-7.85066667 47.67288889 12.288 17.18044445 18.88711111 37.54666667 18.88711112 58.82311111 0 18.88711111 15.24622222 34.13333333 34.13333333 34.13333334s34.13333333-15.24622222 34.13333333-34.13333334c0-35.72622222-10.92266667-69.85955555-31.63022222-98.64533333zM421.43288889 295.59466667c-20.13866667-8.07822222-41.30133333-12.17422222-63.14666667-12.17422222-93.52533333 0-169.52888889 76.00355555-169.52888889 169.52888888 0 18.88711111 15.24622222 34.13333333 34.13333334 34.13333334s34.13333333-15.24622222 34.13333333-34.13333334c0-55.86488889 45.39733333-101.26222222 101.26222222-101.26222222 13.08444445 0 25.71377778 2.38933333 37.66044445 7.28177778 17.52177778 7.05422222 37.31911111-1.47911111 44.37333333-19.00088889 7.05422222-17.52177778-1.36533333-37.43288889-18.88711111-44.37333333z" fill="#ff9500" p-id="10449"></path><path d="M554.55288889 242.00533333c-53.13422222-51.88266667-122.53866667-80.55466667-195.47022222-80.55466666-72.93155555 0-142.336 28.55822222-195.47022222 80.55466666-52.45155555 51.31377778-84.19555555 120.60444445-89.42933334 195.01511112-1.36533333 18.77333333 12.85688889 35.15733333 31.63022222 36.40888888 18.77333333 1.25155555 35.15733333-12.85688889 36.40888889-31.63022222 3.98222222-57.79911111 28.55822222-111.38844445 69.06311111-150.98311111 40.27733333-39.36711111 92.72888889-61.09866667 147.79733334-61.09866667 54.95466667 0 107.52 21.73155555 147.79733333 61.09866667 40.50488889 39.59466667 64.96711111 93.184 69.06311111 150.98311111 1.25155555 17.97688889 16.27022222 31.744 34.01955556 31.744 0.79644445 0 1.59288889 0 2.38933333-0.11377778 18.77333333-1.36533333 32.99555555-17.63555555 31.63022222-36.40888888-5.23377778-74.41066667-36.97777778-143.70133333-89.42933333-195.01511112zM947.88266667 368.52622222c-13.08444445-22.07288889-31.51644445-41.64266667-54.72711112-58.25422222l61.32622223-66.33244445c12.74311111-13.88088889 11.94666667-35.49866667-1.93422223-48.24177777s-35.49866667-11.94666667-48.24177777 1.93422222l-73.95555556 80.09955555c-5.68888889-2.048-11.49155555-3.98222222-17.408-5.68888888l93.75288889-181.13422222c8.64711111-16.72533333 2.16177778-37.31911111-14.67733333-45.96622223-16.72533333-8.64711111-37.31911111-2.16177778-45.96622223 14.67733333l-103.76533333 200.59022223c-6.25777778-0.34133333-12.62933333-0.56888889-19.00088889-0.56888889-24.91733333 0-49.49333333 2.73066667-73.15911111 8.192-18.31822222 4.20977778-29.80977778 22.528-25.6 40.96 4.20977778 18.31822222 22.528 29.80977778 40.96 25.6 18.54577778-4.32355555 38.00177778-6.48533333 57.68533333-6.48533334 49.60711111 0 95.80088889 13.42577778 130.048 37.888 30.83377778 21.95911111 47.78666667 50.06222222 47.78666667 79.07555556 0 18.88711111 15.24622222 34.13333333 34.13333333 34.13333334s34.13333333-15.24622222 34.13333334-34.13333334c0-26.73777778-7.168-52.45155555-21.39022222-76.34488889z" fill="#25b506" p-id="10450"></path></svg>