<?xml version="1.0" standalone="no"?><!DOCTYPE svg PUBLIC "-//W3C//DTD SVG 1.1//EN" "http://www.w3.org/Graphics/SVG/1.1/DTD/svg11.dtd"><svg t="1570008333599" class="icon" viewBox="0 0 1024 1024" version="1.1" xmlns="http://www.w3.org/2000/svg" p-id="2868" xmlns:xlink="http://www.w3.org/1999/xlink" width="200" height="200"><defs><style type="text/css"></style></defs><path d="M136.50933584 137.92331683h81.8534823v81.85348231h-81.8534823v-81.85348231z" fill="" p-id="2869"></path><path d="M365.57425829-9.28812332h-376.43239762v376.43239761h147.36747517v65.51399286h81.8534823v-65.51399286h147.36747515v-81.8534823h65.51399285v-65.51399285h-65.51399285l-0.15741584-229.06492246zM283.87819182 285.29217283h-212.88284883v-212.725433h212.72543298v212.725433h0.15741585zM136.50933584 809.09342644h81.8534823v81.85348231h-81.8534823v-81.85348231zM807.52202959 137.92331683h81.8534823v81.85348231h-81.8534823v-81.85348231zM512.94311427 507.91547284v88.29510476h81.85348232v-81.69744731h65.51399285v-81.85348229h-65.51399285v-65.51399285h-81.85348232v140.76981769zM512.94311427 807.20857872v83.73833003h81.85348232v-147.36747516h65.51399285v-81.8534823h-147.36747517v145.48262743zM594.79659659 890.94690875h65.51399285v65.51399285h-65.51399285v-65.51399285zM431.08963197 956.4609016v81.6974473h163.70834546v-81.6974473h-163.70834546z" fill="" p-id="2870"></path><path d="M742.1654526 743.57943359h-81.85348232v147.36747516h147.21144015v-81.85348231h-65.35657699v-65.51399285zM807.52202959 1038.1583489h229.2223383v-81.6974473h-147.36747515v-65.51399285h-81.85348231v147.21144015zM1036.74436789 514.51451114v-81.85348231h-147.36747515v81.85348231h147.36747515zM954.88950475 809.09342644h81.85348231v81.85348231h-81.85348231v-81.85348231zM431.08963197 285.29217283h81.8534823v81.85348232h-81.8534823v-81.85348232zM807.52202959 432.659648v-65.51399285h229.2223383v-376.43239762h-376.43239761v81.8534823h-147.36747515v65.51399286h147.36747515v81.69744729h-65.51399285v65.51399285h65.51399285v81.85348232h81.85348232v65.51399285h65.35657699zM742.1654526 72.56535899h212.72543299v212.725433h-212.72543299v-212.725433zM742.1654526 596.2105776h65.35657699v65.51399285h-65.35657699v-65.51399285zM889.37551189 743.57943359h-81.8534823v65.51399285h147.36747516v-147.36747515h81.85348231v-65.51399286h-147.36747517v147.36747516zM431.08963197 137.92331683h81.8534823v81.85348231h-81.8534823v-81.85348231zM218.36281814 514.51451114h65.51399285v81.69744729h-65.51399285v-81.69744729zM431.08963197 432.659648h-147.21144015v81.85348229h81.69744732v81.69744731h65.51399283v-163.5509296z" fill="" p-id="2871"></path><path d="M365.57425829 890.94690875v-147.36747516h65.51399284v-81.8534823h-294.57891529v-147.21144015h-147.36747517v81.85348232h81.85348232v65.51399283h-81.85348232v376.43239761h376.43239762v-81.8534823h65.51399284v-65.51399285h-65.51399284zM283.87819182 956.4609016h-212.88284883v-212.88284885h212.72543298v212.88284885h0.15741585zM431.08963197 596.2105776h81.8534823v65.51399285h-81.8534823v-65.51399285zM660.31058944 514.51451114h81.8534823v81.69744729h-81.8534823v-81.69744729zM807.52202959 514.51451114h81.8534823v81.69744729h-81.8534823v-81.69744729z" fill="" p-id="2872"></path></svg>