<svg viewBox="0 0 1024 1024" xmlns="http://www.w3.org/2000/svg" width="200" height="200"><path d="M136.51 137.923h81.853v81.854h-81.854v-81.854z"/><path d="M365.574-9.288H-10.858v376.432h147.367v65.514h81.854v-65.514H365.73v-81.853h65.514v-65.514H365.73l-.157-229.065zm-81.696 294.58H70.995V72.567h212.726v212.725h.157zM136.51 809.093h81.854v81.854H136.51v-81.854zm671.013-671.17h81.854v81.854h-81.854v-81.854zm-294.58 369.992v88.296h81.854v-81.698h65.514V432.66h-65.514v-65.514h-81.854v140.77zm0 299.294v83.738h81.854V743.579h65.514v-81.853H512.943v145.483zm81.854 83.738h65.514v65.514h-65.514v-65.514zM431.09 956.46v81.697h163.708V956.46H431.09z"/><path d="M742.165 743.58h-81.853v147.367h147.211v-81.854h-65.356V743.58zm65.357 294.578h229.222v-81.697H889.377v-65.514h-81.854v147.211zm229.222-523.643V432.66H889.377v81.854h147.367zM954.89 809.093h81.853v81.854H954.89v-81.854zm-523.8-523.8h81.853v81.853H431.09v-81.854zM807.522 432.66v-65.514h229.222V-9.287H660.312v81.854H512.944v65.514h147.368v81.697h-65.514v65.514h65.514v81.854h81.853v65.514h65.357zM742.165 72.565h212.726v212.726H742.165V72.565zm0 523.646h65.357v65.514h-65.357V596.21zm147.21 147.368h-81.853v65.514H954.89V661.726h81.853v-65.514H889.376v147.367zM431.09 137.923h81.853v81.854H431.09v-81.854zM218.363 514.515h65.514v81.697h-65.514v-81.697zM431.09 432.66H283.878v81.853h81.698v81.698h65.514V432.66z"/><path d="M365.574 890.947V743.579h65.514v-81.853H136.51V514.515H-10.858v81.853h81.853v65.514h-81.853v376.432h376.432v-81.853h65.514v-65.514h-65.514zm-81.696 65.514H70.995V743.578h212.726v212.883h.157zM431.09 596.21h81.853v65.514H431.09V596.21zm229.22-81.696h81.854v81.697h-81.853v-81.697zm147.212 0h81.854v81.697h-81.854v-81.697z"/></svg>