<svg viewBox="0 0 1043 1024" xmlns="http://www.w3.org/2000/svg" width="203.711" height="200"><path d="m113.118 456.803 25.264-94.242c7.7-31.296 37.221-46.482 53.011-71.781 55.885-49.853 125.253-63.869 196.148-74.159 79.906-2.235 125.501-41.23 143.35-122.557 7.096-32.253 3.902-68.623 35.943-91.048 29.522-7.842 55.14.32 78.275 18.912a501.724 501.724 0 0 1 69.794 93.603l24.057 92.042c-3.797 17.741 8.303 24.164 21.502 28.99 44.14 16.108 77.707 46.872 110.458 78.842a576.06 576.06 0 0 1 53.756 109.108c-1.313 39.457 12.028 69.901 40.876 99.92 146.578 152.574 77.494 392.01-133.592 459.64-137.602 44.105-280.667 44.709-423.52 34.56-66.778-4.754-133.38-12.56-198.277-30.053C-.639 931.808-70.149 679.88 81.965 522.73c18.45-19.126 36.937-36.264 31.153-65.927zm485.65-394.815c-20.65 147.82-104.318 212.328-229.394 219.176C242.275 288.26 176.242 365.15 171.7 494.059c-.603 17.387 0 31.935-17.528 44.389-82.923 59.895-112.054 141.753-87.145 240.217 25.05 99.032 97.328 144.45 193.025 161.907a1404.045 1404.045 0 0 0 431.645 13.2c39.031-4.968 78.878-10.823 116.064-23.1 86.293-28.386 153.746-80.545 172.126-174.787 17.74-91.155-14.62-166.342-89.949-220.56-19.657-14.193-17.386-30.62-18.309-49.25-5.074-104.14-64.649-180.5-165.207-203.776-28.918-6.706-29.557-19.018-28.705-41.763 2.59-68.765-20.509-127.382-78.949-178.548z" fill="#72420D"/><path d="M598.768 61.988c58.44 51.166 81.61 109.748 78.914 178.69-.852 22.745-.213 35.093 28.705 41.763 100.558 23.277 160.097 99.6 165.207 203.777.922 18.593-1.349 35.092 18.309 49.25 75.33 54.217 107.76 129.404 89.948 220.56-18.273 94.276-85.69 146.294-172.126 174.786-37.186 12.277-76.961 18.132-116.063 23.1a1404.045 1404.045 0 0 1-431.646-13.2c-95.803-17.458-167.974-62.875-193.025-161.907-24.838-98.464 4.223-180.323 87.145-240.217 17.493-12.632 16.925-27.002 17.529-44.389 4.506-129.085 70.574-206.118 197.673-212.895 125.112-6.955 208.78-71.498 229.43-219.318zm-99.706 761.491c58.298-2.91 105.667-26.115 139.376-74.832 10.36-14.938 15.754-33.993 39.492-36.086 15.612-1.384 28.812-20.544 17.741-28.209-25.37-17.457-55.778-28.599-85.477-38.25-12.49-4.045-20.758 8.942-21.041 22.993a11.07 11.07 0 0 0 1.241 4.932c21.29 42.579-12.596 59.61-39.03 75.968-46.128 28.812-93.284 17.741-141.93-30.444-14.868-14.76-29.912-27.18-48.221-11.532s-8.907 34.24 3.548 49.995c34.63 42.863 79.836 63.656 134.301 65.5zM354.435 515.846c0 8.586.213 17.173 0 25.76-.993 32.431 4.542 59.185 46.128 58.014 39.563-1.136 41.55-27.57 40.414-57.34a432.639 432.639 0 0 1 13.555-127.737c6.493-24.448 6.6-45.808-22.07-53.401s-49.676 2.058-59.54 32.927a401.556 401.556 0 0 0-18.487 121.777zm312.85-75.259c-10.467-30.018-25.725-43.644-48.185-26.718-23.064 17.386-42.58 39.74-62.45 61.03a27.144 27.144 0 0 0-1.028 37.86c19.409 21.715 39.03 43.998 62.2 61.349 20.687 15.506 52.302 1.17 43.963-17.528-19.55-44.105-53.365-81.93 5.465-115.993z" fill="#FCFBFA"/><path d="M499.062 823.444c-54.465-1.774-99.67-22.567-134.017-65.394-12.632-15.755-22.07-34.312-3.549-49.995s33.354-3.23 48.221 11.531c48.611 48.292 95.803 59.256 141.93 30.445 26.293-16.358 60.108-33.319 39.031-75.969a11.07 11.07 0 0 1-1.242-4.932c.284-14.193 8.552-27.037 21.042-22.992 29.699 9.65 60.107 20.792 85.477 38.25 11.106 7.664-2.058 26.825-17.741 28.208-23.738 2.094-29.167 21.29-39.492 36.086-33.993 48.718-81.362 71.923-139.66 74.762z" fill="#FEA623"/><path d="M354.435 515.846a401.556 401.556 0 0 1 18.487-121.67c9.828-30.87 30.728-40.557 59.54-32.928s28.563 28.954 22.07 53.401a432.639 432.639 0 0 0-13.555 127.738c1.1 29.77-.887 56.204-40.414 57.34-41.657 1.17-47.157-25.584-46.128-58.015.39-8.693 0-17.28 0-25.866z" fill="#704111"/><path d="M667.25 440.587c-58.83 34.063-25.157 71.888-5.536 115.957 8.339 18.7-23.276 33.07-43.962 17.528-23.1-17.315-42.792-39.634-62.201-61.349a27.144 27.144 0 0 1 1.029-37.86c19.87-21.29 39.385-43.679 62.449-61.03 22.496-16.89 37.789-3.264 48.22 26.754z" fill="#734517"/></svg>