<svg viewBox="0 0 1024 1024" xmlns="http://www.w3.org/2000/svg" width="200" height="200"><path d="M512 0C229.376 0 0 229.376 0 512s229.376 512 512 512 512-229.376 512-512S794.624 0 512 0z" fill="#FFF"/><path d="M512 0C229.376 0 0 229.376 0 512s229.376 512 512 512 512-229.376 512-512S794.624 0 512 0zm204.8 496.64H542.72v87.04h138.24c18.432 0 33.28 14.848 33.28 33.28s-14.848 33.28-33.28 33.28H542.72v155.136c0 18.432-14.848 33.28-33.28 33.28s-33.28-14.848-33.28-33.28V650.24H343.04c-18.432 0-33.28-14.848-33.28-33.28s14.848-33.28 33.28-33.28h133.12v-87.04H307.2c-18.432 0-33.28-14.848-33.28-33.28s14.848-33.28 33.28-33.28h133.12L296.96 275.968c-12.8-13.824-11.776-34.816 2.048-47.616 13.824-12.8 35.328-11.776 48.128 2.048l162.816 176.64L672.256 230.4c12.8-13.824 34.304-14.848 48.128-2.048s14.848 33.28 2.048 47.616L579.584 430.08H716.8c18.432 0 33.28 14.848 33.28 33.28s-15.36 33.28-33.28 33.28z" fill="#E6726D"/></svg>