<?xml version="1.0" standalone="no"?><!DOCTYPE svg PUBLIC "-//W3C//DTD SVG 1.1//EN" "http://www.w3.org/Graphics/SVG/1.1/DTD/svg11.dtd"><svg t="1566599756990" class="icon" viewBox="0 0 1024 1024" version="1.1" xmlns="http://www.w3.org/2000/svg" p-id="2685" xmlns:xlink="http://www.w3.org/1999/xlink" width="200" height="200"><defs><style type="text/css"></style></defs><path d="M512 0C229.376 0 0 229.376 0 512s229.376 512 512 512 512-229.376 512-512S794.624 0 512 0z" fill="#FFFFFF" p-id="2686"></path><path d="M512 0C229.376 0 0 229.376 0 512s229.376 512 512 512 512-229.376 512-512S794.624 0 512 0z m204.8 496.64h-174.08v87.04h138.24c18.432 0 33.28 14.848 33.28 33.28s-14.848 33.28-33.28 33.28h-138.24v155.136c0 18.432-14.848 33.28-33.28 33.28s-33.28-14.848-33.28-33.28V650.24H343.04c-18.432 0-33.28-14.848-33.28-33.28s14.848-33.28 33.28-33.28h133.12V496.64H307.2c-18.432 0-33.28-14.848-33.28-33.28S288.768 430.08 307.2 430.08h133.12L296.96 275.968c-12.8-13.824-11.776-34.816 2.048-47.616 13.824-12.8 35.328-11.776 48.128 2.048l162.816 176.64L672.256 230.4c12.8-13.824 34.304-14.848 48.128-2.048s14.848 33.28 2.048 47.616L579.584 430.08H716.8c18.432 0 33.28 14.848 33.28 33.28s-15.36 33.28-33.28 33.28z" fill="#E6726D" p-id="2687"></path></svg>