<?xml version="1.0" standalone="no"?><!DOCTYPE svg PUBLIC "-//W3C//DTD SVG 1.1//EN" "http://www.w3.org/Graphics/SVG/1.1/DTD/svg11.dtd"><svg t="1566276076134" class="icon" viewBox="0 0 1024 1024" version="1.1" xmlns="http://www.w3.org/2000/svg" p-id="17735" xmlns:xlink="http://www.w3.org/1999/xlink" width="200" height="200"><defs><style type="text/css"></style></defs><path d="M772.608 923.818667a11.093333 11.093333 0 0 1 11.008 11.093333v77.909333a11.093333 11.093333 0 0 1-11.008 11.093334h-76.8a11.093333 11.093333 0 0 1-11.008-11.093334v-77.909333a11.093333 11.093333 0 0 1 11.008-11.093333h76.8z m-455.338667 0h-76.8a11.093333 11.093333 0 0 0-11.008 11.093333v77.909333c0 6.144 4.949333 11.093333 11.008 11.093334h76.8a11.093333 11.093333 0 0 0 11.008-11.093334v-77.909333a11.093333 11.093333 0 0 0-11.008-11.093333z m227.669334 0h-76.8a11.093333 11.093333 0 0 0-11.008 11.093333v77.909333c0 6.144 4.949333 11.093333 11.008 11.093334h76.8a11.093333 11.093333 0 0 0 11.008-11.093334v-77.909333a11.264 11.264 0 0 0-11.008-11.093333zM772.608 0h-76.8a11.093333 11.093333 0 0 0-11.008 11.093333v77.909334c0 6.144 4.949333 11.093333 11.008 11.093333h76.8a11.093333 11.093333 0 0 0 11.008-11.093333V11.093333A11.264 11.264 0 0 0 772.608 0zM544.938667 0h-76.8a11.093333 11.093333 0 0 0-11.008 11.093333v77.909334c0 6.144 4.949333 11.093333 11.008 11.093333h76.8a11.093333 11.093333 0 0 0 11.008-11.093333V11.093333A11.264 11.264 0 0 0 544.938667 0z m471.893333 0.085333h-126.293333c-4.266667 0-6.826667 5.12-6.826667 11.093334v1001.813333c0 5.973333 2.56 11.093333 6.826667 11.093333h126.293333c4.266667 0 6.826667-5.12 6.826667-11.093333V11.178667c0.085333-5.973333-2.474667-11.093333-6.826667-11.093334z m-13.568 597.333334c0 5.973333-5.12 11.093333-11.093333 11.093333h-76.8c-5.973333 0-11.093333-5.12-11.093334-11.093333v-349.013334c0-5.973333 5.12-11.093333 11.093334-11.093333h76.8c5.973333 0 11.093333 5.12 11.093333 11.093333v349.013334zM317.269333 0h-76.8a11.093333 11.093333 0 0 0-11.008 11.093333v77.909334c0 6.144 4.949333 11.093333 11.008 11.093333h76.8a11.093333 11.093333 0 0 0 11.008-11.093333V11.093333A11.093333 11.093333 0 0 0 317.269333 0zM87.808 461.909333h-76.8a11.093333 11.093333 0 0 0-11.008 11.093334v77.909333c0 6.144 4.949333 11.093333 11.008 11.093333h76.8a11.093333 11.093333 0 0 0 11.008-11.093333v-77.909333a11.264 11.264 0 0 0-11.008-11.093334z m0 461.909334h-76.8a11.093333 11.093333 0 0 0-11.008 11.178666v77.909334c0 6.058667 4.949333 11.093333 11.008 11.093333h76.8a11.093333 11.093333 0 0 0 11.008-11.093333v-77.909334a11.264 11.264 0 0 0-11.008-11.178666z m0-230.912h-76.8A11.093333 11.093333 0 0 0 0 704v77.909333c0 6.144 4.949333 11.093333 11.008 11.093334h76.8a11.093333 11.093333 0 0 0 11.008-11.093334V704a11.093333 11.093333 0 0 0-11.008-11.093333z m0-461.909334h-76.8a11.093333 11.093333 0 0 0-11.008 11.093334v77.909333c0 6.144 4.949333 11.093333 11.008 11.093333h76.8a11.093333 11.093333 0 0 0 11.008-11.093333v-77.909333a11.093333 11.093333 0 0 0-11.008-11.093334z m0-230.997333h-76.8A11.093333 11.093333 0 0 0 0 11.093333v77.909334c0 6.144 4.949333 11.093333 11.008 11.093333h76.8a11.093333 11.093333 0 0 0 11.008-11.093333V11.093333A11.264 11.264 0 0 0 87.808 0z m513.962667 692.906667H240.469333a11.093333 11.093333 0 0 0-11.008 11.093333v77.909333c0 6.144 4.949333 11.093333 11.008 11.093334h361.301334a11.093333 11.093333 0 0 0 11.008-11.093334V704a11.093333 11.093333 0 0 0-11.008-11.093333z m170.837333-461.909334H240.469333a11.093333 11.093333 0 0 0-11.008 11.093334v77.909333c0 6.144 4.949333 11.093333 11.008 11.093333h532.138667a11.093333 11.093333 0 0 0 11.008-11.093333v-77.909333a11.093333 11.093333 0 0 0-11.008-11.093334z m0 230.912H240.469333a11.093333 11.093333 0 0 0-11.008 11.093334v77.909333c0 6.144 4.949333 11.093333 11.008 11.093333h532.138667a11.093333 11.093333 0 0 0 11.008-11.093333v-77.909333a11.264 11.264 0 0 0-11.008-11.093334z" fill="#7D8198" p-id="17736"></path></svg>