<?xml version="1.0" standalone="no"?><!DOCTYPE svg PUBLIC "-//W3C//DTD SVG 1.1//EN" "http://www.w3.org/Graphics/SVG/1.1/DTD/svg11.dtd"><svg t="1610629857862" class="icon" viewBox="0 0 1024 1024" version="1.1" xmlns="http://www.w3.org/2000/svg" p-id="83663" xmlns:xlink="http://www.w3.org/1999/xlink" width="200" height="200"><defs><style type="text/css"></style></defs><path d="M197.341 853.333h685.195c22.25-2.275 19.975 4.551 19.975-19.974v-55.625c0-31.099-6.574-37.926-37.926-37.926H731.338a98.607 98.607 0 0 1-25.284-35.65c-77.874-86.724-33.374-144.624 15.676-224.774a202.272 202.272 0 0 0 25.284-35.65 241.462 241.462 0 0 0 31.1-120.1 251.322 251.322 0 1 0-502.645 0 247.024 247.024 0 0 0 53.349 153.474c53.349 84.449 140.073 153.474 0 262.448h-133.5a34.133 34.133 0 0 0-37.925 37.925v56.89c0 22.25 15.676 17.698 39.948 17.698z m742.843 37.926H119.72a19.974 19.974 0 0 0-19.975 19.975v19.974a19.974 19.974 0 0 0 19.975 19.974H938.16a19.974 19.974 0 0 0 19.974-19.974v-20.986a19.721 19.721 0 0 0-17.698-19.974z m0 0" fill="#365DA3" p-id="83664"></path></svg>