<?xml version="1.0" standalone="no"?><!DOCTYPE svg PUBLIC "-//W3C//DTD SVG 1.1//EN" "http://www.w3.org/Graphics/SVG/1.1/DTD/svg11.dtd"><svg t="1570011161325" class="icon" viewBox="0 0 1024 1024" version="1.1" xmlns="http://www.w3.org/2000/svg" p-id="8623" xmlns:xlink="http://www.w3.org/1999/xlink" width="200" height="200"><defs><style type="text/css"></style></defs><path d="M509.9776 585.1392c-27.8528 0-55.5264-8.9856-78.592-26.8544L37.7344 225.152C19.7632 209.9712 17.5616 182.9888 32.7424 165.12c15.1808-17.9712 42.1376-20.1728 60.0064-4.992l392.2432 331.9296c14.3872 11.0848 36.4544 11.0848 52.3264-1.2032L932.9664 159.9232c18.0736-15.0784 44.928-12.7744 60.0064 5.4016 15.0784 18.0736 12.672 44.928-5.4016 60.0064L590.6432 557.2608c-24.064 18.688-52.5056 27.8784-80.6656 27.8784z m0 0" fill="#FF5000" p-id="8624"></path><path d="M894.9248 917.0688H130.6112C59.392 917.0688 1.3824 859.136 1.3824 787.84V236.6208c0-71.1936 57.9072-129.2288 129.2288-129.2288h764.3136c71.1936 0 129.2032 57.9072 129.2032 129.2288v551.3216c0 71.1936-58.0096 129.1264-129.2032 129.1264zM130.6112 192.6912c-24.2688 0-43.9296 19.7632-43.9296 43.9296v551.3216c0 24.2688 19.7632 43.9296 43.9296 43.9296h764.3136c24.2688 0 43.9296-19.7632 43.9296-43.9296V236.6208c0-24.2688-19.7632-43.9296-43.9296-43.9296H130.6112z m0 0" fill="#FF9F57" p-id="8625"></path></svg>