<?xml version="1.0" standalone="no"?><!DOCTYPE svg PUBLIC "-//W3C//DTD SVG 1.1//EN" "http://www.w3.org/Graphics/SVG/1.1/DTD/svg11.dtd"><svg t="1566272502180" class="icon" viewBox="0 0 1024 1024" version="1.1" xmlns="http://www.w3.org/2000/svg" p-id="33632" xmlns:xlink="http://www.w3.org/1999/xlink" width="200" height="200"><defs><style type="text/css"></style></defs><path d="M 512.1 589 c -14.3 0 -25.9 11.6 -25.9 25.9 c 0 14.3 11.6 25.9 25.9 25.9 c 14.3 0 25.9 -11.6 25.9 -25.9 c 0 -14.3 -11.6 -25.9 -25.9 -25.9 Z" fill="#2dd615" p-id="33633"></path><path d="M 949.7 881 c 46.3 -76 73.4 -165.1 74.4 -260.4 c 3 -282.5 -228.6 -517.2 -511.1 -517.7 c -283.2 -0.6 -513 228.9 -513 512 c 0 97.5 27.3 188.6 74.6 266.2 c 15.6 25.6 43.5 41.2 73.5 41.2 h 728.1 c 30 0 57.9 -15.6 73.5 -41.3 Z M 699 404.5 L 575.3 569.9 c 9.5 13.1 14.6 28.9 14.6 45.1 c 0 43 -34.8 77.8 -77.8 77.8 S 434.3 658 434.3 615 s 34.8 -77.8 77.8 -77.8 c 7 0.1 13.9 1.1 20.5 3.1 l 0.1 -0.1 l 125 -167 c 4.1 -5.5 10.3 -9.2 17.1 -10.2 c 6.8 -1 13.7 0.8 19.2 5 s 9.2 10.4 10.1 17.2 c 1 6.8 -0.9 13.8 -5.1 19.3 Z M 86.2 435 c 23.3 -55 56.6 -104.5 99 -146.9 c 42.4 -42.4 91.9 -75.8 146.9 -99 c 57 -24.1 117.5 -36.3 179.9 -36.3 s 123 12.2 180 36.3 c 55 23.3 104.5 56.6 146.9 99 c 42.4 42.4 75.8 91.9 99 146.9 c 24.1 57 36.3 117.5 36.3 179.9 c 0 32.3 -3.3 64 -9.8 95 h -49.3 c 7.2 -30.5 11 -62.3 11 -95 c 0 -228.3 -185.8 -414.1 -414.1 -414.1 c -228.2 0 -414 185.8 -414 414.1 c 0 32.7 3.8 64.5 11 95 H 59.7 c -6.5 -31 -9.8 -62.8 -9.8 -95 c 0 -62.3 12.2 -122.9 36.3 -179.9 Z" fill="#1afa29" p-id="33634"></path></svg>