<svg viewBox="0 0 1024 1024" xmlns="http://www.w3.org/2000/svg" width="200" height="200"><path d="M512.1 589c-14.3 0-25.9 11.6-25.9 25.9 0 14.3 11.6 25.9 25.9 25.9 14.3 0 25.9-11.6 25.9-25.9 0-14.3-11.6-25.9-25.9-25.9z" fill="#2dd615"/><path d="M949.7 881c46.3-76 73.4-165.1 74.4-260.4 3-282.5-228.6-517.2-511.1-517.7-283.2-.6-513 228.9-513 512 0 97.5 27.3 188.6 74.6 266.2 15.6 25.6 43.5 41.2 73.5 41.2h728.1c30 0 57.9-15.6 73.5-41.3zM699 404.5 575.3 569.9c9.5 13.1 14.6 28.9 14.6 45.1 0 43-34.8 77.8-77.8 77.8S434.3 658 434.3 615s34.8-77.8 77.8-77.8c7 .1 13.9 1.1 20.5 3.1l.1-.1 125-167c4.1-5.5 10.3-9.2 17.1-10.2 6.8-1 13.7.8 19.2 5s9.2 10.4 10.1 17.2c1 6.8-.9 13.8-5.1 19.3zM86.2 435c23.3-55 56.6-104.5 99-146.9 42.4-42.4 91.9-75.8 146.9-99 57-24.1 117.5-36.3 179.9-36.3s123 12.2 180 36.3c55 23.3 104.5 56.6 146.9 99 42.4 42.4 75.8 91.9 99 146.9 24.1 57 36.3 117.5 36.3 179.9 0 32.3-3.3 64-9.8 95h-49.3c7.2-30.5 11-62.3 11-95 0-228.3-185.8-414.1-414.1-414.1-228.2 0-414 185.8-414 414.1 0 32.7 3.8 64.5 11 95H59.7c-6.5-31-9.8-62.8-9.8-95 0-62.3 12.2-122.9 36.3-179.9z" fill="#1afa29"/></svg>