<?xml version="1.0" standalone="no"?><!DOCTYPE svg PUBLIC "-//W3C//DTD SVG 1.1//EN" "http://www.w3.org/Graphics/SVG/1.1/DTD/svg11.dtd"><svg t="1591885351366" class="icon" viewBox="0 0 1024 1024" version="1.1" xmlns="http://www.w3.org/2000/svg" p-id="19993" xmlns:xlink="http://www.w3.org/1999/xlink" width="200" height="200"><defs><style type="text/css"></style></defs><path d="M448 352c229.696 0 416-62.08 416-160S677.696 32 448 32 32 94.08 32 192 218.304 352 448 352z m0-64c-99.968 0-193.344-13.184-261.44-35.84C126.912 232.32 96 207.872 96 192s30.912-40.32 90.56-60.16C254.72 109.184 348.032 96 448 96c99.968 0 193.344 13.184 261.44 35.84 59.648 19.84 90.56 44.288 90.56 60.16s-30.912 40.32-90.56 60.16C641.28 274.816 547.968 288 448 288z" fill="#efb336" p-id="19994"></path><path d="M64 160a32 32 0 0 1 31.488 26.24L96 192v192c0 15.872 30.912 40.32 90.56 60.16 6.784 2.24 13.76 4.416 20.992 6.4a128.064 128.064 0 0 0-15.104 50.432L192 512v1.024c-37.76-10.688-70.4-23.936-96-39.488V576c0 15.872 30.912 40.32 90.56 60.16L192 637.824v67.136c-37.76-10.624-70.336-23.872-96-39.424V832c0 15.872 30.912 40.32 90.56 60.16 68.096 22.656 161.472 35.84 261.44 35.84 99.968 0 193.344-13.184 261.44-35.84 55.68-18.56 86.336-41.024 90.176-56.896L800 832h64v28.8a32 32 0 0 1-32 32l5.312-0.448C777.984 954.688 625.984 992 448 992s-329.984-37.312-389.312-99.648a32 32 0 0 1-26.176-25.728L32 860.8V192a32 32 0 0 1 32-32z m736 32a32 32 0 0 1 63.488-5.76L864 192v192a32 32 0 1 1-64 0V192z" fill="#efb336" p-id="19995"></path><path d="M256 672.576l61.248-12.48c4.992 38.336 25.856 57.472 62.528 57.472 27.52-0.832 42.048-12.096 43.712-33.728 0.832-15.04-8.768-26.688-28.736-35.008a307.456 307.456 0 0 0-55.04-14.976c-50.816-10.88-75.392-37.504-73.728-80 4.992-45.888 38.784-70.4 101.248-73.792 65.856-1.664 104.192 24.192 115.008 77.504l-61.248 11.264c-4.16-26.688-21.248-40-51.2-40-24.192 0.832-37.12 9.6-38.784 26.24-1.664 14.976 14.592 26.24 48.768 33.728 26.624 5.888 48.32 13.376 64.96 22.528 29.184 16.64 44.16 40 44.992 70.016-2.496 53.312-38.72 80.832-108.736 82.496-70.016 0.832-111.68-29.568-124.992-91.264z m431.552 84.992l65.024 62.528-68.8 19.968-59.968-77.44c-76.672-12.544-116.672-59.2-120-140.032 4.16-90.88 50.432-138.368 138.752-142.528 84.16 4.992 129.152 52.48 135.04 142.528-1.728 69.12-31.744 114.176-90.048 135.04z m22.528-135.04c-1.728-57.472-25.024-87.424-70.016-89.984-44.992 3.392-68.736 33.344-71.296 90.048 1.728 56.64 25.472 86.656 71.296 89.984 44.992-1.664 68.288-31.68 70.016-89.984z m296.512 136.32h-203.712V483.84h62.464v226.24h141.248v48.768z" fill="#efb336" p-id="19996"></path></svg>