<?xml version="1.0" standalone="no"?><!DOCTYPE svg PUBLIC "-//W3C//DTD SVG 1.1//EN" "http://www.w3.org/Graphics/SVG/1.1/DTD/svg11.dtd"><svg t="1612683272347" class="icon" viewBox="0 0 1024 1024" version="1.1" xmlns="http://www.w3.org/2000/svg" p-id="5678" xmlns:xlink="http://www.w3.org/1999/xlink" width="200" height="200"><defs><style type="text/css"></style></defs><path d="M912 441.6H864V252.8L678.4 64H252.8c-51.2 0-96 44.8-96 96v281.6H112c-25.6 0-48 22.4-48 48v281.6c0 25.6 22.4 48 48 48H160V864c0 51.2 41.6 92.8 92.8 92.8h518.4c51.2 0 92.8-41.6 92.8-92.8v-48h48c25.6 0 48-22.4 48-48v-281.6c0-22.4-22.4-44.8-48-44.8zM204.8 160c0-25.6 22.4-48 48-48h377.6v92.8c0 51.2 41.6 92.8 92.8 92.8h92.8v140.8H204.8V160z m396.8 588.8c9.6 0 19.2 0 25.6-3.2l9.6 35.2c-9.6 3.2-22.4 6.4-41.6 6.4-48 0-83.2-25.6-99.2-64-51.2-9.6-86.4-54.4-86.4-124.8 0-80 44.8-124.8 108.8-124.8s108.8 44.8 108.8 124.8c0 67.2-32 108.8-80 121.6 12.8 22.4 35.2 28.8 54.4 28.8zM233.6 659.2c16 16 41.6 25.6 60.8 25.6 25.6 0 38.4-9.6 38.4-28.8 0-19.2-16-22.4-35.2-32l-32-12.8c-25.6-9.6-48-28.8-48-64 0-38.4 35.2-70.4 83.2-70.4 28.8 0 57.6 9.6 76.8 32l-25.6 28.8c-16-12.8-32-19.2-51.2-19.2-22.4 0-35.2 9.6-35.2 25.6s16 22.4 38.4 32l32 12.8c28.8 12.8 48 32 48 64 0 38.4-32 73.6-89.6 73.6-32 0-64-12.8-89.6-35.2l28.8-32zM819.2 864c0 25.6-22.4 48-48 48H252.8c-25.6 0-48-22.4-48-48v-48h614.4V864z m3.2-140.8h-147.2v-240h48v201.6h99.2v38.4z" fill="#EA5C87" p-id="5679"></path><path d="M518.4 518.4c-35.2 0-57.6 32-57.6 83.2 0 54.4 22.4 86.4 57.6 86.4s57.6-32 57.6-86.4c3.2-51.2-19.2-83.2-57.6-83.2z" fill="#EA5C87" p-id="5680"></path></svg>