<?xml version="1.0" standalone="no"?><!DOCTYPE svg PUBLIC "-//W3C//DTD SVG 1.1//EN" "http://www.w3.org/Graphics/SVG/1.1/DTD/svg11.dtd"><svg t="1566282058515" class="icon" viewBox="0 0 1024 1024" version="1.1" xmlns="http://www.w3.org/2000/svg" p-id="34656" xmlns:xlink="http://www.w3.org/1999/xlink" width="200" height="200"><defs><style type="text/css"></style></defs><path d="M508.484375 768.55273438c-12.83203125-7.03125-29.44335938-12.83203125-50.00976563-17.31445313-26.27929688-5.80078125-38.75976563-14.4140625-37.52929687-25.92773438 1.31835938-12.83203125 11.16210938-19.51171875 29.79492188-20.21484375 23.02734375 0 36.2109375 10.28320313 39.37499999 30.76171875l47.109375-8.61328125c-8.34960938-41.04492188-37.79296875-60.90820313-88.41796874-59.58984375-48.07617188 2.54882813-74.00390625 21.4453125-77.87109375 56.68945313-1.31835938 32.6953125 17.578125 53.17382813 56.68945312 61.5234375 12.12890625 1.93359375 26.27929688 5.80078125 42.27539063 11.51367188 15.38085938 6.41601563 22.76367188 15.38085938 22.1484375 26.89453124-1.31835938 16.69921875-12.48046875 25.3125-33.66210938 25.92773438-28.21289063 0-44.20898438-14.765625-48.07617187-44.20898438l-47.109375 9.58007813c10.28320313 47.4609375 42.27539063 70.83984375 96.15234375 70.13671875 53.7890625-1.31835938 81.73828125-22.41210938 83.671875-63.45703125-0.61523438-22.93945313-12.12890625-40.86914063-34.54101563-53.70117188zM769.95898438 777.25390625C765.4765625 707.99609375 730.84765625 671.43359375 666.16015625 667.65429688c-67.93945313 3.25195313-103.53515625 39.7265625-106.69921875 109.59960937 2.54882813 62.13867188 33.31054688 98.0859375 92.28515625 107.66601563l46.14257813 59.58984374 52.91015625-15.38085937-50.00976563-48.07617188c44.82421875-16.08398438 67.8515625-50.625 69.16992188-103.79882812z m-105.73242188 69.16992188c-35.24414063-2.54882813-53.52539063-25.6640625-54.75585938-69.25781251 1.93359375-43.59375 20.21484375-66.62109375 54.75585938-69.2578125 34.62890625 1.93359375 52.55859375 24.9609375 53.7890625 69.2578125-1.23046875 44.91210938-19.16015625 67.93945313-53.7890625 69.2578125zM842.99609375 844.49023438v-174.02343751h-48.07617188V882.01953125h156.70898438v-37.52929688z" fill="#178296" p-id="34657"></path><path d="M178.015625 608.6796875V483.34765625c60.46875 33.13476563 163.828125 55.01953125 281.25 55.01953125s220.78125-21.88476563 281.25-55.01953125V601.6484375h56.25V213.171875c0-67.93945313-151.08398438-123.046875-337.5-123.046875S121.765625 145.23242187 121.765625 213.171875v597.65625c0.26367188 49.30664063 80.06835938 91.7578125 195.1171875 111.35742188v-43.33007813c-83.05664063-13.7109375-138.8671875-39.11132813-138.8671875-68.203125V676.79492188c34.27734375 18.80859375 82.265625 33.92578125 138.8671875 43.59374999v-43.33007812C233.82617187 663.171875 178.015625 637.77148438 178.015625 608.6796875z m281.25-114.2578125c-155.30273438 0-281.25-35.41992188-281.25-79.1015625V281.19921875c60.46875 33.13476563 163.828125 55.01953125 281.25 55.01953125s220.78125-21.88476563 281.25-55.01953125V415.3203125c0 43.68164063-125.94726563 79.1015625-281.25 79.1015625z m0-360.3515625c155.30273438 0 281.25 35.41992188 281.25 79.1015625s-125.94726563 79.1015625-281.25 79.1015625-281.25-35.41992188-281.25-79.1015625 125.94726563-79.1015625 281.25-79.1015625z" fill="#178296" p-id="34658"></path></svg>