<?xml version="1.0" standalone="no"?><!DOCTYPE svg PUBLIC "-//W3C//DTD SVG 1.1//EN" "http://www.w3.org/Graphics/SVG/1.1/DTD/svg11.dtd"><svg t="1577327625384" class="icon" viewBox="0 0 1024 1024" version="1.1" xmlns="http://www.w3.org/2000/svg" p-id="5030" xmlns:xlink="http://www.w3.org/1999/xlink" width="200" height="200"><defs><style type="text/css"></style></defs><path d="M909.755733 182.401707l-124.839253-129.71008C757.712213 24.497493 704.075093 1.344853 665.58976 1.344853H246.07744C207.588693 1.344853 176.186027 34.030933 176.186027 73.9328v351.3856H232.106667V73.9328c0-7.901867 6.495573-14.503253 14.0288-14.503253h419.505493c4.12672 0 8.925867 0.549547 13.963947 1.55648v230.765226h222.272853c0.99328 5.249707 1.518933 33.91488 1.518933 38.33856V950.0672c0 7.898453-6.498987 14.493013-14.032213 14.493013H246.07744c-7.611733 0-14.032213-6.724267-14.032213-14.486186v-104.915627H176.110933v104.915627c0 39.963307 31.409493 72.577707 69.894827 72.577706h643.293867c38.498987 0 69.89824-32.6144 69.89824-72.577706V330.16832c0.064853-39.980373-22.217387-119.565653-49.442134-147.766613z m-173.093546 57.442986V94.726827a66.071893 66.071893 0 0 1 9.806506 8.26368l125.44 126.795093a77.1072 77.1072 0 0 1 8.236374 10.059093h-143.48288z" fill="#1e7345" p-id="5031"></path><path d="M824.32 783.36c0 22.62016-18.33984 40.96-40.96 40.96h-696.32c-22.62016 0-40.96-18.33984-40.96-40.96v-300.373333c0-22.62016 18.33984-40.96 40.96-40.96h696.32c22.62016 0 40.96 18.33984 40.96 40.96v300.373333zM260.3008 526.906027c-50.660693 1.327787-76.63616 20.718933-77.94688 58.2144 0 28.289707 23.340373 48.022187 70.05184 59.200853 23.016107 5.2736 34.532693 11.516587 34.532693 18.746027 0 8.557227-8.557227 12.827307-25.654613 12.827306-6.58432 0-12.178773-1.31072-16.77312-3.945813-4.611413-3.283627-7.89504-8.215893-9.867947-14.800213H177.421653c5.91872 37.492053 32.884053 57.227947 80.90624 59.200853 55.25504-0.662187 83.52768-21.0432 84.852054-61.17376 0-26.96192-23.033173-46.032213-69.065387-57.227947-23.681707-5.91872-35.519147-12.161707-35.519147-18.746026 0-7.22944 6.567253-10.8544 19.73248-10.8544 6.567253 0 11.49952 1.327787 14.800214 3.945813 5.256533 1.972907 8.215893 5.91872 8.881493 11.840853h56.241493c-5.922133-37.495467-31.914667-56.562347-77.950293-57.227946z m274.13504 159.839573c13.154987-17.759573 20.06016-39.468373 20.718933-65.119573-3.945813-59.845973-35.86048-91.419307-95.706453-94.72-59.86304 3.300693-91.436373 34.532693-94.72 93.733546 1.972907 61.835947 33.54624 93.733547 94.72 95.706454 17.097387 0 32.218453-2.635093 45.387093-7.89504l24.66816 23.681706 25.654614-24.66816-20.722347-20.718933z m-65.119573-14.800213c-2.635093 1.327787-5.91872 1.972907-9.867947 1.972906-22.370987-0.64512-34.208427-18.08384-35.519147-52.292266 1.31072-32.884053 13.151573-49.657173 35.519147-50.31936 23.681707 1.327787 35.843413 18.100907 36.5056 50.31936 0 9.219413-0.986453 16.77312-2.95936 22.69184l-18.746027-19.73248-25.654613 26.641066 20.722347 20.718934z m260.324693-0.986454H647.748267v-139.12064h-60.187307V713.386667h142.08v-42.427734z" fill="#1e7345" p-id="5032"></path></svg>