<svg viewBox="0 0 1024 1024" xmlns="http://www.w3.org/2000/svg" width="200" height="200"><path d="M959.147 87.04A2369.877 2369.877 0 0 0 512 0a1399.467 1399.467 0 0 0-238.933 31.403C200.02 48.469 129.707 68.267 64.17 87.04c0 542.379-52.566 677.547 379.562 915.115a120.15 120.15 0 0 0 136.534 0c435.882-232.79 379.904-345.43 378.88-915.115zM370.688 601.43a94.55 94.55 0 0 1-73.387 30.037 98.304 98.304 0 0 1-87.722-39.254 121.173 121.173 0 0 1-19.115-70.314h48.47a57.685 57.685 0 0 0 9.215 34.133 49.493 49.493 0 0 0 44.032 19.797 68.267 68.267 0 0 0 34.134-8.192 37.205 37.205 0 0 0 16.725-34.133 31.061 31.061 0 0 0-12.63-26.965 136.533 136.533 0 0 0-34.133-13.654l-23.21-9.216a153.259 153.259 0 0 1-54.614-25.6 90.795 90.795 0 0 1-24.576-70.656 111.957 111.957 0 0 1 17.408-63.829 87.723 87.723 0 0 1 78.848-36.523 88.064 88.064 0 0 1 77.142 37.547 116.053 116.053 0 0 1 20.138 68.267H337.58a64.17 64.17 0 0 0-8.534-29.696 47.104 47.104 0 0 0-42.325-19.115 49.152 49.152 0 0 0-29.355 8.192 35.84 35.84 0 0 0-14.336 31.061 34.133 34.133 0 0 0 9.216 25.6 43.35 43.35 0 0 0 17.408 8.534l60.758 19.456a104.448 104.448 0 0 1 45.738 25.941 88.064 88.064 0 0 1 19.798 62.123 109.91 109.91 0 0 1-25.259 76.458zm232.107 0a94.55 94.55 0 0 1-73.387 30.037 98.304 98.304 0 0 1-87.723-39.254 121.173 121.173 0 0 1-19.114-70.314h50.176a57.685 57.685 0 0 0 9.216 34.133 49.493 49.493 0 0 0 44.032 19.797 68.267 68.267 0 0 0 34.133-8.192 37.205 37.205 0 0 0 16.725-34.133 31.061 31.061 0 0 0-12.629-26.965 136.533 136.533 0 0 0-34.133-13.654l-26.966-8.192a153.259 153.259 0 0 1-54.613-25.6 90.795 90.795 0 0 1-24.576-70.656 111.957 111.957 0 0 1 19.797-64.512 87.723 87.723 0 0 1 78.507-36.864 88.064 88.064 0 0 1 77.141 37.547 116.053 116.053 0 0 1 20.139 68.267h-49.835a64.17 64.17 0 0 0-8.533-29.696 47.104 47.104 0 0 0-42.325-19.115 49.152 49.152 0 0 0-29.355 8.192 35.84 35.84 0 0 0-14.336 31.061 34.133 34.133 0 0 0 9.216 25.6 43.35 43.35 0 0 0 17.408 8.534l60.757 19.456a104.107 104.107 0 0 1 45.739 25.941 88.064 88.064 0 0 1 19.797 62.123 110.25 110.25 0 0 1-25.258 76.458zm241.322 21.503h-176.81V295.595h52.224V563.54h124.245z" fill="#E50012"/></svg>