<?xml version="1.0" standalone="no"?><!DOCTYPE svg PUBLIC "-//W3C//DTD SVG 1.1//EN" "http://www.w3.org/Graphics/SVG/1.1/DTD/svg11.dtd"><svg t="1566278617140" class="icon" viewBox="0 0 1024 1024" version="1.1" xmlns="http://www.w3.org/2000/svg" p-id="16044" xmlns:xlink="http://www.w3.org/1999/xlink" width="200" height="200"><defs><style type="text/css"></style></defs><path d="M959.146667 87.04A2369.877333 2369.877333 0 0 0 512 0a1399.466667 1399.466667 0 0 0-238.933333 31.402667C200.021333 48.469333 129.706667 68.266667 64.170667 87.04 64.170667 629.418667 11.605333 764.586667 443.733333 1002.154667a120.149333 120.149333 0 0 0 136.533334 0c435.882667-232.789333 379.904-345.429333 378.88-915.114667zM370.688 601.429333a94.549333 94.549333 0 0 1-73.386667 30.037334 98.304 98.304 0 0 1-87.722666-39.253334 121.173333 121.173333 0 0 1-19.114667-70.314666H238.933333a57.685333 57.685333 0 0 0 9.216 34.133333 49.493333 49.493333 0 0 0 44.032 19.797333 68.266667 68.266667 0 0 0 34.133334-8.192 37.205333 37.205333 0 0 0 16.725333-34.133333 31.061333 31.061333 0 0 0-12.629333-26.965333 136.533333 136.533333 0 0 0-34.133334-13.653334L273.066667 483.669333a153.258667 153.258667 0 0 1-54.613334-25.6 90.794667 90.794667 0 0 1-24.576-70.656 111.957333 111.957333 0 0 1 17.408-63.829333A87.722667 87.722667 0 0 1 290.133333 287.061333a88.064 88.064 0 0 1 77.141334 37.546667 116.053333 116.053333 0 0 1 20.138666 68.266667H337.578667a64.170667 64.170667 0 0 0-8.533334-29.696 47.104 47.104 0 0 0-42.325333-19.114667 49.152 49.152 0 0 0-29.354667 8.192 35.84 35.84 0 0 0-14.336 31.061333 34.133333 34.133333 0 0 0 9.216 25.6 43.349333 43.349333 0 0 0 17.408 8.533334l60.757334 19.456a104.448 104.448 0 0 1 45.738666 25.941333 88.064 88.064 0 0 1 19.797334 62.122667 109.909333 109.909333 0 0 1-25.258667 76.458666z m232.106667 0a94.549333 94.549333 0 0 1-73.386667 30.037334 98.304 98.304 0 0 1-87.722667-39.253334 121.173333 121.173333 0 0 1-19.114666-70.314666h50.176a57.685333 57.685333 0 0 0 9.216 34.133333 49.493333 49.493333 0 0 0 44.032 19.797333 68.266667 68.266667 0 0 0 34.133333-8.192 37.205333 37.205333 0 0 0 16.725333-34.133333 31.061333 31.061333 0 0 0-12.629333-26.965333 136.533333 136.533333 0 0 0-34.133333-13.653334l-26.965334-8.192a153.258667 153.258667 0 0 1-54.613333-25.6 90.794667 90.794667 0 0 1-24.576-70.656A111.957333 111.957333 0 0 1 443.733333 323.925333a87.722667 87.722667 0 0 1 78.506667-36.864 88.064 88.064 0 0 1 77.141333 37.546667 116.053333 116.053333 0 0 1 20.138667 68.266667h-49.834667a64.170667 64.170667 0 0 0-8.533333-29.696 47.104 47.104 0 0 0-42.325333-19.114667 49.152 49.152 0 0 0-29.354667 8.192 35.84 35.84 0 0 0-14.336 31.061333 34.133333 34.133333 0 0 0 9.216 25.6 43.349333 43.349333 0 0 0 17.408 8.533334l60.757333 19.456a104.106667 104.106667 0 0 1 45.738667 25.941333 88.064 88.064 0 0 1 19.797333 62.122667 110.250667 110.250667 0 0 1-25.258666 76.458666z m241.322666 21.504h-176.810666V295.594667h52.224v267.946666h124.245333z" fill="#E50012" p-id="16045"></path></svg>