<?xml version="1.0" standalone="no"?><!DOCTYPE svg PUBLIC "-//W3C//DTD SVG 1.1//EN" "http://www.w3.org/Graphics/SVG/1.1/DTD/svg11.dtd"><svg t="1606199638834" class="icon" viewBox="0 0 1024 1024" version="1.1" xmlns="http://www.w3.org/2000/svg" p-id="8146" xmlns:xlink="http://www.w3.org/1999/xlink" width="200" height="200"><defs><style type="text/css"></style></defs><path d="M512 803.84c-225.28 0-409.6-61.44-409.6-138.24v220.16c5.12 76.8 184.32 138.24 409.6 138.24 220.16 0 404.48-61.44 409.6-138.24V665.6c0 76.8-184.32 138.24-409.6 138.24z" fill="#5F6190" p-id="8147"></path><path d="M512 542.72c-225.28 0-409.6-61.44-409.6-138.24v220.16c5.12 76.8 184.32 138.24 409.6 138.24 220.16 0 404.48-61.44 409.6-138.24V404.48c0 76.8-184.32 138.24-409.6 138.24z" fill="#5F6190" p-id="8148"></path><path d="M921.6 138.24C921.6 61.44 737.28 0 512 0S102.4 61.44 102.4 138.24V358.4c5.12 76.8 184.32 138.24 409.6 138.24 220.16 0 404.48-61.44 409.6-138.24V138.24z m-409.6 97.28c-168.96 0-307.2-46.08-307.2-102.4s138.24-102.4 307.2-102.4 307.2 46.08 307.2 102.4-138.24 102.4-307.2 102.4z" fill="#1BC4DB" p-id="8149"></path></svg>