<svg viewBox="0 0 1024 1024" xmlns="http://www.w3.org/2000/svg" width="200" height="200"><path d="M677.724 6.676h-525.83c-14.623 0-22.253 2.543-22.253 25.115v964.55c0 6.359 7.63 27.659 22.254 27.659H878.01c14.624 0 14.624-21.3 14.624-27.658V233.349c0-12.717 4.133-16.85 0-19.711L685.99 6.676c-2.861-2.861-4.133 0-8.266 0z" fill="#E9E9E0"/><path d="M701.886 0v229.216h202.51z" fill="#D9D7CA"/><path d="M127.733 578.92h766.808q61.676 0 61.676 61.676v226.355q0 61.675-61.676 61.675H127.733q-61.675 0-61.675-61.675V640.596q0-61.675 61.675-61.675z" fill="#22B573"/><path d="M232.645 826.576a90.605 90.605 0 0 0 59.45 21.618 50.23 50.23 0 0 0 28.294-6.359 19.393 19.393 0 0 0 9.538-16.849 23.844 23.844 0 0 0-7.63-16.531 141.472 141.472 0 0 0-39.74-21.3q-50.866-21.619-50.866-63.583a54.681 54.681 0 0 1 22.89-46.734 101.414 101.414 0 0 1 60.722-16.85 149.737 149.737 0 0 1 53.409 7.63v43.237a88.698 88.698 0 0 0-50.866-14.942 52.138 52.138 0 0 0-27.34 6.358 18.757 18.757 0 0 0-10.174 16.85 21.618 21.618 0 0 0 6.994 15.578 130.345 130.345 0 0 0 34.653 19.074 112.541 112.541 0 0 1 44.19 29.248 57.224 57.224 0 0 1 12.08 36.56 55.317 55.317 0 0 1-21.936 47.37 103.958 103.958 0 0 1-63.582 16.213 134.795 134.795 0 0 1-61.04-12.08zm359.878-163.09-75.027 216.5h-52.138l-74.074-216.5h49.594l46.734 152.916a101.097 101.097 0 0 1 4.45 21.3 114.767 114.767 0 0 1 4.77-21.935l46.097-152.281zm196.47 201.875a153.87 153.87 0 0 1-77.888 18.44 112.224 112.224 0 0 1-81.704-28.931 105.547 105.547 0 0 1-29.884-79.479 110.952 110.952 0 0 1 31.792-83.293 118.9 118.9 0 0 1 86.79-31.791 170.402 170.402 0 0 1 60.404 9.855v43.872a120.171 120.171 0 0 0-60.404-14.624 66.762 66.762 0 0 0-50.548 20.347 74.71 74.71 0 0 0-19.393 53.727 75.028 75.028 0 0 0 17.485 53.092 63.583 63.583 0 0 0 47.687 19.074 67.398 67.398 0 0 0 29.566-5.722v-45.144h-43.554v-36.878h89.97z" fill="#FFF"/><path d="M386.197 409.155a160.864 160.864 0 0 0 105.548 38.467 89.652 89.652 0 0 0 51.184-11.762 34.653 34.653 0 0 0 16.85-29.566 42.283 42.283 0 0 0-13.353-29.566 252.423 252.423 0 0 0-70.895-37.832q-91.56-38.15-91.56-111.27a96.964 96.964 0 0 1 41.012-83.293 179.94 179.94 0 0 1 108.09-29.566 266.73 266.73 0 0 1 95.374 14.624v76.935a158.957 158.957 0 0 0-90.605-26.387 92.513 92.513 0 0 0-48.64 10.81 33.38 33.38 0 0 0-18.122 29.565 38.468 38.468 0 0 0 12.399 27.34 230.17 230.17 0 0 0 61.357 34.018 201.24 201.24 0 0 1 78.843 51.82 102.368 102.368 0 0 1 21.618 63.582 98.553 98.553 0 0 1-38.786 86.473 184.708 184.708 0 0 1-111.587 28.93 239.389 239.389 0 0 1-108.409-21.3z" fill="#22B573"/></svg>