<?xml version="1.0" standalone="no"?><!DOCTYPE svg PUBLIC "-//W3C//DTD SVG 1.1//EN" "http://www.w3.org/Graphics/SVG/1.1/DTD/svg11.dtd"><svg t="1570927097120" class="icon" viewBox="0 0 1024 1024" version="1.1" xmlns="http://www.w3.org/2000/svg" p-id="2656" xmlns:xlink="http://www.w3.org/1999/xlink" width="200" height="200"><defs><style type="text/css"></style></defs><path d="M677.724115 6.676188H151.89487C137.27084 6.676188 129.640912 9.219497 129.640912 31.791369v964.55014c0 6.358274 7.629929 27.658491 22.253958 27.658491h726.114871c14.62403 0 14.62403-21.300217 14.62403-27.658491v-762.99286c0-12.716548 4.132878-16.849426 0-19.710648L685.989871 6.676188c-2.861223-2.861223-4.132878 0-8.265756 0z" fill="#E9E9E0" p-id="2657"></path><path d="M701.885556 0v229.215771h202.511021z" fill="#D9D7CA" p-id="2658"></path><path d="M66.058173 578.920832m61.675256 0l766.807824 0q61.675256 0 61.675256 61.675256l0 226.354548q0 61.675256-61.675256 61.675257l-766.807824 0q-61.675256 0-61.675256-61.675257l0-226.354548q0-61.675256 61.675256-61.675256Z" fill="#22B573" p-id="2659"></path><path d="M232.644948 826.575598a90.605402 90.605402 0 0 0 59.44986 21.618131 50.230363 50.230363 0 0 0 28.294318-6.358274 19.392735 19.392735 0 0 0 9.537411-16.849426 23.843527 23.843527 0 0 0-7.629928-16.531512 141.471593 141.471593 0 0 0-39.739212-21.300217q-50.866191-21.618131-50.866191-63.582738a54.681155 54.681155 0 0 1 22.889786-46.733313 101.414468 101.414468 0 0 1 60.721515-16.849426 149.737349 149.737349 0 0 1 53.4095 7.629929v43.236262a88.69792 88.69792 0 0 0-50.86619-14.941944 52.137845 52.137845 0 0 0-27.340578 6.358274 18.756908 18.756908 0 0 0-10.173238 16.849426 21.618131 21.618131 0 0 0 6.994101 15.577771 130.344613 130.344613 0 0 0 34.652593 19.074821 112.541447 112.541447 0 0 1 44.190003 29.24806 57.224464 57.224464 0 0 1 12.08072 36.560074 55.316982 55.316982 0 0 1-21.936045 47.36914 103.957777 103.957777 0 0 1-63.582738 16.213599 134.795405 134.795405 0 0 1-61.039429-12.080721zM592.523246 663.485874l-75.027631 216.499224h-52.137845l-74.07389-216.499224h49.594535l46.733313 152.916486a101.096554 101.096554 0 0 1 4.450792 21.300217 114.766843 114.766843 0 0 1 4.768705-21.936045L542.92871 663.485874zM788.993907 865.361068a153.870227 153.870227 0 0 1-77.888854 18.438994 112.223533 112.223533 0 0 1-81.703819-28.930146 105.547346 105.547346 0 0 1-29.883887-79.478423 110.951878 110.951878 0 0 1 31.79137-83.293387 118.899721 118.899721 0 0 1 86.790437-31.791369 170.401739 170.401739 0 0 1 60.403602 9.855324v43.87209a120.171375 120.171375 0 0 0-60.403602-14.62403 66.761875 66.761875 0 0 0-50.548277 20.346476 74.709717 74.709717 0 0 0-19.392735 53.727414 75.027631 75.027631 0 0 0 17.485253 53.091587 63.582738 63.582738 0 0 0 47.687054 19.074821 67.397703 67.397703 0 0 0 29.565973-5.722446V794.784229h-43.554175v-36.877989h89.969574z" fill="#FFFFFF" p-id="2660"></path><path d="M386.19726 409.154921a160.864328 160.864328 0 0 0 105.547346 38.467556 89.651661 89.651661 0 0 0 51.184104-11.762806 34.652592 34.652592 0 0 0 16.849426-29.565973 42.282521 42.282521 0 0 0-13.352375-29.565974 252.423471 252.423471 0 0 0-70.894753-37.831729Q383.971865 300.746352 383.971865 227.626203a96.963676 96.963676 0 0 1 41.010866-83.293387 179.939149 179.939149 0 0 1 108.090655-29.565973 266.729587 266.729587 0 0 1 95.374107 14.624029v76.935114a158.956846 158.956846 0 0 0-90.605402-26.386837 92.512884 92.512884 0 0 0-48.640795 10.809066 33.380938 33.380938 0 0 0-18.12108 29.565973 38.467557 38.467557 0 0 0 12.398634 27.340578 230.169513 230.169513 0 0 0 61.357342 34.016765 201.239367 201.239367 0 0 1 78.842596 51.819931 102.368209 102.368209 0 0 1 21.618131 63.582739A98.553244 98.553244 0 0 1 606.511449 483.546725a184.707855 184.707855 0 0 1-111.587706 28.930146 239.38901 239.38901 0 0 1-108.408569-21.300218z" fill="#22B573" p-id="2661"></path></svg>