<svg viewBox="0 0 1333 1024" xmlns="http://www.w3.org/2000/svg" width="260.352" height="200"><path d="m514.614 58.927 290.762 67.092 269.683-62.228a23.646 23.646 0 0 1 3.53-.539l1.785-.067a23.646 23.646 0 0 1 23.606 22.258l.04 1.388v621.366h-15.764V86.837a7.882 7.882 0 0 0-7.882-7.881l-.89.054-.875.148-262.555 60.584v688.35l216.05-49.845 3.544 15.36-230.265 53.14-290.762-67.099-269.69 62.235a23.646 23.646 0 0 1-3.53.539l-1.785.067a23.646 23.646 0 0 1-23.606-22.258l-.04-1.395V146.661a23.646 23.646 0 0 1 16.943-22.676l1.38-.364 280.32-64.687zm5.086 17.34v688.365l280.59 64.74V141.037L519.7 76.275zm-15.764 1.294-266.092 61.413a7.882 7.882 0 0 0-6.063 6.778l-.047.902v672.182a7.875 7.875 0 0 0 7.882 7.882l.89-.047.875-.155 262.555-60.577V77.56z" fill="#D3DAE6"/><path d="M221.056 134.117v128.606l290.762-67.099V67.018z" fill="#D3DAE6"/><path d="M476.524 465.24a6.306 6.306 0 0 1 9.68 8.03l-.606.72-148.17 153.77a6.306 6.306 0 0 1-9.68-8.031l.599-.721L476.524 465.24z" fill="#1D7BFF"/><path d="M475.385 464.141a7.882 7.882 0 0 1 7.613-2.169l1.004.33 351.232 141.05 158.726-103.99a7.882 7.882 0 0 1 10.368 1.536l.546.74a7.882 7.882 0 0 1-1.536 10.362l-.74.552-162.157 106.24a7.882 7.882 0 0 1-6.346 1.031l-.91-.303-350.147-140.618L338.553 628.85a7.882 7.882 0 0 1-10.388.848l-.754-.64a7.882 7.882 0 0 1-.85-10.388l.64-.754L475.38 464.14z" fill="#1D7BFF"/><path d="M372.049 360.596a7.882 7.882 0 0 1 10.402-.653l.74.653 97.644 97.644 431.994-88.61a7.882 7.882 0 0 1 9.067 5.242l.236.896a7.882 7.882 0 0 1-5.248 9.067l-.89.236-436.142 89.465a7.882 7.882 0 0 1-6.42-1.488l-.741-.654-100.649-100.648a7.882 7.882 0 0 1 0-11.15z" fill="#1D7BFF"/><path d="M501.174 482.85a27.958 27.958 0 1 1-45.81-32.068 27.958 27.958 0 1 1 45.81 32.068" fill="#1D7BFF"/><path d="M447.616 445.36a37.416 37.416 0 1 0 61.305 42.913 37.416 37.416 0 0 0-61.305-42.914zm41.263 6.298a18.5 18.5 0 1 1-1.105-.714l1.105.714z" fill="#1D7BFF"/><path d="M527.805 501.49a60.456 60.456 0 0 1-84.21 14.862 60.456 60.456 0 0 1-14.856-84.21 60.47 60.47 0 0 1 99.066 69.349" fill="#FFF"/><path d="M422.279 427.628c-21.652 30.915-14.127 73.532 16.795 95.178 30.922 21.652 73.54 14.134 95.191-16.788 21.646-30.93 14.127-73.546-16.795-95.192-30.922-21.652-73.546-14.127-95.191 16.802zm86.15-3.887a52.588 52.588 0 1 1-1.637-1.105l1.637 1.105z" fill="#1D7BFF"/><path d="M449.86 446.929a34.681 34.681 0 1 0 49.69-7.498l-1.394-1.024a34.681 34.681 0 0 0-48.297 8.522z" fill="#D3DAE6"/><path d="M359.437 351.205a35.84 35.84 0 1 0 58.732 41.108 35.84 35.84 0 0 0-58.732-41.108z" fill="#1D7BFF"/><path d="M400.323 355.315a20.076 20.076 0 1 1-1.152-.748l1.146.748z" fill="#FFF"/><path d="M303.528 602.826a35.84 35.84 0 1 0 58.725 41.115 35.84 35.84 0 0 0-58.725-41.115z" fill="#1D7BFF"/><path d="M344.4 606.936a20.076 20.076 0 1 1-1.144-.755l1.145.755z" fill="#FFF"/><path d="M968.926 485.403a35.847 35.847 0 0 0 58.725 41.108 35.853 35.853 0 0 0-7.37-48.855l-1.441-1.065a35.853 35.853 0 0 0-49.92 8.812z" fill="#1D7BFF"/><path d="M1009.805 489.512a20.083 20.083 0 1 1-23.053 32.89 20.083 20.083 0 0 1 23.053-32.89z" fill="#FFF"/><path d="M885.053 356.797a35.853 35.853 0 0 0 58.725 41.108 35.84 35.84 0 0 0-58.725-41.108z" fill="#1D7BFF"/><path d="M925.932 360.906a20.076 20.076 0 1 1-23.033 32.89 20.076 20.076 0 0 1 23.04-32.89z" fill="#FFF"/><path d="M1261.595 610.008a57.526 57.526 0 0 1 2.223 79.818l-1.448 1.529-118.764 121.061a7.882 7.882 0 0 1-11.897-10.294l.646-.748 80.91-82.486-59.675-58.442-109.46 111.576 65.26 64.02a7.882 7.882 0 0 1-2.48 12.901l-.795.283-87.168 25.923c-10.139 3.032-19.678-6.218-16.976-16.45l23.403-88.577a8.374 8.374 0 0 1 .398-1.159l.06-.128a7.66 7.66 0 0 1 1.65-2.358l152.759-155.695a57.533 57.533 0 0 1 81.354-.774zm-224.451 177.246L1018.2 858.92l70.595-20.998-51.651-50.661zm144.067-154.96-16.586 16.909 59.668 58.435 16.586-16.903-59.668-58.442zm11.695-11.844-.64.606 59.635 58.415.404-.404a41.762 41.762 0 0 0-59.399-58.61z" fill="#1D7BFF"/></svg>