<svg viewBox="0 0 1024 1024" xmlns="http://www.w3.org/2000/svg" width="200" height="200"><path d="M512 0C229.675 0 0 229.675 0 512s229.675 512 512 512c282.283 0 512-229.675 512-512S794.283 0 512 0zm0 48.81c255.787 0 463.19 207.36 463.19 463.19 0 255.787-207.36 463.19-463.19 463.19-255.83 0-463.19-207.36-463.19-463.19C48.81 256.17 256.17 48.81 512 48.81zM357.12 250.369a286.165 286.165 0 0 0-18.048.213c-41.941 2.39-67.115 22.059-74.027 62.806-4.906 28.373-4.096 57.514-6.101 86.058-.555 14.934-2.133 29.739-4.907 44.288-5.717 25.984-16.938 34.048-43.349 35.414a113.067 113.067 0 0 0-10.41 1.792v62.421c48.042 2.347 54.527 19.285 58.453 69.504 1.408 18.304-.555 36.608.64 54.912.768 17.323 3.114 34.475 6.656 51.2 11.05 45.867 55.765 61.227 109.866 51.968v-54.741c-8.661 0-16.341.213-23.808 0-18.346-.555-25.216-5.12-26.965-22.827-2.39-22.827-1.792-46.08-3.2-69.12-2.73-42.71-7.467-84.821-49.195-112 21.462-15.787 37.035-34.645 41.942-59.648 3.541-17.493 5.717-35.03 7.082-52.779 1.195-17.706-.981-35.84.598-53.333 2.56-28.373 4.352-39.979 38.4-38.827 5.12 0 10.026-.725 15.744-1.152v-55.893c-6.827 0-13.227-.17-19.371-.256zm323.968.384a181.205 181.205 0 0 0-34.688 2.56v54.357c10.453 0 18.517 0 26.581.214 13.995.17 24.619 5.546 26.027 21.077 1.365 14.165 1.323 28.544 2.73 42.923 2.774 28.544 4.31 57.472 9.26 85.632 4.351 23.21 20.266 40.533 40.149 54.741-34.859 23.424-45.099 56.875-46.848 94.507-.982 25.77-1.579 51.754-2.944 77.738-1.195 23.638-9.472 31.318-33.28 31.915-6.699.17-13.227.768-20.651 1.195v55.68c13.952 0 26.752.81 39.552 0 39.765-2.347 63.787-21.632 71.68-60.246a505.204 505.204 0 0 0 5.888-64.17c1.365-19.67 1.195-39.552 3.157-59.051 2.944-30.507 16.939-43.093 47.446-45.099a41.472 41.472 0 0 0 8.49-1.962V480.34c-5.12-.597-8.704-1.152-12.416-1.365-22.869-.981-34.304-8.661-39.978-30.293a219.563 219.563 0 0 1-6.486-42.368c-1.578-26.368-1.408-52.95-3.157-79.36-3.413-50.859-33.877-74.795-80.512-76.203zm-293.973 225.28a36.01 36.01 0 0 0-3.542 71.85h2.347a35.413 35.413 0 0 0 37.419-33.28v-1.962a36.053 36.053 0 0 0-35.414-36.608zm124.202 0a34.475 34.475 0 0 0-35.584 33.28c0 1.152 0 2.133.171 3.328 0 21.461 14.592 35.243 36.65 35.243 21.633 0 35.243-14.166 35.243-36.395-.213-21.461-14.592-35.67-36.48-35.456zm126.422 0a36.736 36.736 0 0 0-37.376 35.627c0 20.053 16.128 36.224 36.224 36.224h.384c18.133 3.157 36.394-14.379 37.589-35.414.981-19.498-16.725-36.437-36.821-36.437z" fill="#85ea2d"/></svg>