<?xml version="1.0" standalone="no"?><!DOCTYPE svg PUBLIC "-//W3C//DTD SVG 1.1//EN" "http://www.w3.org/Graphics/SVG/1.1/DTD/svg11.dtd"><svg t="1566277832437" class="icon" viewBox="0 0 1024 1024" version="1.1" xmlns="http://www.w3.org/2000/svg" p-id="2572" xmlns:xlink="http://www.w3.org/1999/xlink" width="200" height="200"><defs><style type="text/css"></style></defs><path d="M512 0C380.342857 0 63.634286 150.308571 63.634286 448c0 397.970286 251.611429 457.801143 251.611428 457.801143h-197.485714S0 818.029714 0 767.926857V1024h433.005714v-118.198857A740.278857 740.278857 0 0 1 256 448C256 181.833143 397.897143 64 512 64M512 0c131.657143 0 447.634286 150.308571 447.634286 448 0 397.970286-250.88 457.801143-250.88 457.801143h196.754285s118.491429-87.771429 118.491429-137.874286V1024H590.994286v-118.198857a740.278857 740.278857 0 0 0 177.005714-457.801143c0-266.166857-141.897143-384-256-384" fill="#efb336" p-id="2573"></path></svg>