<?xml version="1.0" standalone="no"?><!DOCTYPE svg PUBLIC "-//W3C//DTD SVG 1.1//EN" "http://www.w3.org/Graphics/SVG/1.1/DTD/svg11.dtd"><svg t="1610957895537" class="icon" viewBox="0 0 2048 1024" version="1.1" xmlns="http://www.w3.org/2000/svg" p-id="3456" xmlns:xlink="http://www.w3.org/1999/xlink" width="400" height="200"><defs><style type="text/css"></style></defs><path d="M0 358.4h563.2v102.4H0zM0 563.2h512v102.4H0zM0 768h256v102.4H0z" fill="#727272" opacity=".7" p-id="3457"></path><path d="M0 153.6h409.6v102.4H0z" fill="#727272" p-id="3458"></path><path d="M614.4 0v1024h1433.6V0H614.4z m1331.2 921.6H716.8V102.4h1228.8v819.2z" fill="#727272" p-id="3459"></path><path d="M1817.6 281.6m-76.8 0a76.8 76.8 0 1 0 153.6 0 76.8 76.8 0 1 0-153.6 0Z" fill="#727272" p-id="3460"></path><path d="M1868.8 1024H614.4v-161.28l102.4-107.52 373.76-394.24c40.96-43.52 107.52-43.52 148.48 0l394.24 417.28 138.24 145.92L1868.8 1024z" fill="#727272" p-id="3461"></path><path d="M2048 819.2v204.8H1356.8l115.2-102.4 161.28-145.92 115.2-102.4c38.4-33.28 97.28-33.28 135.68 0l58.88 53.76L2048 819.2z" fill="#727272" p-id="3462"></path></svg>