<svg viewBox="0 0 2048 1024" xmlns="http://www.w3.org/2000/svg" width="400" height="200"><path d="M0 358.4h563.2v102.4H0zm0 204.8h512v102.4H0zM0 768h256v102.4H0z" fill="#727272" opacity=".7"/><path d="M0 153.6h409.6V256H0zM614.4 0v1024H2048V0H614.4zm1331.2 921.6H716.8V102.4h1228.8v819.2z" fill="#727272"/><path d="M1740.8 281.6a76.8 76.8 0 1 0 153.6 0 76.8 76.8 0 1 0-153.6 0zm128 742.4H614.4V862.72L716.8 755.2l373.76-394.24c40.96-43.52 107.52-43.52 148.48 0l394.24 417.28 138.24 145.92 97.28 99.84z" fill="#727272"/><path d="M2048 819.2V1024h-691.2L1472 921.6l161.28-145.92 115.2-102.4c38.4-33.28 97.28-33.28 135.68 0l58.88 53.76L2048 819.2z" fill="#727272"/></svg>