<svg viewBox="0 0 1024 1024" xmlns="http://www.w3.org/2000/svg" width="200" height="200"><path d="M358.4 614.4H51.2C20.48 614.4 0 634.88 0 665.6v307.2c0 30.72 20.48 51.2 51.2 51.2h307.2c30.72 0 51.2-20.48 51.2-51.2V665.6c0-30.72-20.48-51.2-51.2-51.2zm-51.2 307.2H102.4V716.8h204.8v204.8z" fill="#ea9518"/><path d="M972.8 0H51.2C20.48 0 0 20.48 0 51.2v409.6C0 491.52 20.48 512 51.2 512s51.2-20.48 51.2-51.2V102.4h819.2v819.2H563.2c-30.72 0-51.2 20.48-51.2 51.2s20.48 51.2 51.2 51.2h409.6c30.72 0 51.2-20.48 51.2-51.2V51.2c0-30.72-20.48-51.2-51.2-51.2z" fill="#ea9518"/><path d="M768 563.2c30.72 0 51.2-20.48 51.2-51.2s-20.48-51.2-51.2-51.2H634.88l168.96-168.96c20.48-20.48 20.48-51.2 0-71.68-20.48-20.48-51.2-20.48-71.68 0L563.2 389.12V256c0-30.72-20.48-51.2-51.2-51.2s-51.2 20.48-51.2 51.2v256c0 30.72 20.48 51.2 51.2 51.2h256z" fill="#ea9518"/></svg>