<?xml version="1.0" standalone="no"?><!DOCTYPE svg PUBLIC "-//W3C//DTD SVG 1.1//EN" "http://www.w3.org/Graphics/SVG/1.1/DTD/svg11.dtd"><svg t="1606119425552" class="icon" viewBox="0 0 1024 1024" version="1.1" xmlns="http://www.w3.org/2000/svg" p-id="18128" xmlns:xlink="http://www.w3.org/1999/xlink" width="200" height="200"><defs><style type="text/css"></style></defs><path d="M358.4 614.4H51.2c-30.72 0-51.2 20.48-51.2 51.2v307.2c0 30.72 20.48 51.2 51.2 51.2h307.2c30.72 0 51.2-20.48 51.2-51.2v-307.2c0-30.72-20.48-51.2-51.2-51.2z m-51.2 307.2H102.4v-204.8h204.8v204.8z" fill="#ea9518" p-id="18129"></path><path d="M972.8 0H51.2C20.48 0 0 20.48 0 51.2v409.6c0 30.72 20.48 51.2 51.2 51.2s51.2-20.48 51.2-51.2V102.4h819.2v819.2h-358.4c-30.72 0-51.2 20.48-51.2 51.2s20.48 51.2 51.2 51.2h409.6c30.72 0 51.2-20.48 51.2-51.2V51.2c0-30.72-20.48-51.2-51.2-51.2z" fill="#ea9518" p-id="18130"></path><path d="M768 563.2c30.72 0 51.2-20.48 51.2-51.2s-20.48-51.2-51.2-51.2h-133.12l168.96-168.96c20.48-20.48 20.48-51.2 0-71.68-20.48-20.48-51.2-20.48-71.68 0L563.2 389.12V256c0-30.72-20.48-51.2-51.2-51.2s-51.2 20.48-51.2 51.2v256c0 30.72 20.48 51.2 51.2 51.2h256z" fill="#ea9518" p-id="18131"></path></svg>