<?xml version="1.0" standalone="no"?><!DOCTYPE svg PUBLIC "-//W3C//DTD SVG 1.1//EN" "http://www.w3.org/Graphics/SVG/1.1/DTD/svg11.dtd"><svg t="1600400051828" class="icon" viewBox="0 0 1024 1024" version="1.1" xmlns="http://www.w3.org/2000/svg" p-id="13128" xmlns:xlink="http://www.w3.org/1999/xlink" width="200" height="200"><defs><style type="text/css"></style></defs><path d="M814.9 999.7c-18.4 0-107.9-12.2-107.9-27.3 0-84.1-33.8-167.6-95.3-234.9-62.2-68.1-96.4-152.6-96.4-237.7 0-61.2 17.6-122.5 50.9-177.2 50.3-82.7 76.9-175.3 76.9-267.7 0-15.1 67.9 0 86.2 0s54.9-15.1 54.9 0c0 100.9-29 201.9-83.9 292.2-28.7 47.2-43.9 100-43.9 152.8 0 73.4 29.5 146.2 83.1 204.9 70 76.7 108.6 171.8 108.6 267.7 0 15-14.9 27.2-33.2 27.2z" fill="#BDE6FF" p-id="13129"></path><path d="M494.7 764.2m-40.7 0a40.7 40.7 0 1 0 81.4 0 40.7 40.7 0 1 0-81.4 0Z" fill="#BDE6FF" p-id="13130"></path><path d="M804.5 198.6c4.3-28.5 6.4-57.4 6.7-86.5 0-3.1-0.1-6.3-0.5-9.4v-0.4c-4-39.6-36.9-70-76.7-70.7l-392.5-7.4c-33.7-0.6-64 20.3-75.4 52-5.2 14.6-7.6 30.2-5.9 45.6 1.3 11.8 3.4 23 5.9 34.1 10.3 45.9 42.8 85.1 87.7 98.9 35.8 11 68.4 3.3 104.1-30.7 14.5-13.8 33.9-21.6 54-21.6h4c20.3 0 39.4 8.4 54.5 22 55.6 49.8 128.1 60.9 191 32.8 23.5-10.4 39.3-33.3 43.1-58.7z" fill="#70BAF2" p-id="13131"></path><path d="M863.7 992.4c-11 0-20-9-20-20 0-85.7-28.3-170.7-79.8-239.3-25.1-33.5-44.6-70.7-57.8-110.4-13.2-39.7-20-81.1-20-122.9 0-60.1 14.2-120.3 41-173.9 41.9-83.6 64-177.3 64-271 0-11 9-20 20-20s20 9 20 20c0 99.8-23.6 199.7-68.2 288.9-24.1 48.1-36.8 102.1-36.8 156 0 74.9 24.8 149.3 69.8 209.3 28.4 37.8 50.3 79.7 65.3 124.5 14.9 44.8 22.5 91.5 22.5 138.8 0 11-9 20-20 20zM163.4 992.4c-11 0-20-9-20-20 0-47.2 7.6-93.9 22.5-138.8 15-44.8 36.9-86.7 65.3-124.5 45-60 69.8-134.3 69.8-209.3 0-54-12.7-107.9-36.8-156.1-44.6-89.1-68.2-189-68.2-288.8 0-11 9-20 20-20s20 9 20 20c0 93.6 22.1 187.3 64 270.9 26.8 53.7 41 113.8 41 174 0 41.9-6.7 83.2-20 123-13.3 39.7-32.7 76.9-57.8 110.3-51.5 68.6-79.8 153.6-79.8 239.3 0 11-9 20-20 20z" fill="#1D1B4C" p-id="13132"></path><path d="M233.5 555.2h-210c-11 0-20-9-20-20s9-20 20-20h210c11 0 20 9 20 20s-9 20-20 20z" fill="#1D1B4C" p-id="13133"></path><path d="M146 642.7c-5.1 0-10.2-2-14.1-5.9-7.8-7.8-7.8-20.5 0-28.3l73.4-73.4-73.4-73.4c-7.8-7.8-7.8-20.5 0-28.3s20.5-7.8 28.3 0l87.5 87.5c7.8 7.8 7.8 20.5 0 28.3l-87.5 87.5c-4 4-9.1 6-14.2 6zM1003.8 555.2H793.7c-11 0-20-9-20-20s9-20 20-20h210.1c11 0 20 9 20 20s-9 20-20 20z" fill="#1D1B4C" p-id="13134"></path><path d="M881.2 642.7c-5.1 0-10.2-2-14.1-5.9l-87.5-87.5c-7.8-7.8-7.8-20.5 0-28.3l87.5-87.5c7.8-7.8 20.5-7.8 28.3 0s7.8 20.5 0 28.3L822 535.2l73.4 73.4c7.8 7.8 7.8 20.5 0 28.3-4 3.8-9.1 5.8-14.2 5.8z" fill="#1D1B4C" p-id="13135"></path></svg>