<?xml version="1.0" standalone="no"?><!DOCTYPE svg PUBLIC "-//W3C//DTD SVG 1.1//EN" "http://www.w3.org/Graphics/SVG/1.1/DTD/svg11.dtd"><svg t="1566272664562" class="icon" viewBox="0 0 1024 1024" version="1.1" xmlns="http://www.w3.org/2000/svg" p-id="42633" xmlns:xlink="http://www.w3.org/1999/xlink" width="200" height="200"><defs><style type="text/css"></style></defs><path d="M209.078 650.645c0 14.564 11.65 26.797 26.797 26.797 14.564 0 26.797-11.65 26.797-26.797 0-14.564-11.65-26.797-26.797-26.797-15.146 0.583-26.797 12.233-26.797 26.797z" fill="#247B48" p-id="42634"></path><path d="M110.628 757.833V162.475c0-43.108 34.953-77.478 77.479-77.478h492.248c43.108 0 77.478 34.952 77.478 77.478v259.231c0 14.564 11.65 25.632 25.632 25.632 14.563 0 25.632-11.651 25.632-25.632V163.057c0-71.652-58.255-129.324-129.325-129.324H188.107c-71.653 0-129.325 57.672-129.325 129.324v595.358c0 71.653 57.672 129.325 129.325 129.325h311.077c14.564 0 25.632-11.651 25.632-25.632 0-14.564-11.65-25.632-25.632-25.632H188.69c-43.108-1.165-78.06-36.118-78.06-78.643z" fill="#247B48" p-id="42635"></path><path d="M471.222 209.078c-4.078-9.903-12.233-17.476-21.554-20.971h-0.583c-4.66-1.748-9.32-2.33-13.98-2.33-1.166 0-2.33 0.582-3.496 0.582-3.495 0.582-6.99 0.582-10.486 1.748-2.912 1.165-4.66 2.912-6.408 4.077-6.408 4.078-12.233 9.904-15.728 18.06L216.069 628.507c-1.748 4.66-3.496 9.321-5.243 13.399l46.603 23.302c1.748-2.33 3.495-4.66 4.66-8.156l34.953-79.808H576.08c2.912 0 26.214 1.165 29.127 0h-19.224 59.42L471.221 209.078zM320.344 524.816L436.27 260.342l125.829 264.474H320.344z m618.66 129.324H809.678V524.816c0-14.564-11.65-25.632-25.632-25.632-14.563 0-25.632 11.65-25.632 25.632V654.14H629.091c-14.564 0-25.632 11.651-25.632 25.632v155.539c0 14.563 11.651 25.632 25.632 25.632h129.324v103.692c0 14.564 11.651 25.632 25.632 25.632 14.564 0 25.632-11.65 25.632-25.632V860.943h129.324c14.564 0 25.632-11.651 25.632-25.632V679.772c0.583-13.98-11.068-25.632-25.632-25.632zM757.832 809.68h-77.478c-14.564 0-25.632-11.652-25.632-25.633v-51.846c0-14.564 11.65-25.632 25.632-25.632h77.478v103.11z m155.539-26.215c0 14.563-11.651 25.632-25.632 25.632h-77.478v-103.11h77.478c14.563 0 25.632 11.65 25.632 25.631v51.847z" fill="#247B48" p-id="42636"></path></svg>