<?xml version="1.0" standalone="no"?><!DOCTYPE svg PUBLIC "-//W3C//DTD SVG 1.1//EN" "http://www.w3.org/Graphics/SVG/1.1/DTD/svg11.dtd"><svg t="1585950534045" class="icon" viewBox="0 0 1024 1024" version="1.1" xmlns="http://www.w3.org/2000/svg" p-id="7369" xmlns:xlink="http://www.w3.org/1999/xlink" width="200" height="200"><defs><style type="text/css"></style></defs><path d="M896.5 230.6c24.8 0 45 20.2 45 45v491.1c0 24.8-20.2 45-45 45h-767c-24.8 0-45-20.2-45-45V275.6c0-24.8 20.2-45 45-45h767m0-20h-767c-35.9 0-65 29.1-65 65v491.1c0 35.9 29.1 65 65 65h767c35.9 0 65-29.1 65-65V275.6c0-35.9-29.1-65-65-65z" fill="#3983FD" p-id="7370"></path><path d="M680.7 733.6H214.4c-35.9 0-65-29.1-65-65V358.7c0-35.9 29.1-65 65-65h466.3c35.9 0 65 29.1 65 65v309.9c0 35.9-29.1 65-65 65z" fill="#83FCE5" p-id="7371"></path><path d="M680.7 303.7c30.3 0 55 24.7 55 55v309.9c0 30.3-24.7 55-55 55H214.4c-30.3 0-55-24.7-55-55V358.7c0-30.3 24.7-55 55-55h466.3m0-10H214.4c-35.9 0-65 29.1-65 65v309.9c0 35.9 29.1 65 65 65h466.3c35.9 0 65-29.1 65-65V358.7c0-35.9-29.1-65-65-65zM841.8 303.7c16.2 0 29.4 13.2 29.4 29.4s-13.2 29.4-29.4 29.4-29.4-13.2-29.4-29.4 13.1-29.4 29.4-29.4m0-10c-21.8 0-39.4 17.7-39.4 39.4s17.7 39.4 39.4 39.4c21.8 0 39.4-17.7 39.4-39.4s-17.6-39.4-39.4-39.4z" fill="#3983FD" p-id="7372"></path><path d="M841.8 449.3m-39.4 0a39.4 39.4 0 1 0 78.8 0 39.4 39.4 0 1 0-78.8 0Z" fill="#83FCE5" p-id="7373"></path><path d="M841.8 419.9c16.2 0 29.4 13.2 29.4 29.4s-13.2 29.4-29.4 29.4-29.4-13.2-29.4-29.4 13.1-29.4 29.4-29.4m0-10c-21.8 0-39.4 17.7-39.4 39.4s17.7 39.4 39.4 39.4c21.8 0 39.4-17.7 39.4-39.4s-17.6-39.4-39.4-39.4zM494.2 231c-2.3 0-4.7-0.8-6.6-2.5l-152.9-133c-4.2-3.6-4.6-9.9-1-14.1 3.6-4.2 9.9-4.6 14.1-1l152.9 133c4.2 3.6 4.6 9.9 1 14.1-2 2.3-4.8 3.5-7.5 3.5zM534.2 231c-2.8 0-5.5-1.1-7.5-3.4-3.6-4.1-3.2-10.5 0.9-14.1l133-117.1c4.1-3.6 10.5-3.2 14.1 0.9 3.6 4.1 3.2 10.5-0.9 14.1l-133 117.1c-1.9 1.7-4.3 2.5-6.6 2.5z" fill="#3983FD" p-id="7374"></path></svg>