<svg viewBox="0 0 1261 1024" xmlns="http://www.w3.org/2000/svg" width="246.289" height="200"><path d="M265.206 53.041h730.788v919.38H265.206z" fill="#E3FCF1"/><path d="M1148.682 1019.568H129.515c-55.988 0-123.622-52.57-123.622-117.869V123.763c0-65.3 67.634-117.87 123.622-117.87h1013.674c62.636 0 113.579 49.01 113.579 109.242v796.677c.024 61.434-46.464 107.756-108.086 107.756zM129.515 53.041c-33.404 0-76.474 34.3-76.474 70.722v777.936c0 36.422 43.093 70.721 76.474 70.721h1019.143c35.314 0 60.962-25.483 60.962-60.608V115.135c0-37.153-34.347-62.094-66.43-62.094H129.514z" fill="#34C892"/><path d="M1137.437 29.467H972.42v966.527h170.486c46.677 0 88.827-44.837 88.827-94.295v-801.51c0-49.458-47.62-70.722-94.296-70.722zm47.148 919.38h-165.017V783.83h165.017v165.017zm0-235.739h-165.017V548.092h165.017v165.016zm0-235.738h-165.017V312.353h165.017V477.37zm0-235.738h-165.017V76.615h165.017v165.017zM29.467 100.189v801.51c0 49.458 42.127 94.295 88.826 94.295H288.78V29.467H123.763c-46.677 0-94.296 21.264-94.296 70.722zm47.148 683.64h165.017v165.018H76.615V783.83zm0-235.737h165.017v165.016H76.615V548.092zm0-235.739h165.017V477.37H76.615V312.353zm0-235.738h165.017v165.017H76.615V76.615z" fill="#34C892"/><path d="M757.026 512.707 504.173 659.62V365.842z" fill="#77E5B8"/><path d="M486.493 690.336v-355.21l305.753 177.581-305.753 177.629zm35.36-293.8v232.367l199.978-116.22-199.977-116.148z" fill="#34C892"/></svg>