<?xml version="1.0" standalone="no"?><!DOCTYPE svg PUBLIC "-//W3C//DTD SVG 1.1//EN" "http://www.w3.org/Graphics/SVG/1.1/DTD/svg11.dtd"><svg t="1566272701538" class="icon" viewBox="0 0 1024 1024" version="1.1" xmlns="http://www.w3.org/2000/svg" p-id="44312" xmlns:xlink="http://www.w3.org/1999/xlink" width="200" height="200"><defs><style type="text/css"></style></defs><path d="M102.47168 0h819.2a102.4 102.4 0 0 1 102.4 102.4v819.2a102.4 102.4 0 0 1-102.4 102.4h-819.2a102.4 102.4 0 0 1-102.4-102.4V102.4a102.4 102.4 0 0 1 102.4-102.4z" fill="#77C8F2" p-id="44313"></path><path d="M189.51168 409.6h542.72a148.48 148.48 0 0 1 148.48 148.48v10.24a148.48 148.48 0 0 1-148.48 148.48h-542.72a148.48 148.48 0 0 1-148.48-148.48v-10.24a148.48 148.48 0 0 1 148.48-148.48z" fill="#FFFFFF" p-id="44314"></path><path d="M778.24 501.76m-204.8 0a204.8 204.8 0 1 0 409.6 0 204.8 204.8 0 1 0-409.6 0Z" fill="#FFFFFF" p-id="44315"></path><path d="M409.6 358.4m-256 0a256 256 0 1 0 512 0 256 256 0 1 0-512 0Z" fill="#F9C424" p-id="44316"></path><path d="M409.67168 140.8A217.6 217.6 0 1 1 192.07168 358.4a217.6 217.6 0 0 1 217.6-217.6z" fill="#F8E156" p-id="44317"></path><path d="M225.61792 832.1024a29.25568 29.25568 0 0 0 39.10656-14.336c7.00416-14.92992-4.20864-60.01664-4.20864-60.01664s-41.6256 19.67104-48.62976 34.60096a29.93152 29.93152 0 0 0 13.73184 39.75168z m46.73536 92.7232a29.27616 29.27616 0 0 0 39.1168-14.336c7.00416-14.92992-4.21888-60.01664-4.21888-60.01664s-41.61536 19.67104-48.62976 34.60096a29.94176 29.94176 0 0 0 13.73184 39.75168z m74.752-92.7232a29.25568 29.25568 0 0 0 39.10656-14.336c7.00416-14.92992-4.21888-60.01664-4.21888-60.01664s-41.61536 19.67104-48.61952 34.60096a29.93152 29.93152 0 0 0 13.7728 39.75168z m121.51808 0a29.27616 29.27616 0 0 0 39.1168-14.336c7.00416-14.92992-4.21888-60.01664-4.21888-60.01664s-41.61536 19.67104-48.62976 34.60096a29.94176 29.94176 0 0 0 13.78304 39.75168z m121.52832 0a29.25568 29.25568 0 0 0 39.10656-14.336c7.0144-14.92992-4.20864-60.01664-4.20864-60.01664s-41.6256 19.67104-48.62976 34.60096a29.94176 29.94176 0 0 0 13.7728 39.75168z m-196.22912 92.7232a29.25568 29.25568 0 0 0 39.10656-14.336c7.0144-14.92992-4.20864-60.01664-4.20864-60.01664s-41.6256 19.67104-48.62976 34.60096a29.94176 29.94176 0 0 0 13.73184 39.75168z m121.52832 0a29.25568 29.25568 0 0 0 39.10656-14.336c7.00416-14.92992-4.20864-60.01664-4.20864-60.01664s-41.6256 19.67104-48.62976 34.60096a29.93152 29.93152 0 0 0 13.69088 39.75168z m196.31104-92.7232a29.25568 29.25568 0 0 0 39.10656-14.336c7.00416-14.92992-4.21888-60.01664-4.21888-60.01664s-41.61536 19.67104-48.61952 34.60096a29.93152 29.93152 0 0 0 13.69088 39.75168z m-74.752 92.7232a29.27616 29.27616 0 0 0 39.1168-14.336c7.00416-14.92992-4.21888-60.01664-4.21888-60.01664s-41.61536 19.67104-48.61952 34.60096a29.93152 29.93152 0 0 0 13.63968 39.75168z" fill="#FFFFFF" p-id="44318"></path></svg>