<?xml version="1.0" standalone="no"?><!DOCTYPE svg PUBLIC "-//W3C//DTD SVG 1.1//EN" "http://www.w3.org/Graphics/SVG/1.1/DTD/svg11.dtd"><svg t="1566702222750" class="icon" viewBox="0 0 1024 1024" version="1.1" xmlns="http://www.w3.org/2000/svg" p-id="14171" xmlns:xlink="http://www.w3.org/1999/xlink" width="200" height="200"><defs><style type="text/css"></style></defs><path d="M221.997168 589.48875627l-42.68841707-157.76154027-43.6164256 157.76154027c-3.71203627 12.06411733-5.5680544 20.41619947-8.35208213 25.98425386s-5.5680544 10.2080992-10.2080992 13.92013654-11.1361088 6.49606293-19.48819093 6.49606293c-6.49606293 0-12.06411733-0.92800853-16.70416214-3.71203627s-7.42407253-5.5680544-10.20810026-10.2080992-4.6400448-10.2080992-6.49606294-15.77615466c-1.85601813-6.49606293-2.78402667-12.06411733-4.64004586-17.63217174L15.97915627 411.31101653c-2.78402667-10.2080992-3.71203627-18.56018133-3.71203627-23.20022613a25.35320747 25.35320747 0 0 1 25.05624427-25.05624533c9.28009067 0 16.7041632 2.78402667 19.48819093 9.28009066 3.71203627 6.49606293 6.49606293 14.84814507 8.35208107 26.91226347l34.33633493 154.049504 38.9763808-143.8414048c2.78402667-11.1361088 5.5680544-19.48818987 7.42407253-25.05624427s5.5680544-11.1361088 11.1361088-14.84814506c5.5680544-4.6400448 12.06411733-6.49606293 21.34420907-6.496064s15.7761536 1.85601813 21.344208 6.496064c4.6400448 4.6400448 8.35208107 9.28009067 10.2080992 13.92013546 1.85601813 5.5680544 4.6400448 13.92013547 7.42407253 25.98425387l38.9763808 143.8414048L290.66983893 399.2468992c1.85601813-8.35208107 3.71203627-13.92013547 4.6400448-18.56018133 1.85601813-4.6400448 3.71203627-8.35208107 7.42407254-12.0641184s9.28009067-5.5680544 15.77615466-5.5680544 12.99212693 1.85601813 17.63217174 6.496064 7.42407253 10.2080992 7.42407253 17.63217173c0 4.6400448-0.92800853 12.99212693-3.71203627 23.2002272L296.23789333 587.63273813c-2.78402667 12.06411733-5.5680544 20.41619947-7.42407253 25.98425387-1.85601813 5.5680544-5.5680544 10.2080992-10.20810027 14.84814507s-11.1361088 6.49606293-20.41619946 6.496064c-8.35208107 0-14.84814507-1.85601813-19.48818987-6.496064-4.6400448-3.71203627-8.35208107-8.35208107-10.20810027-13.92013547s-3.71203627-12.99212693-6.49606293-25.05624533zM406.67097173 392.7508352v73.31271573c6.49606293-7.42407253 12.06411733-12.99212693 18.56018134-16.70416213 5.5680544-4.6400448 12.06411733-7.42407253 19.48818986-9.28009067s14.84814507-2.78402667 23.20022614-2.78402773c12.06411733 0 23.20022613 2.78402667 33.4083264 8.35208213 9.28009067 5.5680544 17.63217173 12.99212693 23.2002272 23.20022614 3.71203627 5.5680544 5.5680544 12.06411733 7.42407253 19.48818986 0.92800853 7.42407253 1.85601813 15.7761536 1.85601813 25.05624534v93.7289152c0 10.2080992-1.85601813 17.63217173-6.496064 22.2722176s-10.2080992 7.42407253-17.63217173 7.42407253c-15.7761536 0-24.12823573-10.2080992-24.12823573-29.69629013v-82.5928064c0-15.7761536-2.78402667-27.840272-7.42407254-36.19235414s-13.92013547-12.99212693-26.9122624-12.99212693c-8.35208107 0-16.7041632 2.78402667-23.2002272 7.42407253-7.42407253 4.6400448-12.06411733 12.06411733-15.7761536 20.41619947-2.78402667 7.42407253-3.71203627 20.41619947-3.71203626 38.9763808v64.96063467c0 9.28009067-1.85601813 16.7041632-6.496064 22.2722176-4.6400448 4.6400448-10.2080992 7.42407253-18.56018134 7.42407253-15.7761536 0-24.12823573-10.2080992-24.12823573-29.69629013v-213.44208427c0-10.2080992 1.85601813-17.63217173 6.496064-22.2722176s10.2080992-7.42407253 17.63217173-7.42407253c7.42407253 0 13.92013547 2.78402667 18.56018134 7.42407253 2.78402667 3.71203627 4.6400448 11.1361088 4.64004586 21.344208zM746.322288 535.66423147c0 14.84814507-1.85601813 27.840272-6.49606293 40.83239786s-11.1361088 23.20022613-19.48819094 31.55230827c-8.35208107 9.28009067-18.56018133 15.7761536-30.62429866 20.41619947s-25.05624427 7.42407253-40.83239894 7.42407253c-14.84814507 0-27.840272-2.78402667-39.90438933-7.42407253s-22.2722176-12.06411733-30.62429973-20.41619947-14.84814507-19.48818987-19.48818987-31.55230827c-4.6400448-12.06411733-6.49606293-25.98425387-6.49606293-40.83239786s1.85601813-28.76828053 6.49606293-40.83239894c4.6400448-12.06411733 11.1361088-23.20022613 19.48818987-31.55230826 8.35208107-8.35208107 18.56018133-15.7761536 30.62429973-20.41619947s25.05624427-7.42407253 39.90438933-7.42407253 28.76828053 2.78402667 40.83239894 7.42407253c12.06411733 4.6400448 22.2722176 12.06411733 31.55230826 20.41619947s14.84814507 19.48818987 19.48818987 31.55230826c3.71203627 12.99212693 5.5680544 25.98425387 5.5680544 40.83239894z m-49.18448 0c0-20.41619947-4.6400448-35.26434453-12.99212693-46.40045334-9.28009067-11.1361088-20.41619947-16.7041632-35.26434454-16.7041632-9.28009067 0-17.63217173 2.78402667-25.05624426 7.42407254s-12.99212693 12.06411733-16.7041632 22.2722176c-3.71203627 9.28009067-5.5680544 21.344208-5.5680544 34.33633493 0 12.99212693 1.85601813 24.12823573 5.5680544 33.4083264 3.71203627 9.28009067 9.28009067 16.7041632 16.7041632 22.2722176 7.42407253 4.6400448 15.7761536 7.42407253 25.98425386 7.42407253 14.84814507 0 26.9122624-5.5680544 35.26434454-16.7041632 7.42407253-12.06411733 12.06411733-27.840272 12.06411733-47.32846186z" fill="#3C3D3D" p-id="14172"></path><path d="M791.7947328 413.16703467c-6.49606293 0-12.99212693-1.85601813-17.6321728-6.49606294s-7.42407253-10.2080992-7.42407253-17.6321728c0-6.49606293 2.78402667-12.99212693 7.42407253-17.63217173s11.1361088-6.49606293 17.6321728-6.496064 12.06411733 1.85601813 16.7041632 6.496064c4.6400448 3.71203627 7.42407253 10.2080992 7.42407147 17.63217173s-2.78402667 13.92013547-7.42407147 17.6321728c-4.6400448 3.71203627-10.2080992 6.49606293-16.7041632 6.49606294z m24.12823467 50.1124896v141.98538666c0 10.2080992-2.78402667 17.63217173-7.42407147 22.2722176s-10.2080992 7.42407253-17.6321728 7.42407254-12.99212693-2.78402667-17.63217173-7.42407254c-4.6400448-5.5680544-6.49606293-12.99212693-6.496064-22.2722176V465.1355424c0-9.28009067 1.85601813-16.7041632 6.496064-22.2722176 4.6400448-4.6400448 10.2080992-7.42407253 17.63217173-7.42407253s12.99212693 2.78402667 17.6321728 7.42407253c4.6400448 5.5680544 7.42407253 12.06411733 7.42407147 20.41619947zM1006.1648256 570.928576c0 13.92013547-3.71203627 25.05624427-10.2080992 35.26434347-6.49606293 9.28009067-16.7041632 16.7041632-28.7682816 22.2722176-12.99212693 4.6400448-28.76828053 7.42407253-47.32846187 7.42407253-17.63217173 0-32.4803168-2.78402667-45.47244373-8.35208107s-22.2722176-12.06411733-27.840272-20.41619946c-5.5680544-8.35208107-9.28009067-15.7761536-9.28009067-24.12823574 0-5.5680544 1.85601813-10.2080992 5.5680544-13.92013546s8.35208107-5.5680544 14.84814507-5.5680544c5.5680544 0 9.28009067 0.92800853 12.06411733 3.71203626s5.5680544 6.49606293 8.35208214 10.2080992c4.6400448 8.35208107 11.1361088 14.84814507 17.63217173 19.48818987 7.42407253 4.6400448 16.7041632 6.49606293 28.7682816 6.496064 10.2080992 0 17.63217173-1.85601813 24.12823467-6.496064 6.49606293-4.6400448 9.28009067-9.28009067 9.28009066-14.84814507 0-8.35208107-3.71203627-14.84814507-10.2080992-18.56018026-6.49606293-3.71203627-17.63217173-7.42407253-32.4803168-11.1361088-16.7041632-4.6400448-30.62429867-8.35208107-40.83239893-12.99212694-10.2080992-4.6400448-19.48818987-11.1361088-25.05624533-18.56018133-6.49606293-7.42407253-9.28009067-16.7041632-9.28009067-27.840272 0-10.2080992 2.78402667-19.48818987 9.28009067-27.840272 5.5680544-8.35208107 14.84814507-15.7761536 25.98425386-21.344208 11.1361088-5.5680544 25.05624427-7.42407253 41.76040854-7.42407253 12.99212693 0 24.12823573 0.92800853 34.33633493 3.71203626 10.2080992 2.78402667 18.56018133 6.49606293 25.05624427 10.2080992 6.49606293 4.6400448 12.06411733 9.28009067 15.77615466 14.84814507s5.5680544 11.1361088 5.5680544 15.7761536c0 5.5680544-1.85601813 10.2080992-5.5680544 13.92013653s-9.28009067 5.5680544-15.77615466 5.5680544c-4.6400448 0-9.28009067-1.85601813-12.99212694-4.64004586s-7.42407253-7.42407253-12.06411733-12.99212694c-3.71203627-4.6400448-8.35208107-8.35208107-12.99212693-11.1361088-4.6400448-2.78402667-12.06411733-4.6400448-20.41619947-4.6400448-9.28009067 0-16.7041632 1.85601813-22.2722176 5.5680544-5.5680544 3.71203627-9.28009067 8.35208107-9.28009067 13.92013547s1.85601813 9.28009067 6.496064 12.99212693 10.2080992 5.5680544 17.63217174 8.35208214c7.42407253 1.85601813 17.63217173 4.6400448 30.62429866 8.35208106 14.84814507 3.71203627 27.840272 8.35208107 37.12036267 12.99212694 9.28009067 5.5680544 16.7041632 11.1361088 22.2722176 18.56018133 3.71203627 6.49606293 5.5680544 14.84814507 5.5680544 23.2002272z" fill="#E05A50" p-id="14173"></path></svg>