<?xml version="1.0" standalone="no"?><!DOCTYPE svg PUBLIC "-//W3C//DTD SVG 1.1//EN" "http://www.w3.org/Graphics/SVG/1.1/DTD/svg11.dtd"><svg t="1615344471023" class="icon" viewBox="0 0 1024 1024" version="1.1" xmlns="http://www.w3.org/2000/svg" p-id="5820" xmlns:xlink="http://www.w3.org/1999/xlink" width="200" height="200"><defs><style type="text/css"></style></defs><path d="M221.997 589.489L179.31 431.727 135.692 589.49c-3.712 12.064-5.568 20.416-8.352 25.984s-5.568 10.208-10.208 13.92-11.136 6.496-19.488 6.496c-6.496 0-12.064-0.928-16.704-3.712s-7.424-5.568-10.208-10.208-4.64-10.208-6.496-15.776c-1.856-6.496-2.784-12.064-4.64-17.632L15.979 411.31c-2.784-10.208-3.712-18.56-3.712-23.2a25.353 25.353 0 0 1 25.056-25.056c9.28 0 16.705 2.784 19.489 9.28 3.712 6.496 6.496 14.848 8.352 26.912L99.5 553.297l38.976-143.842c2.784-11.136 5.568-19.488 7.424-25.056s5.568-11.136 11.137-14.848c5.568-4.64 12.064-6.496 21.344-6.496s15.776 1.856 21.344 6.496c4.64 4.64 8.352 9.28 10.208 13.92 1.856 5.568 4.64 13.92 7.424 25.984l38.977 143.841 34.336-154.05c1.856-8.351 3.712-13.92 4.64-18.56 1.856-4.64 3.712-8.351 7.424-12.063s9.28-5.568 15.776-5.568 12.992 1.856 17.632 6.496 7.424 10.208 7.424 17.632c0 4.64-0.928 12.992-3.712 23.2l-43.616 177.25c-2.784 12.064-5.568 20.416-7.424 25.984-1.856 5.568-5.568 10.208-10.208 14.848s-11.136 6.496-20.416 6.496c-8.353 0-14.849-1.856-19.489-6.496-4.64-3.712-8.352-8.352-10.208-13.92s-3.712-12.992-6.496-25.056zM406.671 392.75v73.313c6.496-7.425 12.064-12.993 18.56-16.705 5.568-4.64 12.064-7.424 19.488-9.28s14.848-2.784 23.2-2.784c12.065 0 23.2 2.784 33.409 8.352 9.28 5.568 17.632 12.992 23.2 23.2 3.712 5.569 5.568 12.065 7.424 19.489 0.928 7.424 1.856 15.776 1.856 25.056v93.729c0 10.208-1.856 17.632-6.496 22.272s-10.208 7.424-17.632 7.424c-15.776 0-24.128-10.208-24.128-29.696v-82.593c0-15.776-2.784-27.84-7.424-36.192s-13.92-12.992-26.913-12.992c-8.352 0-16.704 2.784-23.2 7.424-7.424 4.64-12.064 12.064-15.776 20.416-2.784 7.424-3.712 20.416-3.712 38.976v64.96c0 9.281-1.856 16.705-6.496 22.273-4.64 4.64-10.208 7.424-18.56 7.424-15.776 0-24.128-10.208-24.128-29.696V393.679c0-10.208 1.856-17.632 6.496-22.272s10.208-7.424 17.632-7.424c7.424 0 13.92 2.784 18.56 7.424 2.784 3.712 4.64 11.136 4.64 21.344z m339.651 142.913c0 14.848-1.856 27.84-6.496 40.833s-11.136 23.2-19.488 31.552c-8.352 9.28-18.56 15.776-30.624 20.416s-25.057 7.424-40.833 7.424c-14.848 0-27.84-2.784-39.904-7.424s-22.272-12.064-30.624-20.416-14.848-19.488-19.489-31.552c-4.64-12.064-6.496-25.985-6.496-40.833s1.856-28.768 6.496-40.832c4.64-12.064 11.137-23.2 19.489-31.552 8.352-8.353 18.56-15.777 30.624-20.417s25.056-7.424 39.904-7.424 28.769 2.784 40.833 7.424c12.064 4.64 22.272 12.064 31.552 20.417s14.848 19.488 19.488 31.552c3.712 12.992 5.568 25.984 5.568 40.832z m-49.184 0c0-20.416-4.64-35.264-12.992-46.4-9.28-11.136-20.417-16.704-35.265-16.704-9.28 0-17.632 2.784-25.056 7.424s-12.992 12.064-16.704 22.272c-3.712 9.28-5.568 21.344-5.568 34.336 0 12.992 1.856 24.128 5.568 33.409 3.712 9.28 9.28 16.704 16.704 22.272 7.424 4.64 15.776 7.424 25.984 7.424 14.848 0 26.913-5.568 35.265-16.704 7.424-12.064 12.064-27.84 12.064-47.329z" fill="#3C3D3D" p-id="5821"></path><path d="M791.795 413.167c-6.496 0-12.992-1.856-17.632-6.496s-7.425-10.208-7.425-17.632c0-6.496 2.785-12.992 7.425-17.632s11.136-6.496 17.632-6.496 12.064 1.856 16.704 6.496c4.64 3.712 7.424 10.208 7.424 17.632s-2.784 13.92-7.424 17.632c-4.64 3.712-10.208 6.496-16.704 6.496z m24.128 50.113v141.985c0 10.208-2.784 17.632-7.424 22.272s-10.208 7.424-17.632 7.424-12.992-2.784-17.632-7.424c-4.64-5.568-6.497-12.992-6.497-22.272v-140.13c0-9.28 1.857-16.704 6.497-22.272 4.64-4.64 10.208-7.424 17.632-7.424s12.992 2.784 17.632 7.424c4.64 5.568 7.424 12.064 7.424 20.417z m190.242 107.649c0 13.92-3.712 25.056-10.208 35.264-6.496 9.28-16.704 16.704-28.769 22.272-12.992 4.64-28.768 7.424-47.328 7.424-17.632 0-32.48-2.784-45.472-8.352s-22.273-12.064-27.84-20.416c-5.569-8.352-9.28-15.776-9.28-24.128 0-5.568 1.855-10.208 5.567-13.92s8.352-5.568 14.848-5.568c5.568 0 9.28 0.928 12.064 3.712s5.569 6.496 8.353 10.208c4.64 8.352 11.136 14.848 17.632 19.488 7.424 4.64 16.704 6.496 28.768 6.496 10.208 0 17.632-1.856 24.128-6.496 6.496-4.64 9.28-9.28 9.28-14.848 0-8.352-3.712-14.848-10.208-18.56-6.496-3.713-17.632-7.425-32.48-11.137-16.704-4.64-30.624-8.352-40.832-12.992-10.209-4.64-19.489-11.136-25.057-18.56-6.496-7.424-9.28-16.704-9.28-27.84 0-10.208 2.784-19.488 9.28-27.84 5.568-8.353 14.848-15.777 25.985-21.345 11.136-5.568 25.056-7.424 41.76-7.424 12.992 0 24.128 0.928 34.336 3.712 10.208 2.784 18.56 6.496 25.057 10.208 6.496 4.64 12.064 9.28 15.776 14.849s5.568 11.136 5.568 15.776c0 5.568-1.856 10.208-5.568 13.92s-9.28 5.568-15.776 5.568c-4.64 0-9.28-1.856-12.993-4.64s-7.424-7.424-12.064-12.992c-3.712-4.64-8.352-8.352-12.992-11.136-4.64-2.784-12.064-4.64-20.416-4.64-9.28 0-16.704 1.856-22.272 5.568-5.568 3.712-9.28 8.352-9.28 13.92s1.856 9.28 6.496 12.992 10.208 5.568 17.632 8.352c7.424 1.856 17.632 4.64 30.624 8.352 14.848 3.712 27.84 8.352 37.12 12.992 9.28 5.568 16.705 11.136 22.273 18.56 3.712 6.496 5.568 14.848 5.568 23.2z" fill="#E05A50" p-id="5822"></path></svg>