<?xml version="1.0" standalone="no"?><!DOCTYPE svg PUBLIC "-//W3C//DTD SVG 1.1//EN" "http://www.w3.org/Graphics/SVG/1.1/DTD/svg11.dtd"><svg t="1566286062478" class="icon" viewBox="0 0 1024 1024" version="1.1" xmlns="http://www.w3.org/2000/svg" p-id="22116" xmlns:xlink="http://www.w3.org/1999/xlink" width="200" height="200"><defs><style type="text/css"></style></defs><path d="M677.724115 6.676188H151.89487C137.27084 6.676188 129.640912 9.219497 129.640912 31.791369v964.55014c0 6.358274 7.629929 27.658491 22.253958 27.658491h726.114871c14.62403 0 14.62403-21.300217 14.62403-27.658491v-762.99286c0-12.716548 4.132878-16.849426 0-19.710648L685.989871 6.676188c-2.861223-2.861223-4.132878 0-8.265756 0z" fill="#E9E9E0" p-id="22117"></path><path d="M66.058173 578.920832m61.675256 0l766.807824 0q61.675256 0 61.675256 61.675256l0 226.354548q0 61.675256-61.675256 61.675257l-766.807824 0q-61.675256 0-61.675256-61.675257l0-226.354548q0-61.675256 61.675256-61.675256Z" fill="#22B573" p-id="22118"></path><path d="M385.561433 879.985098H330.880278l-38.78547-71.848494A61.357342 61.357342 0 0 1 288.597757 794.784229a97.599503 97.599503 0 0 1-5.086619 14.624029l-40.375039 70.57684H187.819117L256.806388 771.576529l-63.582738-108.090655h56.906551L282.239483 731.20149a111.587706 111.587706 0 0 1 6.676188 17.803167H288.597757q2.861223-8.901583 6.994101-18.438994l35.606334-65.490221H383.971865l-65.490221 105.86526zM610.326413 879.985098v-131.298355q0-18.12108 1.907482-45.779571a239.38901 239.38901 0 0 1-6.676187 27.976405l-53.409501 149.101521h-38.149643L459.953237 731.20149a295.977647 295.977647 0 0 1-6.676188-29.248059q1.907482 27.340577 1.907483 54.681155v122.396771h-42.918349v-215.545483H479.345972L525.761371 794.784229a157.049364 157.049364 0 0 1 7.947842 31.791369 319.821174 319.821174 0 0 1 9.219497-31.791369l46.733313-130.344614h65.172307v216.499224zM833.183911 879.985098h-127.165477v-216.499224h46.097485v178.667495h80.750078z" fill="#FFFFFF" p-id="22119"></path><path d="M687.57944 505.800683h-97.28159l-68.987271-127.165477a107.772741 107.772741 0 0 1-7.629928-25.115181 175.170444 175.170444 0 0 1-8.901584 25.751009l-69.305184 127.165476H336.284811l123.350512-192.337783-112.85936-190.748215H447.554603l57.224464 117.628066a201.55728 201.55728 0 0 1 12.080721 31.791369q5.086619-15.577771 12.716547-31.791369l63.582739-116.356411h91.559143l-116.356411 190.748215z" fill="#22B573" p-id="22120"></path><path d="M701.885556 0v229.215771h202.511021z" fill="#D9D7CA" p-id="22121"></path></svg>