<svg viewBox="0 0 1024 1024" xmlns="http://www.w3.org/2000/svg" width="200" height="200"><path d="M677.724 6.676h-525.83c-14.623 0-22.253 2.543-22.253 25.115v964.55c0 6.359 7.63 27.659 22.254 27.659H878.01c14.624 0 14.624-21.3 14.624-27.658V233.349c0-12.717 4.133-16.85 0-19.711L685.99 6.676c-2.861-2.861-4.133 0-8.266 0z" fill="#E9E9E0"/><path d="M127.733 578.92h766.808q61.676 0 61.676 61.676v226.355q0 61.675-61.676 61.675H127.733q-61.675 0-61.675-61.675V640.596q0-61.675 61.675-61.675z" fill="#22B573"/><path d="M385.561 879.985h-54.68l-38.786-71.848a61.357 61.357 0 0 1-3.497-13.353 97.6 97.6 0 0 1-5.087 14.624l-40.375 70.577H187.82l68.987-108.408-63.582-108.091h56.906l32.11 67.715a111.588 111.588 0 0 1 6.676 17.804h-.318q2.861-8.902 6.994-18.44l35.606-65.49h52.774l-65.49 105.866zm224.765 0V748.687q0-18.121 1.908-45.78a239.389 239.389 0 0 1-6.676 27.977l-53.41 149.101h-38.15l-54.045-148.784a295.978 295.978 0 0 1-6.676-29.248q1.908 27.341 1.908 54.682V879.03h-42.919V663.486h67.08l46.415 131.298a157.05 157.05 0 0 1 7.948 31.792 319.821 319.821 0 0 1 9.22-31.792l46.733-130.344h65.172v216.499zm222.858 0H706.018v-216.5h46.098v178.668h80.75z" fill="#FFF"/><path d="M687.58 505.8h-97.282L521.31 378.636a107.773 107.773 0 0 1-7.63-25.115 175.17 175.17 0 0 1-8.902 25.751l-69.305 127.166h-99.19L459.634 314.1 346.776 123.35h100.779l57.224 117.628a201.557 201.557 0 0 1 12.08 31.79q5.087-15.577 12.717-31.79l63.583-116.357h91.56L568.361 315.37z" fill="#22B573"/><path d="M701.886 0v229.216h202.51z" fill="#D9D7CA"/></svg>