<svg viewBox="0 0 1075 1024" xmlns="http://www.w3.org/2000/svg" width="209.961" height="200"><path d="M521.726 337.676h-61.849c-32.42 61.35-64.343 111.228-71.326 121.702l-14.464 22.944-14.964-22.944c-6.983-10.474-38.905-60.352-71.326-121.702h-77.31l-19.952 168.09 414.987-9.976zM737.7 498.782a867.881 867.881 0 0 1 191.034 87.287V365.607S663.38 480.827 737.699 498.782zm66.837-116.715c0-7.482-214.975-41.897-214.975-41.897l82.797 134.67a1282.37 1282.37 0 0 0 132.178-92.773zM356.13 535.193H172.08l-45.888 158.114h153.126l76.813-158.114zm92.773 28.431A268.844 268.844 0 0 0 331.69 670.862a315.73 315.73 0 0 1 232.433 220.96H794.56a862.893 862.893 0 0 1 166.593-202.505S811.52 536.191 641.434 536.191a498.782 498.782 0 0 0-192.53 27.433z" fill="#3FA9F5"/><path d="m131.18 736.203-3.492 82.299 276.824 3.491 118.71 49.38-118.71-135.17H131.18z" fill="#3FA9F5"/><path d="M1009.037 309.744a42.895 42.895 0 0 0-42.397-37.908H470.85a337.676 337.676 0 0 0 40.402-119.707 137.165 137.165 0 0 0-274.33 0 337.676 337.676 0 0 0 40.4 119.707H156.12a42.895 42.895 0 0 0-42.397 34.915L10.474 873.368a42.895 42.895 0 0 0 42.397 49.878h384.561a1904.35 1904.35 0 0 0 370.595 85.292 42.396 42.396 0 0 0 24.44-7.98 1488.865 1488.865 0 0 0 220.462-199.514 42.895 42.895 0 0 0 10.475-33.917zM265.85 152.129a108.236 108.236 0 1 1 216.97 0c0 46.885-69.83 171.082-108.236 234.427-38.905-63.345-108.734-187.043-108.734-234.427zM850.424 933.72l-262.36-6.484c-68.832-18.455-126.69-36.91-138.661-40.9a40.401 40.401 0 0 0-12.969 0H52.871l-2.993-5.487 103.248-566.616a3.491 3.491 0 0 1 3.492-2.494h142.651c28.93 53.37 57.86 99.756 64.343 110.23l11.971 18.955 11.97-18.954c5.986-9.976 35.414-56.363 64.344-110.231H966.64a3.491 3.491 0 0 1 3.492 2.993l49.878 408.004A538.186 538.186 0 0 0 850.424 933.72z" fill="#3FA9F5"/></svg>