<?xml version="1.0" standalone="no"?><!DOCTYPE svg PUBLIC "-//W3C//DTD SVG 1.1//EN" "http://www.w3.org/Graphics/SVG/1.1/DTD/svg11.dtd"><svg t="1611738956249" class="icon" viewBox="0 0 1024 1024" version="1.1" xmlns="http://www.w3.org/2000/svg" p-id="24631" xmlns:xlink="http://www.w3.org/1999/xlink" width="200" height="200"><defs><style type="text/css"></style></defs><path d="M847.872 240.128v688.128c0 26.624-21.504 48.128-48.128 48.128H223.744c-26.624 0-48.128-21.504-48.128-48.128V96.256c0-26.624 21.504-48.128 48.128-48.128h432.128l192 192z" fill="#E9EDED" p-id="24632"></path><path d="M159.744 768v159.744c0 35.328 28.672 64 64 64h576c35.328 0 64-28.672 64-64V768H159.744zM847.872 240.128h-143.872c-26.624 0-48.128-21.504-48.128-48.128V48.128M487.936 320c-8.192 0-14.848 6.144-15.872 14.336l-3.072 26.624c-3.584 1.536-7.68 3.072-11.264 4.608l-20.992-16.384c-6.144-5.12-15.36-4.608-21.504 1.024L381.952 384c-5.632 5.632-6.144 14.848-1.024 21.504l16.384 20.992c-1.536 3.584-3.072 7.168-4.608 11.264l-26.624 2.56c-8.192 1.024-14.336 7.68-14.336 15.872v48.128c0 8.192 6.144 14.848 14.336 15.872l26.624 3.072c1.536 3.584 3.072 7.68 4.608 11.264l-16.384 20.992c-5.12 6.144-4.608 15.36 1.024 21.504l33.792 33.792c5.632 5.632 14.848 6.144 20.992 1.024l20.992-16.384c3.584 1.536 7.168 3.072 11.264 4.608l3.072 26.624c1.024 8.192 7.68 14.336 15.872 14.336h48.128c8.192 0 14.848-6.144 15.872-14.336l3.072-26.624c3.584-1.536 7.68-3.072 11.264-4.608l20.992 16.896c6.144 5.12 15.36 4.608 21.504-1.024l33.792-33.792c5.632-5.632 6.144-14.848 1.024-21.504l-16.384-20.992c1.536-3.584 3.072-7.168 4.608-11.264l26.624-3.072c8.192-1.024 14.336-7.68 14.336-15.872v-48.128c0-8.192-6.144-14.848-14.336-15.872l-26.624-3.072c-1.536-3.584-3.072-7.68-4.608-11.264l16.384-20.992c5.12-6.144 4.608-15.36-1.024-21.504l-33.792-33.792c-5.632-5.632-14.848-6.144-21.504-1.024l-20.992 16.384c-3.584-1.536-7.168-3.072-11.264-4.608l-3.072-26.624c-1.024-8.192-7.68-14.336-15.872-14.336h-48.128z m14.336 32.256h19.456l2.56 21.504c0.512 6.656 5.632 11.776 11.776 13.824 8.704 2.048 16.896 5.632 24.576 10.24 5.632 3.584 12.8 3.072 17.92-1.536l16.896-13.312 13.824 13.824-13.312 16.896c-4.096 5.12-4.608 12.288-1.024 17.92 4.608 7.68 8.192 15.872 10.24 24.576 1.536 6.656 7.168 11.264 13.824 11.776l21.504 2.56v19.456l-21.504 2.56c-6.656 0.512-11.776 5.632-13.824 11.776-2.048 8.704-5.632 16.896-10.24 24.576-3.584 5.632-3.072 12.8 1.536 17.92l13.312 16.896-13.824 13.824-16.896-13.312c-5.12-4.096-12.288-4.608-17.92-1.024-7.68 4.608-15.872 8.192-24.576 10.24-6.656 1.536-11.264 7.168-11.776 13.824l-2.56 21.504h-19.456l-2.56-21.504c-0.512-6.656-5.632-11.776-11.776-13.824-8.704-2.048-16.896-5.632-24.576-10.24-5.632-3.584-12.8-2.56-17.92 1.536l-16.896 13.312-13.824-13.824 13.312-16.896c4.096-5.12 4.608-12.288 1.024-17.92-4.608-7.68-8.192-15.872-10.24-24.576-1.536-6.656-7.168-11.264-13.824-11.776l-21.504-3.584v-19.456l21.504-2.56c6.656-0.512 11.776-5.632 13.824-11.776 2.048-8.704 5.632-16.896 10.24-24.576 3.584-5.632 3.072-12.8-1.024-17.92L414.72 396.288l13.824-13.824 16.896 13.312c5.12 4.096 12.288 4.608 17.92 1.024 7.68-4.608 15.872-8.192 24.576-10.24 6.656-1.536 11.264-7.168 11.776-13.824l2.56-20.48z m9.728 63.488c-35.328 0-64 28.672-64 64s28.672 64 64 64 64-28.672 64-64-28.672-64-64-64z m0 32.256c17.92 0 31.744 14.336 31.744 31.744s-14.336 31.744-31.744 31.744c-17.92 0-31.744-14.336-31.744-31.744s13.824-31.744 31.744-31.744z" fill="#34485C" p-id="24633"></path><path d="M271.36 799.744c-8.704 0-15.872 7.168-15.872 16.384V947.2c0 0.512 0.512 1.024 0.512 1.536 0 0.512 0.512 1.024 0.512 1.536 0 0.512 0.512 1.024 1.024 1.536 0 0.512 0.512 1.024 1.024 1.536 0.512 0.512 0.512 1.024 1.024 1.536 0.512 0.512 0.512 1.024 1.024 1.024 0.512 0.512 1.024 0.512 1.024 1.024 0.512 0.512 1.024 0.512 1.024 1.024 1.024 0.512 1.536 1.024 2.56 1.024h0.512c1.536 0.512 3.072 1.024 4.608 1.024h32.768c1.536 0 3.072 0 4.608-0.512 41.984-3.584 75.264-37.376 75.264-79.36s-33.28-75.776-75.264-79.36c-1.536-0.512-3.072-0.512-4.608-0.512h-28.672c-0.512-0.512-1.536-0.512-3.072-0.512z m160.256 0c-8.704 0-15.872 7.168-15.872 16.384V945.152c0.512 5.632 4.608 10.752 10.24 12.8h0.512c1.536 0.512 3.072 1.024 4.608 1.024h64.512c8.704 0 15.872-7.168 15.872-15.872s-7.168-15.872-15.872-15.872h-47.616v-111.616c0-8.704-6.656-15.872-15.872-16.384 0 0.512-0.512 0.512-0.512 0.512z m128 0c-8.704 0-15.872 7.168-15.872 16.384V945.152c0.512 5.632 4.608 10.752 10.24 12.8h0.512c1.536 0.512 3.072 1.024 4.608 1.024h64.512c8.704 0 15.872-7.168 15.872-15.872s-7.168-15.872-15.872-15.872h-48.128v-111.616c0-8.704-6.656-15.872-15.872-16.384 0.512 0.512 0 0.512 0 0.512z m-271.872 32.256h13.824c28.672 0 50.688 21.504 50.688 48.128s-22.016 48.128-50.176 48.128h-13.824c-0.512-0.512-0.512-96.256-0.512-96.256z" fill="#E9EDED" p-id="24634"></path></svg>