<?xml version="1.0" standalone="no"?><!DOCTYPE svg PUBLIC "-//W3C//DTD SVG 1.1//EN" "http://www.w3.org/Graphics/SVG/1.1/DTD/svg11.dtd"><svg t="1611737945940" class="icon" viewBox="0 0 1024 1024" version="1.1" xmlns="http://www.w3.org/2000/svg" p-id="8405" xmlns:xlink="http://www.w3.org/1999/xlink" width="200" height="200"><defs><style type="text/css"></style></defs><path d="M982.92931877 765.63284238c-0.58915875-189.98896828-0.58915875-380.12522626 0-570.40877392-1.3256072-18.61741653 0-39.22324385-11.07618451-55.39565157-15.73053867-11.07618453-35.57045959-10.31027814-53.74600708-11.07618452H596.77994429v-87.65209321h-63.4965844C369.08481593 70.77901125 204.75371125 99.58887419 40.43733557 128.84060619v766.86375948c163.32953479 29.251732 326.76217236 57.28095959 490.53357622 87.21022413h66.48656506v-97.28483878h332.96306822c17.83678119-0.78063534 44.65823333-1.3256072 48.85598945-24.1555088 6.53966213-31.35797454 3.65278426-63.93845347 3.65278425-95.84139984z m-627.92539699-81.89306641c-18.17554747-45.76290599-40.32791651-89.86143852-53.40724079-137.73058706-14.52276322 44.31946705-35.34952507 86.54742053-52.08163361 130.08625225-23.37487345 0-46.86757867-1.3256072-70.24245209-2.32717706 27.46952676-55.39565157 54.07004438-110.80603212 82.43803824-165.42104836-24.15550879-56.39722145-50.53509188-111.68977026-75.35340427-167.86605718l70.58121839-4.10938227c15.96620215 42.89075709 33.24328255 85.1039816 46.54354134 129.08468236 14.84680053-46.64664412 36.11543145-90.42113934 53.96694162-135.40340998 24.30279849-1.76747625 48.56141007-3.28456004 72.79056368-4.55125135-28.58892839 59.90271602-57.35460443 119.77597411-86.31175702 179.60504529 29.36956375 61.27251012 59.50503387 121.88221664 88.63893411 183.59659584l-77.5627496-4.96366248z m595.02088074 168.08699171H596.77994429v-65.70592973h85.64895346v-76.67901146h-85.64895346v-44.31946706h85.64895346V588.88521703h-85.64895346v-43.77449521h85.64895346v-76.78211425h-85.64895346v-44.31946706h85.64895346v-76.11931064h-85.64895346V303.58509178h85.64895346v-76.2371424h-85.64895346v-65.70592973h353.24485823v690.18474803z" fill="#207245" p-id="8406"></path><path d="M725.30492587 227.34794938h149.80834145v76.67901146H725.30492587zM725.30492587 347.90455884h149.80834145v76.67901145H725.30492587v-76.67901145z m0 120.4387777h149.80834145v76.78211424H725.30492587v-76.78211424z m0 120.55660947h149.80834145v76.67901145H725.30492587v-76.67901145z m0 120.55660945h149.80834145v76.67901145H725.30492587v-76.67901145z m0 0" fill="#207245" p-id="8407"></path></svg>