<?xml version="1.0" standalone="no"?><!DOCTYPE svg PUBLIC "-//W3C//DTD SVG 1.1//EN" "http://www.w3.org/Graphics/SVG/1.1/DTD/svg11.dtd"><svg t="1611737808937" class="icon" viewBox="0 0 1024 1024" version="1.1" xmlns="http://www.w3.org/2000/svg" p-id="3834" xmlns:xlink="http://www.w3.org/1999/xlink" width="200" height="200"><defs><style type="text/css"></style></defs><path d="M867.655536 195.961726L699.888303 28.194493C681.891818 10.198008 657.496583 0 632.101543 0H223.981254C170.991603 0.199961 128 43.191564 128 96.181215v831.837531c0 52.98965 42.991603 95.981254 95.981254 95.981254h575.887522c52.98965 0 95.981254-42.991603 95.981253-95.981254V263.948448c0-25.39504-10.198008-49.990236-28.194493-67.986722z m-45.191174 45.391135c4.19918 4.19918 6.998633 9.198203 8.39836 14.79711H639.90002V65.187268c5.598906 1.399727 10.59793 4.19918 14.797109 8.39836l167.767233 167.767233zM799.868776 960.012498H223.981254c-17.596563 0-31.993751-14.397188-31.993752-31.993752V96.181215c0-17.596563 14.397188-31.993751 31.993752-31.993752h351.931263v207.959383c0 26.594806 21.395821 47.990627 47.990627 47.990627h207.959383v607.881273c0 17.596563-14.397188 31.993751-31.993751 31.993752z" p-id="3835"></path></svg>