<?xml version="1.0" standalone="no"?><!DOCTYPE svg PUBLIC "-//W3C//DTD SVG 1.1//EN" "http://www.w3.org/Graphics/SVG/1.1/DTD/svg11.dtd"><svg t="1611738676812" class="icon" viewBox="0 0 1024 1024" version="1.1" xmlns="http://www.w3.org/2000/svg" p-id="3336" xmlns:xlink="http://www.w3.org/1999/xlink" width="200" height="200"><defs><style type="text/css"></style></defs><path d="M677.724115 6.676188H151.89487C137.27084 6.676188 129.640912 9.219497 129.640912 31.791369v964.55014c0 6.358274 7.629929 27.658491 22.253958 27.658491h726.114871c14.62403 0 14.62403-21.300217 14.62403-27.658491v-762.99286c0-12.716548 4.132878-16.849426 0-19.710648L685.989871 6.676188c-2.861223-2.861223-4.132878 0-8.265756 0z" fill="#E9E9E0" p-id="3337"></path><path d="M701.885556 0v229.215771h204.10059z" fill="#D9D7CA" p-id="3338"></path><path d="M66.058173 578.920832m61.675256 0l766.807824 0q61.675256 0 61.675256 61.675256l0 226.354548q0 61.675256-61.675256 61.675257l-766.807824 0q-61.675256 0-61.675256-61.675257l0-226.354548q0-61.675256 61.675256-61.675256Z" fill="#22B573" p-id="3339"></path><path d="M288.597757 879.985098H242.182358v-89.333747h-92.19497v89.333747H103.889903v-216.499224h46.097485v87.426265h92.19497v-87.426265H288.597757zM488.247555 701.317603h-61.993169v178.667495H380.1569v-178.667495H318.481644v-37.831729h169.447998zM715.873758 879.985098v-131.298355q0-18.12108 1.907483-45.779571a239.38901 239.38901 0 0 1-6.676188 27.976405l-53.4095 149.101521h-37.831729L565.500582 731.20149a292.162682 292.162682 0 0 1-6.994101-29.248059q1.907482 27.340577 1.907482 54.681155v122.396771h-42.600434v-215.545483h67.079789L631.308717 794.784229a158.956846 158.956846 0 0 1 7.947842 31.791369 319.821174 319.821174 0 0 1 8.901583-31.791369l46.733313-130.344614h65.172307v216.499224zM939.04917 879.985098h-127.165477v-216.499224h46.097486v178.667495h80.750077z" fill="#FFFFFF" p-id="3340"></path><path d="M674.544979 505.800683h-82.021733v-158.956846H428.479781v158.956846H346.775963V121.125116h81.703818v155.141882h164.043465V121.125116h82.021733z" fill="#22B573" p-id="3341"></path></svg>