<?xml version="1.0" standalone="no"?><!DOCTYPE svg PUBLIC "-//W3C//DTD SVG 1.1//EN" "http://www.w3.org/Graphics/SVG/1.1/DTD/svg11.dtd"><svg t="1611738826840" class="icon" viewBox="0 0 1024 1024" version="1.1" xmlns="http://www.w3.org/2000/svg" p-id="16562" xmlns:xlink="http://www.w3.org/1999/xlink" width="200" height="200"><defs><style type="text/css"></style></defs><path d="M676.297 0H145.61c-14.775 0-26.752 11.977-26.752 35.218v970.496c0 6.309 11.977 18.286 26.752 18.286h732.782c14.775 0 26.752-11.977 26.752-18.286V237.312c0-12.727-1.7-16.823-4.7-19.84L687.671 4.699A16.165 16.165 0 0 0 676.297 0z" fill="#E9E9E0" p-id="16563"></path><path d="M685.714 2.761V219.43h216.668z" fill="#D9D7CA" p-id="16564"></path><path d="M878.39 1024H145.61a26.752 26.752 0 0 1-26.753-26.752V713.143h786.286v284.105c0 14.775-11.977 26.752-26.752 26.752z" fill="#EEAF4B" p-id="16565"></path><path d="M475.813 781.147v143.507c0 8.667-1.591 15.963-4.755 21.87a39.333 39.333 0 0 1-12.745 14.244c-5.34 3.584-11.465 6.09-18.377 7.497s-14.062 2.121-21.376 2.121c-3.675 0-7.973-0.384-12.873-1.133s-10.002-1.902-15.25-3.493-10.295-3.383-15.123-5.376a55.26 55.26 0 0 1-12.251-6.747l12.745-20.243c1.664 1.152 4.041 2.377 7.131 3.62s6.455 2.415 10.13 3.493c3.658 1.098 7.498 2.03 11.502 2.871s7.754 1.244 11.246 1.244c8.814 0 15.872-1.72 21.12-5.12s8.028-9.216 8.375-17.372v-141h30.5z m149.266 137.49c0 6.657-1.372 13.13-4.133 19.384s-6.62 11.757-11.63 16.493-11.172 8.54-18.505 11.374a68.955 68.955 0 0 1-24.996 4.242c-4.005 0-8.119-0.22-12.38-0.621s-8.557-1.134-12.873-2.122c-4.333-1.005-8.466-2.377-12.38-4.132s-7.295-3.877-10.13-6.382l5.249-21.504c2.322 1.335 5.284 2.633 8.868 3.877s7.278 2.413 11.118 3.492a112.158 112.158 0 0 0 11.502 2.633c3.821 0.659 7.405 1.006 10.752 1.006 10.166 0 17.956-2.377 23.369-7.131s8.119-11.795 8.119-21.12c0-5.669-1.92-10.496-5.742-14.5-3.84-4.005-8.631-7.626-14.373-10.88s-11.959-6.492-18.633-9.747a112.878 112.878 0 0 1-18.743-11.502 59.685 59.685 0 0 1-14.5-15.616c-3.84-5.998-5.742-13.495-5.742-22.491 0-8.156 1.5-15.415 4.498-21.742s7.04-11.721 12.124-16.128 11.008-7.79 17.755-10.13 13.879-3.493 21.376-3.493c7.662 0 15.415 0.713 23.241 2.121 7.827 1.408 14.153 3.712 19 6.876a243.383 243.383 0 0 1-3.493 7.131l-3.749 7.241a294.202 294.202 0 0 1-2.999 5.632 23.095 23.095 0 0 1-1.5 2.505c-1.005-0.493-2.12-1.152-3.382-1.993s-3.054-1.664-5.376-2.505a38.528 38.528 0 0 0-9.253-1.755 87.424 87.424 0 0 0-14.756 0.256c-3.347 0.347-6.492 1.28-9.509 2.87s-5.687 3.53-8.009 5.87a26.441 26.441 0 0 0-5.504 7.881 20.114 20.114 0 0 0-1.993 8.375c0 6.656 1.902 12.032 5.742 16.128 3.821 4.096 8.576 7.662 14.244 10.752 5.669 3.09 11.813 6.09 18.505 8.997 6.656 2.907 12.873 6.473 18.633 10.624s10.533 9.38 14.373 15.616c3.877 6.254 5.815 14.281 5.815 24.119z" fill="#FFFFFF" p-id="16566"></path><path d="M356.571 347.429v-73.143c0-10.076 8.192-18.286 18.286-18.286a18.286 18.286 0 1 0 0-36.571c-30.244 0-54.857 24.612-54.857 54.857v73.143C320 367.598 303.598 384 283.429 384a18.286 18.286 0 1 0 0 36.571c20.169 0 36.571 16.403 36.571 36.572v73.143c0 30.244 24.613 54.857 54.857 54.857a18.286 18.286 0 1 0 0-36.572c-10.094 0-18.286-8.21-18.286-18.285v-73.143c0-21.943-9.91-41.436-25.27-54.857a72.686 72.686 0 0 0 25.27-54.857zM475.429 338.286a27.429 27.429 0 1 0 54.857 0 27.429 27.429 0 1 0-54.857 0zM722.286 384c-20.17 0-36.572-16.402-36.572-36.571v-73.143c0-30.245-24.612-54.857-54.857-54.857a18.286 18.286 0 1 0 0 36.571c10.094 0 18.286 8.21 18.286 18.286v73.143c0 21.942 9.91 41.435 25.27 54.857a72.686 72.686 0 0 0-25.27 54.857v73.143c0 10.075-8.192 18.285-18.286 18.285a18.286 18.286 0 1 0 0 36.572c30.245 0 54.857-24.613 54.857-54.857v-73.143c0-20.17 16.403-36.572 36.572-36.572a18.286 18.286 0 1 0 0-36.571z m-219.429 54.857a18.286 18.286 0 0 0-18.286 18.286V512a18.286 18.286 0 1 0 36.572 0v-54.857a18.286 18.286 0 0 0-18.286-18.286z" fill="#EEAF4B" p-id="16567"></path></svg>