<?xml version="1.0" standalone="no"?><!DOCTYPE svg PUBLIC "-//W3C//DTD SVG 1.1//EN" "http://www.w3.org/Graphics/SVG/1.1/DTD/svg11.dtd"><svg t="1611738286002" class="icon" viewBox="0 0 1024 1024" version="1.1" xmlns="http://www.w3.org/2000/svg" p-id="36093" xmlns:xlink="http://www.w3.org/1999/xlink" width="200" height="200"><defs><style type="text/css"></style></defs><path d="M672.768 0v198.144c0 21.504 14.848 78.848 82.944 78.848h173.568L672.768 0z" fill="#5DC9FB" p-id="36094"></path><path d="M748.544 300.544c-78.336 0-95.232-66.048-95.232-90.624V0H152.576c-33.792 0-61.44 27.648-61.44 61.44v901.12c0 33.792 27.648 61.44 61.44 61.44h719.36c33.792 0 61.44-27.648 61.44-61.44V300.544h-184.832z m-72.704 199.68l-110.08-61.952v208.896h-0.512c-1.536 37.376-32.768 70.656-79.36 81.408-57.856 13.312-118.272-13.312-135.168-59.904 0-0.512-0.512-1.024-0.512-1.536-16.384-46.08 17.408-93.696 75.264-106.496 28.672-6.656 57.344-3.584 81.408 6.656 5.12 2.048 10.752-1.536 10.752-7.168V318.976h19.456c1.024 0 2.56 0.512 3.584 0.512 2.048 0 3.584 0 5.632 0.512 57.856 9.728 84.992 44.544 99.328 60.928 43.52 50.176 30.208 119.296 30.208 119.296z" fill="#5DC9FB" p-id="36095"></path></svg>