<?xml version="1.0" standalone="no"?><!DOCTYPE svg PUBLIC "-//W3C//DTD SVG 1.1//EN" "http://www.w3.org/Graphics/SVG/1.1/DTD/svg11.dtd"><svg t="1611737864733" class="icon" viewBox="0 0 1024 1024" version="1.1" xmlns="http://www.w3.org/2000/svg" p-id="5078" xmlns:xlink="http://www.w3.org/1999/xlink" width="200" height="200"><defs><style type="text/css"></style></defs><path d="M721.92 0l225.28 225.28V972.8a51.2 51.2 0 0 1-51.2 51.2h-768a51.2 51.2 0 0 1-51.2-51.2V51.2a51.2 51.2 0 0 1 51.2-51.2h593.92z" fill="#FF5562" p-id="5079"></path><path d="M721.92 0l225.28 225.28h-225.28z" fill="#FF9292" p-id="5080"></path><path d="M733.696 663.552a217.856 217.856 0 0 1-126.3104-51.3024A1221.7856 1221.7856 0 0 0 404.48 677.2224C351.488 771.328 302.08 819.2 259.328 819.2c-8.4992 0-18.7904-1.6384-25.6-6.912A50.176 50.176 0 0 1 204.8 766.0544c0-15.36 3.328-58.2144 165.4784-128.2048a1216.3584 1216.3584 0 0 0 90.4192-212.1728c-20.3776-40.96-64.768-141.9776-34.1504-193.3312 10.2912-18.8416 30.72-29.0304 52.992-27.392 17.408 0.2048 33.792 8.3968 44.3904 22.3232 22.1184 30.8224 20.3776 95.744-8.5504 191.488a516.5056 516.5056 0 0 0 105.7792 136.96c35.84-6.912 71.5776-11.9808 107.52-11.9808 80.0768 1.6384 92.1088 39.3216 90.368 61.44 0 58.368-56.4224 58.368-85.3504 58.368zM256 769.536l5.12-1.6384c23.808-8.5504 42.6496-25.6 56.2176-47.9232-25.6 10.3424-45.9776 27.2384-61.3376 49.5616zM482.816 256.4608h-5.0176c-1.7408 0-5.2224 0-6.8096 1.6384-6.8096 29.0304-1.7408 59.8528 10.24 87.2448 9.8304-28.672 10.4448-59.904 1.6384-88.8832z m12.032 247.9104l-1.7408 3.4304-1.7408-1.792c-15.36 39.3728-32.4096 78.6944-51.2 116.224l3.328-1.5872v3.4304c37.888-13.7728 76.6464-25.088 116.0192-34.304l-1.5872-1.5872h5.2224A511.0784 511.0784 0 0 1 494.848 504.32z m232.0384 90.6752c-15.36 0-28.928 0-44.2368 3.4304a141.824 141.824 0 0 0 51.2 13.6192c12.032 1.6384 23.8592 0 34.1504-3.4304-0.1536-4.9152-6.9632-13.6192-41.1136-13.6192z" fill="#FFFFFF" p-id="5081"></path></svg>