<?xml version="1.0" standalone="no"?><!DOCTYPE svg PUBLIC "-//W3C//DTD SVG 1.1//EN" "http://www.w3.org/Graphics/SVG/1.1/DTD/svg11.dtd"><svg t="1611737910040" class="icon" viewBox="0 0 1024 1024" version="1.1" xmlns="http://www.w3.org/2000/svg" p-id="6685" xmlns:xlink="http://www.w3.org/1999/xlink" width="200" height="200"><defs><style type="text/css"></style></defs><path d="M601.720471 0v106.616471c123.783529 0.722824 247.657412-1.295059 371.410823 0A40.508235 40.508235 0 0 1 1017.976471 152.545882c2.048 221.304471 0 442.729412 1.204705 664.154353-1.204706 23.943529 2.258824 50.416941-11.143529 71.890824-16.896 11.956706-38.851765 10.902588-58.729412 11.956706-115.712-0.602353-231.454118 0-347.437176 0v117.910588h-71.890824C353.340235 985.961412 176.609882 955.873882 0 924.16V94.991059C178.657882 63.397647 357.285647 31.171765 536.064 0h65.656471zM983.642353 142.215529H601.750588l0.240941 118.362353c18.913882-4.186353 37.857882-8.252235 56.922353-11.956706 1.144471 38.550588 1.114353 77.161412 0.993883 115.802353l-0.060236 38.640942h152.395295c-3.824941 51.139765-26.955294 102.430118-71.288471 129.385411-38.821647 26.684235-87.732706 28.400941-131.794824 16.203294l-7.28847-2.16847v69.601882h277.714823v46.742588H601.750588v59.904h277.835294v47.314824H601.750588v94.780235H983.642353V142.215529z m-797.967059 170.767059a14757.647059 14757.647059 0 0 0-0.301176 303.887059l0.903529 75.896471 68.909177 5.872941v-138.992941c28.491294 1.084235 58.699294 2.891294 84.931764-10.902589 73.938824-37.014588 87.100235-150.949647 37.25553-213.022117-52.705882-48.188235-128.783059-19.636706-191.698824-22.768941z m135.168 80.715294c12.649412 24.274824 13.221647 53.037176 1.536 77.763765-13.161412 23.973647-43.008 21.925647-66.138353 24.816941-2.409412-39.664941-2.138353-79.329882-1.807059-119.235764 22.799059-0.933647 51.049412-5.270588 66.409412 16.655058z m362.074353-170.134588a164.864 164.864 0 0 1 152.395294 155.768471c-50.808471 0.602353-101.586824 0-152.515765 0 0.120471-52.103529 0.120471-103.755294 0.120471-155.768471z" fill="#D24625" p-id="6686"></path></svg>