<?xml version="1.0" standalone="no"?><!DOCTYPE svg PUBLIC "-//W3C//DTD SVG 1.1//EN" "http://www.w3.org/Graphics/SVG/1.1/DTD/svg11.dtd"><svg t="1611738581995" class="icon" viewBox="0 0 1024 1024" version="1.1" xmlns="http://www.w3.org/2000/svg" p-id="55895" xmlns:xlink="http://www.w3.org/1999/xlink" width="200" height="200"><defs><style type="text/css"></style></defs><path d="M860.730514 183.6032l-145.905371-124.225829c-10.971429-10.971429-22.718171-21.591771-38.224457-21.591771L196.593371 37.7856c-32.314514 0-56.407771 20.48-56.407771 52.794514l0 833.828571c0 32.314514 24.093257 49.605486 56.407771 49.605486l629.028571 0c32.314514 0 45.992229-17.290971 45.992229-49.605486L871.614171 224.9728C871.614171 209.451886 871.7312 194.574629 860.730514 183.6032zM819.902171 213.328457l-123.830857 0L696.071314 104.886857 819.902171 213.328457zM198.699886 915.499886l0-819.2 468.114286 0L666.814171 234.057143c0 8.0896 18.753829 8.528457 26.8288 8.528457l119.456914 0 0 672.914286L198.699886 915.499886z" p-id="55896"></path><path d="M313.300114 330.357029l146.285714 0c8.074971 0 14.628571-6.538971 14.628571-14.628571s-6.5536-14.628571-14.628571-14.628571l-146.285714 0c-8.074971 0-14.628571 6.538971-14.628571 14.628571S305.225143 330.357029 313.300114 330.357029z" p-id="55897"></path><path d="M693.642971 301.099886l-175.542857 0c-8.074971 0-14.628571 6.538971-14.628571 14.628571s6.5536 14.628571 14.628571 14.628571l175.542857 0c8.074971 0 14.628571-6.538971 14.628571-14.628571S701.717943 301.099886 693.642971 301.099886z" p-id="55898"></path><path d="M313.300114 403.499886l58.514286 0c8.074971 0 14.628571-6.538971 14.628571-14.628571s-6.5536-14.628571-14.628571-14.628571l-58.514286 0c-8.074971 0-14.628571 6.538971-14.628571 14.628571S305.225143 403.499886 313.300114 403.499886z" p-id="55899"></path><path d="M415.700114 388.871314c0 8.0896 6.5536 14.628571 14.628571 14.628571l102.4 0c8.074971 0 14.628571-6.538971 14.628571-14.628571s-6.5536-14.628571-14.628571-14.628571l-102.4 0C422.253714 374.242743 415.700114 380.781714 415.700114 388.871314z" p-id="55900"></path><path d="M313.300114 476.642743l117.028571 0c8.074971 0 14.628571-6.538971 14.628571-14.628571s-6.5536-14.628571-14.628571-14.628571l-117.028571 0c-8.074971 0-14.628571 6.538971-14.628571 14.628571S305.225143 476.642743 313.300114 476.642743z" p-id="55901"></path><path d="M693.642971 447.3856l-204.8 0c-8.074971 0-14.628571 6.538971-14.628571 14.628571s6.5536 14.628571 14.628571 14.628571l204.8 0c8.074971 0 14.628571-6.538971 14.628571-14.628571S701.717943 447.3856 693.642971 447.3856z" p-id="55902"></path><path d="M693.642971 374.242743l-87.771429 0c-8.074971 0-14.628571 6.538971-14.628571 14.628571s6.5536 14.628571 14.628571 14.628571l87.771429 0c8.074971 0 14.628571-6.538971 14.628571-14.628571S701.717943 374.242743 693.642971 374.242743z" p-id="55903"></path><path d="M591.242971 739.957029l-102.4 0c-8.074971 0-14.628571 6.538971-14.628571 14.628571s6.5536 14.628571 14.628571 14.628571l102.4 0c8.074971 0 14.628571-6.538971 14.628571-14.628571S599.317943 739.957029 591.242971 739.957029z" p-id="55904"></path><path d="M693.642971 666.814171l-102.4 0c-8.074971 0-14.628571 6.538971-14.628571 14.628571s6.5536 14.628571 14.628571 14.628571l102.4 0c8.074971 0 14.628571-6.538971 14.628571-14.628571S701.717943 666.814171 693.642971 666.814171z" p-id="55905"></path><path d="M313.300114 696.071314l219.428571 0c8.074971 0 14.628571-6.538971 14.628571-14.628571s-6.5536-14.628571-14.628571-14.628571l-219.428571 0c-8.074971 0-14.628571 6.538971-14.628571 14.628571S305.225143 696.071314 313.300114 696.071314z" p-id="55906"></path><path d="M415.700114 739.957029l-102.4 0c-8.074971 0-14.628571 6.538971-14.628571 14.628571s6.5536 14.628571 14.628571 14.628571l102.4 0c8.074971 0 14.628571-6.538971 14.628571-14.628571S423.775086 739.957029 415.700114 739.957029z" p-id="55907"></path><path d="M313.300114 549.7856l87.771429 0c8.074971 0 14.628571-6.538971 14.628571-14.628571s-6.5536-14.628571-14.628571-14.628571l-87.771429 0c-8.074971 0-14.628571 6.538971-14.628571 14.628571S305.225143 549.7856 313.300114 549.7856z" p-id="55908"></path><path d="M693.642971 520.528457l-234.057143 0c-8.074971 0-14.628571 6.538971-14.628571 14.628571s6.5536 14.628571 14.628571 14.628571l234.057143 0c8.074971 0 14.628571-6.538971 14.628571-14.628571S701.717943 520.528457 693.642971 520.528457z" p-id="55909"></path><path d="M313.300114 622.928457l190.171429 0c8.074971 0 14.628571-6.538971 14.628571-14.628571s-6.5536-14.628571-14.628571-14.628571l-190.171429 0c-8.074971 0-14.628571 6.538971-14.628571 14.628571S305.225143 622.928457 313.300114 622.928457z" p-id="55910"></path><path d="M693.642971 593.671314l-131.657143 0c-8.074971 0-14.628571 6.538971-14.628571 14.628571s6.5536 14.628571 14.628571 14.628571l131.657143 0c8.074971 0 14.628571-6.538971 14.628571-14.628571S701.717943 593.671314 693.642971 593.671314z" p-id="55911"></path></svg>