<?xml version="1.0" standalone="no"?><!DOCTYPE svg PUBLIC "-//W3C//DTD SVG 1.1//EN" "http://www.w3.org/Graphics/SVG/1.1/DTD/svg11.dtd"><svg t="1611738311297" class="icon" viewBox="0 0 1024 1024" version="1.1" xmlns="http://www.w3.org/2000/svg" p-id="37815" xmlns:xlink="http://www.w3.org/1999/xlink" width="200" height="200"><defs><style type="text/css"></style></defs><path d="M179.75 109.8125h664.5c38.4375 0 69.9375 31.5 69.9375 69.9375v664.5c0 38.4375-31.5 69.9375-69.9375 69.9375H179.75c-38.4375 0-69.9375-31.5-69.9375-69.9375V179.75c0-38.4375 31.5-69.9375 69.9375-69.9375z" fill="#ECF9FB" p-id="37816"></path><path d="M844.25 92.28125H179.75c-48.1875 0-87.46875 39.1875-87.46875 87.46875v664.5c0 48.1875 39.1875 87.46875 87.46875 87.46875h664.5c48.1875 0 87.46875-39.1875 87.46875-87.46875V179.75c0-48.1875-39.28125-87.46875-87.46875-87.46875z m-139.875 34.96875v157.40625H546.96875V127.25h157.40625z m-192.375 0v157.40625H337.15625V127.25H512z m-384.75 52.5c0-28.96875 23.53125-52.5 52.5-52.5h122.4375v157.40625H127.25V179.75z m52.5 717c-28.96875 0-52.5-23.53125-52.5-52.5V704.375h174.84375v192.375H179.75z m157.40625 0V704.375H512v192.375H337.15625z m209.8125 0V704.375h157.40625v192.375H546.96875z m349.78125-52.5c0 28.96875-23.53125 52.5-52.5 52.5H739.34375V704.375h157.40625v139.875z m0-174.84375H127.25V319.625h769.40625v349.78125z m0-384.75H739.34375V127.25h104.90625c28.96875 0 52.5 23.53125 52.5 52.5v104.90625z" fill="#45C8DC" p-id="37817"></path><path d="M622.15625 491L459.5 393.125c-7.03125-5.25-15.75-5.25-22.6875 0-7.03125 5.25-12.28125 12.28125-12.28125 21v195.84375c0 8.71875 3.46875 17.53125 12.28125 21 7.03125 5.25 15.75 5.25 22.6875 0l162.65625-97.96875c12.28125-7.03125 15.75-22.6875 8.71875-34.96875-1.6875-3.5625-5.25-5.25-8.71875-7.03125z" fill="#45C8DC" p-id="37818"></path></svg>