<?xml version="1.0" standalone="no"?><!DOCTYPE svg PUBLIC "-//W3C//DTD SVG 1.1//EN" "http://www.w3.org/Graphics/SVG/1.1/DTD/svg11.dtd"><svg t="1611737888598" class="icon" viewBox="0 0 1024 1024" version="1.1" xmlns="http://www.w3.org/2000/svg" p-id="5873" xmlns:xlink="http://www.w3.org/1999/xlink" width="200" height="200"><defs><style type="text/css"></style></defs><path d="M543.872 102.4h57.4208v78.592c102.7072 0.8704 205.3376-1.1008 307.8656 0.8704a33.3824 33.3824 0 0 1 37.0432 37.5552c1.6896 193.536 0 387.4304 0.9984 580.6592-0.9984 19.8656 1.8944 41.8304-9.344 59.5968-14.0032 9.9328-32.0768 8.96-48.4608 9.9328H601.2928v77.184H541.696C395.264 919.8848 248.832 894.848 102.4 868.6336V181.1712C249.5232 154.88 396.7488 129.2032 543.872 102.4z" fill="#1766DE" p-id="5874"></path><path d="M601.2928 210.4832h316.6976v628.6336H601.2928v-78.592h249.5488v-39.7312h-249.5488v-48.6656h249.5488v-39.7312h-249.5488V583.68h249.5488V544h-249.5488v-49.664h249.5488v-38.2464h-249.5488v-49.664h249.5488V367.616h-249.5488v-49.152h249.5488v-39.2704h-249.5488V210.4832z m-300.2112 173.568c18.2784-1.1008 36.4544-1.8944 54.7328-2.8928 12.8 66.3552 25.856 132.5056 39.7312 198.656 10.8288-68.224 22.8608-136.192 34.4832-204.2368a2229.248 2229.248 0 0 0 57.5232-2.9696c-21.76 95.1808-40.7296 191.232-64.4864 285.7984-15.9744 8.5504-39.7312 0-59.008 1.024-13.312-65.2032-28.1088-129.8688-39.5264-195.1232-11.2384 63.488-25.856 126.3616-38.656 189.3376-18.4576-0.9984-36.9408-2.0736-55.5264-3.3792-15.872-86.4256-34.6624-172.3648-49.664-258.9696 16.384-0.7936 32.8704-1.5104 49.664-2.0992 9.9328 62.592 21.1712 124.8768 29.7984 187.5712 13.312-64.2816 27.136-128.4608 40.96-192.7424z" fill="#FFFFFF" p-id="5875"></path></svg>