<?xml version="1.0" standalone="no"?><!DOCTYPE svg PUBLIC "-//W3C//DTD SVG 1.1//EN" "http://www.w3.org/Graphics/SVG/1.1/DTD/svg11.dtd"><svg t="1611738162279" class="icon" viewBox="0 0 1024 1024" version="1.1" xmlns="http://www.w3.org/2000/svg" p-id="23109" xmlns:xlink="http://www.w3.org/1999/xlink" width="200" height="200"><defs><style type="text/css"></style></defs><path d="M78.769231 0h866.461538a78.769231 78.769231 0 0 1 78.769231 78.769231v275.692307H0V78.769231a78.769231 78.769231 0 0 1 78.769231-78.769231z" fill="#1FC6FB" p-id="23110"></path><path d="M0 354.461538h1024v315.076924H0z" fill="#FF4C4F" p-id="23111"></path><path d="M0 669.538462h1024v275.692307a78.769231 78.769231 0 0 1-78.769231 78.769231H78.769231a78.769231 78.769231 0 0 1-78.769231-78.769231v-275.692307z" fill="#5DD712" p-id="23112"></path><path d="M393.846154 0h236.307692v1024h-236.307692z" fill="#FFAD00" p-id="23113"></path><path d="M315.076923 669.538462V354.461538h393.846154v315.076924H315.076923z m354.461539-275.692308H354.461538v236.307692h315.076924v-236.307692z" fill="#FFFFFF" p-id="23114"></path></svg>