<svg viewBox="0 0 1675 1024" xmlns="http://www.w3.org/2000/svg" width="327.148" height="200"><path d="M472.343 365.289c-1.862 59.299 27.741 85.55 28.486 102.214a21.41 21.41 0 0 1-10.705 16.384l-33.513 23.458a27.927 27.927 0 0 1-14.802 5.027c-1.117 0-21.41 4.841-53.62-67.025a205.73 205.73 0 0 1-163.84 77.08c-42.636 2.326-158.254-24.204-152.204-147.084-4.189-100.26 89.182-162.537 185.717-157.324 18.618.093 56.506.93 122.973 16.477v-40.96c7.075-69.26-38.447-122.973-117.295-114.874-6.33 0-50.827-1.303-120.087 26.438-19.177 8.843-21.69 7.447-28.113 7.447-19.363 0-11.357-56.32-7.634-63.395 13.591-16.756 93.836-48.035 172.498-47.663a201.263 201.263 0 0 1 145.78 45.243c33.513 37.515 50.27 87.04 46.266 137.123v181.434zM246.133 450c84.898-1.21 120.831-52.224 129.023-79.685 6.424-26.345 5.307-43.008 5.307-71.68a450.001 450.001 0 0 0-103.518-12.847c-39.656-2.979-112.081 14.708-109.288 84.434a72.704 72.704 0 0 0 78.475 79.872zm447.487 60.416c-20.573 1.862-30.161-12.753-33.233-27.182L530.06 52.224a99.98 99.98 0 0 1-5.12-22.528 12.102 12.102 0 0 1 10.147-13.684c.651-.187-5.586 0 58.274 0 22.994-2.328 30.441 15.825 32.862 27.09l93.37 368.732 86.854-368.64c1.396-8.471 7.726-29.044 33.512-26.903h44.963c5.586-.466 29.045-1.303 33.14 27.182l87.506 373.388 96.628-373.388c1.304-5.678 7.168-29.789 33.234-27.182h51.572c2.234-.28 16.105-2.141 13.778 22.528-1.117 4.84 8.936-27.927-138.147 444.788-2.98 14.43-12.568 29.045-33.14 27.183h-48.966c-28.672 2.979-32.768-25.32-33.14-28.207l-86.855-359.051-85.83 358.679c-.465 2.886-4.56 31.185-33.233 28.206H693.62zm715.963 14.709c-15.36 0-88.81-.745-150.156-32.117a33.513 33.513 0 0 1-20.48-31.185v-28.207c0-22.062 16.29-18.06 23.18-15.36 26.251 10.613 43.1 18.619 75.403 25.135 95.884 19.642 138.147-6.05 148.48-11.73 34.444-20.48 37.237-67.304 13.778-91.508-27.462-23.086-40.495-23.924-139.078-54.923-12.102-3.445-114.502-35.747-114.688-137.216C1244.439 74.1 1311.65.93 1428.015 1.583c33.233 0 121.576 10.798 145.5 40.96a31.65 31.65 0 0 1 5.028 18.338v26.624c0 11.544-4.19 17.408-12.754 17.408-20.2-2.234-55.948-29.23-128.652-28.113-18.06-.93-104.448 2.327-100.538 65.35-1.21 49.617 69.632 68.235 77.731 70.377 95.418 28.765 127.349 33.512 165.237 77.451 44.87 58.275 20.666 126.418 11.357 145.222-49.897 98.118-179.107 90.112-181.341 90.019z" fill="#666"/><path d="M1514.868 799.65c-183.389 135.448-449.536 207.594-676.77 207.594a1228.241 1228.241 0 0 1-830.65-316.23c-17.13-15.453-2.049-36.585 18.71-24.762a1668.748 1668.748 0 0 0 829.72 220.16 1650.036 1650.036 0 0 0 632.46-129.676c30.906-13.033 57.064 20.48 26.53 42.822z" fill="#EA913A"/><path d="M1591.296 712.518c-23.459-30.162-155.183-14.057-214.202-6.982-17.78 1.955-20.76-13.405-4.655-24.855 104.914-73.728 277.132-52.597 296.96-27.834 19.736 24.855-5.399 197.445-103.61 279.924-15.08 12.753-29.417 6.05-22.714-10.706 22.062-55.668 71.68-179.293 48.221-209.454z" fill="#EA913A"/></svg>