<svg viewBox="0 0 1382 1024" xmlns="http://www.w3.org/2000/svg" width="269.922" height="200"><path d="M587.001.138a236.743 236.743 0 0 0-179.455 83.93c-70.264 96.63-19.188 232.74 19.188 310.32s210.79 355.321 217.14 361.671 12.839 6.488 12.839 0 19.05-413.437 6.35-510.757A1387.742 1387.742 0 0 0 587 .138zM210.145 187.324c-12.838 0-102.29 96.63-115.128 180.974s31.888 148.672 134.178 219.625C337.835 665.365 587 800.785 593.627 794.85c6.212-12.976-95.801-193.26-185.391-329.645s-185.391-277.88-198.091-277.88zm31.888 827.151c76.613 32.302 197.953-45.278 229.84-64.604l89.59-64.604-434.558 12.838a331.992 331.992 0 0 0 115.128 116.37zm12.7-355.322c-76.614-38.928-236.191-129.346-242.68-129.346s-31.887 116.37 19.189 200.438 147.015 110.434 191.603 116.37c51.214 6.35 345.106 6.35 345.106 0-6.488-6.626-236.605-148.81-313.218-187.462zM970.345 83.93A237.295 237.295 0 0 0 791.58.138a1026.623 1026.623 0 0 0-70.263 239.09c-12.838 96.63 6.35 510.757 6.35 510.757 0 6.35 6.211 6.35 12.7 0s185.253-291.27 217.14-362.223 82.826-207.064 12.838-303.694zm402.533 445.877c-6.35 0-165.651 90.418-242.817 129.346S823.468 840.127 817.118 846.615c0 6.35 293.893 6.35 345.107 0 44.725-6.488 140.527-32.44 191.603-116.37 44.726-84.068 19.188-200.438 19.188-200.438zM906.432 949.871c31.888 19.464 153.365 96.63 229.979 64.604a266.008 266.008 0 0 0 114.851-122.858l-434.42-12.838zm377.408-581.573c-6.212-84.068-102.29-180.974-114.99-180.974s-121.339 142.184-204.44 277.88-185.806 316.67-179.318 329.645 255.517-129.346 364.019-207.064c102.29-70.954 140.665-129.207 134.177-219.625z" fill="#EA020A"/></svg>