<svg viewBox="0 0 1024 1024" xmlns="http://www.w3.org/2000/svg" width="200" height="200"><path d="M683.657 459.052h-10.24c-23.002 0-40.91 7.692-56.245 20.48 7.668-15.335 12.788-33.243 12.788-51.15 0-7.668 0-15.36-2.573-23.028-10.24-53.697-58.817-97.18-115.087-97.18-58.843 0-104.873 40.91-115.113 97.18-2.547 7.668-2.547 15.36-2.547 23.028 0 17.907 5.12 35.815 12.787 51.15a89.388 89.388 0 0 0-56.27-20.48h-10.24c-43.457 5.145-76.725 43.507-76.725 86.99 0 48.577 38.363 89.512 89.538 89.512 30.67 0 58.817-15.36 74.177-40.935 2.548-2.547 2.548-5.095 5.095-10.24 5.12-10.215 7.668-23.002 7.668-38.337 0-10.24-2.548-17.908-5.095-28.148 10.24 2.548 17.882 10.24 23.002 17.908l2.573 2.547c7.667-10.24 15.335-17.907 28.122-23.002 10.24-5.12 20.48-7.693 30.72-7.693 22.978 0 43.458 10.24 56.245 28.148 0 2.547 2.548 2.547 5.12 5.12 15.335 23.002 43.458 61.39 43.458 61.39 12.812 15.335 30.72 28.122 53.722 28.122h5.12c48.603 0 89.538-38.362 89.538-89.512-12.813-38.363-46.055-76.725-89.538-81.845m-5.12 235.295h-5.095a129.623 129.623 0 0 1-102.325-51.15s-63.937-92.085-66.485-94.633c-7.692-7.667-15.36-12.787-28.147-12.787-7.668 0-15.335 2.547-20.48 7.667 0 0 102.325 148.355 104.897 148.355 10.24 12.788 25.575 23.028 43.458 23.028 7.692 0 15.36-2.573 23.027-5.12-12.787 15.335-28.122 23.002-48.602 28.122h-12.788a81.17 81.17 0 0 1-66.485-33.242l-40.935-58.818c-28.122 30.67-66.485 48.578-109.967 48.578a148.455 148.455 0 0 1-148.356-148.355A148.355 148.355 0 0 1 338.37 397.662c12.787-84.393 86.965-148.33 173.93-148.33s161.142 63.937 173.93 148.355a148.355 148.355 0 0 1 138.115 148.355c-2.573 81.845-66.51 145.782-145.808 148.355M507.18 75.377c-237.868.05-432.253 194.41-432.253 434.875 0 240.415 194.385 432.253 432.253 432.253 237.867 0 432.253-194.386 432.253-432.253 0-237.868-191.813-434.826-432.253-434.826" fill="#E6032D"/></svg>