<svg viewBox="0 0 1024 1024" xmlns="http://www.w3.org/2000/svg" width="200" height="200"><path d="M938.656 455.68a6.4 6.4 0 0 0-2.976-6.368l-.032-.032-139.104-77.664a5.952 5.952 0 0 0-5.984 0h.032l-118.176 72.096a7.264 7.264 0 0 0-2.976 5.536v61.888l-48.224-31.584a5.952 5.952 0 0 0-6.432.032h.032l-69.12 42.656-2.976-69.984a8.096 8.096 0 0 0-2.976-5.12h-.032l-70.4-46.496 64.416-33.28a6.88 6.88 0 0 0 3.424-5.92v-.064l-11.52-267.52a6.848 6.848 0 0 0-3.392-5.536l-.032-.032L341.312-.032h-4.256L88.736 77.184a6.816 6.816 0 0 0-3.392 8.16v-.064l54.176 265.824a9.28 9.28 0 0 0 0 3.456v-.064l78.08 58.88-53.76 25.6a6.848 6.848 0 0 0-3.392 7.296v-.032l42.656 200.544a7.232 7.232 0 0 0 0 3.04v-.064L256 698.4l-34.144 20.896a6.464 6.464 0 0 0-2.56 6.848v-.032l32 155.296a4.48 4.48 0 0 0 0 3.04v-.032l128 137.376c1.088 1.12 2.592 1.792 4.256 1.792s3.168-.672 4.256-1.792l167.264-133.12a6.848 6.848 0 0 0 2.56-5.12l-2.976-90.464 56.32 46.944a5.952 5.952 0 0 0 7.68 0L752.64 732.928a10.4 10.4 0 0 0 2.56-4.608v-.064l3.84-66.976 42.656 28.576c.992.768 2.24 1.216 3.616 1.216s2.624-.448 3.648-1.248l109.664-85.344a5.92 5.92 0 0 0 2.144-4.256zm-410.432 6.4 2.976 66.976 5.12 118.624-180.48 122.464-28.16-193.28zM513.28 102.816l10.656 252.16-213.344 110.496-38.4-269.664zM151.04 346.464 99.424 96.448l159.584 98.976 39.68 264.544-67.424-51.2zm62.304 295.68-37.536-181.76L315.744 577.28l25.6 186.88-71.68-69.12zm48.64 235.072L234.24 743.232l123.296 121.6L377.6 999.648zm128 128-20.896-142.08 170.656-122.464 5.984 139.936zm164.672-228.672v-46.08a6.688 6.688 0 0 0-2.144-4.704l-48.224-39.264 42.656-29.856a5.92 5.92 0 0 0 2.56-4.896v-11.328l59.296 45.216v136.96zm189.44-51.2-122.016 97.28V685.248l130.976-93.856zm55.04-51.648-38.4-26.88 3.84-67.84a4.48 4.48 0 0 0 0-2.592v.032c.096-.32.128-.672.128-1.056s-.064-.736-.128-1.088v.032l-82.336-54.176v-59.296l128 80.64zm108.8-79.36-97.28 77.216 11.104-130.56 103.68-71.68z" fill="#00A95C"/></svg>