<svg viewBox="0 0 1024 1024" xmlns="http://www.w3.org/2000/svg" width="200" height="200"><path d="M494.272 0 347.968 89.088l146.304 86.4V0zm43.904 175.552L684.48 88.064 538.176 0v175.552zm0 731.392 146.304-87.872-146.304-87.68v175.552zm-43.904 0V731.52l-146.304 88.128 146.304 87.36m409.6-205.696L757.568 614.4v175.552l146.304-88.704m-614.4-86.848-146.304 87.68 146.304 87.872V614.4zm468.096-73.152 146.304-88.128-146.304-87.424v175.552zm-468.096 0V365.696l-146.304 87.936 146.304 87.68m614.4-336.768L757.568 117.12v175.36l146.304-88m-614.4-87.488-146.304 88.32 146.304 87.168V117.12zm629.056 307.2V248.704L772.224 336.96l146.304 87.296m-789.952 0 146.304-88.064-146.304-87.488v175.552zM274.88 570.688l-146.304-87.936v175.552l146.304-87.616m497.344.192 146.304 87.424V482.752L772.224 570.88M333.376 614.4v175.552l146.304-88L333.376 614.4m380.352 175.552V614.4l-146.304 87.68 146.304 87.872M333.376 307.2l146.304-88.128-146.304-87.424V307.2zm380.352 541.248-146.304 88.768L713.728 1024V848.448zm0-555.904V131.648l-146.304 81.024 146.304 79.872" fill="#57B382"/><path d="M494.272 0v175.552L347.968 89.088 494.272 0m43.904 175.552V0L684.48 88.064l-146.304 87.488m0 731.392V731.52L684.48 819.2l-146.304 87.808m-43.904 0-146.304-87.36 146.304-88.128v175.488zm409.6-205.696-146.304 88.704V614.4l146.304 86.848m-614.4-86.848v175.552L143.168 702.08l146.304-87.68m468.096-73.152V365.696l146.304 87.424-146.304 88.128m-468.096 0-146.304-87.616 146.304-87.936v175.552zm614.4-336.64L757.568 292.48V117.12l146.304 87.488m-614.4-87.488v175.36l-146.304-87.04 146.304-88.384m629.056 307.2L772.224 336.96l146.304-88.32v175.68zm-789.952 0V248.704l146.304 87.488-146.304 88.064M274.88 570.688l-146.304 87.616V482.752l146.304 87.936m497.344.192 146.304-88.128v175.552L772.224 570.88M333.376 614.4l146.304 87.552-146.304 88V614.4zm380.352 175.552-146.304-87.936L713.728 614.4v175.552zM333.376 307.2V131.648l146.304 87.424L333.376 307.2m380.352 541.248V1024l-146.304-86.784 146.304-88.768m0-555.904-146.304-79.872 146.304-81.024v160.896z" fill="#57B382"/></svg>