<svg viewBox="0 0 1028 1024" xmlns="http://www.w3.org/2000/svg" width="200.781" height="200"><path d="M1024 174.933c-4.267-4.266-8.533-4.266-12.8-4.266C998.4 174.933 844.8 430.933 512 422.4c-55.467 0-115.2-4.267-170.667-21.333l-25.6-89.6s-4.266-21.334-25.6-34.134c-17.066-8.533-25.6-8.533-29.866-4.266v4.266l12.8 102.4C106.667 307.2 21.333 174.933 12.8 170.667c-4.267 0-8.533 0-12.8 4.266v12.8c46.933 140.8 149.333 251.734 281.6 311.467L320 742.4c4.267 68.267 51.2 110.933 110.933 110.933H614.4c59.733 0 106.667-42.666 110.933-110.933l34.134-200.533V537.6s-17.067 0-51.2 21.333c-34.134 25.6-42.667 59.734-42.667 59.734S631.467 704 622.933 738.133c-8.533 38.4-51.2 34.134-51.2 34.134h-102.4c-17.066 0-34.133-12.8-34.133-29.867l-59.733-213.333c42.666 12.8 89.6 17.066 140.8 17.066 238.933 0 439.466-145.066 512-358.4-4.267 0-4.267-8.533-4.267-12.8" fill="#02A7E0"/></svg>