<svg viewBox="0 0 1402 1024" xmlns="http://www.w3.org/2000/svg" width="273.828" height="200"><path d="M1215.521 836.73c-22.304 22.7-66.907 56.747-144.96 56.747H591.068c144.96-141.872 267.621-261.045 278.773-272.394 11.147-11.35 39.024-39.723 66.901-62.422 55.755-51.077 100.363-56.746 139.387-56.746 55.76 0 100.363 22.693 139.392 56.746 78.053 73.771 78.053 204.294 0 278.07zm94.779-368.869c-55.755-62.421-139.387-102.149-228.592-102.149-78.059 0-144.96 28.373-206.294 73.776-22.304 22.699-55.754 45.397-83.626 79.445-22.31 22.699-501.798 499.392-501.798 499.392 27.878 5.675 61.334 5.675 89.206 5.675h607.728c44.602 0 78.053 0 111.509-5.675 72.48-5.674 144.96-34.048 206.293-90.8 128.235-124.848 128.235-334.816 5.574-459.664z" fill="#00A3FF"/><path d="M517.921 434.405c-61.675-45.792-123.35-68.693-196.235-68.693-89.706 0-173.797 40.07-229.866 103.04C-31.524 600.411-31.524 806.48 97.425 938.139c56.07 51.52 112.133 80.138 179.413 85.861l128.95-125.93h-72.886c-72.885-5.729-117.738-28.625-145.77-57.243-78.491-80.139-78.491-206.075-5.606-286.214 39.243-40.069 84.096-57.242 140.16-57.242 33.643 0 84.102 5.722 134.56 57.242 22.427 22.896 84.096 68.694 106.523 91.59h5.605l84.102-85.867v-5.723c-39.248-40.069-100.923-91.589-134.56-120.208" fill="#00C8DC"/><path d="M1111.628 286.944C1049.18 118.154 884.556 0 697.233 0 475.846 0 299.878 163.163 265.82 365.712c17.029 0 34.058-5.621 56.762-5.621 22.71 0 51.094 5.621 73.798 5.621 28.378-140.656 153.264-241.93 300.853-241.93 124.885 0 232.736 73.14 283.824 180.042 0 0 5.68 5.627 5.68 0 39.733-5.627 85.147-16.88 124.88-16.88 0 5.627 0 5.627 0 0" fill="#006EFF"/></svg>