<svg viewBox="0 0 1024 1024" xmlns="http://www.w3.org/2000/svg" width="200" height="200"><path d="M849.92 107.52c3.584.512 9.728 2.56 15.872 8.192 8.192 7.168 10.752 15.872 11.776 19.456 35.328 59.904 70.144 120.32 105.472 180.224 1.536 5.632 3.072 13.312 3.072 22.016 0 6.144-.512 11.776-1.536 16.384-41.984 65.024-83.968 130.048-126.464 195.072-1.024 1.536-11.264 11.776-26.624 10.24-12.288-1.024-19.456-8.704-21.504-10.752C674.816 322.56 576.512 155.136 565.248 130.048c-2.048-4.608-7.68-16.896-2.56-27.648 4.608-9.216 15.872-13.312 22.528-14.848 88.576 6.656 176.64 13.312 264.704 19.968z" fill="#06F"/><path d="M15.36 150.016C128.512 329.728 242.176 508.928 355.328 688.64c6.656 8.192 17.92 12.288 28.672 11.264 15.872-2.048 23.04-14.848 23.552-15.872 50.176-69.12 100.864-138.24 151.04-207.36 2.56-5.12 6.144-15.36 6.656-28.16 0-14.848-5.12-26.112-7.68-31.232-64.512-102.4-129.024-204.8-193.536-307.712-2.56-2.56-9.216-9.216-19.456-11.776-8.192-2.048-14.848-1.024-18.432-.512-10.24 0-246.784-.512-286.208 10.752-5.12 1.536-17.408 5.12-23.552 15.872-1.536 1.024-7.68 13.312-1.024 26.112z" fill="#CFF"/><path d="M108.544 299.52C221.696 479.232 335.36 658.432 448.512 838.144c6.656 8.192 17.92 12.288 28.672 11.264 15.872-2.048 23.04-14.848 23.552-15.872 50.176-69.12 100.864-138.24 151.04-207.36 2.56-5.12 6.144-15.36 6.656-28.16 0-14.848-5.12-26.112-7.68-31.232-64.512-102.4-129.024-204.8-193.536-307.712-2.56-2.56-9.216-9.216-19.456-11.776-8.192-2.048-14.848-1.024-18.432-.512-10.24 0-246.784-.512-286.208 10.752-5.12 1.536-17.408 5.12-23.552 15.872-1.536.512-8.192 12.8-1.024 26.112z" fill="#6CF"/><path d="M215.04 462.336c113.152 179.712 226.816 358.912 339.968 538.624 6.656 8.192 17.92 12.288 28.672 11.264 15.872-2.048 23.04-14.848 23.552-15.872 50.176-69.12 100.864-138.24 151.04-207.36 2.56-5.12 6.144-15.36 6.656-28.16 0-14.848-5.12-26.112-7.68-31.232-64.512-102.4-129.024-204.8-193.536-307.712-2.56-2.56-9.216-9.216-19.456-11.776-8.192-2.048-14.848-1.024-18.432-.512-10.24 0-246.784-.512-286.208 10.752-5.12 1.536-17.408 5.12-23.552 15.872-1.536 1.024-7.68 13.312-1.024 26.112z" fill="#06F"/></svg>