<svg viewBox="0 0 1030 1024" xmlns="http://www.w3.org/2000/svg" width="128.75" height="128"><path d="M1024 524.8v57.6H364.8c0 115.2 96 198.4 204.8 198.4 70.4 0 147.2-38.4 179.2-102.4h236.8c-64 179.2-236.8 300.8-428.8 300.8-70.4 0-140.8-19.2-198.4-51.2-64 32-153.6 64-224 64C38.4 992 0 934.4 0 844.8c0-51.2 12.8-102.4 25.6-153.6 6.4-32 44.8-96 64-128C166.4 441.6 256 320 371.2 224 288 262.4 192 352 128 422.4c44.8-204.8 230.4-352 441.6-352h25.6c70.4-32 166.4-64 243.2-64 89.6 0 172.8 32 172.8 140.8 0 44.8-19.2 108.8-44.8 160 38.4 64 57.6 140.8 57.6 217.6zm-38.4-358.4c0-64-44.8-102.4-108.8-102.4-51.2 0-102.4 19.2-147.2 38.4 96 38.4 172.8 102.4 217.6 185.6 25.6-38.4 38.4-83.2 38.4-121.6zM83.2 864c0 64 38.4 102.4 102.4 102.4 51.2 0 108.8-19.2 147.2-51.2-96-57.6-166.4-140.8-198.4-243.2-25.6 57.6-51.2 128-51.2 192zm281.6-403.2h409.6c0-108.8-102.4-185.6-204.8-185.6S371.2 352 364.8 460.8z" fill="#1c87d2"/></svg>