<svg viewBox="0 0 1241 1024" xmlns="http://www.w3.org/2000/svg" width="242.383" height="200"><path d="M781.432 558.578H459.933a50.55 50.55 0 0 0-49.394 38.996v.867a3.61 3.61 0 0 1 0 .866 50.55 50.55 0 0 0 13.72 46.506l127.603 127.748a50.933 50.933 0 1 0 71.854-72.215l-41.524-41.523h199.6a50.55 50.55 0 0 0 50.551-50.55 50.55 50.55 0 0 0-50.911-50.695z" fill="#F04F2D"/><path d="M1139.687 0H101.533A101.606 101.606 0 0 0 0 101.533v820.934A101.606 101.606 0 0 0 101.533 1024h1038.154a101.606 101.606 0 0 0 101.534-101.533V101.533A101.606 101.606 0 0 0 1139.687 0zm0 470.405a51.922 51.922 0 0 0-6.788-4.406L917.484 250.367a50.76 50.76 0 0 0-71.71 71.854L1035.483 512 845.92 701.852a50.68 50.68 0 0 0 71.637 71.709l214.621-214.838a50.55 50.55 0 0 0 7.222-4.766V922.25H101.533V549.19l.434.434a50.55 50.55 0 0 0 12.565 9.17l214.838 214.84a50.709 50.709 0 0 0 71.709-71.71L211.299 512l189.924-189.924a50.911 50.911 0 1 0-72.214-71.78l-215.2 215.703a49.106 49.106 0 0 0-11.626 8.738l-.65.65V101.533h1038.154z" fill="#999"/><path d="M409.022 414.583a50.55 50.55 0 0 0 50.55 50.55h321.499a50.55 50.55 0 0 0 49.394-38.996v-.866a3.61 3.61 0 0 1 0-.867 50.55 50.55 0 0 0-13.72-46.506L689.647 250.439a50.911 50.911 0 1 0-71.78 72.215l41.523 41.523H459.789a50.55 50.55 0 0 0-50.767 50.406z" fill="#F04F2D"/></svg>