<svg viewBox="0 0 1024 1024" xmlns="http://www.w3.org/2000/svg" width="128" height="128"><path d="M9.122 511.87a502.748 502.748 0 1 0 1005.495 0 502.748 502.748 0 1 0-1005.495 0Z" fill="#FFF"/><path d="M511.87 1024A511.87 511.87 0 1 1 1024 511.87 512.39 512.39 0 0 1 511.87 1024zm0-1005.235a493.365 493.365 0 1 0 493.365 493.105A495.19 495.19 0 0 0 511.87 18.504z" fill="#0866A7"/><path d="m725.322 274.96 78.188-78.187 22.935 22.935-78.187 78.188zm-107.638-62.55 41.44-100.08 30.232 12.51-41.44 100.08zM495.19 86.267h32.578v108.16H495.19zM333.6 124.84l29.972-12.51 41.44 100.08-29.972 12.51zm-135.004 97.735 22.935-22.935 76.364 76.624-22.935 22.935zm-87.049 142.302 12.51-29.972 100.08 40.918-12.51 29.972zM85.485 495.19h108.16v32.578H85.485zm26.063 164.455 99.82-41.44 12.51 29.972-99.82 42.482zm686.75-11.207 12.51-30.233 99.82 41.44-12.51 30.232zM828.79 495.19h109.463v32.578H828.791zm-30.493-120.41 99.82-41.44 12.77 31.537-99.82 41.44zm-286.35 129.766L709.32 307.174l18.426 18.426-197.372 197.372z" fill="#0866A7"/><path d="M428.209 511.87a83.661 83.661 0 1 0 167.322 0 83.661 83.661 0 1 0-167.322 0Z" fill="#0FB2C8"/><path d="M511.87 604.913a93.044 93.044 0 1 1 93.043-93.043 93.304 93.304 0 0 1-93.043 93.043zm0-167.582a74.54 74.54 0 1 0 74.539 74.539 74.54 74.54 0 0 0-74.54-74.279z" fill="#0866A7"/><path d="M335.165 726.104h353.67v130.313h-353.67z" fill="#0FB2C8"/><path d="M698.217 865.54H325.783V716.721h372.434zm-353.93-18.505h335.165V735.226H344.287z" fill="#0866A7"/></svg>