<svg viewBox="0 0 1420 1024" xmlns="http://www.w3.org/2000/svg" width="177.5" height="128"><path d="M1282.109 974.485c44.456-90.071 69.438-191.474 69.438-298.708C1351.547 302.557 1048.997 0 675.769 0 302.558 0 0 302.558 0 675.777c0 107.226 24.982 208.629 69.438 298.708h1212.67z" fill="#4B9CD3"/><path d="M149.354 803.097h122.43q36.725 0 36.725 36.724v.008q0 36.725-36.724 36.725H149.354q-36.724 0-36.724-36.725v-.008q0-36.724 36.724-36.724Z" fill="#FFF"/><path d="M665.984 974.485h617.01s129.768-237.5 26.932-523.967c-102.837-286.466-379.51-396.656-379.51-396.656l-264.44 920.623z" fill="#686464" fill-opacity=".2"/><path d="M149.354 803.097h122.43q36.725 0 36.725 36.724v.008q0 36.725-36.724 36.725H149.354q-36.724 0-36.724-36.725v-.008q0-36.724 36.724-36.724Zm487.243-506.829V173.837q0-36.724 36.724-36.724h.008q36.725 0 36.725 36.724v122.43q0 36.725-36.725 36.725h-.008q-36.724 0-36.724-36.724ZM197.513 474.969l46.2 29.06q31.086 19.554 11.532 50.64l-.005.007q-19.553 31.086-50.64 11.532l-46.198-29.06q-31.086-19.555-11.533-50.64l.005-.007q19.554-31.086 50.64-11.532Zm954.899 91.235 46.2-29.06q31.085-19.554 11.531-50.64l-.004-.007q-19.554-31.086-50.64-11.532l-46.199 29.06q-31.086 19.554-11.532 50.64l.004.007q19.554 31.086 50.64 11.532ZM387.323 247.272l37.142 39.992q24.992 26.909-1.918 51.9l-.006.006q-26.909 24.992-51.9-1.918l-37.142-39.992q-24.992-26.909 1.917-51.9l.006-.006q26.91-24.991 51.901 1.918Zm597.411 89.985 37.142-39.992q24.991-26.91-1.918-51.9l-.006-.006q-26.909-24.992-51.9 1.917l-37.143 39.992q-24.991 26.91 1.918 51.901l.006.006q26.91 24.991 51.9-1.918Zm99.933 465.84h122.43q36.725 0 36.725 36.724v.008q0 36.725-36.724 36.725h-122.431q-36.725 0-36.725-36.725v-.008q0-36.724 36.725-36.724Zm-306.979.467c-57.447 47.983-88.791 108.804-151.311 33.954s-1.184-94.074 56.262-142.058 341.537-217.729 362.476-192.658c20.932 25.063-209.989 252.779-267.427 300.762z" fill="#FFF"/><path d="M661.088 778.606a39.173 39.173 0 1 0 78.345 0 39.173 39.173 0 1 0-78.345 0Z" fill="#4B9CD3"/></svg>