<svg viewBox="0 0 1024 1024" xmlns="http://www.w3.org/2000/svg" width="128" height="128"><path d="M421.376 486.4s117.248 24.576 175.104-8.704c0 0-89.6 70.144-89.6 166.4.512-.512-8.192-121.344-85.504-157.696zm17.408 487.936s68.608 6.656 68.608-80.896c0 0 3.072 88.576 65.024 78.336 0 .512-50.688 22.016-133.632 2.56zM161.28 243.2s-30.208 65.536 11.264 91.648c0 0-67.072-17.408-81.408 37.376 0 0 8.704-82.944 70.144-129.024zm696.32-10.752s49.152 50.176 1.024 81.408c0 0 58.88-18.432 66.56 36.352 0 0 5.12-69.632-67.584-117.76z" fill="#343399"/><path d="M443.392 975.872c-5.632 0-10.752-1.024-15.36-3.072L157.184 815.616l-1.536-1.024s-1.024-1.024-4.608-2.56c-51.2-29.184-62.976-94.208-65.536-120.832V391.68c0-3.072.512-7.168 1.024-11.264l.512-3.584 1.024-2.56c19.456-50.688 76.8-51.2 103.936-44.032l-1.536 5.632 4.096-6.144 281.6 161.792 18.944 37.888c20.992 36.864 29.184 77.824 32.768 99.84v258.048c-4.608 56.32-36.864 76.288-55.808 82.944-1.024.512-15.36 5.632-28.672 5.632zM181.248 779.776l263.168 152.576c12.288-.512 36.864-6.656 40.448-48.128V633.856c-4.608-31.744-20.992-103.936-72.192-128L322.56 450.56l1.536 3.072L181.76 371.2c-2.048-.512-40.448-9.216-52.736 15.872-.512 2.56-.512 4.608-.512 6.144v294.4c1.536 16.896 9.728 67.072 43.52 86.528 3.584 2.048 6.656 4.096 9.216 5.632z" fill="#343399"/><path d="M837.632 218.112c6.656 4.096 12.8 7.168 18.432 10.752l1.536 1.024 1.536 1.536c5.12 4.096 10.752 9.216 16.384 15.36 6.144 11.776 5.632 33.28 4.608 49.152-1.024 12.288-6.656 30.208-26.624 44.544l-1.024.512-247.808 156.672c-26.624 14.336-62.976 18.432-96.256 18.432-40.96 0-77.824-6.656-89.088-8.704l-3.072-.512-245.248-142.336c-39.424-29.696-28.16-85.504-15.36-113.664l2.56-6.144 263.68-166.912c29.184-14.336 104.448-43.008 173.056-1.024 3.584 2.56 58.368 34.304 119.296 69.632M431.616 465.92c40.448 7.168 114.176 13.824 152.576-6.144L828.928 304.64c7.168-5.632 8.192-10.24 8.704-12.8 1.024-11.264-9.728-26.624-15.36-32.768-55.808-32.256-243.712-141.312-250.368-145.408-49.664-30.72-107.008-9.216-130.048 2.56L192.512 273.92c-4.096 12.288-12.288 42.496 3.584 55.808l235.52 136.192z" fill="#343399"/><path d="M831.488 304.128c4.096-1.024 38.4-11.264 66.048 6.144 7.168 4.608 17.92 11.776 24.064 24.576 1.024 5.632 4.096 10.752 4.608 16.896v2.048l-1.024 323.072c-5.12 35.328-22.528 91.648-77.312 125.44l-5.12 3.584h-1.024L579.584 971.776l-4.608.512c-4.096.512-8.704 1.024-12.8 1.024-15.872 0-30.208-5.12-41.984-14.848-24.576-20.48-32.768-55.808-35.328-73.728l-1.024-252.928h1.536c6.144-96.768 88.576-164.864 96.768-171.008l-.512-.512L829.44 304.64M528.384 872.448c.512 10.24 5.12 41.472 19.968 53.76 3.072 2.56 7.68 5.632 16.384 5.12L829.44 763.392c56.32-38.4 53.76-115.712 53.76-116.224l-.512-32.256 1.024-250.368h-.512c-1.536-12.8-7.168-16.384-8.704-17.408-8.704-5.632-23.552-3.072-28.672-2.048L610.304 494.08c-1.024.512-80.896 65.024-80.896 149.504h-1.536l.512 228.864z" fill="#343399"/><path d="M435.2 269.312c0 27.648 31.744 50.176 71.168 50.176s71.168-22.528 71.168-50.176-31.744-50.176-71.168-50.176-71.168 22.528-71.168 50.176zm228.352 518.656c0 30.72-22.528 67.072-49.664 80.384-27.648 13.824-50.176-.512-50.176-31.232s22.528-67.072 50.176-80.384c27.136-13.824 49.664 0 49.664 31.232zm96.768-180.224c0 30.72-22.528 67.072-49.664 80.384-27.648 13.824-49.664-.512-49.664-31.232s22.528-67.072 49.664-80.384c27.136-13.824 49.664.512 49.664 31.232zm107.52-174.592c0 30.72-22.528 67.072-49.664 80.384C790.528 527.36 768 513.024 768 482.304s22.528-67.072 50.176-80.384c27.136-13.824 49.664 0 49.664 31.232zm-596.992 110.08c0 30.72-22.016 41.984-48.64 24.576-27.136-16.896-48.64-55.808-48.64-86.528 0-30.72 22.016-41.984 48.64-24.576 26.624 16.896 48.64 55.808 48.64 86.528zm161.28 285.184c0 30.72-22.016 41.984-48.64 24.576-26.624-17.408-48.64-55.808-48.64-86.528 0-30.72 22.016-41.984 48.64-24.576 26.624 16.896 48.64 55.808 48.64 86.528z" fill="#F59D0D"/></svg>