<svg viewBox="0 0 1024 1024" xmlns="http://www.w3.org/2000/svg" width="128" height="128"><path d="M824.525 999.014h-625.28a174.336 174.336 0 0 1-174.26-174.259v-625.51a174.336 174.336 0 0 1 174.26-174.26h625.51a174.336 174.336 0 0 1 174.26 174.26v625.51a174.387 174.387 0 0 1-174.49 174.26z" fill="#FFF"/><path d="M819.149 1024H204.62C91.853 1024 0 932.147 0 819.38V204.62C0 91.854 91.853 0 204.62 0h614.76C932.146 0 1024 91.853 1024 204.62v614.76c0 112.767-91.853 204.62-204.851 204.62zM204.62 66.714A138.01 138.01 0 0 0 66.714 204.62v614.758A138.01 138.01 0 0 0 204.62 957.286h614.758A138.01 138.01 0 0 0 957.286 819.38V204.621A138.01 138.01 0 0 0 819.38 66.714H204.621z" fill="#CD4427"/><path d="M424.576 524.493a74.931 74.931 0 1 0 149.862 0 74.931 74.931 0 0 0-149.862 0z" fill="#EFCEB6"/><path d="M512 624.384A112.435 112.435 0 0 1 399.616 512 112.435 112.435 0 0 1 512 399.616 112.435 112.435 0 0 1 624.384 512 112.435 112.435 0 0 1 512 624.384zm0-157.568c-24.73 0-44.954 20.224-44.954 44.954S487.27 556.723 512 556.723s44.954-20.224 44.954-44.953S536.73 466.816 512 466.816z" fill="#CD4427"/><path d="M199.808 249.754a74.931 74.931 0 1 0 149.862 0 74.931 74.931 0 0 0-149.862 0z" fill="#EFCEB6"/><path d="M287.232 374.63a112.435 112.435 0 0 1-112.384-112.384 112.435 112.435 0 0 1 112.384-112.384 112.435 112.435 0 0 1 112.384 112.384A112.563 112.563 0 0 1 287.232 374.63zm0-157.337c-24.73 0-44.98 20.224-44.98 44.953s20.225 44.954 44.98 44.954c24.704 0 44.954-20.224 44.954-44.954s-20.224-44.953-44.954-44.953z" fill="#CD4427"/><path d="M674.33 249.754a74.931 74.931 0 1 0 149.862 0 74.931 74.931 0 0 0-149.862 0z" fill="#EFCEB6"/><path d="M736.768 374.63a112.435 112.435 0 0 1-112.384-112.384 112.435 112.435 0 0 1 112.384-112.384 112.435 112.435 0 0 1 112.384 112.384A112.435 112.435 0 0 1 736.768 374.63zm0-157.337c-24.704 0-44.954 20.224-44.954 44.953s20.224 44.954 44.954 44.954 44.98-20.224 44.98-44.954-20.225-44.953-44.98-44.953z" fill="#CD4427"/><path d="M199.808 774.246a74.931 74.931 0 1 0 149.862 0 74.931 74.931 0 0 0-149.862 0z" fill="#EFCEB6"/><path d="M287.232 899.123A112.435 112.435 0 0 1 174.848 786.74a112.435 112.435 0 0 1 112.384-112.384A112.435 112.435 0 0 1 399.616 786.74a112.563 112.563 0 0 1-112.384 112.384zm0-157.337c-24.73 0-44.98 20.224-44.98 44.953s20.225 44.954 44.98 44.954c24.704 0 44.954-20.224 44.954-44.954s-20.224-44.953-44.954-44.953z" fill="#CD4427"/><path d="M674.33 774.246a74.931 74.931 0 1 0 149.862 0 74.931 74.931 0 0 0-149.862 0z" fill="#EFCEB6"/><path d="M736.768 899.123A112.435 112.435 0 0 1 624.384 786.74a112.435 112.435 0 0 1 112.384-112.384A112.435 112.435 0 0 1 849.152 786.74a112.435 112.435 0 0 1-112.384 112.384zm0-157.337c-24.704 0-44.954 20.224-44.954 44.953s20.224 44.954 44.954 44.954 44.98-20.224 44.98-44.954-20.225-44.953-44.98-44.953z" fill="#CD4427"/></svg>