<svg viewBox="0 0 1024 1024" xmlns="http://www.w3.org/2000/svg" width="128" height="128"><path d="M885.333 785.92c0-45.227 32-82.773 74.667-91.307v-465.92c0-94.293-76.373-170.666-170.667-170.666H234.667C140.373 58.027 64 134.4 64 228.693V783.36c0 94.293 76.373 170.667 170.667 170.667H960v-76.374c-42.667-8.96-74.667-46.933-74.667-91.733zm-608-514.987H704c23.467 0 42.667 19.2 42.667 42.667s-19.2 42.667-42.667 42.667H277.333c-23.466 0-42.666-19.2-42.666-42.667s19.2-42.667 42.666-42.667zm0 213.334H704c23.467 0 42.667 19.2 42.667 42.666S727.467 569.6 704 569.6H277.333c-23.466 0-42.666-19.2-42.666-42.667s19.2-42.666 42.666-42.666zm524.8 339.626c-3.84 1.28-8.533 2.134-12.8 2.134H234.667c-23.467 0-42.667-19.2-42.667-42.667s19.2-42.667 42.667-42.667h554.666c4.694 0 8.96.854 12.8 2.134-8.106 11.946-12.8 26.026-12.8 40.533 0 14.507 4.694 28.16 12.8 40.533z" fill="#F9C27F"/></svg>