<svg viewBox="0 0 1024 1024" xmlns="http://www.w3.org/2000/svg" width="128" height="128"><path d="M929.74 297.831v467.914q0 26.783-27.283 34.579-97.04 28.982-188.484 28.982-40.775 0-120.227-16.39t-126.822-16.49q-91.444 0-206.374 26.784v188.484h-89.245V248.761q-35.079-13.891-56.266-45.172T93.752 134.43q0-50.769 35.778-86.447t86.447-35.678 86.448 35.678 35.678 86.447q0 37.977-21.187 69.158T260.55 248.76v37.977q105.935-24.585 191.283-24.585 55.266 0 110.433 8.395 7.795 1.099 62.162 12.492t83.349 11.493q42.973 0 92.043-10.094 6.196-1.1 44.673-11.693t49.57-10.593q14.49 0 25.084 10.593t10.594 25.085z"/></svg>