<svg viewBox="0 0 1025 1024" xmlns="http://www.w3.org/2000/svg" width="128.125" height="128"><path d="M956.8 734.72h-47.36V486.4c0-17.92-14.08-32-32-32h-332.8V289.28h42.88c37.12 0 67.84-30.72 67.84-67.84V67.84C656 30.72 625.92 0 588.16 0H435.2c-37.12 0-67.84 30.72-67.84 67.84v153.6c0 37.12 30.08 67.84 67.84 67.84h46.08V454.4h-332.8c-17.92 0-32 14.08-32 32v248.32H67.84C30.72 734.72 0 765.44 0 802.56v153.6C0 993.28 30.08 1024 67.84 1024H220.8c37.12 0 67.84-30.72 67.84-67.84v-153.6c0-37.12-30.08-67.84-67.84-67.84h-40.32V518.4h300.8v216.32h-45.44c-37.12 0-67.84 30.72-67.84 67.84v153.6c0 37.12 30.08 67.84 67.84 67.84h153.6c37.12 0 67.84-30.72 67.84-67.84v-153.6c0-37.12-30.08-67.84-67.84-67.84h-43.52V518.4h300.8v216.32h-42.24c-37.12 0-67.84 30.72-67.84 67.84v153.6c0 37.12 30.08 67.84 67.84 67.84h152.96c37.12 0 67.84-30.72 67.84-67.84v-153.6c-.64-37.12-30.72-67.84-68.48-67.84zM431.36 221.44V67.84c0-1.92 1.92-3.84 3.84-3.84h152.96c1.92 0 3.84 1.92 3.84 3.84v153.6c0 1.92-1.92 3.84-3.84 3.84H435.2c-1.92 0-3.84-1.92-3.84-3.84zM225.28 802.56v153.6c0 1.92-1.92 3.84-3.84 3.84H68.48c-1.92 0-3.84-1.92-3.84-3.84v-153.6c0-1.92 1.92-3.84 3.84-3.84h152.96c1.92 0 3.84 1.92 3.84 3.84zm367.36 0v153.6c0 1.92-1.92 3.84-3.84 3.84H435.84c-1.92 0-3.84-1.92-3.84-3.84v-153.6c0-1.92 1.92-3.84 3.84-3.84h153.6c1.92 0 3.2 1.92 3.2 3.84zm368 153.6c0 1.92-1.92 3.84-3.84 3.84H803.84c-1.92 0-3.84-1.92-3.84-3.84v-153.6c0-1.92 1.92-3.84 3.84-3.84H956.8c1.92 0 3.84 1.92 3.84 3.84v153.6z"/></svg>