<svg viewBox="0 0 1024 1024" xmlns="http://www.w3.org/2000/svg" width="128" height="128"><path d="M614.4 819.2V1024H409.6V819.2h204.8zm-409.6 0V1024H0V819.2h204.8zm819.2 0V1024H819.2V819.2H1024zM409.6 614.4v204.8H204.8V614.4h204.8zm409.6 0v204.8H614.4V614.4h204.8zM614.4 409.6v204.8H409.6V409.6h204.8zm-409.6 0v204.8H0V409.6h204.8zm819.2 0v204.8H819.2V409.6H1024zM409.6 204.8v204.8H204.8V204.8h204.8zm409.6 0v204.8H614.4V204.8h204.8zM614.4 0v204.8H409.6V0h204.8zM204.8 0v204.8H0V0h204.8zM1024 0v204.8H819.2V0H1024z" fill="#212C33"/></svg>