<svg viewBox="0 0 1024 1024" xmlns="http://www.w3.org/2000/svg" width="128" height="128"><path d="M0 511.386c0 282.265 228.813 511.027 510.976 511.027 282.266 0 511.078-228.762 511.078-510.976C1022.054 229.17 793.242.358 511.027.358S0 229.171 0 511.386z" fill="#73D0F8"/><path d="M581.53 769.178c-17.562 0-30.004-2.765-37.07-8.5-7.116-5.632-10.751-16.179-10.751-31.641 0-6.144 1.126-15.155 3.277-27.341 2.15-12.032 4.659-22.682 7.475-32.154l33.894-116.736a185.715 185.715 0 0 0 6.861-35.328 305.152 305.152 0 0 0 1.792-26.982c0-24.678-9.011-44.544-26.726-60.006-17.716-15.36-43.06-23.04-75.879-23.04-18.227 0-37.58 3.174-57.958 9.472a965.632 965.632 0 0 0-64.051 22.681l-9.012 36.096a299.52 299.52 0 0 1 23.808-7.577 92.672 92.672 0 0 1 27.136-4.096c17.92 0 29.952 2.918 36.404 8.857 6.348 5.837 9.625 16.384 9.625 31.437 0 8.192-1.024 17.357-3.174 27.443-2.048 10.035-4.66 20.685-7.68 31.949l-34.202 117.094a348.11 348.11 0 0 0-6.605 33.076 204.281 204.281 0 0 0-2.048 28.672c0 24.064 9.165 43.98 27.495 59.699 18.227 15.667 43.98 23.398 77.005 23.398 21.657 0 40.396-2.765 56.576-8.192 16.384-5.478 37.99-13.465 65.33-23.859l9.114-36.045c-7.321 3.021-14.899 5.427-22.63 7.475a104.449 104.449 0 0 1-28.006 4.148zm35.584-553.933a82.432 82.432 0 0 0-57.242-21.658 81.92 81.92 0 0 0-57.344 21.658 68.096 68.096 0 0 0-24.064 52.275c0 20.275 8.14 37.632 24.064 51.917 15.872 14.336 35.072 21.504 57.344 21.504a81.92 81.92 0 0 0 57.242-21.504c15.206-13.005 23.961-32 23.808-51.917a67.584 67.584 0 0 0-23.808-52.224z" fill="#FFF"/></svg>