<svg viewBox="0 0 1024 1024" xmlns="http://www.w3.org/2000/svg" width="128" height="128"><path d="M624 128c0 35.2 28.8 64 64 64h256c35.2 0 64-28.8 64-64V64c0-35.2-28.8-64-64-64H688c-35.2 0-64 28.8-64 64-201.6 0-374.4 134.4-428.8 320H80c-35.2 0-64 28.8-64 64v128c0 35.2 28.8 64 64 64h115.2C249.6 825.6 422.4 960 624 960c0 35.2 28.8 64 64 64h256c35.2 0 64-28.8 64-64v-64c0-35.2-28.8-64-64-64H688c-35.2 0-64 28.8-64 64-166.4 0-310.4-105.6-361.6-256H336c35.2 0 64-28.8 64-64v-32h224c0 35.2 28.8 64 64 64h256c35.2 0 64-28.8 64-64v-64c0-35.2-28.8-64-64-64H688c-35.2 0-64 28.8-64 64H400v-32c0-35.2-28.8-64-64-64h-73.6C313.6 233.6 457.6 128 624 128zm64-64h256v64H688V64zm0 832h256v64H688v-64zm0-416h256v64H688v-64z"/></svg>