<svg viewBox="0 0 1024 1024" xmlns="http://www.w3.org/2000/svg" width="128" height="128"><path d="M160 848a32 32 0 1 1 0 64 32 32 0 0 1 0-64zm736 16v32H288v-32h608zM160 688a32 32 0 1 1 0 64 32 32 0 0 1 0-64zm736 16v32H288v-32h608zM160 528a32 32 0 1 1 0 64 32 32 0 0 1 0-64zm736 16v32H288v-32h608z" fill="#646E7F"/><path d="m130.112 416 12.672-75.296h70.784L200.896 416h31.424l12.672-75.296h52.928l4.224-26.88h-52.928l19.2-115.2h47.36l4.224-26.88h-47.36L285.312 96h-30.944l-12.672 75.744h-71.264L183.104 96H152.16l-12.672 75.744h-53.44l-4.224 26.88h52.96l-19.2 115.2h-47.36L64 340.704h47.36L98.688 416h31.424zm87.68-102.176h-70.816l19.232-115.2h70.816l-19.232 115.2zM384 128h512v288H384z" fill="#007EE6"/></svg>