<svg viewBox="0 0 1024 1024" xmlns="http://www.w3.org/2000/svg" width="128" height="128"><path d="M238.08 506.88v194.56s-5.12 110.08 97.28 110.08c107.52 0 97.28-110.08 97.28-110.08V373.76S424.96 140.8 642.56 140.8s209.92 232.96 209.92 232.96v133.12H742.4v-128s10.24-112.64-99.84-112.64c-107.52 0-99.84 110.08-99.84 110.08l2.56 330.24s-7.68 230.4-209.92 230.4C115.2 936.96 125.44 704 125.44 704V506.88h112.64z" fill="#FFDBA4"/><path d="M309.76 453.12h-204.8c-2.56 0-5.12-2.56-5.12-5.12V199.68c0-2.56 2.56-5.12 5.12-5.12h204.8c2.56 0 5.12 2.56 5.12 5.12v250.88c-2.56 2.56-2.56 2.56-5.12 2.56zm609.28 258.56h-204.8c-2.56 0-5.12-2.56-5.12-5.12V455.68c0-2.56 2.56-5.12 5.12-5.12h204.8c2.56 0 5.12 2.56 5.12 5.12v250.88c0 5.12-2.56 5.12-5.12 5.12z" fill="#FFC8CE"/><path d="M803.84 294.4v74.24c0 7.68 5.12 12.8 12.8 12.8s12.8-5.12 12.8-12.8V294.4c0-5.12 0-71.68-46.08-117.76-28.16-28.16-66.56-43.52-117.76-43.52-84.48 0-125.44 48.64-145.92 89.6-20.48 43.52-20.48 87.04-20.48 87.04v309.76s7.68 92.16-43.52 145.92c-25.6 28.16-64 43.52-110.08 43.52-35.84 0-66.56-12.8-87.04-35.84-48.64-51.2-40.96-145.92-40.96-145.92V524.8c0-7.68-5.12-12.8-12.8-12.8s-12.8 5.12-12.8 12.8v99.84c0 7.68-5.12 104.96 48.64 163.84C266.24 816.64 302.08 832 345.6 832c53.76 0 97.28-17.92 128-51.2 56.32-61.44 51.2-156.16 48.64-163.84v-307.2s0-38.4 17.92-76.8c23.04-51.2 64-76.8 122.88-76.8 43.52 0 76.8 12.8 99.84 35.84 43.52 43.52 40.96 102.4 40.96 102.4z" fill="#333"/><path d="M919.04 435.2h-28.16V322.56c0-2.56 0-30.72-7.68-66.56-10.24-48.64-30.72-89.6-58.88-120.32-38.4-38.4-89.6-58.88-156.16-58.88S550.4 97.28 512 135.68c-28.16 30.72-48.64 71.68-58.88 120.32-7.68 35.84-7.68 61.44-7.68 66.56v327.68s2.56 43.52-23.04 71.68c-15.36 15.36-35.84 23.04-64 23.04-25.6 0-46.08-7.68-61.44-23.04-25.6-28.16-23.04-71.68-23.04-74.24V471.04h33.28c12.8 0 23.04-10.24 23.04-23.04V199.68c0-12.8-10.24-23.04-23.04-23.04H102.4c-12.8 0-23.04 10.24-23.04 23.04v250.88c0 12.8 10.24 23.04 23.04 23.04h33.28v179.2c0 2.56 0 30.72 5.12 64 10.24 48.64 30.72 89.6 58.88 120.32 38.4 40.96 92.16 61.44 158.72 61.44 87.04 0 153.6-43.52 192-122.88 28.16-58.88 30.72-117.76 30.72-120.32l-2.56-330.24S576 281.6 601.6 253.44c15.36-15.36 35.84-23.04 64-23.04s48.64 7.68 64 23.04c25.6 28.16 23.04 76.8 23.04 76.8V435.2H716.8c-12.8 0-23.04 10.24-23.04 23.04v250.88c0 12.8 10.24 23.04 23.04 23.04h204.8c12.8 0 23.04-10.24 23.04-23.04V458.24c-2.56-12.8-12.8-23.04-25.6-23.04zM120.32 215.04h40.96v48.64c0 7.68 5.12 12.8 12.8 12.8s12.8-5.12 12.8-12.8v-48.64h51.2v48.64c0 7.68 5.12 12.8 12.8 12.8s12.8-5.12 12.8-12.8v-48.64h33.28V435.2H120.32V215.04zm629.76 17.92c-20.48-20.48-46.08-30.72-81.92-30.72s-64 10.24-81.92 30.72c-33.28 35.84-30.72 84.48-30.72 89.6l2.56 330.24c0 2.56-2.56 58.88-28.16 110.08-33.28 71.68-89.6 107.52-168.96 107.52-58.88 0-107.52-17.92-140.8-53.76-61.44-64-56.32-166.4-56.32-166.4v-179.2h87.04v176.64c0 5.12-2.56 56.32 30.72 92.16 20.48 20.48 46.08 30.72 79.36 30.72 35.84 0 61.44-10.24 81.92-30.72 30.72-33.28 30.72-84.48 28.16-89.6V322.56s-2.56-102.4 58.88-168.96c33.28-35.84 79.36-51.2 138.24-51.2 58.88 0 104.96 17.92 138.24 51.2 61.44 64 58.88 166.4 58.88 168.96V435.2H780.8V327.68c0-7.68 2.56-58.88-30.72-94.72zm153.6 460.8H870.4V640c0-7.68-5.12-12.8-12.8-12.8s-12.8 7.68-12.8 12.8v53.76h-51.2V640c0-7.68-5.12-12.8-12.8-12.8S768 632.32 768 640v53.76h-40.96V473.6h174.08v220.16z" fill="#333"/></svg>