<svg viewBox="0 0 1024 1024" xmlns="http://www.w3.org/2000/svg" width="128" height="128"><path d="M768 128H256a128 128 0 0 0-128 128v512a128 128 0 0 0 128 128h512a128 128 0 0 0 128-128V256a128 128 0 0 0-128-128z" fill="#50E6FF"/><path d="M768 853.333H256A85.333 85.333 0 0 1 170.667 768V256A85.333 85.333 0 0 1 256 170.667h512A85.333 85.333 0 0 1 853.333 256v512A85.333 85.333 0 0 1 768 853.333z" fill="#092347"/><path d="M309.483 327.936c0-2.261 1.642-4.16 3.882-4.416 8.534-.939 32.342-2.88 83.136-2.88 76.544 0 130.155 30.357 130.155 113.43 0 74.922-51.008 118.89-133.312 118.89h-25.941v125.483a3.806 3.806 0 0 1-3.798 3.797h-50.304a3.797 3.797 0 0 1-3.797-3.797V327.936zm57.92 172.267s25.322.17 31.04.17c46.997 0 68.373-27.861 68.373-65.194 0-34.966-20.779-62.23-64.213-62.23-17.899 0-35.179 1.024-35.179 1.024v126.23zm190.592 117.824c0-2.027 2.197-3.286 3.882-2.176 10.752 7.189 32.576 19.498 66.368 19.498 22.059 0 36.011-9.493 36.011-24.981 0-17.152-23.573-29.59-43.03-40.15-19.349-10.495-62.805-27.349-62.805-81.62 0-48.107 38.443-77.12 90.795-77.12 20.053 0 42.176 3.114 57.11 8.554a6.187 6.187 0 0 1 3.946 5.91v48.874c0 2.005-2.112 3.307-3.797 2.197-9.366-6.122-30.016-15.488-58.432-15.488-23.659 0-34.07 11.52-34.07 23.254 0 20.565 27.392 29.162 51.968 43.584 38.336 21.333 56.107 42.176 56.107 74.837 0 53.419-39.83 83.413-93.781 83.413-27.862 0-54.059-6.08-67.456-14.229a6.101 6.101 0 0 1-2.795-5.355l-.021-49.002z" fill="#FFF"/></svg>