<svg viewBox="0 0 1024 1024" xmlns="http://www.w3.org/2000/svg" width="128" height="128"><path d="M449.536 150.244H167.799c-8.305 0-16.27 3.23-22.14 8.977a30.299 30.299 0 0 0-9.171 21.652v275.694c0 8.124 3.3 15.918 9.17 21.664a31.653 31.653 0 0 0 22.141 8.977h281.737c8.306 0 16.27-3.231 22.141-8.989 5.871-5.734 9.17-13.528 9.17-21.652V180.884c0-8.135-3.299-15.929-9.17-21.663a31.653 31.653 0 0 0-22.141-8.977zm-31.3 275.683H199.1V211.513h219.136v214.425zm31.3 122.539H167.799c-8.305 0-16.27 3.231-22.14 8.977a30.299 30.299 0 0 0-9.171 21.652V854.79c0 8.123 3.3 15.917 9.17 21.663a31.653 31.653 0 0 0 22.141 8.966h281.737c8.306 0 16.27-3.22 22.141-8.966 5.871-5.746 9.17-13.54 9.17-21.663V579.106c0-8.135-3.299-15.929-9.17-21.663a31.653 31.653 0 0 0-22.141-8.977zm-31.3 275.683H199.1V609.735h219.136v214.426zm438.272-673.905h-281.76c-8.305 0-16.27 3.23-22.14 8.977a30.299 30.299 0 0 0-9.171 21.652v275.694c0 8.124 3.3 15.918 9.17 21.664a31.653 31.653 0 0 0 22.141 8.977h281.737c8.306 0 16.27-3.231 22.141-8.989 5.871-5.734 9.17-13.528 9.17-21.652V180.884c0-8.135-3.299-15.929-9.17-21.663a31.653 31.653 0 0 0-22.141-8.977zm-31.312 275.683H606.06V211.513h219.136v214.425zM261.712 272.782h93.912v91.887h-93.912v-91.898zm0 398.222h93.912v91.887h-93.912v-91.898zm532.172-122.538h93.924v91.898h-93.924v-91.898zm0 245.054h-62.6v91.91h156.524V732.251h-93.924v61.27zm-250.424 0h93.912v91.91h-93.924v-91.91zm125.212-520.75h93.912v91.9h-93.912v-91.9zM543.448 548.467h93.924v91.898h-93.924v-91.898zm93.924 91.898h93.912v153.168h-93.912v-153.18z" fill="#8D9FB6"/><path d="M449.536 150.244H167.799c-8.305 0-16.27 3.23-22.14 8.977a30.299 30.299 0 0 0-9.171 21.652v275.694c0 8.124 3.3 15.918 9.17 21.664a31.653 31.653 0 0 0 22.141 8.977h281.737c8.306 0 16.27-3.231 22.141-8.989 5.871-5.734 9.17-13.528 9.17-21.652V180.884c0-8.135-3.299-15.929-9.17-21.663a31.653 31.653 0 0 0-22.141-8.977zm-31.3 275.683H199.1V211.513h219.136v214.425zm438.272-275.683h-281.76c-8.305 0-16.27 3.23-22.14 8.977a30.299 30.299 0 0 0-9.171 21.652v275.694c0 8.124 3.3 15.918 9.17 21.664a31.653 31.653 0 0 0 22.141 8.977h281.737c8.306 0 16.27-3.231 22.141-8.989 5.871-5.734 9.17-13.528 9.17-21.652V180.884c0-8.135-3.299-15.929-9.17-21.663a31.653 31.653 0 0 0-22.141-8.977zm-31.312 275.683H606.06V211.513h219.136v214.425zM261.712 272.782h93.912v91.887h-93.912v-91.898zm406.96 0h93.912v91.887h-93.912v-91.898z" fill="#B6C6DA"/><path d="M47.878 523.662a17.067 17.067 0 0 1 17.066-17.066h870.56a17.067 17.067 0 0 1 0 34.133H64.944a17.067 17.067 0 0 1-17.066-17.067z" fill="#D20909"/><path d="M839.452 56.889A11.378 11.378 0 0 1 850.83 45.51h93.526a34.133 34.133 0 0 1 34.133 34.133v91.023a11.378 11.378 0 0 1-22.756 0V79.644a11.378 11.378 0 0 0-11.377-11.377H850.83a11.378 11.378 0 0 1-11.378-11.378zm0 910.222a11.378 11.378 0 0 0 11.378 11.378h93.526a34.133 34.133 0 0 0 34.133-34.133v-91.023a11.378 11.378 0 0 0-22.756 0v91.023a11.378 11.378 0 0 1-11.377 11.377H850.83a11.378 11.378 0 0 0-11.378 11.378zM184.548 56.89a11.378 11.378 0 0 0-11.378-11.38H79.644a34.133 34.133 0 0 0-34.133 34.133v91.023a11.378 11.378 0 1 0 22.756 0V79.644a11.378 11.378 0 0 1 11.377-11.377h93.526a11.378 11.378 0 0 0 11.378-11.378zm0 910.222a11.378 11.378 0 0 1-11.378 11.378H79.644a34.133 34.133 0 0 1-34.133-34.133v-91.023a11.378 11.378 0 1 1 22.756 0v91.023a11.378 11.378 0 0 0 11.377 11.377h93.526a11.378 11.378 0 0 1 11.378 11.378z" fill="#468DE9"/></svg>