<svg viewBox="0 0 1024 1024" xmlns="http://www.w3.org/2000/svg" width="128" height="128"><path d="M644.58 558.216H540.876v-54.107H644.58c19.163 0 34.38-15.217 34.38-34.38s-15.217-34.38-34.38-34.38h-86.232L671.07 300.647c12.4-14.654 10.145-36.635-4.51-49.034-14.653-12.4-36.634-10.145-49.033 4.509L506.496 389.133 394.902 256.122c-12.4-14.654-34.38-16.345-49.034-4.51-14.654 12.4-16.345 34.381-4.51 49.035L454.08 435.349h-85.668c-19.163 0-34.38 15.218-34.38 34.38s15.217 34.38 34.38 34.38h103.704v54.107H368.412c-19.163 0-34.38 15.217-34.38 34.38s15.217 34.38 34.38 34.38h103.704v118.358c0 19.163 15.217 34.38 34.38 34.38s34.38-15.217 34.38-34.38V626.976H644.58c19.163 0 34.38-15.217 34.38-34.38.564-18.6-15.217-34.38-34.38-34.38z" fill="#DD2634"/><path d="M924.13 120.856H98.443c-44.525 0-81.16 36.07-81.16 81.16v621.096c0 44.525 36.072 81.16 81.16 81.16h826.25c44.526 0 81.16-36.071 81.16-81.16V202.015c-.563-45.088-36.634-81.16-81.723-81.16zm30.998 667.876c0 40.016-33.253 72.142-73.832 72.142H141.278c-40.58 0-73.833-32.126-73.833-72.142V235.268c0-40.016 33.253-72.142 73.833-72.142h740.018c40.58 0 73.832 32.126 73.832 72.142v553.464zm-92.431 31.562c30.434 0 55.797-24.235 55.797-54.107v-74.96l-142.03 129.067h86.233zm0-618.279h-86.233l142.03 129.067v-74.397c0-30.435-24.799-54.67-55.797-54.67zM101.26 257.25v74.96l142.03-129.066h-86.232c-30.435 0-55.798 24.235-55.798 54.106zm0 509.502c0 29.871 24.8 54.106 55.798 54.106h86.232L101.26 691.791v74.96z" fill="#DD2634"/></svg>