<svg viewBox="0 0 1024 1024" xmlns="http://www.w3.org/2000/svg" width="128" height="128"><path d="M876.27 428.442H368.368l497.527-157.287c38.776-12.015 60.075-53.52 48.06-92.296L885.01 86.562c-12.015-38.775-53.521-60.075-92.296-48.06L119.876 250.948c-38.775 12.015-60.074 53.521-48.06 92.297l28.946 92.296a66.402 66.402 0 0 0 9.83 19.661c-12.561 14.2-20.207 32.768-20.207 52.975v401.408c0 44.237 36.045 80.282 80.282 80.282H876.27c44.237 0 80.282-36.045 80.282-80.282V508.177c0-44.237-36.045-79.735-80.282-79.735zM821.659 98.03c2.184 1.638 4.369 3.823 5.46 6.554l28.946 92.296c2.185 6.554-1.638 13.653-8.192 15.838l-45.33 14.2L821.659 98.03zm-173.67 49.698 77.004-24.576-20.207 134.349-77.005 24.576 20.207-134.349zM473.77 202.89l77.004-24.576L530.57 312.66l-77.005 24.576L473.77 202.89zM182.68 422.98l-7.645 2.185c-6.554 2.184-13.654-1.639-15.838-8.192l-29.491-91.75c-2.185-6.554 1.638-13.654 8.192-15.838l64.443-20.207-19.66 133.802zm96.666-30.583 20.207-134.349 77.005-24.576-20.207 134.349-77.005 24.576zM617.95 734.822 488.516 846.234c-8.192 7.1-19.114 10.376-30.037 10.376-5.461 0-10.923-1.092-16.384-2.73-15.838-5.462-26.214-18.57-26.214-33.315V597.743c0-14.746 10.376-27.853 26.214-33.314s33.86-2.73 45.875 7.646l129.434 111.41c16.93 14.2 16.93 37.138.546 51.337z" fill="#F6AA00"/></svg>