<svg viewBox="0 0 1024 1024" xmlns="http://www.w3.org/2000/svg" width="128" height="128"><path d="M870.4 1024H153.6a51.2 51.2 0 0 1-51.2-51.2V51.2A51.2 51.2 0 0 1 153.6 0h569.685a42.667 42.667 0 0 1 30.038 12.288l155.989 155.99a42.667 42.667 0 0 1 12.288 30.037V972.8a51.2 51.2 0 0 1-51.2 51.2zM153.6 34.133A17.067 17.067 0 0 0 136.533 51.2v921.6a17.067 17.067 0 0 0 17.067 17.067h716.8a17.067 17.067 0 0 0 17.067-17.067V198.315a7.168 7.168 0 0 0-2.39-5.803L729.088 36.522a7.168 7.168 0 0 0-5.803-2.389z" fill="#4D4D4D"/><path d="M904.533 204.8H733.867a17.067 17.067 0 0 1-17.067-17.067V17.067h34.133v153.6h153.6z" fill="#4D4D4D"/><path d="M204.8 170.667h443.733V204.8H204.8zm0 136.533h614.4v34.133H204.8zm0 136.533h614.4v34.134H204.8zm0 136.534h614.4V614.4H204.8zm0 273.066h614.4v34.134H204.8zm0-136.533h614.4v34.133H204.8z" fill="#B3B3B3"/><path d="M68.267 460.8h887.466q17.067 0 17.067 17.067v273.066Q972.8 768 955.733 768H68.267Q51.2 768 51.2 750.933V477.867q0-17.067 17.067-17.067Z" fill="#4295E5"/><path d="M955.733 477.867v273.066H68.267V477.867h887.466m0-34.134H68.267a34.133 34.133 0 0 0-34.134 34.134v273.066a34.133 34.133 0 0 0 34.134 34.134h887.466a34.133 34.133 0 0 0 34.134-34.134V477.867a34.133 34.133 0 0 0-34.134-34.134z" fill="#267ACB"/><path d="m308.907 614.4-55.638-84.31h31.062l40.96 63.489h2.048l41.642-63.488h29.355L341.333 614.4l55.979 83.968h-30.72l-41.301-62.123L281.6 698.71h-29.013zm278.869 84.31V576.852l-49.493 117.76h-19.798l-50.858-117.76V698.71H443.05V530.091h30.72l53.589 129.024h2.048l50.859-129.024h30.378v168.618zm183.637 0h-105.13V530.09h26.282v144.385h78.848z" fill="#FFF"/></svg>