<svg width="0" height="0" class="hidden">
  <symbol viewBox="0 0 1024 1024" xmlns="http://www.w3.org/2000/svg" id="qrcode">
    <path d="M136.51 137.923h81.853v81.854h-81.854v-81.854z"></path>
    <path d="M365.574-9.288H-10.858v376.432h147.367v65.514h81.854v-65.514H365.73v-81.853h65.514v-65.514H365.73l-.157-229.065zm-81.696 294.58H70.995V72.567h212.726v212.725h.157zM136.51 809.093h81.854v81.854H136.51v-81.854zm671.013-671.17h81.854v81.854h-81.854v-81.854zm-294.58 369.992v88.296h81.854v-81.698h65.514V432.66h-65.514v-65.514h-81.854v140.77zm0 299.294v83.738h81.854V743.579h65.514v-81.853H512.943v145.483zm81.854 83.738h65.514v65.514h-65.514v-65.514zM431.09 956.46v81.697h163.708V956.46H431.09z"></path>
    <path d="M742.165 743.58h-81.853v147.367h147.211v-81.854h-65.356V743.58zm65.357 294.578h229.222v-81.697H889.377v-65.514h-81.854v147.211zm229.222-523.643V432.66H889.377v81.854h147.367zM954.89 809.093h81.853v81.854H954.89v-81.854zm-523.8-523.8h81.853v81.853H431.09v-81.854zM807.522 432.66v-65.514h229.222V-9.287H660.312v81.854H512.944v65.514h147.368v81.697h-65.514v65.514h65.514v81.854h81.853v65.514h65.357zM742.165 72.565h212.726v212.726H742.165V72.565zm0 523.646h65.357v65.514h-65.357V596.21zm147.21 147.368h-81.853v65.514H954.89V661.726h81.853v-65.514H889.376v147.367zM431.09 137.923h81.853v81.854H431.09v-81.854zM218.363 514.515h65.514v81.697h-65.514v-81.697zM431.09 432.66H283.878v81.853h81.698v81.698h65.514V432.66z"></path>
    <path d="M365.574 890.947V743.579h65.514v-81.853H136.51V514.515H-10.858v81.853h81.853v65.514h-81.853v376.432h376.432v-81.853h65.514v-65.514h-65.514zm-81.696 65.514H70.995V743.578h212.726v212.883h.157zM431.09 596.21h81.853v65.514H431.09V596.21zm229.22-81.696h81.854v81.697h-81.853v-81.697zm147.212 0h81.854v81.697h-81.854v-81.697z"></path>
  </symbol>
  <symbol viewBox="0 0 1024 1024" xmlns="http://www.w3.org/2000/svg" id="ssl">
    <path d="M959.147 87.04A2369.877 2369.877 0 0 0 512 0a1399.467 1399.467 0 0 0-238.933 31.403C200.02 48.469 129.707 68.267 64.17 87.04c0 542.379-52.566 677.547 379.562 915.115a120.15 120.15 0 0 0 136.534 0c435.882-232.79 379.904-345.43 378.88-915.115zM370.688 601.43a94.55 94.55 0 0 1-73.387 30.037 98.304 98.304 0 0 1-87.722-39.254 121.173 121.173 0 0 1-19.115-70.314h48.47a57.685 57.685 0 0 0 9.215 34.133 49.493 49.493 0 0 0 44.032 19.797 68.267 68.267 0 0 0 34.134-8.192 37.205 37.205 0 0 0 16.725-34.133 31.061 31.061 0 0 0-12.63-26.965 136.533 136.533 0 0 0-34.133-13.654l-23.21-9.216a153.259 153.259 0 0 1-54.614-25.6 90.795 90.795 0 0 1-24.576-70.656 111.957 111.957 0 0 1 17.408-63.829 87.723 87.723 0 0 1 78.848-36.523 88.064 88.064 0 0 1 77.142 37.547 116.053 116.053 0 0 1 20.138 68.267H337.58a64.17 64.17 0 0 0-8.534-29.696 47.104 47.104 0 0 0-42.325-19.115 49.152 49.152 0 0 0-29.355 8.192 35.84 35.84 0 0 0-14.336 31.061 34.133 34.133 0 0 0 9.216 25.6 43.35 43.35 0 0 0 17.408 8.534l60.758 19.456a104.448 104.448 0 0 1 45.738 25.941 88.064 88.064 0 0 1 19.798 62.123 109.91 109.91 0 0 1-25.259 76.458zm232.107 0a94.55 94.55 0 0 1-73.387 30.037 98.304 98.304 0 0 1-87.723-39.254 121.173 121.173 0 0 1-19.114-70.314h50.176a57.685 57.685 0 0 0 9.216 34.133 49.493 49.493 0 0 0 44.032 19.797 68.267 68.267 0 0 0 34.133-8.192 37.205 37.205 0 0 0 16.725-34.133 31.061 31.061 0 0 0-12.629-26.965 136.533 136.533 0 0 0-34.133-13.654l-26.966-8.192a153.259 153.259 0 0 1-54.613-25.6 90.795 90.795 0 0 1-24.576-70.656 111.957 111.957 0 0 1 19.797-64.512 87.723 87.723 0 0 1 78.507-36.864 88.064 88.064 0 0 1 77.141 37.547 116.053 116.053 0 0 1 20.139 68.267h-49.835a64.17 64.17 0 0 0-8.533-29.696 47.104 47.104 0 0 0-42.325-19.115 49.152 49.152 0 0 0-29.355 8.192 35.84 35.84 0 0 0-14.336 31.061 34.133 34.133 0 0 0 9.216 25.6 43.35 43.35 0 0 0 17.408 8.534l60.757 19.456a104.107 104.107 0 0 1 45.739 25.941 88.064 88.064 0 0 1 19.797 62.123 110.25 110.25 0 0 1-25.258 76.458zm241.322 21.503h-176.81V295.595h52.224V563.54h124.245z" fill="#E50012"></path>
  </symbol>
  <symbol viewBox="0 0 1024 1024" xmlns="http://www.w3.org/2000/svg" id="icp">
    <path d="M512.438 0l-408.09 188.264v280.61c0 257.813 172.82 495.72 401.998 553.567l6.152 1.547 6.14-1.595c228.626-58.757 401.001-296.665 401.001-553.58V187.988zM869.85 468.657c0 232.44-153.26 447.613-357.473 503.636-204.824-54.968-358.217-270.2-358.217-503.636V219.873L512.438 54.848 869.85 219.813z" fill="#1296db"></path>
    <path d="M288.176 329.186v268.006h-58.938V329.186zm223.71 71.504a59.261 59.261 0 0 0-13.19-14.833 60.772 60.772 0 0 0-17.82-9.94 61.444 61.444 0 0 0-20.84-3.598q-19.894 0-33.78 7.686a63.83 63.83 0 0 0-22.52 20.65 90.439 90.439 0 0 0-12.579 29.462 146.822 146.822 0 0 0-3.933 34.163 136.51 136.51 0 0 0 3.933 32.845 88.616 88.616 0 0 0 12.58 28.707 64.31 64.31 0 0 0 22.519 20.457q13.886 7.699 33.78 7.699 27.04 0 42.233-16.512t18.635-43.517h57.054a136.365 136.365 0 0 1-11.631 45.423 108.941 108.941 0 0 1-24.774 34.535 105.344 105.344 0 0 1-36.034 21.765 131.905 131.905 0 0 1-45.423 7.506q-30.77 0-55.364-10.696a118.402 118.402 0 0 1-41.479-29.463 130.394 130.394 0 0 1-25.9-44.104 162.135 162.135 0 0 1-9.006-54.609 167.759 167.759 0 0 1 9.005-55.747 133.931 133.931 0 0 1 25.901-44.848 118.438 118.438 0 0 1 41.479-30.038q24.582-10.876 55.364-10.876a134.915 134.915 0 0 1 41.85 6.38 113.378 113.378 0 0 1 35.29 18.574 100.403 100.403 0 0 1 25.71 30.218 108.15 108.15 0 0 1 12.758 41.286h-57.067a47.965 47.965 0 0 0-6.75-18.575zm227.092-71.504q25.182 0 42.785 7.315t28.78 19.33a74.478 74.478 0 0 1 16.14 27.4 102.526 102.526 0 0 1 0 63.626 74.19 74.19 0 0 1-16.14 27.58q-11.08 11.991-28.78 19.33t-42.785 7.315h-61.935v96.098h-58.938V329.186zM722.838 455.3a122.54 122.54 0 0 0 19.51-1.499 45.363 45.363 0 0 0 16.524-5.816 31.849 31.849 0 0 0 11.451-12.195q4.305-7.89 4.305-20.649t-4.305-20.65a31.849 31.849 0 0 0-11.451-12.17 45.363 45.363 0 0 0-16.524-5.816 123.954 123.954 0 0 0-19.51-1.499h-45.795v80.342z" fill="#1296db"></path>
  </symbol>
  <symbol viewBox="0 0 1024 1024" xmlns="http://www.w3.org/2000/svg" id="weather">
    <path d="M102.472 0h819.2a102.4 102.4 0 0 1 102.4 102.4v819.2a102.4 102.4 0 0 1-102.4 102.4h-819.2A102.4 102.4 0 0 1 .072 921.6V102.4A102.4 102.4 0 0 1 102.472 0z" fill="#77C8F2"></path>
    <path d="M189.512 409.6h542.72a148.48 148.48 0 0 1 148.48 148.48v10.24a148.48 148.48 0 0 1-148.48 148.48h-542.72a148.48 148.48 0 0 1-148.48-148.48v-10.24a148.48 148.48 0 0 1 148.48-148.48z" fill="#FFF"></path>
    <path d="M573.44 501.76a204.8 204.8 0 1 0 409.6 0 204.8 204.8 0 1 0-409.6 0z" fill="#FFF"></path>
    <path d="M153.6 358.4a256 256 0 1 0 512 0 256 256 0 1 0-512 0z" fill="#F9C424"></path>
    <path d="M409.672 140.8a217.6 217.6 0 1 1-217.6 217.6 217.6 217.6 0 0 1 217.6-217.6z" fill="#F8E156"></path>
    <path d="M225.618 832.102a29.256 29.256 0 0 0 39.106-14.336c7.005-14.93-4.208-60.016-4.208-60.016s-41.626 19.67-48.63 34.6a29.932 29.932 0 0 0 13.732 39.752zm46.735 92.724a29.276 29.276 0 0 0 39.117-14.336c7.004-14.93-4.219-60.017-4.219-60.017s-41.615 19.671-48.63 34.6a29.942 29.942 0 0 0 13.732 39.753zm74.752-92.724a29.256 29.256 0 0 0 39.107-14.336c7.004-14.93-4.219-60.016-4.219-60.016s-41.615 19.67-48.62 34.6a29.932 29.932 0 0 0 13.773 39.752zm121.518 0a29.276 29.276 0 0 0 39.117-14.336c7.004-14.93-4.219-60.016-4.219-60.016s-41.615 19.67-48.63 34.6a29.942 29.942 0 0 0 13.784 39.752zm121.529 0a29.256 29.256 0 0 0 39.106-14.336c7.015-14.93-4.208-60.016-4.208-60.016s-41.626 19.67-48.63 34.6a29.942 29.942 0 0 0 13.773 39.752zm-196.23 92.724a29.256 29.256 0 0 0 39.107-14.336c7.015-14.93-4.209-60.017-4.209-60.017s-41.625 19.671-48.63 34.6a29.942 29.942 0 0 0 13.733 39.753zm121.529 0a29.256 29.256 0 0 0 39.106-14.336c7.005-14.93-4.208-60.017-4.208-60.017s-41.626 19.671-48.63 34.6a29.932 29.932 0 0 0 13.69 39.753zm196.31-92.724a29.256 29.256 0 0 0 39.107-14.336c7.005-14.93-4.218-60.016-4.218-60.016s-41.616 19.67-48.62 34.6a29.932 29.932 0 0 0 13.691 39.752zm-74.751 92.724a29.276 29.276 0 0 0 39.117-14.336c7.004-14.93-4.22-60.017-4.22-60.017s-41.615 19.671-48.619 34.6a29.932 29.932 0 0 0 13.64 39.753z" fill="#FFF"></path>
  </symbol>
  <symbol viewBox="0 0 1861 1024" xmlns="http://www.w3.org/2000/svg" id="ping">
    <path d="M186.182 502.69v223.42H46.545V83.781h214.11c158.254 0 232.727 65.163 232.727 204.8 0 65.163-27.927 121.018-74.473 158.254-37.236 37.237-93.09 55.855-167.564 55.855h-65.163zm0-307.2v204.8h55.854c83.782 0 121.019-37.235 121.019-102.4 0-65.163-37.237-102.4-121.019-102.4h-55.854zm381.673-74.472c0-18.618 9.309-37.236 18.618-46.545 18.618-9.31 37.236-18.618 65.163-18.618 18.619 0 37.237 9.309 55.855 18.618 18.618 9.309 18.618 27.927 18.618 46.545s-9.309 37.237-18.618 46.546c-18.618 18.618-37.236 27.927-55.855 27.927-27.927 0-46.545-9.31-55.854-18.618s-27.927-37.237-27.927-55.855zm18.618 605.091V269.964H716.8v456.145H586.473zm679.563 0H1135.71V465.455c0-74.473-27.927-111.71-74.473-111.71-27.927 0-46.545 9.31-65.163 27.928-18.618 18.618-27.928 46.545-27.928 74.472V716.8H828.51V269.964h130.327v74.472c37.237-55.854 83.782-83.781 148.946-83.781 102.4 0 148.945 65.163 148.945 186.181V726.11zm549.237-55.854c0 83.781-27.928 148.945-74.473 195.49S1619.782 930.91 1536 930.91c-65.164 0-111.71-9.309-148.945-27.927v-111.71c46.545 27.928 93.09 37.237 139.636 37.237s83.782-9.309 111.709-37.236c27.927-27.928 37.236-55.855 37.236-102.4v-37.237c-27.927 55.855-83.781 74.473-139.636 74.473s-102.4-18.618-139.636-65.164c-37.237-37.236-55.855-93.09-55.855-167.563s18.618-139.637 55.855-186.182c46.545-27.927 93.09-46.545 158.254-46.545 55.855 0 93.091 18.618 121.018 65.163v-55.854h130.328v400.29zm-130.328-204.8c0-27.928-9.309-55.855-27.927-74.473-18.618-18.618-46.545-27.927-74.473-27.927-27.927 0-55.854 9.309-74.472 37.236-18.618 27.927-27.928 65.164-27.928 102.4 0 37.236 9.31 74.473 27.928 93.09 18.618 18.619 37.236 37.237 74.472 37.237 27.928 0 55.855-9.309 74.473-37.236s27.927-55.855 27.927-93.091v-37.236z" fill="#13227a"></path>
  </symbol>
  <symbol viewBox="0 0 1075 1024" xmlns="http://www.w3.org/2000/svg" id="zoning">
    <path d="M521.726 337.676h-61.849c-32.42 61.35-64.343 111.228-71.326 121.702l-14.464 22.944-14.964-22.944c-6.983-10.474-38.905-60.352-71.326-121.702h-77.31l-19.952 168.09 414.987-9.976zM737.7 498.782a867.881 867.881 0 0 1 191.034 87.287V365.607S663.38 480.827 737.699 498.782zm66.837-116.715c0-7.482-214.975-41.897-214.975-41.897l82.797 134.67a1282.37 1282.37 0 0 0 132.178-92.773zM356.13 535.193H172.08l-45.888 158.114h153.126l76.813-158.114zm92.773 28.431A268.844 268.844 0 0 0 331.69 670.862a315.73 315.73 0 0 1 232.433 220.96H794.56a862.893 862.893 0 0 1 166.593-202.505S811.52 536.191 641.434 536.191a498.782 498.782 0 0 0-192.53 27.433z" fill="#3FA9F5"></path>
    <path d="M131.18 736.203l-3.492 82.299 276.824 3.491 118.71 49.38-118.71-135.17H131.18z" fill="#3FA9F5"></path>
    <path d="M1009.037 309.744a42.895 42.895 0 0 0-42.397-37.908H470.85a337.676 337.676 0 0 0 40.402-119.707 137.165 137.165 0 0 0-274.33 0 337.676 337.676 0 0 0 40.4 119.707H156.12a42.895 42.895 0 0 0-42.397 34.915L10.474 873.368a42.895 42.895 0 0 0 42.397 49.878h384.561a1904.35 1904.35 0 0 0 370.595 85.292 42.396 42.396 0 0 0 24.44-7.98 1488.865 1488.865 0 0 0 220.462-199.514 42.895 42.895 0 0 0 10.475-33.917zM265.85 152.129a108.236 108.236 0 1 1 216.97 0c0 46.885-69.83 171.082-108.236 234.427-38.905-63.345-108.734-187.043-108.734-234.427zM850.424 933.72l-262.36-6.484c-68.832-18.455-126.69-36.91-138.661-40.9a40.401 40.401 0 0 0-12.969 0H52.871l-2.993-5.487 103.248-566.616a3.491 3.491 0 0 1 3.492-2.494h142.651c28.93 53.37 57.86 99.756 64.343 110.23l11.971 18.955 11.97-18.954c5.986-9.976 35.414-56.363 64.344-110.231H966.64a3.491 3.491 0 0 1 3.492 2.993l49.878 408.004A538.186 538.186 0 0 0 850.424 933.72z" fill="#3FA9F5"></path>
  </symbol>
  <symbol viewBox="0 0 1415 1024" xmlns="http://www.w3.org/2000/svg" id="idcard">
    <path d="M60.235 69.27h1298.07v894.495H60.236z" fill="#F5C539"></path>
    <path d="M1258.918 0H156.612C69.27 0 0 69.27 0 156.612v707.764C0 954.73 69.27 1024 156.612 1024h1102.306c87.34 0 156.611-69.27 156.611-156.612V156.612C1415.53 69.27 1346.26 0 1258.918 0zm78.306 867.388c0 42.165-36.142 78.306-78.306 78.306H156.612c-42.165 0-78.306-36.141-78.306-78.306V156.612c0-42.165 36.141-78.306 78.306-78.306h1102.306c42.164 0 78.306 36.141 78.306 78.306v710.776zm0 0" fill="#333"></path>
    <path d="M1108.33 542.118c42.164-36.142 69.27-90.353 69.27-150.589 0-108.423-87.341-195.764-195.765-195.764s-195.764 87.34-195.764 195.764c0 60.236 27.105 114.447 69.27 150.589C768 587.294 707.765 680.658 707.765 786.07c0 21.082 18.07 39.153 39.153 39.153 21.082 0 39.153-18.071 39.153-39.153 0-108.424 87.34-195.765 195.764-195.765S1177.6 677.647 1177.6 786.07c0 21.082 18.07 39.153 39.153 39.153 21.082 0 39.153-18.071 39.153-39.153 3.012-105.412-57.224-195.765-147.577-243.953zM864.375 394.54c0-66.259 54.212-117.459 117.46-117.459 66.258 0 117.458 54.212 117.458 117.46 0 66.258-54.212 117.458-117.459 117.458S864.375 457.787 864.375 394.54zM668.612 277.082H195.765c-21.083 0-39.153 18.07-39.153 39.153s18.07 39.153 39.153 39.153h472.847c21.082 0 39.153-18.07 39.153-39.153 0-24.094-18.07-39.153-39.153-39.153zm-39.153 195.765H195.765c-21.083 0-39.153 18.07-39.153 39.153 0 21.082 18.07 39.153 39.153 39.153h433.694c21.082 0 39.153-18.07 39.153-39.153 0-21.082-18.07-39.153-39.153-39.153zM512 668.612H195.765c-21.083 0-39.153 18.07-39.153 39.153 0 21.082 18.07 39.153 39.153 39.153H512c21.082 0 39.153-18.07 39.153-39.153s-18.07-39.153-39.153-39.153zm0 0" fill="#333"></path>
  </symbol>
  <symbol viewBox="0 0 1024 1024" xmlns="http://www.w3.org/2000/svg" id="tiny">
    <path d="M814.9 999.7c-18.4 0-107.9-12.2-107.9-27.3 0-84.1-33.8-167.6-95.3-234.9-62.2-68.1-96.4-152.6-96.4-237.7 0-61.2 17.6-122.5 50.9-177.2 50.3-82.7 76.9-175.3 76.9-267.7 0-15.1 67.9 0 86.2 0s54.9-15.1 54.9 0c0 100.9-29 201.9-83.9 292.2-28.7 47.2-43.9 100-43.9 152.8 0 73.4 29.5 146.2 83.1 204.9 70 76.7 108.6 171.8 108.6 267.7 0 15-14.9 27.2-33.2 27.2zM454 764.2a40.7 40.7 0 1 0 81.4 0 40.7 40.7 0 1 0-81.4 0z" fill="#BDE6FF"></path>
    <path d="M804.5 198.6c4.3-28.5 6.4-57.4 6.7-86.5 0-3.1-.1-6.3-.5-9.4v-.4c-4-39.6-36.9-70-76.7-70.7l-392.5-7.4c-33.7-.6-64 20.3-75.4 52-5.2 14.6-7.6 30.2-5.9 45.6 1.3 11.8 3.4 23 5.9 34.1 10.3 45.9 42.8 85.1 87.7 98.9 35.8 11 68.4 3.3 104.1-30.7 14.5-13.8 33.9-21.6 54-21.6h4c20.3 0 39.4 8.4 54.5 22 55.6 49.8 128.1 60.9 191 32.8 23.5-10.4 39.3-33.3 43.1-58.7z" fill="#70BAF2"></path>
    <path d="M863.7 992.4c-11 0-20-9-20-20 0-85.7-28.3-170.7-79.8-239.3-25.1-33.5-44.6-70.7-57.8-110.4-13.2-39.7-20-81.1-20-122.9 0-60.1 14.2-120.3 41-173.9 41.9-83.6 64-177.3 64-271 0-11 9-20 20-20s20 9 20 20c0 99.8-23.6 199.7-68.2 288.9-24.1 48.1-36.8 102.1-36.8 156 0 74.9 24.8 149.3 69.8 209.3 28.4 37.8 50.3 79.7 65.3 124.5 14.9 44.8 22.5 91.5 22.5 138.8 0 11-9 20-20 20zm-700.3 0c-11 0-20-9-20-20 0-47.2 7.6-93.9 22.5-138.8 15-44.8 36.9-86.7 65.3-124.5 45-60 69.8-134.3 69.8-209.3 0-54-12.7-107.9-36.8-156.1-44.6-89.1-68.2-189-68.2-288.8 0-11 9-20 20-20s20 9 20 20c0 93.6 22.1 187.3 64 270.9 26.8 53.7 41 113.8 41 174 0 41.9-6.7 83.2-20 123-13.3 39.7-32.7 76.9-57.8 110.3-51.5 68.6-79.8 153.6-79.8 239.3 0 11-9 20-20 20z" fill="#1D1B4C"></path>
    <path d="M233.5 555.2h-210c-11 0-20-9-20-20s9-20 20-20h210c11 0 20 9 20 20s-9 20-20 20z" fill="#1D1B4C"></path>
    <path d="M146 642.7c-5.1 0-10.2-2-14.1-5.9-7.8-7.8-7.8-20.5 0-28.3l73.4-73.4-73.4-73.4c-7.8-7.8-7.8-20.5 0-28.3s20.5-7.8 28.3 0l87.5 87.5c7.8 7.8 7.8 20.5 0 28.3l-87.5 87.5c-4 4-9.1 6-14.2 6zm857.8-87.5H793.7c-11 0-20-9-20-20s9-20 20-20h210.1c11 0 20 9 20 20s-9 20-20 20z" fill="#1D1B4C"></path>
    <path d="M881.2 642.7c-5.1 0-10.2-2-14.1-5.9l-87.5-87.5c-7.8-7.8-7.8-20.5 0-28.3l87.5-87.5c7.8-7.8 20.5-7.8 28.3 0s7.8 20.5 0 28.3L822 535.2l73.4 73.4c7.8 7.8 7.8 20.5 0 28.3-4 3.8-9.1 5.8-14.2 5.8z" fill="#1D1B4C"></path>
  </symbol>
  <symbol viewBox="0 0 1024 1024" xmlns="http://www.w3.org/2000/svg" id="diff">
    <path d="M684.672 909.76h151.723c24.64 0 44.65-16.661 44.65-37.163v-63.509c0-20.501-20.01-37.163-44.65-37.163H684.672c-24.619 0-44.65 16.662-44.65 37.163v63.51c0 20.48 20.01 37.162 44.65 37.162zm-.235-219.264h294.934c24.64 0 44.629-16.661 44.629-37.163v-63.466c0-20.544-19.99-37.206-44.63-37.206H684.673c-24.619 0-44.65 16.662-44.65 37.206v63.466c0 20.502 20.01 37.163 44.415 37.163zm.235-219.2H962.24c24.597 0 44.608-16.683 44.608-37.205v-63.446c0-20.522-20.01-37.162-44.608-37.162H684.672c-24.619 0-44.65 16.64-44.65 37.162v63.446c0 20.522 20.01 37.205 44.65 37.205zm0-219.221h185.536c24.619 0 44.63-16.662 44.63-37.184v-63.446c0-20.522-20.011-37.184-44.63-37.184H684.672c-24.619 0-44.65 16.662-44.65 37.184v63.446c0 20.501 20.01 37.184 44.65 37.184z" fill="#3D8DE9"></path>
    <path d="M519.083 0h42.666v1024h-42.666V0z" fill="#278DF6"></path>
    <path d="M405.312 872.576v-63.51c0-20.5-20.01-37.162-44.65-37.162H44.65C20.01 771.925 0 788.587 0 809.088v63.51c0 20.5 20.01 37.14 44.65 37.14h316.011c24.64 0 44.651-16.66 44.651-37.162zm0-219.243v-63.466c0-20.544-20.01-37.206-44.65-37.206H151.295c-24.64 0-44.63 16.683-44.63 37.206v63.466c0 20.502 19.99 37.163 44.63 37.163h209.6c24.405 0 44.416-16.661 44.416-37.163zm0-219.242v-63.446c0-20.522-20.01-37.162-44.65-37.162H83.114c-24.598 0-44.608 16.64-44.608 37.162v63.446c0 20.522 20.01 37.205 44.608 37.205h277.568c24.618 0 44.629-16.683 44.629-37.205zm0-219.2v-63.446c0-20.522-20.01-37.184-44.65-37.184H175.124c-24.618 0-44.629 16.662-44.629 37.184v63.446c0 20.522 20.01 37.184 44.63 37.184H360.66c24.64 0 44.651-16.683 44.651-37.184z" fill="#5AD651"></path>
    <path d="M519.083 1024h-42.667V0h42.667v1024z" fill="#278DF6"></path>
  </symbol>
  <symbol viewBox="0 0 1024 1024" xmlns="http://www.w3.org/2000/svg" id="json">
    <path d="M512 579.584a99.328 99.328 0 0 0-18.944 62.464A102.4 102.4 0 0 0 512 704a59.392 59.392 0 0 0 51.2 24.064 60.928 60.928 0 0 0 51.2-23.04 97.28 97.28 0 0 0 17.92-61.952 104.96 104.96 0 0 0-17.92-64 58.368 58.368 0 0 0-51.2-23.552 60.928 60.928 0 0 0-51.2 24.064z" fill="#1296db"></path>
    <path d="M970.24 431.104h-53.76V215.552L700.416 0H215.552a107.52 107.52 0 0 0-107.52 108.032v323.072H53.76A53.76 53.76 0 0 0 0 484.864v323.584a53.76 53.76 0 0 0 53.76 53.76h54.272v53.76A108.032 108.032 0 0 0 215.552 1024h592.896a108.032 108.032 0 0 0 107.52-108.032v-53.76h53.76a53.76 53.76 0 0 0 54.272-53.76V484.864a53.76 53.76 0 0 0-53.76-53.76zM161.792 102.4a53.76 53.76 0 0 1 53.76-55.808h431.104V153.6a108.032 108.032 0 0 0 108.032 108.032H862.72v162.304H161.792zm527.872 537.088a138.24 138.24 0 0 1-35.328 98.304 120.32 120.32 0 0 1-92.16 37.888 119.296 119.296 0 0 1-90.624-36.352 131.072 131.072 0 0 1-34.816-94.208 139.776 139.776 0 0 1 35.84-99.328 122.368 122.368 0 0 1 94.208-38.4 115.712 115.712 0 0 1 89.6 36.864 135.68 135.68 0 0 1 33.28 95.232zm-347.648 44.544a168.448 168.448 0 0 0-47.616-25.6q-60.928-25.6-60.928-75.264a65.536 65.536 0 0 1 27.648-56.32 121.344 121.344 0 0 1 72.704-19.968 179.2 179.2 0 0 1 64 9.728v51.2a105.984 105.984 0 0 0-60.928-17.92 62.464 62.464 0 0 0-32.768 7.68 22.528 22.528 0 0 0-12.288 19.968 25.6 25.6 0 0 0 8.192 18.432 156.672 156.672 0 0 0 41.472 23.04 135.168 135.168 0 0 1 51.2 34.816 69.12 69.12 0 0 1 14.336 44.032 66.56 66.56 0 0 1-26.624 56.832A124.928 124.928 0 0 1 307.2 775.68a161.28 161.28 0 0 1-73.216-14.336v-55.296A108.544 108.544 0 0 0 307.2 732.16a60.416 60.416 0 0 0 33.792-7.68 23.552 23.552 0 0 0 11.264-19.968 28.16 28.16 0 0 0-10.24-20.48zM97.28 775.68A97.28 97.28 0 0 1 60.928 768v-51.2a51.2 51.2 0 0 0 32.768 10.752q39.936 0 39.936-60.416V512h55.296v157.696a117.248 117.248 0 0 1-23.552 78.848A84.992 84.992 0 0 1 97.28 775.68zM862.208 908.8a53.76 53.76 0 0 1-53.76 53.76H215.552a53.76 53.76 0 0 1-53.76-53.76v-53.76h700.416zm102.4-137.728h-57.344l-110.08-167.936a192.512 192.512 0 0 1-12.288-20.992 409.6 409.6 0 0 1 0 41.472v147.456h-51.2V512H793.6l105.984 163.328 12.8 20.48a240.128 240.128 0 0 1 0-35.84V512h51.2z" fill="#1296db"></path>
  </symbol>
  <symbol viewBox="0 0 1024 1024" xmlns="http://www.w3.org/2000/svg" id="sql">
    <path d="M448 352c229.696 0 416-62.08 416-160S677.696 32 448 32 32 94.08 32 192s186.304 160 416 160zm0-64c-99.968 0-193.344-13.184-261.44-35.84C126.912 232.32 96 207.872 96 192s30.912-40.32 90.56-60.16C254.72 109.184 348.032 96 448 96c99.968 0 193.344 13.184 261.44 35.84C769.088 151.68 800 176.128 800 192s-30.912 40.32-90.56 60.16C641.28 274.816 547.968 288 448 288z" fill="#efb336"></path>
    <path d="M64 160a32 32 0 0 1 31.488 26.24L96 192v192c0 15.872 30.912 40.32 90.56 60.16 6.784 2.24 13.76 4.416 20.992 6.4a128.064 128.064 0 0 0-15.104 50.432L192 512v1.024c-37.76-10.688-70.4-23.936-96-39.488V576c0 15.872 30.912 40.32 90.56 60.16l5.44 1.664v67.136c-37.76-10.624-70.336-23.872-96-39.424V832c0 15.872 30.912 40.32 90.56 60.16C254.656 914.816 348.032 928 448 928c99.968 0 193.344-13.184 261.44-35.84 55.68-18.56 86.336-41.024 90.176-56.896L800 832h64v28.8a32 32 0 0 1-32 32l5.312-.448C777.984 954.688 625.984 992 448 992s-329.984-37.312-389.312-99.648a32 32 0 0 1-26.176-25.728L32 860.8V192a32 32 0 0 1 32-32zm736 32a32 32 0 0 1 63.488-5.76L864 192v192a32 32 0 1 1-64 0V192z" fill="#efb336"></path>
    <path d="M256 672.576l61.248-12.48c4.992 38.336 25.856 57.472 62.528 57.472 27.52-.832 42.048-12.096 43.712-33.728.832-15.04-8.768-26.688-28.736-35.008a307.456 307.456 0 0 0-55.04-14.976c-50.816-10.88-75.392-37.504-73.728-80 4.992-45.888 38.784-70.4 101.248-73.792 65.856-1.664 104.192 24.192 115.008 77.504l-61.248 11.264c-4.16-26.688-21.248-40-51.2-40-24.192.832-37.12 9.6-38.784 26.24-1.664 14.976 14.592 26.24 48.768 33.728 26.624 5.888 48.32 13.376 64.96 22.528 29.184 16.64 44.16 40 44.992 70.016-2.496 53.312-38.72 80.832-108.736 82.496-70.016.832-111.68-29.568-124.992-91.264zm431.552 84.992l65.024 62.528-68.8 19.968-59.968-77.44c-76.672-12.544-116.672-59.2-120-140.032 4.16-90.88 50.432-138.368 138.752-142.528 84.16 4.992 129.152 52.48 135.04 142.528-1.728 69.12-31.744 114.176-90.048 135.04zm22.528-135.04c-1.728-57.472-25.024-87.424-70.016-89.984-44.992 3.392-68.736 33.344-71.296 90.048 1.728 56.64 25.472 86.656 71.296 89.984 44.992-1.664 68.288-31.68 70.016-89.984zm296.512 136.32H802.88V483.84h62.464v226.24h141.248v48.768z" fill="#efb336"></path>
  </symbol>
  <symbol viewBox="0 0 1024 1024" xmlns="http://www.w3.org/2000/svg" id="purine">
    <path d="M774.8 327.8c-50.6-4.8-97.3 4.3-131 22.7 15.9 20.3 26.1 52.1 26.1 87.9 0 29.2-6.8 55.7-17.9 75.5 28.3 16.9 64.5 28.8 104.6 32.6 96.7 9.2 179.2-32.4 184.2-92.8s-69.3-116.7-166-125.9z" fill="#FFB89A"></path>
    <path d="M67.2 494l1 31c2.2 67.7 26.2 133.6 69.6 190.4 41.6 54.5 99.6 99.2 167.9 129.3 15.2 6.7 32.9-.2 39.5-15.4 6.7-15.2-.2-32.9-15.4-39.5-59-26-108.9-64.3-144.4-110.8-29-38-47.5-80.7-54.4-125h762.6c-7 44.8-25.8 87.9-55.4 126.3-36.1 46.8-86.8 85.2-146.8 110.9-15.2 6.5-22.2 24.2-15.7 39.4 4.9 11.4 15.9 18.2 27.6 18.2 4 0 8-.8 11.8-2.4 144.5-62.2 237-185.3 241.3-321.4l1-31H67.2z" fill="#45484C"></path>
    <path d="M591.9 800.1h-159c-35.2 0-64.1 28.8-64.1 64.1s28.8 64.1 64.1 64.1h159c35.2 0 64.1-28.8 64.1-64.1s-28.9-64.1-64.1-64.1zm0 68.1h-159c-2.1 0-4.1-2-4.1-4.1s2-4.1 4.1-4.1h159c2.1 0 4.1 2 4.1 4.1s-2 4.1-4.1 4.1z" fill="#45484C"></path>
    <path d="M498.1 373.5c-9.6-13.5-28.4-16.6-41.9-6.9-13.5 9.6-16.6 28.4-6.9 41.9 10.8 15.1 16.6 33 16.6 51.7 0 16.6 13.4 30 30 30s30-13.4 30-30c0-31.4-9.6-61.4-27.8-86.7zm-65.7-51.7c-17.7-7.1-36.3-10.7-55.5-10.7-82.2 0-149 66.8-149 149 0 16.6 13.4 30 30 30s30-13.4 30-30c0-49.1 39.9-89 89-89 11.5 0 22.6 2.1 33.1 6.4 15.4 6.2 32.8-1.3 39-16.7 6.2-15.4-1.2-32.9-16.6-39z" fill="#3C9"></path>
    <path d="M549.4 274.7c-46.7-45.6-107.7-70.8-171.8-70.8-64.1 0-125.1 25.1-171.8 70.8-46.1 45.1-74 106-78.6 171.4-1.2 16.5 11.3 30.9 27.8 32 16.5 1.1 30.9-11.3 32-27.8 3.5-50.8 25.1-97.9 60.7-132.7 35.4-34.6 81.5-53.7 129.9-53.7 48.3 0 94.5 19.1 129.9 53.7 35.6 34.8 57.1 81.9 60.7 132.7 1.1 15.8 14.3 27.9 29.9 27.9.7 0 1.4 0 2.1-.1 16.5-1.2 29-15.5 27.8-32-4.6-65.4-32.5-126.3-78.6-171.4zm345.7 111.2c-11.5-19.4-27.7-36.6-48.1-51.2l53.9-58.3c11.2-12.2 10.5-31.2-1.7-42.4s-31.2-10.5-42.4 1.7l-65 70.4c-5-1.8-10.1-3.5-15.3-5l82.4-159.2c7.6-14.7 1.9-32.8-12.9-40.4-14.7-7.6-32.8-1.9-40.4 12.9l-91.2 176.3c-5.5-.3-11.1-.5-16.7-.5-21.9 0-43.5 2.4-64.3 7.2-16.1 3.7-26.2 19.8-22.5 36 3.7 16.1 19.8 26.2 36 22.5 16.3-3.8 33.4-5.7 50.7-5.7 43.6 0 84.2 11.8 114.3 33.3 27.1 19.3 42 44 42 69.5 0 16.6 13.4 30 30 30s30-13.4 30-30c0-23.5-6.3-46.1-18.8-67.1z" fill="#45484C"></path>
  </symbol>
  <symbol viewBox="0 0 1024 1024" xmlns="http://www.w3.org/2000/svg" id="bmi">
    <path d="M511.2 66.2c-245.8 0-445.8 200-445.8 445.8s200 445.8 445.8 445.8S957 757.8 957 512 757 66.2 511.2 66.2zm0 835.9c-215.1 0-390.1-175-390.1-390.1 0-215.1 175-390.1 390.1-390.1 215.1 0 390.1 175 390.1 390.1 0 215.1-175 390.1-390.1 390.1z" fill="#81D31B"></path>
    <path d="M391.2 505.7c21.6-10 32.3-25.8 32.3-47.3 0-6.3-1-12.2-3.1-17.9-4.2-11.3-12.1-20.8-22.5-27-6-3.6-12.8-6.1-20.3-7.4-7.6-1.3-16.5-1.9-26.8-1.9H281c-9.3 0-16.1 2.1-20.2 6.2-4.2 4.2-6.2 11-6.2 20.5v162c0 9.3 2 16.1 6.1 20.4 4.1 4.3 10.9 6.4 20.4 6.4H347c10 .1 19.9-.5 29.8-1.6 7.8-.9 15.4-2.9 22.7-5.8 10.3-4.4 19-11.9 25-21.4 6.2-9.7 9.3-20.5 9.3-32.6-.1-26-14.3-43.6-42.6-52.6zM298.3 437h35.4c15.9 0 27.7 1.8 35.4 5.4 7.7 3.6 11.6 10.8 11.6 21.7.1 4.9-1.2 9.6-3.7 13.8-2.8 5.5-7.7 9.8-13.6 11.8-5.9 2.1-14.3 3.1-25.2 3.1h-40V437zm46.9 150h-46.9v-62.9h45.4c15.2 0 26.6 2.4 34.3 7.3 7.6 4.9 11.5 12.8 11.5 23.7 0 21.3-14.8 31.9-44.3 31.9zm416.5-179.9c-4.1-4.4-10-6.8-16-6.5-6.4 0-11.5 2.2-15.5 6.6-4 4.4-6 11-6 19.8v169.8c0 8.8 2 15.5 6.1 19.9 4.1 4.5 9.2 6.7 15.5 6.7 6 .2 11.9-2.2 16-6.6 4.1-4.4 6.1-11.1 6.1-20V427c-.1-8.9-2.2-15.6-6.2-19.9zm-91.5 2c-4.9-3.3-11.5-4.9-19.9-4.9h-13.5c-8.1 0-14.1.7-17.7 2.2-3.7 1.4-6.6 4.3-8.2 7.9-1.8 3.8-3.8 10-6 18.7l-31.3 118.1L542.2 433c-2.3-8.6-4.3-14.9-6-18.7-1.8-3.8-4.5-6.5-8.1-7.9-3.7-1.5-9.6-2.2-17.7-2.2h-13.5c-8.3 0-14.9 1.6-19.8 4.9-4.9 3.3-7.4 9.6-7.4 19.1v170.5c0 8.3 1.9 14.5 5.6 18.6 3.7 4.1 9 6.3 14.4 6.1 5.5.2 10.9-2.1 14.6-6.2 3.7-4.1 5.5-10.3 5.5-18.5V449.9l34.5 137.4c1.1 4.5 2.3 8.8 3.4 13 1 4 2.6 7.8 4.6 11.4 2 3.5 4.7 6.3 8.2 8.5 3.5 2.2 7.8 3.3 13 3.3 6.7 0 12-1.7 15.9-5.2 3.6-3.1 6.3-7 7.9-11.4 1.4-4.2 3.3-10.7 5.5-19.6l34.6-137.4v148.8c0 8.2 1.9 14.4 5.6 18.5 3.6 4.1 8.8 6.4 14.3 6.2 5.6.2 11-2 14.8-6.2 3.7-4.1 5.5-10.3 5.5-18.5V428.2c-.1-9.4-2.5-15.8-7.4-19.1z" fill="#81D31B"></path>
    <path d="M511.2 149.8C311.1 149.8 149 311.9 149 512c0 200 162.2 362.2 362.2 362.2S873.4 712 873.4 512c0-200.1-162.2-362.2-362.2-362.2zm0 696.6c-184.4 0-334.4-150-334.4-334.4 0-184.4 150-334.4 334.4-334.4 184.4 0 334.4 150 334.4 334.4 0 184.3-150 334.4-334.4 334.4z" fill="#81D31B"></path>
  </symbol>
  <symbol viewBox="0 0 1024 1024" xmlns="http://www.w3.org/2000/svg" id="xml">
    <path d="M677.724 6.676h-525.83c-14.623 0-22.253 2.543-22.253 25.115v964.55c0 6.359 7.63 27.659 22.254 27.659H878.01c14.624 0 14.624-21.3 14.624-27.658V233.349c0-12.717 4.133-16.85 0-19.711L685.99 6.676c-2.861-2.861-4.133 0-8.266 0z" fill="#E9E9E0"></path>
    <path d="M127.733 578.92h766.808q61.676 0 61.676 61.676v226.355q0 61.675-61.676 61.675H127.733q-61.675 0-61.675-61.675V640.596q0-61.675 61.675-61.675z" fill="#22B573"></path>
    <path d="M385.561 879.985h-54.68l-38.786-71.848a61.357 61.357 0 0 1-3.497-13.353 97.6 97.6 0 0 1-5.087 14.624l-40.375 70.577H187.82l68.987-108.408-63.582-108.091h56.906l32.11 67.715a111.588 111.588 0 0 1 6.676 17.804h-.318q2.861-8.902 6.994-18.44l35.606-65.49h52.774l-65.49 105.866zm224.765 0V748.687q0-18.121 1.908-45.78a239.389 239.389 0 0 1-6.676 27.977l-53.41 149.101h-38.15l-54.045-148.784a295.978 295.978 0 0 1-6.676-29.248q1.908 27.341 1.908 54.682V879.03h-42.919V663.486h67.08l46.415 131.298a157.05 157.05 0 0 1 7.948 31.792 319.821 319.821 0 0 1 9.22-31.792l46.733-130.344h65.172v216.499zm222.858 0H706.018v-216.5h46.098v178.668h80.75z" fill="#FFF"></path>
    <path d="M687.58 505.8h-97.282L521.31 378.636a107.773 107.773 0 0 1-7.63-25.115 175.17 175.17 0 0 1-8.902 25.751l-69.305 127.166h-99.19L459.634 314.1 346.776 123.35h100.779l57.224 117.628a201.557 201.557 0 0 1 12.08 31.79q5.087-15.577 12.717-31.79l63.583-116.357h91.56L568.361 315.37z" fill="#22B573"></path>
    <path d="M701.886 0v229.216h202.51z" fill="#D9D7CA"></path>
  </symbol>
  <symbol viewBox="0 0 1024 1024" xmlns="http://www.w3.org/2000/svg" id="regex">
    <path d="M327.091 521.958l-29.161-48.404c-20.643-34.436-37.57-56.612-50.782-66.53-13.212-9.917-27.25-14.875-42.112-14.875h-41.287v247.934H27.504V0H251.69C403.9 0 480.003 57.85 480.003 173.554c0 43.526-12.73 80.854-38.19 111.983-25.46 31.13-60.484 53.03-105.074 65.703v1.653c29.451 9.917 62.067 42.424 97.849 97.52l5.29 8.322c-42.346 12.634-80.717 34.484-112.787 63.223zM163.75 103.719v184.298h66.884c31.929 0 57.595-9.298 77-27.893 19.404-18.595 29.106-41.804 29.106-69.628 0-57.852-34.542-86.777-103.629-86.777h-69.36zm507.168 855.01c-41.725 28.163-92.012 44.607-146.14 44.607-144.442 0-261.536-117.094-261.536-261.536s117.094-261.536 261.536-261.536S786.312 597.358 786.312 741.8c0 60.103-20.274 115.471-54.356 159.638l51.133 51.133c16.343 16.343 16.35 42.833.01 59.174-16.339 16.338-42.821 16.345-59.175-.009l-53.007-53.008zm131.55-318.646h194.029v-111.57H754.145v-154.96H965.53V262.398H754.145V111.57h227.488V0H617.9v460.532c85.551 28.499 153.745 95.026 184.567 179.55zm-277.69 305.134c112.344 0 203.416-91.073 203.416-203.417 0-112.344-91.072-203.417-203.416-203.417S321.36 629.456 321.36 741.8c0 112.344 91.073 203.417 203.417 203.417z" fill="#13227a"></path>
  </symbol>
  <symbol viewBox="0 0 1024 1024" xmlns="http://www.w3.org/2000/svg" id="express">
    <path d="M957.335 643.702c-1.948 13.343-15.536 22.39-30.368 20.216L604.891 616.8c-14.825-2.169-25.266-14.732-23.306-28.075l43.27-295.813c1.952-13.334 15.545-22.382 30.38-20.206l322.083 47.118c14.816 2.167 25.25 14.73 23.3 28.066l-43.283 295.812z" fill="#FD6B56"></path>
    <path d="M782.737 290.746l89.973 13.26-13.583 92.167-89.975-13.26z" fill="#FFD161"></path>
    <path d="M400.578 131.662l238.454 27.726s17.744-21.072 0-33.272l-47.667-2.531s12.174-72.887-79.878-80.65c-.002 0-97.6-6.655-110.91 88.727z" fill="#F56F5C"></path>
    <path d="M408.853 139.287a103.296 103.296 0 0 0-8.275 40.619c0 57.273 46.424 103.7 103.7 103.7 57.272 0 103.697-46.426 103.697-103.7 0-5.953-.615-11.749-1.574-17.433l-197.548-23.186z" fill="#FDD15E"></path>
    <path d="M361.759 367.897s31.054-87.618 123.106-74.309c0 0 56.566-1.37 107.584 79.722 0 0 30.187 58.911 54.466 75.549 0 0 70.86 11.09 145.167 9.98 0 0 59.891 38.82-7.763 73.201 0 0-137.527 6.654-176.346-15.526 0 0-69.871-55.455-72.09-65.436 0 0-17.745-7.764-23.29 13.309l-56.564 104.851s-7.763 17.148 6.654 34.892l85.397 104.254s15.529 27.727-1.108 74.31l-66.545 170.8s-51.018 25.508-61-26.62c0 0 4.437-63.217 29.946-131.981 0 0 16.636-33.27 3.327-54.343l-75.418-77.637s-35.491-15.526-46.582 11.091l-32.163 67.655s-32.163 38.816-59.89 48.798L87.813 838.149s-64.326 7.762-64.326-41.036c0 0-5.545-26.618 27.727-43.254 0 0 129.762-42.145 148.617-53.236 18.855-11.09 27.727-21.074 59.891-106.473L361.76 367.897z" fill="#FFD161"></path>
  </symbol>
  <symbol viewBox="0 0 1024 1024" xmlns="http://www.w3.org/2000/svg" id="ocr">
    <path d="M138.7 848V661.3H64V848c0 59.7 52.3 112 112 112h112v-74.7H176c-22.4 0-37.3-14.9-37.3-37.3zM64 176v186.7h74.7V176c0-22.4 14.9-37.3 37.3-37.3h112V64H176c-59.7 0-112 52.3-112 112zm821.3 672c0 22.4-14.9 37.3-37.3 37.3H736V960h112c59.7 0 112-52.3 112-112V661.3h-74.7V848zM848 64H736v74.7h112c22.4 0 37.3 14.9 37.3 37.3v186.7H960V176c0-59.7-52.3-112-112-112z" fill="#0070F3"></path>
    <path d="M362.7 346.2c-7.5-7.5-14.9-14.9-29.9-14.9-7.5-7.5-22.4-7.5-29.9-7.5s-22.4 0-29.9 7.5c-14.9 0-22.4 7.5-29.9 14.9-7.5 7.5-14.9 14.9-22.4 29.9-7.5 7.5-7.5 22.4-7.5 37.3v194.1c0 14.9 0 29.9 7.5 37.3 7.5 7.5 14.9 22.4 22.4 29.9 7.5 14.9 14.9 14.9 29.9 22.4 14.9 7.5 22.4 7.5 29.9 7.5s22.4-7.5 29.9-7.5c14.9-7.5 22.4-7.5 29.9-14.9 7.5-7.5 14.9-14.9 22.4-29.9 7.5-7.5 7.5-22.4 7.5-37.3V413.4c0-14.9 0-29.9-7.5-37.3-7.5-14.9-15-22.4-22.4-29.9zM340.3 615c0 14.9 0 22.4-7.5 29.9s-22.4 7.5-29.9 7.5-14.9-7.5-22.4-14.9c-7.5-7.5-14.9-14.9-14.9-22.4V413.4c0-14.9 0-22.4 7.5-29.9s14.9-7.5 22.4-7.5c7.5 0 14.9 0 22.4 7.5 7.5 7.5 22.4 14.9 22.4 29.9V615zm448 82.2H848l-59.7-171.7c14.9-7.5 29.9-22.4 37.3-37.3 7.5-14.9 7.5-37.3 7.5-52.3 0-74.7-29.9-112-97.1-112h-82.1v373.3h52.3V540.4H736l52.3 156.8zm-82.2-201.6V376.1H736c14.9 0 29.9 7.5 37.3 14.9 0 7.5 7.5 14.9 7.5 14.9v44.8c0 7.5 0 14.9-7.5 14.9 0 7.5-7.5 7.5-14.9 14.9-7.5 0-14.9 7.5-22.4 7.5h-29.9v7.6z" fill="#00E090"></path>
    <path d="M586.7 346.2c-14.9-14.9-37.3-22.4-67.2-22.4-7.5 0-22.4 0-29.9 7.5-14.9 0-22.4 7.5-29.9 14.9-7.5 7.5-14.9 22.4-14.9 29.9s-7.5 22.4-7.5 29.9v201.6c0 14.9 0 29.9 7.5 44.8 7.5 14.9 14.9 22.4 22.4 29.9 7.5 7.5 14.9 14.9 22.4 14.9 14.9 0 22.4 7.5 37.3 7.5s22.4 0 29.9-7.5 22.4-14.9 29.9-22.4c7.5-7.5 14.9-14.9 14.9-29.9 0-14.9 7.5-22.4 7.5-29.9v-22.4h-52.3v29.9c0 7.5-7.5 7.5-7.5 14.9 0 0-7.5 7.5-14.9 7.5h-14.9c-14.9 0-22.4 0-22.4-7.5-7.5-7.5-7.5-14.9-7.5-29.9V420.9c0-14.9 0-22.4 7.5-29.9 0-7.5 14.9-14.9 22.4-14.9 7.5 0 14.9 7.5 22.4 14.9 7.5 7.5 14.9 14.9 14.9 22.4v14.9h52.3v-14.9c0-14.9 0-22.4-7.5-37.3-7.5-14.9-7.5-22.4-14.9-29.9z" fill="#FC9C41"></path>
  </symbol>
  <symbol viewBox="0 0 1261 1024" xmlns="http://www.w3.org/2000/svg" id="video">
    <path d="M265.206 53.041h730.788v919.38H265.206z" fill="#E3FCF1"></path>
    <path d="M1148.682 1019.568H129.515c-55.988 0-123.622-52.57-123.622-117.869V123.763c0-65.3 67.634-117.87 123.622-117.87h1013.674c62.636 0 113.579 49.01 113.579 109.242v796.677c.024 61.434-46.464 107.756-108.086 107.756zM129.515 53.041c-33.404 0-76.474 34.3-76.474 70.722v777.936c0 36.422 43.093 70.721 76.474 70.721h1019.143c35.314 0 60.962-25.483 60.962-60.608V115.135c0-37.153-34.347-62.094-66.43-62.094H129.514z" fill="#34C892"></path>
    <path d="M1137.437 29.467H972.42v966.527h170.486c46.677 0 88.827-44.837 88.827-94.295v-801.51c0-49.458-47.62-70.722-94.296-70.722zm47.148 919.38h-165.017V783.83h165.017v165.017zm0-235.739h-165.017V548.092h165.017v165.016zm0-235.738h-165.017V312.353h165.017V477.37zm0-235.738h-165.017V76.615h165.017v165.017zM29.467 100.189v801.51c0 49.458 42.127 94.295 88.826 94.295H288.78V29.467H123.763c-46.677 0-94.296 21.264-94.296 70.722zm47.148 683.64h165.017v165.018H76.615V783.83zm0-235.737h165.017v165.016H76.615V548.092zm0-235.739h165.017V477.37H76.615V312.353zm0-235.738h165.017v165.017H76.615V76.615z" fill="#34C892"></path>
    <path d="M757.026 512.707L504.173 659.62V365.842z" fill="#77E5B8"></path>
    <path d="M486.493 690.336v-355.21l305.753 177.581-305.753 177.629zm35.36-293.8v232.367l199.978-116.22-199.977-116.148z" fill="#34C892"></path>
  </symbol>
  <symbol viewBox="0 0 1024 1024" xmlns="http://www.w3.org/2000/svg" id="translate">
    <path d="M209.078 650.645c0 14.564 11.65 26.797 26.797 26.797 14.564 0 26.797-11.65 26.797-26.797 0-14.564-11.65-26.797-26.797-26.797-15.146.583-26.797 12.233-26.797 26.797z" fill="#247B48"></path>
    <path d="M110.628 757.833V162.475c0-43.108 34.953-77.478 77.479-77.478h492.248c43.108 0 77.478 34.952 77.478 77.478v259.231c0 14.564 11.65 25.632 25.632 25.632 14.563 0 25.632-11.651 25.632-25.632V163.057c0-71.652-58.255-129.324-129.325-129.324H188.107c-71.653 0-129.325 57.672-129.325 129.324v595.358c0 71.653 57.672 129.325 129.325 129.325h311.077c14.564 0 25.632-11.651 25.632-25.632 0-14.564-11.65-25.632-25.632-25.632H188.69c-43.108-1.165-78.06-36.118-78.06-78.643z" fill="#247B48"></path>
    <path d="M471.222 209.078c-4.078-9.903-12.233-17.476-21.554-20.971h-.583c-4.66-1.748-9.32-2.33-13.98-2.33-1.166 0-2.33.582-3.496.582-3.495.582-6.99.582-10.486 1.748-2.912 1.165-4.66 2.912-6.408 4.077-6.408 4.078-12.233 9.904-15.728 18.06L216.069 628.507c-1.748 4.66-3.496 9.321-5.243 13.399l46.603 23.302c1.748-2.33 3.495-4.66 4.66-8.156l34.953-79.808H576.08c2.912 0 26.214 1.165 29.127 0h-19.224 59.42L471.221 209.078zM320.344 524.816L436.27 260.342l125.829 264.474H320.344zm618.66 129.324H809.678V524.816c0-14.564-11.65-25.632-25.632-25.632-14.563 0-25.632 11.65-25.632 25.632V654.14H629.091c-14.564 0-25.632 11.651-25.632 25.632v155.539c0 14.563 11.651 25.632 25.632 25.632h129.324v103.692c0 14.564 11.651 25.632 25.632 25.632 14.564 0 25.632-11.65 25.632-25.632V860.943h129.324c14.564 0 25.632-11.651 25.632-25.632V679.772c.583-13.98-11.068-25.632-25.632-25.632zM757.832 809.68h-77.478c-14.564 0-25.632-11.652-25.632-25.633v-51.846c0-14.564 11.65-25.632 25.632-25.632h77.478v103.11zm155.539-26.215c0 14.563-11.651 25.632-25.632 25.632h-77.478v-103.11h77.478c14.563 0 25.632 11.65 25.632 25.631v51.847z" fill="#247B48"></path>
  </symbol>
  <symbol viewBox="0 0 1024 1024" xmlns="http://www.w3.org/2000/svg" id="free">
    <path d="M511.765 5.714C231.704 5.714 4.67 232.75 4.67 512.81s227.035 507.097 507.095 507.097c280.063 0 507.096-227.035 507.096-507.097S791.828 5.714 511.765 5.714zM273.833 443.238H169.436v42.216h96.777v43.892h-96.777v96.93H111.22v-226.93h162.614v43.892zm179.652 183.037l-61.736-83.213h-27.114v83.213h-58.218v-226.93h98.149c13.411 0 24.942.763 34.596 2.286 9.651 1.524 18.693 4.827 27.127 9.907 8.535 5.082 15.316 11.66 20.346 19.735 5.03 8.078 7.544 18.213 7.544 30.406 0 16.764-3.887 30.43-11.659 40.997-7.773 10.567-18.875 19.354-33.3 26.365l75.745 97.235h-71.48zm253.419-183.037h-105.92v39.168h98.3v43.892h-98.3v56.085h105.92v43.893H542.765v-226.93h164.139v43.892zm197.79 39.168v43.892h-98.302v56.085h105.92v43.893H748.175v-226.93h164.139v43.892h-105.92v39.168h98.3z" fill="#ea9518"></path>
    <path d="M418.129 444.61c-3.963-1.624-8.588-2.615-13.87-2.972-5.284-.355-11.43-.533-18.44-.533h-21.185v61.114h17.984c9.347 0 17.169-.456 23.47-1.371 6.299-.915 11.583-2.996 15.85-6.248 4.063-3.148 7.036-6.63 8.916-10.44 1.88-3.81 2.82-8.915 2.82-15.317 0-5.688-1.17-10.566-3.506-14.63-2.337-4.065-6.35-7.265-12.04-9.603z" fill="#ea9518"></path>
  </symbol>
  <symbol viewBox="0 0 1024 1024" xmlns="http://www.w3.org/2000/svg" id="detect">
    <path d="M961.685 886.827l-82.643-82.556c-9.972-10.03-23.256-15.544-37.45-15.544-14.166 0-27.451 5.514-37.421 15.544-20.646 20.676-20.646 54.314 0 75.02l82.555 82.643c9.941 10.06 23.256 15.544 37.422 15.544 14.163 0 27.479-5.603 37.537-15.632 20.647-20.705 20.647-54.343 0-75.019zM46.831 468.947c0 54.842 10.381 108.305 30.939 158.981 21.204 52.378 52.349 99.359 92.703 139.685 40.354 40.295 87.306 71.558 139.655 92.791 50.619 20.499 104.052 30.939 158.923 30.939 54.725 0 108.275-10.44 158.895-30.939 52.377-21.233 99.329-52.496 139.653-92.791 40.267-40.325 71.528-87.307 92.732-139.685 20.529-50.677 30.939-104.14 30.939-158.981 0-54.87-10.41-108.333-30.939-159.011-21.204-52.378-52.378-99.36-92.732-139.684-40.236-40.295-87.276-71.559-139.653-92.791-50.619-20.5-104.053-30.94-158.895-30.94-54.871 0-108.304 10.44-158.923 30.94-52.349 21.232-99.301 52.496-139.655 92.791-40.236 40.324-71.499 87.306-92.703 139.684-20.558 50.678-30.939 104.141-30.939 159.011m658.888 233.678l-1.612 1.612c-62.849 62.73-146.253 97.336-235.056 97.336-88.832 0-172.354-34.605-235.085-97.453-62.73-62.847-97.365-146.253-97.365-235.084 0-88.802 34.635-172.237 97.365-235.085 62.848-62.848 146.253-97.424 235.085-97.424 88.362 0 171.563 34.283 234.41 96.897l2.258 1.084v1.173c61.792 62.614 95.754 145.404 95.754 233.472 0 88.07-33.962 170.829-95.754 233.472z" fill="#F18D19"></path>
    <path d="M644.515 434.225c-22.202 0-42.965 15.191-49.563 36.336l-12.435 40.089-82.203-232.387c-12.111-34.4-54.871-38.711-74.11-8.212L313.266 449.005h-88.274c-19.678 0-35.69 15.954-35.69 35.544 0 19.62 15.895 35.574 35.574 35.574h96.075c18.828 0 38.506-10.763 48.565-26.716l84.168-133.233 92.586 264.412c13.753 38.8 64.049 36.952 76.043-1.525l36.689-117.601h42.084c19.679 0 35.691-15.925 35.691-35.544s-16.013-35.574-35.604-35.574h-56.658v-.117z" fill="#F18D19"></path>
  </symbol>
  <symbol viewBox="0 0 1024 1024" xmlns="http://www.w3.org/2000/svg" id="message">
    <path d="M423.424 92.16C284.16 117.248 163.84 200.192 105.472 312.32 74.24 371.712 64 414.72 64.512 481.28c1.024 102.912 32.768 175.104 112.64 255.488l48.128 47.616 1.024 96.768 1.536 96.768 91.648-54.784 91.648-55.296h92.672c86.016-.512 95.744-1.536 138.752-14.336 92.672-28.672 148.992-62.464 209.92-127.488 41.984-44.544 65.024-81.408 82.432-131.584 62.464-179.712-23.04-367.104-209.92-458.752-69.12-34.304-114.176-44.544-202.752-46.592-40.96-.512-85.504.512-98.816 3.072zm193.536 68.608c16.896 4.608 52.224 18.944 78.848 31.744 39.424 19.456 56.32 31.744 90.112 65.536 70.656 70.144 96.256 129.536 96.256 220.672s-25.6 150.528-95.744 220.16c-46.08 45.568-95.232 74.752-161.792 95.232-32.256 10.24-49.664 12.288-107.52 12.288-37.888 0-76.288-1.536-85.504-3.584-13.824-3.072-24.064 1.024-79.36 34.304l-62.976 38.4-1.536-66.56-1.536-66.048-16.896-10.752C244.736 717.312 192 659.968 174.08 628.224c-28.672-50.176-38.4-87.04-38.4-149.504 0-58.88 6.656-87.04 30.72-135.68 46.08-91.648 143.872-162.816 258.56-186.88 42.496-9.216 149.504-6.656 192 4.608z" fill="#17B3A3"></path>
    <path d="M263.68 424.448c-23.04 10.24-33.28 27.136-33.28 54.784 0 26.112 27.136 53.248 53.248 53.248 26.624 0 46.08-11.776 56.832-34.304 8.192-16.896 8.192-20.992 2.048-39.424-12.8-35.328-45.056-49.664-78.848-34.304zm203.776 13.312c-16.896 16.896-17.92 19.968-15.36 41.984 6.656 59.904 86.528 73.216 109.568 18.432 16.384-40.448-9.216-78.336-53.248-78.336-19.456 0-25.6 2.56-40.96 17.92zm230.912-8.704c-15.36 12.288-22.528 28.16-22.528 49.664 0 26.624 27.136 53.76 53.248 53.76 26.624 0 46.08-11.776 56.832-33.792 7.168-15.872 7.68-22.016 3.072-38.4-8.192-27.136-27.136-40.448-56.32-40.448-14.336 0-27.648 3.584-34.304 9.216z" fill="#17B3A3"></path>
  </symbol>
  <symbol viewBox="0 0 1024 1024" xmlns="http://www.w3.org/2000/svg" id="dictionary">
    <path d="M1002.23 143.023c-1.588 0-10.662-69.53-48.32-103.899C916.027 4.756 839.804 4.415 838.216 4.415c-230.596 0-446.22-.453-676.704 0-15.426 0-30.852 2.269-45.71 6.693-58.529 17.921-95.166 69.19-95.166 131.915v707.783l.114 10.095c1.474 47.072 18.602 98 57.167 127.718 27.109 20.87 58.301 30.966 92.896 30.966h831.418v-4.084c.68 0 1.135-24.84 1.135-74.748-21.665-12.477-35.05-35.39-35.163-60.343 0-25.861 14.179-48.32 35.163-60.456l-1.135-676.931zM917.5 950.735H161.059c-38.679 1.134-71.119-29.265-72.253-67.943-1.134-38.679 29.264-71.119 67.942-72.253h760.754c-12.024 20.87-19.51 44.35-19.51 70.098 0 25.634 7.486 49.227 19.51 70.098zM712.653 325.186h-424.67c-19.736 0-35.616-10.435-35.616-23.366 0-12.93 15.88-23.48 35.616-23.48h424.67c19.623 0 35.502 10.436 35.502 23.48 0 12.93-15.88 23.366-35.616 23.366h.114zm0 211.2h-424.67c-19.736 0-35.616-10.435-35.616-23.479 0-12.93 15.88-23.365 35.616-23.365h424.67c19.623 0 35.502 10.435 35.502 23.365 0 12.931-15.88 23.48-35.616 23.48h.114z" fill="#FF7800"></path>
  </symbol>
  <symbol viewBox="0 0 1241 1024" xmlns="http://www.w3.org/2000/svg" id="code">
    <path d="M781.432 558.578H459.933a50.55 50.55 0 0 0-49.394 38.996v.867a3.61 3.61 0 0 1 0 .866 50.55 50.55 0 0 0 13.72 46.506l127.603 127.748a50.933 50.933 0 1 0 71.854-72.215l-41.524-41.523h199.6a50.55 50.55 0 0 0 50.551-50.55 50.55 50.55 0 0 0-50.911-50.695z" fill="#F04F2D"></path>
    <path d="M1139.687 0H101.533A101.606 101.606 0 0 0 0 101.533v820.934A101.606 101.606 0 0 0 101.533 1024h1038.154a101.606 101.606 0 0 0 101.534-101.533V101.533A101.606 101.606 0 0 0 1139.687 0zm0 470.405a51.922 51.922 0 0 0-6.788-4.406L917.484 250.367a50.76 50.76 0 0 0-71.71 71.854L1035.483 512 845.92 701.852a50.68 50.68 0 0 0 71.637 71.709l214.621-214.838a50.55 50.55 0 0 0 7.222-4.766V922.25H101.533V549.19l.434.434a50.55 50.55 0 0 0 12.565 9.17l214.838 214.84a50.709 50.709 0 0 0 71.709-71.71L211.299 512l189.924-189.924a50.911 50.911 0 1 0-72.214-71.78l-215.2 215.703a49.106 49.106 0 0 0-11.626 8.738l-.65.65V101.533h1038.154z" fill="#999"></path>
    <path d="M409.022 414.583a50.55 50.55 0 0 0 50.55 50.55h321.499a50.55 50.55 0 0 0 49.394-38.996v-.866a3.61 3.61 0 0 1 0-.867 50.55 50.55 0 0 0-13.72-46.506L689.647 250.439a50.911 50.911 0 1 0-71.78 72.215l41.523 41.523H459.789a50.55 50.55 0 0 0-50.767 50.406z" fill="#F04F2D"></path>
  </symbol>
  <symbol viewBox="0 0 1024 1024" xmlns="http://www.w3.org/2000/svg" id="beian">
    <path d="M150.699 123.392a64 64 0 0 0-44.032 60.8v464.341c0 16.555 6.4 32.512 17.92 44.416C294.059 868.693 424.533 955.947 512 955.947s217.941-87.296 387.413-262.998a64 64 0 0 0 17.92-44.416V184.192a64 64 0 0 0-44.032-60.8C752.768 83.797 632.363 64 512 64s-240.768 19.797-361.301 59.392zm-13.312-40.533C262.144 41.813 387.072 21.333 512 21.333s249.856 20.48 374.613 61.526A106.667 106.667 0 0 1 960 184.192v464.341a106.667 106.667 0 0 1-29.867 74.027C753.024 906.197 614.912 998.613 512 998.613c-102.912 0-241.024-92.416-418.133-276.053A106.667 106.667 0 0 1 64 648.533V184.192a106.667 106.667 0 0 1 73.387-101.333z" fill="#409EFF"></path>
    <path d="M673.792 467.968V691.2h-35.328v-22.528H386.56V691.2h-35.328V467.968h322.56zM386.56 636.928h108.032v-54.272H386.56v54.272zm142.848 0h109.056v-54.272H529.408v54.272zM386.56 552.96h108.032v-54.272H386.56v54.272zm142.848-54.272v54.272h109.056v-54.272H529.408zm-85.504-283.136l36.352 8.192c-7.68 12.288-15.872 23.552-24.064 34.304h208.384v28.16c-31.744 38.912-70.144 71.68-115.2 99.328 55.296 23.552 120.32 39.936 196.096 50.176L729.6 468.48c-83.968-12.8-155.648-33.792-215.04-63.488-62.464 31.232-136.192 53.76-220.672 67.584l-15.872-32.256c76.8-10.752 143.36-29.184 200.704-54.784a405.12 405.12 0 0 1-81.408-64c-22.528 20.48-46.592 38.4-72.192 54.784l-23.552-28.672a433.835 433.835 0 0 0 142.336-132.096zm-24.576 84.992c25.6 26.112 56.832 48.64 93.696 68.096 40.96-22.528 76.288-48.64 105.984-78.336h-189.44l-10.24 10.24z" fill="#409EFF"></path>
  </symbol>
  <symbol viewBox="0 0 1133 1024" xmlns="http://www.w3.org/2000/svg" id="img">
    <path d="M70.802 143.653v715.08c0 35.731 35.401 71.498 70.803 71.498h849.737c42.496 0 70.839-28.599 70.839-71.497V143.653c0-35.73-35.402-71.498-70.84-71.498H141.606c-42.46 0-70.803 28.6-70.803 71.498zm-70.802 0C0 65.024 63.744.658 141.605.658h849.737c77.897 0 141.64 64.366 141.64 142.995v715.08c0 78.63-63.743 142.995-141.64 142.995H141.605C63.707 1001.728 0 937.362 0 858.734V143.653z" fill="#028EE3"></path>
    <path d="M35.401 822.967l276.151-336.092c28.343-28.598 63.744-28.598 84.992 0L601.893 751.47l198.29-200.229c28.306-28.599 70.802-28.599 92.05 7.168l205.349 264.558-35.401 121.563-955.978 21.468-70.802-142.995zm601.893-500.553a107.776 107.776 0 0 0 46.92 89.015c-1.352 1.426 17.226 11.812 38.035 16.091-7.314-.841 6.656 2.194 21.321 2.194 14.629-.036 28.6-3.035 41.326-8.484 19.054-8.156 35.291-21.76 46.811-38.912 1.354 1.39 11.63-17.372 15.909-38.364-.841 7.388 2.121-6.729 2.121-21.577a107.63 107.63 0 0 0-46.884-88.942c1.316-1.426-17.262-11.849-38.035-16.128 7.315.878-6.656-2.12-21.357-2.12a105.364 105.364 0 0 0-41.326 8.41c-19.017 8.156-35.292 21.797-46.775 38.95-1.39-1.354-11.703 17.37-15.945 38.4.878-7.425-2.121 6.692-2.121 21.54v-.073z" fill="#028EE3"></path>
  </symbol>
  <symbol viewBox="0 0 1024 1024" xmlns="http://www.w3.org/2000/svg" id="js">
    <path d="M943.004 243.916L527.964 4.47a31.926 31.926 0 0 0-31.927 0L80.997 243.916a31.926 31.926 0 0 0-15.964 27.457v478.892a31.926 31.926 0 0 0 15.963 27.457l118.127 68.322a162.824 162.824 0 0 0 52.36 5.108c88.754 0 116.21-34.48 116.21-119.404V328.84h-69.598v418.87c0 30.65-14.048 44.059-52.36 44.059a56.19 56.19 0 0 1-14.047 0l-102.802-60.022V289.89L512 68.96l383.114 220.93v441.858L512 952.678l-114.934-63.853a31.926 31.926 0 0 0-31.926 55.552l130.897 75.346a31.926 31.926 0 0 0 31.926 0l415.04-239.447a31.926 31.926 0 0 0 15.964-27.456V271.373a31.926 31.926 0 0 0-15.963-27.457z" fill="#14ADC4"></path>
    <path d="M618.633 667.257c-88.754 0-115.572-40.865-115.572-73.43h-70.238c7.662 106.634 104.08 127.705 187.726 127.705 112.38 0 184.533-40.227 184.533-127.705 0-51.082-35.757-84.285-127.704-97.694l-101.526-10.855C526.048 478.893 512 464.207 512 439.943c0-42.781 51.72-56.19 97.056-56.19 72.791 0 107.91 31.287 109.826 68.96h70.237c-1.277-69.599-55.551-123.873-175.594-123.873-101.525 0-165.377 43.42-165.377 118.127a102.802 102.802 0 0 0 97.694 97.694l115.573 15.324c56.19 7.663 69.599 22.987 69.599 49.167s-22.349 58.105-112.38 58.105z" fill="#14ADC4"></path>
  </symbol>
  <symbol viewBox="0 0 1024 1024" xmlns="http://www.w3.org/2000/svg" id="tv">
    <path d="M896.5 230.6c24.8 0 45 20.2 45 45v491.1c0 24.8-20.2 45-45 45h-767c-24.8 0-45-20.2-45-45V275.6c0-24.8 20.2-45 45-45h767m0-20h-767c-35.9 0-65 29.1-65 65v491.1c0 35.9 29.1 65 65 65h767c35.9 0 65-29.1 65-65V275.6c0-35.9-29.1-65-65-65z" fill="#3983FD"></path>
    <path d="M680.7 733.6H214.4c-35.9 0-65-29.1-65-65V358.7c0-35.9 29.1-65 65-65h466.3c35.9 0 65 29.1 65 65v309.9c0 35.9-29.1 65-65 65z" fill="#83FCE5"></path>
    <path d="M680.7 303.7c30.3 0 55 24.7 55 55v309.9c0 30.3-24.7 55-55 55H214.4c-30.3 0-55-24.7-55-55V358.7c0-30.3 24.7-55 55-55h466.3m0-10H214.4c-35.9 0-65 29.1-65 65v309.9c0 35.9 29.1 65 65 65h466.3c35.9 0 65-29.1 65-65V358.7c0-35.9-29.1-65-65-65zm161.1 10c16.2 0 29.4 13.2 29.4 29.4s-13.2 29.4-29.4 29.4-29.4-13.2-29.4-29.4 13.1-29.4 29.4-29.4m0-10c-21.8 0-39.4 17.7-39.4 39.4s17.7 39.4 39.4 39.4c21.8 0 39.4-17.7 39.4-39.4s-17.6-39.4-39.4-39.4z" fill="#3983FD"></path>
    <path d="M802.4 449.3a39.4 39.4 0 1 0 78.8 0 39.4 39.4 0 1 0-78.8 0z" fill="#83FCE5"></path>
    <path d="M841.8 419.9c16.2 0 29.4 13.2 29.4 29.4s-13.2 29.4-29.4 29.4-29.4-13.2-29.4-29.4 13.1-29.4 29.4-29.4m0-10c-21.8 0-39.4 17.7-39.4 39.4s17.7 39.4 39.4 39.4c21.8 0 39.4-17.7 39.4-39.4s-17.6-39.4-39.4-39.4zM494.2 231c-2.3 0-4.7-.8-6.6-2.5l-152.9-133c-4.2-3.6-4.6-9.9-1-14.1 3.6-4.2 9.9-4.6 14.1-1l152.9 133c4.2 3.6 4.6 9.9 1 14.1-2 2.3-4.8 3.5-7.5 3.5zm40 0c-2.8 0-5.5-1.1-7.5-3.4-3.6-4.1-3.2-10.5.9-14.1l133-117.1c4.1-3.6 10.5-3.2 14.1.9 3.6 4.1 3.2 10.5-.9 14.1l-133 117.1c-1.9 1.7-4.3 2.5-6.6 2.5z" fill="#3983FD"></path>
  </symbol>
  <symbol viewBox="0 0 1024 1024" xmlns="http://www.w3.org/2000/svg" id="nsfw">
    <path d="M327.68 0v40.96H204.8c-90.49 0-163.84 73.35-163.84 163.84v122.88H0V204.8C0 91.689 91.689 0 204.8 0h122.88zm368.64 0H819.2C932.311 0 1024 91.689 1024 204.8v122.88h-40.96V204.8c0-90.49-73.35-163.84-163.84-163.84H696.32V0zM1024 696.32V819.2c0 113.111-91.689 204.8-204.8 204.8H696.32v-40.96H819.2c90.49 0 163.84-73.35 163.84-163.84V696.32H1024zM327.68 1024H204.8C91.689 1024 0 932.311 0 819.2V696.32h40.96V819.2c0 90.49 73.35 163.84 163.84 163.84h122.88V1024zM512 870.4c197.94 0 358.4-160.46 358.4-358.4S709.94 153.6 512 153.6 153.6 314.06 153.6 512 314.06 870.4 512 870.4zm0-40.96c-175.309 0-317.44-142.131-317.44-317.44S336.691 194.56 512 194.56 829.44 336.691 829.44 512 687.309 829.44 512 829.44z" fill="#3AAAD8"></path>
    <path d="M430.08 512a81.92 81.92 0 1 0 163.84 0 81.92 81.92 0 1 0-163.84 0z" fill="#FFC221"></path>
    <path d="M512 153.6a20.48 20.48 0 0 1 20.48 20.48v102.4h-40.96v-102.4A20.48 20.48 0 0 1 512 153.6zm0 716.8a20.48 20.48 0 0 1-20.48-20.48v-102.4h40.96v102.4A20.48 20.48 0 0 1 512 870.4zM870.4 512a20.48 20.48 0 0 1-20.48 20.48h-102.4v-40.96h102.4A20.48 20.48 0 0 1 870.4 512zm-716.8 0a20.48 20.48 0 0 1 20.48-20.48h102.4v40.96h-102.4A20.48 20.48 0 0 1 153.6 512z" fill="#3AAAD8"></path>
  </symbol>
  <symbol viewBox="0 0 1055 1024" xmlns="http://www.w3.org/2000/svg" id="ps">
    <path d="M0 0v1024h1055.411V0zm1002.012 973.742H53.4V53.4h948.613z" fill="#03C8FF"></path>
    <path d="M53.399 53.399h948.613v920.343H53.4z" fill="#001C25"></path>
    <path d="M409.097 263.853H257.571v483.73h81.668v-169.62h72.591A137.863 137.863 0 0 0 549.693 440.1v-35.65a140.596 140.596 0 0 0-140.596-140.596zm58.928 172.195a69.67 69.67 0 0 1-69.67 69.67h-59.116v-169.62h56.54a72.402 72.402 0 0 1 72.246 72.403zM797.84 395.78a175.902 175.902 0 0 0-75.386-18.846c-28.678 0-62.822 6.282-81.669 18.846-20.417 13.601-53.398 40.834-53.398 91.092 0 100.516 141.35 113.08 141.35 157.055 0 28.27-15.706 37.694-53.4 37.694s-78.527-28.27-78.527-28.27v84.81s47.116 18.846 87.95 18.846 122.315-18.846 125.645-100.515c6.282-153.914-141.35-109.939-141.35-175.902 0-15.706 25.129-31.411 50.258-31.411 34.552 0 78.527 21.988 78.527 21.988z" fill="#03C8FF"></path>
  </symbol>
  <symbol viewBox="0 0 1024 1024" xmlns="http://www.w3.org/2000/svg" id="speed">
    <path d="M512.1 589c-14.3 0-25.9 11.6-25.9 25.9 0 14.3 11.6 25.9 25.9 25.9 14.3 0 25.9-11.6 25.9-25.9 0-14.3-11.6-25.9-25.9-25.9z" fill="#2dd615"></path>
    <path d="M949.7 881c46.3-76 73.4-165.1 74.4-260.4 3-282.5-228.6-517.2-511.1-517.7-283.2-.6-513 228.9-513 512 0 97.5 27.3 188.6 74.6 266.2 15.6 25.6 43.5 41.2 73.5 41.2h728.1c30 0 57.9-15.6 73.5-41.3zM699 404.5L575.3 569.9c9.5 13.1 14.6 28.9 14.6 45.1 0 43-34.8 77.8-77.8 77.8S434.3 658 434.3 615s34.8-77.8 77.8-77.8c7 .1 13.9 1.1 20.5 3.1l.1-.1 125-167c4.1-5.5 10.3-9.2 17.1-10.2 6.8-1 13.7.8 19.2 5s9.2 10.4 10.1 17.2c1 6.8-.9 13.8-5.1 19.3zM86.2 435c23.3-55 56.6-104.5 99-146.9 42.4-42.4 91.9-75.8 146.9-99 57-24.1 117.5-36.3 179.9-36.3s123 12.2 180 36.3c55 23.3 104.5 56.6 146.9 99 42.4 42.4 75.8 91.9 99 146.9 24.1 57 36.3 117.5 36.3 179.9 0 32.3-3.3 64-9.8 95h-49.3c7.2-30.5 11-62.3 11-95 0-228.3-185.8-414.1-414.1-414.1-228.2 0-414 185.8-414 414.1 0 32.7 3.8 64.5 11 95H59.7c-6.5-31-9.8-62.8-9.8-95 0-62.3 12.2-122.9 36.3-179.9z" fill="#1afa29"></path>
  </symbol>
  <symbol viewBox="0 0 1024 1024" xmlns="http://www.w3.org/2000/svg" id="host">
    <path d="M983.04 94.72H40.96c-15.36 0-28.16 12.8-28.16 25.6V268.8c0 15.36 12.8 28.16 28.16 28.16h942.08c15.36 0 28.16-12.8 28.16-28.16V120.32c0-15.36-12.8-25.6-28.16-25.6zM166.4 232.96H92.16v-74.24h74.24v74.24zm125.44 0H217.6v-74.24h74.24v74.24zm122.88 0h-74.24v-74.24h74.24v74.24zm125.44 0h-74.24v-74.24h74.24v74.24zm384 0H734.72v-74.24h189.44v74.24zm58.88 176.64H40.96c-15.36 0-28.16 12.8-28.16 28.16v148.48c0 15.36 12.8 28.16 28.16 28.16h942.08c15.36 0 28.16-12.8 28.16-28.16V437.76c0-15.36-12.8-28.16-28.16-28.16zM166.4 550.4H92.16v-74.24h74.24v74.24zm125.44 0H217.6v-74.24h74.24v74.24zm122.88 0h-74.24v-74.24h74.24v74.24zm125.44-2.56h-74.24V473.6h74.24v74.24zm384 0H734.72V473.6h189.44v74.24zm58.88 179.2H40.96c-15.36 0-28.16 12.8-28.16 28.16v148.48c0 15.36 12.8 28.16 28.16 28.16h942.08c15.36 0 28.16-12.8 28.16-28.16V755.2c0-15.36-12.8-28.16-28.16-28.16zM166.4 865.28H92.16v-74.24h74.24v74.24zm125.44 0H217.6v-74.24h74.24v74.24zm122.88 0h-74.24v-74.24h74.24v74.24zm125.44 0h-74.24v-74.24h74.24v74.24zm384 0H734.72v-74.24h189.44v74.24z" fill="#0E72AF"></path>
  </symbol>
  <symbol viewBox="0 0 1024 1024" xmlns="http://www.w3.org/2000/svg" id="overview">
    <path d="M127.473 0h731.429q73.143 0 73.143 73.143v877.714q0 73.143-73.143 73.143H127.473q-73.142 0-73.142-73.143V73.143Q54.33 0 127.473 0z" fill="#3296FA"></path>
    <path d="M237.188 146.286h512q36.571 0 36.571 36.571v219.429q0 36.571-36.571 36.571h-512q-36.572 0-36.572-36.571V182.857q0-36.571 36.572-36.571zm0 415.159h438.857q36.571 0 36.571 36.571v14.629q0 36.571-36.571 36.571H237.188q-36.572 0-36.572-36.571v-14.629q0-36.571 36.572-36.571zm0 213.869h292.571a36.571 36.571 0 0 1 36.572 36.572v14.628a36.571 36.571 0 0 1-36.572 36.572H237.188a36.571 36.571 0 0 1-36.572-36.572v-14.628a36.571 36.571 0 0 1 36.572-36.572z" fill="#FFF"></path>
  </symbol>
  <symbol viewBox="0 0 1024 1024" xmlns="http://www.w3.org/2000/svg" id="encrypt">
    <path d="M778.004 378.258h-16.106v-65.763c0-137.793-112.105-249.897-249.898-249.897S262.102 174.702 262.102 312.495v65.763h-16.08c-85.415 0-154.903 69.488-154.903 154.902v268.92c0 85.4 69.488 154.888 154.902 154.888h531.982c85.39 0 154.876-69.487 154.876-154.888V533.159c0-85.414-69.487-154.901-154.875-154.901zM564.617 615.007v105.22c0 29.055-23.554 52.61-52.61 52.61s-52.61-23.554-52.61-52.61v-105.22c0-29.057 23.554-52.61 52.61-52.61s52.61 23.553 52.61 52.61zm-223.6-302.512c0-94.276 76.707-170.982 170.983-170.982s170.982 76.706 170.982 170.982v65.763H341.018v-65.763z" fill="#00b7ee"></path>
  </symbol>
  <symbol viewBox="0 0 1024 1024" xmlns="http://www.w3.org/2000/svg" id="wallpaper">
    <path d="M143.73 493.357h349.115V31.927c0-21.297-24.269-44.484-41.512-23.968l-298.07 423.933c-20.776 33.266-27.692 61.465-9.532 61.465z" fill="#33D413"></path>
    <path d="M530.275 144.216v349.141h461.43c21.311 0 44.498-24.254 23.968-41.51L591.754 153.734c-33.266-20.777-61.48-27.68-61.48-9.519z" fill="#FFCB30"></path>
    <path d="M879.128 530.637H529.973v461.43c0 21.297 24.269 44.498 41.512 23.968l298.111-423.933c20.79-33.266 27.693-61.465 9.532-61.465z" fill="#FF1843"></path>
    <path d="M493.708 881.517V532.362H32.276c-21.296 0-44.483 24.269-23.967 41.512l423.933 298.111c33.212 20.79 61.466 27.693 61.466 9.532z" fill="#18ABFF"></path>
  </symbol>
  <symbol viewBox="0 0 1024 1024" xmlns="http://www.w3.org/2000/svg" id="info">
    <path d="M512.033 1023.965a508.635 508.635 0 0 1-362.047-149.951A508.635 508.635 0 0 1 .036 512a508.602 508.602 0 0 1 149.95-362.014A508.635 508.635 0 0 1 512.033.036a508.602 508.602 0 0 1 362.014 149.95A508.635 508.635 0 0 1 1023.998 512a508.635 508.635 0 0 1-149.95 362.014 508.635 508.635 0 0 1-362.015 149.95zm0-271.048a90.461 90.461 0 0 0-90.36 90.36 90.461 90.461 0 0 0 90.36 90.36 90.461 90.461 0 0 0 90.361-90.36 90.461 90.461 0 0 0-90.36-90.36zm0-632.423a90.461 90.461 0 0 0-90.36 90.36V572.23a90.461 90.461 0 0 0 90.36 90.394 90.461 90.461 0 0 0 90.361-90.36V210.888a90.461 90.461 0 0 0-90.36-90.428z" fill="#03DD9A"></path>
  </symbol>
  <symbol viewBox="0 0 1024 1024" xmlns="http://www.w3.org/2000/svg" id="rmb">
    <path d="M512 0C229.376 0 0 229.376 0 512s229.376 512 512 512 512-229.376 512-512S794.624 0 512 0z" fill="#FFF"></path>
    <path d="M512 0C229.376 0 0 229.376 0 512s229.376 512 512 512 512-229.376 512-512S794.624 0 512 0zm204.8 496.64H542.72v87.04h138.24c18.432 0 33.28 14.848 33.28 33.28s-14.848 33.28-33.28 33.28H542.72v155.136c0 18.432-14.848 33.28-33.28 33.28s-33.28-14.848-33.28-33.28V650.24H343.04c-18.432 0-33.28-14.848-33.28-33.28s14.848-33.28 33.28-33.28h133.12v-87.04H307.2c-18.432 0-33.28-14.848-33.28-33.28s14.848-33.28 33.28-33.28h133.12L296.96 275.968c-12.8-13.824-11.776-34.816 2.048-47.616 13.824-12.8 35.328-11.776 48.128 2.048l162.816 176.64L672.256 230.4c12.8-13.824 34.304-14.848 48.128-2.048s14.848 33.28 2.048 47.616L579.584 430.08H716.8c18.432 0 33.28 14.848 33.28 33.28s-15.36 33.28-33.28 33.28z" fill="#E6726D"></path>
  </symbol>
  <symbol viewBox="0 0 1024 1024" xmlns="http://www.w3.org/2000/svg" id="db">
    <path d="M511.984.023C248.058.023 34.144 71.601 34.144 160v127.986c0 88.398 213.914 159.976 477.84 159.976s477.839-71.578 477.839-159.976V159.999C989.823 71.601 775.898.023 511.983.023zm0 543.99c-263.926 0-477.84-71.646-477.84-159.999v191.967c0 88.353 213.914 160 477.84 160s477.839-71.647 477.839-160v-191.99c0 88.353-213.925 160-477.84 160zm0 287.997c-263.926 0-477.84-71.647-477.84-160V864c0 88.353 213.914 160 477.84 160s477.839-71.67 477.839-160.022V671.93c0 88.398-213.925 160.057-477.84 160.057z" fill="#FECC45"></path>
  </symbol>
  <symbol viewBox="0 0 1024 1024" xmlns="http://www.w3.org/2000/svg" id="ip">
    <path d="M512 1023.2L194.1 747.1l-.7-.7c-85.3-83.3-132.2-193-132.2-309s47-225.7 132.2-308.9C235.1 87.9 284.1 56 339.2 34 394.2 12 452.3.8 512 .8 571.7.8 629.8 12 684.8 34c55.1 22.1 104.2 53.9 145.8 94.6 85.2 83.2 132.2 192.9 132.2 308.9 0 116-46.9 225.8-132.2 309l-.7.7-317.9 276zM237.5 700L512 938.4 786.5 700c72.4-71 112.3-164.2 112.2-262.6 0-98.6-40.1-192-112.9-263.1-71.2-69.6-171-109.5-273.8-109.5-102.8 0-202.6 39.9-273.8 109.5-72.8 71.1-112.9 164.5-112.9 263.1-.1 98.4 39.8 191.6 112.2 262.6z" fill="#444445"></path>
    <path d="M320.1 256h64v384h-64zm320 0h-192v384h64V512h128c70.6 0 128-57.4 128-128s-57.4-128-128-128zm0 192h-128V320h128c35.3 0 64 28.7 64 64 0 35.2-28.7 64-64 64z" fill="#D93934"></path>
  </symbol>
  <symbol viewBox="0 0 1024 1024" xmlns="http://www.w3.org/2000/svg" id="csharp">
    <path d="M633.344 226.272h81.696v81.696h81.76v-81.696h81.664v81.696H960v81.664h-81.6v81.632H960v81.696h-81.632v81.664H796.8v-81.6h-81.6v81.664h-81.824v-81.6H551.68V471.2h81.696v-81.472H551.68v-81.824h81.728zm81.696 245.056h81.76v-81.696h-81.76zM470.048 768.416a326.4 326.4 0 0 1-148.896 29.28 243.2 243.2 0 0 1-188.48-74.752A282.848 282.848 0 0 1 64 523.744a301.952 301.952 0 0 1 77.184-215.008 261.792 261.792 0 0 1 200.288-82.464 355.2 355.2 0 0 1 128.576 20.416v119.84a217.92 217.92 0 0 0-119.136-33.152 153.376 153.376 0 0 0-118.4 48.928 188.128 188.128 0 0 0-45.024 132.544 184.768 184.768 0 0 0 42.496 127.744 145.632 145.632 0 0 0 114.4 47.584 233.216 233.216 0 0 0 125.664-35.456z" fill="#368832"></path>
  </symbol>
  <symbol viewBox="0 0 1024 1024" xmlns="http://www.w3.org/2000/svg" id="lottery">
    <path d="M512.64 379.392l-55.168-32.576L359.936 512h-8.896L233.728 351.552l-51.712 37.76L271.744 512H192v64h128v64H192v64h128v64h64v-64h128v-64H384v-64h128v-64h-77.696z" fill="#D81E06"></path>
    <path d="M896 192H128C57.408 192 0 249.408 0 320v448c0 70.592 57.408 128 128 128h768c70.592 0 128-57.408 128-128v-96.64l-64-5.248c-50.112-17.344-86.4-64.576-86.4-120.512 0-55.936 36.224-103.104 86.4-120.448l64-5.312V320c0-70.592-57.408-128-128-128zM128 832c-35.264 0-64-28.672-64-64V320c0-35.264 28.736-64 64-64h512v576H128zm832-473.536C874.112 377.536 809.6 454.08 809.6 545.6c0 91.584 64.512 168.064 150.4 187.2V768c0 35.328-28.672 64-64 64H704V256h192c35.328 0 64 28.736 64 64v38.464z" fill="#D81E06"></path>
  </symbol>
  <symbol viewBox="0 0 1024 1024" xmlns="http://www.w3.org/2000/svg" id="office">
    <path d="M157.616 0h708.768C952.722 0 1024 70.275 1024 156.612v710.776C1024 953.725 952.722 1024 866.384 1024H157.616C71.278 1024 0 953.725 0 867.388V156.612C0 70.275 71.278 0 157.616 0z" fill="#FFF"></path>
    <path d="M189.41 751.144V277.986l418.946-154.564 227.78 73.216v637.23l-227.78 69.14L189.42 751.153l418.936 50.166V250.87l-272.514 63.719v372.856l-146.432 63.71z" fill="#DD3F13" data-spm-anchor-id="a313x.7781069.0.i0"></path>
  </symbol>
  <symbol viewBox="0 0 1638 1024" xmlns="http://www.w3.org/2000/svg" id="markdown">
    <path d="M1520.274 0H118.126C52.976 0 0 52.976 0 118.126v787.676c0 65.15 52.976 118.126 118.126 118.126h1402.148c65.15 0 118.126-52.976 118.126-118.126V118.126C1638.4 52.976 1585.424 0 1520.274 0zM921.6 818.983l-204.8.217V512L563.164 708.9 409.528 512v307.2h-204.8V204.8h204.8l153.636 204.8L716.8 204.8l204.8-.217v614.4zm305.75 51.236L972.837 512H1126.4V204.8h204.8V512h153.564l-257.486 358.219z"></path>
  </symbol>
  <symbol viewBox="0 0 1024 1024" xmlns="http://www.w3.org/2000/svg" id="microsoft">
    <path d="M18.753 17.145h468.424l-.02 468.426H18.774V17.145h-.02zm0 0" fill="#F25022"></path>
    <path d="M534.999 17.145h468.422c0 156.141.022 312.283-.02 468.426H535.038c-.06-156.162-.039-312.285-.039-468.426zm0 0" fill="#80BA01"></path>
    <path d="M18.753 533.352c156.141.058 312.282-.019 468.424.058v468.386H18.753V533.352zm0 0" fill="#02A4EF"></path>
    <path d="M535.018 533.41c156.124-.058 312.243-.019 468.383-.019v468.422H534.999c.019-156.163-.02-312.28.019-468.403zm0 0" fill="#FFB902"></path>
  </symbol>
  <symbol viewBox="0 0 1024 1024" xmlns="http://www.w3.org/2000/svg" id="symbol">
    <path d="M512 0C380.343 0 63.634 150.309 63.634 448c0 397.97 251.612 457.801 251.612 457.801H117.76S0 818.03 0 767.927V1024h433.006V905.801A740.279 740.279 0 0 1 256 448c0-266.167 141.897-384 256-384m0-64c131.657 0 447.634 150.309 447.634 448 0 397.97-250.88 457.801-250.88 457.801H905.51S1024 818.03 1024 767.927V1024H590.994V905.801A740.279 740.279 0 0 0 768 448c0-266.167-141.897-384-256-384" fill="#efb336"></path>
  </symbol>
  <symbol viewBox="0 0 1024 1024" xmlns="http://www.w3.org/2000/svg" id="emoji">
    <path d="M0 512a512 512 0 1 0 1024 0A512 512 0 1 0 0 512z" fill="#FFC51F"></path>
    <path d="M204.8 614.4c9.362 124.811 143.33 223.788 307.2 223.788S809.838 739.21 819.2 614.4H204.8z" fill="#B67600"></path>
    <path d="M234.057 409.6a87.771 73.143 90 1 0 146.286 0 87.771 73.143 90 1 0-146.286 0zm409.6 0a87.771 73.143 90 1 0 146.286 0 87.771 73.143 90 1 0-146.286 0z" fill="#815400"></path>
  </symbol>
  <symbol viewBox="0 0 1154 1024" xmlns="http://www.w3.org/2000/svg" id="nginx">
    <path d="M982.691 467.407l-433.298 1.39a106.746 106.746 0 1 0-3.032 213.364h3.032l261.368-1.39-64.047 129.864H410.686L244.062 517.937 412.076 213.87h357.377l83.375 171.046h214.755L932.16 60.005 902.853 0H285.371l-29.308 54.7L29.308 466.648 0 518.695l29.308 51.92 227.387 398.686 30.57 54.699H881l28.55-60.005 169.277-341.08 75.795-154.75z" fill="#00AA4E"></path>
  </symbol>
  <symbol viewBox="0 0 1024 1024" xmlns="http://www.w3.org/2000/svg" id="love">
    <path d="M524.1 171.66c-110.22-11.72-165.6 98.16-165.6 98.16s-94.89-78.33-191.09-23.26S4.8 449.48 147.14 606.6c142.34 157.11 315.27 158.04 315.27 158.04s157.95-70.41 225.07-271.5c67.12-201.1-53.16-309.76-163.38-321.48z" fill="#C53938"></path>
    <path d="M887.36 476.37c-72.82-48.51-151.74 8.1-151.74 8.1s-37.73-89.5-125.17-86.17-187.98 82.47-145.87 244.44 162.74 225.87 162.74 225.87 136.25 8.52 256.75-107.6c120.5-116.13 76.11-236.13 3.29-284.64z" fill="#F5E5E5"></path>
  </symbol>
  <symbol viewBox="0 0 1024 1024" xmlns="http://www.w3.org/2000/svg" id="key">
    <path d="M575.97 587.896a274.312 274.312 0 0 0-57.344-542.298 274.251 274.251 0 0 0-58.428 542.178v385.325H576.03v-.783h116.074V856.486H575.97v-56.923h173.96V683.671H575.97v-95.775zm-57.886-251.301a86.86 86.86 0 1 1 86.86-86.86c0 47.948-38.913 86.86-86.86 86.86z" fill="#FC6C2E"></path>
  </symbol>
  <symbol viewBox="0 0 1024 1024" xmlns="http://www.w3.org/2000/svg" id="vscode">
    <path d="M1024 106.667v810.666L768 1024 0 789.333v-23.936l768 65.92V0zM42.667 559.403l144.426-132.736L42.667 293.93l60.501-35.286 146.56 110.422L512 128l128 62.123V663.21l-128 62.122-262.272-241.066L103.211 594.73zm283.477-132.736L512 566.74V286.592z" fill="#1296db"></path>
  </symbol>
  <symbol viewBox="0 0 1024 1024" xmlns="http://www.w3.org/2000/svg" id="vector">
    <path d="M512 501.077V384H394.923A192 192 0 1 1 512 501.077z" fill="#00DB84"></path>
    <path d="M896 853.333H512L704 512z" fill="#979797"></path>
    <path d="M128 426.667h341.333V768H128z" fill="#007AFF"></path>
  </symbol>
  <symbol viewBox="0 0 1024 1024" xmlns="http://www.w3.org/2000/svg" id="whois">
    <path d="M221.997 589.489L179.31 431.727 135.692 589.49c-3.712 12.064-5.568 20.416-8.352 25.984s-5.568 10.208-10.208 13.92-11.136 6.496-19.488 6.496c-6.496 0-12.064-.928-16.704-3.712s-7.424-5.568-10.208-10.208-4.64-10.208-6.496-15.776c-1.856-6.496-2.784-12.064-4.64-17.632L15.979 411.31c-2.784-10.208-3.712-18.56-3.712-23.2a25.353 25.353 0 0 1 25.056-25.056c9.28 0 16.705 2.784 19.489 9.28 3.712 6.496 6.496 14.848 8.352 26.912L99.5 553.297l38.976-143.842c2.784-11.136 5.568-19.488 7.424-25.056s5.568-11.136 11.137-14.848c5.568-4.64 12.064-6.496 21.344-6.496s15.776 1.856 21.344 6.496c4.64 4.64 8.352 9.28 10.208 13.92 1.856 5.568 4.64 13.92 7.424 25.984l38.977 143.841 34.336-154.05c1.856-8.351 3.712-13.92 4.64-18.56 1.856-4.64 3.712-8.351 7.424-12.063s9.28-5.568 15.776-5.568 12.992 1.856 17.632 6.496 7.424 10.208 7.424 17.632c0 4.64-.928 12.992-3.712 23.2l-43.616 177.25c-2.784 12.064-5.568 20.416-7.424 25.984-1.856 5.568-5.568 10.208-10.208 14.848s-11.136 6.496-20.416 6.496c-8.353 0-14.849-1.856-19.489-6.496-4.64-3.712-8.352-8.352-10.208-13.92s-3.712-12.992-6.496-25.056zM406.671 392.75v73.313c6.496-7.425 12.064-12.993 18.56-16.705 5.568-4.64 12.064-7.424 19.488-9.28s14.848-2.784 23.2-2.784c12.065 0 23.2 2.784 33.409 8.352 9.28 5.568 17.632 12.992 23.2 23.2 3.712 5.569 5.568 12.065 7.424 19.489.928 7.424 1.856 15.776 1.856 25.056v93.729c0 10.208-1.856 17.632-6.496 22.272s-10.208 7.424-17.632 7.424c-15.776 0-24.128-10.208-24.128-29.696v-82.593c0-15.776-2.784-27.84-7.424-36.192s-13.92-12.992-26.913-12.992c-8.352 0-16.704 2.784-23.2 7.424-7.424 4.64-12.064 12.064-15.776 20.416-2.784 7.424-3.712 20.416-3.712 38.976v64.96c0 9.281-1.856 16.705-6.496 22.273-4.64 4.64-10.208 7.424-18.56 7.424-15.776 0-24.128-10.208-24.128-29.696V393.679c0-10.208 1.856-17.632 6.496-22.272s10.208-7.424 17.632-7.424c7.424 0 13.92 2.784 18.56 7.424 2.784 3.712 4.64 11.136 4.64 21.344zm339.651 142.913c0 14.848-1.856 27.84-6.496 40.833s-11.136 23.2-19.488 31.552c-8.352 9.28-18.56 15.776-30.624 20.416s-25.057 7.424-40.833 7.424c-14.848 0-27.84-2.784-39.904-7.424s-22.272-12.064-30.624-20.416-14.848-19.488-19.489-31.552c-4.64-12.064-6.496-25.985-6.496-40.833s1.856-28.768 6.496-40.832c4.64-12.064 11.137-23.2 19.489-31.552 8.352-8.353 18.56-15.777 30.624-20.417s25.056-7.424 39.904-7.424 28.769 2.784 40.833 7.424c12.064 4.64 22.272 12.064 31.552 20.417s14.848 19.488 19.488 31.552c3.712 12.992 5.568 25.984 5.568 40.832zm-49.184 0c0-20.416-4.64-35.264-12.992-46.4-9.28-11.136-20.417-16.704-35.265-16.704-9.28 0-17.632 2.784-25.056 7.424s-12.992 12.064-16.704 22.272c-3.712 9.28-5.568 21.344-5.568 34.336 0 12.992 1.856 24.128 5.568 33.409 3.712 9.28 9.28 16.704 16.704 22.272 7.424 4.64 15.776 7.424 25.984 7.424 14.848 0 26.913-5.568 35.265-16.704 7.424-12.064 12.064-27.84 12.064-47.329z" fill="#3C3D3D"></path>
    <path d="M791.795 413.167c-6.496 0-12.992-1.856-17.632-6.496s-7.425-10.208-7.425-17.632c0-6.496 2.785-12.992 7.425-17.632s11.136-6.496 17.632-6.496 12.064 1.856 16.704 6.496c4.64 3.712 7.424 10.208 7.424 17.632s-2.784 13.92-7.424 17.632c-4.64 3.712-10.208 6.496-16.704 6.496zm24.128 50.113v141.985c0 10.208-2.784 17.632-7.424 22.272s-10.208 7.424-17.632 7.424-12.992-2.784-17.632-7.424c-4.64-5.568-6.497-12.992-6.497-22.272v-140.13c0-9.28 1.857-16.704 6.497-22.272 4.64-4.64 10.208-7.424 17.632-7.424s12.992 2.784 17.632 7.424c4.64 5.568 7.424 12.064 7.424 20.417zm190.242 107.649c0 13.92-3.712 25.056-10.208 35.264-6.496 9.28-16.704 16.704-28.769 22.272-12.992 4.64-28.768 7.424-47.328 7.424-17.632 0-32.48-2.784-45.472-8.352s-22.273-12.064-27.84-20.416c-5.569-8.352-9.28-15.776-9.28-24.128 0-5.568 1.855-10.208 5.567-13.92s8.352-5.568 14.848-5.568c5.568 0 9.28.928 12.064 3.712s5.569 6.496 8.353 10.208c4.64 8.352 11.136 14.848 17.632 19.488 7.424 4.64 16.704 6.496 28.768 6.496 10.208 0 17.632-1.856 24.128-6.496 6.496-4.64 9.28-9.28 9.28-14.848 0-8.352-3.712-14.848-10.208-18.56-6.496-3.713-17.632-7.425-32.48-11.137-16.704-4.64-30.624-8.352-40.832-12.992-10.209-4.64-19.489-11.136-25.057-18.56-6.496-7.424-9.28-16.704-9.28-27.84 0-10.208 2.784-19.488 9.28-27.84 5.568-8.353 14.848-15.777 25.985-21.345 11.136-5.568 25.056-7.424 41.76-7.424 12.992 0 24.128.928 34.336 3.712 10.208 2.784 18.56 6.496 25.057 10.208 6.496 4.64 12.064 9.28 15.776 14.849s5.568 11.136 5.568 15.776c0 5.568-1.856 10.208-5.568 13.92s-9.28 5.568-15.776 5.568c-4.64 0-9.28-1.856-12.993-4.64s-7.424-7.424-12.064-12.992c-3.712-4.64-8.352-8.352-12.992-11.136-4.64-2.784-12.064-4.64-20.416-4.64-9.28 0-16.704 1.856-22.272 5.568-5.568 3.712-9.28 8.352-9.28 13.92s1.856 9.28 6.496 12.992 10.208 5.568 17.632 8.352c7.424 1.856 17.632 4.64 30.624 8.352 14.848 3.712 27.84 8.352 37.12 12.992 9.28 5.568 16.705 11.136 22.273 18.56 3.712 6.496 5.568 14.848 5.568 23.2z" fill="#E05A50"></path>
  </symbol>
  <symbol viewBox="0 0 1043 1024" xmlns="http://www.w3.org/2000/svg" id="qsbk">
    <path d="M113.118 456.803l25.264-94.242c7.7-31.296 37.221-46.482 53.011-71.781 55.885-49.853 125.253-63.869 196.148-74.159 79.906-2.235 125.501-41.23 143.35-122.557 7.096-32.253 3.902-68.623 35.943-91.048 29.522-7.842 55.14.32 78.275 18.912a501.724 501.724 0 0 1 69.794 93.603l24.057 92.042c-3.797 17.741 8.303 24.164 21.502 28.99 44.14 16.108 77.707 46.872 110.458 78.842a576.06 576.06 0 0 1 53.756 109.108c-1.313 39.457 12.028 69.901 40.876 99.92 146.578 152.574 77.494 392.01-133.592 459.64-137.602 44.105-280.667 44.709-423.52 34.56-66.778-4.754-133.38-12.56-198.277-30.053C-.639 931.808-70.149 679.88 81.965 522.73c18.45-19.126 36.937-36.264 31.153-65.927zm485.65-394.815c-20.65 147.82-104.318 212.328-229.394 219.176C242.275 288.26 176.242 365.15 171.7 494.059c-.603 17.387 0 31.935-17.528 44.389-82.923 59.895-112.054 141.753-87.145 240.217 25.05 99.032 97.328 144.45 193.025 161.907a1404.045 1404.045 0 0 0 431.645 13.2c39.031-4.968 78.878-10.823 116.064-23.1 86.293-28.386 153.746-80.545 172.126-174.787 17.74-91.155-14.62-166.342-89.949-220.56-19.657-14.193-17.386-30.62-18.309-49.25-5.074-104.14-64.649-180.5-165.207-203.776-28.918-6.706-29.557-19.018-28.705-41.763 2.59-68.765-20.509-127.382-78.949-178.548z" fill="#72420D"></path>
    <path d="M598.768 61.988c58.44 51.166 81.61 109.748 78.914 178.69-.852 22.745-.213 35.093 28.705 41.763 100.558 23.277 160.097 99.6 165.207 203.777.922 18.593-1.349 35.092 18.309 49.25 75.33 54.217 107.76 129.404 89.948 220.56-18.273 94.276-85.69 146.294-172.126 174.786-37.186 12.277-76.961 18.132-116.063 23.1a1404.045 1404.045 0 0 1-431.646-13.2c-95.803-17.458-167.974-62.875-193.025-161.907-24.838-98.464 4.223-180.323 87.145-240.217 17.493-12.632 16.925-27.002 17.529-44.389 4.506-129.085 70.574-206.118 197.673-212.895 125.112-6.955 208.78-71.498 229.43-219.318zm-99.706 761.491c58.298-2.91 105.667-26.115 139.376-74.832 10.36-14.938 15.754-33.993 39.492-36.086 15.612-1.384 28.812-20.544 17.741-28.209-25.37-17.457-55.778-28.599-85.477-38.25-12.49-4.045-20.758 8.942-21.041 22.993a11.07 11.07 0 0 0 1.241 4.932c21.29 42.579-12.596 59.61-39.03 75.968-46.128 28.812-93.284 17.741-141.93-30.444-14.868-14.76-29.912-27.18-48.221-11.532s-8.907 34.24 3.548 49.995c34.63 42.863 79.836 63.656 134.301 65.5zM354.435 515.846c0 8.586.213 17.173 0 25.76-.993 32.431 4.542 59.185 46.128 58.014 39.563-1.136 41.55-27.57 40.414-57.34a432.639 432.639 0 0 1 13.555-127.737c6.493-24.448 6.6-45.808-22.07-53.401s-49.676 2.058-59.54 32.927a401.556 401.556 0 0 0-18.487 121.777zm312.85-75.259c-10.467-30.018-25.725-43.644-48.185-26.718-23.064 17.386-42.58 39.74-62.45 61.03a27.144 27.144 0 0 0-1.028 37.86c19.409 21.715 39.03 43.998 62.2 61.349 20.687 15.506 52.302 1.17 43.963-17.528-19.55-44.105-53.365-81.93 5.465-115.993z" fill="#FCFBFA"></path>
    <path d="M499.062 823.444c-54.465-1.774-99.67-22.567-134.017-65.394-12.632-15.755-22.07-34.312-3.549-49.995s33.354-3.23 48.221 11.531c48.611 48.292 95.803 59.256 141.93 30.445 26.293-16.358 60.108-33.319 39.031-75.969a11.07 11.07 0 0 1-1.242-4.932c.284-14.193 8.552-27.037 21.042-22.992 29.699 9.65 60.107 20.792 85.477 38.25 11.106 7.664-2.058 26.825-17.741 28.208-23.738 2.094-29.167 21.29-39.492 36.086-33.993 48.718-81.362 71.923-139.66 74.762z" fill="#FEA623"></path>
    <path d="M354.435 515.846a401.556 401.556 0 0 1 18.487-121.67c9.828-30.87 30.728-40.557 59.54-32.928s28.563 28.954 22.07 53.401a432.639 432.639 0 0 0-13.555 127.738c1.1 29.77-.887 56.204-40.414 57.34-41.657 1.17-47.157-25.584-46.128-58.015.39-8.693 0-17.28 0-25.866z" fill="#704111"></path>
    <path d="M667.25 440.587c-58.83 34.063-25.157 71.888-5.536 115.957 8.339 18.7-23.276 33.07-43.962 17.528-23.1-17.315-42.792-39.634-62.201-61.349a27.144 27.144 0 0 1 1.029-37.86c19.87-21.29 39.385-43.679 62.449-61.03 22.496-16.89 37.789-3.264 48.22 26.754z" fill="#734517"></path>
  </symbol>
  <symbol viewBox="0 0 1024 1024" xmlns="http://www.w3.org/2000/svg" id="svg">
    <path d="M677.724 6.676h-525.83c-14.623 0-22.253 2.543-22.253 25.115v964.55c0 6.359 7.63 27.659 22.254 27.659H878.01c14.624 0 14.624-21.3 14.624-27.658V233.349c0-12.717 4.133-16.85 0-19.711L685.99 6.676c-2.861-2.861-4.133 0-8.266 0z" fill="#E9E9E0"></path>
    <path d="M701.886 0v229.216h202.51z" fill="#D9D7CA"></path>
    <path d="M127.733 578.92h766.808q61.676 0 61.676 61.676v226.355q0 61.675-61.676 61.675H127.733q-61.675 0-61.675-61.675V640.596q0-61.675 61.675-61.675z" fill="#22B573"></path>
    <path d="M232.645 826.576a90.605 90.605 0 0 0 59.45 21.618 50.23 50.23 0 0 0 28.294-6.359 19.393 19.393 0 0 0 9.538-16.849 23.844 23.844 0 0 0-7.63-16.531 141.472 141.472 0 0 0-39.74-21.3q-50.866-21.619-50.866-63.583a54.681 54.681 0 0 1 22.89-46.734 101.414 101.414 0 0 1 60.722-16.85 149.737 149.737 0 0 1 53.409 7.63v43.237a88.698 88.698 0 0 0-50.866-14.942 52.138 52.138 0 0 0-27.34 6.358 18.757 18.757 0 0 0-10.174 16.85 21.618 21.618 0 0 0 6.994 15.578 130.345 130.345 0 0 0 34.653 19.074 112.541 112.541 0 0 1 44.19 29.248 57.224 57.224 0 0 1 12.08 36.56 55.317 55.317 0 0 1-21.936 47.37 103.958 103.958 0 0 1-63.582 16.213 134.795 134.795 0 0 1-61.04-12.08zm359.878-163.09l-75.027 216.5h-52.138l-74.074-216.5h49.594l46.734 152.916a101.097 101.097 0 0 1 4.45 21.3 114.767 114.767 0 0 1 4.77-21.935l46.097-152.281zm196.47 201.875a153.87 153.87 0 0 1-77.888 18.44 112.224 112.224 0 0 1-81.704-28.931 105.547 105.547 0 0 1-29.884-79.479 110.952 110.952 0 0 1 31.792-83.293 118.9 118.9 0 0 1 86.79-31.791 170.402 170.402 0 0 1 60.404 9.855v43.872a120.171 120.171 0 0 0-60.404-14.624 66.762 66.762 0 0 0-50.548 20.347 74.71 74.71 0 0 0-19.393 53.727 75.028 75.028 0 0 0 17.485 53.092 63.583 63.583 0 0 0 47.687 19.074 67.398 67.398 0 0 0 29.566-5.722v-45.144h-43.554v-36.878h89.97z" fill="#FFF"></path>
    <path d="M386.197 409.155a160.864 160.864 0 0 0 105.548 38.467 89.652 89.652 0 0 0 51.184-11.762 34.653 34.653 0 0 0 16.85-29.566 42.283 42.283 0 0 0-13.353-29.566 252.423 252.423 0 0 0-70.895-37.832q-91.56-38.15-91.56-111.27a96.964 96.964 0 0 1 41.012-83.293 179.94 179.94 0 0 1 108.09-29.566 266.73 266.73 0 0 1 95.374 14.624v76.935a158.957 158.957 0 0 0-90.605-26.387 92.513 92.513 0 0 0-48.64 10.81 33.38 33.38 0 0 0-18.122 29.565 38.468 38.468 0 0 0 12.399 27.34 230.17 230.17 0 0 0 61.357 34.018 201.24 201.24 0 0 1 78.843 51.82 102.368 102.368 0 0 1 21.618 63.582 98.553 98.553 0 0 1-38.786 86.473 184.708 184.708 0 0 1-111.587 28.93 239.389 239.389 0 0 1-108.409-21.3z" fill="#22B573"></path>
  </symbol>
  <symbol viewBox="0 0 1024 1024" xmlns="http://www.w3.org/2000/svg" id="pingcloud">
    <path d="M512 13.653C236.77 13.653 13.653 236.77 13.653 512S236.77 1010.347 512 1010.347 1010.347 787.23 1010.347 512 787.23 13.653 512 13.653zm0 952.32c-250.723 0-453.973-203.25-453.973-453.973S261.277 58.027 512 58.027c250.72 0 453.973 203.25 453.973 453.973S762.72 965.973 512 965.973z" fill="#1296db"></path>
    <path d="M508.245 170.008h-36.84a2.901 2.901 0 0 0-2.901 2.905v306.906a2.899 2.899 0 0 0 2.901 2.901h36.84a2.899 2.899 0 0 0 2.902-2.9V172.91a2.901 2.901 0 0 0-2.902-2.902zm312.71 324.072h-349.55a2.901 2.901 0 0 0-2.901 2.901v36.84a2.902 2.902 0 0 0 2.901 2.905h349.55c1.604 0 2.904-1.3 2.904-2.905v-36.84a2.908 2.908 0 0 0-2.905-2.901zm-567 225.717v80.37h-27.76V585.151h61.078c23.228 0 41.247 5.601 54.067 16.797 12.814 11.196 19.224 27.208 19.224 48.026 0 21.101-7.496 38.195-22.487 51.289-14.991 13.096-33.73 19.271-56.218 18.534h-27.904zm0-110.217v85.788h25.679c16.933 0 29.795-3.82 38.591-11.452 8.79-7.632 13.186-18.575 13.186-32.826 0-27.669-16.38-41.506-49.139-41.506h-28.317zm139.367-17.073c0-4.81 1.642-8.861 4.929-12.145 3.283-3.287 7.332-4.929 12.144-4.929 4.905 0 9.046 1.622 12.425 4.861s5.065 7.311 5.065 12.213c0 4.813-1.69 8.817-5.065 12.008-3.38 3.195-7.52 4.789-12.425 4.789s-8.977-1.598-12.216-4.789c-3.24-3.191-4.857-7.195-4.857-12.008zm3.195 207.66V646.642h27.207v153.525h-27.207zm205.578 0h-27.068v-87.31c0-31.556-11.523-47.336-34.563-47.336-11.94 0-21.75 4.445-29.43 13.326-7.683 8.885-11.52 20.125-11.52 33.73v87.59h-27.208V646.642h27.208v25.402h.556c11.568-19.34 28.365-29.013 50.391-29.013 16.842 0 29.655 5.393 38.452 16.172 8.789 10.78 13.185 26.491 13.185 47.125v93.84zm178.647-12.909c0 56.818-27.58 85.231-82.729 85.231-19.067 0-35.628-3.564-49.698-10.69v-26.235c17.121 9.53 33.546 14.295 49.282 14.295 37.29 0 55.94-19.62 55.94-58.853v-16.244h-.556c-11.66 19.343-29.06 29.013-52.193 29.013-19.248 0-34.656-6.895-46.223-20.685-11.568-13.786-17.35-32.068-17.35-54.828 0-26.187 6.386-46.94 19.155-62.256 12.77-15.312 29.795-22.972 51.08-22.972 20.45 0 35.63 8.148 45.531 24.43h.557v-20.822h27.207v140.616zm-27.204-78.428c.088-11.844-3.888-22.023-11.94-30.536-8.049-8.513-17.954-12.773-29.703-12.773-14.807 0-26.33 5.441-34.563 16.31-8.24 10.878-12.357 25.8-12.357 44.765 0 16.289 3.98 29.478 11.94 39.564 7.957 10.087 18.507 15.132 31.645 15.132 13.234 0 24.06-4.813 32.485-14.435 8.42-9.623 12.585-21.839 12.493-36.646V708.83z" fill="#1296db"></path>
  </symbol>
  <symbol viewBox="0 0 1024 1024" xmlns="http://www.w3.org/2000/svg" id="gc">
    <path d="M651.075 326.121c-10.572 9.387-17.225 14.734-23.24 20.719-55.99 55.746-111.492 111.978-167.906 167.268a43.169 43.169 0 0 1-76.86-19.443 59.634 59.634 0 0 1 15.554-44.627C458.805 387.062 521.021 326.06 582.57 264.42a576.72 576.72 0 0 1 55.381-54.106 94.176 94.176 0 0 1 49.336-20.02c59.786-2.37 119.724-1.154 179.602-.79a52.192 52.192 0 0 1 58.632 58.602c.152 99.796.85 199.622-.76 299.387a141.415 141.415 0 0 1-18.015 45.205 99.553 99.553 0 0 0-12.728 32.414c-.973 106.328-.486 212.898-.7 319.347a51.25 51.25 0 1 1-101.618 2.248c-.82-59.878-.303-119.755-.334-179.632v-124.19c0-12.152 1.489-23.97-17.012-24.304-17.985-.213-20.385 9.6-20.354 24.03q.334 143.056 0 286.111a210.315 210.315 0 0 1-1.884 33.114 47.361 47.361 0 0 1-51.644 41.285 51.28 51.28 0 0 1-46.936-45.295c-.79-8.05-.335-16.253-.365-24.304l-.365-576.628c.061-8.384-.88-16.86-1.731-30.774z" fill="#00B8C1"></path>
    <path d="M342.118 1023.689c-48.789 0-97.578-.456-146.367.273-14.855.213-22.511-3.038-25.276-19.534-13.944-82.935-29.194-165.688-43.806-248.532-9.114-50.855-17.681-101.77-26.46-152.686a98.277 98.277 0 0 1-2.492-17.498 34.055 34.055 0 0 1 27.342-35.696 30.38 30.38 0 0 1 38.824 21.083 644.04 644.04 0 0 1 14.764 71.27c17.438 97.213 34.967 194.64 51.433 292.126 2.673 15.889 10.268 18.44 23.878 18.228q88.707-.668 177.414 0c13.55 0 21.266-2.704 23.818-18.622 19.685-117.173 40.495-234.133 60.758-351.184a37.944 37.944 0 0 1 39.493-33.904 35.058 35.058 0 0 1 30.38 43.595c-8.72 54.682-18.046 109.365-27.646 163.774-14.308 81.386-29.832 162.59-43.017 244.158-3.038 19.564-11.453 23.726-29.012 23.422-47.908-.85-95.968-.273-144.028-.273zM858.2 85.244a80.96 80.96 0 0 1-82.783 82.024 83.27 83.27 0 0 1-83.907-84.242A85.79 85.79 0 0 1 775.417 0 83.452 83.452 0 0 1 858.2 85.244z" fill="#00B8C1"></path>
    <path d="M362.35 615.088a41.468 41.468 0 1 1-41.862-42.045 42.106 42.106 0 0 1 41.863 42.045zm54.987 13.458c-5.316-4.709-9.843-8.384-14.005-12.455-32.202-31.655-32.08-36.273 5.013-64.01 4.07-3.037 12.303-.576 18.622-.546.547 0 1.094.911 1.61 1.458 36.668 39.068 43.048 25.124-11.24 75.553z" fill="#00B8C1"></path>
  </symbol>
  <symbol viewBox="0 0 1024 1024" xmlns="http://www.w3.org/2000/svg" id="p2p">
    <path d="M511.56 939.742L189.013 750.739h233.612c7.275 42.876 44.196 75.55 88.935 75.55s81.633-32.674 88.909-75.55h233.664L511.534 939.742zm-38.163-845.54l-125.44 216.912a89.064 89.064 0 0 0-28.558-5.074 90.618 90.618 0 0 0-60.067 158.322l-117.855 203.76V288.667L473.397 94.2zm7.508 556.133L375.35 467.779a90.359 90.359 0 0 0 32.13-50.927h208.084a90.41 90.41 0 0 0 32.156 50.927L542.266 650.31a89.4 89.4 0 0 0-30.68-5.722 89.323 89.323 0 0 0-30.655 5.722zm30.888-561.39l136.625 236.46a90.41 90.41 0 0 0-34.175 60.844h-205.47a90.41 90.41 0 0 0-33.865-60.584l136.885-236.72zM146.759 720.112l138.36-239.231c10.564 4.375 22.11 6.861 34.28 6.861 10.252 0 19.935-2.071 29.127-5.23L454.367 665.56a90.359 90.359 0 0 0-31.742 54.552H146.76zm453.71 0a90.307 90.307 0 0 0-31.69-54.526L674.541 482.51c9.191 3.159 18.849 5.23 29.101 5.23 12.247 0 23.898-2.486 34.565-6.939L876.463 720.11H600.47zm281.173-52.248L763.943 464.155a90.644 90.644 0 0 0-60.3-158.115c-9.916 0-19.288 1.993-28.22 4.945L550.396 94.59l331.246 194.077v379.196zM522.615 27.61a21.904 21.904 0 0 0-22.085 0L108.596 257.261a21.852 21.852 0 0 0-10.822 18.9v459.251a21.92 21.92 0 0 0 10.822 18.9L500.53 983.963a21.826 21.826 0 0 0 22.085 0l391.986-229.65a21.955 21.955 0 0 0 10.797-18.9V276.135c0-7.767-4.143-14.94-10.797-18.875L522.615 27.611z" fill="#5FB86C"></path>
    <path d="M491.287 49.23L97.747 731.346l42.617 24.596L533.904 73.8zM654.4 433.758L506.874 689.43l42.616 24.596 147.5-255.671z" fill="#5FB86C"></path>
    <path d="M377.316 433.759l147.5 255.671-42.616 24.596-147.5-255.671zM534.06 49.229l380.957 669.975-42.772 24.312L491.287 73.54z" fill="#5FB86C"></path>
    <path d="M306.816 418.173h394.42V368.98h-394.42zM134.642 762.52h750.185v-49.193H134.642z" fill="#5FB86C"></path>
  </symbol>
  <symbol viewBox="0 0 1024 1024" xmlns="http://www.w3.org/2000/svg" id="http">
    <path d="M61.44 163.84h901.12v675.84H61.44z" fill="#FFF"></path>
    <path d="M983.04 880.64H40.96c-12.288 0-20.48-8.192-20.48-20.48v-716.8c0-12.288 8.192-20.48 20.48-20.48h942.08c12.288 0 20.48 8.192 20.48 20.48v716.8c0 12.288-8.192 20.48-20.48 20.48zm-921.6-40.96h901.12V163.84H61.44v675.84z" fill="#13173C"></path>
    <path d="M178.176 643.072c2.048-14.336 2.048-24.576 2.048-43.008V448.512c0-20.48 0-32.768-2.048-43.008h59.392c-2.048 12.288-2.048 22.528-2.048 43.008v40.96c16.384-16.384 34.816-24.576 59.392-24.576 20.48 0 34.816 6.144 45.056 16.384 12.288 12.288 16.384 24.576 16.384 49.152v71.68c0 16.384 0 30.72 2.048 43.008h-59.392c2.048-14.336 2.048-26.624 2.048-43.008V542.72c0-12.288-2.048-16.384-4.096-22.528-4.096-6.144-10.24-8.192-18.432-8.192-16.384 0-32.768 10.24-43.008 30.72v57.344c0 16.384 0 28.672 2.048 43.008h-59.392zm233.472-180.224c0-14.336 0-26.624-2.048-38.912h59.392c-2.048 12.288-2.048 24.576-2.048 38.912v6.144h10.24c12.288 0 18.432 0 28.672-2.048v47.104C497.664 512 489.472 512 479.232 512h-12.288v73.728c0 8.192 2.048 12.288 6.144 14.336s8.192 4.096 12.288 4.096c8.192 0 12.288-2.048 20.48-6.144l4.096 43.008c-12.288 4.096-24.576 6.144-38.912 6.144-20.48 0-32.768-4.096-43.008-10.24-10.24-8.192-14.336-18.432-14.336-36.864V512h-10.24c-8.192 0-16.384 0-24.576 2.048v-47.104c8.192 2.048 16.384 2.048 24.576 2.048h10.24v-6.144zm137.216 0c0-14.336 0-26.624-2.048-38.912h59.392c-2.048 12.288-2.048 24.576-2.048 38.912v6.144h10.24c12.288 0 18.432 0 28.672-2.048v47.104C634.88 512 626.688 512 616.448 512H604.16v73.728c0 8.192 2.048 12.288 6.144 14.336s8.192 4.096 12.288 4.096c8.192 0 12.288-2.048 20.48-6.144l4.096 43.008c-12.288 4.096-24.576 6.144-38.912 6.144-20.48 0-32.768-4.096-43.008-10.24-10.24-8.192-14.336-18.432-14.336-36.864V512h-10.24c-8.192 0-16.384 0-24.576 2.048v-47.104c8.192 2.048 16.384 2.048 24.576 2.048h10.24v-6.144zM663.552 696.32c2.048-12.288 2.048-26.624 2.048-40.96V516.096c0-18.432 0-30.72-2.048-45.056h57.344v16.384c16.384-14.336 34.816-20.48 59.392-20.48s45.056 8.192 61.44 22.528c14.336 14.336 22.528 36.864 22.528 67.584 0 28.672-8.192 53.248-24.576 69.632-14.336 14.336-34.816 22.528-59.392 22.528-14.336 0-28.672-2.048-38.912-8.192-8.192-4.096-12.288-6.144-20.48-12.288v30.72c0 16.384 0 28.672 2.048 40.96h-59.392zm131.072-106.496c8.192-8.192 12.288-20.48 12.288-36.864 0-28.672-16.384-47.104-43.008-47.104-24.576 0-43.008 20.48-43.008 47.104s18.432 47.104 45.056 47.104c10.24 2.048 20.48-2.048 28.672-10.24z" fill="#FF633E"></path>
    <path d="M61.44 163.84h901.12v102.4H61.44z" fill="#3796FF"></path>
    <path d="M716.8 215.04a30.72 30.72 0 1 0 61.44 0 30.72 30.72 0 1 0-61.44 0z" fill="#FFD761"></path>
    <path d="M839.68 215.04a30.72 30.72 0 1 0 61.44 0 30.72 30.72 0 1 0-61.44 0z" fill="#B3D7FF"></path>
  </symbol>
</svg>