<?xml version="1.0" standalone="no"?><!DOCTYPE svg PUBLIC "-//W3C//DTD SVG 1.1//EN" "http://www.w3.org/Graphics/SVG/1.1/DTD/svg11.dtd"><svg t="1533695017097" class="icon" style="" viewBox="0 0 1024 1024" version="1.1" xmlns="http://www.w3.org/2000/svg" p-id="3452" xmlns:xlink="http://www.w3.org/1999/xlink" width="200" height="200"><defs><style type="text/css"></style></defs><path d="M510.45 70.554c-243.16299999 0-442.115 198.951-442.115 442.115 0 243.16 198.952 442.11 442.116 442.11 243.159 0 442.11-198.95 442.11-442.11 0-243.165-198.951-442.115-442.11-442.115z m11.051 132.633c168.556 0 168.556 127.11 168.556 198.95 0 71.847-66.318 204.48-168.556 207.24-99.475 0-168.556-132.632-168.556-207.24 0.001-71.841 0.001-198.95 168.556-198.95z m-11.05 726.723c-127.11 0-243.164-58.03-320.534-149.211 11.051-27.635 24.868-58.03 44.212-74.607 41.446-33.162 165.79-88.425 165.79-88.425l77.37 149.215 13.816-35.923L469 686.747l44.212-44.208 44.212 44.208-19.345 46.974 11.055 35.924 80.132-146.45s124.343 55.262 165.793 88.424c19.34 13.813 33.15699999 38.685 41.447 60.787C761.9 869.12 643.082 929.91 510.44999999 929.91z m0 0" fill="#0E5B51" p-id="3453"></path></svg>