<svg viewBox="0 0 1133 1024" xmlns="http://www.w3.org/2000/svg" width="221.289" height="200"><path d="M1019.417 507.947c0 68.832-6.19 137.23-30.95 197.025-25.687 61.899-73.04 112.161-119.836 158.895a496.926 496.926 0 0 1-164.342 106.466C644.494 995.093 581.605 1024 512.773 1024s-134.445-22.16-194.302-46.981c-61.899-25.689-114.142-67.1-160.938-113.833A500.393 500.393 0 0 1 46.115 701.134C21.417 641.277 0 576.779 0 507.947a515.62 515.62 0 0 1 38.873-196.159C64.623 249.89 108.88 197.77 155.614 150.85S255.953 63.882 317.976 38.194A507.078 507.078 0 0 1 512.526.002c68.83 0 132.525 18.57 192.32 43.64 61.899 25.687 124.665 53.913 171.399 100.647s72.174 110.49 97.862 172.451c24.822 59.857 45.31 122.746 45.31 191.207z" fill="#FFD635"/><path d="M621.9 957.892c-64.87 0-126.83-20.922-183.22-44.32-58.495-24.265-107.705-63.261-151.777-107.395a471.92 471.92 0 0 1-104.796-152.83c-23.398-56.39-43.33-117.236-43.33-182.168a486.775 486.775 0 0 1 36.398-185.017c24.264-58.495 66.232-107.519 110.118-151.591S379.937 52.43 438.37 28.166A469.134 469.134 0 0 1 531.838.56c-6.376-.557-12.814-.557-19.313-.557a507.078 507.078 0 0 0-194.549 38.192c-61.9 25.75-115.628 66.108-162.362 112.842S64.623 250.075 38.873 311.974A515.62 515.62 0 0 0 0 507.947c0 68.832 21.417 133.33 46.239 193.187a499.774 499.774 0 0 0 111.418 162.052c46.734 46.734 99.039 88.144 160.938 113.833 59.856 24.76 125.531 46.981 194.301 46.981s131.722-28.845 191.516-53.667a517.848 517.848 0 0 0 134.57-79.54c-11.762 5.819-23.77 11.39-36.088 16.527-56.762 23.398-115.813 50.572-180.993 50.572z" fill="#F7B523"/><path d="M431.004 132.157s3.652-2.847 10.275-7.304a240.169 240.169 0 0 1 28.66-16.651 235.712 235.712 0 0 1 44.32-16.837 217.514 217.514 0 0 1 55.213-7.675h14.051c4.395 0 9.41.31 13.928.619s9.099.99 13.556 1.61 8.79 1.547 13.06 2.475a168.613 168.613 0 0 1 24.08 7.49 140.14 140.14 0 0 1 20.488 9.904 123.798 123.798 0 0 1 27.483 21.293 74.279 74.279 0 0 1 6.623 7.738 27.607 27.607 0 0 1 2.167 3.033s-5.2.928-13.618 1.547c-4.147.31-9.1.433-14.67.681s-11.637 0-18.137 0-13.432-.619-20.674-1.114-14.732-1.362-22.47-2.352l-11.698-1.61-12.009-1.919c-4.085-.68-7.737-1.423-12.38-2.042l-6.19-1.238a55.214 55.214 0 0 0-5.818-.743 438.989 438.989 0 0 0-91.549 0l-32.126 2.723-9.223.681z" fill="#FFEF57"/><path d="m527.628 438.93-2.97-3.591c-1.796-2.414-4.767-5.819-8.11-10.275s-7.737-9.718-12.38-15.97-10.027-12.937-15.536-20.489l-18.57-23.77c-6.19-8.294-13.68-16.588-20.736-24.759a194.363 194.363 0 0 0-22.222-22.407 42.587 42.587 0 0 0-10.275-6.685c-2.91-1.362-4.147-.99-3.528-.867h1.176-1.733.557-.372a10.894 10.894 0 0 0-2.661 1.795 45.496 45.496 0 0 0-7.923 9.409c-2.538 4.023-5.138 8.542-7.738 13.184s-4.89 9.657-7.056 14.67c-4.21 10.09-8.48 20.18-12.38 30.021s-6.995 19.437-9.966 28.165-6.19 17.022-8.666 24.326-4.952 13.618-6.87 18.88-3.59 9.408-4.643 12.379l-1.733 4.333a4.766 4.766 0 0 1-6.19 2.662 5.014 5.014 0 0 1-2.91-3.343s-.37-1.671-.866-4.766-1.3-7.676-1.795-13.37-1.238-12.814-1.362-20.799a263.319 263.319 0 0 1 0-26.988c0-5.013.62-10.151.929-15.536s1.3-10.833 2.104-16.527a266.166 266.166 0 0 1 7.242-36.459 185.697 185.697 0 0 1 6.19-19.25 137.788 137.788 0 0 1 9.657-20.118 92.849 92.849 0 0 1 16.217-20.922 67.408 67.408 0 0 1 13.494-9.904 37.14 37.14 0 0 1 4.147-2.104l2.229-.99 2.847-1.053 3.033-.99 1.671-.434h1.115l1.609-.37h1.671a60.97 60.97 0 0 1 35.53 6.189 94.149 94.149 0 0 1 21.603 15.227 136.178 136.178 0 0 1 15.166 16.28 194.24 194.24 0 0 1 12.38 15.784 264.248 264.248 0 0 1 17.888 32.126 266.166 266.166 0 0 1 12.38 29.526c3.59 9.223 6.19 17.95 8.418 25.626s3.776 14.608 5.014 20.24 1.857 10.214 2.414 13.31.62 4.765.62 4.765a4.704 4.704 0 0 1-4.334 5.138 4.766 4.766 0 0 1-3.776-1.3zm123.984-3.777.805-4.704c.62-2.971 1.424-7.49 2.91-13.06s3.094-12.38 5.632-19.87 5.2-16.156 8.976-25.255a288.202 288.202 0 0 1 13.06-29.093 253.353 253.353 0 0 1 18.57-31.445 237.95 237.95 0 0 1 11.885-16.093 121.57 121.57 0 0 1 14.856-15.847 99.472 99.472 0 0 1 20.674-14.484 56.39 56.39 0 0 1 33.24-6.19h3.837l1.548.433 2.785.929c2.043.68 3.405 1.3 4.705 1.857a38.687 38.687 0 0 1 3.9 2.042 64.313 64.313 0 0 1 12.38 9.347 98.234 98.234 0 0 1 15.66 20.117 116.866 116.866 0 0 1 9.594 19.623c2.538 6.19 4.643 12.75 6.5 18.94a248.525 248.525 0 0 1 7.923 35.53 283.498 283.498 0 0 1 3.59 31.755c.866 9.78.928 18.57.928 26.802s-.371 14.918-.743 20.613-.928 10.275-1.238 13.308l-.68 4.766a4.704 4.704 0 0 1-5.324 4.024 4.89 4.89 0 0 1-3.652-2.662v-.371l-1.919-4.271c-1.176-2.848-3.157-6.933-5.2-12.38s-4.827-11.513-7.55-18.57-6.19-15.35-9.348-24.14l-5.385-13.495c-1.733-4.642-3.59-9.47-5.447-14.36-3.838-9.718-8.295-19.746-12.751-29.588-2.29-4.89-4.58-9.718-7.057-14.36s-5.137-8.852-7.675-12.69a49.52 49.52 0 0 0-7.242-8.418 7.057 7.057 0 0 0-1.857-1.3h1.423-1.733c-1.362 0 1.61.371 1.3.31 1.61 0 1.238-.496-1.238.68a44.196 44.196 0 0 0-9.533 6.19 193.063 193.063 0 0 0-22.283 21.417c-7.18 8.11-14.485 16.28-21.108 24.45s-12.937 15.97-18.57 23.275-11.327 14.113-16.217 20.117-9.285 11.265-12.875 15.598-6.685 7.676-8.666 10.028l-3.157 3.528a4.766 4.766 0 0 1-6.685 0 4.642 4.642 0 0 1-1.548-3.033zm-51.19 176.475a865.474 865.474 0 0 1-324.723-50.758c6.19 168.304 154.748 299.778 333.08 293.65s317.913-147.506 312.157-315.686a865.35 865.35 0 0 1-320.514 72.794z" fill="#943436"/><path d="M711.283 630.817a1021.77 1021.77 0 0 1-108.57 10.213h-2.848a1023.874 1023.874 0 0 1-109.005-2.724 831.43 831.43 0 0 1-99.781-13.122 505.443 505.443 0 0 1-47.6-12.07c.557 2.228 1.237 4.518 1.918 6.746a226.613 226.613 0 0 0 11.266 29.526 535.428 535.428 0 0 0 489.375-17.208 242.52 242.52 0 0 0 9.099-29.773c.495-2.352.99-4.643 1.424-6.933-15.475 6.19-30.95 10.956-46.672 15.29a826.91 826.91 0 0 1-98.606 20.055z" fill="#FFF"/><path d="M946.005 300.09c-3.776 27.792-19.003 56.947-9.037 87.463s44.381 57.504 77.683 65.799c36.025 9.037 55.71-3.095 75.703-15.785 27.978-17.827 44.196-57.07 40.73-84.616-12.38-69.203-66.666-132.278-108.943-212.871-18.57 35.22-39.368 67.16-57.938 97.677a303.306 303.306 0 0 0-18.198 62.332z" fill="#02BEFF"/><path d="M1133.683 380.868a160.938 160.938 0 0 0-2.6-27.917c3.467 27.545-12.75 66.79-40.73 84.616-19.93 12.38-39.677 24.76-75.702 15.785-33.302-8.295-67.408-34.478-77.683-65.8s5.261-59.67 9.037-87.463a303.306 303.306 0 0 1 18.198-62.332c-29.65 48.529-53.604 93.591-53.604 143.11 0 65.057 49.952 117.61 111.418 117.61s111.666-52.8 111.666-117.61z" fill="#0090F2"/></svg>