<svg viewBox="0 0 1024 1024" xmlns="http://www.w3.org/2000/svg" width="16" height="16"><path d="M170.667 0h682.666Q1024 0 1024 170.667v682.666Q1024 1024 853.333 1024H170.667Q0 1024 0 853.333V170.667Q0 0 170.667 0Z" fill="#EC494C"/><path d="M554.41 303.104a6.57 6.57 0 0 1-5.333-1.792c-32.128-66.048-51.754-101.717-67.84-110.677a166.741 166.741 0 0 0-105.301 10.709c-57.13 17.835-91.008 37.461-80.299 67.84 7.126 19.627 23.211 28.544 58.88 35.712 62.464 51.755 64.256 137.43-1.792 264.15a681.515 681.515 0 0 0-137.429 71.38c-28.544 21.334-44.63 41.046-44.63 62.465 0 69.589 155.265 123.136 296.278 133.845 17.835 1.792 35.712 1.792 51.755 1.792 85.674 0 112.426-110.677 89.258-323.072a603.904 603.904 0 0 1 60.672-14.293c26.752-5.334 107.094-19.627 107.094-19.627 51.754-8.917 71.381-17.835 76.8-41.045 12.501-48.171-112.427-96.384-298.07-137.43zm-26.75 30.336c7.125 1.792 12.501 1.792 19.626 3.584 19.627 3.584 39.254 8.917 58.88 14.293-7.125 16.043-14.293 32.128-23.21 48.171a555.733 555.733 0 0 0-66.048-14.293c3.584-16.043 7.125-33.92 10.709-51.755zm37.461 98.133a950.4 950.4 0 0 1-49.963 76.8c-10.709 3.584-32.128 10.71-44.629 16.043a944.64 944.64 0 0 0 37.461-103.51 444.203 444.203 0 0 1 57.131 10.71zm7.125 94.592c1.792 19.627 3.584 37.462 3.584 55.467a248.96 248.96 0 0 1-39.253 26.752 213.93 213.93 0 0 0-5.333-67.84 6.23 6.23 0 0 0 3.584-1.792c12.501-3.584 25.002-8.917 37.461-12.501zm-71.381 99.968c-21.333 8.918-44.63 17.835-71.381 26.752a195.328 195.328 0 0 0 17.962-82.048c8.918-3.584 19.627-7.125 28.544-10.709 5.334-1.792 14.294-5.333 21.334-7.125a242.816 242.816 0 0 1 3.584 73.173zm-19.627-244.522a198.272 198.272 0 0 0-46.592 1.792 163.67 163.67 0 0 0-24.789-69.59c14.293 1.792 30.336 5.334 37.461 5.334 16.043 1.792 30.336 5.333 46.422 7.125-5.334 19.627-8.918 37.461-12.502 55.467zm-101.76-108.758a178.688 178.688 0 0 1-48.17-12.8 24.619 24.619 0 0 1 7.125-5.333 178.603 178.603 0 0 1 48.17-19.627 328.533 328.533 0 0 1 53.59-12.33 80.043 80.043 0 0 1 19.627-1.792h3.584a334.763 334.763 0 0 1 42.666 71.381c-17.834-3.584-35.712-5.333-53.546-8.917a2334.976 2334.976 0 0 1-73.174-10.71zm57.13 146.347a216.363 216.363 0 0 1 35.712-1.792 477.27 477.27 0 0 1-51.755 124.843c-5.333 1.792-12.501 5.333-17.834 7.125a469.675 469.675 0 0 0 33.92-130.304zM204.587 701.099c0-7.126 8.917-19.627 30.336-33.92a597.333 597.333 0 0 1 132.266-66.048c14.294-5.334 30.336-12.502 44.63-17.835a221.184 221.184 0 0 1-28.544 83.883 2721.579 2721.579 0 0 1-174.934 44.629 13.099 13.099 0 0 1-3.584-10.71zm35.712 39.253c42.666-8.917 82.09-19.627 116.01-28.544a520.533 520.533 0 0 1-41.13 60.715 627.797 627.797 0 0 1-74.966-32.128zm203.434 57.301a810.667 810.667 0 0 1-91.008-16.213c21.334-30.336 39.254-58.88 53.547-83.883 32.128-10.709 60.672-19.626 85.675-30.336-1.792 7.126-3.584 12.502-5.334 19.627a647.339 647.339 0 0 1-42.666 110.677zm73.174 5.334a239.19 239.19 0 0 1-35.712-1.792A582.443 582.443 0 0 0 522.24 694.1c3.584-16.042 7.125-30.336 10.71-44.629 17.834-8.917 32.127-16.043 46.42-25.003 1.793 119.467-19.626 178.475-62.463 178.475zM661.46 467.456c-32.128 7.125-60.672 14.293-89.258 23.21 10.709-16.042 19.626-32.127 28.544-46.42 21.333 7.125 42.666 14.293 67.84 23.21-3.584-1.792-5.334 0-7.126 0zm108.886-19.627s-16.043 3.584-37.462 7.126a1203.797 1203.797 0 0 0-116.01-42.667 427.264 427.264 0 0 0 23.21-49.963c39.254 10.71 76.8 23.211 105.302 33.92a398.037 398.037 0 0 1 60.672 28.544 38.699 38.699 0 0 1 12.586 10.198 306.304 306.304 0 0 1-48.17 12.501z" fill="#FFF"/></svg>