<svg viewBox="0 0 1024 1024" xmlns="http://www.w3.org/2000/svg" width="200" height="200"><path d="M1002.23 143.023c-1.588 0-10.662-69.53-48.32-103.899C916.027 4.756 839.804 4.415 838.216 4.415c-230.596 0-446.22-.453-676.704 0-15.426 0-30.852 2.269-45.71 6.693-58.529 17.921-95.166 69.19-95.166 131.915v707.783l.114 10.095c1.474 47.072 18.602 98 57.167 127.718 27.109 20.87 58.301 30.966 92.896 30.966h831.418v-4.084c.68 0 1.135-24.84 1.135-74.748-21.665-12.477-35.05-35.39-35.163-60.343 0-25.861 14.179-48.32 35.163-60.456l-1.135-676.931zM917.5 950.735H161.059c-38.679 1.134-71.119-29.265-72.253-67.943-1.134-38.679 29.264-71.119 67.942-72.253h760.754c-12.024 20.87-19.51 44.35-19.51 70.098 0 25.634 7.486 49.227 19.51 70.098zM712.653 325.186h-424.67c-19.736 0-35.616-10.435-35.616-23.366 0-12.93 15.88-23.48 35.616-23.48h424.67c19.623 0 35.502 10.436 35.502 23.48 0 12.93-15.88 23.366-35.616 23.366h.114zm0 211.2h-424.67c-19.736 0-35.616-10.435-35.616-23.479 0-12.93 15.88-23.365 35.616-23.365h424.67c19.623 0 35.502 10.435 35.502 23.365 0 12.931-15.88 23.48-35.616 23.48h.114z" fill="#FF7800"/></svg>