<svg viewBox="0 0 1024 1024" xmlns="http://www.w3.org/2000/svg" width="200" height="200"><path d="M957.335 643.702c-1.948 13.343-15.536 22.39-30.368 20.216L604.891 616.8c-14.825-2.169-25.266-14.732-23.306-28.075l43.27-295.813c1.952-13.334 15.545-22.382 30.38-20.206l322.083 47.118c14.816 2.167 25.25 14.73 23.3 28.066l-43.283 295.812z" fill="#FD6B56"/><path d="m782.737 290.746 89.973 13.26-13.583 92.167-89.975-13.26z" fill="#FFD161"/><path d="m400.578 131.662 238.454 27.726s17.744-21.072 0-33.272l-47.667-2.531s12.174-72.887-79.878-80.65c-.002 0-97.6-6.655-110.91 88.727z" fill="#F56F5C"/><path d="M408.853 139.287a103.296 103.296 0 0 0-8.275 40.619c0 57.273 46.424 103.7 103.7 103.7 57.272 0 103.697-46.426 103.697-103.7 0-5.953-.615-11.749-1.574-17.433l-197.548-23.186z" fill="#FDD15E"/><path d="M361.759 367.897s31.054-87.618 123.106-74.309c0 0 56.566-1.37 107.584 79.722 0 0 30.187 58.911 54.466 75.549 0 0 70.86 11.09 145.167 9.98 0 0 59.891 38.82-7.763 73.201 0 0-137.527 6.654-176.346-15.526 0 0-69.871-55.455-72.09-65.436 0 0-17.745-7.764-23.29 13.309l-56.564 104.851s-7.763 17.148 6.654 34.892l85.397 104.254s15.529 27.727-1.108 74.31l-66.545 170.8s-51.018 25.508-61-26.62c0 0 4.437-63.217 29.946-131.981 0 0 16.636-33.27 3.327-54.343l-75.418-77.637s-35.491-15.526-46.582 11.091l-32.163 67.655s-32.163 38.816-59.89 48.798L87.813 838.149s-64.326 7.762-64.326-41.036c0 0-5.545-26.618 27.727-43.254 0 0 129.762-42.145 148.617-53.236 18.855-11.09 27.727-21.074 59.891-106.473L361.76 367.897z" fill="#FFD161"/></svg>