<svg viewBox="0 0 1024 1024" xmlns="http://www.w3.org/2000/svg" width="200" height="200"><path d="M304.89 751.877a36.69 36.69 0 0 1 .393 51.92L95.472 1013.454a36.668 36.668 0 0 1-51.854-.392 36.69 36.69 0 0 1-.37-51.897l209.724-209.703a36.668 36.668 0 0 1 51.897.393l.022.043zm40.787-40.85-196.042-62.16 166.41-117.171-4.095-204.887L477.01 450.56l193.558-64.403-64.403 193.536 123.708 165.104-204.887-4.031-117.063 166.433-62.246-196.15z" fill="#20A0FF"/><path d="M282.406 310.36c0-85.668-72.812-155.17-162.576-155.17 89.764 0 162.576-69.5 162.576-155.19 0 85.69 72.77 155.19 162.555 155.19-89.763 0-162.555 69.393-162.555 155.17zm0 108.935h460.321c0-85.667-72.791-155.168-162.576-155.168 89.763 0 162.576-69.502 162.576-155.19 0 85.688 72.791 155.19 162.555 155.19-89.764 0-162.555 69.392-162.555 155.168H282.363zM413.13 593.593l460.647 258.528c0-57.105-48.542-103.446-108.348-103.446 59.806 0 108.348-46.342 108.348-103.446 0 57.104 48.52 103.446 108.326 103.446-59.697 0-108.326 46.341-108.326 103.446L413.13 593.593z" fill="#20A0FF"/></svg>