<svg viewBox="0 0 1024 1024" xmlns="http://www.w3.org/2000/svg" width="200" height="200"><path d="m512.438 0-408.09 188.264v280.61c0 257.813 172.82 495.72 401.998 553.567l6.152 1.547 6.14-1.595c228.626-58.757 401.001-296.665 401.001-553.58V187.988zM869.85 468.657c0 232.44-153.26 447.613-357.473 503.636-204.824-54.968-358.217-270.2-358.217-503.636V219.873L512.438 54.848 869.85 219.813z" fill="#1296db"/><path d="M288.176 329.186v268.006h-58.938V329.186zm223.71 71.504a59.261 59.261 0 0 0-13.19-14.833 60.772 60.772 0 0 0-17.82-9.94 61.444 61.444 0 0 0-20.84-3.598q-19.894 0-33.78 7.686a63.83 63.83 0 0 0-22.52 20.65 90.439 90.439 0 0 0-12.579 29.462 146.822 146.822 0 0 0-3.933 34.163 136.51 136.51 0 0 0 3.933 32.845 88.616 88.616 0 0 0 12.58 28.707 64.31 64.31 0 0 0 22.519 20.457q13.886 7.699 33.78 7.699 27.04 0 42.233-16.512t18.635-43.517h57.054a136.365 136.365 0 0 1-11.631 45.423 108.941 108.941 0 0 1-24.774 34.535 105.344 105.344 0 0 1-36.034 21.765 131.905 131.905 0 0 1-45.423 7.506q-30.77 0-55.364-10.696a118.402 118.402 0 0 1-41.479-29.463 130.394 130.394 0 0 1-25.9-44.104 162.135 162.135 0 0 1-9.006-54.609 167.759 167.759 0 0 1 9.005-55.747 133.931 133.931 0 0 1 25.901-44.848 118.438 118.438 0 0 1 41.479-30.038q24.582-10.876 55.364-10.876a134.915 134.915 0 0 1 41.85 6.38 113.378 113.378 0 0 1 35.29 18.574 100.403 100.403 0 0 1 25.71 30.218 108.15 108.15 0 0 1 12.758 41.286h-57.067a47.965 47.965 0 0 0-6.75-18.575zm227.092-71.504q25.182 0 42.785 7.315t28.78 19.33a74.478 74.478 0 0 1 16.14 27.4 102.526 102.526 0 0 1 0 63.626 74.19 74.19 0 0 1-16.14 27.58q-11.08 11.991-28.78 19.33t-42.785 7.315h-61.935v96.098h-58.938V329.186zM722.838 455.3a122.54 122.54 0 0 0 19.51-1.499 45.363 45.363 0 0 0 16.524-5.816 31.849 31.849 0 0 0 11.451-12.195q4.305-7.89 4.305-20.649t-4.305-20.65a31.849 31.849 0 0 0-11.451-12.17 45.363 45.363 0 0 0-16.524-5.816 123.954 123.954 0 0 0-19.51-1.499h-45.795v80.342z" fill="#1296db"/></svg>