<svg viewBox="0 0 1024 1024" xmlns="http://www.w3.org/2000/svg" width="200" height="200"><path d="M512.301 563.08 349.064 448.813 182.212 601.148v165.045H842.39V525.01L729.93 410.744 512.301 563.08zM893.17 106.014H131.373c-56.079 0-101.557 45.478-101.557 101.617v609.4c0 56.14 45.478 101.617 101.557 101.617H893.17c56.14 0 101.617-45.477 101.617-101.616v-609.4c0-56.14-45.478-101.618-101.617-101.618zm50.839 660.24c0 56.078-45.538 101.616-101.617 101.616H182.15A101.617 101.617 0 0 1 80.596 766.253V258.35c0-56.079 45.477-101.557 101.557-101.557H842.39c56.079 0 101.617 45.478 101.617 101.557v507.904zm-689.634-355.51c39.875 0 72.222-34.153 72.222-76.197s-32.347-76.198-72.222-76.198-72.222 34.093-72.222 76.198 32.346 76.197 72.222 76.197z" fill="#019BDB"/></svg>