<svg viewBox="0 0 1024 1024" xmlns="http://www.w3.org/2000/svg" width="128" height="128"><path d="M231.668 1.895h561.578c126.88 0 229.736 102.858 229.736 229.735v561.58c0 126.878-102.855 229.736-229.736 229.736H231.668c-126.88 0-229.735-102.858-229.735-229.736V231.63c0-126.877 102.855-229.735 229.735-229.735z"/><path d="M798.271 751.117 692.328 611.476h54.833V273.724h102.22v337.752h54.834L798.271 751.117zM519.996 467.432c0-15.605.345-32.107 1.044-49.48l-15.56 21.73c-.196.618-.394 1.255-.592 1.85l-8.138 11.953-124.612 189.59-46.11-71.579h-.285l-32.247-50.504-46.876-72.768h.415l-9.786-15.326-.527-2.133-16.408-24.24c1.199 37.8 1.826 65.336 1.826 82.492V750.18H120.697V275.337h159.72l88.626 131.15h1.518l91.16-131.15h161.875V750.18h-103.6V467.432z" fill="#fff"/></svg>