<svg viewBox="0 0 1024 1024" xmlns="http://www.w3.org/2000/svg" width="200" height="200"><path d="M18.753 17.145h468.424l-.02 468.426H18.774V17.145h-.02zm0 0" fill="#F25022"/><path d="M534.999 17.145h468.422c0 156.141.022 312.283-.02 468.426H535.038c-.06-156.162-.039-312.285-.039-468.426zm0 0" fill="#80BA01"/><path d="M18.753 533.352c156.141.058 312.282-.019 468.424.058v468.386H18.753V533.352zm0 0" fill="#02A4EF"/><path d="M535.018 533.41c156.124-.058 312.243-.019 468.383-.019v468.422H534.999c.019-156.163-.02-312.28.019-468.403zm0 0" fill="#FFB902"/></svg>