<svg viewBox="0 0 1024 1024" xmlns="http://www.w3.org/2000/svg" width="200" height="200"><path d="M127.473 0h731.429q73.143 0 73.143 73.143v877.714q0 73.143-73.143 73.143H127.473q-73.142 0-73.142-73.143V73.143Q54.33 0 127.473 0z" fill="#3296FA"/><path d="M237.188 146.286h512q36.571 0 36.571 36.571v219.429q0 36.571-36.571 36.571h-512q-36.572 0-36.572-36.571V182.857q0-36.571 36.572-36.571zm0 415.159h438.857q36.571 0 36.571 36.571v14.629q0 36.571-36.571 36.571H237.188q-36.572 0-36.572-36.571v-14.629q0-36.571 36.572-36.571zm0 213.869h292.571a36.571 36.571 0 0 1 36.572 36.572v14.628a36.571 36.571 0 0 1-36.572 36.572H237.188a36.571 36.571 0 0 1-36.572-36.572v-14.628a36.571 36.571 0 0 1 36.572-36.572z" fill="#FFF"/></svg>