<svg viewBox="0 0 1024 1024" xmlns="http://www.w3.org/2000/svg" width="200" height="200"><path d="M512 13.653C236.77 13.653 13.653 236.77 13.653 512S236.77 1010.347 512 1010.347 1010.347 787.23 1010.347 512 787.23 13.653 512 13.653zm0 952.32c-250.723 0-453.973-203.25-453.973-453.973S261.277 58.027 512 58.027c250.72 0 453.973 203.25 453.973 453.973S762.72 965.973 512 965.973z" fill="#1296db"/><path d="M508.245 170.008h-36.84a2.901 2.901 0 0 0-2.901 2.905v306.906a2.899 2.899 0 0 0 2.901 2.901h36.84a2.899 2.899 0 0 0 2.902-2.9V172.91a2.901 2.901 0 0 0-2.902-2.902zm312.71 324.072h-349.55a2.901 2.901 0 0 0-2.901 2.901v36.84a2.902 2.902 0 0 0 2.901 2.905h349.55c1.604 0 2.904-1.3 2.904-2.905v-36.84a2.908 2.908 0 0 0-2.905-2.901zm-567 225.717v80.37h-27.76V585.151h61.078c23.228 0 41.247 5.601 54.067 16.797 12.814 11.196 19.224 27.208 19.224 48.026 0 21.101-7.496 38.195-22.487 51.289-14.991 13.096-33.73 19.271-56.218 18.534h-27.904zm0-110.217v85.788h25.679c16.933 0 29.795-3.82 38.591-11.452 8.79-7.632 13.186-18.575 13.186-32.826 0-27.669-16.38-41.506-49.139-41.506h-28.317zm139.367-17.073c0-4.81 1.642-8.861 4.929-12.145 3.283-3.287 7.332-4.929 12.144-4.929 4.905 0 9.046 1.622 12.425 4.861s5.065 7.311 5.065 12.213c0 4.813-1.69 8.817-5.065 12.008-3.38 3.195-7.52 4.789-12.425 4.789s-8.977-1.598-12.216-4.789c-3.24-3.191-4.857-7.195-4.857-12.008zm3.195 207.66V646.642h27.207v153.525h-27.207zm205.578 0h-27.068v-87.31c0-31.556-11.523-47.336-34.563-47.336-11.94 0-21.75 4.445-29.43 13.326-7.683 8.885-11.52 20.125-11.52 33.73v87.59h-27.208V646.642h27.208v25.402h.556c11.568-19.34 28.365-29.013 50.391-29.013 16.842 0 29.655 5.393 38.452 16.172 8.789 10.78 13.185 26.491 13.185 47.125v93.84zm178.647-12.909c0 56.818-27.58 85.231-82.729 85.231-19.067 0-35.628-3.564-49.698-10.69v-26.235c17.121 9.53 33.546 14.295 49.282 14.295 37.29 0 55.94-19.62 55.94-58.853v-16.244h-.556c-11.66 19.343-29.06 29.013-52.193 29.013-19.248 0-34.656-6.895-46.223-20.685-11.568-13.786-17.35-32.068-17.35-54.828 0-26.187 6.386-46.94 19.155-62.256 12.77-15.312 29.795-22.972 51.08-22.972 20.45 0 35.63 8.148 45.531 24.43h.557v-20.822h27.207v140.616zm-27.204-78.428c.088-11.844-3.888-22.023-11.94-30.536-8.049-8.513-17.954-12.773-29.703-12.773-14.807 0-26.33 5.441-34.563 16.31-8.24 10.878-12.357 25.8-12.357 44.765 0 16.289 3.98 29.478 11.94 39.564 7.957 10.087 18.507 15.132 31.645 15.132 13.234 0 24.06-4.813 32.485-14.435 8.42-9.623 12.585-21.839 12.493-36.646V708.83z" fill="#1296db"/></svg>