<svg viewBox="0 0 1055 1024" xmlns="http://www.w3.org/2000/svg" width="206.055" height="200"><path d="M0 0v1024h1055.411V0zm1002.012 973.742H53.4V53.4h948.613z" fill="#03C8FF"/><path d="M53.399 53.399h948.613v920.343H53.4z" fill="#001C25"/><path d="M409.097 263.853H257.571v483.73h81.668v-169.62h72.591A137.863 137.863 0 0 0 549.693 440.1v-35.65a140.596 140.596 0 0 0-140.596-140.596zm58.928 172.195a69.67 69.67 0 0 1-69.67 69.67h-59.116v-169.62h56.54a72.402 72.402 0 0 1 72.246 72.403zM797.84 395.78a175.902 175.902 0 0 0-75.386-18.846c-28.678 0-62.822 6.282-81.669 18.846-20.417 13.601-53.398 40.834-53.398 91.092 0 100.516 141.35 113.08 141.35 157.055 0 28.27-15.706 37.694-53.4 37.694s-78.527-28.27-78.527-28.27v84.81s47.116 18.846 87.95 18.846 122.315-18.846 125.645-100.515c6.282-153.914-141.35-109.939-141.35-175.902 0-15.706 25.129-31.411 50.258-31.411 34.552 0 78.527 21.988 78.527 21.988z" fill="#03C8FF"/></svg>