<svg viewBox="0 0 1024 1024" xmlns="http://www.w3.org/2000/svg" width="200" height="200"><path d="m327.091 521.958-29.161-48.404c-20.643-34.436-37.57-56.612-50.782-66.53-13.212-9.917-27.25-14.875-42.112-14.875h-41.287v247.934H27.504V0H251.69C403.9 0 480.003 57.85 480.003 173.554c0 43.526-12.73 80.854-38.19 111.983-25.46 31.13-60.484 53.03-105.074 65.703v1.653c29.451 9.917 62.067 42.424 97.849 97.52l5.29 8.322c-42.346 12.634-80.717 34.484-112.787 63.223zM163.75 103.719v184.298h66.884c31.929 0 57.595-9.298 77-27.893 19.404-18.595 29.106-41.804 29.106-69.628 0-57.852-34.542-86.777-103.629-86.777h-69.36zm507.168 855.01c-41.725 28.163-92.012 44.607-146.14 44.607-144.442 0-261.536-117.094-261.536-261.536s117.094-261.536 261.536-261.536S786.312 597.358 786.312 741.8c0 60.103-20.274 115.471-54.356 159.638l51.133 51.133c16.343 16.343 16.35 42.833.01 59.174-16.339 16.338-42.821 16.345-59.175-.009l-53.007-53.008zm131.55-318.646h194.029v-111.57H754.145v-154.96H965.53V262.398H754.145V111.57h227.488V0H617.9v460.532c85.551 28.499 153.745 95.026 184.567 179.55zm-277.69 305.134c112.344 0 203.416-91.073 203.416-203.417 0-112.344-91.072-203.417-203.416-203.417S321.36 629.456 321.36 741.8c0 112.344 91.073 203.417 203.417 203.417z" fill="#13227a"/></svg>