<svg viewBox="0 0 1024 1024" xmlns="http://www.w3.org/2000/svg" width="200" height="200"><path d="M512 0C380.343 0 63.634 150.309 63.634 448c0 397.97 251.612 457.801 251.612 457.801H117.76S0 818.03 0 767.927V1024h433.006V905.801A740.279 740.279 0 0 1 256 448c0-266.167 141.897-384 256-384m0-64c131.657 0 447.634 150.309 447.634 448 0 397.97-250.88 457.801-250.88 457.801H905.51S1024 818.03 1024 767.927V1024H590.994V905.801A740.279 740.279 0 0 0 768 448c0-266.167-141.897-384-256-384" fill="#efb336"/></svg>