<svg viewBox="0 0 1263 1024" xmlns="http://www.w3.org/2000/svg" width="157.875" height="128"><path d="M0 0h1263.66v827.915H0V0z" fill="#38454F"/><path d="M304.193 348.596h-63.706a22.615 22.615 0 0 1-22.615-22.615v-63.706c0-12.484 10.131-22.615 22.615-22.615h63.706c12.484 0 22.616 10.13 22.616 22.615v63.706c0 12.484-10.132 22.615-22.616 22.615" fill="#61B972"/><path d="M543.853 348.596h-63.706a22.615 22.615 0 0 1-22.615-22.615v-63.706c0-12.484 10.131-22.615 22.615-22.615h63.706c12.484 0 22.615 10.13 22.615 22.615v63.706c0 12.484-10.131 22.615-22.615 22.615" fill="#48A0DC"/><path d="M783.513 348.596h-63.706a22.615 22.615 0 0 1-22.616-22.615v-63.706c0-12.484 10.132-22.615 22.616-22.615h63.706c12.484 0 22.615 10.13 22.615 22.615v63.706c0 12.484-10.131 22.615-22.615 22.615" fill="#ECBA16"/><path d="M1023.172 348.596h-63.706a22.615 22.615 0 0 1-22.615-22.615v-63.706c0-12.484 10.131-22.615 22.615-22.615h63.706c12.484 0 22.615 10.13 22.615 22.615v63.706c0 12.484-10.13 22.615-22.615 22.615" fill="#BF4D90"/><path d="M304.193 588.255h-63.706a22.615 22.615 0 0 1-22.615-22.615v-63.706c0-12.484 10.131-22.615 22.615-22.615h63.706c12.484 0 22.616 10.131 22.616 22.615v63.706c0 12.484-10.132 22.615-22.616 22.615" fill="#DD342E"/><path d="M543.853 588.255h-63.706a22.615 22.615 0 0 1-22.615-22.615v-63.706c0-12.484 10.131-22.615 22.615-22.615h63.706c12.484 0 22.615 10.131 22.615 22.615v63.706c0 12.484-10.131 22.615-22.615 22.615" fill="#A4E869"/><path d="M783.513 588.255h-63.706a22.615 22.615 0 0 1-22.616-22.615v-63.706c0-12.484 10.132-22.615 22.616-22.615h63.706c12.484 0 22.615 10.131 22.615 22.615v63.706c0 12.484-10.131 22.615-22.615 22.615" fill="#50508A"/><path d="M1023.172 588.255h-63.706a22.615 22.615 0 0 1-22.615-22.615v-63.706c0-12.484 10.131-22.615 22.615-22.615h63.706c12.484 0 22.615 10.131 22.615 22.615v63.706c0 12.484-10.13 22.615-22.615 22.615" fill="#BE7C6D"/><path d="M653.617 958.638V827.915h-43.574v130.723H326.809V1024H936.85v-65.362H653.617" fill="#B0B6BB"/></svg>