<svg viewBox="0 0 1024 1024" xmlns="http://www.w3.org/2000/svg" width="200" height="200"><path d="M928.32 160.96 743.808 72.128a55.744 55.744 0 0 0-63.648 10.816L76.16 633.6a37.312 37.312 0 0 0-2.56 52.704c.8.864 1.6 1.696 2.464 2.464l49.312 44.8a37.28 37.28 0 0 0 47.648 2.112L900.544 184A37.056 37.056 0 0 1 960 213.504v-2.144a55.936 55.936 0 0 0-31.68-50.4z" fill="#0065A9"/><path d="m928.32 863.04-184.512 88.864a55.84 55.84 0 0 1-63.648-10.816L76.16 390.4a37.312 37.312 0 0 1-2.56-52.704c.8-.864 1.6-1.696 2.464-2.464l49.312-44.8a37.28 37.28 0 0 1 47.744-2.112L900.544 840A37.056 37.056 0 0 0 960 810.496v2.304a55.968 55.968 0 0 1-31.68 50.24z" fill="#007ACC"/><path d="M743.808 951.904a55.84 55.84 0 0 1-63.648-10.816 32.8 32.8 0 0 0 55.84-23.2V106.112a32.768 32.768 0 0 0-55.968-23.168 55.808 55.808 0 0 1 63.648-10.848L928.16 160.8A55.936 55.936 0 0 1 960 211.2v601.6a55.936 55.936 0 0 1-31.712 50.432z" fill="#1F9CF0"/></svg>