<svg viewBox="0 0 1024 1024" xmlns="http://www.w3.org/2000/svg" width="200" height="200"><path d="M143.73 493.357h349.115V31.927c0-21.297-24.269-44.484-41.512-23.968l-298.07 423.933c-20.776 33.266-27.692 61.465-9.532 61.465z" fill="#33D413"/><path d="M530.275 144.216v349.141h461.43c21.311 0 44.498-24.254 23.968-41.51L591.754 153.734c-33.266-20.777-61.48-27.68-61.48-9.519z" fill="#FFCB30"/><path d="M879.128 530.637H529.973v461.43c0 21.297 24.269 44.498 41.512 23.968l298.111-423.933c20.79-33.266 27.693-61.465 9.532-61.465z" fill="#FF1843"/><path d="M493.708 881.517V532.362H32.276c-21.296 0-44.483 24.269-23.967 41.512l423.933 298.111c33.212 20.79 61.466 27.693 61.466 9.532z" fill="#18ABFF"/></svg>