<svg viewBox="0 0 1024 1024" xmlns="http://www.w3.org/2000/svg" width="200" height="200"><path d="M102.472 0h819.2a102.4 102.4 0 0 1 102.4 102.4v819.2a102.4 102.4 0 0 1-102.4 102.4h-819.2A102.4 102.4 0 0 1 .072 921.6V102.4A102.4 102.4 0 0 1 102.472 0z" fill="#77C8F2"/><path d="M189.512 409.6h542.72a148.48 148.48 0 0 1 148.48 148.48v10.24a148.48 148.48 0 0 1-148.48 148.48h-542.72a148.48 148.48 0 0 1-148.48-148.48v-10.24a148.48 148.48 0 0 1 148.48-148.48z" fill="#FFF"/><path d="M573.44 501.76a204.8 204.8 0 1 0 409.6 0 204.8 204.8 0 1 0-409.6 0z" fill="#FFF"/><path d="M153.6 358.4a256 256 0 1 0 512 0 256 256 0 1 0-512 0z" fill="#F9C424"/><path d="M409.672 140.8a217.6 217.6 0 1 1-217.6 217.6 217.6 217.6 0 0 1 217.6-217.6z" fill="#F8E156"/><path d="M225.618 832.102a29.256 29.256 0 0 0 39.106-14.336c7.005-14.93-4.208-60.016-4.208-60.016s-41.626 19.67-48.63 34.6a29.932 29.932 0 0 0 13.732 39.752zm46.735 92.724a29.276 29.276 0 0 0 39.117-14.336c7.004-14.93-4.219-60.017-4.219-60.017s-41.615 19.671-48.63 34.6a29.942 29.942 0 0 0 13.732 39.753zm74.752-92.724a29.256 29.256 0 0 0 39.107-14.336c7.004-14.93-4.219-60.016-4.219-60.016s-41.615 19.67-48.62 34.6a29.932 29.932 0 0 0 13.773 39.752zm121.518 0a29.276 29.276 0 0 0 39.117-14.336c7.004-14.93-4.219-60.016-4.219-60.016s-41.615 19.67-48.63 34.6a29.942 29.942 0 0 0 13.784 39.752zm121.529 0a29.256 29.256 0 0 0 39.106-14.336c7.015-14.93-4.208-60.016-4.208-60.016s-41.626 19.67-48.63 34.6a29.942 29.942 0 0 0 13.773 39.752zm-196.23 92.724a29.256 29.256 0 0 0 39.107-14.336c7.015-14.93-4.209-60.017-4.209-60.017s-41.625 19.671-48.63 34.6a29.942 29.942 0 0 0 13.733 39.753zm121.529 0a29.256 29.256 0 0 0 39.106-14.336c7.005-14.93-4.208-60.017-4.208-60.017s-41.626 19.671-48.63 34.6a29.932 29.932 0 0 0 13.69 39.753zm196.31-92.724a29.256 29.256 0 0 0 39.107-14.336c7.005-14.93-4.218-60.016-4.218-60.016s-41.616 19.67-48.62 34.6a29.932 29.932 0 0 0 13.691 39.752zm-74.751 92.724a29.276 29.276 0 0 0 39.117-14.336c7.004-14.93-4.22-60.017-4.22-60.017s-41.615 19.671-48.619 34.6a29.932 29.932 0 0 0 13.64 39.753z" fill="#FFF"/></svg>