<svg class="Qr-item-svg" viewBox="-6.6 -6.6 46.2 46.2" fill="#fff" xmlns="http://www.w3.org/2000/svg"><circle r=".39" fill="#0693e3" cx="8.5" cy=".5"/><circle cx="17" cy=".5" r=".509" fill="#FFF" stroke="#0693e3" stroke-width=".393"/><circle cx="19" cy=".5" r=".497" fill="#FFF" stroke="#0693e3" stroke-width=".364"/><circle cx="22" cy=".5" r=".524" fill="#FFF" stroke="#0693e3" stroke-width=".392"/><circle cx="24" cy=".5" r=".493" fill="#FFF" stroke="#0693e3" stroke-width=".362"/><circle fill="#FFF" cx="11" cy="1.5" r=".509" stroke="#0693e3" stroke-width=".364"/><circle fill="#FFF" cx="15" cy="2.5" r=".497" stroke="#0693e3" stroke-width=".376"/><circle cx="3.5" cy="3.5" r="1.5" fill="#0693e3"/><circle cx="3.5" cy="3.5" r="3" fill="none" stroke="#0693e3"/><circle cx="11" cy="3.5" r=".504" fill="#FFF" stroke="#0693e3" stroke-width=".382"/><circle cx="13.5" cy="4" r=".502" fill="#FFF" stroke-width=".373" stroke="#0693e3"/><circle cx="21" cy="3.5" r=".522" fill="#FFF" stroke="#0693e3" stroke-width=".392"/><circle r="1.5" fill="#0693e3" cx="29.5" cy="3.5"/><circle cx="29.5" cy="3.5" r="3" fill="none" stroke="#0693e3"/><circle cx="8.5" cy="5" r=".501" fill="#FFF" stroke="#0693e3" stroke-width=".386"/><circle cx="11.5" cy="4.5" r=".37" fill="#0693e3"/><circle cx="18.5" cy="4.5" r=".427" fill="#0693e3"/><circle cx="13.5" cy="5.5" r=".346" fill="#0693e3"/><circle cx="17.5" cy="5.5" r=".404" fill="#0693e3"/><circle cx="19.5" cy="5.5" r=".373" fill="#0693e3"/><circle cx="21.5" cy="5.5" r=".285" fill="#0693e3"/><circle cx="24" cy="5.5" r=".499" fill="#FFF" stroke="#0693e3" stroke-width=".385"/><circle cx="8.5" cy="6.5" r=".366" fill="#0693e3"/><circle cx="12.5" cy="7" r=".514" fill="#FFF" stroke="#0693e3" stroke-width=".367"/><circle cx="14.5" cy="6.5" r=".308" fill="#0693e3"/><circle r=".319" fill="#0693e3" cx="16.5" cy="6.5"/><circle r=".421" fill="#0693e3" cx="18.5" cy="6.5"/><circle cx="20.5" cy="7" r=".515" fill="#FFF" stroke="#0693e3" stroke-width=".381"/><circle r=".354" fill="#0693e3" cx="22.5" cy="6.5"/><circle cx="24.5" cy="7" r=".512" fill="#FFF" stroke="#0693e3" stroke-width=".397"/><circle cx="15.5" cy="8" r=".52" fill="#FFF" stroke="#0693e3" stroke-width=".364"/><circle r=".492" fill="#FFF" cx="5" cy="8.5" stroke="#0693e3" stroke-width=".375"/><circle cx="7" cy="8.5" r=".484" fill="#FFF" stroke="#0693e3" stroke-width=".366"/><circle cx="9.5" cy="9" r=".48" fill="#FFF" stroke="#0693e3" stroke-width=".386"/><circle cx="11.5" cy="8.5" r=".263" fill="#0693e3"/><circle r=".495" fill="#FFF" cx="17.5" cy="9" stroke="#0693e3" stroke-width=".361"/><circle r=".485" fill="#FFF" cx="27.5" cy="9" stroke="#0693e3" stroke-width=".365"/><circle cx="29" cy="8.5" r=".483" fill="#FFF" stroke="#0693e3" stroke-width=".363"/><circle cx="30.5" cy="9" r=".477" fill="#FFF" stroke="#0693e3" stroke-width=".38"/><circle r=".444" fill="#0693e3" cx="32.5" cy="8.5"/><circle cx="9" cy="9.5" r=".521" fill="#FFF" stroke="#0693e3" stroke-width=".374"/><circle r=".484" fill="#FFF" cx="22.5" cy="10" stroke="#0693e3" stroke-width=".374"/><circle cx="24" cy="9.5" r=".499" fill="#FFF" stroke="#0693e3" stroke-width=".377"/><circle cx="6" cy="10.5" r=".518" fill="#FFF" stroke="#0693e3" stroke-width=".37"/><circle cx="17.5" cy="11" r=".494" fill="#FFF" stroke="#0693e3" stroke-width=".371"/><circle r=".477" fill="#FFF" cx="20.5" cy="11" stroke="#0693e3" stroke-width=".361"/><circle r=".499" fill="#FFF" cx="4.5" cy="12" stroke="#0693e3" stroke-width=".377"/><circle r=".451" fill="#0693e3" cx="7.5" cy="11.5"/><circle cx="9.5" cy="12" r=".483" fill="#FFF" stroke="#0693e3" stroke-width=".389"/><circle r=".517" fill="#FFF" cx="15.5" cy="12" stroke="#0693e3" stroke-width=".363"/><circle r=".494" fill="#FFF" cx="23" cy="11.5" stroke="#0693e3" stroke-width=".373"/><circle cx="31.5" cy="11.5" r=".368" fill="#0693e3"/><circle cx="4" cy="12.5" r=".516" fill="#FFF" stroke="#0693e3" stroke-width=".369"/><circle cx="5.5" cy="13" r=".494" fill="#FFF" stroke="#0693e3" stroke-width=".39"/><circle cx="6.5" cy="12.5" r=".29" fill="#0693e3"/><circle cx="15" cy="12.5" r=".484" fill="#FFF" stroke="#0693e3" stroke-width=".361"/><circle r=".474" fill="#0693e3" cx="28.5" cy="12.5"/><circle cx="8.5" cy="13.5" r=".385" fill="#0693e3"/><circle r=".509" fill="#FFF" cx="13.5" cy="14" stroke="#0693e3" stroke-width=".392"/><circle cx="20" cy="13.5" r=".483" fill="#FFF" stroke="#0693e3" stroke-width=".38"/><circle r=".437" fill="#0693e3" cx="22.5" cy="13.5"/><circle cx="24.5" cy="13.5" r=".359" fill="#0693e3"/><circle r=".492" fill="#FFF" cx="29.5" cy="14" stroke="#0693e3" stroke-width=".382"/><circle r=".362" fill="#0693e3" cx="30.5" cy="13.5"/><circle r=".502" fill="#FFF" cx="32.5" cy="14" stroke="#0693e3" stroke-width=".371"/><circle cx="3.5" cy="15" r=".496" fill="#FFF" stroke="#0693e3" stroke-width=".392"/><circle cx="5.5" cy="15" r=".494" fill="#FFF" stroke="#0693e3" stroke-width=".377"/><circle cx="9.5" cy="14.5" r=".395" fill="#0693e3"/><circle cx="14.5" cy="14.5" r=".449" fill="#0693e3"/><circle r=".486" fill="#FFF" cx="26.5" cy="15" stroke="#0693e3" stroke-width=".384"/><circle cx="1.5" cy="16" r=".497" fill="#FFF" stroke="#0693e3" stroke-width=".373"/><circle cx="5" cy="15.5" r=".482" fill="#FFF" stroke="#0693e3" stroke-width=".376"/><circle cx="8.5" cy="16" r=".494" fill="#FFF" stroke="#0693e3" stroke-width=".379"/><circle cx="13.5" cy="16" r=".495" fill="#FFF" stroke="#0693e3" stroke-width=".378"/><circle cx="18.5" cy="16" r=".517" fill="#FFF" stroke="#0693e3" stroke-width=".378"/><circle cx="20.5" cy="16" r=".512" fill="#FFF" stroke="#0693e3" stroke-width=".362"/><circle cx="22.5" cy="16" r=".487" fill="#FFF" stroke="#0693e3" stroke-width=".395"/><circle r=".512" fill="#FFF" cx="24" cy="15.5" stroke="#0693e3" stroke-width=".399"/><circle cx="28" cy="15.5" r=".489" fill="#FFF" stroke="#0693e3" stroke-width=".362"/><circle cx="29.5" cy="16" r=".509" fill="#FFF" stroke="#0693e3" stroke-width=".363"/><circle cx="5.5" cy="17" r=".478" fill="#FFF" stroke="#0693e3" stroke-width=".385"/><circle cx="16" cy="16.5" r=".494" fill="#FFF" stroke="#0693e3" stroke-width=".381"/><circle cx="24.5" cy="16.5" r=".455" fill="#0693e3"/><circle r=".523" fill="#FFF" cx="32" cy="16.5" stroke="#0693e3" stroke-width=".363"/><circle cx=".5" cy="18" r=".494" fill="#FFF" stroke="#0693e3" stroke-width=".383"/><circle cx="2" cy="17.5" r=".492" fill="#FFF" stroke="#0693e3" stroke-width=".395"/><circle r=".51" fill="#FFF" cx="4.5" cy="18" stroke="#0693e3" stroke-width=".372"/><circle cx="14.5" cy="17.5" r=".365" fill="#0693e3"/><circle cx="17.5" cy="18" r=".482" fill="#FFF" stroke="#0693e3" stroke-width=".388"/><circle cx="19" cy="17.5" r=".508" fill="#FFF" stroke="#0693e3" stroke-width=".371"/><circle r=".421" fill="#0693e3" cx="29.5" cy="17.5"/><circle cx="32.5" cy="18" r=".494" fill="#FFF" stroke="#0693e3" stroke-width=".385"/><circle cx="2.5" cy="18.5" r=".287" fill="#0693e3"/><circle cx="6.5" cy="18.5" r=".459" fill="#0693e3"/><circle r=".498" fill="#FFF" stroke="#0693e3" stroke-width=".377" cx="10" cy="18.5"/><circle cx="12.5" cy="19" r=".498" fill="#FFF" stroke="#0693e3" stroke-width=".382"/><circle r=".479" fill="#FFF" cx="19.5" cy="19" stroke="#0693e3" stroke-width=".378"/><circle cx="26.5" cy="18.5" r=".317" fill="#0693e3"/><circle cx="28.5" cy="19" r=".497" fill="#FFF" stroke="#0693e3" stroke-width=".377"/><circle cx=".5" cy="19.5" r=".317" fill="#0693e3"/><circle r=".513" fill="#FFF" cx="3.5" cy="20" stroke="#0693e3" stroke-width=".381"/><circle cx="11.5" cy="20" r=".503" fill="#FFF" stroke="#0693e3" stroke-width=".373"/><circle r=".501" fill="#FFF" cx="15.5" cy="20" stroke="#0693e3" stroke-width=".371"/><circle cx="27.5" cy="20" r=".51" fill="#FFF" stroke="#0693e3" stroke-width=".362"/><circle cx="2" cy="20.5" r=".493" fill="#FFF" stroke="#0693e3" stroke-width=".371"/><circle cx="5.5" cy="21" r=".485" fill="#FFF" stroke="#0693e3" stroke-width=".386"/><circle r=".491" fill="#FFF" cx="18" cy="20.5" stroke="#0693e3" stroke-width=".386"/><circle cx="20.5" cy="21" r=".501" fill="#FFF" stroke="#0693e3" stroke-width=".382"/><circle cx="22.5" cy="21" r=".484" fill="#FFF" stroke="#0693e3" stroke-width=".387"/><circle r=".511" fill="#FFF" cx="3.5" cy="22" stroke="#0693e3" stroke-width=".387"/><circle r=".507" fill="#FFF" stroke="#0693e3" stroke-width=".377" cx="13.5" cy="22"/><circle r=".488" fill="#FFF" stroke="#0693e3" stroke-width=".39" cx="15" cy="21.5"/><circle cx="16.5" cy="22" r=".508" fill="#FFF" stroke="#0693e3" stroke-width=".385"/><circle cx="22" cy="21.5" r=".516" fill="#FFF" stroke="#0693e3" stroke-width=".363"/><circle cx="27.5" cy="22" r=".494" fill="#FFF" stroke="#0693e3" stroke-width=".387"/><circle cx="31" cy="21.5" r=".523" fill="#FFF" stroke="#0693e3" stroke-width=".362"/><circle cx="1.5" cy="22.5" r=".311" fill="#0693e3"/><circle cx="11.5" cy="22.5" r=".421" fill="#0693e3"/><circle cx="18.5" cy="22.5" r=".349" fill="#0693e3"/><circle r=".501" fill="#FFF" cx="20.5" cy="23" stroke="#0693e3" stroke-width=".384"/><circle cx="29.5" cy="22.5" r=".301" fill="#0693e3"/><circle cx="31.5" cy="22.5" r=".464" fill="#0693e3"/><circle cx="3.5" cy="24" r=".503" fill="#FFF" stroke="#0693e3" stroke-width=".395"/><circle r=".44" fill="#0693e3" cx="7.5" cy="23.5"/><circle r=".502" fill="#FFF" cx="13.5" cy="24" stroke="#0693e3" stroke-width=".39"/><circle r=".354" fill="#0693e3" cx="15.5" cy="23.5"/><circle r=".488" fill="#FFF" cx="20" cy="23.5" stroke="#0693e3" stroke-width=".377"/><circle r=".523" fill="#FFF" stroke="#0693e3" stroke-width=".362" cx="21.5" cy="24"/><circle r=".518" fill="#FFF" cx="26.5" cy="24" stroke="#0693e3" stroke-width=".378"/><circle cx="32.5" cy="24" r=".5" fill="#FFF" stroke="#0693e3" stroke-width=".376"/><circle r=".297" fill="#0693e3" cx="1.5" cy="24.5"/><circle cx="4.5" cy="24.5" r=".494" fill="#0693e3"/><circle cx="6.5" cy="24.5" r=".313" fill="#0693e3"/><circle cx="8.5" cy="24.5" r=".323" fill="#0693e3"/><circle cx="11.5" cy="25" r=".515" fill="#FFF" stroke="#0693e3" stroke-width=".363"/><circle r=".519" fill="#FFF" cx="16.5" cy="25" stroke="#0693e3" stroke-width=".396"/><circle r=".349" fill="#0693e3" cx="18.5" cy="24.5"/><circle cx="26" cy="24.5" r=".511" fill="#FFF" stroke="#0693e3" stroke-width=".386"/><circle cx="28" cy="24.5" r=".489" fill="#FFF" stroke="#0693e3" stroke-width=".37"/><circle r=".479" fill="#FFF" cx="30.5" cy="25" stroke="#0693e3" stroke-width=".392"/><circle r=".496" fill="#FFF" stroke="#0693e3" stroke-width=".379" cx="32" cy="24.5"/><circle r=".435" fill="#0693e3" cx="17.5" cy="25.5"/><circle r=".475" fill="#0693e3" cx="20.5" cy="25.5"/><circle r=".506" fill="#FFF" stroke="#0693e3" stroke-width=".368" cx="28.5" cy="26"/><circle r=".491" fill="#FFF" cx="30" cy="25.5" stroke="#0693e3" stroke-width=".372"/><circle cx="32.5" cy="26" r=".491" fill="#FFF" stroke="#0693e3" stroke-width=".362"/><circle cx="11.5" cy="26.5" r=".328" fill="#0693e3"/><circle cx="24.5" cy="27" r=".48" fill="#FFF" stroke="#0693e3" stroke-width=".377"/><circle r=".3" fill="#0693e3" cx="26.5" cy="26.5"/><circle r=".491" fill="#0693e3" cx="12.5" cy="27.5"/><circle r=".525" fill="#FFF" cx="16.5" cy="28" stroke="#0693e3" stroke-width=".367"/><circle r=".499" fill="#0693e3" cx="30.5" cy="27.5"/><circle cx="32.5" cy="27.5" r=".317" fill="#0693e3"/><circle cx="8.5" cy="29" r=".496" fill="#FFF" stroke="#0693e3" stroke-width=".378"/><circle fill="#FFF" cx="11.5" cy="29" r=".521" stroke="#0693e3" stroke-width=".362"/><circle fill="#FFF" stroke-width=".383" stroke="#0693e3" cx="26" cy="28.5" r=".491"/><circle cx="31.5" cy="29" r=".52" fill="#FFF" stroke="#0693e3" stroke-width=".387"/><circle cx="3.5" cy="29.5" r="1.5" fill="#0693e3"/><circle cx="3.5" cy="29.5" r="3" fill="none" stroke="#0693e3"/><circle cx="14.5" cy="30" r=".505" fill="#FFF" stroke="#0693e3" stroke-width=".36"/><circle r=".512" fill="#FFF" cx="17" cy="29.5" stroke="#0693e3" stroke-width=".374"/><circle cx="15.5" cy="30.5" r=".273" fill="#0693e3"/><circle r=".478" fill="#FFF" cx="32" cy="30.5" stroke="#0693e3" stroke-width=".39"/><circle r=".437" fill="#0693e3" cx="10.5" cy="31.5"/><circle r=".492" fill="#FFF" cx="13" cy="31.5" stroke="#0693e3" stroke-width=".364"/><circle r=".324" fill="#0693e3" cx="14.5" cy="31.5"/><circle r=".415" fill="#0693e3" cx="22.5" cy="31.5"/><circle cx="32.5" cy="31.5" r=".385" fill="#0693e3"/><circle r=".348" fill="#0693e3" cx="16.5" cy="32.5"/><circle r=".357" fill="#0693e3" cx="24.5" cy="32.5"/><circle cx="29" cy="32.5" r=".477" fill="#FFF" stroke="#0693e3" stroke-width=".381"/><circle cx="12.5" cy="1.5" r="1" fill="#FFF" stroke="#0693e3" stroke-width=".482"/><circle r=".477" fill="#0693e3" cx="12.5" cy="1.5"/><circle fill="#FFF" stroke-width=".516" stroke="#0693e3" cx="13" cy="2" r=".707"/><circle fill="#FFF" cx="9" cy="3" r=".707" stroke="#0693e3" stroke-width=".411"/><circle r="1" fill="#FFF" cx="17.5" cy="3.5" stroke="#0693e3" stroke-width=".406"/><circle r="1" fill="#FFF" cx="22.5" cy="3.5" stroke="#0693e3" stroke-width=".389"/><circle cx="22.5" cy="3.5" r=".256" fill="#0693e3"/><circle cx="16" cy="4" r=".707" fill="#FFF" stroke="#0693e3" stroke-width=".535"/><circle r=".707" fill="#FFF" cx="22" cy="4" stroke="#0693e3" stroke-width=".465"/><circle r="1" fill="#FFF" cx="10.5" cy="7.5" stroke="#0693e3" stroke-width=".492"/><circle cx="3" cy="9" r=".707" fill="#FFF" stroke="#0693e3" stroke-width=".518"/><circle r="1" fill="#FFF" cx="13.5" cy="9.5" stroke="#0693e3" stroke-width=".526"/><circle cx="13.5" cy="9.5" r=".374" fill="#0693e3"/><circle cx="14" cy="9" r=".707" fill="#FFF" stroke="#0693e3" stroke-width=".517"/><circle r="1" fill="#FFF" cx="18.5" cy="9.5" stroke="#0693e3" stroke-width=".566"/><circle r=".707" fill="#FFF" cx="21" cy="9" stroke="#0693e3" stroke-width=".407"/><circle cx="25.5" cy="9.5" r="1" fill="#FFF" stroke="#0693e3" stroke-width=".531"/><circle cx="25.5" cy="9.5" r=".272" fill="#0693e3"/><circle cx="1" cy="10" r=".707" fill="#FFF" stroke="#0693e3" stroke-width=".399"/><circle cx="25" cy="10" r=".707" fill="#FFF" stroke="#0693e3" stroke-width=".54"/><circle cx="30.5" cy="10.5" r="1" fill="#FFF" stroke="#0693e3" stroke-width=".494"/><circle cx="1" cy="11" r=".707" fill="#FFF" stroke="#0693e3" stroke-width=".501"/><circle r=".707" fill="#FFF" cx="25" cy="11" stroke="#0693e3" stroke-width=".472"/><circle cx="12" cy="12" r=".707" fill="#FFF" stroke="#0693e3" stroke-width=".425"/><circle cx="17.5" cy="12.5" r="1" fill="#FFF" stroke="#0693e3" stroke-width=".377"/><circle cx="17.5" cy="12.5" r=".267" fill="#0693e3"/><circle cx="21" cy="12" r=".707" fill="#FFF" stroke="#0693e3" stroke-width=".564"/><circle cx="24" cy="12" r=".707" fill="#FFF" stroke="#0693e3" stroke-width=".353"/><circle cx="1.5" cy="13.5" r="1" fill="#FFF" stroke="#0693e3" stroke-width=".585"/><circle cx="1.5" cy="13.5" r=".385" fill="#0693e3"/><circle cx="17" cy="13" r=".707" fill="#FFF" stroke="#0693e3" stroke-width=".441"/><circle cx="21" cy="13" r=".707" fill="#FFF" stroke="#0693e3" stroke-width=".54"/><circle r=".707" fill="#FFF" cx="27" cy="13" stroke="#0693e3" stroke-width=".595"/><circle cx="1" cy="14" r=".707" fill="#FFF" stroke="#0693e3" stroke-width=".342"/><circle cx="17" cy="14" r=".707" fill="#FFF" stroke="#0693e3" stroke-width=".537"/><circle cx="6.5" cy="15.5" r="1" fill="#FFF" stroke="#0693e3" stroke-width=".479"/><circle cx="11.5" cy="15.5" r="1" fill="#FFF" stroke="#0693e3" stroke-width=".418"/><circle r="1" fill="#FFF" cx="2.5" cy="16.5" stroke="#0693e3" stroke-width=".432"/><circle cx="21.5" cy="16.5" r="1" fill="#FFF" stroke="#0693e3" stroke-width=".43"/><circle cx="22" cy="18" r=".707" fill="#FFF" stroke="#0693e3" stroke-width=".412"/><circle r="1" fill="#FFF" cx="15.5" cy="19.5" stroke="#0693e3" stroke-width=".39"/><circle cx="15.5" cy="19.5" r=".314" fill="#0693e3"/><circle r="1" fill="#FFF" cx="31.5" cy="19.5" stroke="#0693e3" stroke-width=".419"/><circle cx="31.5" cy="19.5" r=".325" fill="#0693e3"/><circle r=".707" fill="#FFF" stroke="#0693e3" stroke-width=".462" cx="31" cy="19"/><circle cx="32" cy="19" r=".707" fill="#FFF" stroke="#0693e3" stroke-width=".378"/><circle cx="12.5" cy="20.5" r="1" fill="#FFF" stroke="#0693e3" stroke-width=".534"/><circle cx="28.5" cy="20.5" r="1" fill="#FFF" stroke="#0693e3" stroke-width=".41"/><circle r="1" fill="#FFF" cx="6.5" cy="21.5" stroke="#0693e3" stroke-width=".492"/><circle fill="#FFF" cx="9.5" cy="21.5" r="1" stroke="#0693e3" stroke-width=".403"/><circle fill="#0693e3" cx="9.5" cy="21.5" r=".421"/><circle r=".707" fill="#FFF" cx="10" cy="21" stroke="#0693e3" stroke-width=".579"/><circle cx="11" cy="21" r=".707" fill="#FFF" stroke="#0693e3" stroke-width=".539"/><circle cx="25.5" cy="21.5" r="1" fill="#FFF" stroke="#0693e3" stroke-width=".492"/><circle cx="25.5" cy="21.5" r=".364" fill="#0693e3"/><circle r=".707" fill="#FFF" cx="8" cy="22" stroke="#0693e3" stroke-width=".398"/><circle cx="9" cy="22" r=".707" fill="#FFF" stroke="#0693e3" stroke-width=".349"/><circle cx="24" cy="22" r=".707" fill="#FFF" stroke="#0693e3" stroke-width=".44"/><circle r=".707" fill="#FFF" cx="25" cy="22" stroke="#0693e3" stroke-width=".446"/><circle cx="24" cy="25" r=".707" fill="#FFF" stroke="#0693e3" stroke-width=".515"/><circle r=".707" fill="#FFF" cx="14" cy="26" stroke="#0693e3" stroke-width=".538"/><circle cx="15" cy="26" r=".707" fill="#FFF" stroke="#0693e3" stroke-width=".485"/><circle cx="9" cy="27" r=".707" fill="#FFF" stroke="#0693e3" stroke-width=".395"/><circle r="1" fill="#FFF" cx="17.5" cy="28.5" stroke="#0693e3" stroke-width=".435"/><circle cx="19" cy="28" r=".707" fill="#FFF" stroke="#0693e3" stroke-width=".367"/><circle cx="23.5" cy="28.5" r="1" fill="#FFF" stroke="#0693e3" stroke-width=".546"/><circle cx="28.5" cy="28.5" r="1" fill="#FFF" stroke="#0693e3" stroke-width=".578"/><circle r=".448" fill="#0693e3" cx="28.5" cy="28.5"/><circle cx="10.5" cy="29.5" r="1" fill="#FFF" stroke="#0693e3" stroke-width=".367"/><circle cx="28" cy="29" r=".707" fill="#FFF" stroke="#0693e3" stroke-width=".336"/><circle cx="9" cy="30" r=".707" fill="#FFF" stroke="#0693e3" stroke-width=".47"/><circle cx="12" cy="30" r=".707" fill="#FFF" stroke="#0693e3" stroke-width=".341"/><circle r=".707" fill="#FFF" stroke="#0693e3" stroke-width=".387" cx="20" cy="30"/><circle cx="23" cy="30" r=".707" fill="#FFF" stroke="#0693e3" stroke-width=".346"/><circle cx="28" cy="30" r=".707" fill="#FFF" stroke="#0693e3" stroke-width=".584"/><circle cx="18" cy="31" r=".707" fill="#FFF" stroke="#0693e3" stroke-width=".494"/><circle r=".707" fill="#FFF" cx="25" cy="31" stroke="#0693e3" stroke-width=".531"/><circle r=".707" fill="#FFF" cx="26" cy="31" stroke="#0693e3" stroke-width=".343"/><circle r=".434" fill="#FFF" cx="11.5" cy=".5" stroke="#0693e3" stroke-width=".151"/><circle cx="13.5" cy=".5" r=".515" fill="#FFF" stroke="#0693e3" stroke-width=".172"/><circle r=".542" fill="#FFF" stroke="#0693e3" stroke-width=".278" cx="14.5" cy="1.5"/><circle cx="12.5" cy="3.5" r=".608" fill="#FFF" stroke="#0693e3" stroke-width=".286"/><circle cx="10.5" cy="4.5" r=".517" fill="#FFF" stroke="#0693e3" stroke-width=".203"/><circle r=".547" fill="#FFF" cx="9.5" cy="5.5" stroke="#0693e3" stroke-width=".196"/><circle cx="14.5" cy="5.5" r=".637" fill="#FFF" stroke="#0693e3" stroke-width=".209"/><circle cx="16.5" cy="5.5" r=".648" fill="#FFF" stroke="#0693e3" stroke-width=".183"/><circle cx="14.5" cy="7.5" r=".471" fill="#FFF" stroke="#0693e3" stroke-width=".214"/><circle cx="16.5" cy="7.5" r=".491" fill="#FFF" stroke="#0693e3" stroke-width=".308"/><circle r=".511" fill="#FFF" cx="19.5" cy="7.5" stroke="#0693e3" stroke-width=".151"/><circle cx="16.5" cy="9.5" r=".527" fill="#FFF" stroke="#0693e3" stroke-width=".191"/><circle cx="29.5" cy="9.5" r=".49" fill="#FFF" stroke="#0693e3" stroke-width=".178"/><circle r=".532" fill="#FFF" cx="32.5" cy="9.5" stroke="#0693e3" stroke-width=".194"/><circle r=".464" fill="#FFF" cx="2.5" cy="10.5" stroke="#0693e3" stroke-width=".295"/><circle r=".564" fill="#FFF" cx="21.5" cy="10.5" stroke="#0693e3" stroke-width=".176"/><circle cx="31.5" cy="12.5" r=".649" fill="#FFF" stroke="#0693e3" stroke-width=".218"/><circle cx="28.5" cy="13.5" r=".644" fill="#FFF" stroke="#0693e3" stroke-width=".304"/><circle fill="#FFF" cx="20.5" cy="14.5" r=".432" stroke="#0693e3" stroke-width=".325"/><circle fill="#FFF" cx="24.5" cy="14.5" r=".535" stroke="#0693e3" stroke-width=".195"/><circle cx="27.5" cy="14.5" r=".611" fill="#FFF" stroke="#0693e3" stroke-width=".324"/><circle cx="11.5" cy="15.5" r=".597" fill="#FFF" stroke="#0693e3" stroke-width=".291"/><circle r=".486" fill="#FFF" cx="16.5" cy="15.5" stroke="#0693e3" stroke-width=".284"/><circle r=".468" fill="#FFF" cx="19.5" cy="15.5" stroke="#0693e3" stroke-width=".285"/><circle cx="2.5" cy="16.5" r=".435" fill="#FFF" stroke="#0693e3" stroke-width=".184"/><circle cx="7.5" cy="16.5" r=".427" fill="#FFF" stroke="#0693e3" stroke-width=".229"/><circle r=".489" fill="#FFF" cx="9.5" cy="16.5" stroke="#0693e3" stroke-width=".161"/><circle cx="14.5" cy="16.5" r=".511" fill="#FFF" stroke="#0693e3" stroke-width=".238"/><circle cx="19.5" cy="16.5" r=".624" fill="#FFF" stroke="#0693e3" stroke-width=".153"/><circle r=".614" fill="#FFF" cx="21.5" cy="16.5" stroke="#0693e3" stroke-width=".185"/><circle cx="30.5" cy="16.5" r=".543" fill="#FFF" stroke="#0693e3" stroke-width=".218"/><circle cx="10.5" cy="17.5" r=".515" fill="#FFF" stroke="#0693e3" stroke-width=".245"/><circle cx="31.5" cy="17.5" r=".621" fill="#FFF" stroke="#0693e3" stroke-width=".317"/><circle r=".504" fill="#FFF" cx="1.5" cy="18.5" stroke="#0693e3" stroke-width=".209"/><circle r=".491" fill="#FFF" cx="18.5" cy="18.5" stroke="#0693e3" stroke-width=".285"/><circle cx="24.5" cy="18.5" r=".509" fill="#FFF" stroke="#0693e3" stroke-width=".192"/><circle cx="7.5" cy="19.5" r=".586" fill="#FFF" stroke="#0693e3" stroke-width=".329"/><circle cx="13.5" cy="19.5" r=".645" fill="#FFF" stroke="#0693e3" stroke-width=".277"/><circle r=".626" fill="#FFF" cx="18.5" cy="19.5" stroke-width=".319" stroke="#0693e3"/><circle r=".58" fill="#FFF" cx="23.5" cy="19.5" stroke="#0693e3" stroke-width=".261"/><circle r=".578" fill="#FFF" stroke="#0693e3" stroke-width=".239" cx="23.5" cy="20.5"/><circle r=".598" fill="#FFF" cx="28.5" cy="20.5" stroke="#0693e3" stroke-width=".309"/><circle cx="17.5" cy="21.5" r=".504" fill="#FFF" stroke="#0693e3" stroke-width=".26"/><circle cx="19.5" cy="21.5" r=".565" fill="#FFF" stroke="#0693e3" stroke-width=".292"/><circle r=".591" fill="#FFF" cx="10.5" cy="22.5" stroke="#0693e3" stroke-width=".264"/><circle r=".476" fill="#FFF" cx="18.5" cy="23.5" stroke="#0693e3" stroke-width=".279"/><circle cx="29.5" cy="23.5" r=".562" fill="#FFF" stroke="#0693e3" stroke-width=".227"/><circle cx="10.5" cy="24.5" r=".617" fill="#FFF" stroke="#0693e3" stroke-width=".204"/><circle cx="14.5" cy="24.5" r=".512" fill="#FFF" stroke="#0693e3" stroke-width=".312"/><circle cx="15.5" cy="24.5" r=".468" fill="#FFF" stroke="#0693e3" stroke-width=".23"/><circle cx="19.5" cy="24.5" r=".449" fill="#FFF" stroke="#0693e3" stroke-width=".305"/><circle r=".547" fill="#FFF" cx="12.5" cy="25.5" stroke="#0693e3" stroke-width=".279"/><circle cx="31.5" cy="25.5" r=".542" fill="#FFF" stroke="#0693e3" stroke-width=".216"/><circle r=".456" fill="#FFF" cx="14.5" cy="27.5" stroke="#0693e3" stroke-width=".175"/><circle r=".493" fill="#FFF" stroke="#0693e3" stroke-width=".295" cx="25.5" cy="29.5"/><circle cx="26.5" cy="29.5" r=".496" fill="#FFF" stroke="#0693e3" stroke-width=".288"/><circle r=".466" fill="#FFF" cx="16.5" cy="30.5" stroke="#0693e3" stroke-width=".203"/><circle r=".566" fill="#FFF" cx="30.5" cy="30.5" stroke="#0693e3" stroke-width=".155"/><circle r=".506" fill="#FFF" cx="11.5" cy="31.5" stroke="#0693e3" stroke-width=".214"/><circle r=".457" fill="#FFF" cx="19.5" cy="31.5" stroke="#0693e3" stroke-width=".301"/><circle r=".473" fill="#FFF" cx="10.5" cy="32.5" stroke="#0693e3" stroke-width=".253"/><circle cx="14.5" cy="32.5" r=".588" fill="#FFF" stroke="#0693e3" stroke-width=".306"/><circle r=".582" fill="#FFF" stroke="#0693e3" stroke-width=".158" cx="23.5" cy="32.5"/></svg>