<svg class="Qr-item-svg" viewBox="-5.8 -5.8 40.6 40.6" fill="#fff" xmlns="http://www.w3.org/2000/svg"><circle r=".447" fill="#00d084" cx="8.5" cy=".5"/><circle cx="10.5" cy="1" r=".505" fill="#FFF" stroke="#00d084" stroke-width=".386"/><circle r=".365" fill="#00d084" cx="11.5" cy=".5"/><circle r=".484" fill="#00d084" cx="17.5" cy=".5"/><circle cx="20.5" cy="1" r=".5" fill="#FFF" stroke="#00d084" stroke-width=".363"/><circle cx="12.5" cy="2" r=".519" fill="#FFF" stroke="#00d084" stroke-width=".376"/><circle cx="9.5" cy="3" r=".486" fill="#FFF" stroke="#00d084" stroke-width=".364"/><circle fill="#FFF" stroke-width=".399" stroke="#00d084" cx="16.5" cy="3" r=".508"/><circle r=".491" fill="#FFF" stroke="#00d084" stroke-width=".363" cx="18.5" cy="3"/><circle fill="#00d084" cx="3.5" cy="3.5" r="1.5"/><circle fill="none" cx="3.5" cy="3.5" r="3" stroke="#00d084"/><circle r=".502" fill="#FFF" stroke="#00d084" stroke-width=".374" cx="10.5" cy="4"/><circle cx="13.5" cy="4" r=".517" fill="#FFF" stroke="#00d084" stroke-width=".389"/><circle cx="20.5" cy="4" r=".503" fill="#FFF" stroke="#00d084" stroke-width=".371"/><circle cx="25.5" cy="3.5" r="1.5" fill="#00d084"/><circle cx="25.5" cy="3.5" r="3" fill="none" stroke="#00d084"/><circle cx="11.5" cy="5" r=".51" fill="#FFF" stroke-width=".387" stroke="#00d084"/><circle cx="13" cy="4.5" r=".509" fill="#FFF" stroke="#00d084" stroke-width=".396"/><circle cx="15.5" cy="4.5" r=".419" fill="#00d084"/><circle r=".483" fill="#FFF" cx="17.5" cy="5" stroke="#00d084" stroke-width=".373"/><circle cx="19" cy="4.5" r=".491" fill="#FFF" stroke="#00d084" stroke-width=".361"/><circle r=".52" fill="#FFF" cx="20.5" cy="6" stroke="#00d084" stroke-width=".38"/><circle cx="8.5" cy="7" r=".515" fill="#FFF" stroke="#00d084" stroke-width=".382"/><circle cx="10.5" cy="6.5" r=".483" fill="#00d084"/><circle cx="12.5" cy="7" r=".495" fill="#FFF" stroke="#00d084" stroke-width=".371"/><circle cx="14.5" cy="7" r=".521" fill="#FFF" stroke="#00d084" stroke-width=".388"/><circle cx="12" cy="7.5" r=".487" fill="#FFF" stroke="#00d084" stroke-width=".362"/><circle cx="18.5" cy="7.5" r=".296" fill="#00d084"/><circle r=".513" fill="#FFF" cx="20.5" cy="8" stroke="#00d084" stroke-width=".368"/><circle cx=".5" cy="9" r=".507" fill="#FFF" stroke="#00d084" stroke-width=".393"/><circle cx="3.5" cy="9" r=".495" fill="#FFF" stroke="#00d084" stroke-width=".384"/><circle r=".493" fill="#FFF" cx="5" cy="8.5" stroke="#00d084" stroke-width=".369"/><circle r=".524" fill="#FFF" cx="7" cy="8.5" stroke="#00d084" stroke-width=".391"/><circle cx="9" cy="8.5" r=".478" fill="#FFF" stroke="#00d084" stroke-width=".367"/><circle r=".506" fill="#FFF" cx="12.5" cy="9" stroke="#00d084" stroke-width=".397"/><circle cx="13.5" cy="8.5" r=".374" fill="#00d084"/><circle r=".497" fill="#00d084" cx="24.5" cy="8.5"/><circle cx="28.5" cy="8.5" r=".295" fill="#00d084"/><circle cx="12" cy="9.5" r=".503" fill="#FFF" stroke="#00d084" stroke-width=".383"/><circle r=".484" fill="#FFF" cx="14.5" cy="10" stroke="#00d084" stroke-width=".377"/><circle r=".476" fill="#FFF" cx=".5" cy="11" stroke="#00d084" stroke-width=".36"/><circle r=".36" fill="#00d084" cx="1.5" cy="10.5"/><circle r=".258" fill="#00d084" cx="3.5" cy="10.5"/><circle cx="6.5" cy="10.5" r=".328" fill="#00d084"/><circle r=".479" fill="#FFF" cx="9" cy="10.5" stroke="#00d084" stroke-width=".398"/><circle cx="19.5" cy="11" r=".515" fill="#FFF" stroke="#00d084" stroke-width=".381"/><circle r=".42" fill="#00d084" cx="24.5" cy="10.5"/><circle cx="27.5" cy="11" r=".479" fill="#FFF" stroke="#00d084" stroke-width=".392"/><circle r=".414" fill="#00d084" cx="2.5" cy="11.5"/><circle cx="5" cy="11.5" r=".498" fill="#FFF" stroke="#00d084" stroke-width=".368"/><circle cx="9.5" cy="12" r=".514" fill="#FFF" stroke="#00d084" stroke-width=".366"/><circle r=".444" fill="#00d084" cx="11.5" cy="11.5"/><circle r=".464" fill="#00d084" cx="14.5" cy="11.5"/><circle r=".492" fill="#FFF" cx="27" cy="11.5" stroke="#00d084" stroke-width=".369"/><circle r=".486" fill="#00d084" cx=".5" cy="12.5"/><circle cx="6.5" cy="12.5" r=".443" fill="#00d084"/><circle cx="9" cy="12.5" r=".52" fill="#FFF" stroke="#00d084" stroke-width=".395"/><circle r=".492" fill="#FFF" cx="13" cy="12.5" stroke="#00d084" stroke-width=".392"/><circle cx="21.5" cy="12.5" r=".253" fill="#00d084"/><circle cx="24.5" cy="13" r=".48" fill="#FFF" stroke="#00d084" stroke-width=".362"/><circle cx="28.5" cy="12.5" r=".462" fill="#00d084"/><circle r=".506" fill="#FFF" cx="1.5" cy="14" stroke="#00d084" stroke-width=".368"/><circle cx="10" cy="13.5" r=".483" fill="#FFF" stroke="#00d084" stroke-width=".398"/><circle cx="17" cy="13.5" r=".513" fill="#FFF" stroke="#00d084" stroke-width=".391"/><circle cx="18.5" cy="14" r=".502" fill="#FFF" stroke="#00d084" stroke-width=".38"/><circle cx="20.5" cy="13.5" r=".396" fill="#00d084"/><circle cx="2.5" cy="15" r=".524" fill="#FFF" stroke="#00d084" stroke-width=".394"/><circle r=".278" fill="#00d084" cx="6.5" cy="14.5"/><circle r=".401" fill="#00d084" cx="13.5" cy="14.5"/><circle cx="8" cy="15.5" r=".523" fill="#FFF" stroke="#00d084" stroke-width=".386"/><circle cx="10.5" cy="16" r=".506" fill="#FFF" stroke="#00d084" stroke-width=".387"/><circle r=".499" fill="#FFF" stroke="#00d084" stroke-width=".394" cx="17.5" cy="16"/><circle cx="24.5" cy="15.5" r=".325" fill="#00d084"/><circle cx=".5" cy="17" r=".507" fill="#FFF" stroke="#00d084" stroke-width=".398"/><circle fill="#00d084" cx="6.5" cy="16.5" r=".363"/><circle fill="#FFF" cx="10" cy="16.5" r=".52" stroke="#00d084" stroke-width=".364"/><circle r=".491" fill="#FFF" cx="19.5" cy="17" stroke="#00d084" stroke-width=".374"/><circle cx="23.5" cy="17" r=".48" fill="#FFF" stroke="#00d084" stroke-width=".391"/><circle cx="25.5" cy="17" r=".483" fill="#FFF" stroke="#00d084" stroke-width=".371"/><circle cx="27" cy="16.5" r=".49" fill="#FFF" stroke="#00d084" stroke-width=".396"/><circle r=".491" fill="#FFF" cx="7" cy="18.5" stroke="#00d084" stroke-width=".395"/><circle cx="11" cy="18.5" r=".478" fill="#FFF" stroke="#00d084" stroke-width=".38"/><circle cx="17.5" cy="19" r=".484" fill="#FFF" stroke="#00d084" stroke-width=".395"/><circle cx="19" cy="18.5" r=".502" fill="#FFF" stroke="#00d084" stroke-width=".377"/><circle r=".283" fill="#00d084" cx="21.5" cy="18.5"/><circle cx="23.5" cy="19" r=".48" fill="#FFF" stroke="#00d084" stroke-width=".4"/><circle cx="26" cy="18.5" r=".493" fill="#FFF" stroke="#00d084" stroke-width=".382"/><circle cx="1" cy="19.5" r=".486" fill="#FFF" stroke="#00d084" stroke-width=".366"/><circle cx="2.5" cy="19.5" r=".29" fill="#00d084"/><circle cx="5.5" cy="20" r=".495" fill="#FFF" stroke="#00d084" stroke-width=".394"/><circle r=".384" fill="#00d084" cx="8.5" cy="19.5"/><circle cx="12.5" cy="20" r=".522" fill="#FFF" stroke="#00d084" stroke-width=".378"/><circle cx="13.5" cy="19.5" r=".323" fill="#00d084"/><circle cx="15.5" cy="20" r=".512" fill="#FFF" stroke="#00d084" stroke-width=".39"/><circle cx="27.5" cy="20" r=".5" fill="#FFF" stroke="#00d084" stroke-width=".398"/><circle r=".467" fill="#00d084" cx="1.5" cy="20.5"/><circle cx="4" cy="20.5" r=".52" fill="#FFF" stroke="#00d084" stroke-width=".377"/><circle cx="7" cy="20.5" r=".492" fill="#FFF" stroke="#00d084" stroke-width=".39"/><circle cx="15" cy="20.5" r=".488" fill="#FFF" stroke="#00d084" stroke-width=".395"/><circle cx="19" cy="20.5" r=".524" fill="#FFF" stroke="#00d084" stroke-width=".394"/><circle r=".507" fill="#FFF" stroke="#00d084" stroke-width=".386" cx="20.5" cy="21"/><circle cx="23" cy="20.5" r=".49" fill="#FFF" stroke="#00d084" stroke-width=".396"/><circle cx="28.5" cy="21" r=".497" fill="#FFF" stroke="#00d084" stroke-width=".361"/><circle cx="8.5" cy="22" r=".509" fill="#FFF" stroke="#00d084" stroke-width=".374"/><circle r=".489" fill="#FFF" cx="17.5" cy="22" stroke="#00d084" stroke-width=".378"/><circle cx="11.5" cy="22.5" r=".417" fill="#00d084"/><circle cx="22.5" cy="22.5" r=".392" fill="#00d084"/><circle r=".495" fill="#FFF" cx="24.5" cy="23" stroke="#00d084" stroke-width=".382"/><circle cx="26" cy="23.5" r=".52" fill="#FFF" stroke="#00d084" stroke-width=".393"/><circle r=".494" fill="#00d084" cx="17.5" cy="24.5"/><circle cx="20.5" cy="25" r=".48" fill="#FFF" stroke="#00d084" stroke-width=".398"/><circle cx="22" cy="24.5" r=".512" fill="#FFF" stroke="#00d084" stroke-width=".4"/><circle cx="24" cy="24.5" r=".524" fill="#FFF" stroke="#00d084" stroke-width=".386"/><circle cx="3.5" cy="25.5" r="1.5" fill="#00d084"/><circle fill="none" cx="3.5" cy="25.5" r="3" stroke="#00d084"/><circle fill="#00d084" cx="12.5" cy="25.5" r=".3"/><circle r=".504" fill="#FFF" cx="14.5" cy="26" stroke="#00d084" stroke-width=".387"/><circle cx="16.5" cy="25.5" r=".418" fill="#00d084"/><circle r=".485" fill="#FFF" cx="18.5" cy="26" stroke="#00d084" stroke-width=".362"/><circle cx="20" cy="25.5" r=".482" fill="#FFF" stroke="#00d084" stroke-width=".372"/><circle cx="25.5" cy="26" r=".491" fill="#FFF" stroke="#00d084" stroke-width=".399"/><circle cx="21.5" cy="27" r=".522" fill="#FFF" stroke="#00d084" stroke-width=".374"/><circle r=".507" fill="#FFF" stroke="#00d084" stroke-width=".391" cx="26.5" cy="27"/><circle cx="17.5" cy="28" r=".489" fill="#FFF" stroke="#00d084" stroke-width=".383"/><circle cx="21" cy="27.5" r=".5" fill="#FFF" stroke="#00d084" stroke-width=".38"/><circle cx="28.5" cy="27.5" r=".346" fill="#00d084"/><circle r=".513" fill="#FFF" stroke="#00d084" stroke-width=".366" cx="9" cy="28.5"/><circle cx="14" cy="28.5" r=".491" fill="#FFF" stroke="#00d084" stroke-width=".366"/><circle cx="16" cy="28.5" r=".483" fill="#FFF" stroke="#00d084" stroke-width=".396"/><circle r=".407" fill="#00d084" cx="18.5" cy="28.5"/><circle cx="22" cy="28.5" r=".51" fill="#FFF" stroke="#00d084" stroke-width=".386"/><circle r=".493" fill="#FFF" cx="25" cy="28.5" stroke="#00d084" stroke-width=".379"/><circle cx="16.5" cy="2.5" r="1" fill="#FFF" stroke="#00d084" stroke-width=".58"/><circle cx="16.5" cy="2.5" r=".281" fill="#00d084"/><circle r="1" fill="#FFF" cx="9.5" cy="4.5" stroke="#00d084" stroke-width=".362"/><circle cx="17.5" cy="6.5" r="1" fill="#FFF" stroke="#00d084" stroke-width=".593"/><circle cx="17.5" cy="9.5" r="1" fill="#FFF" stroke="#00d084" stroke-width=".577"/><circle cx="22.5" cy="9.5" r="1" fill="#FFF" stroke="#00d084" stroke-width=".396"/><circle r=".31" fill="#00d084" cx="22.5" cy="9.5"/><circle cx="22" cy="9" r=".707" fill="#FFF" stroke="#00d084" stroke-width=".391"/><circle cx="22" cy="10" r=".707" fill="#FFF" stroke="#00d084" stroke-width=".578"/><circle cx="17.5" cy="12.5" r="1" fill="#FFF" stroke="#00d084" stroke-width=".441"/><circle cx="19" cy="12" r=".707" fill="#FFF" stroke="#00d084" stroke-width=".414"/><circle r=".707" fill="#FFF" cx="20" cy="12" stroke="#00d084" stroke-width=".396"/><circle cx="4.5" cy="14.5" r="1" fill="#FFF" stroke="#00d084" stroke-width=".595"/><circle cx="25" cy="14" r=".707" fill="#FFF" stroke="#00d084" stroke-width=".367"/><circle cx="19" cy="15" r=".707" fill="#FFF" stroke="#00d084" stroke-width=".492"/><circle cx="27.5" cy="15.5" r="1" fill="#FFF" stroke="#00d084" stroke-width=".441"/><circle r="1" fill="#FFF" cx="14.5" cy="16.5" stroke="#00d084" stroke-width=".592"/><circle cx="14.5" cy="16.5" r=".387" fill="#00d084"/><circle cx="22" cy="16" r=".707" fill="#FFF" stroke="#00d084" stroke-width=".479"/><circle cx="2.5" cy="17.5" r="1" fill="#FFF" stroke="#00d084" stroke-width=".57"/><circle cx="2.5" cy="17.5" r=".405" fill="#00d084"/><circle cx="5" cy="17" r=".707" fill="#FFF" stroke="#00d084" stroke-width=".507"/><circle r=".707" fill="#FFF" cx="12" cy="17" stroke="#00d084" stroke-width=".478"/><circle cx="15" cy="17" r=".707" fill="#FFF" stroke="#00d084" stroke-width=".435"/><circle cx="28" cy="17" r=".707" fill="#FFF" stroke="#00d084" stroke-width=".405"/><circle cx="3" cy="18" r=".707" fill="#FFF" stroke="#00d084" stroke-width=".431"/><circle r=".707" fill="#FFF" cx="8" cy="18" stroke="#00d084" stroke-width=".535"/><circle cx="12" cy="18" r=".707" fill="#FFF" stroke="#00d084" stroke-width=".369"/><circle r="1" fill="#FFF" cx="20.5" cy="20.5" stroke="#00d084" stroke-width=".551"/><circle cx="20.5" cy="20.5" r=".496" fill="#00d084"/><circle r=".707" fill="#FFF" cx="24" cy="20" stroke="#00d084" stroke-width=".367"/><circle cx="11" cy="21" r=".707" fill="#FFF" stroke="#00d084" stroke-width=".584"/><circle cx="25" cy="21" r=".707" fill="#FFF" stroke="#00d084" stroke-width=".421"/><circle r="1" fill="#FFF" stroke="#00d084" stroke-width=".388" cx="27.5" cy="21.5"/><circle cx="16.5" cy="22.5" r="1" fill="#FFF" stroke="#00d084" stroke-width=".58"/><circle r=".707" fill="#FFF" cx="9" cy="23" stroke="#00d084" stroke-width=".549"/><circle cx="13.5" cy="23.5" r="1" fill="#FFF" stroke="#00d084" stroke-width=".357"/><circle cx="13.5" cy="23.5" r=".347" fill="#00d084"/><circle cx="18" cy="23" r=".707" fill="#FFF" stroke="#00d084" stroke-width=".468"/><circle r=".707" fill="#FFF" stroke="#00d084" stroke-width=".523" cx="19" cy="23"/><circle cx="20" cy="23" r=".707" fill="#FFF" stroke="#00d084" stroke-width=".594"/><circle cx="28" cy="23" r=".707" fill="#FFF" stroke="#00d084" stroke-width=".584"/><circle cx="9" cy="24" r=".707" fill="#FFF" stroke="#00d084" stroke-width=".536"/><circle cx="14" cy="24" r=".707" fill="#FFF" stroke="#00d084" stroke-width=".527"/><circle r=".707" fill="#FFF" cx="28" cy="24" stroke="#00d084" stroke-width=".472"/><circle r=".707" fill="#FFF" cx="9" cy="25" stroke-width=".407" stroke="#00d084"/><circle r=".707" fill="#FFF" stroke="#00d084" stroke-width=".418" cx="28" cy="25"/><circle cx="10.5" cy="27.5" r="1" fill="#FFF" stroke="#00d084" stroke-width=".488"/><circle r=".282" fill="#00d084" cx="10.5" cy="27.5"/><circle r="1" fill="#FFF" cx="14.5" cy="27.5" stroke="#00d084" stroke-width=".456"/><circle r="1" fill="#FFF" stroke="#00d084" stroke-width=".374" cx="22.5" cy="27.5"/><circle cx="10" cy="28" r=".707" fill="#FFF" stroke="#00d084" stroke-width=".521"/><circle cx="11" cy="28" r=".707" fill="#FFF" stroke="#00d084" stroke-width=".519"/><circle cx="27" cy="28" r=".707" fill="#FFF" stroke="#00d084" stroke-width=".383"/><circle fill="#FFF" cx="11.5" cy="2.5" r=".54" stroke="#00d084" stroke-width=".266"/><circle cx="9.5" cy="4.5" r=".438" fill="#FFF" stroke="#00d084" stroke-width=".154"/><circle r=".623" fill="#FFF" cx="16.5" cy="4.5" stroke="#00d084" stroke-width=".225"/><circle cx="13.5" cy="5.5" r=".633" fill="#FFF" stroke="#00d084" stroke-width=".204"/><circle cx="15.5" cy="5.5" r=".469" fill="#FFF" stroke="#00d084" stroke-width=".26"/><circle cx="16.5" cy="5.5" r=".469" fill="#FFF" stroke="#00d084" stroke-width=".231"/><circle cx="10.5" cy="7.5" r=".453" fill="#FFF" stroke="#00d084" stroke-width=".263"/><circle cx="16.5" cy="7.5" r=".495" fill="#FFF" stroke="#00d084" stroke-width=".286"/><circle cx="16.5" cy="8.5" r=".569" fill="#FFF" stroke="#00d084" stroke-width=".154"/><circle cx="4.5" cy="9.5" r=".43" fill="#FFF" stroke="#00d084" stroke-width=".28"/><circle cx="26.5" cy="9.5" r=".561" fill="#FFF" stroke="#00d084" stroke-width=".285"/><circle cx="5.5" cy="10.5" r=".556" fill="#FFF" stroke="#00d084" stroke-width=".317"/><circle cx="10.5" cy="10.5" r=".518" fill="#FFF" stroke="#00d084" stroke-width=".194"/><circle cx="28.5" cy="10.5" r=".455" fill="#FFF" stroke="#00d084" stroke-width=".268"/><circle cx="1.5" cy="11.5" r=".487" fill="#FFF" stroke="#00d084" stroke-width=".162"/><circle cx="3.5" cy="11.5" r=".525" fill="#FFF" stroke="#00d084" stroke-width=".238"/><circle cx="10.5" cy="11.5" r=".552" fill="#FFF" stroke="#00d084" stroke-width=".294"/><circle cx="12.5" cy="11.5" r=".477" fill="#FFF" stroke="#00d084" stroke-width=".177"/><circle r=".511" fill="#FFF" cx="22.5" cy="11.5" stroke="#00d084" stroke-width=".159"/><circle r=".437" fill="#FFF" cx="2.5" cy="12.5" stroke="#00d084" stroke-width=".203"/><circle cx="11.5" cy="13.5" r=".609" fill="#FFF" stroke="#00d084" stroke-width=".221"/><circle cx="13.5" cy="13.5" r=".507" fill="#FFF" stroke="#00d084" stroke-width=".183"/><circle cx="28.5" cy="13.5" r=".552" fill="#FFF" stroke="#00d084" stroke-width=".246"/><circle cx="16.5" cy="14.5" r=".493" fill="#FFF" stroke="#00d084" stroke-width=".183"/><circle r=".473" fill="#FFF" cx="26.5" cy="14.5" stroke="#00d084" stroke-width=".197"/><circle cx="15.5" cy="15.5" r=".641" fill="#FFF" stroke="#00d084" stroke-width=".326"/><circle r=".633" fill="#FFF" cx="16.5" cy="15.5" stroke="#00d084" stroke-width=".316"/><circle r=".631" fill="#FFF" cx="20.5" cy="15.5" stroke="#00d084" stroke-width=".182"/><circle cx="21.5" cy="19.5" r=".524" fill="#FFF" stroke="#00d084" stroke-width=".18"/><circle cx="25.5" cy="19.5" r=".614" fill="#FFF" stroke="#00d084" stroke-width=".241"/><circle r=".472" fill="#FFF" stroke="#00d084" stroke-width=".216" cx="14.5" cy="21.5"/><circle cx="18.5" cy="21.5" r=".582" fill="#FFF" stroke="#00d084" stroke-width=".318"/><circle r=".58" fill="#FFF" cx="10.5" cy="22.5" stroke="#00d084" stroke-width=".238"/><circle r=".571" fill="#FFF" cx="16.5" cy="22.5" stroke="#00d084" stroke-width=".299"/><circle cx="22.5" cy="25.5" r=".445" fill="#FFF" stroke="#00d084" stroke-width=".224"/><circle r=".471" fill="#FFF" stroke="#00d084" stroke-width=".297" cx="24.5" cy="25.5"/><circle r=".45" fill="#FFF" stroke="#00d084" stroke-width=".154" cx="28.5" cy="26.5"/><circle cx="16.5" cy="27.5" r=".572" fill="#FFF" stroke="#00d084" stroke-width=".189"/><circle r=".602" fill="#FFF" stroke="#00d084" stroke-width=".277" cx="22.5" cy="27.5"/><circle cx="24.5" cy="27.5" r=".623" fill="#FFF" stroke="#00d084" stroke-width=".306"/><circle cx="20.5" cy="28.5" r=".648" fill="#FFF" stroke="#00d084" stroke-width=".218"/><circle cx="23.5" cy="28.5" r=".595" fill="#FFF" stroke="#00d084" stroke-width=".157"/></svg>