<svg viewBox="0 0 1024 1024" xmlns="http://www.w3.org/2000/svg" width="16" height="16"><path d="M85.344 0h853.312C985.6 0 1024 38.4 1024 85.344v853.312c0 46.944-38.4 85.344-85.344 85.344H85.344A85.6 85.6 0 0 1 0 938.656V85.344C0 38.4 38.4 0 85.344 0z" fill="#336792"/><path d="M515.36 168.448c81.184 1.312 133.248 43.104 162.624 77.92 25.312 29.984 39.04 60.192 44.48 76.48-41.12-4.16-69.12 3.968-83.296 24.32-30.848 44.224 16.896 130.08 39.84 171.328 4.192 7.584 7.84 14.08 8.96 16.896 7.488 18.144 17.152 30.272 24.224 39.104 2.176 2.72 4.256 5.344 5.856 7.68-12.48 3.584-34.848 11.904-32.8 53.504-1.632 20.864-13.344 118.624-19.296 153.152-7.84 45.6-24.576 62.592-71.648 72.736-29.312 6.304-47.264-.224-59.392-12.608-7.904-11.296-11.168-24.736-14.4-33.472-7.488-19.968-6.72-45.536-5.6-82.784.768-25.696-2.176-53.248-7.2-70.304.128-12.096.352-24.544.736-37.184a11.072 11.072 0 0 0-.48-3.52 46.432 46.432 0 0 0-1.376-6.464c-3.84-13.344-13.12-24.512-24.224-29.152-4.448-1.824-12.576-5.216-22.336-2.72 2.08-8.576 5.696-18.304 9.6-28.8l1.664-4.448c1.856-4.992 4.16-10.144 6.624-15.616 13.248-29.536 31.424-70.016 11.712-161.408-7.392-34.24-32.032-50.944-69.44-47.072-22.4 2.336-42.88 11.392-53.12 16.576a171.584 171.584 0 0 0-6.08 3.264c2.88-34.496 13.632-98.976 53.984-139.744 25.376-25.664 59.2-38.368 100.384-37.664zm-41.44 438.08c4.832 1.984 9.568 8.064 11.488 14.784.896 3.168 1.92 9.184-1.408 13.856-28.096 39.456-69.056 38.944-98.464 31.584a48.64 48.64 0 0 1-14.72-6.336 71.68 71.68 0 0 1 15.68-4.704c39.872-8.224 46.048-14.048 59.52-31.168 2.304-2.944 4.832-6.176 8-9.92l3.392-3.872c7.232-8.128 10.528-6.72 16.512-4.256zm-73.024-417.536-1.664 1.6c-55.744 56.448-60.928 148.288-61.28 173.184v6.048c0 2.56.224 6.208.512 11.2 1.088 18.336 3.104 52.416-2.272 91.008-5.024 35.84 6.016 70.944 30.24 96.32a106.12 106.12 0 0 0 7.808 7.36 1621.408 1621.408 0 0 0-59.136 67.296c-17.664 21.248-29.856 17.184-33.856 15.84-26.112-8.736-56.416-64.064-83.136-151.84-23.104-75.936-36.608-152.32-37.664-173.696-3.392-67.744 12.992-114.912 48.64-140.288 58.048-41.28 153.472-16.576 191.808-4.032zm329.6 412.48a23.8 23.8 0 0 0 3.072 2.24c17.984 11.936 50.048 13.216 95.328 3.84l.512-.096c-6.112 5.728-16.576 13.408-31.392 20.32-12.736 5.92-34.08 10.368-54.336 11.328-22.368 1.056-33.76-2.528-36.448-4.704-1.248-25.92 8.384-28.64 18.56-31.52 1.6-.448 3.168-.864 4.672-1.408zM442.24 348.8c13.888 3.2 22.336 12.64 25.824 28.928 18.176 84.288 2.432 119.424-10.24 147.648a273.344 273.344 0 0 0-7.2 16.992l-1.632 4.416c-4.16 11.104-8 21.44-10.368 31.264-20.736-.064-40.96-8.96-56.288-25.024-19.52-20.416-28.384-48.832-24.32-77.952 5.664-40.768 3.584-76.256 2.464-95.36-.16-2.656-.32-4.992-.384-6.848 9.184-8.16 51.776-31.04 82.144-24.064zm229.952-188.768c63.808 1.408 114.272 25.344 150.016 71.136 27.424 35.136-2.784 194.976-90.144 332.864l-2.656-3.36-1.12-1.376c22.592-37.408 18.176-74.4 14.24-107.2-1.6-13.44-3.136-26.176-2.752-38.112.416-12.672 2.08-23.52 3.68-34.016 1.984-12.96 4-26.336 3.456-42.112a17.504 17.504 0 0 0 .352-5.92c-1.408-15.136-18.624-60.448-53.76-101.44a242.24 242.24 0 0 0-85.44-64.416 287.424 287.424 0 0 1 64.128-6.048zm52.768 185.312a225.312 225.312 0 0 1-3.296 31.232 289.28 289.28 0 0 0-3.904 36.672c-.448 13.632 1.248 27.776 2.88 41.472 3.328 27.648 6.72 56.128-6.432 84.224a109.632 109.632 0 0 1-5.856-12.032 235.424 235.424 0 0 0-10.112-19.2c-19.136-34.432-63.936-115.04-40.992-147.936 6.816-9.76 24.16-19.84 67.712-14.4zm-316.128 17.632a7.2 7.2 0 0 0-3.008 4.8c-.48 3.424 1.92 7.2 3.424 9.152a26.016 26.016 0 0 0 16.48 10.176 18.976 18.976 0 0 0 2.656.16c10.176 0 19.424-7.84 20.224-13.6 1.024-7.232-9.6-12.064-19.904-13.472-8.416-1.152-16-.096-19.84 2.784zm277.44-8.512c-9.664 1.312-19.04 5.632-18.272 11.328.64 4.416 8.704 11.968 18.24 11.968.832 0 1.664-.064 2.464-.16a23.616 23.616 0 0 0 13.312-7.2c3.36-3.52 5.344-7.424 4.96-9.984-.8-5.664-11.008-7.296-20.704-5.952z" fill="#FFF"/></svg>