<svg xmlns="http://www.w3.org/2000/svg" width="16" height="16" viewBox="0 0 1024 1024"><path fill="#FC0" d="M227.556 0h568.888Q1024 0 1024 227.556v568.888Q1024 1024 796.444 1024H227.556Q0 1024 0 796.444V227.556Q0 0 227.556 0Z"/><path fill="#FFF" d="M85.333 789.333h94.834v92.445H85.333v-92.445zm0-647.11h94.834v647.11H85.39v-647.11zm189.668 0h94.777v739.555H275V142.222zm189.61 0h94.777v739.555h-94.776V142.222zm189.611 0H749v739.555h-94.777V142.222zm189.61 300.43h94.778v138.695h-94.777V442.596z"/></svg>