<svg xmlns="http://www.w3.org/2000/svg" width="16" height="16" viewBox="0 0 1024 1024"><path fill="#FFA143" d="M0 0h1024v1024H0z"/><path fill="#1C2681" d="M439.22 731.482s-156.698 47.385-232.32-55.31c0 0-33.537-60.48 0-134.105 0 0 39.244-76.288 84.031-115.699 0 0-27.955 115.7 123.098 136.883 0 0 81.152-5.389 83.955 60.506-.026 0 19.533 78.784-58.752 107.725z"/><path fill="#E62F1C" d="m570.7 694.682-47.551 26.176v-105.19s8.384-49.92-72.781-60.506c0 0-89.549-5.21-125.952-68.314v-94.682l42.01-34.176v105.178s22.348 57.894 92.339 68.493c0 0 95.104-2.688 111.91 65.69v97.33h.026z"/><path fill="#E62F1C" d="m623.872 663.078-36.352 28.916V586.778s-11.174-44.71-95.104-65.69c0 0-67.226 10.598-103.603-60.506V350.067l39.245-18.38v115.686s2.764 44.825 92.339 60.505c0 0 78.297 2.701 100.736 63.13l2.765 92.07z"/><path fill="#E62F1C" d="m688.243 621.056-44.761 34.304v-78.976c-13.952-78.976-109.159-81.587-109.159-81.587-86.707-13.197-86.707-65.792-86.707-65.792V318.502l50.342-23.603v126.195c22.426 71.117 106.368 68.39 106.368 68.39 72.768 5.287 83.917 68.391 83.917 68.391v63.194z"/><path fill="#1C2681" d="M831.002 405.286s-33.613 128.922-103.604 184.218c0 0 5.632-110.515-125.85-115.84 0 0-78.4-26.291-78.4-81.472 0 0-5.631-44.71 5.633-105.19 0 0 181.926-50.023 260.224 15.795 2.777-2.727 50.419 31.488 41.997 102.49z"/></svg>