<svg viewBox="0 0 1024 1024" xmlns="http://www.w3.org/2000/svg" width="16" height="16"><path d="M928.256 1024h-832C43.008 1024 0 980.992 0 928.256v-832C0 43.008 43.008 0 96.256 0h832C980.992 0 1024 43.008 1024 96.256v832c0 52.736-43.008 95.744-95.744 95.744z" fill="#d81e06"/><path d="M687.616 727.04H341.504c-112.64 0-205.312-92.16-205.312-205.312v-28.16c0-112.64 92.16-205.312 205.312-205.312h345.6c112.64 0 205.312 92.16 205.312 205.312v28.16c0 113.152-92.16 205.312-204.8 205.312zm142.336-211.968V496.64c0-73.728-60.416-133.632-133.632-133.632h-358.4c-73.728 0-133.632 60.416-133.632 133.632v18.432c0 73.728 60.416 133.632 133.632 133.632h358.4c73.728.512 133.632-59.904 133.632-133.632z" fill="#FFF"/></svg>