<svg version="1.1" xmlns="http://www.w3.org/2000/svg" style="display:none;"><symbol id="lock" viewBox="0 0 1024 1024"><path d="M903.75 510.08a55.64 55.64 0 0 0-55.65-55.65H347.23V371H350a167 167 0 1 1 328.29 0h112.77c.88-9.15 1.38-18.42 1.38-27.82 0-153.69-124.57-278.26-278.26-278.26S235.91 189.44 235.91 343.13c0 9.4.51 18.67 1.4 27.82h-1.4v83.48h-55.65a55.64 55.64 0 0 0-55.65 55.65v111.31a55.72 55.72 0 0 0 1.28 11.71c-.49 5.34-1.28 10.64-1.28 16.11v139.13a167 167 0 0 0 167 167h445.18a167 167 0 0 0 167-167V649.21c0-5.47-.78-10.77-1.28-16.11a55.72 55.72 0 0 0 1.28-11.71zM540.61 725.73c.59 2.28 1.4 4.49 1.4 7v55.65a27.83 27.83 0 1 1-55.65 0v-55.69c0-2.47.81-4.68 1.39-7a55.66 55.66 0 1 1 52.86 0z" fill="#FF8100"/></symbol><symbol id="lottery" viewBox="0 0 1024 1024"><path d="m512.64 379.392-55.168-32.576L359.936 512h-8.896L233.728 351.552l-51.712 37.76L271.744 512H192v64h128v64H192v64h128v64h64v-64h128v-64H384v-64h128v-64h-77.696z" fill="#D81E06"/><path d="M896 192H128C57.408 192 0 249.408 0 320v448c0 70.592 57.408 128 128 128h768c70.592 0 128-57.408 128-128v-96.64l-64-5.248c-50.112-17.344-86.4-64.576-86.4-120.512 0-55.936 36.224-103.104 86.4-120.448l64-5.312V320c0-70.592-57.408-128-128-128zM128 832c-35.264 0-64-28.672-64-64V320c0-35.264 28.736-64 64-64h512v576H128zm832-473.536C874.112 377.536 809.6 454.08 809.6 545.6c0 91.584 64.512 168.064 150.4 187.2V768c0 35.328-28.672 64-64 64H704V256h192c35.328 0 64 28.736 64 64v38.464z" fill="#D81E06"/></symbol><symbol id="love" viewBox="0 0 1024 1024"><path d="M524.1 171.66c-110.22-11.72-165.6 98.16-165.6 98.16s-94.89-78.33-191.09-23.26S4.8 449.48 147.14 606.6c142.34 157.11 315.27 158.04 315.27 158.04s157.95-70.41 225.07-271.5c67.12-201.1-53.16-309.76-163.38-321.48z" fill="#C53938"/><path d="M887.36 476.37c-72.82-48.51-151.74 8.1-151.74 8.1s-37.73-89.5-125.17-86.17-187.98 82.47-145.87 244.44 162.74 225.87 162.74 225.87 136.25 8.52 256.75-107.6c120.5-116.13 76.11-236.13 3.29-284.64z" fill="#F5E5E5"/></symbol><symbol id="markdown" viewBox="0 0 1024 1024"><path d="M231.668 1.895h561.578c126.88 0 229.736 102.858 229.736 229.735v561.58c0 126.878-102.855 229.736-229.736 229.736H231.668c-126.88 0-229.735-102.858-229.735-229.736V231.63c0-126.877 102.855-229.735 229.735-229.735z"/><path d="M798.271 751.117 692.328 611.476h54.833V273.724h102.22v337.752h54.834L798.271 751.117zM519.996 467.432c0-15.605.345-32.107 1.044-49.48l-15.56 21.73c-.196.618-.394 1.255-.592 1.85l-8.138 11.953-124.612 189.59-46.11-71.579h-.285l-32.247-50.504-46.876-72.768h.415l-9.786-15.326-.527-2.133-16.408-24.24c1.199 37.8 1.826 65.336 1.826 82.492V750.18H120.697V275.337h159.72l88.626 131.15h1.518l91.16-131.15h161.875V750.18h-103.6V467.432z" fill="#fff"/></symbol><symbol id="message" viewBox="0 0 1024 1024"><path d="M423.424 92.16C284.16 117.248 163.84 200.192 105.472 312.32 74.24 371.712 64 414.72 64.512 481.28c1.024 102.912 32.768 175.104 112.64 255.488l48.128 47.616 1.024 96.768 1.536 96.768 91.648-54.784 91.648-55.296h92.672c86.016-.512 95.744-1.536 138.752-14.336 92.672-28.672 148.992-62.464 209.92-127.488 41.984-44.544 65.024-81.408 82.432-131.584 62.464-179.712-23.04-367.104-209.92-458.752-69.12-34.304-114.176-44.544-202.752-46.592-40.96-.512-85.504.512-98.816 3.072zm193.536 68.608c16.896 4.608 52.224 18.944 78.848 31.744 39.424 19.456 56.32 31.744 90.112 65.536 70.656 70.144 96.256 129.536 96.256 220.672s-25.6 150.528-95.744 220.16c-46.08 45.568-95.232 74.752-161.792 95.232-32.256 10.24-49.664 12.288-107.52 12.288-37.888 0-76.288-1.536-85.504-3.584-13.824-3.072-24.064 1.024-79.36 34.304l-62.976 38.4-1.536-66.56-1.536-66.048-16.896-10.752C244.736 717.312 192 659.968 174.08 628.224c-28.672-50.176-38.4-87.04-38.4-149.504 0-58.88 6.656-87.04 30.72-135.68 46.08-91.648 143.872-162.816 258.56-186.88 42.496-9.216 149.504-6.656 192 4.608z" fill="#17B3A3"/><path d="M263.68 424.448c-23.04 10.24-33.28 27.136-33.28 54.784 0 26.112 27.136 53.248 53.248 53.248 26.624 0 46.08-11.776 56.832-34.304 8.192-16.896 8.192-20.992 2.048-39.424-12.8-35.328-45.056-49.664-78.848-34.304zm203.776 13.312c-16.896 16.896-17.92 19.968-15.36 41.984 6.656 59.904 86.528 73.216 109.568 18.432 16.384-40.448-9.216-78.336-53.248-78.336-19.456 0-25.6 2.56-40.96 17.92zm230.912-8.704c-15.36 12.288-22.528 28.16-22.528 49.664 0 26.624 27.136 53.76 53.248 53.76 26.624 0 46.08-11.776 56.832-33.792 7.168-15.872 7.68-22.016 3.072-38.4-8.192-27.136-27.136-40.448-56.32-40.448-14.336 0-27.648 3.584-34.304 9.216z" fill="#17B3A3"/></symbol><symbol id="microsoft" viewBox="0 0 1024 1024"><path d="M18.753 17.145h468.424l-.02 468.426H18.774V17.145h-.02zm0 0" fill="#F25022"/><path d="M534.999 17.145h468.422c0 156.141.022 312.283-.02 468.426H535.038c-.06-156.162-.039-312.285-.039-468.426zm0 0" fill="#80BA01"/><path d="M18.753 533.352c156.141.058 312.282-.019 468.424.058v468.386H18.753V533.352zm0 0" fill="#02A4EF"/><path d="M535.018 533.41c156.124-.058 312.243-.019 468.383-.019v468.422H534.999c.019-156.163-.02-312.28.019-468.403zm0 0" fill="#FFB902"/></symbol><symbol id="mind" viewBox="0 0 1024 1024"><path d="m840.533 490.667-17.066-85.334-268.8 55.467V170.667h-85.334v262.4l-296.533-192-46.933 72.533 324.266 209.067-249.6 326.4 68.267 51.2 241.067-315.734 179.2 270.934 72.533-46.934-179.2-266.666z" fill="#CFD8DC"/><path d="M362.667 512a149.333 149.333 0 1 0 298.666 0 149.333 149.333 0 1 0-298.666 0Z" fill="#3F51B5"/><path d="M405.333 170.667a106.667 106.667 0 1 0 213.334 0 106.667 106.667 0 1 0-213.334 0Zm320 277.333a106.667 106.667 0 1 0 213.334 0 106.667 106.667 0 1 0-213.334 0ZM42.667 277.333a106.667 106.667 0 1 0 213.333 0 106.667 106.667 0 1 0-213.333 0ZM128 874.667a106.667 106.667 0 1 0 213.333 0 106.667 106.667 0 1 0-213.333 0ZM618.667 832A106.667 106.667 0 1 0 832 832a106.667 106.667 0 1 0-213.333 0Z" fill="#00BCD4"/></symbol><symbol id="nav" viewBox="0 0 1024 1024"><path d="M42.667 0h938.666a42.667 42.667 0 0 1 0 85.333H42.667a42.667 42.667 0 0 1 0-85.333zm0 938.667h938.666a42.667 42.667 0 0 1 0 85.333H42.667a42.667 42.667 0 0 1 0-85.333zm0-625.778h426.382a42.667 42.667 0 0 1 0 85.333H42.667a42.667 42.667 0 0 1 0-85.333zm0 284.444h312.889a42.667 42.667 0 0 1 0 85.334H42.666a42.667 42.667 0 0 1 0-85.334z" fill="#34363D"/><path d="M824.889 341.333A170.667 170.667 0 1 1 654.222 512 170.667 170.667 0 0 1 824.89 341.333zm0 56.89A113.778 113.778 0 1 1 711.11 512a113.778 113.778 0 0 1 113.78-113.778z" fill="#FF8901"/><path d="M910.222 398.222c62.834 0 56.89 50.944 56.89 113.778s5.944 113.778-56.89 113.778a113.778 113.778 0 0 1 0-227.556z" fill="#FF8901"/></symbol><symbol id="nginx" viewBox="0 0 1154 1024"><path d="m982.691 467.407-433.298 1.39a106.746 106.746 0 1 0-3.032 213.364h3.032l261.368-1.39-64.047 129.864H410.686L244.062 517.937 412.076 213.87h357.377l83.375 171.046h214.755L932.16 60.005 902.853 0H285.371l-29.308 54.7L29.308 466.648 0 518.695l29.308 51.92 227.387 398.686 30.57 54.699H881l28.55-60.005 169.277-341.08 75.795-154.75z" fill="#00AA4E"/></symbol><symbol id="nlp" viewBox="0 0 1024 1024"><path d="M519.68 980.992 116.736 752.128V271.872L519.68 27.648l402.944 236.544 7.68 487.936L519.68 980.992zM160.768 726.016l359.424 204.288 366.08-204.288-6.656-436.224L520.704 78.848l-359.424 217.6v429.568z" fill="#1AA95E"/><path d="M516.096 813.056h14.848v75.264h-14.848v-75.264zm282.112-172.544 60.416 30.208-6.656 13.312-60.416-30.208 6.656-13.312zm38.4-331.264 6.656 13.312-60.416 30.208-6.656-13.312 60.416-30.208zm-641.024 15.36L256 354.816l-6.656 13.312-60.416-30.208 6.656-13.312zm52.224 316.928 9.216 12.288-60.416 45.056-9.216-12.288 60.416-45.056zM516.096 135.68h14.848v75.264h-14.848V135.68zM463.36 60.416c0 33.28 27.136 60.416 60.416 60.416s60.416-27.136 60.416-60.416S557.056 0 523.776 0 463.36 27.136 463.36 60.416zm0 903.168c0 33.28 27.136 60.416 60.416 60.416s60.416-27.136 60.416-60.416-27.136-60.416-60.416-60.416c-33.28.512-60.416 27.136-60.416 60.416zm391.68-240.64c0 33.28 27.136 60.416 60.416 60.416s60.416-27.136 60.416-60.416-27.136-60.416-60.416-60.416-60.416 27.136-60.416 60.416zm0-452.096c0 33.28 27.136 60.416 60.416 60.416s60.416-27.136 60.416-60.416-27.136-60.416-60.416-60.416-60.416 27.136-60.416 60.416zM71.68 737.792c0 33.28 27.136 60.416 60.416 60.416s60.416-27.136 60.416-60.416-27.136-60.416-60.416-60.416-60.416 27.136-60.416 60.416zM56.832 301.056c0 33.28 27.136 60.416 60.416 60.416s60.416-27.136 60.416-60.416-27.136-60.416-60.416-60.416-60.416 27.136-60.416 60.416zm215.552 107.008h35.84l107.52 157.184h1.024V408.064h35.84v217.6h-34.816L308.736 466.432h-1.024v159.232h-35.84v-217.6zm222.72 0h35.328v187.392h117.76v30.72H495.104V408.064zm180.736 0h90.112c52.736 0 78.848 22.016 78.848 66.56 0 45.056-26.624 67.584-79.36 67.584h-53.76v83.456h-35.84v-217.6zm35.84 30.72V512h51.712c15.872 0 27.136-3.072 34.816-8.704 7.168-6.144 10.752-15.36 10.752-28.16s-3.584-22.016-11.264-27.648c-7.168-5.632-18.432-8.704-34.304-8.704H711.68z" fill="#1AA95E"/></symbol><symbol id="nsfw" viewBox="0 0 1024 1024"><path d="M327.68 0v40.96H204.8c-90.49 0-163.84 73.35-163.84 163.84v122.88H0V204.8C0 91.689 91.689 0 204.8 0h122.88zm368.64 0H819.2C932.311 0 1024 91.689 1024 204.8v122.88h-40.96V204.8c0-90.49-73.35-163.84-163.84-163.84H696.32V0zM1024 696.32V819.2c0 113.111-91.689 204.8-204.8 204.8H696.32v-40.96H819.2c90.49 0 163.84-73.35 163.84-163.84V696.32H1024zM327.68 1024H204.8C91.689 1024 0 932.311 0 819.2V696.32h40.96V819.2c0 90.49 73.35 163.84 163.84 163.84h122.88V1024zM512 870.4c197.94 0 358.4-160.46 358.4-358.4S709.94 153.6 512 153.6 153.6 314.06 153.6 512 314.06 870.4 512 870.4zm0-40.96c-175.309 0-317.44-142.131-317.44-317.44S336.691 194.56 512 194.56 829.44 336.691 829.44 512 687.309 829.44 512 829.44z" fill="#3AAAD8"/><path d="M430.08 512a81.92 81.92 0 1 0 163.84 0 81.92 81.92 0 1 0-163.84 0z" fill="#FFC221"/><path d="M512 153.6a20.48 20.48 0 0 1 20.48 20.48v102.4h-40.96v-102.4A20.48 20.48 0 0 1 512 153.6zm0 716.8a20.48 20.48 0 0 1-20.48-20.48v-102.4h40.96v102.4A20.48 20.48 0 0 1 512 870.4zM870.4 512a20.48 20.48 0 0 1-20.48 20.48h-102.4v-40.96h102.4A20.48 20.48 0 0 1 870.4 512zm-716.8 0a20.48 20.48 0 0 1 20.48-20.48h102.4v40.96h-102.4A20.48 20.48 0 0 1 153.6 512z" fill="#3AAAD8"/></symbol><symbol id="ocr" viewBox="0 0 1024 1024"><path d="M138.7 848V661.3H64V848c0 59.7 52.3 112 112 112h112v-74.7H176c-22.4 0-37.3-14.9-37.3-37.3zM64 176v186.7h74.7V176c0-22.4 14.9-37.3 37.3-37.3h112V64H176c-59.7 0-112 52.3-112 112zm821.3 672c0 22.4-14.9 37.3-37.3 37.3H736V960h112c59.7 0 112-52.3 112-112V661.3h-74.7V848zM848 64H736v74.7h112c22.4 0 37.3 14.9 37.3 37.3v186.7H960V176c0-59.7-52.3-112-112-112z" fill="#0070F3"/><path d="M362.7 346.2c-7.5-7.5-14.9-14.9-29.9-14.9-7.5-7.5-22.4-7.5-29.9-7.5s-22.4 0-29.9 7.5c-14.9 0-22.4 7.5-29.9 14.9-7.5 7.5-14.9 14.9-22.4 29.9-7.5 7.5-7.5 22.4-7.5 37.3v194.1c0 14.9 0 29.9 7.5 37.3 7.5 7.5 14.9 22.4 22.4 29.9 7.5 14.9 14.9 14.9 29.9 22.4 14.9 7.5 22.4 7.5 29.9 7.5s22.4-7.5 29.9-7.5c14.9-7.5 22.4-7.5 29.9-14.9 7.5-7.5 14.9-14.9 22.4-29.9 7.5-7.5 7.5-22.4 7.5-37.3V413.4c0-14.9 0-29.9-7.5-37.3-7.5-14.9-15-22.4-22.4-29.9zM340.3 615c0 14.9 0 22.4-7.5 29.9s-22.4 7.5-29.9 7.5-14.9-7.5-22.4-14.9c-7.5-7.5-14.9-14.9-14.9-22.4V413.4c0-14.9 0-22.4 7.5-29.9s14.9-7.5 22.4-7.5c7.5 0 14.9 0 22.4 7.5 7.5 7.5 22.4 14.9 22.4 29.9V615zm448 82.2H848l-59.7-171.7c14.9-7.5 29.9-22.4 37.3-37.3 7.5-14.9 7.5-37.3 7.5-52.3 0-74.7-29.9-112-97.1-112h-82.1v373.3h52.3V540.4H736l52.3 156.8zm-82.2-201.6V376.1H736c14.9 0 29.9 7.5 37.3 14.9 0 7.5 7.5 14.9 7.5 14.9v44.8c0 7.5 0 14.9-7.5 14.9 0 7.5-7.5 7.5-14.9 14.9-7.5 0-14.9 7.5-22.4 7.5h-29.9v7.6z" fill="#00E090"/><path d="M586.7 346.2c-14.9-14.9-37.3-22.4-67.2-22.4-7.5 0-22.4 0-29.9 7.5-14.9 0-22.4 7.5-29.9 14.9-7.5 7.5-14.9 22.4-14.9 29.9s-7.5 22.4-7.5 29.9v201.6c0 14.9 0 29.9 7.5 44.8 7.5 14.9 14.9 22.4 22.4 29.9 7.5 7.5 14.9 14.9 22.4 14.9 14.9 0 22.4 7.5 37.3 7.5s22.4 0 29.9-7.5 22.4-14.9 29.9-22.4c7.5-7.5 14.9-14.9 14.9-29.9 0-14.9 7.5-22.4 7.5-29.9v-22.4h-52.3v29.9c0 7.5-7.5 7.5-7.5 14.9 0 0-7.5 7.5-14.9 7.5h-14.9c-14.9 0-22.4 0-22.4-7.5-7.5-7.5-7.5-14.9-7.5-29.9V420.9c0-14.9 0-22.4 7.5-29.9 0-7.5 14.9-14.9 22.4-14.9 7.5 0 14.9 7.5 22.4 14.9 7.5 7.5 14.9 14.9 14.9 22.4v14.9h52.3v-14.9c0-14.9 0-22.4-7.5-37.3-7.5-14.9-7.5-22.4-14.9-29.9z" fill="#FC9C41"/></symbol><symbol id="office" viewBox="0 0 1024 1024"><path d="M925.013 68.267 634.88 0h-10.24L95.573 204.8c-6.826 3.413-10.24 10.24-10.24 17.067V768c0 6.827 3.414 10.24 6.827 13.653s10.24 3.414 17.067 0l136.533-68.266c6.827-3.414 10.24-10.24 10.24-13.654v-430.08L665.6 143.36v744.107L105.813 819.2c-10.24 0-17.066 3.413-17.066 13.653-3.414 10.24 3.413 17.067 10.24 20.48L645.12 1024h10.24l273.067-102.4c6.826-3.413 10.24-10.24 10.24-17.067v-819.2c0-6.826-6.827-13.653-13.654-17.066z" fill="#d81e06"/></symbol><symbol id="overview" viewBox="0 0 1024 1024"><path d="M160 848a32 32 0 1 1 0 64 32 32 0 0 1 0-64zm736 16v32H288v-32h608zM160 688a32 32 0 1 1 0 64 32 32 0 0 1 0-64zm736 16v32H288v-32h608zM160 528a32 32 0 1 1 0 64 32 32 0 0 1 0-64zm736 16v32H288v-32h608z" fill="#646E7F"/><path d="m130.112 416 12.672-75.296h70.784L200.896 416h31.424l12.672-75.296h52.928l4.224-26.88h-52.928l19.2-115.2h47.36l4.224-26.88h-47.36L285.312 96h-30.944l-12.672 75.744h-71.264L183.104 96H152.16l-12.672 75.744h-53.44l-4.224 26.88h52.96l-19.2 115.2h-47.36L64 340.704h47.36L98.688 416h31.424zm87.68-102.176h-70.816l19.232-115.2h70.816l-19.232 115.2zM384 128h512v288H384z" fill="#007EE6"/></symbol><symbol id="p2p" viewBox="0 0 1024 1024"><path d="M511.56 939.742 189.013 750.739h233.612c7.275 42.876 44.196 75.55 88.935 75.55s81.633-32.674 88.909-75.55h233.664L511.534 939.742zm-38.163-845.54-125.44 216.912a89.064 89.064 0 0 0-28.558-5.074 90.618 90.618 0 0 0-60.067 158.322l-117.855 203.76V288.667L473.397 94.2zm7.508 556.133L375.35 467.779a90.359 90.359 0 0 0 32.13-50.927h208.084a90.41 90.41 0 0 0 32.156 50.927L542.266 650.31a89.4 89.4 0 0 0-30.68-5.722 89.323 89.323 0 0 0-30.655 5.722zm30.888-561.39 136.625 236.46a90.41 90.41 0 0 0-34.175 60.844h-205.47a90.41 90.41 0 0 0-33.865-60.584l136.885-236.72zM146.759 720.112l138.36-239.231c10.564 4.375 22.11 6.861 34.28 6.861 10.252 0 19.935-2.071 29.127-5.23L454.367 665.56a90.359 90.359 0 0 0-31.742 54.552H146.76zm453.71 0a90.307 90.307 0 0 0-31.69-54.526L674.541 482.51c9.191 3.159 18.849 5.23 29.101 5.23 12.247 0 23.898-2.486 34.565-6.939L876.463 720.11H600.47zm281.173-52.248L763.943 464.155a90.644 90.644 0 0 0-60.3-158.115c-9.916 0-19.288 1.993-28.22 4.945L550.396 94.59l331.246 194.077v379.196zM522.615 27.61a21.904 21.904 0 0 0-22.085 0L108.596 257.261a21.852 21.852 0 0 0-10.822 18.9v459.251a21.92 21.92 0 0 0 10.822 18.9L500.53 983.963a21.826 21.826 0 0 0 22.085 0l391.986-229.65a21.955 21.955 0 0 0 10.797-18.9V276.135c0-7.767-4.143-14.94-10.797-18.875L522.615 27.611z" fill="#5FB86C"/><path d="M491.287 49.23 97.747 731.346l42.617 24.596L533.904 73.8zM654.4 433.758 506.874 689.43l42.616 24.596 147.5-255.671z" fill="#5FB86C"/><path d="m377.316 433.759 147.5 255.671-42.616 24.596-147.5-255.671zM534.06 49.229l380.957 669.975-42.772 24.312L491.287 73.54z" fill="#5FB86C"/><path d="M306.816 418.173h394.42V368.98h-394.42zM134.642 762.52h750.185v-49.193H134.642z" fill="#5FB86C"/></symbol><symbol id="pdm" viewBox="0 0 1204 1024"><path d="M1101.523 12.83h-998.34c-45.779 0-83.185 37.406-83.185 83.245v831.97c0 45.779 37.346 83.245 83.185 83.245h998.34c45.779 0 83.185-37.406 83.185-83.245V96.075c0-45.779-37.346-83.245-83.185-83.245zm1.927 926.359H94.81v-673.43h1008.7v673.43h-.12z" fill="#3F92FE"/><path d="M730.835 802.274v88.666H473.87v-88.666h256.964zm315.512 0v88.666H789.203v-88.666h257.205zM730.835 639.639v88.726H473.87v-88.787h256.964zm315.512 0v88.726H789.203v-88.787h257.205zM730.835 477.003v88.727H473.87v-88.666h256.964zm315.512 0v88.727H789.203v-88.666h257.205zM730.835 314.488v88.667H473.87v-88.667h256.964zm315.512 0v88.667H789.203v-88.667h257.205z" fill="#CAE1FF"/><path d="M415.503 802.274v88.666H158.298v-88.666h257.205zm0-487.786v88.667H158.298v-88.667h257.205z" fill="#84BAFF"/><path d="M415.503 477.064v88.666H158.298v-88.666zm0 162.514v88.787H158.298v-88.787z" fill="#FFB04B"/></symbol><symbol id="ping" viewBox="0 0 1024 1024"><path d="M238.08 506.88v194.56s-5.12 110.08 97.28 110.08c107.52 0 97.28-110.08 97.28-110.08V373.76S424.96 140.8 642.56 140.8s209.92 232.96 209.92 232.96v133.12H742.4v-128s10.24-112.64-99.84-112.64c-107.52 0-99.84 110.08-99.84 110.08l2.56 330.24s-7.68 230.4-209.92 230.4C115.2 936.96 125.44 704 125.44 704V506.88h112.64z" fill="#FFDBA4"/><path d="M309.76 453.12h-204.8c-2.56 0-5.12-2.56-5.12-5.12V199.68c0-2.56 2.56-5.12 5.12-5.12h204.8c2.56 0 5.12 2.56 5.12 5.12v250.88c-2.56 2.56-2.56 2.56-5.12 2.56zm609.28 258.56h-204.8c-2.56 0-5.12-2.56-5.12-5.12V455.68c0-2.56 2.56-5.12 5.12-5.12h204.8c2.56 0 5.12 2.56 5.12 5.12v250.88c0 5.12-2.56 5.12-5.12 5.12z" fill="#FFC8CE"/><path d="M803.84 294.4v74.24c0 7.68 5.12 12.8 12.8 12.8s12.8-5.12 12.8-12.8V294.4c0-5.12 0-71.68-46.08-117.76-28.16-28.16-66.56-43.52-117.76-43.52-84.48 0-125.44 48.64-145.92 89.6-20.48 43.52-20.48 87.04-20.48 87.04v309.76s7.68 92.16-43.52 145.92c-25.6 28.16-64 43.52-110.08 43.52-35.84 0-66.56-12.8-87.04-35.84-48.64-51.2-40.96-145.92-40.96-145.92V524.8c0-7.68-5.12-12.8-12.8-12.8s-12.8 5.12-12.8 12.8v99.84c0 7.68-5.12 104.96 48.64 163.84C266.24 816.64 302.08 832 345.6 832c53.76 0 97.28-17.92 128-51.2 56.32-61.44 51.2-156.16 48.64-163.84v-307.2s0-38.4 17.92-76.8c23.04-51.2 64-76.8 122.88-76.8 43.52 0 76.8 12.8 99.84 35.84 43.52 43.52 40.96 102.4 40.96 102.4z" fill="#333"/><path d="M919.04 435.2h-28.16V322.56c0-2.56 0-30.72-7.68-66.56-10.24-48.64-30.72-89.6-58.88-120.32-38.4-38.4-89.6-58.88-156.16-58.88S550.4 97.28 512 135.68c-28.16 30.72-48.64 71.68-58.88 120.32-7.68 35.84-7.68 61.44-7.68 66.56v327.68s2.56 43.52-23.04 71.68c-15.36 15.36-35.84 23.04-64 23.04-25.6 0-46.08-7.68-61.44-23.04-25.6-28.16-23.04-71.68-23.04-74.24V471.04h33.28c12.8 0 23.04-10.24 23.04-23.04V199.68c0-12.8-10.24-23.04-23.04-23.04H102.4c-12.8 0-23.04 10.24-23.04 23.04v250.88c0 12.8 10.24 23.04 23.04 23.04h33.28v179.2c0 2.56 0 30.72 5.12 64 10.24 48.64 30.72 89.6 58.88 120.32 38.4 40.96 92.16 61.44 158.72 61.44 87.04 0 153.6-43.52 192-122.88 28.16-58.88 30.72-117.76 30.72-120.32l-2.56-330.24S576 281.6 601.6 253.44c15.36-15.36 35.84-23.04 64-23.04s48.64 7.68 64 23.04c25.6 28.16 23.04 76.8 23.04 76.8V435.2H716.8c-12.8 0-23.04 10.24-23.04 23.04v250.88c0 12.8 10.24 23.04 23.04 23.04h204.8c12.8 0 23.04-10.24 23.04-23.04V458.24c-2.56-12.8-12.8-23.04-25.6-23.04zM120.32 215.04h40.96v48.64c0 7.68 5.12 12.8 12.8 12.8s12.8-5.12 12.8-12.8v-48.64h51.2v48.64c0 7.68 5.12 12.8 12.8 12.8s12.8-5.12 12.8-12.8v-48.64h33.28V435.2H120.32V215.04zm629.76 17.92c-20.48-20.48-46.08-30.72-81.92-30.72s-64 10.24-81.92 30.72c-33.28 35.84-30.72 84.48-30.72 89.6l2.56 330.24c0 2.56-2.56 58.88-28.16 110.08-33.28 71.68-89.6 107.52-168.96 107.52-58.88 0-107.52-17.92-140.8-53.76-61.44-64-56.32-166.4-56.32-166.4v-179.2h87.04v176.64c0 5.12-2.56 56.32 30.72 92.16 20.48 20.48 46.08 30.72 79.36 30.72 35.84 0 61.44-10.24 81.92-30.72 30.72-33.28 30.72-84.48 28.16-89.6V322.56s-2.56-102.4 58.88-168.96c33.28-35.84 79.36-51.2 138.24-51.2 58.88 0 104.96 17.92 138.24 51.2 61.44 64 58.88 166.4 58.88 168.96V435.2H780.8V327.68c0-7.68 2.56-58.88-30.72-94.72zm153.6 460.8H870.4V640c0-7.68-5.12-12.8-12.8-12.8s-12.8 7.68-12.8 12.8v53.76h-51.2V640c0-7.68-5.12-12.8-12.8-12.8S768 632.32 768 640v53.76h-40.96V473.6h174.08v220.16z" fill="#333"/></symbol><symbol id="pingcloud" viewBox="0 0 1024 1024"><path d="M512 13.653C236.77 13.653 13.653 236.77 13.653 512S236.77 1010.347 512 1010.347 1010.347 787.23 1010.347 512 787.23 13.653 512 13.653zm0 952.32c-250.723 0-453.973-203.25-453.973-453.973S261.277 58.027 512 58.027c250.72 0 453.973 203.25 453.973 453.973S762.72 965.973 512 965.973z" fill="#1296db"/><path d="M508.245 170.008h-36.84a2.901 2.901 0 0 0-2.901 2.905v306.906a2.899 2.899 0 0 0 2.901 2.901h36.84a2.899 2.899 0 0 0 2.902-2.9V172.91a2.901 2.901 0 0 0-2.902-2.902zm312.71 324.072h-349.55a2.901 2.901 0 0 0-2.901 2.901v36.84a2.902 2.902 0 0 0 2.901 2.905h349.55c1.604 0 2.904-1.3 2.904-2.905v-36.84a2.908 2.908 0 0 0-2.905-2.901zm-567 225.717v80.37h-27.76V585.151h61.078c23.228 0 41.247 5.601 54.067 16.797 12.814 11.196 19.224 27.208 19.224 48.026 0 21.101-7.496 38.195-22.487 51.289-14.991 13.096-33.73 19.271-56.218 18.534h-27.904zm0-110.217v85.788h25.679c16.933 0 29.795-3.82 38.591-11.452 8.79-7.632 13.186-18.575 13.186-32.826 0-27.669-16.38-41.506-49.139-41.506h-28.317zm139.367-17.073c0-4.81 1.642-8.861 4.929-12.145 3.283-3.287 7.332-4.929 12.144-4.929 4.905 0 9.046 1.622 12.425 4.861s5.065 7.311 5.065 12.213c0 4.813-1.69 8.817-5.065 12.008-3.38 3.195-7.52 4.789-12.425 4.789s-8.977-1.598-12.216-4.789c-3.24-3.191-4.857-7.195-4.857-12.008zm3.195 207.66V646.642h27.207v153.525h-27.207zm205.578 0h-27.068v-87.31c0-31.556-11.523-47.336-34.563-47.336-11.94 0-21.75 4.445-29.43 13.326-7.683 8.885-11.52 20.125-11.52 33.73v87.59h-27.208V646.642h27.208v25.402h.556c11.568-19.34 28.365-29.013 50.391-29.013 16.842 0 29.655 5.393 38.452 16.172 8.789 10.78 13.185 26.491 13.185 47.125v93.84zm178.647-12.909c0 56.818-27.58 85.231-82.729 85.231-19.067 0-35.628-3.564-49.698-10.69v-26.235c17.121 9.53 33.546 14.295 49.282 14.295 37.29 0 55.94-19.62 55.94-58.853v-16.244h-.556c-11.66 19.343-29.06 29.013-52.193 29.013-19.248 0-34.656-6.895-46.223-20.685-11.568-13.786-17.35-32.068-17.35-54.828 0-26.187 6.386-46.94 19.155-62.256 12.77-15.312 29.795-22.972 51.08-22.972 20.45 0 35.63 8.148 45.531 24.43h.557v-20.822h27.207v140.616zm-27.204-78.428c.088-11.844-3.888-22.023-11.94-30.536-8.049-8.513-17.954-12.773-29.703-12.773-14.807 0-26.33 5.441-34.563 16.31-8.24 10.878-12.357 25.8-12.357 44.765 0 16.289 3.98 29.478 11.94 39.564 7.957 10.087 18.507 15.132 31.645 15.132 13.234 0 24.06-4.813 32.485-14.435 8.42-9.623 12.585-21.839 12.493-36.646V708.83z" fill="#1296db"/></symbol><symbol id="ps" viewBox="0 0 1024 1024"><path d="M768 128H256a128 128 0 0 0-128 128v512a128 128 0 0 0 128 128h512a128 128 0 0 0 128-128V256a128 128 0 0 0-128-128z" fill="#50E6FF"/><path d="M768 853.333H256A85.333 85.333 0 0 1 170.667 768V256A85.333 85.333 0 0 1 256 170.667h512A85.333 85.333 0 0 1 853.333 256v512A85.333 85.333 0 0 1 768 853.333z" fill="#092347"/><path d="M309.483 327.936c0-2.261 1.642-4.16 3.882-4.416 8.534-.939 32.342-2.88 83.136-2.88 76.544 0 130.155 30.357 130.155 113.43 0 74.922-51.008 118.89-133.312 118.89h-25.941v125.483a3.806 3.806 0 0 1-3.798 3.797h-50.304a3.797 3.797 0 0 1-3.797-3.797V327.936zm57.92 172.267s25.322.17 31.04.17c46.997 0 68.373-27.861 68.373-65.194 0-34.966-20.779-62.23-64.213-62.23-17.899 0-35.179 1.024-35.179 1.024v126.23zm190.592 117.824c0-2.027 2.197-3.286 3.882-2.176 10.752 7.189 32.576 19.498 66.368 19.498 22.059 0 36.011-9.493 36.011-24.981 0-17.152-23.573-29.59-43.03-40.15-19.349-10.495-62.805-27.349-62.805-81.62 0-48.107 38.443-77.12 90.795-77.12 20.053 0 42.176 3.114 57.11 8.554a6.187 6.187 0 0 1 3.946 5.91v48.874c0 2.005-2.112 3.307-3.797 2.197-9.366-6.122-30.016-15.488-58.432-15.488-23.659 0-34.07 11.52-34.07 23.254 0 20.565 27.392 29.162 51.968 43.584 38.336 21.333 56.107 42.176 56.107 74.837 0 53.419-39.83 83.413-93.781 83.413-27.862 0-54.059-6.08-67.456-14.229a6.101 6.101 0 0 1-2.795-5.355l-.021-49.002z" fill="#FFF"/></symbol><symbol id="purine" viewBox="0 0 1024 1024"><path d="M774.8 327.8c-50.6-4.8-97.3 4.3-131 22.7 15.9 20.3 26.1 52.1 26.1 87.9 0 29.2-6.8 55.7-17.9 75.5 28.3 16.9 64.5 28.8 104.6 32.6 96.7 9.2 179.2-32.4 184.2-92.8s-69.3-116.7-166-125.9z" fill="#FFB89A"/><path d="m67.2 494 1 31c2.2 67.7 26.2 133.6 69.6 190.4 41.6 54.5 99.6 99.2 167.9 129.3 15.2 6.7 32.9-.2 39.5-15.4 6.7-15.2-.2-32.9-15.4-39.5-59-26-108.9-64.3-144.4-110.8-29-38-47.5-80.7-54.4-125h762.6c-7 44.8-25.8 87.9-55.4 126.3-36.1 46.8-86.8 85.2-146.8 110.9-15.2 6.5-22.2 24.2-15.7 39.4 4.9 11.4 15.9 18.2 27.6 18.2 4 0 8-.8 11.8-2.4 144.5-62.2 237-185.3 241.3-321.4l1-31H67.2z" fill="#45484C"/><path d="M591.9 800.1h-159c-35.2 0-64.1 28.8-64.1 64.1s28.8 64.1 64.1 64.1h159c35.2 0 64.1-28.8 64.1-64.1s-28.9-64.1-64.1-64.1zm0 68.1h-159c-2.1 0-4.1-2-4.1-4.1s2-4.1 4.1-4.1h159c2.1 0 4.1 2 4.1 4.1s-2 4.1-4.1 4.1z" fill="#45484C"/><path d="M498.1 373.5c-9.6-13.5-28.4-16.6-41.9-6.9-13.5 9.6-16.6 28.4-6.9 41.9 10.8 15.1 16.6 33 16.6 51.7 0 16.6 13.4 30 30 30s30-13.4 30-30c0-31.4-9.6-61.4-27.8-86.7zm-65.7-51.7c-17.7-7.1-36.3-10.7-55.5-10.7-82.2 0-149 66.8-149 149 0 16.6 13.4 30 30 30s30-13.4 30-30c0-49.1 39.9-89 89-89 11.5 0 22.6 2.1 33.1 6.4 15.4 6.2 32.8-1.3 39-16.7 6.2-15.4-1.2-32.9-16.6-39z" fill="#3C9"/><path d="M549.4 274.7c-46.7-45.6-107.7-70.8-171.8-70.8-64.1 0-125.1 25.1-171.8 70.8-46.1 45.1-74 106-78.6 171.4-1.2 16.5 11.3 30.9 27.8 32 16.5 1.1 30.9-11.3 32-27.8 3.5-50.8 25.1-97.9 60.7-132.7 35.4-34.6 81.5-53.7 129.9-53.7 48.3 0 94.5 19.1 129.9 53.7 35.6 34.8 57.1 81.9 60.7 132.7 1.1 15.8 14.3 27.9 29.9 27.9.7 0 1.4 0 2.1-.1 16.5-1.2 29-15.5 27.8-32-4.6-65.4-32.5-126.3-78.6-171.4zm345.7 111.2c-11.5-19.4-27.7-36.6-48.1-51.2l53.9-58.3c11.2-12.2 10.5-31.2-1.7-42.4s-31.2-10.5-42.4 1.7l-65 70.4c-5-1.8-10.1-3.5-15.3-5l82.4-159.2c7.6-14.7 1.9-32.8-12.9-40.4-14.7-7.6-32.8-1.9-40.4 12.9l-91.2 176.3c-5.5-.3-11.1-.5-16.7-.5-21.9 0-43.5 2.4-64.3 7.2-16.1 3.7-26.2 19.8-22.5 36 3.7 16.1 19.8 26.2 36 22.5 16.3-3.8 33.4-5.7 50.7-5.7 43.6 0 84.2 11.8 114.3 33.3 27.1 19.3 42 44 42 69.5 0 16.6 13.4 30 30 30s30-13.4 30-30c0-23.5-6.3-46.1-18.8-67.1z" fill="#45484C"/></symbol><symbol id="qrcode" viewBox="0 0 1024 1024"><path d="M449.536 150.244H167.799c-8.305 0-16.27 3.23-22.14 8.977a30.299 30.299 0 0 0-9.171 21.652v275.694c0 8.124 3.3 15.918 9.17 21.664a31.653 31.653 0 0 0 22.141 8.977h281.737c8.306 0 16.27-3.231 22.141-8.989 5.871-5.734 9.17-13.528 9.17-21.652V180.884c0-8.135-3.299-15.929-9.17-21.663a31.653 31.653 0 0 0-22.141-8.977zm-31.3 275.683H199.1V211.513h219.136v214.425zm31.3 122.539H167.799c-8.305 0-16.27 3.231-22.14 8.977a30.299 30.299 0 0 0-9.171 21.652V854.79c0 8.123 3.3 15.917 9.17 21.663a31.653 31.653 0 0 0 22.141 8.966h281.737c8.306 0 16.27-3.22 22.141-8.966 5.871-5.746 9.17-13.54 9.17-21.663V579.106c0-8.135-3.299-15.929-9.17-21.663a31.653 31.653 0 0 0-22.141-8.977zm-31.3 275.683H199.1V609.735h219.136v214.426zm438.272-673.905h-281.76c-8.305 0-16.27 3.23-22.14 8.977a30.299 30.299 0 0 0-9.171 21.652v275.694c0 8.124 3.3 15.918 9.17 21.664a31.653 31.653 0 0 0 22.141 8.977h281.737c8.306 0 16.27-3.231 22.141-8.989 5.871-5.734 9.17-13.528 9.17-21.652V180.884c0-8.135-3.299-15.929-9.17-21.663a31.653 31.653 0 0 0-22.141-8.977zm-31.312 275.683H606.06V211.513h219.136v214.425zM261.712 272.782h93.912v91.887h-93.912v-91.898zm0 398.222h93.912v91.887h-93.912v-91.898zm532.172-122.538h93.924v91.898h-93.924v-91.898zm0 245.054h-62.6v91.91h156.524V732.251h-93.924v61.27zm-250.424 0h93.912v91.91h-93.924v-91.91zm125.212-520.75h93.912v91.9h-93.912v-91.9zM543.448 548.467h93.924v91.898h-93.924v-91.898zm93.924 91.898h93.912v153.168h-93.912v-153.18z" fill="#8D9FB6"/><path d="M449.536 150.244H167.799c-8.305 0-16.27 3.23-22.14 8.977a30.299 30.299 0 0 0-9.171 21.652v275.694c0 8.124 3.3 15.918 9.17 21.664a31.653 31.653 0 0 0 22.141 8.977h281.737c8.306 0 16.27-3.231 22.141-8.989 5.871-5.734 9.17-13.528 9.17-21.652V180.884c0-8.135-3.299-15.929-9.17-21.663a31.653 31.653 0 0 0-22.141-8.977zm-31.3 275.683H199.1V211.513h219.136v214.425zm438.272-275.683h-281.76c-8.305 0-16.27 3.23-22.14 8.977a30.299 30.299 0 0 0-9.171 21.652v275.694c0 8.124 3.3 15.918 9.17 21.664a31.653 31.653 0 0 0 22.141 8.977h281.737c8.306 0 16.27-3.231 22.141-8.989 5.871-5.734 9.17-13.528 9.17-21.652V180.884c0-8.135-3.299-15.929-9.17-21.663a31.653 31.653 0 0 0-22.141-8.977zm-31.312 275.683H606.06V211.513h219.136v214.425zM261.712 272.782h93.912v91.887h-93.912v-91.898zm406.96 0h93.912v91.887h-93.912v-91.898z" fill="#B6C6DA"/><path d="M47.878 523.662a17.067 17.067 0 0 1 17.066-17.066h870.56a17.067 17.067 0 0 1 0 34.133H64.944a17.067 17.067 0 0 1-17.066-17.067z" fill="#D20909"/><path d="M839.452 56.889A11.378 11.378 0 0 1 850.83 45.51h93.526a34.133 34.133 0 0 1 34.133 34.133v91.023a11.378 11.378 0 0 1-22.756 0V79.644a11.378 11.378 0 0 0-11.377-11.377H850.83a11.378 11.378 0 0 1-11.378-11.378zm0 910.222a11.378 11.378 0 0 0 11.378 11.378h93.526a34.133 34.133 0 0 0 34.133-34.133v-91.023a11.378 11.378 0 0 0-22.756 0v91.023a11.378 11.378 0 0 1-11.377 11.377H850.83a11.378 11.378 0 0 0-11.378 11.378zM184.548 56.89a11.378 11.378 0 0 0-11.378-11.38H79.644a34.133 34.133 0 0 0-34.133 34.133v91.023a11.378 11.378 0 1 0 22.756 0V79.644a11.378 11.378 0 0 1 11.377-11.377h93.526a11.378 11.378 0 0 0 11.378-11.378zm0 910.222a11.378 11.378 0 0 1-11.378 11.378H79.644a34.133 34.133 0 0 1-34.133-34.133v-91.023a11.378 11.378 0 1 1 22.756 0v91.023a11.378 11.378 0 0 0 11.377 11.377h93.526a11.378 11.378 0 0 1 11.378 11.378z" fill="#468DE9"/></symbol><symbol id="regex" viewBox="0 0 1024 1024"><path d="M939.52 465.92c-19.968 0-35.84 15.872-35.84 35.84v261.12a56.158 56.158 0 0 1-56.32 56.32h-665.6a56.158 56.158 0 0 1-56.32-56.32V502.784c0-19.968-15.872-35.84-35.84-35.84s-35.84 15.872-35.84 35.84V762.88c0 70.656 57.344 128 128 128h665.6c70.656 0 128-57.344 128-128V501.76c0-19.968-15.872-35.84-35.84-35.84z" fill="#2cd7aa"/><path d="M189.952 653.312c0 19.968 10.752 30.208 32.768 30.208 19.968 0 31.232-10.24 32.768-30.208v-209.92l209.92 227.84c8.192 8.192 17.92 11.776 30.208 11.776 17.92 0 28.16-7.168 30.208-20.992 0-10.24-4.096-19.968-11.776-30.208L339.968 440.32h30.208c95.744-3.584 144.896-55.808 146.944-155.648-8.192-88.064-62.976-137.216-164.864-146.944H225.792c-26.112 0-37.888 11.776-35.84 35.84v479.744zM256 194.56h93.184c61.952 4.096 96.256 34.816 101.888 93.184 2.048 70.144-32.256 103.936-101.888 101.888H256V194.56zm366.08 488.96h195.072c19.968 0 31.232-10.24 32.768-30.208-2.048-19.968-12.8-31.232-32.768-32.768H652.288V440.32h150.016c19.968 0 31.232-10.24 32.768-30.208-2.048-19.968-12.8-31.232-32.768-32.768H652.288v-176.64h164.864c19.968 0 31.232-10.752 32.768-32.768-2.048-17.92-12.8-28.16-32.768-30.208H622.08c-26.112 0-37.888 11.776-35.84 35.84V647.68c-2.56 24.064 9.728 35.84 35.84 35.84z" fill="#2c6df8"/></symbol><symbol id="rmb" viewBox="0 0 1024 1024"><path d="M644.58 558.216H540.876v-54.107H644.58c19.163 0 34.38-15.217 34.38-34.38s-15.217-34.38-34.38-34.38h-86.232L671.07 300.647c12.4-14.654 10.145-36.635-4.51-49.034-14.653-12.4-36.634-10.145-49.033 4.509L506.496 389.133 394.902 256.122c-12.4-14.654-34.38-16.345-49.034-4.51-14.654 12.4-16.345 34.381-4.51 49.035L454.08 435.349h-85.668c-19.163 0-34.38 15.218-34.38 34.38s15.217 34.38 34.38 34.38h103.704v54.107H368.412c-19.163 0-34.38 15.217-34.38 34.38s15.217 34.38 34.38 34.38h103.704v118.358c0 19.163 15.217 34.38 34.38 34.38s34.38-15.217 34.38-34.38V626.976H644.58c19.163 0 34.38-15.217 34.38-34.38.564-18.6-15.217-34.38-34.38-34.38z" fill="#DD2634"/><path d="M924.13 120.856H98.443c-44.525 0-81.16 36.07-81.16 81.16v621.096c0 44.525 36.072 81.16 81.16 81.16h826.25c44.526 0 81.16-36.071 81.16-81.16V202.015c-.563-45.088-36.634-81.16-81.723-81.16zm30.998 667.876c0 40.016-33.253 72.142-73.832 72.142H141.278c-40.58 0-73.833-32.126-73.833-72.142V235.268c0-40.016 33.253-72.142 73.833-72.142h740.018c40.58 0 73.832 32.126 73.832 72.142v553.464zm-92.431 31.562c30.434 0 55.797-24.235 55.797-54.107v-74.96l-142.03 129.067h86.233zm0-618.279h-86.233l142.03 129.067v-74.397c0-30.435-24.799-54.67-55.797-54.67zM101.26 257.25v74.96l142.03-129.066h-86.232c-30.435 0-55.798 24.235-55.798 54.106zm0 509.502c0 29.871 24.8 54.106 55.798 54.106h86.232L101.26 691.791v74.96z" fill="#DD2634"/></symbol><symbol id="seal" viewBox="0 0 1024 1024"><path d="M197.341 853.333h685.195c22.25-2.275 19.975 4.551 19.975-19.974v-55.625c0-31.099-6.574-37.926-37.926-37.926H731.338a98.607 98.607 0 0 1-25.284-35.65c-77.874-86.724-33.374-144.624 15.676-224.774a202.272 202.272 0 0 0 25.284-35.65 241.462 241.462 0 0 0 31.1-120.1 251.322 251.322 0 1 0-502.645 0 247.024 247.024 0 0 0 53.349 153.474c53.349 84.449 140.073 153.474 0 262.448h-133.5a34.133 34.133 0 0 0-37.925 37.925v56.89c0 22.25 15.676 17.698 39.948 17.698zm742.843 37.926H119.72a19.974 19.974 0 0 0-19.975 19.975v19.974a19.974 19.974 0 0 0 19.975 19.974h818.44a19.974 19.974 0 0 0 19.974-19.974v-20.986a19.721 19.721 0 0 0-17.698-19.974zm0 0" fill="#365DA3"/></symbol><symbol id="sql" viewBox="0 0 1024 1024"><path d="M912 441.6h-48V252.8L678.4 64H252.8c-51.2 0-96 44.8-96 96v281.6H112c-25.6 0-48 22.4-48 48v281.6c0 25.6 22.4 48 48 48h48V864c0 51.2 41.6 92.8 92.8 92.8h518.4c51.2 0 92.8-41.6 92.8-92.8v-48h48c25.6 0 48-22.4 48-48V486.4c0-22.4-22.4-44.8-48-44.8zM204.8 160c0-25.6 22.4-48 48-48h377.6v92.8c0 51.2 41.6 92.8 92.8 92.8H816v140.8H204.8V160zm396.8 588.8c9.6 0 19.2 0 25.6-3.2l9.6 35.2c-9.6 3.2-22.4 6.4-41.6 6.4-48 0-83.2-25.6-99.2-64-51.2-9.6-86.4-54.4-86.4-124.8 0-80 44.8-124.8 108.8-124.8s108.8 44.8 108.8 124.8c0 67.2-32 108.8-80 121.6 12.8 22.4 35.2 28.8 54.4 28.8zm-368-89.6c16 16 41.6 25.6 60.8 25.6 25.6 0 38.4-9.6 38.4-28.8 0-19.2-16-22.4-35.2-32l-32-12.8c-25.6-9.6-48-28.8-48-64 0-38.4 35.2-70.4 83.2-70.4 28.8 0 57.6 9.6 76.8 32L352 537.6c-16-12.8-32-19.2-51.2-19.2-22.4 0-35.2 9.6-35.2 25.6s16 22.4 38.4 32l32 12.8c28.8 12.8 48 32 48 64 0 38.4-32 73.6-89.6 73.6-32 0-64-12.8-89.6-35.2l28.8-32zM819.2 864c0 25.6-22.4 48-48 48H252.8c-25.6 0-48-22.4-48-48v-48h614.4v48zm3.2-140.8H675.2v-240h48v201.6h99.2v38.4z" fill="#EA5C87"/><path d="M518.4 518.4c-35.2 0-57.6 32-57.6 83.2 0 54.4 22.4 86.4 57.6 86.4s57.6-32 57.6-86.4c3.2-51.2-19.2-83.2-57.6-83.2z" fill="#EA5C87"/></symbol><symbol id="ssl" viewBox="0 0 1024 1024"><path d="M959.147 87.04A2369.877 2369.877 0 0 0 512 0a1399.467 1399.467 0 0 0-238.933 31.403C200.02 48.469 129.707 68.267 64.17 87.04c0 542.379-52.566 677.547 379.562 915.115a120.15 120.15 0 0 0 136.534 0c435.882-232.79 379.904-345.43 378.88-915.115zM370.688 601.43a94.55 94.55 0 0 1-73.387 30.037 98.304 98.304 0 0 1-87.722-39.254 121.173 121.173 0 0 1-19.115-70.314h48.47a57.685 57.685 0 0 0 9.215 34.133 49.493 49.493 0 0 0 44.032 19.797 68.267 68.267 0 0 0 34.134-8.192 37.205 37.205 0 0 0 16.725-34.133 31.061 31.061 0 0 0-12.63-26.965 136.533 136.533 0 0 0-34.133-13.654l-23.21-9.216a153.259 153.259 0 0 1-54.614-25.6 90.795 90.795 0 0 1-24.576-70.656 111.957 111.957 0 0 1 17.408-63.829 87.723 87.723 0 0 1 78.848-36.523 88.064 88.064 0 0 1 77.142 37.547 116.053 116.053 0 0 1 20.138 68.267H337.58a64.17 64.17 0 0 0-8.534-29.696 47.104 47.104 0 0 0-42.325-19.115 49.152 49.152 0 0 0-29.355 8.192 35.84 35.84 0 0 0-14.336 31.061 34.133 34.133 0 0 0 9.216 25.6 43.35 43.35 0 0 0 17.408 8.534l60.758 19.456a104.448 104.448 0 0 1 45.738 25.941 88.064 88.064 0 0 1 19.798 62.123 109.91 109.91 0 0 1-25.259 76.458zm232.107 0a94.55 94.55 0 0 1-73.387 30.037 98.304 98.304 0 0 1-87.723-39.254 121.173 121.173 0 0 1-19.114-70.314h50.176a57.685 57.685 0 0 0 9.216 34.133 49.493 49.493 0 0 0 44.032 19.797 68.267 68.267 0 0 0 34.133-8.192 37.205 37.205 0 0 0 16.725-34.133 31.061 31.061 0 0 0-12.629-26.965 136.533 136.533 0 0 0-34.133-13.654l-26.966-8.192a153.259 153.259 0 0 1-54.613-25.6 90.795 90.795 0 0 1-24.576-70.656 111.957 111.957 0 0 1 19.797-64.512 87.723 87.723 0 0 1 78.507-36.864 88.064 88.064 0 0 1 77.141 37.547 116.053 116.053 0 0 1 20.139 68.267h-49.835a64.17 64.17 0 0 0-8.533-29.696 47.104 47.104 0 0 0-42.325-19.115 49.152 49.152 0 0 0-29.355 8.192 35.84 35.84 0 0 0-14.336 31.061 34.133 34.133 0 0 0 9.216 25.6 43.35 43.35 0 0 0 17.408 8.534l60.757 19.456a104.107 104.107 0 0 1 45.739 25.941 88.064 88.064 0 0 1 19.797 62.123 110.25 110.25 0 0 1-25.258 76.458zm241.322 21.503h-176.81V295.595h52.224V563.54h124.245z" fill="#E50012"/></symbol><symbol id="swagger" viewBox="0 0 1024 1024"><path d="M512 0C229.675 0 0 229.675 0 512s229.675 512 512 512c282.283 0 512-229.675 512-512S794.283 0 512 0zm0 48.81c255.787 0 463.19 207.36 463.19 463.19 0 255.787-207.36 463.19-463.19 463.19-255.83 0-463.19-207.36-463.19-463.19C48.81 256.17 256.17 48.81 512 48.81zM357.12 250.369a286.165 286.165 0 0 0-18.048.213c-41.941 2.39-67.115 22.059-74.027 62.806-4.906 28.373-4.096 57.514-6.101 86.058-.555 14.934-2.133 29.739-4.907 44.288-5.717 25.984-16.938 34.048-43.349 35.414a113.067 113.067 0 0 0-10.41 1.792v62.421c48.042 2.347 54.527 19.285 58.453 69.504 1.408 18.304-.555 36.608.64 54.912.768 17.323 3.114 34.475 6.656 51.2 11.05 45.867 55.765 61.227 109.866 51.968v-54.741c-8.661 0-16.341.213-23.808 0-18.346-.555-25.216-5.12-26.965-22.827-2.39-22.827-1.792-46.08-3.2-69.12-2.73-42.71-7.467-84.821-49.195-112 21.462-15.787 37.035-34.645 41.942-59.648 3.541-17.493 5.717-35.03 7.082-52.779 1.195-17.706-.981-35.84.598-53.333 2.56-28.373 4.352-39.979 38.4-38.827 5.12 0 10.026-.725 15.744-1.152v-55.893c-6.827 0-13.227-.17-19.371-.256zm323.968.384a181.205 181.205 0 0 0-34.688 2.56v54.357c10.453 0 18.517 0 26.581.214 13.995.17 24.619 5.546 26.027 21.077 1.365 14.165 1.323 28.544 2.73 42.923 2.774 28.544 4.31 57.472 9.26 85.632 4.351 23.21 20.266 40.533 40.149 54.741-34.859 23.424-45.099 56.875-46.848 94.507-.982 25.77-1.579 51.754-2.944 77.738-1.195 23.638-9.472 31.318-33.28 31.915-6.699.17-13.227.768-20.651 1.195v55.68c13.952 0 26.752.81 39.552 0 39.765-2.347 63.787-21.632 71.68-60.246a505.204 505.204 0 0 0 5.888-64.17c1.365-19.67 1.195-39.552 3.157-59.051 2.944-30.507 16.939-43.093 47.446-45.099a41.472 41.472 0 0 0 8.49-1.962V480.34c-5.12-.597-8.704-1.152-12.416-1.365-22.869-.981-34.304-8.661-39.978-30.293a219.563 219.563 0 0 1-6.486-42.368c-1.578-26.368-1.408-52.95-3.157-79.36-3.413-50.859-33.877-74.795-80.512-76.203zm-293.973 225.28a36.01 36.01 0 0 0-3.542 71.85h2.347a35.413 35.413 0 0 0 37.419-33.28v-1.962a36.053 36.053 0 0 0-35.414-36.608zm124.202 0a34.475 34.475 0 0 0-35.584 33.28c0 1.152 0 2.133.171 3.328 0 21.461 14.592 35.243 36.65 35.243 21.633 0 35.243-14.166 35.243-36.395-.213-21.461-14.592-35.67-36.48-35.456zm126.422 0a36.736 36.736 0 0 0-37.376 35.627c0 20.053 16.128 36.224 36.224 36.224h.384c18.133 3.157 36.394-14.379 37.589-35.414.981-19.498-16.725-36.437-36.821-36.437z" fill="#85ea2d"/></symbol><symbol id="symbol" viewBox="0 0 1024 1024"><path d="M512 0C380.343 0 63.634 150.309 63.634 448c0 397.97 251.612 457.801 251.612 457.801H117.76S0 818.03 0 767.927V1024h433.006V905.801A740.279 740.279 0 0 1 256 448c0-266.167 141.897-384 256-384m0-64c131.657 0 447.634 150.309 447.634 448 0 397.97-250.88 457.801-250.88 457.801H905.51S1024 818.03 1024 767.927V1024H590.994V905.801A740.279 740.279 0 0 0 768 448c0-266.167-141.897-384-256-384" fill="#efb336"/></symbol><symbol id="textoimage" viewBox="0 0 1024 1024"><path d="M755.072 657.067a124.245 124.245 0 0 0 109.653-62.08 126.293 126.293 0 0 0 0-126.72 124.245 124.245 0 0 0-109.653-62.08c-67.84 1.28-122.197 57.045-122.197 125.44s54.357 124.16 122.197 125.44zm202.24-358.4H66.688C29.568 298.667 0 329.899 0 368.299v586.069C0 992.768 29.525 1024 66.688 1024h890.624c37.12 0 66.688-31.232 66.688-69.632v-586.07c0-38.4-29.525-69.631-66.688-69.631zM683.562 692.18c-12.245 0-20.906 6.102-30.805 14.507l-45.013 40.405c-9.387 7.168-16.896 11.99-27.648 11.99a38.528 38.528 0 0 1-26.496-10.454 335.232 335.232 0 0 1-10.368-10.496l-129.493-148.48a51.797 51.797 0 0 0-40.235-19.2c-16.128 0-31.061 8.448-40.448 19.926L71.083 929.664v-529.45c2.432-17.366 15.189-29.91 31.573-29.91h818.475c16.64 0 30.08 13.056 31.061 30.635l.683 529.152-238.55-222.08a40.192 40.192 0 0 0-30.72-15.872zM128 0h725.333v85.333H128z" fill="#3882F5"/><path d="M0 128h469.333v42.667H0zm554.667 0H1024v42.667H554.667zM0 213.333h469.333V256H0zm554.667 0H1024V256H554.667z" fill="#9DC6FF"/></symbol><symbol id="tiny" viewBox="0 0 1024 1024"><path d="M358.4 614.4H51.2C20.48 614.4 0 634.88 0 665.6v307.2c0 30.72 20.48 51.2 51.2 51.2h307.2c30.72 0 51.2-20.48 51.2-51.2V665.6c0-30.72-20.48-51.2-51.2-51.2zm-51.2 307.2H102.4V716.8h204.8v204.8z" fill="#ea9518"/><path d="M972.8 0H51.2C20.48 0 0 20.48 0 51.2v409.6C0 491.52 20.48 512 51.2 512s51.2-20.48 51.2-51.2V102.4h819.2v819.2H563.2c-30.72 0-51.2 20.48-51.2 51.2s20.48 51.2 51.2 51.2h409.6c30.72 0 51.2-20.48 51.2-51.2V51.2c0-30.72-20.48-51.2-51.2-51.2z" fill="#ea9518"/><path d="M768 563.2c30.72 0 51.2-20.48 51.2-51.2s-20.48-51.2-51.2-51.2H634.88l168.96-168.96c20.48-20.48 20.48-51.2 0-71.68-20.48-20.48-51.2-20.48-71.68 0L563.2 389.12V256c0-30.72-20.48-51.2-51.2-51.2s-51.2 20.48-51.2 51.2v256c0 30.72 20.48 51.2 51.2 51.2h256z" fill="#ea9518"/></symbol><symbol id="tv" viewBox="0 0 1263 1024"><path d="M0 0h1263.66v827.915H0V0z" fill="#38454F"/><path d="M304.193 348.596h-63.706a22.615 22.615 0 0 1-22.615-22.615v-63.706c0-12.484 10.131-22.615 22.615-22.615h63.706c12.484 0 22.616 10.13 22.616 22.615v63.706c0 12.484-10.132 22.615-22.616 22.615" fill="#61B972"/><path d="M543.853 348.596h-63.706a22.615 22.615 0 0 1-22.615-22.615v-63.706c0-12.484 10.131-22.615 22.615-22.615h63.706c12.484 0 22.615 10.13 22.615 22.615v63.706c0 12.484-10.131 22.615-22.615 22.615" fill="#48A0DC"/><path d="M783.513 348.596h-63.706a22.615 22.615 0 0 1-22.616-22.615v-63.706c0-12.484 10.132-22.615 22.616-22.615h63.706c12.484 0 22.615 10.13 22.615 22.615v63.706c0 12.484-10.131 22.615-22.615 22.615" fill="#ECBA16"/><path d="M1023.172 348.596h-63.706a22.615 22.615 0 0 1-22.615-22.615v-63.706c0-12.484 10.131-22.615 22.615-22.615h63.706c12.484 0 22.615 10.13 22.615 22.615v63.706c0 12.484-10.13 22.615-22.615 22.615" fill="#BF4D90"/><path d="M304.193 588.255h-63.706a22.615 22.615 0 0 1-22.615-22.615v-63.706c0-12.484 10.131-22.615 22.615-22.615h63.706c12.484 0 22.616 10.131 22.616 22.615v63.706c0 12.484-10.132 22.615-22.616 22.615" fill="#DD342E"/><path d="M543.853 588.255h-63.706a22.615 22.615 0 0 1-22.615-22.615v-63.706c0-12.484 10.131-22.615 22.615-22.615h63.706c12.484 0 22.615 10.131 22.615 22.615v63.706c0 12.484-10.131 22.615-22.615 22.615" fill="#A4E869"/><path d="M783.513 588.255h-63.706a22.615 22.615 0 0 1-22.616-22.615v-63.706c0-12.484 10.132-22.615 22.616-22.615h63.706c12.484 0 22.615 10.131 22.615 22.615v63.706c0 12.484-10.131 22.615-22.615 22.615" fill="#50508A"/><path d="M1023.172 588.255h-63.706a22.615 22.615 0 0 1-22.615-22.615v-63.706c0-12.484 10.131-22.615 22.615-22.615h63.706c12.484 0 22.615 10.131 22.615 22.615v63.706c0 12.484-10.13 22.615-22.615 22.615" fill="#BE7C6D"/><path d="M653.617 958.638V827.915h-43.574v130.723H326.809V1024H936.85v-65.362H653.617" fill="#B0B6BB"/></symbol><symbol id="vector" viewBox="0 0 1024 1024"><path d="M512 501.077V384H394.923A192 192 0 1 1 512 501.077z" fill="#00DB84"/><path d="M896 853.333H512L704 512z" fill="#979797"/><path d="M128 426.667h341.333V768H128z" fill="#007AFF"/></symbol><symbol id="video" viewBox="0 0 1024 1024"><path d="M876.27 428.442H368.368l497.527-157.287c38.776-12.015 60.075-53.52 48.06-92.296L885.01 86.562c-12.015-38.775-53.521-60.075-92.296-48.06L119.876 250.948c-38.775 12.015-60.074 53.521-48.06 92.297l28.946 92.296a66.402 66.402 0 0 0 9.83 19.661c-12.561 14.2-20.207 32.768-20.207 52.975v401.408c0 44.237 36.045 80.282 80.282 80.282H876.27c44.237 0 80.282-36.045 80.282-80.282V508.177c0-44.237-36.045-79.735-80.282-79.735zM821.659 98.03c2.184 1.638 4.369 3.823 5.46 6.554l28.946 92.296c2.185 6.554-1.638 13.653-8.192 15.838l-45.33 14.2L821.659 98.03zm-173.67 49.698 77.004-24.576-20.207 134.349-77.005 24.576 20.207-134.349zM473.77 202.89l77.004-24.576L530.57 312.66l-77.005 24.576L473.77 202.89zM182.68 422.98l-7.645 2.185c-6.554 2.184-13.654-1.639-15.838-8.192l-29.491-91.75c-2.185-6.554 1.638-13.654 8.192-15.838l64.443-20.207-19.66 133.802zm96.666-30.583 20.207-134.349 77.005-24.576-20.207 134.349-77.005 24.576zM617.95 734.822 488.516 846.234c-8.192 7.1-19.114 10.376-30.037 10.376-5.461 0-10.923-1.092-16.384-2.73-15.838-5.462-26.214-18.57-26.214-33.315V597.743c0-14.746 10.376-27.853 26.214-33.314s33.86-2.73 45.875 7.646l129.434 111.41c16.93 14.2 16.93 37.138.546 51.337z" fill="#F6AA00"/></symbol><symbol id="vsc" viewBox="0 0 1024 1024"><path d="M928.32 160.96 743.808 72.128a55.744 55.744 0 0 0-63.648 10.816L76.16 633.6a37.312 37.312 0 0 0-2.56 52.704c.8.864 1.6 1.696 2.464 2.464l49.312 44.8a37.28 37.28 0 0 0 47.648 2.112L900.544 184A37.056 37.056 0 0 1 960 213.504v-2.144a55.936 55.936 0 0 0-31.68-50.4z" fill="#0065A9"/><path d="m928.32 863.04-184.512 88.864a55.84 55.84 0 0 1-63.648-10.816L76.16 390.4a37.312 37.312 0 0 1-2.56-52.704c.8-.864 1.6-1.696 2.464-2.464l49.312-44.8a37.28 37.28 0 0 1 47.744-2.112L900.544 840A37.056 37.056 0 0 0 960 810.496v2.304a55.968 55.968 0 0 1-31.68 50.24z" fill="#007ACC"/><path d="M743.808 951.904a55.84 55.84 0 0 1-63.648-10.816 32.8 32.8 0 0 0 55.84-23.2V106.112a32.768 32.768 0 0 0-55.968-23.168 55.808 55.808 0 0 1 63.648-10.848L928.16 160.8A55.936 55.936 0 0 1 960 211.2v601.6a55.936 55.936 0 0 1-31.712 50.432z" fill="#1F9CF0"/></symbol><symbol id="wallpaper" viewBox="0 0 1024 1024"><path d="M143.73 493.357h349.115V31.927c0-21.297-24.269-44.484-41.512-23.968l-298.07 423.933c-20.776 33.266-27.692 61.465-9.532 61.465z" fill="#33D413"/><path d="M530.275 144.216v349.141h461.43c21.311 0 44.498-24.254 23.968-41.51L591.754 153.734c-33.266-20.777-61.48-27.68-61.48-9.519z" fill="#FFCB30"/><path d="M879.128 530.637H529.973v461.43c0 21.297 24.269 44.498 41.512 23.968l298.111-423.933c20.79-33.266 27.693-61.465 9.532-61.465z" fill="#FF1843"/><path d="M493.708 881.517V532.362H32.276c-21.296 0-44.483 24.269-23.967 41.512l423.933 298.111c33.212 20.79 61.466 27.693 61.466 9.532z" fill="#18ABFF"/></symbol><symbol id="weather" viewBox="0 0 1024 1024"><path d="M524 432c-6 0-10.5-4.5-10.5-10.5S518 411 524 411h105.5c6 0 10.5 4.5 10.5 10.5s-4.5 10.5-10.5 10.5H524z" fill="#FFA726"/><path d="M246.5 422.5a128 128 0 1 0 256 0 128 128 0 1 0-256 0Z" fill="#EF6C00"/><path d="M656.5 400.5c41 0 79 15 109.5 39 30 24 52.5 57.5 63.5 95 20.5 15.5 36.5 35 48 57.5 12 23.5 18.5 50.5 18.5 80 0 48.5-18.5 93-49 125-30 31.5-72 51-119 51H347.5c-24.5.5-54.5 1-75.5-5.5-28-8-51.5-25.5-68-48s-26-50.5-26-81c0-7.5.5-14.5 2-21.5 5.5-34 24.5-63.5 50-84 25-20.5 57-33 89-33h5.5c4-20.5 11.5-40 22.5-57 13.5-20.5 31.5-36.5 53.5-45.5 21-8.5 43.5-10 64.5-5 15.5 3.5 31 10.5 44 20.5 14.5-24 34-44.5 57-60 26.5-17.5 57.5-28 91.5-28l-1 .5z" fill="#26A69A"/><path d="M893 704c-6 36-22.5 68.5-46.5 93-30 31.5-72 51-119 51H347c-24.5.5-54.5 1-75.5-5.5-28-8-51.5-25.5-68-48s-26-50.5-26-81c0-3.5 0-6.5.5-9.5h715.5-.5z" fill="#229D91"/><path d="M365.5 168c0-6 4.5-10.5 10.5-10.5s10.5 4.5 10.5 10.5v105.5c0 6-4.5 10.5-10.5 10.5s-10.5-4.5-10.5-10.5V168zm-176 81.5c-4-4-4-11 0-15s11-4 15 0L279 309c4 4 4 11 0 15s-11 4-15 0l-74.5-74.5zM548 235c4-4 11-4 15 0s4 11 0 15l-74.5 74.5c-4 4-11 4-15 0s-4-11 0-15L548 235zM253.5 515c4-4 11-4 15 0s4 11 0 15L194 604.5c-4 4-11 4-15 0s-4-11 0-15l74.5-74.5zm-131-83c-6 0-10.5-4.5-10.5-10.5s4.5-10.5 10.5-10.5H228c6 0 10.5 4.5 10.5 10.5S234 432 228 432H122.5z" fill="#FFA726"/></symbol><symbol id="whois" viewBox="0 0 1024 1024"><path d="M221.997 589.489 179.31 431.727 135.692 589.49c-3.712 12.064-5.568 20.416-8.352 25.984s-5.568 10.208-10.208 13.92-11.136 6.496-19.488 6.496c-6.496 0-12.064-.928-16.704-3.712s-7.424-5.568-10.208-10.208-4.64-10.208-6.496-15.776c-1.856-6.496-2.784-12.064-4.64-17.632L15.979 411.31c-2.784-10.208-3.712-18.56-3.712-23.2a25.353 25.353 0 0 1 25.056-25.056c9.28 0 16.705 2.784 19.489 9.28 3.712 6.496 6.496 14.848 8.352 26.912L99.5 553.297l38.976-143.842c2.784-11.136 5.568-19.488 7.424-25.056s5.568-11.136 11.137-14.848c5.568-4.64 12.064-6.496 21.344-6.496s15.776 1.856 21.344 6.496c4.64 4.64 8.352 9.28 10.208 13.92 1.856 5.568 4.64 13.92 7.424 25.984l38.977 143.841 34.336-154.05c1.856-8.351 3.712-13.92 4.64-18.56 1.856-4.64 3.712-8.351 7.424-12.063s9.28-5.568 15.776-5.568 12.992 1.856 17.632 6.496 7.424 10.208 7.424 17.632c0 4.64-.928 12.992-3.712 23.2l-43.616 177.25c-2.784 12.064-5.568 20.416-7.424 25.984-1.856 5.568-5.568 10.208-10.208 14.848s-11.136 6.496-20.416 6.496c-8.353 0-14.849-1.856-19.489-6.496-4.64-3.712-8.352-8.352-10.208-13.92s-3.712-12.992-6.496-25.056zM406.671 392.75v73.313c6.496-7.425 12.064-12.993 18.56-16.705 5.568-4.64 12.064-7.424 19.488-9.28s14.848-2.784 23.2-2.784c12.065 0 23.2 2.784 33.409 8.352 9.28 5.568 17.632 12.992 23.2 23.2 3.712 5.569 5.568 12.065 7.424 19.489.928 7.424 1.856 15.776 1.856 25.056v93.729c0 10.208-1.856 17.632-6.496 22.272s-10.208 7.424-17.632 7.424c-15.776 0-24.128-10.208-24.128-29.696v-82.593c0-15.776-2.784-27.84-7.424-36.192s-13.92-12.992-26.913-12.992c-8.352 0-16.704 2.784-23.2 7.424-7.424 4.64-12.064 12.064-15.776 20.416-2.784 7.424-3.712 20.416-3.712 38.976v64.96c0 9.281-1.856 16.705-6.496 22.273-4.64 4.64-10.208 7.424-18.56 7.424-15.776 0-24.128-10.208-24.128-29.696V393.679c0-10.208 1.856-17.632 6.496-22.272s10.208-7.424 17.632-7.424c7.424 0 13.92 2.784 18.56 7.424 2.784 3.712 4.64 11.136 4.64 21.344zm339.651 142.913c0 14.848-1.856 27.84-6.496 40.833s-11.136 23.2-19.488 31.552c-8.352 9.28-18.56 15.776-30.624 20.416s-25.057 7.424-40.833 7.424c-14.848 0-27.84-2.784-39.904-7.424s-22.272-12.064-30.624-20.416-14.848-19.488-19.489-31.552c-4.64-12.064-6.496-25.985-6.496-40.833s1.856-28.768 6.496-40.832c4.64-12.064 11.137-23.2 19.489-31.552 8.352-8.353 18.56-15.777 30.624-20.417s25.056-7.424 39.904-7.424 28.769 2.784 40.833 7.424c12.064 4.64 22.272 12.064 31.552 20.417s14.848 19.488 19.488 31.552c3.712 12.992 5.568 25.984 5.568 40.832zm-49.184 0c0-20.416-4.64-35.264-12.992-46.4-9.28-11.136-20.417-16.704-35.265-16.704-9.28 0-17.632 2.784-25.056 7.424s-12.992 12.064-16.704 22.272c-3.712 9.28-5.568 21.344-5.568 34.336 0 12.992 1.856 24.128 5.568 33.409 3.712 9.28 9.28 16.704 16.704 22.272 7.424 4.64 15.776 7.424 25.984 7.424 14.848 0 26.913-5.568 35.265-16.704 7.424-12.064 12.064-27.84 12.064-47.329z" fill="#3C3D3D"/><path d="M791.795 413.167c-6.496 0-12.992-1.856-17.632-6.496s-7.425-10.208-7.425-17.632c0-6.496 2.785-12.992 7.425-17.632s11.136-6.496 17.632-6.496 12.064 1.856 16.704 6.496c4.64 3.712 7.424 10.208 7.424 17.632s-2.784 13.92-7.424 17.632c-4.64 3.712-10.208 6.496-16.704 6.496zm24.128 50.113v141.985c0 10.208-2.784 17.632-7.424 22.272s-10.208 7.424-17.632 7.424-12.992-2.784-17.632-7.424c-4.64-5.568-6.497-12.992-6.497-22.272v-140.13c0-9.28 1.857-16.704 6.497-22.272 4.64-4.64 10.208-7.424 17.632-7.424s12.992 2.784 17.632 7.424c4.64 5.568 7.424 12.064 7.424 20.417zm190.242 107.649c0 13.92-3.712 25.056-10.208 35.264-6.496 9.28-16.704 16.704-28.769 22.272-12.992 4.64-28.768 7.424-47.328 7.424-17.632 0-32.48-2.784-45.472-8.352s-22.273-12.064-27.84-20.416c-5.569-8.352-9.28-15.776-9.28-24.128 0-5.568 1.855-10.208 5.567-13.92s8.352-5.568 14.848-5.568c5.568 0 9.28.928 12.064 3.712s5.569 6.496 8.353 10.208c4.64 8.352 11.136 14.848 17.632 19.488 7.424 4.64 16.704 6.496 28.768 6.496 10.208 0 17.632-1.856 24.128-6.496 6.496-4.64 9.28-9.28 9.28-14.848 0-8.352-3.712-14.848-10.208-18.56-6.496-3.713-17.632-7.425-32.48-11.137-16.704-4.64-30.624-8.352-40.832-12.992-10.209-4.64-19.489-11.136-25.057-18.56-6.496-7.424-9.28-16.704-9.28-27.84 0-10.208 2.784-19.488 9.28-27.84 5.568-8.353 14.848-15.777 25.985-21.345 11.136-5.568 25.056-7.424 41.76-7.424 12.992 0 24.128.928 34.336 3.712 10.208 2.784 18.56 6.496 25.057 10.208 6.496 4.64 12.064 9.28 15.776 14.849s5.568 11.136 5.568 15.776c0 5.568-1.856 10.208-5.568 13.92s-9.28 5.568-15.776 5.568c-4.64 0-9.28-1.856-12.993-4.64s-7.424-7.424-12.064-12.992c-3.712-4.64-8.352-8.352-12.992-11.136-4.64-2.784-12.064-4.64-20.416-4.64-9.28 0-16.704 1.856-22.272 5.568-5.568 3.712-9.28 8.352-9.28 13.92s1.856 9.28 6.496 12.992 10.208 5.568 17.632 8.352c7.424 1.856 17.632 4.64 30.624 8.352 14.848 3.712 27.84 8.352 37.12 12.992 9.28 5.568 16.705 11.136 22.273 18.56 3.712 6.496 5.568 14.848 5.568 23.2z" fill="#E05A50"/></symbol><symbol id="xml" viewBox="0 0 1024 1024"><path d="M870.4 1024H153.6a51.2 51.2 0 0 1-51.2-51.2V51.2A51.2 51.2 0 0 1 153.6 0h569.685a42.667 42.667 0 0 1 30.038 12.288l155.989 155.99a42.667 42.667 0 0 1 12.288 30.037V972.8a51.2 51.2 0 0 1-51.2 51.2zM153.6 34.133A17.067 17.067 0 0 0 136.533 51.2v921.6a17.067 17.067 0 0 0 17.067 17.067h716.8a17.067 17.067 0 0 0 17.067-17.067V198.315a7.168 7.168 0 0 0-2.39-5.803L729.088 36.522a7.168 7.168 0 0 0-5.803-2.389z" fill="#4D4D4D"/><path d="M904.533 204.8H733.867a17.067 17.067 0 0 1-17.067-17.067V17.067h34.133v153.6h153.6z" fill="#4D4D4D"/><path d="M204.8 170.667h443.733V204.8H204.8zm0 136.533h614.4v34.133H204.8zm0 136.533h614.4v34.134H204.8zm0 136.534h614.4V614.4H204.8zm0 273.066h614.4v34.134H204.8zm0-136.533h614.4v34.133H204.8z" fill="#B3B3B3"/><path d="M68.267 460.8h887.466q17.067 0 17.067 17.067v273.066Q972.8 768 955.733 768H68.267Q51.2 768 51.2 750.933V477.867q0-17.067 17.067-17.067Z" fill="#4295E5"/><path d="M955.733 477.867v273.066H68.267V477.867h887.466m0-34.134H68.267a34.133 34.133 0 0 0-34.134 34.134v273.066a34.133 34.133 0 0 0 34.134 34.134h887.466a34.133 34.133 0 0 0 34.134-34.134V477.867a34.133 34.133 0 0 0-34.134-34.134z" fill="#267ACB"/><path d="m308.907 614.4-55.638-84.31h31.062l40.96 63.489h2.048l41.642-63.488h29.355L341.333 614.4l55.979 83.968h-30.72l-41.301-62.123L281.6 698.71h-29.013zm278.869 84.31V576.852l-49.493 117.76h-19.798l-50.858-117.76V698.71H443.05V530.091h30.72l53.589 129.024h2.048l50.859-129.024h30.378v168.618zm183.637 0h-105.13V530.09h26.282v144.385h78.848z" fill="#FFF"/></symbol><symbol id="zoning" viewBox="0 0 1075 1024"><path d="M521.726 337.676h-61.849c-32.42 61.35-64.343 111.228-71.326 121.702l-14.464 22.944-14.964-22.944c-6.983-10.474-38.905-60.352-71.326-121.702h-77.31l-19.952 168.09 414.987-9.976zM737.7 498.782a867.881 867.881 0 0 1 191.034 87.287V365.607S663.38 480.827 737.699 498.782zm66.837-116.715c0-7.482-214.975-41.897-214.975-41.897l82.797 134.67a1282.37 1282.37 0 0 0 132.178-92.773zM356.13 535.193H172.08l-45.888 158.114h153.126l76.813-158.114zm92.773 28.431A268.844 268.844 0 0 0 331.69 670.862a315.73 315.73 0 0 1 232.433 220.96H794.56a862.893 862.893 0 0 1 166.593-202.505S811.52 536.191 641.434 536.191a498.782 498.782 0 0 0-192.53 27.433z" fill="#3FA9F5"/><path d="m131.18 736.203-3.492 82.299 276.824 3.491 118.71 49.38-118.71-135.17H131.18z" fill="#3FA9F5"/><path d="M1009.037 309.744a42.895 42.895 0 0 0-42.397-37.908H470.85a337.676 337.676 0 0 0 40.402-119.707 137.165 137.165 0 0 0-274.33 0 337.676 337.676 0 0 0 40.4 119.707H156.12a42.895 42.895 0 0 0-42.397 34.915L10.474 873.368a42.895 42.895 0 0 0 42.397 49.878h384.561a1904.35 1904.35 0 0 0 370.595 85.292 42.396 42.396 0 0 0 24.44-7.98 1488.865 1488.865 0 0 0 220.462-199.514 42.895 42.895 0 0 0 10.475-33.917zM265.85 152.129a108.236 108.236 0 1 1 216.97 0c0 46.885-69.83 171.082-108.236 234.427-38.905-63.345-108.734-187.043-108.734-234.427zM850.424 933.72l-262.36-6.484c-68.832-18.455-126.69-36.91-138.661-40.9a40.401 40.401 0 0 0-12.969 0H52.871l-2.993-5.487 103.248-566.616a3.491 3.491 0 0 1 3.492-2.494h142.651c28.93 53.37 57.86 99.756 64.343 110.23l11.971 18.955 11.97-18.954c5.986-9.976 35.414-56.363 64.344-110.231H966.64a3.491 3.491 0 0 1 3.492 2.993l49.878 408.004A538.186 538.186 0 0 0 850.424 933.72z" fill="#3FA9F5"/></symbol><symbol id="beian" viewBox="0 0 1024 1024"><path d="M150.699 123.392a64 64 0 0 0-44.032 60.8v464.341c0 16.555 6.4 32.512 17.92 44.416C294.059 868.693 424.533 955.947 512 955.947s217.941-87.296 387.413-262.998a64 64 0 0 0 17.92-44.416V184.192a64 64 0 0 0-44.032-60.8C752.768 83.797 632.363 64 512 64s-240.768 19.797-361.301 59.392zm-13.312-40.533C262.144 41.813 387.072 21.333 512 21.333s249.856 20.48 374.613 61.526A106.667 106.667 0 0 1 960 184.192v464.341a106.667 106.667 0 0 1-29.867 74.027C753.024 906.197 614.912 998.613 512 998.613c-102.912 0-241.024-92.416-418.133-276.053A106.667 106.667 0 0 1 64 648.533V184.192a106.667 106.667 0 0 1 73.387-101.333z" fill="#409EFF"/><path d="M673.792 467.968V691.2h-35.328v-22.528H386.56V691.2h-35.328V467.968h322.56zM386.56 636.928h108.032v-54.272H386.56v54.272zm142.848 0h109.056v-54.272H529.408v54.272zM386.56 552.96h108.032v-54.272H386.56v54.272zm142.848-54.272v54.272h109.056v-54.272H529.408zm-85.504-283.136 36.352 8.192c-7.68 12.288-15.872 23.552-24.064 34.304h208.384v28.16c-31.744 38.912-70.144 71.68-115.2 99.328 55.296 23.552 120.32 39.936 196.096 50.176L729.6 468.48c-83.968-12.8-155.648-33.792-215.04-63.488-62.464 31.232-136.192 53.76-220.672 67.584l-15.872-32.256c76.8-10.752 143.36-29.184 200.704-54.784a405.12 405.12 0 0 1-81.408-64c-22.528 20.48-46.592 38.4-72.192 54.784l-23.552-28.672a433.835 433.835 0 0 0 142.336-132.096zm-24.576 84.992c25.6 26.112 56.832 48.64 93.696 68.096 40.96-22.528 76.288-48.64 105.984-78.336h-189.44l-10.24 10.24z" fill="#409EFF"/></symbol><symbol id="bmi" viewBox="0 0 1024 1024"><path d="M511.2 66.2c-245.8 0-445.8 200-445.8 445.8s200 445.8 445.8 445.8S957 757.8 957 512 757 66.2 511.2 66.2zm0 835.9c-215.1 0-390.1-175-390.1-390.1 0-215.1 175-390.1 390.1-390.1 215.1 0 390.1 175 390.1 390.1 0 215.1-175 390.1-390.1 390.1z" fill="#81D31B"/><path d="M391.2 505.7c21.6-10 32.3-25.8 32.3-47.3 0-6.3-1-12.2-3.1-17.9-4.2-11.3-12.1-20.8-22.5-27-6-3.6-12.8-6.1-20.3-7.4-7.6-1.3-16.5-1.9-26.8-1.9H281c-9.3 0-16.1 2.1-20.2 6.2-4.2 4.2-6.2 11-6.2 20.5v162c0 9.3 2 16.1 6.1 20.4 4.1 4.3 10.9 6.4 20.4 6.4H347c10 .1 19.9-.5 29.8-1.6 7.8-.9 15.4-2.9 22.7-5.8 10.3-4.4 19-11.9 25-21.4 6.2-9.7 9.3-20.5 9.3-32.6-.1-26-14.3-43.6-42.6-52.6zM298.3 437h35.4c15.9 0 27.7 1.8 35.4 5.4 7.7 3.6 11.6 10.8 11.6 21.7.1 4.9-1.2 9.6-3.7 13.8-2.8 5.5-7.7 9.8-13.6 11.8-5.9 2.1-14.3 3.1-25.2 3.1h-40V437zm46.9 150h-46.9v-62.9h45.4c15.2 0 26.6 2.4 34.3 7.3 7.6 4.9 11.5 12.8 11.5 23.7 0 21.3-14.8 31.9-44.3 31.9zm416.5-179.9c-4.1-4.4-10-6.8-16-6.5-6.4 0-11.5 2.2-15.5 6.6-4 4.4-6 11-6 19.8v169.8c0 8.8 2 15.5 6.1 19.9 4.1 4.5 9.2 6.7 15.5 6.7 6 .2 11.9-2.2 16-6.6 4.1-4.4 6.1-11.1 6.1-20V427c-.1-8.9-2.2-15.6-6.2-19.9zm-91.5 2c-4.9-3.3-11.5-4.9-19.9-4.9h-13.5c-8.1 0-14.1.7-17.7 2.2-3.7 1.4-6.6 4.3-8.2 7.9-1.8 3.8-3.8 10-6 18.7l-31.3 118.1L542.2 433c-2.3-8.6-4.3-14.9-6-18.7-1.8-3.8-4.5-6.5-8.1-7.9-3.7-1.5-9.6-2.2-17.7-2.2h-13.5c-8.3 0-14.9 1.6-19.8 4.9-4.9 3.3-7.4 9.6-7.4 19.1v170.5c0 8.3 1.9 14.5 5.6 18.6 3.7 4.1 9 6.3 14.4 6.1 5.5.2 10.9-2.1 14.6-6.2 3.7-4.1 5.5-10.3 5.5-18.5V449.9l34.5 137.4c1.1 4.5 2.3 8.8 3.4 13 1 4 2.6 7.8 4.6 11.4 2 3.5 4.7 6.3 8.2 8.5 3.5 2.2 7.8 3.3 13 3.3 6.7 0 12-1.7 15.9-5.2 3.6-3.1 6.3-7 7.9-11.4 1.4-4.2 3.3-10.7 5.5-19.6l34.6-137.4v148.8c0 8.2 1.9 14.4 5.6 18.5 3.6 4.1 8.8 6.4 14.3 6.2 5.6.2 11-2 14.8-6.2 3.7-4.1 5.5-10.3 5.5-18.5V428.2c-.1-9.4-2.5-15.8-7.4-19.1z" fill="#81D31B"/><path d="M511.2 149.8C311.1 149.8 149 311.9 149 512c0 200 162.2 362.2 362.2 362.2S873.4 712 873.4 512c0-200.1-162.2-362.2-362.2-362.2zm0 696.6c-184.4 0-334.4-150-334.4-334.4 0-184.4 150-334.4 334.4-334.4 184.4 0 334.4 150 334.4 334.4 0 184.3-150 334.4-334.4 334.4z" fill="#81D31B"/></symbol><symbol id="boot" viewBox="0 0 1024 1024"><path d="M166.153 797.842v6.573h-67.7V680.27l-2.099 6.865-64.744-19.789 36.572-119.621-4.5 6.674L7.554 516.54l70.131-103.964-6.689 5.413-42.604-52.608 100.927-81.718-12.898 4.944-24.264-63.196 120.55-46.272-14.089.99-4.721-67.534 126.209-8.828-11.395-2.623 15.234-65.965 120.56 27.83-7.597-4.384L470.76 0l105.154 60.704-4.09-4.389 49.51-46.166 81.884 87.802-1.745-3.582 60.85-29.67 52.531 107.696-.479-3.016 66.873-10.593 19.698 124.378 1.402-8.853 66.868 10.593-19.996 126.24 4.944-10.14 60.85 29.676-56.34 115.505 8.232-8.827 49.515 46.17-87.534 93.86 10.598-6.118 33.847 58.625-110.027 63.523 11.072-2.557 15.23 65.96-121.584 28.066 9.372.656-4.726 67.529-121.7-8.51 6.204 2.38-24.263 63.206-116.494-44.718 7.365 5.963L481.167 1024l-96.156-77.86 4.747 7.038-56.128 37.857-68.734-101.895 2.043 6.683-64.775 19.805-36.016-117.786zm0-80.442 42.286-12.923 32.864 107.474 36.562-24.656 62.484 92.634 27.91-34.463 86.601 70.121 15.491-40.35 104.363 40.053 3.057-43.705 111.671 7.809-10.048-43.522 109.472-25.273-22.684-39.285 97.718-56.41-33.469-31.205 77.189-82.767-41.177-20.082 49.641-101.774-45.04-7.133 17.705-111.757-43.069 6.82-17.69-111.707-38.791 18.916-49.283-101.038-31.618 29.48-76.266-81.775-21.821 37.793-96.539-55.735-9.977 43.21-108.605-25.07 3.153 45.09-111.48 7.794 16.48 42.937-104.973 40.295 28.248 34.871-88.13 71.357 37.193 25.086-63.534 94.187 42.812 13.085-33.187 108.54h44.48V717.4zm149.63-414.019h136.53c15.86 0 31.628 1.12 47.316 3.36 15.688 2.245 29.479 6.724 41.373 13.448 11.895 6.72 20.95 16.117 27.154 28.183 6.205 12.066 7.93 28.097 5.17 48.088-2.759 20.681-10.946 37.832-24.565 51.452-13.62 13.62-30.251 23.355-49.904 29.217v1.034c11.723 1.725 22.15 5.084 31.285 10.088 9.14 4.994 16.636 11.375 22.498 19.128 5.861 7.759 9.998 16.808 12.409 27.149 2.421 10.34 2.759 21.378 1.039 33.096-2.76 19.305-9.135 35.421-19.138 48.35a118.845 118.845 0 0 1-36.198 31.285c-14.135 7.93-29.651 13.62-46.545 17.065-16.898 3.445-33.443 5.17-49.646 5.17H264.583l51.2-366.113zm59.992 146.342h58.439c6.204 0 12.409-.686 18.613-2.069a60.35 60.35 0 0 0 17.328-6.719 42.004 42.004 0 0 0 13.443-12.409c3.622-5.175 5.952-11.38 6.986-18.618 1.034-7.587.252-13.877-2.33-18.876a27.845 27.845 0 0 0-11.118-11.637c-4.827-2.755-10.432-4.742-16.808-5.943a101.391 101.391 0 0 0-18.876-1.816h-54.816l-10.86 78.087zM354.57 601.234h72.401c6.205 0 12.672-.686 19.396-2.068a55.286 55.286 0 0 0 18.361-7.239 53.48 53.48 0 0 0 14.477-13.443c4.137-5.518 6.724-12.237 7.758-20.167 1.035-8.62-.171-15.602-3.621-20.944-3.446-5.347-8.273-9.393-14.478-12.152-6.204-2.759-13.014-4.656-20.43-5.69a151.945 151.945 0 0 0-20.943-1.548h-61.032l-11.894 83.251zm389.226-292.041L658.202 621.93l-70.7-4.958 53.287-322.45 103.006 14.67zm-74.626 345.36-22.246 110.496-94.036-27.38 21.534-106.007 94.748 22.89z" fill="#00B4F4"/></symbol><symbol id="browser" viewBox="0 0 1030 1024"><path d="M1024 524.8v57.6H364.8c0 115.2 96 198.4 204.8 198.4 70.4 0 147.2-38.4 179.2-102.4h236.8c-64 179.2-236.8 300.8-428.8 300.8-70.4 0-140.8-19.2-198.4-51.2-64 32-153.6 64-224 64C38.4 992 0 934.4 0 844.8c0-51.2 12.8-102.4 25.6-153.6 6.4-32 44.8-96 64-128C166.4 441.6 256 320 371.2 224 288 262.4 192 352 128 422.4c44.8-204.8 230.4-352 441.6-352h25.6c70.4-32 166.4-64 243.2-64 89.6 0 172.8 32 172.8 140.8 0 44.8-19.2 108.8-44.8 160 38.4 64 57.6 140.8 57.6 217.6zm-38.4-358.4c0-64-44.8-102.4-108.8-102.4-51.2 0-102.4 19.2-147.2 38.4 96 38.4 172.8 102.4 217.6 185.6 25.6-38.4 38.4-83.2 38.4-121.6zM83.2 864c0 64 38.4 102.4 102.4 102.4 51.2 0 108.8-19.2 147.2-51.2-96-57.6-166.4-140.8-198.4-243.2-25.6 57.6-51.2 128-51.2 192zm281.6-403.2h409.6c0-108.8-102.4-185.6-204.8-185.6S371.2 352 364.8 460.8z" fill="#1c87d2"/></symbol><symbol id="chain" viewBox="0 0 1024 1024"><path d="M912.32 448a89.92 89.92 0 0 0-71.52-26.08 76.8 76.8 0 0 1-67.467-67.52 90.133 90.133 0 0 0-113.28-94.827 97.867 97.867 0 0 1-60.853-60.64A90.133 90.133 0 1 0 422.4 183.2a76.8 76.8 0 0 1-67.573 67.467 90.187 90.187 0 1 0-7.787 180.266 92.32 92.32 0 0 0 23.307-3.04 106.347 106.347 0 0 1 60.853 60.8 90.133 90.133 0 0 0 94.933 113.12 76.907 76.907 0 0 1 67.574 67.68 90.667 90.667 0 0 0 2.773 31.307 96.907 96.907 0 0 1-23.307 37.333 98.24 98.24 0 0 1-37.333 23.307 89.013 89.013 0 0 0-31.413-2.773 76.907 76.907 0 0 1-67.574-67.68 90.133 90.133 0 1 0-82.026 82.346 76.8 76.8 0 0 1 67.68 67.574 90.187 90.187 0 1 0 176.96-15.467 106.347 106.347 0 0 1 60.853-60.853 92.267 92.267 0 0 0 23.307 3.04 90.133 90.133 0 1 0-7.734-179.947A76.8 76.8 0 0 1 608 519.893a90.133 90.133 0 0 0-89.6-97.92 88.853 88.853 0 0 0-23.627 3.147 98.08 98.08 0 0 1-60.533-60.693 88.907 88.907 0 0 0 2.773-31.414 76.907 76.907 0 0 1 67.68-67.573 89.28 89.28 0 0 0 31.04-2.773 106.027 106.027 0 0 1 60.747 60.746A90.08 90.08 0 0 0 683.467 436.8a72.907 72.907 0 0 0 7.893-.373 76.907 76.907 0 0 1 67.573 67.68A90.133 90.133 0 1 0 912.32 448zm-547.893-89.92a24.48 24.48 0 1 1 7.146-17.28 24.48 24.48 0 0 1-7.146 17.28zm-.374 342.24a24.48 24.48 0 1 1 7.147-17.28 24.427 24.427 0 0 1-7.147 17.28zm165.334 165.333a24.48 24.48 0 1 1 7.146-17.28 24.48 24.48 0 0 1-7.2 17.227zm136.746-205.76a24.48 24.48 0 1 1-7.146 17.28 24.427 24.427 0 0 1 7.093-17.333zM518.08 487.413A24.48 24.48 0 1 1 493.653 512a24.48 24.48 0 0 1 24.427-24.587zM512 200a24.48 24.48 0 1 1 24.48-24.48A24.48 24.48 0 0 1 512 200zm188.267 163.893a24.48 24.48 0 1 1 7.36-17.226 24.427 24.427 0 0 1-7.147 17.226zM865.6 529.227A24.48 24.48 0 1 1 872.907 512a24.427 24.427 0 0 1-7.147 17.173z" fill="#707070"/><path d="M239.467 448a90.667 90.667 0 1 0 0 127.467 90.08 90.08 0 0 0 0-127.467zm-46.4 81.173A24.48 24.48 0 1 1 200.213 512a24.48 24.48 0 0 1-7.146 17.173z" fill="#707070"/></symbol><symbol id="code" viewBox="0 0 1241 1024"><path d="M781.432 558.578H459.933a50.55 50.55 0 0 0-49.394 38.996v.867a3.61 3.61 0 0 1 0 .866 50.55 50.55 0 0 0 13.72 46.506l127.603 127.748a50.933 50.933 0 1 0 71.854-72.215l-41.524-41.523h199.6a50.55 50.55 0 0 0 50.551-50.55 50.55 50.55 0 0 0-50.911-50.695z" fill="#F04F2D"/><path d="M1139.687 0H101.533A101.606 101.606 0 0 0 0 101.533v820.934A101.606 101.606 0 0 0 101.533 1024h1038.154a101.606 101.606 0 0 0 101.534-101.533V101.533A101.606 101.606 0 0 0 1139.687 0zm0 470.405a51.922 51.922 0 0 0-6.788-4.406L917.484 250.367a50.76 50.76 0 0 0-71.71 71.854L1035.483 512 845.92 701.852a50.68 50.68 0 0 0 71.637 71.709l214.621-214.838a50.55 50.55 0 0 0 7.222-4.766V922.25H101.533V549.19l.434.434a50.55 50.55 0 0 0 12.565 9.17l214.838 214.84a50.709 50.709 0 0 0 71.709-71.71L211.299 512l189.924-189.924a50.911 50.911 0 1 0-72.214-71.78l-215.2 215.703a49.106 49.106 0 0 0-11.626 8.738l-.65.65V101.533h1038.154z" fill="#999"/><path d="M409.022 414.583a50.55 50.55 0 0 0 50.55 50.55h321.499a50.55 50.55 0 0 0 49.394-38.996v-.866a3.61 3.61 0 0 1 0-.867 50.55 50.55 0 0 0-13.72-46.506L689.647 250.439a50.911 50.911 0 1 0-71.78 72.215l41.523 41.523H459.789a50.55 50.55 0 0 0-50.767 50.406z" fill="#F04F2D"/></symbol><symbol id="csharp" viewBox="0 0 1024 1024"><path d="M633.344 226.272h81.696v81.696h81.76v-81.696h81.664v81.696H960v81.664h-81.6v81.632H960v81.696h-81.632v81.664H796.8v-81.6h-81.6v81.664h-81.824v-81.6H551.68V471.2h81.696v-81.472H551.68v-81.824h81.728zm81.696 245.056h81.76v-81.696h-81.76zM470.048 768.416a326.4 326.4 0 0 1-148.896 29.28 243.2 243.2 0 0 1-188.48-74.752A282.848 282.848 0 0 1 64 523.744a301.952 301.952 0 0 1 77.184-215.008 261.792 261.792 0 0 1 200.288-82.464 355.2 355.2 0 0 1 128.576 20.416v119.84a217.92 217.92 0 0 0-119.136-33.152 153.376 153.376 0 0 0-118.4 48.928 188.128 188.128 0 0 0-45.024 132.544 184.768 184.768 0 0 0 42.496 127.744 145.632 145.632 0 0 0 114.4 47.584 233.216 233.216 0 0 0 125.664-35.456z" fill="#368832"/></symbol><symbol id="dashboard" viewBox="0 0 1420 1024"><path d="M1282.109 974.485c44.456-90.071 69.438-191.474 69.438-298.708C1351.547 302.557 1048.997 0 675.769 0 302.558 0 0 302.558 0 675.777c0 107.226 24.982 208.629 69.438 298.708h1212.67z" fill="#4B9CD3"/><path d="M149.354 803.097h122.43q36.725 0 36.725 36.724v.008q0 36.725-36.724 36.725H149.354q-36.724 0-36.724-36.725v-.008q0-36.724 36.724-36.724Z" fill="#FFF"/><path d="M665.984 974.485h617.01s129.768-237.5 26.932-523.967c-102.837-286.466-379.51-396.656-379.51-396.656l-264.44 920.623z" fill="#686464" fill-opacity=".2"/><path d="M149.354 803.097h122.43q36.725 0 36.725 36.724v.008q0 36.725-36.724 36.725H149.354q-36.724 0-36.724-36.725v-.008q0-36.724 36.724-36.724Zm487.243-506.829V173.837q0-36.724 36.724-36.724h.008q36.725 0 36.725 36.724v122.43q0 36.725-36.725 36.725h-.008q-36.724 0-36.724-36.724ZM197.513 474.969l46.2 29.06q31.086 19.554 11.532 50.64l-.005.007q-19.553 31.086-50.64 11.532l-46.198-29.06q-31.086-19.555-11.533-50.64l.005-.007q19.554-31.086 50.64-11.532Zm954.899 91.235 46.2-29.06q31.085-19.554 11.531-50.64l-.004-.007q-19.554-31.086-50.64-11.532l-46.199 29.06q-31.086 19.554-11.532 50.64l.004.007q19.554 31.086 50.64 11.532ZM387.323 247.272l37.142 39.992q24.992 26.909-1.918 51.9l-.006.006q-26.909 24.992-51.9-1.918l-37.142-39.992q-24.992-26.909 1.917-51.9l.006-.006q26.91-24.991 51.901 1.918Zm597.411 89.985 37.142-39.992q24.991-26.91-1.918-51.9l-.006-.006q-26.909-24.992-51.9 1.917l-37.143 39.992q-24.991 26.91 1.918 51.901l.006.006q26.91 24.991 51.9-1.918Zm99.933 465.84h122.43q36.725 0 36.725 36.724v.008q0 36.725-36.724 36.725h-122.431q-36.725 0-36.725-36.725v-.008q0-36.724 36.725-36.724Zm-306.979.467c-57.447 47.983-88.791 108.804-151.311 33.954s-1.184-94.074 56.262-142.058 341.537-217.729 362.476-192.658c20.932 25.063-209.989 252.779-267.427 300.762z" fill="#FFF"/><path d="M661.088 778.606a39.173 39.173 0 1 0 78.345 0 39.173 39.173 0 1 0-78.345 0Z" fill="#4B9CD3"/></symbol><symbol id="db" viewBox="0 0 1024 1024"><path d="M512 803.84c-225.28 0-409.6-61.44-409.6-138.24v220.16C107.52 962.56 286.72 1024 512 1024c220.16 0 404.48-61.44 409.6-138.24V665.6c0 76.8-184.32 138.24-409.6 138.24z" fill="#5F6190"/><path d="M512 542.72c-225.28 0-409.6-61.44-409.6-138.24v220.16c5.12 76.8 184.32 138.24 409.6 138.24 220.16 0 404.48-61.44 409.6-138.24V404.48c0 76.8-184.32 138.24-409.6 138.24z" fill="#5F6190"/><path d="M921.6 138.24C921.6 61.44 737.28 0 512 0S102.4 61.44 102.4 138.24V358.4c5.12 76.8 184.32 138.24 409.6 138.24 220.16 0 404.48-61.44 409.6-138.24V138.24zM512 235.52c-168.96 0-307.2-46.08-307.2-102.4S343.04 30.72 512 30.72s307.2 46.08 307.2 102.4-138.24 102.4-307.2 102.4z" fill="#1BC4DB"/></symbol><symbol id="detect" viewBox="0 0 1024 1024"><path d="m961.685 886.827-82.643-82.556c-9.972-10.03-23.256-15.544-37.45-15.544-14.166 0-27.451 5.514-37.421 15.544-20.646 20.676-20.646 54.314 0 75.02l82.555 82.643c9.941 10.06 23.256 15.544 37.422 15.544 14.163 0 27.479-5.603 37.537-15.632 20.647-20.705 20.647-54.343 0-75.019zM46.831 468.947c0 54.842 10.381 108.305 30.939 158.981 21.204 52.378 52.349 99.359 92.703 139.685 40.354 40.295 87.306 71.558 139.655 92.791 50.619 20.499 104.052 30.939 158.923 30.939 54.725 0 108.275-10.44 158.895-30.939 52.377-21.233 99.329-52.496 139.653-92.791 40.267-40.325 71.528-87.307 92.732-139.685 20.529-50.677 30.939-104.14 30.939-158.981 0-54.87-10.41-108.333-30.939-159.011-21.204-52.378-52.378-99.36-92.732-139.684-40.236-40.295-87.276-71.559-139.653-92.791-50.619-20.5-104.053-30.94-158.895-30.94-54.871 0-108.304 10.44-158.923 30.94-52.349 21.232-99.301 52.496-139.655 92.791-40.236 40.324-71.499 87.306-92.703 139.684-20.558 50.678-30.939 104.141-30.939 159.011m658.888 233.678-1.612 1.612c-62.849 62.73-146.253 97.336-235.056 97.336-88.832 0-172.354-34.605-235.085-97.453-62.73-62.847-97.365-146.253-97.365-235.084 0-88.802 34.635-172.237 97.365-235.085 62.848-62.848 146.253-97.424 235.085-97.424 88.362 0 171.563 34.283 234.41 96.897l2.258 1.084v1.173c61.792 62.614 95.754 145.404 95.754 233.472 0 88.07-33.962 170.829-95.754 233.472z" fill="#F18D19"/><path d="M644.515 434.225c-22.202 0-42.965 15.191-49.563 36.336l-12.435 40.089-82.203-232.387c-12.111-34.4-54.871-38.711-74.11-8.212L313.266 449.005h-88.274c-19.678 0-35.69 15.954-35.69 35.544 0 19.62 15.895 35.574 35.574 35.574h96.075c18.828 0 38.506-10.763 48.565-26.716l84.168-133.233 92.586 264.412c13.753 38.8 64.049 36.952 76.043-1.525l36.689-117.601h42.084c19.679 0 35.691-15.925 35.691-35.544s-16.013-35.574-35.604-35.574h-56.658v-.117z" fill="#F18D19"/></symbol><symbol id="dice" viewBox="0 0 1024 1024"><path d="M421.376 486.4s117.248 24.576 175.104-8.704c0 0-89.6 70.144-89.6 166.4.512-.512-8.192-121.344-85.504-157.696zm17.408 487.936s68.608 6.656 68.608-80.896c0 0 3.072 88.576 65.024 78.336 0 .512-50.688 22.016-133.632 2.56zM161.28 243.2s-30.208 65.536 11.264 91.648c0 0-67.072-17.408-81.408 37.376 0 0 8.704-82.944 70.144-129.024zm696.32-10.752s49.152 50.176 1.024 81.408c0 0 58.88-18.432 66.56 36.352 0 0 5.12-69.632-67.584-117.76z" fill="#343399"/><path d="M443.392 975.872c-5.632 0-10.752-1.024-15.36-3.072L157.184 815.616l-1.536-1.024s-1.024-1.024-4.608-2.56c-51.2-29.184-62.976-94.208-65.536-120.832V391.68c0-3.072.512-7.168 1.024-11.264l.512-3.584 1.024-2.56c19.456-50.688 76.8-51.2 103.936-44.032l-1.536 5.632 4.096-6.144 281.6 161.792 18.944 37.888c20.992 36.864 29.184 77.824 32.768 99.84v258.048c-4.608 56.32-36.864 76.288-55.808 82.944-1.024.512-15.36 5.632-28.672 5.632zM181.248 779.776l263.168 152.576c12.288-.512 36.864-6.656 40.448-48.128V633.856c-4.608-31.744-20.992-103.936-72.192-128L322.56 450.56l1.536 3.072L181.76 371.2c-2.048-.512-40.448-9.216-52.736 15.872-.512 2.56-.512 4.608-.512 6.144v294.4c1.536 16.896 9.728 67.072 43.52 86.528 3.584 2.048 6.656 4.096 9.216 5.632z" fill="#343399"/><path d="M837.632 218.112c6.656 4.096 12.8 7.168 18.432 10.752l1.536 1.024 1.536 1.536c5.12 4.096 10.752 9.216 16.384 15.36 6.144 11.776 5.632 33.28 4.608 49.152-1.024 12.288-6.656 30.208-26.624 44.544l-1.024.512-247.808 156.672c-26.624 14.336-62.976 18.432-96.256 18.432-40.96 0-77.824-6.656-89.088-8.704l-3.072-.512-245.248-142.336c-39.424-29.696-28.16-85.504-15.36-113.664l2.56-6.144 263.68-166.912c29.184-14.336 104.448-43.008 173.056-1.024 3.584 2.56 58.368 34.304 119.296 69.632M431.616 465.92c40.448 7.168 114.176 13.824 152.576-6.144L828.928 304.64c7.168-5.632 8.192-10.24 8.704-12.8 1.024-11.264-9.728-26.624-15.36-32.768-55.808-32.256-243.712-141.312-250.368-145.408-49.664-30.72-107.008-9.216-130.048 2.56L192.512 273.92c-4.096 12.288-12.288 42.496 3.584 55.808l235.52 136.192z" fill="#343399"/><path d="M831.488 304.128c4.096-1.024 38.4-11.264 66.048 6.144 7.168 4.608 17.92 11.776 24.064 24.576 1.024 5.632 4.096 10.752 4.608 16.896v2.048l-1.024 323.072c-5.12 35.328-22.528 91.648-77.312 125.44l-5.12 3.584h-1.024L579.584 971.776l-4.608.512c-4.096.512-8.704 1.024-12.8 1.024-15.872 0-30.208-5.12-41.984-14.848-24.576-20.48-32.768-55.808-35.328-73.728l-1.024-252.928h1.536c6.144-96.768 88.576-164.864 96.768-171.008l-.512-.512L829.44 304.64M528.384 872.448c.512 10.24 5.12 41.472 19.968 53.76 3.072 2.56 7.68 5.632 16.384 5.12L829.44 763.392c56.32-38.4 53.76-115.712 53.76-116.224l-.512-32.256 1.024-250.368h-.512c-1.536-12.8-7.168-16.384-8.704-17.408-8.704-5.632-23.552-3.072-28.672-2.048L610.304 494.08c-1.024.512-80.896 65.024-80.896 149.504h-1.536l.512 228.864z" fill="#343399"/><path d="M435.2 269.312c0 27.648 31.744 50.176 71.168 50.176s71.168-22.528 71.168-50.176-31.744-50.176-71.168-50.176-71.168 22.528-71.168 50.176zm228.352 518.656c0 30.72-22.528 67.072-49.664 80.384-27.648 13.824-50.176-.512-50.176-31.232s22.528-67.072 50.176-80.384c27.136-13.824 49.664 0 49.664 31.232zm96.768-180.224c0 30.72-22.528 67.072-49.664 80.384-27.648 13.824-49.664-.512-49.664-31.232s22.528-67.072 49.664-80.384c27.136-13.824 49.664.512 49.664 31.232zm107.52-174.592c0 30.72-22.528 67.072-49.664 80.384C790.528 527.36 768 513.024 768 482.304s22.528-67.072 50.176-80.384c27.136-13.824 49.664 0 49.664 31.232zm-596.992 110.08c0 30.72-22.016 41.984-48.64 24.576-27.136-16.896-48.64-55.808-48.64-86.528 0-30.72 22.016-41.984 48.64-24.576 26.624 16.896 48.64 55.808 48.64 86.528zm161.28 285.184c0 30.72-22.016 41.984-48.64 24.576-26.624-17.408-48.64-55.808-48.64-86.528 0-30.72 22.016-41.984 48.64-24.576 26.624 16.896 48.64 55.808 48.64 86.528z" fill="#F59D0D"/></symbol><symbol id="dictionary" viewBox="0 0 1024 1024"><path d="M885.333 785.92c0-45.227 32-82.773 74.667-91.307v-465.92c0-94.293-76.373-170.666-170.667-170.666H234.667C140.373 58.027 64 134.4 64 228.693V783.36c0 94.293 76.373 170.667 170.667 170.667H960v-76.374c-42.667-8.96-74.667-46.933-74.667-91.733zm-608-514.987H704c23.467 0 42.667 19.2 42.667 42.667s-19.2 42.667-42.667 42.667H277.333c-23.466 0-42.666-19.2-42.666-42.667s19.2-42.667 42.666-42.667zm0 213.334H704c23.467 0 42.667 19.2 42.667 42.666S727.467 569.6 704 569.6H277.333c-23.466 0-42.666-19.2-42.666-42.667s19.2-42.666 42.666-42.666zm524.8 339.626c-3.84 1.28-8.533 2.134-12.8 2.134H234.667c-23.467 0-42.667-19.2-42.667-42.667s19.2-42.667 42.667-42.667h554.666c4.694 0 8.96.854 12.8 2.134-8.106 11.946-12.8 26.026-12.8 40.533 0 14.507 4.694 28.16 12.8 40.533z" fill="#F9C27F"/></symbol><symbol id="diff" viewBox="0 0 1024 1024"><path d="M684.672 909.76h151.723c24.64 0 44.65-16.661 44.65-37.163v-63.509c0-20.501-20.01-37.163-44.65-37.163H684.672c-24.619 0-44.65 16.662-44.65 37.163v63.51c0 20.48 20.01 37.162 44.65 37.162zm-.235-219.264h294.934c24.64 0 44.629-16.661 44.629-37.163v-63.466c0-20.544-19.99-37.206-44.63-37.206H684.673c-24.619 0-44.65 16.662-44.65 37.206v63.466c0 20.502 20.01 37.163 44.415 37.163zm.235-219.2H962.24c24.597 0 44.608-16.683 44.608-37.205v-63.446c0-20.522-20.01-37.162-44.608-37.162H684.672c-24.619 0-44.65 16.64-44.65 37.162v63.446c0 20.522 20.01 37.205 44.65 37.205zm0-219.221h185.536c24.619 0 44.63-16.662 44.63-37.184v-63.446c0-20.522-20.011-37.184-44.63-37.184H684.672c-24.619 0-44.65 16.662-44.65 37.184v63.446c0 20.501 20.01 37.184 44.65 37.184z" fill="#3D8DE9"/><path d="M519.083 0h42.666v1024h-42.666V0z" fill="#278DF6"/><path d="M405.312 872.576v-63.51c0-20.5-20.01-37.162-44.65-37.162H44.65C20.01 771.925 0 788.587 0 809.088v63.51c0 20.5 20.01 37.14 44.65 37.14h316.011c24.64 0 44.651-16.66 44.651-37.162zm0-219.243v-63.466c0-20.544-20.01-37.206-44.65-37.206H151.295c-24.64 0-44.63 16.683-44.63 37.206v63.466c0 20.502 19.99 37.163 44.63 37.163h209.6c24.405 0 44.416-16.661 44.416-37.163zm0-219.242v-63.446c0-20.522-20.01-37.162-44.65-37.162H83.114c-24.598 0-44.608 16.64-44.608 37.162v63.446c0 20.522 20.01 37.205 44.608 37.205h277.568c24.618 0 44.629-16.683 44.629-37.205zm0-219.2v-63.446c0-20.522-20.01-37.184-44.65-37.184H175.124c-24.618 0-44.629 16.662-44.629 37.184v63.446c0 20.522 20.01 37.184 44.63 37.184H360.66c24.64 0 44.651-16.683 44.651-37.184z" fill="#5AD651"/><path d="M519.083 1024h-42.667V0h42.667v1024z" fill="#278DF6"/></symbol><symbol id="emoji" viewBox="0 0 1024 1024"><path d="M957.218 311.652V200.348h-66.784v-66.782h-66.782V66.782H712.348V0H311.652v66.782H200.348v66.784h-66.782v66.782H66.782v111.304l-66.766.006v400.696h66.766v111.298h66.784v66.782h66.782v66.784h111.304V1024h400.696v-66.782h111.304v-66.784h66.782v-66.782h66.784V712.354h22.274v-.006H1024V311.652z" fill="#FFDE46"/><path d="M957.218 311.652V200.348h-66.784v-66.782h-66.782V66.782H712.348V0H311.652v66.782H200.348v66.784h-66.782v66.782H66.782v111.304H0v66.782h133.566V267.13h66.782v-66.782h66.782v-66.782h489.74v66.782h66.782v66.782h66.782v111.304H1024v-66.782z" fill="#FFF"/><path d="M200.348 66.782h111.304v66.782H200.348zm-66.782 66.784h66.782v66.782h-66.782zm-66.784 66.782h66.782v111.304H66.782zm0 512h66.782v111.304H66.782zm66.784 111.304h66.782v66.782h-66.782zm66.782 66.782h111.304v66.782H200.348zM311.652 0h400.696v66.782H311.652zm0 957.218h400.696V1024H311.652zM0 311.652h66.782v400.696H0zm712.348-244.87h111.304v66.782H712.348zm111.304 66.784h66.782v66.782h-66.782zm66.782 66.782h66.782v111.304h-66.782zm0 512h66.782v111.304h-66.782zm-66.782 111.304h66.782v66.782h-66.782zm-111.304 66.782h111.304v66.782H712.348zm244.87-578.782H1024v400.696h-66.782zM267.13 623.304h66.782V756.87H267.13zm422.956 0h66.782V756.87h-66.782zM333.914 756.87h356.174v66.782H333.914zM244.87 267.13h133.566v267.13H244.87zm400.696 0h133.566v267.13H645.566z"/></symbol><symbol id="express" viewBox="0 0 1024 1024"><path d="M957.335 643.702c-1.948 13.343-15.536 22.39-30.368 20.216L604.891 616.8c-14.825-2.169-25.266-14.732-23.306-28.075l43.27-295.813c1.952-13.334 15.545-22.382 30.38-20.206l322.083 47.118c14.816 2.167 25.25 14.73 23.3 28.066l-43.283 295.812z" fill="#FD6B56"/><path d="m782.737 290.746 89.973 13.26-13.583 92.167-89.975-13.26z" fill="#FFD161"/><path d="m400.578 131.662 238.454 27.726s17.744-21.072 0-33.272l-47.667-2.531s12.174-72.887-79.878-80.65c-.002 0-97.6-6.655-110.91 88.727z" fill="#F56F5C"/><path d="M408.853 139.287a103.296 103.296 0 0 0-8.275 40.619c0 57.273 46.424 103.7 103.7 103.7 57.272 0 103.697-46.426 103.697-103.7 0-5.953-.615-11.749-1.574-17.433l-197.548-23.186z" fill="#FDD15E"/><path d="M361.759 367.897s31.054-87.618 123.106-74.309c0 0 56.566-1.37 107.584 79.722 0 0 30.187 58.911 54.466 75.549 0 0 70.86 11.09 145.167 9.98 0 0 59.891 38.82-7.763 73.201 0 0-137.527 6.654-176.346-15.526 0 0-69.871-55.455-72.09-65.436 0 0-17.745-7.764-23.29 13.309l-56.564 104.851s-7.763 17.148 6.654 34.892l85.397 104.254s15.529 27.727-1.108 74.31l-66.545 170.8s-51.018 25.508-61-26.62c0 0 4.437-63.217 29.946-131.981 0 0 16.636-33.27 3.327-54.343l-75.418-77.637s-35.491-15.526-46.582 11.091l-32.163 67.655s-32.163 38.816-59.89 48.798L87.813 838.149s-64.326 7.762-64.326-41.036c0 0-5.545-26.618 27.727-43.254 0 0 129.762-42.145 148.617-53.236 18.855-11.09 27.727-21.074 59.891-106.473L361.76 367.897z" fill="#FFD161"/></symbol><symbol id="fa" viewBox="0 0 1024 1024"><path d="M326.295 592.6A333.145 333.145 0 0 0 .314 934.445v89.043h553.195V690.855A314.723 314.723 0 0 0 325.783 592.6zm-6.141-97.743a237.961 237.961 0 0 0 231.82-244.102A237.961 237.961 0 0 0 320.154 6.14 237.961 237.961 0 0 0 88.845 250.755a237.961 237.961 0 0 0 231.309 244.102zm294.253 528.631a24.564 24.564 0 0 1-24.564-24.563V34.287a24.564 24.564 0 1 1 51.174 0v964.638a24.564 24.564 0 0 1-26.61 24.563z" fill="#F3896E"/><path d="M995.144 252.802 673.77 418.095a51.174 51.174 0 0 1-73.691-44.01l-3.582-322.91a51.174 51.174 0 0 1 72.667-46.058l324.958 157.618a51.174 51.174 0 0 1 1.023 90.067z" fill="#F3896E"/></symbol><symbol id="formatter" viewBox="0 0 1024 1024"><path d="M304.89 751.877a36.69 36.69 0 0 1 .393 51.92L95.472 1013.454a36.668 36.668 0 0 1-51.854-.392 36.69 36.69 0 0 1-.37-51.897l209.724-209.703a36.668 36.668 0 0 1 51.897.393l.022.043zm40.787-40.85-196.042-62.16 166.41-117.171-4.095-204.887L477.01 450.56l193.558-64.403-64.403 193.536 123.708 165.104-204.887-4.031-117.063 166.433-62.246-196.15z" fill="#20A0FF"/><path d="M282.406 310.36c0-85.668-72.812-155.17-162.576-155.17 89.764 0 162.576-69.5 162.576-155.19 0 85.69 72.77 155.19 162.555 155.19-89.763 0-162.555 69.393-162.555 155.17zm0 108.935h460.321c0-85.667-72.791-155.168-162.576-155.168 89.763 0 162.576-69.502 162.576-155.19 0 85.688 72.791 155.19 162.555 155.19-89.764 0-162.555 69.392-162.555 155.168H282.363zM413.13 593.593l460.647 258.528c0-57.105-48.542-103.446-108.348-103.446 59.806 0 108.348-46.342 108.348-103.446 0 57.104 48.52 103.446 108.326 103.446-59.697 0-108.326 46.341-108.326 103.446L413.13 593.593z" fill="#20A0FF"/></symbol><symbol id="free" viewBox="0 0 1024 1024"><path d="M511.765 5.714C231.704 5.714 4.67 232.75 4.67 512.81s227.035 507.097 507.095 507.097c280.063 0 507.096-227.035 507.096-507.097S791.828 5.714 511.765 5.714zM273.833 443.238H169.436v42.216h96.777v43.892h-96.777v96.93H111.22v-226.93h162.614v43.892zm179.652 183.037-61.736-83.213h-27.114v83.213h-58.218v-226.93h98.149c13.411 0 24.942.763 34.596 2.286 9.651 1.524 18.693 4.827 27.127 9.907 8.535 5.082 15.316 11.66 20.346 19.735 5.03 8.078 7.544 18.213 7.544 30.406 0 16.764-3.887 30.43-11.659 40.997-7.773 10.567-18.875 19.354-33.3 26.365l75.745 97.235h-71.48zm253.419-183.037h-105.92v39.168h98.3v43.892h-98.3v56.085h105.92v43.893H542.765v-226.93h164.139v43.892zm197.79 39.168v43.892h-98.302v56.085h105.92v43.893H748.175v-226.93h164.139v43.892h-105.92v39.168h98.3z" fill="#ea9518"/><path d="M418.129 444.61c-3.963-1.624-8.588-2.615-13.87-2.972-5.284-.355-11.43-.533-18.44-.533h-21.185v61.114h17.984c9.347 0 17.169-.456 23.47-1.371 6.299-.915 11.583-2.996 15.85-6.248 4.063-3.148 7.036-6.63 8.916-10.44 1.88-3.81 2.82-8.915 2.82-15.317 0-5.688-1.17-10.566-3.506-14.63-2.337-4.065-6.35-7.265-12.04-9.603z" fill="#ea9518"/></symbol><symbol id="gc" viewBox="0 0 1024 1024"><path d="M651.075 326.121c-10.572 9.387-17.225 14.734-23.24 20.719-55.99 55.746-111.492 111.978-167.906 167.268a43.169 43.169 0 0 1-76.86-19.443 59.634 59.634 0 0 1 15.554-44.627C458.805 387.062 521.021 326.06 582.57 264.42a576.72 576.72 0 0 1 55.381-54.106 94.176 94.176 0 0 1 49.336-20.02c59.786-2.37 119.724-1.154 179.602-.79a52.192 52.192 0 0 1 58.632 58.602c.152 99.796.85 199.622-.76 299.387a141.415 141.415 0 0 1-18.015 45.205 99.553 99.553 0 0 0-12.728 32.414c-.973 106.328-.486 212.898-.7 319.347a51.25 51.25 0 1 1-101.618 2.248c-.82-59.878-.303-119.755-.334-179.632v-124.19c0-12.152 1.489-23.97-17.012-24.304-17.985-.213-20.385 9.6-20.354 24.03q.334 143.056 0 286.111a210.315 210.315 0 0 1-1.884 33.114 47.361 47.361 0 0 1-51.644 41.285 51.28 51.28 0 0 1-46.936-45.295c-.79-8.05-.335-16.253-.365-24.304l-.365-576.628c.061-8.384-.88-16.86-1.731-30.774z" fill="#00B8C1"/><path d="M342.118 1023.689c-48.789 0-97.578-.456-146.367.273-14.855.213-22.511-3.038-25.276-19.534-13.944-82.935-29.194-165.688-43.806-248.532-9.114-50.855-17.681-101.77-26.46-152.686a98.277 98.277 0 0 1-2.492-17.498 34.055 34.055 0 0 1 27.342-35.696 30.38 30.38 0 0 1 38.824 21.083 644.04 644.04 0 0 1 14.764 71.27c17.438 97.213 34.967 194.64 51.433 292.126 2.673 15.889 10.268 18.44 23.878 18.228q88.707-.668 177.414 0c13.55 0 21.266-2.704 23.818-18.622 19.685-117.173 40.495-234.133 60.758-351.184a37.944 37.944 0 0 1 39.493-33.904 35.058 35.058 0 0 1 30.38 43.595c-8.72 54.682-18.046 109.365-27.646 163.774-14.308 81.386-29.832 162.59-43.017 244.158-3.038 19.564-11.453 23.726-29.012 23.422-47.908-.85-95.968-.273-144.028-.273zM858.2 85.244a80.96 80.96 0 0 1-82.783 82.024 83.27 83.27 0 0 1-83.907-84.242A85.79 85.79 0 0 1 775.417 0 83.452 83.452 0 0 1 858.2 85.244z" fill="#00B8C1"/><path d="M362.35 615.088a41.468 41.468 0 1 1-41.862-42.045 42.106 42.106 0 0 1 41.863 42.045zm54.987 13.458c-5.316-4.709-9.843-8.384-14.005-12.455-32.202-31.655-32.08-36.273 5.013-64.01 4.07-3.037 12.303-.576 18.622-.546.547 0 1.094.911 1.61 1.458 36.668 39.068 43.048 25.124-11.24 75.553z" fill="#00B8C1"/></symbol><symbol id="gitpush" viewBox="0 0 1024 1024"><path d="m218.88 896-90.496-90.496 558.08-558.08 90.496 90.496z" fill="#59A869"/><path d="M832 640 384 192h448z" fill="#59A869"/></symbol><symbol id="graph" viewBox="0 0 1161 1024"><path d="M897.62 294.103C802.195 200.46 717.454 116.075 635.917 37.742a95.067 95.067 0 0 0-149.544 0c-95.78 92.575-156.31 153.817-261.702 256.361-65.515 68.007-39.166 110.022 26.704 110.022h623.1c66.938-1.425 80.825-53.053 23.143-110.022z" fill="#0081FF"/><path d="M649.804 454.329h409.465q62.31 0 62.31 62.31v409.465q0 62.31-62.31 62.31H649.804q-62.31 0-62.31-62.31V516.639q0-62.31 62.31-62.31Z" fill="#62BA46"/><path d="M0 721.371a267.043 267.043 0 1 0 534.085 0 267.043 267.043 0 1 0-534.085 0Z" fill="#F2A23A"/></symbol><symbol id="grid" viewBox="0 0 1024 1024"><path d="M807.533 896.078H216.675c-32.5 0-59.169-26.46-59.169-59.169V187.091c0-32.501 26.46-59.17 59.17-59.17h590.857c32.501 0 58.96 26.46 58.96 59.17v649.818c0 32.501-26.667 59.17-58.96 59.17z" fill="#EF6C00"/><path d="M216.675 187.09v649.82h590.65l.208-649.82z" fill="#FFE0B2"/><path d="M264.386 232.093h89.587v89.378h-89.587z" fill="#00897B"/><path d="M264.386 388.974h89.587v89.379h-89.587z" fill="#EC407A"/><path d="M264.386 545.856h89.587v89.378h-89.587z" fill="#00897B"/><path d="M264.386 702.737h89.587v89.379h-89.587zM399.6 232.093h89.587v89.378H399.6z" fill="#EC407A"/><path d="M399.6 388.974h89.587v89.379H399.6zm0 156.882h89.587v89.378H399.6zm0 156.88h89.587v89.38H399.6zm135.213-470.643H624.4v89.378h-89.587zm0 156.881H624.4v89.379h-89.587z" fill="#00897B"/><path d="M534.813 545.856H624.4v89.378h-89.587z" fill="#EC407A"/><path d="M534.813 702.737H624.4v89.379h-89.587zm135.214-470.644h89.587v89.378h-89.587zm0 156.881h89.587v89.379h-89.587zm0 156.882h89.587v89.378h-89.587z" fill="#00897B"/><path d="M670.027 702.737h89.587v89.379h-89.587z" fill="#EC407A"/></symbol><symbol id="host" viewBox="0 0 1024 1024"><path d="M983.04 94.72H40.96c-15.36 0-28.16 12.8-28.16 25.6V268.8c0 15.36 12.8 28.16 28.16 28.16h942.08c15.36 0 28.16-12.8 28.16-28.16V120.32c0-15.36-12.8-25.6-28.16-25.6zM166.4 232.96H92.16v-74.24h74.24v74.24zm125.44 0H217.6v-74.24h74.24v74.24zm122.88 0h-74.24v-74.24h74.24v74.24zm125.44 0h-74.24v-74.24h74.24v74.24zm384 0H734.72v-74.24h189.44v74.24zm58.88 176.64H40.96c-15.36 0-28.16 12.8-28.16 28.16v148.48c0 15.36 12.8 28.16 28.16 28.16h942.08c15.36 0 28.16-12.8 28.16-28.16V437.76c0-15.36-12.8-28.16-28.16-28.16zM166.4 550.4H92.16v-74.24h74.24v74.24zm125.44 0H217.6v-74.24h74.24v74.24zm122.88 0h-74.24v-74.24h74.24v74.24zm125.44-2.56h-74.24V473.6h74.24v74.24zm384 0H734.72V473.6h189.44v74.24zm58.88 179.2H40.96c-15.36 0-28.16 12.8-28.16 28.16v148.48c0 15.36 12.8 28.16 28.16 28.16h942.08c15.36 0 28.16-12.8 28.16-28.16V755.2c0-15.36-12.8-28.16-28.16-28.16zM166.4 865.28H92.16v-74.24h74.24v74.24zm125.44 0H217.6v-74.24h74.24v74.24zm122.88 0h-74.24v-74.24h74.24v74.24zm125.44 0h-74.24v-74.24h74.24v74.24zm384 0H734.72v-74.24h189.44v74.24z" fill="#0E72AF"/></symbol><symbol id="http" viewBox="0 0 1127 1024"><path d="M838.687 928.478H185.313a89.982 89.982 0 0 1-89.79-89.791v-468.06h880.716A47.761 47.761 0 0 0 1024 322.866V185.313A185.504 185.504 0 0 0 838.687 0H185.313A185.504 185.504 0 0 0 0 185.313v653.374A185.504 185.504 0 0 0 185.313 1024h653.374a47.761 47.761 0 0 0 0-95.522zM401.194 137.552h34.388a47.761 47.761 0 1 1 0 95.523h-34.388a47.761 47.761 0 0 1 0-95.523zm-189.134 0h34.388a47.761 47.761 0 1 1 0 95.523H212.06a47.761 47.761 0 0 1 0-95.523z" fill="#0f7b0f"/><path d="M349.42 817.672a47.761 47.761 0 0 0 47.762-47.762V558.233a47.761 47.761 0 0 0-95.522 0v57.313h-34.197v-57.313a47.761 47.761 0 0 0-95.523 0V769.91a47.761 47.761 0 0 0 95.523 0v-57.313h34.197v57.313a47.761 47.761 0 0 0 47.76 47.762zm172.323 0a47.761 47.761 0 0 0 47.761-47.762V605.994H586.7a47.761 47.761 0 0 0 0-95.522H456.98a47.761 47.761 0 0 0 0 95.522h17.003V769.91a47.761 47.761 0 0 0 47.761 47.762zm243.391 0a47.761 47.761 0 0 0 47.762-47.762V605.994h17.003a47.761 47.761 0 0 0 0-95.522h-129.72a47.761 47.761 0 0 0 0 95.522h17.194V769.91a47.761 47.761 0 0 0 47.761 47.762zm261.35-307.2H943.57a47.57 47.57 0 0 0-47.761 47.76V769.91a47.761 47.761 0 0 0 95.522 0v-57.313h35.153a100.68 100.68 0 1 0 0-201.361zm0 105.838H991.33v-10.316h35.153a5.158 5.158 0 0 1 0 10.316z" fill="#0f7b0f"/></symbol><symbol id="icp" viewBox="0 0 1024 1024"><path d="m512.438 0-408.09 188.264v280.61c0 257.813 172.82 495.72 401.998 553.567l6.152 1.547 6.14-1.595c228.626-58.757 401.001-296.665 401.001-553.58V187.988zM869.85 468.657c0 232.44-153.26 447.613-357.473 503.636-204.824-54.968-358.217-270.2-358.217-503.636V219.873L512.438 54.848 869.85 219.813z" fill="#1296db"/><path d="M288.176 329.186v268.006h-58.938V329.186zm223.71 71.504a59.261 59.261 0 0 0-13.19-14.833 60.772 60.772 0 0 0-17.82-9.94 61.444 61.444 0 0 0-20.84-3.598q-19.894 0-33.78 7.686a63.83 63.83 0 0 0-22.52 20.65 90.439 90.439 0 0 0-12.579 29.462 146.822 146.822 0 0 0-3.933 34.163 136.51 136.51 0 0 0 3.933 32.845 88.616 88.616 0 0 0 12.58 28.707 64.31 64.31 0 0 0 22.519 20.457q13.886 7.699 33.78 7.699 27.04 0 42.233-16.512t18.635-43.517h57.054a136.365 136.365 0 0 1-11.631 45.423 108.941 108.941 0 0 1-24.774 34.535 105.344 105.344 0 0 1-36.034 21.765 131.905 131.905 0 0 1-45.423 7.506q-30.77 0-55.364-10.696a118.402 118.402 0 0 1-41.479-29.463 130.394 130.394 0 0 1-25.9-44.104 162.135 162.135 0 0 1-9.006-54.609 167.759 167.759 0 0 1 9.005-55.747 133.931 133.931 0 0 1 25.901-44.848 118.438 118.438 0 0 1 41.479-30.038q24.582-10.876 55.364-10.876a134.915 134.915 0 0 1 41.85 6.38 113.378 113.378 0 0 1 35.29 18.574 100.403 100.403 0 0 1 25.71 30.218 108.15 108.15 0 0 1 12.758 41.286h-57.067a47.965 47.965 0 0 0-6.75-18.575zm227.092-71.504q25.182 0 42.785 7.315t28.78 19.33a74.478 74.478 0 0 1 16.14 27.4 102.526 102.526 0 0 1 0 63.626 74.19 74.19 0 0 1-16.14 27.58q-11.08 11.991-28.78 19.33t-42.785 7.315h-61.935v96.098h-58.938V329.186zM722.838 455.3a122.54 122.54 0 0 0 19.51-1.499 45.363 45.363 0 0 0 16.524-5.816 31.849 31.849 0 0 0 11.451-12.195q4.305-7.89 4.305-20.649t-4.305-20.65a31.849 31.849 0 0 0-11.451-12.17 45.363 45.363 0 0 0-16.524-5.816 123.954 123.954 0 0 0-19.51-1.499h-45.795v80.342z" fill="#1296db"/></symbol><symbol id="idcard" viewBox="0 0 1415 1024"><path d="M60.235 69.27h1298.07v894.495H60.236z" fill="#F5C539"/><path d="M1258.918 0H156.612C69.27 0 0 69.27 0 156.612v707.764C0 954.73 69.27 1024 156.612 1024h1102.306c87.34 0 156.611-69.27 156.611-156.612V156.612C1415.53 69.27 1346.26 0 1258.918 0zm78.306 867.388c0 42.165-36.142 78.306-78.306 78.306H156.612c-42.165 0-78.306-36.141-78.306-78.306V156.612c0-42.165 36.141-78.306 78.306-78.306h1102.306c42.164 0 78.306 36.141 78.306 78.306v710.776zm0 0" fill="#333"/><path d="M1108.33 542.118c42.164-36.142 69.27-90.353 69.27-150.589 0-108.423-87.341-195.764-195.765-195.764s-195.764 87.34-195.764 195.764c0 60.236 27.105 114.447 69.27 150.589C768 587.294 707.765 680.658 707.765 786.07c0 21.082 18.07 39.153 39.153 39.153 21.082 0 39.153-18.071 39.153-39.153 0-108.424 87.34-195.765 195.764-195.765S1177.6 677.647 1177.6 786.07c0 21.082 18.07 39.153 39.153 39.153 21.082 0 39.153-18.071 39.153-39.153 3.012-105.412-57.224-195.765-147.577-243.953zM864.375 394.54c0-66.259 54.212-117.459 117.46-117.459 66.258 0 117.458 54.212 117.458 117.46 0 66.258-54.212 117.458-117.459 117.458S864.375 457.787 864.375 394.54zM668.612 277.082H195.765c-21.083 0-39.153 18.07-39.153 39.153s18.07 39.153 39.153 39.153h472.847c21.082 0 39.153-18.07 39.153-39.153 0-24.094-18.07-39.153-39.153-39.153zm-39.153 195.765H195.765c-21.083 0-39.153 18.07-39.153 39.153 0 21.082 18.07 39.153 39.153 39.153h433.694c21.082 0 39.153-18.07 39.153-39.153 0-21.082-18.07-39.153-39.153-39.153zM512 668.612H195.765c-21.083 0-39.153 18.07-39.153 39.153 0 21.082 18.07 39.153 39.153 39.153H512c21.082 0 39.153-18.07 39.153-39.153s-18.07-39.153-39.153-39.153zm0 0" fill="#333"/></symbol><symbol id="img" viewBox="0 0 1024 1024"><path d="M512.301 563.08 349.064 448.813 182.212 601.148v165.045H842.39V525.01L729.93 410.744 512.301 563.08zM893.17 106.014H131.373c-56.079 0-101.557 45.478-101.557 101.617v609.4c0 56.14 45.478 101.617 101.557 101.617H893.17c56.14 0 101.617-45.477 101.617-101.616v-609.4c0-56.14-45.478-101.618-101.617-101.618zm50.839 660.24c0 56.078-45.538 101.616-101.617 101.616H182.15A101.617 101.617 0 0 1 80.596 766.253V258.35c0-56.079 45.477-101.557 101.557-101.557H842.39c56.079 0 101.617 45.478 101.617 101.557v507.904zm-689.634-355.51c39.875 0 72.222-34.153 72.222-76.197s-32.347-76.198-72.222-76.198-72.222 34.093-72.222 76.198 32.346 76.197 72.222 76.197z" fill="#019BDB"/></symbol><symbol id="info" viewBox="0 0 1024 1024"><path d="M0 511.386c0 282.265 228.813 511.027 510.976 511.027 282.266 0 511.078-228.762 511.078-510.976C1022.054 229.17 793.242.358 511.027.358S0 229.171 0 511.386z" fill="#73D0F8"/><path d="M581.53 769.178c-17.562 0-30.004-2.765-37.07-8.5-7.116-5.632-10.751-16.179-10.751-31.641 0-6.144 1.126-15.155 3.277-27.341 2.15-12.032 4.659-22.682 7.475-32.154l33.894-116.736a185.715 185.715 0 0 0 6.861-35.328 305.152 305.152 0 0 0 1.792-26.982c0-24.678-9.011-44.544-26.726-60.006-17.716-15.36-43.06-23.04-75.879-23.04-18.227 0-37.58 3.174-57.958 9.472a965.632 965.632 0 0 0-64.051 22.681l-9.012 36.096a299.52 299.52 0 0 1 23.808-7.577 92.672 92.672 0 0 1 27.136-4.096c17.92 0 29.952 2.918 36.404 8.857 6.348 5.837 9.625 16.384 9.625 31.437 0 8.192-1.024 17.357-3.174 27.443-2.048 10.035-4.66 20.685-7.68 31.949l-34.202 117.094a348.11 348.11 0 0 0-6.605 33.076 204.281 204.281 0 0 0-2.048 28.672c0 24.064 9.165 43.98 27.495 59.699 18.227 15.667 43.98 23.398 77.005 23.398 21.657 0 40.396-2.765 56.576-8.192 16.384-5.478 37.99-13.465 65.33-23.859l9.114-36.045c-7.321 3.021-14.899 5.427-22.63 7.475a104.449 104.449 0 0 1-28.006 4.148zm35.584-553.933a82.432 82.432 0 0 0-57.242-21.658 81.92 81.92 0 0 0-57.344 21.658 68.096 68.096 0 0 0-24.064 52.275c0 20.275 8.14 37.632 24.064 51.917 15.872 14.336 35.072 21.504 57.344 21.504a81.92 81.92 0 0 0 57.242-21.504c15.206-13.005 23.961-32 23.808-51.917a67.584 67.584 0 0 0-23.808-52.224z" fill="#FFF"/></symbol><symbol id="ip" viewBox="0 0 1024 1024"><path d="M512 1023.2 194.1 747.1l-.7-.7c-85.3-83.3-132.2-193-132.2-309s47-225.7 132.2-308.9C235.1 87.9 284.1 56 339.2 34 394.2 12 452.3.8 512 .8 571.7.8 629.8 12 684.8 34c55.1 22.1 104.2 53.9 145.8 94.6 85.2 83.2 132.2 192.9 132.2 308.9 0 116-46.9 225.8-132.2 309l-.7.7-317.9 276zM237.5 700 512 938.4 786.5 700c72.4-71 112.3-164.2 112.2-262.6 0-98.6-40.1-192-112.9-263.1-71.2-69.6-171-109.5-273.8-109.5-102.8 0-202.6 39.9-273.8 109.5-72.8 71.1-112.9 164.5-112.9 263.1-.1 98.4 39.8 191.6 112.2 262.6z" fill="#444445"/><path d="M320.1 256h64v384h-64zm320 0h-192v384h64V512h128c70.6 0 128-57.4 128-128s-57.4-128-128-128zm0 192h-128V320h128c35.3 0 64 28.7 64 64 0 35.2-28.7 64-64 64z" fill="#D93934"/></symbol><symbol id="js" viewBox="0 0 1024 1024"><path d="M943.004 243.916 527.964 4.47a31.926 31.926 0 0 0-31.927 0L80.997 243.916a31.926 31.926 0 0 0-15.964 27.457v478.892a31.926 31.926 0 0 0 15.963 27.457l118.127 68.322a162.824 162.824 0 0 0 52.36 5.108c88.754 0 116.21-34.48 116.21-119.404V328.84h-69.598v418.87c0 30.65-14.048 44.059-52.36 44.059a56.19 56.19 0 0 1-14.047 0l-102.802-60.022V289.89L512 68.96l383.114 220.93v441.858L512 952.678l-114.934-63.853a31.926 31.926 0 0 0-31.926 55.552l130.897 75.346a31.926 31.926 0 0 0 31.926 0l415.04-239.447a31.926 31.926 0 0 0 15.964-27.456V271.373a31.926 31.926 0 0 0-15.963-27.457z" fill="#14ADC4"/><path d="M618.633 667.257c-88.754 0-115.572-40.865-115.572-73.43h-70.238c7.662 106.634 104.08 127.705 187.726 127.705 112.38 0 184.533-40.227 184.533-127.705 0-51.082-35.757-84.285-127.704-97.694l-101.526-10.855C526.048 478.893 512 464.207 512 439.943c0-42.781 51.72-56.19 97.056-56.19 72.791 0 107.91 31.287 109.826 68.96h70.237c-1.277-69.599-55.551-123.873-175.594-123.873-101.525 0-165.377 43.42-165.377 118.127a102.802 102.802 0 0 0 97.694 97.694l115.573 15.324c56.19 7.663 69.599 22.987 69.599 49.167s-22.349 58.105-112.38 58.105z" fill="#14ADC4"/></symbol><symbol id="json" viewBox="0 0 1024 1024"><path d="M941.84 218.677 520.798 64.29a28.116 28.116 0 0 0-19.373 0L80.387 218.677A28.067 28.067 0 0 0 62 245.065V750.31a28.076 28.076 0 0 0 16.979 25.826l422.73 182.452a28.071 28.071 0 0 0 22.31 0l419.365-182.452a28.076 28.076 0 0 0 16.839-25.826V539.792a28.067 28.067 0 1 0-56.138 0v192.137L512.792 902.173 118.138 731.788V264.707l392.971-144.135 392.976 144.135v108.49a28.071 28.071 0 1 0 56.138 0V245.065a28.062 28.062 0 0 0-18.383-26.388zm0 0" fill="#1F81FF"/><path d="M331.541 657.192c0-38.389 4.739-63.99 4.739-99.063 0-20.38-9.954-40.765-45.977-41.238v-33.178c36.023-.473 45.977-20.858 45.977-40.289 0-35.55-4.739-61.146-4.739-99.54 0-55.93 19.908-72.522 63.99-72.522h26.541v29.862h-12.321c-27.018 0-34.128 12.326-34.128 45.504 0 30.812 2.844 58.302 2.844 93.375 0 36.495-9.954 53.087-34.6 59.252v2.367c24.646 6.165 34.6 23.229 34.6 59.252 0 35.077-2.844 62.563-2.844 93.375 0 33.178 7.11 45.031 34.128 45.031h12.321v30.335h-26.541c-44.082 0-63.99-16.592-63.99-72.522zm134.613 55.458c32.234-13.27 51.192-36.972 51.665-64.939-1.9.472-3.317.472-5.216.472-19.435 0-36.5-12.32-36.5-35.073 0-21.33 17.065-35.077 37.922-35.077 26.541 0 42.183 22.275 42.183 58.779 0 49.77-28.912 88.16-77.733 106.645l-12.321-30.807zm9.005-282.024c0-22.275 16.114-38.866 36.495-38.866 20.385 0 36.499 16.591 36.499 38.867 0 21.802-16.114 37.921-36.5 37.921-20.38-.005-36.494-16.119-36.494-37.922zM601.23 699.38h12.325c27.018 0 34.128-11.853 34.128-45.032 0-30.811-2.371-58.297-2.371-93.375 0-36.022 9.477-53.086 34.128-59.251v-2.367c-24.651-6.165-34.128-22.752-34.128-59.252 0-35.073 2.371-62.568 2.371-93.375 0-33.178-7.11-45.504-34.128-45.504H601.23v-29.862h26.545c44.078 0 64.458 16.592 64.458 72.522 0 38.394-4.738 63.99-4.738 99.54 0 19.431 9.954 39.816 45.499 40.289v33.178c-35.545.473-45.5 20.858-45.5 41.238 0 35.073 4.739 60.67 4.739 99.063 0 55.935-20.38 72.522-64.458 72.522H601.23V699.38z" fill="#DD697C"/></symbol><symbol id="key" viewBox="0 0 1024 1024"><path d="M575.97 587.896a274.312 274.312 0 0 0-57.344-542.298 274.251 274.251 0 0 0-58.428 542.178v385.325H576.03v-.783h116.074V856.486H575.97v-56.923h173.96V683.671H575.97v-95.775zm-57.886-251.301a86.86 86.86 0 1 1 86.86-86.86c0 47.948-38.913 86.86-86.86 86.86z" fill="#FC6C2E"/></symbol><symbol id="loading" viewBox="0 0 1024 1024"><path d="M0 512C0 230.4 230.4 0 512 0s512 230.4 512 512c0 51.2-34.133 85.333-85.333 85.333S853.333 563.2 853.333 512c0-187.733-153.6-341.333-341.333-341.333S170.667 324.267 170.667 512 324.267 853.333 512 853.333c51.2 0 85.333 34.134 85.333 85.334S563.2 1024 512 1024C230.4 1024 0 793.6 0 512z" fill="#FAAD13"/></symbol></svg>