<svg version="1.1" xmlns="http://www.w3.org/2000/svg" style="display:none;"><symbol id="Huawei" viewBox="0 0 1382 1024"><path d="M587.001.138a236.743 236.743 0 0 0-179.455 83.93c-70.264 96.63-19.188 232.74 19.188 310.32s210.79 355.321 217.14 361.671 12.839 6.488 12.839 0 19.05-413.437 6.35-510.757A1387.742 1387.742 0 0 0 587 .138zM210.145 187.324c-12.838 0-102.29 96.63-115.128 180.974s31.888 148.672 134.178 219.625C337.835 665.365 587 800.785 593.627 794.85c6.212-12.976-95.801-193.26-185.391-329.645s-185.391-277.88-198.091-277.88zm31.888 827.151c76.613 32.302 197.953-45.278 229.84-64.604l89.59-64.604-434.558 12.838a331.992 331.992 0 0 0 115.128 116.37zm12.7-355.322c-76.614-38.928-236.191-129.346-242.68-129.346s-31.887 116.37 19.189 200.438 147.015 110.434 191.603 116.37c51.214 6.35 345.106 6.35 345.106 0-6.488-6.626-236.605-148.81-313.218-187.462zM970.345 83.93A237.295 237.295 0 0 0 791.58.138a1026.623 1026.623 0 0 0-70.263 239.09c-12.838 96.63 6.35 510.757 6.35 510.757 0 6.35 6.211 6.35 12.7 0s185.253-291.27 217.14-362.223 82.826-207.064 12.838-303.694zm402.533 445.877c-6.35 0-165.651 90.418-242.817 129.346S823.468 840.127 817.118 846.615c0 6.35 293.893 6.35 345.107 0 44.725-6.488 140.527-32.44 191.603-116.37 44.726-84.068 19.188-200.438 19.188-200.438zM906.432 949.871c31.888 19.464 153.365 96.63 229.979 64.604a266.008 266.008 0 0 0 114.851-122.858l-434.42-12.838zm377.408-581.573c-6.212-84.068-102.29-180.974-114.99-180.974s-121.339 142.184-204.44 277.88-185.806 316.67-179.318 329.645 255.517-129.346 364.019-207.064c102.29-70.954 140.665-129.207 134.177-219.625z" fill="#EA020A"/></symbol><symbol id="Ksyun" viewBox="0 0 1024 1024"><path d="M683.657 459.052h-10.24c-23.002 0-40.91 7.692-56.245 20.48 7.668-15.335 12.788-33.243 12.788-51.15 0-7.668 0-15.36-2.573-23.028-10.24-53.697-58.817-97.18-115.087-97.18-58.843 0-104.873 40.91-115.113 97.18-2.547 7.668-2.547 15.36-2.547 23.028 0 17.907 5.12 35.815 12.787 51.15a89.388 89.388 0 0 0-56.27-20.48h-10.24c-43.457 5.145-76.725 43.507-76.725 86.99 0 48.577 38.363 89.512 89.538 89.512 30.67 0 58.817-15.36 74.177-40.935 2.548-2.547 2.548-5.095 5.095-10.24 5.12-10.215 7.668-23.002 7.668-38.337 0-10.24-2.548-17.908-5.095-28.148 10.24 2.548 17.882 10.24 23.002 17.908l2.573 2.547c7.667-10.24 15.335-17.907 28.122-23.002 10.24-5.12 20.48-7.693 30.72-7.693 22.978 0 43.458 10.24 56.245 28.148 0 2.547 2.548 2.547 5.12 5.12 15.335 23.002 43.458 61.39 43.458 61.39 12.812 15.335 30.72 28.122 53.722 28.122h5.12c48.603 0 89.538-38.362 89.538-89.512-12.813-38.363-46.055-76.725-89.538-81.845m-5.12 235.295h-5.095a129.623 129.623 0 0 1-102.325-51.15s-63.937-92.085-66.485-94.633c-7.692-7.667-15.36-12.787-28.147-12.787-7.668 0-15.335 2.547-20.48 7.667 0 0 102.325 148.355 104.897 148.355 10.24 12.788 25.575 23.028 43.458 23.028 7.692 0 15.36-2.573 23.027-5.12-12.787 15.335-28.122 23.002-48.602 28.122h-12.788a81.17 81.17 0 0 1-66.485-33.242l-40.935-58.818c-28.122 30.67-66.485 48.578-109.967 48.578a148.455 148.455 0 0 1-148.356-148.355A148.355 148.355 0 0 1 338.37 397.662c12.787-84.393 86.965-148.33 173.93-148.33s161.142 63.937 173.93 148.355a148.355 148.355 0 0 1 138.115 148.355c-2.573 81.845-66.51 145.782-145.808 148.355M507.18 75.377c-237.868.05-432.253 194.41-432.253 434.875 0 240.415 194.385 432.253 432.253 432.253 237.867 0 432.253-194.386 432.253-432.253 0-237.868-191.813-434.826-432.253-434.826" fill="#E6032D"/></symbol><symbol id="Linode" viewBox="0 0 1024 1024"><path d="M938.656 455.68a6.4 6.4 0 0 0-2.976-6.368l-.032-.032-139.104-77.664a5.952 5.952 0 0 0-5.984 0h.032l-118.176 72.096a7.264 7.264 0 0 0-2.976 5.536v61.888l-48.224-31.584a5.952 5.952 0 0 0-6.432.032h.032l-69.12 42.656-2.976-69.984a8.096 8.096 0 0 0-2.976-5.12h-.032l-70.4-46.496 64.416-33.28a6.88 6.88 0 0 0 3.424-5.92v-.064l-11.52-267.52a6.848 6.848 0 0 0-3.392-5.536l-.032-.032L341.312-.032h-4.256L88.736 77.184a6.816 6.816 0 0 0-3.392 8.16v-.064l54.176 265.824a9.28 9.28 0 0 0 0 3.456v-.064l78.08 58.88-53.76 25.6a6.848 6.848 0 0 0-3.392 7.296v-.032l42.656 200.544a7.232 7.232 0 0 0 0 3.04v-.064L256 698.4l-34.144 20.896a6.464 6.464 0 0 0-2.56 6.848v-.032l32 155.296a4.48 4.48 0 0 0 0 3.04v-.032l128 137.376c1.088 1.12 2.592 1.792 4.256 1.792s3.168-.672 4.256-1.792l167.264-133.12a6.848 6.848 0 0 0 2.56-5.12l-2.976-90.464 56.32 46.944a5.952 5.952 0 0 0 7.68 0L752.64 732.928a10.4 10.4 0 0 0 2.56-4.608v-.064l3.84-66.976 42.656 28.576c.992.768 2.24 1.216 3.616 1.216s2.624-.448 3.648-1.248l109.664-85.344a5.92 5.92 0 0 0 2.144-4.256zm-410.432 6.4 2.976 66.976 5.12 118.624-180.48 122.464-28.16-193.28zM513.28 102.816l10.656 252.16-213.344 110.496-38.4-269.664zM151.04 346.464 99.424 96.448l159.584 98.976 39.68 264.544-67.424-51.2zm62.304 295.68-37.536-181.76L315.744 577.28l25.6 186.88-71.68-69.12zm48.64 235.072L234.24 743.232l123.296 121.6L377.6 999.648zm128 128-20.896-142.08 170.656-122.464 5.984 139.936zm164.672-228.672v-46.08a6.688 6.688 0 0 0-2.144-4.704l-48.224-39.264 42.656-29.856a5.92 5.92 0 0 0 2.56-4.896v-11.328l59.296 45.216v136.96zm189.44-51.2-122.016 97.28V685.248l130.976-93.856zm55.04-51.648-38.4-26.88 3.84-67.84a4.48 4.48 0 0 0 0-2.592v.032c.096-.32.128-.672.128-1.056s-.064-.736-.128-1.088v.032l-82.336-54.176v-59.296l128 80.64zm108.8-79.36-97.28 77.216 11.104-130.56 103.68-71.68z" fill="#00A95C"/></symbol><symbol id="Microsoft" viewBox="0 0 1300 1024"><path d="M602.432 956.982 909.425 903.1h2.676L753.982 717.25C667.26 615.568 596.23 531.522 596.23 530.913c0-.486 162.862-444.313 163.956-445.894 1.095-1.581 111.535 188.526 269.288 457.814 147.902 252.868 269.288 461.341 269.288 463.166l2.19 3.77H298.114l304.318-53.882v1.095zM0 900.668l165.295-283.52 165.66-283.031 194.12-159.7L717.128 14.474s0 3.527-2.919 7.784L505.006 465.477l-206.405 435.19H149.36c-81.978.609-149.361.609-149.361 0zm0 0" fill="#0087FF"/></symbol><symbol id="QingCloud" viewBox="0 0 1024 1024"><path d="M494.272 0 347.968 89.088l146.304 86.4V0zm43.904 175.552L684.48 88.064 538.176 0v175.552zm0 731.392 146.304-87.872-146.304-87.68v175.552zm-43.904 0V731.52l-146.304 88.128 146.304 87.36m409.6-205.696L757.568 614.4v175.552l146.304-88.704m-614.4-86.848-146.304 87.68 146.304 87.872V614.4zm468.096-73.152 146.304-88.128-146.304-87.424v175.552zm-468.096 0V365.696l-146.304 87.936 146.304 87.68m614.4-336.768L757.568 117.12v175.36l146.304-88m-614.4-87.488-146.304 88.32 146.304 87.168V117.12zm629.056 307.2V248.704L772.224 336.96l146.304 87.296m-789.952 0 146.304-88.064-146.304-87.488v175.552zM274.88 570.688l-146.304-87.936v175.552l146.304-87.616m497.344.192 146.304 87.424V482.752L772.224 570.88M333.376 614.4v175.552l146.304-88L333.376 614.4m380.352 175.552V614.4l-146.304 87.68 146.304 87.872M333.376 307.2l146.304-88.128-146.304-87.424V307.2zm380.352 541.248-146.304 88.768L713.728 1024V848.448zm0-555.904V131.648l-146.304 81.024 146.304 79.872" fill="#57B382"/><path d="M494.272 0v175.552L347.968 89.088 494.272 0m43.904 175.552V0L684.48 88.064l-146.304 87.488m0 731.392V731.52L684.48 819.2l-146.304 87.808m-43.904 0-146.304-87.36 146.304-88.128v175.488zm409.6-205.696-146.304 88.704V614.4l146.304 86.848m-614.4-86.848v175.552L143.168 702.08l146.304-87.68m468.096-73.152V365.696l146.304 87.424-146.304 88.128m-468.096 0-146.304-87.616 146.304-87.936v175.552zm614.4-336.64L757.568 292.48V117.12l146.304 87.488m-614.4-87.488v175.36l-146.304-87.04 146.304-88.384m629.056 307.2L772.224 336.96l146.304-88.32v175.68zm-789.952 0V248.704l146.304 87.488-146.304 88.064M274.88 570.688l-146.304 87.616V482.752l146.304 87.936m497.344.192 146.304-88.128v175.552L772.224 570.88M333.376 614.4l146.304 87.552-146.304 88V614.4zm380.352 175.552-146.304-87.936L713.728 614.4v175.552zM333.376 307.2V131.648l146.304 87.424L333.376 307.2m380.352 541.248V1024l-146.304-86.784 146.304-88.768m0-555.904-146.304-79.872 146.304-81.024v160.896z" fill="#57B382"/></symbol><symbol id="Qiniu" viewBox="0 0 1028 1024"><path d="M1024 174.933c-4.267-4.266-8.533-4.266-12.8-4.266C998.4 174.933 844.8 430.933 512 422.4c-55.467 0-115.2-4.267-170.667-21.333l-25.6-89.6s-4.266-21.334-25.6-34.134c-17.066-8.533-25.6-8.533-29.866-4.266v4.266l12.8 102.4C106.667 307.2 21.333 174.933 12.8 170.667c-4.267 0-8.533 0-12.8 4.266v12.8c46.933 140.8 149.333 251.734 281.6 311.467L320 742.4c4.267 68.267 51.2 110.933 110.933 110.933H614.4c59.733 0 106.667-42.666 110.933-110.933l34.134-200.533V537.6s-17.067 0-51.2 21.333c-34.134 25.6-42.667 59.734-42.667 59.734S631.467 704 622.933 738.133c-8.533 38.4-51.2 34.134-51.2 34.134h-102.4c-17.066 0-34.133-12.8-34.133-29.867l-59.733-213.333c42.666 12.8 89.6 17.066 140.8 17.066 238.933 0 439.466-145.066 512-358.4-4.267 0-4.267-8.533-4.267-12.8" fill="#02A7E0"/></symbol><symbol id="Tencent" viewBox="0 0 1402 1024"><path d="M1215.521 836.73c-22.304 22.7-66.907 56.747-144.96 56.747H591.068c144.96-141.872 267.621-261.045 278.773-272.394 11.147-11.35 39.024-39.723 66.901-62.422 55.755-51.077 100.363-56.746 139.387-56.746 55.76 0 100.363 22.693 139.392 56.746 78.053 73.771 78.053 204.294 0 278.07zm94.779-368.869c-55.755-62.421-139.387-102.149-228.592-102.149-78.059 0-144.96 28.373-206.294 73.776-22.304 22.699-55.754 45.397-83.626 79.445-22.31 22.699-501.798 499.392-501.798 499.392 27.878 5.675 61.334 5.675 89.206 5.675h607.728c44.602 0 78.053 0 111.509-5.675 72.48-5.674 144.96-34.048 206.293-90.8 128.235-124.848 128.235-334.816 5.574-459.664z" fill="#00A3FF"/><path d="M517.921 434.405c-61.675-45.792-123.35-68.693-196.235-68.693-89.706 0-173.797 40.07-229.866 103.04C-31.524 600.411-31.524 806.48 97.425 938.139c56.07 51.52 112.133 80.138 179.413 85.861l128.95-125.93h-72.886c-72.885-5.729-117.738-28.625-145.77-57.243-78.491-80.139-78.491-206.075-5.606-286.214 39.243-40.069 84.096-57.242 140.16-57.242 33.643 0 84.102 5.722 134.56 57.242 22.427 22.896 84.096 68.694 106.523 91.59h5.605l84.102-85.867v-5.723c-39.248-40.069-100.923-91.589-134.56-120.208" fill="#00C8DC"/><path d="M1111.628 286.944C1049.18 118.154 884.556 0 697.233 0 475.846 0 299.878 163.163 265.82 365.712c17.029 0 34.058-5.621 56.762-5.621 22.71 0 51.094 5.621 73.798 5.621 28.378-140.656 153.264-241.93 300.853-241.93 124.885 0 232.736 73.14 283.824 180.042 0 0 5.68 5.627 5.68 0 39.733-5.627 85.147-16.88 124.88-16.88 0 5.627 0 5.627 0 0" fill="#006EFF"/></symbol><symbol id="UCloud" viewBox="0 0 1024 1024"><path d="M955.733 68.267v605.866c0 196.267-153.6 349.867-349.866 349.867H494.933c-196.266 0-349.866-153.6-349.866-349.867v-332.8h102.4v-93.866H332.8v-85.334h68.267V716.8c0 85.333 68.266 153.6 153.6 153.6h17.066c85.334 0 153.6-68.267 153.6-153.6V68.267h230.4zM204.8 256v59.733h-59.733V256H204.8zm85.333-93.867v59.734h-51.2v-59.734h51.2zm-85.333 0V204.8h-51.2v-42.667h51.2zm-93.867 8.534V204.8H68.267v-34.133h42.666zm281.6-102.4V128H332.8V68.267h59.733zm-102.4 8.533v42.667h-51.2V76.8h51.2zm-93.866 0v34.133H153.6V76.8h42.667zM102.4 85.333v25.6H68.267v-25.6H102.4zM273.067 0v25.6h-25.6V0h25.6zm-76.8 0v25.6h-34.134V0h34.134z" fill="#385FF5"/></symbol><symbol id="Vultr" viewBox="0 0 1024 1024"><path d="M849.92 107.52c3.584.512 9.728 2.56 15.872 8.192 8.192 7.168 10.752 15.872 11.776 19.456 35.328 59.904 70.144 120.32 105.472 180.224 1.536 5.632 3.072 13.312 3.072 22.016 0 6.144-.512 11.776-1.536 16.384-41.984 65.024-83.968 130.048-126.464 195.072-1.024 1.536-11.264 11.776-26.624 10.24-12.288-1.024-19.456-8.704-21.504-10.752C674.816 322.56 576.512 155.136 565.248 130.048c-2.048-4.608-7.68-16.896-2.56-27.648 4.608-9.216 15.872-13.312 22.528-14.848 88.576 6.656 176.64 13.312 264.704 19.968z" fill="#06F"/><path d="M15.36 150.016C128.512 329.728 242.176 508.928 355.328 688.64c6.656 8.192 17.92 12.288 28.672 11.264 15.872-2.048 23.04-14.848 23.552-15.872 50.176-69.12 100.864-138.24 151.04-207.36 2.56-5.12 6.144-15.36 6.656-28.16 0-14.848-5.12-26.112-7.68-31.232-64.512-102.4-129.024-204.8-193.536-307.712-2.56-2.56-9.216-9.216-19.456-11.776-8.192-2.048-14.848-1.024-18.432-.512-10.24 0-246.784-.512-286.208 10.752-5.12 1.536-17.408 5.12-23.552 15.872-1.536 1.024-7.68 13.312-1.024 26.112z" fill="#CFF"/><path d="M108.544 299.52C221.696 479.232 335.36 658.432 448.512 838.144c6.656 8.192 17.92 12.288 28.672 11.264 15.872-2.048 23.04-14.848 23.552-15.872 50.176-69.12 100.864-138.24 151.04-207.36 2.56-5.12 6.144-15.36 6.656-28.16 0-14.848-5.12-26.112-7.68-31.232-64.512-102.4-129.024-204.8-193.536-307.712-2.56-2.56-9.216-9.216-19.456-11.776-8.192-2.048-14.848-1.024-18.432-.512-10.24 0-246.784-.512-286.208 10.752-5.12 1.536-17.408 5.12-23.552 15.872-1.536.512-8.192 12.8-1.024 26.112z" fill="#6CF"/><path d="M215.04 462.336c113.152 179.712 226.816 358.912 339.968 538.624 6.656 8.192 17.92 12.288 28.672 11.264 15.872-2.048 23.04-14.848 23.552-15.872 50.176-69.12 100.864-138.24 151.04-207.36 2.56-5.12 6.144-15.36 6.656-28.16 0-14.848-5.12-26.112-7.68-31.232-64.512-102.4-129.024-204.8-193.536-307.712-2.56-2.56-9.216-9.216-19.456-11.776-8.192-2.048-14.848-1.024-18.432-.512-10.24 0-246.784-.512-286.208 10.752-5.12 1.536-17.408 5.12-23.552 15.872-1.536 1.024-7.68 13.312-1.024 26.112z" fill="#06F"/></symbol><symbol id="Aliyun" viewBox="0 0 1024 1024"><path d="M0 0h1024v1024H0z" fill="none"/><path d="M341.248 548.48h340.928v-76.992H341.248z" fill="#FE6A00"/><path d="M852.992 192.64h-225.6l54.4 77.056 164.48 50.368c29.76 9.408 49.92 37.12 49.728 68.288v246.656c.192 31.232-19.968 58.88-49.664 68.288l-164.48 50.432-54.4 77.056h225.536a170.432 170.432 0 0 0 170.432-170.432V363.008A170.432 170.432 0 0 0 852.992 192.64m-682.56 0h225.6l-54.464 77.056L177.088 320c-29.76 9.408-49.92 37.12-49.664 68.288v246.656c-.192 31.232 19.904 58.88 49.664 68.288l164.48 50.432 54.4 77.056H170.496A170.432 170.432 0 0 1 0 660.352V363.008A170.368 170.368 0 0 1 170.432 192.64" fill="#FE6A00"/></symbol><symbol id="AWS" viewBox="0 0 1675 1024"><path d="M472.343 365.289c-1.862 59.299 27.741 85.55 28.486 102.214a21.41 21.41 0 0 1-10.705 16.384l-33.513 23.458a27.927 27.927 0 0 1-14.802 5.027c-1.117 0-21.41 4.841-53.62-67.025a205.73 205.73 0 0 1-163.84 77.08c-42.636 2.326-158.254-24.204-152.204-147.084-4.189-100.26 89.182-162.537 185.717-157.324 18.618.093 56.506.93 122.973 16.477v-40.96c7.075-69.26-38.447-122.973-117.295-114.874-6.33 0-50.827-1.303-120.087 26.438-19.177 8.843-21.69 7.447-28.113 7.447-19.363 0-11.357-56.32-7.634-63.395 13.591-16.756 93.836-48.035 172.498-47.663a201.263 201.263 0 0 1 145.78 45.243c33.513 37.515 50.27 87.04 46.266 137.123v181.434zM246.133 450c84.898-1.21 120.831-52.224 129.023-79.685 6.424-26.345 5.307-43.008 5.307-71.68a450.001 450.001 0 0 0-103.518-12.847c-39.656-2.979-112.081 14.708-109.288 84.434a72.704 72.704 0 0 0 78.475 79.872zm447.487 60.416c-20.573 1.862-30.161-12.753-33.233-27.182L530.06 52.224a99.98 99.98 0 0 1-5.12-22.528 12.102 12.102 0 0 1 10.147-13.684c.651-.187-5.586 0 58.274 0 22.994-2.328 30.441 15.825 32.862 27.09l93.37 368.732 86.854-368.64c1.396-8.471 7.726-29.044 33.512-26.903h44.963c5.586-.466 29.045-1.303 33.14 27.182l87.506 373.388 96.628-373.388c1.304-5.678 7.168-29.789 33.234-27.182h51.572c2.234-.28 16.105-2.141 13.778 22.528-1.117 4.84 8.936-27.927-138.147 444.788-2.98 14.43-12.568 29.045-33.14 27.183h-48.966c-28.672 2.979-32.768-25.32-33.14-28.207l-86.855-359.051-85.83 358.679c-.465 2.886-4.56 31.185-33.233 28.206H693.62zm715.963 14.709c-15.36 0-88.81-.745-150.156-32.117a33.513 33.513 0 0 1-20.48-31.185v-28.207c0-22.062 16.29-18.06 23.18-15.36 26.251 10.613 43.1 18.619 75.403 25.135 95.884 19.642 138.147-6.05 148.48-11.73 34.444-20.48 37.237-67.304 13.778-91.508-27.462-23.086-40.495-23.924-139.078-54.923-12.102-3.445-114.502-35.747-114.688-137.216C1244.439 74.1 1311.65.93 1428.015 1.583c33.233 0 121.576 10.798 145.5 40.96a31.65 31.65 0 0 1 5.028 18.338v26.624c0 11.544-4.19 17.408-12.754 17.408-20.2-2.234-55.948-29.23-128.652-28.113-18.06-.93-104.448 2.327-100.538 65.35-1.21 49.617 69.632 68.235 77.731 70.377 95.418 28.765 127.349 33.512 165.237 77.451 44.87 58.275 20.666 126.418 11.357 145.222-49.897 98.118-179.107 90.112-181.341 90.019z" fill="#666"/><path d="M1514.868 799.65c-183.389 135.448-449.536 207.594-676.77 207.594a1228.241 1228.241 0 0 1-830.65-316.23c-17.13-15.453-2.049-36.585 18.71-24.762a1668.748 1668.748 0 0 0 829.72 220.16 1650.036 1650.036 0 0 0 632.46-129.676c30.906-13.033 57.064 20.48 26.53 42.822z" fill="#EA913A"/><path d="M1591.296 712.518c-23.459-30.162-155.183-14.057-214.202-6.982-17.78 1.955-20.76-13.405-4.655-24.855 104.914-73.728 277.132-52.597 296.96-27.834 19.736 24.855-5.399 197.445-103.61 279.924-15.08 12.753-29.417 6.05-22.714-10.706 22.062-55.668 71.68-179.293 48.221-209.454z" fill="#EA913A"/></symbol><symbol id="Baidu" viewBox="0 0 1024 1024"><path d="m749.227 666.453-159.574 90.454c-31.146 17.066-48.64 49.493-48.64 84.053v139.947l381.44-215.04c8.96-4.267 15.36-14.934 15.36-26.027V309.333l-124.16 68.694c-31.146 17.066-48.64 49.493-48.64 84.053v176.64c-.426 12.8-6.826 21.333-15.786 27.733" fill="#DA4725"/><path d="M259.413 640.853v-176.64c0-34.56-17.92-66.56-48.64-84.053L86.187 309.333v428.374c0 10.666 6.826 21.333 15.36 26.026l381.44 215.04V838.827c0-34.56-17.92-66.56-48.64-84.054l-159.574-88.32c-8.96-6.4-15.36-14.933-15.36-25.6" fill="#028DCF"/><path d="M692.48 136.107 532.907 45.653c-8.96-4.266-22.187-4.266-31.147 0L120.747 261.12l124.16 68.693c31.146 17.067 68.693 17.067 97.706 0l159.574-90.453c2.133-2.133 4.266-2.133 6.826-2.133 8.96-2.134 15.36-2.134 24.32 2.133l159.574 90.453c31.146 17.067 68.693 17.067 97.706 0l124.16-68.693L692.48 136.107z" fill="#72AE2C"/></symbol><symbol id="Bandwagon" viewBox="0 0 1024 1024"><path d="m826.9 266.6-1.2 1.2-61 61c-34.3 34.3-112.4 86.1-113.4 86.9l-.8.4-5.4-5.4-1.8-1.6-23.5-23.3-1.6-2-5.4-5.4.6-1c.6-.8 52.2-78.9 86.7-113.2l60.4-60.6c2.2-1.8 1.6-1.6 1.6-1.6.4-.2 3.6-3.2 9.6-3.2 9.8 0 22.5 7.4 36.3 20.9l.8.8c13.8 13.9 21.3 26.9 21.3 36.7 0 5.4-2.4 8.4-3.2 9.4zm9.6-73.1-.6-.6c-21.9-22-43.5-32.9-64.2-32.9-21.7 0-34.5 11.9-37.3 14.9l-.8 1-61 61c-37.1 36.9-89.3 115.8-91.5 119-14.9 21.9-5.6 41.8 5 50.6l3 3 1.6 1.8 22.5 22.7-94.7 94.7c-3.6 3.8-5.8 8.6-5.8 13.8 0 5.2 2.2 10.2 5.8 13.7l114.2 114.4-350.6 155.6c-23.3 8-41.3 2.8-62-17.5-20.3-20.7-25.5-38.7-17.5-62l155.6-350.9 101 101-59.6 59.6c-20.3 20.1-20.5 52.8-.6 72.7 3.8 4 8.8 5.8 13.7 5.8 5 0 10-1.8 13.8-5.6 7.6-7.6 7.6-19.9 0-27.5-4.8-4.8-4.6-13 .4-17.9L571 439l-27.5-27.5-57.4 57.4-120.3-120.6c-4.6-4.6-11-6.4-17.3-5.4-6.4 1.2-11.5 5.4-14.1 11.2L166.9 731.7l-.4 1.4c-13.3 37.5-4.8 71.1 25.9 102.4l.6.6.2.4c21.7 21.3 44.6 32.1 69.2 32.1 10.8 0 21.9-2 33.3-6.2l1.4-.4 377.5-167.6c5.8-2.6 10-8 11.2-14.1 1.2-6.4-.8-12.8-5.4-17.3L559.7 542.4l87.3-87.3 2.8.2c8 0 15.8-2.6 23.1-7.6 3.4-2.2 82.1-54.4 119.2-91.5l61-61 .4-.2c3.6-3.4 15.1-16.1 15.5-37.1.2-20.6-10.6-42.5-32.5-64.4zm0 0"/></symbol><symbol id="DigitalOcean" viewBox="0 0 1024 1024"><path d="M35.68 826.244h-.16V698.886h127.357v127.358h152.03V628.487h197.755v197.117c210.204-.256 372.473-208.348 292.347-429.464a296.794 296.794 0 0 0-177.053-176.893C406.52 138.897 198.3 301.582 198.3 512.01H.032c0-335.194 323.834-596.31 675.155-486.615a495.03 495.03 0 0 1 323.418 323.418C1108.267 700.166 847.312 1024 512.055 1024V826.244H314.81v151.9h-151.9v-151.9H35.679z" fill="#0080FF"/></symbol><symbol id="Google" viewBox="0 0 1024 1024"><path d="M615.264 378.176h23.424l66.768-66.752 3.28-28.32c-124.224-109.648-313.84-97.824-423.472 26.384a299.52 299.52 0 0 0-64.64 119.968 36.366 36.366 0 0 1 23.44-1.424l133.488-22.016s6.784-11.232 10.304-10.528a166.528 166.528 0 0 1 227.888-17.312h-.48z" fill="#EA4335"/><path d="M800.528 429.44a300.704 300.704 0 0 0-90.64-146.128l-93.664 93.68a166.512 166.512 0 0 1 61.12 132.096v16.64a83.36 83.36 0 1 1 0 166.72H510.576l-16.64 16.88v100l16.64 16.64h166.768a216.928 216.928 0 0 0 208.8-152.496 216.992 216.992 0 0 0-85.6-244.016z" fill="#4285F4"/><path d="M343.6 825.04h166.752V691.552H343.6a82.64 82.64 0 0 1-34.448-7.488l-23.424 7.232-67.216 66.768-5.856 23.424A215.84 215.84 0 0 0 343.6 825.04z" fill="#34A853"/><path d="M343.6 391.984a216.832 216.832 0 0 0-130.912 388.768l96.72-96.72a83.36 83.36 0 0 1-41.648-110.32 83.36 83.36 0 0 1 151.952 0l96.736-96.72A216.784 216.784 0 0 0 343.6 392z" fill="#FBBC05"/></symbol></svg>