<svg viewBox="0 0 1024 1024" xmlns="http://www.w3.org/2000/svg" width="16" height="16"><path d="M928.256 1024h-832C43.008 1024 0 980.992 0 928.256v-832C0 43.008 43.008 0 96.256 0h832C980.992 0 1024 43.008 1024 96.256v832c0 52.736-43.008 95.744-95.744 95.744z" fill="#C0765A"/><path d="M770.56 274.944s-55.808 10.752-94.72 95.744c0 0-43.008 126.976-216.064 145.92 0 0-131.584 23.04-179.2 114.688 0 0-20.992 38.912-69.12 37.888 0 0-76.8-1.024-92.16 27.648 0 0 4.608 10.24 41.472 8.192 0 0-19.456 15.36-27.136 30.208 0 0 48.128 32.768 173.056-40.448 0 0 46.592-45.568 189.44-11.776 0 0 47.104 10.752 57.856 10.752 0 0-23.04 58.368-43.52 67.584 0 0 78.848 22.528 160.256-90.112 0 0 37.888 47.104 100.352 24.576 0 0 13.824-6.656 15.36-11.776 0 0-63.488-22.016-25.6-115.2 0 0 26.112-56.32 42.496-169.984 0 0-6.656-16.384 49.152-58.88 0 0 53.248-26.624 37.376-79.872 0 0-14.336-14.336-35.328 0 0 0-12.288 15.36-47.616 10.752 0-1.024-25.088.512-36.352 4.096z" fill="#FFF"/><path d="M801.792 296.448s-25.088-6.144-35.84 18.944c0 0 33.28 17.408 35.84-18.944z" fill="#C0765A"/></svg>