<svg viewBox="0 0 1024 1024" xmlns="http://www.w3.org/2000/svg" width="128" height="128"><path d="M166.153 797.842v6.573h-67.7V680.27l-2.099 6.865-64.744-19.789 36.572-119.621-4.5 6.674L7.554 516.54l70.131-103.964-6.689 5.413-42.604-52.608 100.927-81.718-12.898 4.944-24.264-63.196 120.55-46.272-14.089.99-4.721-67.534 126.209-8.828-11.395-2.623 15.234-65.965 120.56 27.83-7.597-4.384L470.76 0l105.154 60.704-4.09-4.389 49.51-46.166 81.884 87.802-1.745-3.582 60.85-29.67 52.531 107.696-.479-3.016 66.873-10.593 19.698 124.378 1.402-8.853 66.868 10.593-19.996 126.24 4.944-10.14 60.85 29.676-56.34 115.505 8.232-8.827 49.515 46.17-87.534 93.86 10.598-6.118 33.847 58.625-110.027 63.523 11.072-2.557 15.23 65.96-121.584 28.066 9.372.656-4.726 67.529-121.7-8.51 6.204 2.38-24.263 63.206-116.494-44.718 7.365 5.963L481.167 1024l-96.156-77.86 4.747 7.038-56.128 37.857-68.734-101.895 2.043 6.683-64.775 19.805-36.016-117.786zm0-80.442 42.286-12.923 32.864 107.474 36.562-24.656 62.484 92.634 27.91-34.463 86.601 70.121 15.491-40.35 104.363 40.053 3.057-43.705 111.671 7.809-10.048-43.522 109.472-25.273-22.684-39.285 97.718-56.41-33.469-31.205 77.189-82.767-41.177-20.082 49.641-101.774-45.04-7.133 17.705-111.757-43.069 6.82-17.69-111.707-38.791 18.916-49.283-101.038-31.618 29.48-76.266-81.775-21.821 37.793-96.539-55.735-9.977 43.21-108.605-25.07 3.153 45.09-111.48 7.794 16.48 42.937-104.973 40.295 28.248 34.871-88.13 71.357 37.193 25.086-63.534 94.187 42.812 13.085-33.187 108.54h44.48V717.4zm149.63-414.019h136.53c15.86 0 31.628 1.12 47.316 3.36 15.688 2.245 29.479 6.724 41.373 13.448 11.895 6.72 20.95 16.117 27.154 28.183 6.205 12.066 7.93 28.097 5.17 48.088-2.759 20.681-10.946 37.832-24.565 51.452-13.62 13.62-30.251 23.355-49.904 29.217v1.034c11.723 1.725 22.15 5.084 31.285 10.088 9.14 4.994 16.636 11.375 22.498 19.128 5.861 7.759 9.998 16.808 12.409 27.149 2.421 10.34 2.759 21.378 1.039 33.096-2.76 19.305-9.135 35.421-19.138 48.35a118.845 118.845 0 0 1-36.198 31.285c-14.135 7.93-29.651 13.62-46.545 17.065-16.898 3.445-33.443 5.17-49.646 5.17H264.583l51.2-366.113zm59.992 146.342h58.439c6.204 0 12.409-.686 18.613-2.069a60.35 60.35 0 0 0 17.328-6.719 42.004 42.004 0 0 0 13.443-12.409c3.622-5.175 5.952-11.38 6.986-18.618 1.034-7.587.252-13.877-2.33-18.876a27.845 27.845 0 0 0-11.118-11.637c-4.827-2.755-10.432-4.742-16.808-5.943a101.391 101.391 0 0 0-18.876-1.816h-54.816l-10.86 78.087zM354.57 601.234h72.401c6.205 0 12.672-.686 19.396-2.068a55.286 55.286 0 0 0 18.361-7.239 53.48 53.48 0 0 0 14.477-13.443c4.137-5.518 6.724-12.237 7.758-20.167 1.035-8.62-.171-15.602-3.621-20.944-3.446-5.347-8.273-9.393-14.478-12.152-6.204-2.759-13.014-4.656-20.43-5.69a151.945 151.945 0 0 0-20.943-1.548h-61.032l-11.894 83.251zm389.226-292.041L658.202 621.93l-70.7-4.958 53.287-322.45 103.006 14.67zm-74.626 345.36-22.246 110.496-94.036-27.38 21.534-106.007 94.748 22.89z" fill="#00B4F4"/></svg>