<svg xmlns="http://www.w3.org/2000/svg" width="200" height="200" viewBox="0 0 1024 1024"><path fill="#1296db" d="M512 0C229.683 0 0 229.683 0 512s229.683 512 512 512 512-229.683 512-512S794.317 0 512 0zM68.267 512c0-107.008 38.075-205.295 101.393-282.01 6.639 7.424 12.083 17.22 14.592 30.26 5.342 27.92-14.2 119.603 10.666 139.741 37.957 30.738 96.7 4.899 126.942 23.467C352.444 442.231 428.715 529.801 458.496 512c50.04-29.884-35.755-147.968-39.441-179.9-5.461-47.326 24.405-102.792 78.882-82.637 34.202 12.647 41.318 58.232 73.267 60.11 31.932 1.877 17.016-98.424 16.896-114.586-.341-45.261 44.254-77.449 91.717-93.68C841.507 167.63 955.733 326.674 955.733 512c0 74.325-18.466 144.401-50.91 206.012-3.72-39.731-13.38-83.951-37.563-97.502-46.95-26.283-99.209-1.144-137.114-43.196-15.667-17.374 4.045-95.027-43.144-113.68-91.734-36.268-166.06 38.553-188.604 98.661-9.42 25.14-12.698 55.877-8.226 85.863.921 96.358-48.93 96.41-30.02 135.065 20.718 42.326 94.788 27.307 80.366 115.917a59.05 59.05 0 0 1-17.988 34.1 557.227 557.227 0 0 1-26.283 16.383 124.143 124.143 0 0 1-15.24 4.899C250.76 938.564 68.267 746.257 68.267 512z"/></svg>