<svg viewBox="0 0 1024 1024" xmlns="http://www.w3.org/2000/svg" width="128" height="128"><path d="m879.04 323.36-176.8-176.768a64.032 64.032 0 0 0-90.464.224l-67.36 67.392 44.864 44.64.96-.192h.032l176.64 176.576 30.304 30.4 14.848 14.88 66.72-66.72a64 64 0 0 0 .224-90.432m-553.12 492-13.6-13.632-88.32-88.64-14.08-14.144-40.704-43.392L160 645.76v156.128c0 35.136 28.576 63.68 63.68 63.68h154.208l-11.648-11.2-40.352-38.976zm219.136-511.488-45.248-45.056-320.16 320.16 45.248 45.248 176.544 176.704 45.184 45.024 318.976-318.976-43.936-46.496z" fill="#FAB958"/></svg>