<svg viewBox="0 0 1024 1024" xmlns="http://www.w3.org/2000/svg" width="128" height="128"><path d="M123.82 122.82h326.74q1 0 1 1v326.74q0 1-1 1H123.82q-1 0-1-1V123.82q0-1 1-1Zm449.61 449.61h326.74q1 0 1 1v326.74q0 1-1 1H573.43q-1 0-1-1V573.43q0-1 1-1Z" fill="#4CC9C5"/><path d="M506.69 779.16H374.87a130.18 130.18 0 0 1-130-130V517.32h65.75v131.81a64.35 64.35 0 0 0 64.28 64.28h131.79zm272.47-272.48h-65.75V374.87a64.35 64.35 0 0 0-64.28-64.28H517.31v-65.75h131.82a130.18 130.18 0 0 1 130 130z" fill="#CFD8DC"/></svg>