<svg xmlns="http://www.w3.org/2000/svg" width="200" height="200" viewBox="0 0 1024 1024"><path fill="#36A197" d="M987.392 861.184c-18.432 0-33.28-14.848-33.28-33.28v-587.52c0-36.736-29.824-66.56-66.56-66.56H458.496c-18.432 0-33.28-14.848-33.28-33.28s14.848-33.28 33.28-33.28h429.056c73.344 0 132.992 59.648 132.992 132.992v587.648c.128 18.432-14.72 33.28-33.152 33.28z"/><path fill="#36A197" d="M223.616 140.544 554.624 275.84l-78.592-135.296L554.624 5.376zm341.888 776.192H136.448c-73.344 0-132.992-59.648-132.992-132.992V195.968c0-18.432 14.848-33.28 33.28-33.28s33.28 14.848 33.28 33.28v587.648c0 36.736 29.824 66.56 66.56 66.56h429.056c18.432 0 33.28 14.848 33.28 33.28-.128 18.432-15.104 33.28-33.408 33.28z"/><path fill="#36A197" d="M800.384 883.456 469.376 748.16l78.592 135.296-78.592 135.168z"/></svg>