<svg xmlns="http://www.w3.org/2000/svg" width="256" height="256" viewBox="0 0 1024 1024"><path fill="#1296DB" d="M533.6 740c0-10.4.8-20 2.4-30.4h-89.6c-120-7.2-254.4-57.6-321.6-126.4v110.4C124.8 824.8 232 932 363.2 932H648c-68-36.8-114.4-109.6-114.4-192M124.8 365.6c83.2 56.8 222.4 95.2 376.8 95.2 161.6 0 306.4-41.6 388.8-103.2v-75.2c0-105.6-172-191.2-384-191.2s-384 85.6-384 191.2c0 6.4.8 12 1.6 18.4v64.8z"/><path fill="#1296DB" d="M124.8 422.4V480c2.4 4 4 8 4 13.6 0 31.2 36.8 71.2 96 104 64.8 36 146.4 60 224 64H548C580 578.4 660 520 753.6 520c52 0 99.2 17.6 136.8 48V416c-92 56.8-231.2 92.8-388.8 92.8-151.2 0-284.8-32.8-376.8-86.4"/><path fill="#1296DB" d="m918.4 896-65.6-65.6c22.4-24 36-56 36-91.2 0-74.4-60.8-135.2-135.2-135.2s-135.2 60.8-135.2 135.2 60.8 135.2 135.2 135.2c21.6 0 42.4-5.6 60.8-14.4l70.4 70.4c4.8 4.8 11.2 7.2 16.8 7.2s12-2.4 16.8-7.2c9.6-9.6 9.6-24.8 0-34.4m-252-156c0-48 39.2-87.2 87.2-87.2s87.2 39.2 87.2 87.2-39.2 87.2-87.2 87.2-87.2-39.2-87.2-87.2"/></svg>