<svg xmlns="http://www.w3.org/2000/svg" width="256" height="256" viewBox="0 0 1024 1024"><path fill="#4493C5" d="M512 366.515c181.632 0 384-59.494 384-144.845C896 136.294 693.632 76.8 512 76.8s-384 59.494-384 144.87c0 85.35 202.368 144.845 384 144.845M128 681.754v94.976c0 85.376 202.368 144.87 384 144.87s384-59.494 384-144.87v-94.976C827.622 743.936 683.315 785.97 512 785.97s-315.622-42.034-384-104.19zm0-194.765v94.976c0 85.376 202.368 144.87 384 144.87s384-59.494 384-144.87v-94.976c-68.378 62.182-212.685 104.217-384 104.217s-315.622-42.035-384-104.192zm0-174.08v74.317c0 85.35 202.368 144.844 384 144.844s384-59.494 384-144.844v-74.292c-68.378 62.157-212.685 104.192-384 104.192s-315.622-42.035-384-104.192z"/></svg>