<svg viewBox="0 0 1024 1024" xmlns="http://www.w3.org/2000/svg" width="128" height="128"><path d="M894.3 196.9 592.8 22.8C549-2.6 473.3-2.6 429.4 22.8L127.9 196.9c-45 25.9-81.7 89.4-81.7 141.4v348.1c0 52 36.6 115.5 81.7 141.4l301.5 174.1c22 12.6 50.9 19.6 81.7 19.6 30.8 0 59.7-6.9 81.7-19.6l301.5-174.1c45-25.9 81.7-89.4 81.7-141.4V338.3c0-52-36.7-115.5-81.7-141.4zM487.4 914c0 10.5-2.3 19.1-6.4 24.2-3 3.8-7.6 5.8-12.4 5.6-7.5-.5-14.7-2.8-21.1-6.8L169.7 776.5c-32.6-18.7-60.1-66.4-60.1-104V379.9c0-9 1.8-29.8 18.7-29.8 6.1 0 13.3 2.4 21.1 6.8l277.8 160.4c32.5 18.7 60 66.4 60 104l.2 292.7zM511 468c-22.7 0-44.6-5.1-60-14L173.1 293.6c-11.9-6.9-18.9-15.2-18.9-23 0-7.7 6.9-16 18.9-22.9L450.9 87.2c15.3-8.9 37.3-14 60-14 22.8 0 44.6 5.1 60.1 14l277.8 160.4c11.9 6.9 18.7 15.2 18.7 22.9 0 7.8-6.8 16.1-18.7 23L571.1 454c-15.5 8.9-37.4 14-60.1 14zm397.9 204.4c0 37.5-27.5 85.2-60.1 104l-247 143.1-21.1 6.8c-17 0-18.8-20.8-18.8-29.7V604.1c0-37.5 27.6-85.2 60.1-104L869 357c6.3-4 13.5-6.3 21-6.8 17 0 18.8 20.8 18.8 29.8v292.4zm0 0" fill="#FF8066"/><path d="M201.6 465.7c-21.5 0-39 23.4-39 52.2 0 28.8 17.6 52.2 39.1 52.2s39-23.4 39-52.2c-.1-28.7-17.7-52.2-39.1-52.2zm0 177.5c-21.5 0-39 23.4-39 52.2 0 28.8 17.6 52.2 39.1 52.2s39-23.4 39-52.2c-.1-28.7-17.7-52.2-39.1-52.2zm150 75.6c-21.5 0-39.1 23.4-39.1 52.2 0 28.8 17.6 52.2 39.1 52.2s39-23.4 39-52.2c0-28.9-17.5-52.2-39-52.2zM688 560.4c-21.5 0-39 23.4-39 52.2 0 28.8 17.6 52.2 39.1 52.2s39-23.4 39-52.2c-.1-28.8-17.5-52.2-39.1-52.2zm125.4 56c-21.5 0-39 23.4-39 52.2 0 28.8 17.6 52.2 39.1 52.2s39-23.4 39-52.2c-.1-28.8-17.5-52.2-39.1-52.2zm-304-387.3c-31.6 0-57.3 17.6-57.3 39.1s25.7 39 57.3 39c31.7 0 57.4-17.6 57.4-39 0-21.6-25.8-39.1-57.4-39.1zM364.9 544.7c-21.5 0-39.1 23.4-39.1 52.2 0 28.8 17.6 52.2 39.1 52.2 10.9 0 21.4-6.1 28.8-17 6.6-9.6 10.3-22.1 10.3-35.1-.1-28.9-17.6-52.3-39.1-52.3zm0 0" fill="#FF8066"/></svg>