<svg viewBox="0 0 1024 1024" xmlns="http://www.w3.org/2000/svg" width="128" height="128"><path d="M957.218 311.652V200.348h-66.784v-66.782h-66.782V66.782H712.348V0H311.652v66.782H200.348v66.784h-66.782v66.782H66.782v111.304l-66.766.006v400.696h66.766v111.298h66.784v66.782h66.782v66.784h111.304V1024h400.696v-66.782h111.304v-66.784h66.782v-66.782h66.784V712.354h22.274v-.006H1024V311.652z" fill="#FFDE46"/><path d="M957.218 311.652V200.348h-66.784v-66.782h-66.782V66.782H712.348V0H311.652v66.782H200.348v66.784h-66.782v66.782H66.782v111.304H0v66.782h133.566V267.13h66.782v-66.782h66.782v-66.782h489.74v66.782h66.782v66.782h66.782v111.304H1024v-66.782z" fill="#FFF"/><path d="M200.348 66.782h111.304v66.782H200.348zm-66.782 66.784h66.782v66.782h-66.782zm-66.784 66.782h66.782v111.304H66.782zm0 512h66.782v111.304H66.782zm66.784 111.304h66.782v66.782h-66.782zm66.782 66.782h111.304v66.782H200.348zM311.652 0h400.696v66.782H311.652zm0 957.218h400.696V1024H311.652zM0 311.652h66.782v400.696H0zm712.348-244.87h111.304v66.782H712.348zm111.304 66.784h66.782v66.782h-66.782zm66.782 66.782h66.782v111.304h-66.782zm0 512h66.782v111.304h-66.782zm-66.782 111.304h66.782v66.782h-66.782zm-111.304 66.782h111.304v66.782H712.348zm244.87-578.782H1024v400.696h-66.782zM267.13 623.304h66.782V756.87H267.13zm422.956 0h66.782V756.87h-66.782zM333.914 756.87h356.174v66.782H333.914zM244.87 267.13h133.566v267.13H244.87zm400.696 0h133.566v267.13H645.566z"/></svg>