<svg viewBox="0 0 1024 1024" xmlns="http://www.w3.org/2000/svg" width="128" height="128"><path d="M326.295 592.6A333.145 333.145 0 0 0 .314 934.445v89.043h553.195V690.855A314.723 314.723 0 0 0 325.783 592.6zm-6.141-97.743a237.961 237.961 0 0 0 231.82-244.102A237.961 237.961 0 0 0 320.154 6.14 237.961 237.961 0 0 0 88.845 250.755a237.961 237.961 0 0 0 231.309 244.102zm294.253 528.631a24.564 24.564 0 0 1-24.564-24.563V34.287a24.564 24.564 0 1 1 51.174 0v964.638a24.564 24.564 0 0 1-26.61 24.563z" fill="#F3896E"/><path d="M995.144 252.802 673.77 418.095a51.174 51.174 0 0 1-73.691-44.01l-3.582-322.91a51.174 51.174 0 0 1 72.667-46.058l324.958 157.618a51.174 51.174 0 0 1 1.023 90.067z" fill="#F3896E"/></svg>