<svg viewBox="0 0 1024 1024" xmlns="http://www.w3.org/2000/svg" width="128" height="128"><path d="M744.005 922.012a26.908 26.908 0 0 0-26.907-26.903H117.675a26.908 26.908 0 1 0 0 53.815h599.423a26.912 26.912 0 0 0 26.907-26.912zM459.544 614.335c73.872 55.28 165.02 71.109 248.227 51.152l106.995 254.978c7.436 17.742 26.249 26.752 42.009 20.126 15.76-6.604 22.514-26.34 15.069-44.073L766.222 644.803a296.625 296.625 0 0 0 110.491-90.502c98.62-131.792 71.735-318.558-60.062-417.178-131.77-98.616-318.526-71.717-417.155 60.057-98.607 131.788-71.722 318.558 60.048 417.155zm407.065-295.06c16.822 69.695 6.425 146.318-35.9 202.879-75.47 100.826-233.982 121.945-334.817 46.484-29.013-21.709-51.893-49.912-68.015-81.446 68.257-69.607 297.096-282.658 438.732-167.916zM117.12 670.326h277.931a26.908 26.908 0 0 0 0-53.816h-277.93a26.908 26.908 0 0 0 0 53.815zm2.755-283.716h165.322c16.373 0 29.653-12.05 29.653-26.908s-13.28-26.907-29.653-26.907H119.876c-16.378 0-29.654 12.048-29.654 26.907s13.271 26.908 29.654 26.908z" fill="#2FB4A1"/></svg>