<svg viewBox="0 0 1039 1024" xmlns="http://www.w3.org/2000/svg" width="129.875" height="128"><path d="M722.824 927.624v28.612a37.647 37.647 0 0 1-37.647 37.647H308.706a37.647 37.647 0 0 1-37.647-37.647v-28.612A301.176 301.176 0 0 1 30.118 632.471v-75.294A45.176 45.176 0 0 1 75.294 512h843.294a45.176 45.176 0 0 1 45.177 45.177v75.294a301.176 301.176 0 0 1-240.941 295.153Zm180.706-326.31c0-16.053-17.619-29.048-39.349-29.048H129.702c-21.73-.001-39.35 12.995-39.35 29.048v48.4a153.6 153.6 0 0 0 28.989 88.168h755.2a153.6 153.6 0 0 0 28.988-88.199v-48.4Z" fill="#ef6262"/><path d="m1029.65 260.954-179.2 125.907-56.11-71.47 160.51-149.744c16.173-13.131 49.107 1.506 62.027 17.92l9.352 11.912c12.905 16.474 19.606 52.359 3.418 65.475ZM645.514 243.41l-66.635-60.039L712.463 8.538c13.779-15.69 48.49-7.198 63.82 6.611l11.113 10.014c15.33 13.81 27.708 47.737 13.93 63.428ZM399.631 514.079h-99.132l268.393-319.337 66.65 60.04Zm439.04-117.715L690.086 514.078H567.07l215.492-189.184Z" fill="#ef6262"/></svg>