<svg viewBox="0 0 1024 1024" xmlns="http://www.w3.org/2000/svg" width="128" height="128"><path d="M944 192H755.2v-44.8c0-54.4-44.8-99.2-99.2-99.2H361.6c-54.4 0-99.2 44.8-99.2 99.2V192H83.2c-12.8 0-25.6 9.6-25.6 25.6 0 12.8 9.6 25.6 25.6 25.6H144v633.6c0 54.4 44.8 99.2 99.2 99.2h550.4c54.4 0 99.2-44.8 99.2-99.2V243.2H944c12.8 0 25.6-9.6 25.6-25.6-3.2-12.8-9.6-25.6-25.6-25.6zm-627.2-44.8c0-25.6 22.4-48 48-48h294.4c25.6 0 48 22.4 48 48V192H316.8v-44.8zm524.8 720c0 28.8-16 57.6-41.6 57.6H249.6c-25.6 0-54.4-19.2-54.4-44.8l3.2-636.8h643.2v624z" fill="#d81e06"/><path d="M368 380.8c-16 0-25.6 9.6-25.6 25.6v342.4c0 16 12.8 25.6 25.6 25.6s25.6-9.6 25.6-25.6V406.4c-3.2-12.8-9.6-25.6-25.6-25.6zm160 0c-16 0-25.6 9.6-25.6 25.6v342.4c0 16 12.8 25.6 25.6 25.6s25.6-9.6 25.6-25.6V406.4c-3.2-12.8-9.6-25.6-25.6-25.6zm160 0c-16 0-25.6 9.6-25.6 25.6v342.4c0 16 12.8 25.6 25.6 25.6s25.6-9.6 25.6-25.6V406.4c-3.2-12.8-9.6-25.6-25.6-25.6z" fill="#d81e06"/></svg>