<svg viewBox="0 0 1161 1024" xmlns="http://www.w3.org/2000/svg" width="145.125" height="128"><path d="M897.62 294.103C802.195 200.46 717.454 116.075 635.917 37.742a95.067 95.067 0 0 0-149.544 0c-95.78 92.575-156.31 153.817-261.702 256.361-65.515 68.007-39.166 110.022 26.704 110.022h623.1c66.938-1.425 80.825-53.053 23.143-110.022z" fill="#0081FF"/><path d="M649.804 454.329h409.465q62.31 0 62.31 62.31v409.465q0 62.31-62.31 62.31H649.804q-62.31 0-62.31-62.31V516.639q0-62.31 62.31-62.31Z" fill="#62BA46"/><path d="M0 721.371a267.043 267.043 0 1 0 534.085 0 267.043 267.043 0 1 0-534.085 0Z" fill="#F2A23A"/></svg>