<svg viewBox="0 0 1024 1024" xmlns="http://www.w3.org/2000/svg" width="128" height="128"><path d="M807.533 896.078H216.675c-32.5 0-59.169-26.46-59.169-59.169V187.091c0-32.501 26.46-59.17 59.17-59.17h590.857c32.501 0 58.96 26.46 58.96 59.17v649.818c0 32.501-26.667 59.17-58.96 59.17z" fill="#EF6C00"/><path d="M216.675 187.09v649.82h590.65l.208-649.82z" fill="#FFE0B2"/><path d="M264.386 232.093h89.587v89.378h-89.587z" fill="#00897B"/><path d="M264.386 388.974h89.587v89.379h-89.587z" fill="#EC407A"/><path d="M264.386 545.856h89.587v89.378h-89.587z" fill="#00897B"/><path d="M264.386 702.737h89.587v89.379h-89.587zM399.6 232.093h89.587v89.378H399.6z" fill="#EC407A"/><path d="M399.6 388.974h89.587v89.379H399.6zm0 156.882h89.587v89.378H399.6zm0 156.88h89.587v89.38H399.6zm135.213-470.643H624.4v89.378h-89.587zm0 156.881H624.4v89.379h-89.587z" fill="#00897B"/><path d="M534.813 545.856H624.4v89.378h-89.587z" fill="#EC407A"/><path d="M534.813 702.737H624.4v89.379h-89.587zm135.214-470.644h89.587v89.378h-89.587zm0 156.881h89.587v89.379h-89.587zm0 156.882h89.587v89.378h-89.587z" fill="#00897B"/><path d="M670.027 702.737h89.587v89.379h-89.587z" fill="#EC407A"/></svg>