<svg viewBox="0 0 1127 1024" xmlns="http://www.w3.org/2000/svg" width="140.875" height="128"><path d="M838.687 928.478H185.313a89.982 89.982 0 0 1-89.79-89.791v-468.06h880.716A47.761 47.761 0 0 0 1024 322.866V185.313A185.504 185.504 0 0 0 838.687 0H185.313A185.504 185.504 0 0 0 0 185.313v653.374A185.504 185.504 0 0 0 185.313 1024h653.374a47.761 47.761 0 0 0 0-95.522zM401.194 137.552h34.388a47.761 47.761 0 1 1 0 95.523h-34.388a47.761 47.761 0 0 1 0-95.523zm-189.134 0h34.388a47.761 47.761 0 1 1 0 95.523H212.06a47.761 47.761 0 0 1 0-95.523z" fill="#368832"/><path d="M349.42 817.672a47.761 47.761 0 0 0 47.762-47.762V558.233a47.761 47.761 0 0 0-95.522 0v57.313h-34.197v-57.313a47.761 47.761 0 0 0-95.523 0V769.91a47.761 47.761 0 0 0 95.523 0v-57.313h34.197v57.313a47.761 47.761 0 0 0 47.76 47.762zm172.323 0a47.761 47.761 0 0 0 47.761-47.762V605.994H586.7a47.761 47.761 0 0 0 0-95.522H456.98a47.761 47.761 0 0 0 0 95.522h17.003V769.91a47.761 47.761 0 0 0 47.761 47.762zm243.391 0a47.761 47.761 0 0 0 47.762-47.762V605.994h17.003a47.761 47.761 0 0 0 0-95.522h-129.72a47.761 47.761 0 0 0 0 95.522h17.194V769.91a47.761 47.761 0 0 0 47.761 47.762zm261.35-307.2H943.57a47.57 47.57 0 0 0-47.761 47.76V769.91a47.761 47.761 0 0 0 95.522 0v-57.313h35.153a100.68 100.68 0 1 0 0-201.361zm0 105.838H991.33v-10.316h35.153a5.158 5.158 0 0 1 0 10.316z" fill="#368832"/></svg>