<svg viewBox="0 0 1024 1024" xmlns="http://www.w3.org/2000/svg" width="200" height="200"><path d="M943.004 243.916 527.964 4.47a31.926 31.926 0 0 0-31.927 0L80.997 243.916a31.926 31.926 0 0 0-15.964 27.457v478.892a31.926 31.926 0 0 0 15.963 27.457l118.127 68.322a162.824 162.824 0 0 0 52.36 5.108c88.754 0 116.21-34.48 116.21-119.404V328.84h-69.598v418.87c0 30.65-14.048 44.059-52.36 44.059a56.19 56.19 0 0 1-14.047 0l-102.802-60.022V289.89L512 68.96l383.114 220.93v441.858L512 952.678l-114.934-63.853a31.926 31.926 0 0 0-31.926 55.552l130.897 75.346a31.926 31.926 0 0 0 31.926 0l415.04-239.447a31.926 31.926 0 0 0 15.964-27.456V271.373a31.926 31.926 0 0 0-15.963-27.457z" fill="#14ADC4"/><path d="M618.633 667.257c-88.754 0-115.572-40.865-115.572-73.43h-70.238c7.662 106.634 104.08 127.705 187.726 127.705 112.38 0 184.533-40.227 184.533-127.705 0-51.082-35.757-84.285-127.704-97.694l-101.526-10.855C526.048 478.893 512 464.207 512 439.943c0-42.781 51.72-56.19 97.056-56.19 72.791 0 107.91 31.287 109.826 68.96h70.237c-1.277-69.599-55.551-123.873-175.594-123.873-101.525 0-165.377 43.42-165.377 118.127a102.802 102.802 0 0 0 97.694 97.694l115.573 15.324c56.19 7.663 69.599 22.987 69.599 49.167s-22.349 58.105-112.38 58.105z" fill="#14ADC4"/></svg>