<svg viewBox="0 0 1024 1024" xmlns="http://www.w3.org/2000/svg" width="128" height="128"><path d="M1022.54 731.827V913.92a109.389 109.389 0 0 1-109.26 109.26H694.81a36.378 36.378 0 0 1-36.43-36.428c0-20.147 16.282-36.429 36.43-36.429h218.496c20.096 0 36.403-16.307 36.403-36.403V731.827a36.378 36.378 0 1 1 72.832 0zM294.068 950.323H112a36.454 36.454 0 0 1-36.429-36.403V731.827a36.403 36.403 0 1 0-72.832 0V913.92A109.389 109.389 0 0 0 112 1023.18h182.067a36.403 36.403 0 1 0 0-72.857zM38.17 328.09c20.096 0 36.403-16.308 36.403-36.404V109.62c0-20.07 16.358-36.429 36.429-36.429h182.067a36.429 36.429 0 0 0 0-72.832H111.002A109.389 109.389 0 0 0 1.74 109.62v182.067c0 20.096 16.307 36.404 36.429 36.404zM914.304.358H695.808a36.403 36.403 0 1 0 0 72.832h218.496c20.096 0 36.403 16.359 36.403 36.43v182.066a36.403 36.403 0 1 0 72.832 0V109.62A109.389 109.389 0 0 0 914.304.36zm-530.893 509.44c0 97.588-55.219 155.981-136.422 155.981-81.178 0-136.397-58.393-136.397-156.006 0-97.587 55.22-152.807 136.397-152.807 81.203 0 136.422 55.604 136.422 152.832zm-72.806 0c0-57.6-24.397-91.622-63.616-91.622-39.168 0-63.181 33.997-63.181 91.597 0 58.01 23.987 94.413 63.18 94.413 39.22 0 63.617-36.404 63.617-94.413zm246.784 94.388c-41.984 0-69.197-34.407-69.197-93.594 0-58.01 31.616-92.416 70.016-92.416 21.197 0 36.787 9.6 51.584 23.194l37.632-45.568c-20.429-20.813-51.635-38.836-90.42-38.836-75.596 0-142.002 56.832-142.002 156.007 0 100.813 64 152.806 139.596 152.806 38.81 0 72.013-14.797 97.204-44.006l-37.607-44.8c-14.003 15.206-33.203 27.213-56.806 27.213zm302.413-62.004 66.406 118.016h-80l-54.784-104.832h-34.432v104.807h-71.603v-297.6h109.21c63.59 0 116.403 21.606 116.403 93.619 0 43.597-20.404 71.578-51.2 85.99zm-18.79-86.016c0-27.98-18.023-37.196-52.02-37.196h-32v80h32c33.997 0 52.02-14.797 52.02-42.778z" fill="#518DE7"/></svg>