<svg viewBox="0 0 1024 1024" xmlns="http://www.w3.org/2000/svg" width="200" height="200"><path d="M925.013 68.267 634.88 0h-10.24L95.573 204.8c-6.826 3.413-10.24 10.24-10.24 17.067V768c0 6.827 3.414 10.24 6.827 13.653s10.24 3.414 17.067 0l136.533-68.266c6.827-3.414 10.24-10.24 10.24-13.654v-430.08L665.6 143.36v744.107L105.813 819.2c-10.24 0-17.066 3.413-17.066 13.653-3.414 10.24 3.413 17.067 10.24 20.48L645.12 1024h10.24l273.067-102.4c6.826-3.413 10.24-10.24 10.24-17.067v-819.2c0-6.826-6.827-13.653-13.654-17.066z" fill="#d81e06"/></svg>