<svg viewBox="0 0 1024 1024" xmlns="http://www.w3.org/2000/svg" width="128" height="128"><path d="M938.667 1024H213.333A85.333 85.333 0 0 1 128 938.667V832H42.667A42.667 42.667 0 0 1 0 789.333V426.667a42.923 42.923 0 0 1 12.501-30.123A42.41 42.41 0 0 1 42.667 384H128V85.333A85.333 85.333 0 0 1 213.333 0h530.048L1024 282.453v656.214A85.333 85.333 0 0 1 938.667 1024zM192 832v106.667A21.333 21.333 0 0 0 213.333 960h725.334A21.333 21.333 0 0 0 960 938.667V308.82l-10.112-10.154H823.467a98.133 98.133 0 0 1-98.134-98.134v-128L716.8 64H213.333a21.675 21.675 0 0 0-15.104 6.23A21.333 21.333 0 0 0 192 85.332V384h640a42.667 42.667 0 0 1 42.667 42.667v362.666A42.667 42.667 0 0 1 832 832zm424.448-359.51v274.177h44.885V625.323h134.059v-38.4H661.333V510.89h142.123v-38.4zm-276.48 0v274.177h100.224a130.773 130.773 0 0 0 100.992-36.864 141.995 141.995 0 0 0 33.024-100.224 140.8 140.8 0 0 0-33.024-100.224 130.645 130.645 0 0 0-100.992-36.864H339.968zm-251.52 0v274.177h44.97V641.45h67.969c66.517 0 100.224-28.544 100.224-84.822s-33.451-84.096-99.456-84.096zm343.339 235.777h-46.934V510.89h46.934a103.168 103.168 0 0 1 74.88 23.424 104.107 104.107 0 0 1 23.04 75.306 105.856 105.856 0 0 1-23.04 74.88 102.912 102.912 0 0 1-74.88 23.766zM198.699 603.05h-65.28v-92.16h65.28a70.187 70.187 0 0 1 43.349 10.752 41.088 41.088 0 0 1 14.25 34.986 43.093 43.093 0 0 1-13.823 35.712 72.533 72.533 0 0 1-43.776 10.71z" fill="#EA4318"/></svg>