<svg viewBox="0 0 1024 1024" xmlns="http://www.w3.org/2000/svg" width="128" height="128"><path d="M144 64c-44.8 0-80 35.2-80 80s35.2 80 80 80 80-35.2 80-80-35.2-80-80-80zm736 736c-44.8 0-80 35.2-80 80s35.2 80 80 80 80-35.2 80-80-35.2-80-80-80z" fill="#2D74DA"/><path d="M512 128h-32v32h32v-32zm-64 0h-32v32h32v-32zm-64 0h-32v32h32v-32zm-64 0h-32v32h32v-32zm-64 0h-32v32h32v-32z" fill="#E62325"/><path d="M512 128h-32v64h32v-64zm0 96h-32v32h32v-32zm0 64h-32v32h32v-32zm0 64h-32v32h32v-32zm0 64h-32v32h32v-32zm0 64h-32v32h32v-32zm0 64h-32v32h32v-32zm0 64h-32v32h32v-32zm0 64h-32v32h32v-32zm0 64h-32v32h32v-32zm0 64h-32v32h32v-32zm0 64h-32v32h32v-32zm288 0h-32v32h32v-32zm-64 0h-32v32h32v-32zm-64 0h-32v32h32v-32zm-64 0h-32v32h32v-32zm-64 0h-32v32h32v-32z" fill="#E62325"/></svg>