<svg viewBox="0 0 1024 1024" xmlns="http://www.w3.org/2000/svg" width="128" height="128"><path d="M939.52 465.92c-19.968 0-35.84 15.872-35.84 35.84v261.12a56.158 56.158 0 0 1-56.32 56.32h-665.6a56.158 56.158 0 0 1-56.32-56.32V502.784c0-19.968-15.872-35.84-35.84-35.84s-35.84 15.872-35.84 35.84V762.88c0 70.656 57.344 128 128 128h665.6c70.656 0 128-57.344 128-128V501.76c0-19.968-15.872-35.84-35.84-35.84z" fill="#2cd7aa"/><path d="M189.952 653.312c0 19.968 10.752 30.208 32.768 30.208 19.968 0 31.232-10.24 32.768-30.208v-209.92l209.92 227.84c8.192 8.192 17.92 11.776 30.208 11.776 17.92 0 28.16-7.168 30.208-20.992 0-10.24-4.096-19.968-11.776-30.208L339.968 440.32h30.208c95.744-3.584 144.896-55.808 146.944-155.648-8.192-88.064-62.976-137.216-164.864-146.944H225.792c-26.112 0-37.888 11.776-35.84 35.84v479.744zM256 194.56h93.184c61.952 4.096 96.256 34.816 101.888 93.184 2.048 70.144-32.256 103.936-101.888 101.888H256V194.56zm366.08 488.96h195.072c19.968 0 31.232-10.24 32.768-30.208-2.048-19.968-12.8-31.232-32.768-32.768H652.288V440.32h150.016c19.968 0 31.232-10.24 32.768-30.208-2.048-19.968-12.8-31.232-32.768-32.768H652.288v-176.64h164.864c19.968 0 31.232-10.752 32.768-32.768-2.048-17.92-12.8-28.16-32.768-30.208H622.08c-26.112 0-37.888 11.776-35.84 35.84V647.68c-2.56 24.064 9.728 35.84 35.84 35.84z" fill="#2c6df8"/></svg>