<svg xmlns="http://www.w3.org/2000/svg" width="200" height="200" viewBox="0 0 1024 1024"><path fill="#c81623" d="M694.265 286.988 512 469.254 329.733 286.988c-8.288-8.287-21.725-8.286-30.013.001-8.286 8.287-8.286 21.724 0 30.012l161.045 161.044H352.131c-11.721 0-21.221 9.502-21.221 21.221s9.501 21.221 21.22 21.221h139.002v89.13H363.804c-11.721 0-21.222 9.503-21.222 21.222s9.502 21.22 21.222 21.22h127.329v131.574c0 11.718 9.502 21.22 21.221 21.22s21.221-9.502 21.221-21.22V652.06h127.328c11.72 0 21.222-9.503 21.222-21.221s-9.502-21.222-21.222-21.222H533.575v-89.13h139c11.72 0 21.221-9.502 21.221-21.221s-9.502-21.221-21.22-21.221H563.233L724.278 317c8.287-8.288 8.287-21.725 0-30.013-8.29-8.287-21.723-8.287-30.013 0z"/><path fill="#c81623" d="M512 65.29c-246.317 0-446.71 200.393-446.71 446.709 0 246.317 200.393 446.71 446.71 446.71s446.71-200.393 446.71-446.71C958.71 265.683 758.317 65.29 512 65.29zm0 850.976c-222.914 0-404.267-181.353-404.267-404.267S289.086 107.734 512 107.734 916.267 289.086 916.267 512 734.913 916.266 512 916.266z"/></svg>