<svg viewBox="0 0 1024 1024" xmlns="http://www.w3.org/2000/svg" width="128" height="128"><path d="M879.883 142.885a631.178 631.178 0 0 1-203.656-50.323 934.642 934.642 0 0 1-134.753-82.458 52.196 52.196 0 0 0-60.23 0 928.431 928.431 0 0 1-134.85 82.507 631.375 631.375 0 0 1-203.657 50.323 52.146 52.146 0 0 0-48.795 52.196v314.997a470.648 470.648 0 0 0 221.203 399.23l97.836 61.314 70.432 44.014a52.196 52.196 0 0 0 55.301 0l70.432-44.014 97.836-61.314a470.5 470.5 0 0 0 221.795-399.23V195.13a52.146 52.146 0 0 0-48.894-52.245zM756.664 390.309l-260.88 260.83a52.146 52.146 0 0 1-36.916 15.28h-5.126a52.146 52.146 0 0 1-38.296-22.969L311.104 486.962a52.196 52.196 0 0 1-4.288-52.738 52.196 52.196 0 0 1 44.063-29.572 52.196 52.196 0 0 1 47.02 24.298l69.003 103.504 215.83-215.88a52.196 52.196 0 0 1 72.848.937 52.196 52.196 0 0 1 .936 72.847zm0 0" fill="#3ED67E"/></svg>