<svg viewBox="0 0 1024 1024" xmlns="http://www.w3.org/2000/svg" width="128" height="128"><path d="M864 0a32 32 0 0 1 32 32v591.52c-55.936 15.232-110.4 4.672-163.424-31.776-84.736-58.208-180.16-54.272-286.4 11.744A64 64 0 0 0 416 657.856V896H32a32 32 0 0 1-32-32V32A32 32 0 0 1 32 0h832zm-32 64H64v768-256l163.936-201.248a32 32 0 0 1 42.816-6.24L454.336 493.44a32 32 0 0 0 44.992-9.28l166.08-260.768a32 32 0 0 1 48.064-6.912L831.968 320 832 64z" fill="#3FA9F5"/><path d="M160 208a80 80 0 1 0 160 0 80 80 0 1 0-160 0Z" fill="#1E6DE6"/><path d="M465.088 921.408c109.568-57.6 210.944-57.6 299.328 1.76l6.848 4.416c81.824 51.072 157.632 28.224 193.184-31.872a32 32 0 1 1 55.104 32.576c-54.56 92.16-174.496 126.176-290.816 48l-7.04-4.544c-65.92-40.864-140.096-39.296-226.784 6.304a32 32 0 1 1-29.824-56.64zm0-128c109.568-57.6 210.944-57.6 299.328 1.76l6.848 4.416c81.824 51.072 157.632 28.224 193.184-31.872a32 32 0 1 1 55.104 32.576c-54.56 92.16-174.496 126.176-290.816 48l-7.04-4.544c-65.92-40.864-140.096-39.296-226.784 6.304a32 32 0 1 1-29.824-56.64zm0-128c109.568-57.6 210.944-57.6 299.328 1.76l6.848 4.416c81.824 51.072 157.632 28.224 193.184-31.872a32 32 0 1 1 55.104 32.576c-54.56 92.16-174.496 126.176-290.816 48l-7.04-4.544c-65.92-40.864-140.096-39.296-226.784 6.304a32 32 0 1 1-29.824-56.64z" fill="#47D1A7"/></svg>