<svg viewBox="0 0 1024 1024" xmlns="http://www.w3.org/2000/svg" width="200" height="200"><path d="M755.072 657.067a124.245 124.245 0 0 0 109.653-62.08 126.293 126.293 0 0 0 0-126.72 124.245 124.245 0 0 0-109.653-62.08c-67.84 1.28-122.197 57.045-122.197 125.44s54.357 124.16 122.197 125.44zm202.24-358.4H66.688C29.568 298.667 0 329.899 0 368.299v586.069C0 992.768 29.525 1024 66.688 1024h890.624c37.12 0 66.688-31.232 66.688-69.632v-586.07c0-38.4-29.525-69.631-66.688-69.631zM683.562 692.18c-12.245 0-20.906 6.102-30.805 14.507l-45.013 40.405c-9.387 7.168-16.896 11.99-27.648 11.99a38.528 38.528 0 0 1-26.496-10.454 335.232 335.232 0 0 1-10.368-10.496l-129.493-148.48a51.797 51.797 0 0 0-40.235-19.2c-16.128 0-31.061 8.448-40.448 19.926L71.083 929.664v-529.45c2.432-17.366 15.189-29.91 31.573-29.91h818.475c16.64 0 30.08 13.056 31.061 30.635l.683 529.152-238.55-222.08a40.192 40.192 0 0 0-30.72-15.872zM128 0h725.333v85.333H128z" fill="#3FA9F5"/><path d="M0 128h469.333v42.667H0zm554.667 0H1024v42.667H554.667zM0 213.333h469.333V256H0zm554.667 0H1024V256H554.667z" fill="#9DC6FF"/></svg>