<svg viewBox="0 0 1024 1024" xmlns="http://www.w3.org/2000/svg" width="16" height="16"><path d="M170.667 0h682.666Q1024 0 1024 170.667v682.666Q1024 1024 853.333 1024H170.667Q0 1024 0 853.333V170.667Q0 0 170.667 0Z" fill="#42CAC7"/><path d="M760.277 185.472c-29.354-26.155-64.853-15.488-99.925 15.488a247.21 247.21 0 0 0-15.573 15.232 350.336 350.336 0 0 0-23.979 28.587 69.077 69.077 0 0 0-26.453-5.248H303.659a70.101 70.101 0 0 0-69.675 69.845v290.73a70.101 70.101 0 0 0 69.888 69.889H508.16c2.475 13.568 3.883 23.21 3.883 23.21s0 2.518.469 6.4a638.037 638.037 0 0 0 1.579 78.123 277.077 277.077 0 0 0 14.293 75.605l4.267-2.389a337.92 337.92 0 0 1-11.648-112.853 860.032 860.032 0 0 1 47.36-236.203 691.2 691.2 0 0 1 179.2-282.88c-56.704 51.2-133.462 217.003-156.459 278.4a1113.259 1113.259 0 0 0-54.955 195.072 151.424 151.424 0 0 1 80.256-83.03s29.867-37.077 65.195-90.026a638.379 638.379 0 0 0-67.157 17.877c-17.067 7.168-21.675 9.6-21.675 9.6a583.467 583.467 0 0 1 102.741-48.938c65.28-102.614 136.363-248.619 64.768-312.491zM511.872 487.637a248.32 248.32 0 0 1 15.445 44.416q1.238 4.651 2.347 9.344c1.536 6.443 2.347 10.624 2.347 10.624s-.555-2.048-2.731-8.533l-1.45-4.267-.94-2.304a525.312 525.312 0 0 0-19.498-36.65c-4.267 12.032-7.68 23.253-10.667 33.408a295.765 295.765 0 0 1 22.144 68.266s-.725-2.816-4.266-12.544a465.067 465.067 0 0 0-21.974-41.642 98.432 98.432 0 0 0-6.442 42.026 113.664 113.664 0 0 1 9.344 24.022h-192a14.165 14.165 0 0 1-13.995-13.995V309.376a14.165 14.165 0 0 1 13.995-13.995h283.648a647.381 647.381 0 0 0-75.307 192.256z" fill="#FFF"/></svg>