<svg viewBox="0 0 1024 1024" xmlns="http://www.w3.org/2000/svg" width="16" height="16"><path d="M192 0h640q192 0 192 192v640q0 192-192 192H192Q0 1024 0 832V192Q0 0 192 0Z" fill="#52D25D"/><path d="M343.232 311.68a16.448 16.448 0 0 1-4.032-.896 37.696 37.696 0 0 1-13.312-7.296 218.496 218.496 0 0 1-17.088-17.856 46.272 46.272 0 0 0-6.4-7.36 301.696 301.696 0 0 1-27.2-22.144 2.368 2.368 0 0 1 2.048-3.968A105.408 105.408 0 0 0 288 249.536a58.176 58.176 0 0 1 46.784 6.4 22.976 22.976 0 0 1 7.872 7.168 122.56 122.56 0 0 1 13.888 14.08 17.728 17.728 0 0 1 3.776 10.496c.384 11.328 1.472 16-5.056 20.992a16.704 16.704 0 0 1-11.904 3.264zm526.464 563.2c-11.456-7.552-20.096-18.56-31.36-26.368-9.984-6.912-21.312-11.392-31.04-18.88a95.168 95.168 0 0 1-26.496-27.968 360.32 360.32 0 0 1-27.584-39.872c1.216-11.136 30.4-7.296 40-7.104 33.536.576 51.712 1.152 100.8-.896-1.92-11.84-31.296-26.688-40.768-33.216-18.88-13.952-33.472-22.336-53.632-34.88q-21.824-12.8-44.8-23.936a130.24 130.24 0 0 1-48.832-32 281.6 281.6 0 0 1-43.008-65.472c-12.416-28.032-37.632-61.184-49.792-90.048-6.4-14.208-9.472-26.688-16.448-40.32a523.136 523.136 0 0 0-114.56-149.504 440 440 0 0 0-151.936-92.352c-17.408-5.312-38.4-2.176-57.28-6.4H260.8c-10.496-2.624-19.2-13.76-27.584-19.648a315.392 315.392 0 0 0-57.984-29.312c-7.488-3.776-29.12-12.032-37.056-5.76a10.496 10.496 0 0 0-8.192 7.936c-4.8 7.104-.768 17.536 2.176 24.128a273.472 273.472 0 0 0 32 45.696 322.304 322.304 0 0 1 28.992 44.8c15.616 32.896 22.272 69.376 36.48 102.4a205.888 205.888 0 0 0 20.864 37.632c6.4 9.152 17.856 15.552 21.632 26.688a83.584 83.584 0 0 1 1.792 59.392 133.184 133.184 0 0 0-18.624 110.592 124.544 124.544 0 0 0 27.456 52.544c11.136 12.288 32.32 40 49.984 39.296A158.464 158.464 0 0 1 328 616.576c1.92-22.016 19.84-36.864 23.552-29.76 7.744 18.112 15.296 23.424 24.768 41.792a824.64 824.64 0 0 0 65.536 107.072 187.968 187.968 0 0 0 25.6 30.4 647.872 647.872 0 0 0 146.752 87.936 514.432 514.432 0 0 0 232.512 49.792 400.128 400.128 0 0 0 56.96-6.4l-34.112-22.656" fill="#FDFDFD"/></svg>