<svg viewBox="0 0 1024 1024" xmlns="http://www.w3.org/2000/svg" width="200" height="200"><path d="m826.9 266.6-1.2 1.2-61 61c-34.3 34.3-112.4 86.1-113.4 86.9l-.8.4-5.4-5.4-1.8-1.6-23.5-23.3-1.6-2-5.4-5.4.6-1c.6-.8 52.2-78.9 86.7-113.2l60.4-60.6c2.2-1.8 1.6-1.6 1.6-1.6.4-.2 3.6-3.2 9.6-3.2 9.8 0 22.5 7.4 36.3 20.9l.8.8c13.8 13.9 21.3 26.9 21.3 36.7 0 5.4-2.4 8.4-3.2 9.4zm9.6-73.1-.6-.6c-21.9-22-43.5-32.9-64.2-32.9-21.7 0-34.5 11.9-37.3 14.9l-.8 1-61 61c-37.1 36.9-89.3 115.8-91.5 119-14.9 21.9-5.6 41.8 5 50.6l3 3 1.6 1.8 22.5 22.7-94.7 94.7c-3.6 3.8-5.8 8.6-5.8 13.8 0 5.2 2.2 10.2 5.8 13.7l114.2 114.4-350.6 155.6c-23.3 8-41.3 2.8-62-17.5-20.3-20.7-25.5-38.7-17.5-62l155.6-350.9 101 101-59.6 59.6c-20.3 20.1-20.5 52.8-.6 72.7 3.8 4 8.8 5.8 13.7 5.8 5 0 10-1.8 13.8-5.6 7.6-7.6 7.6-19.9 0-27.5-4.8-4.8-4.6-13 .4-17.9L571 439l-27.5-27.5-57.4 57.4-120.3-120.6c-4.6-4.6-11-6.4-17.3-5.4-6.4 1.2-11.5 5.4-14.1 11.2L166.9 731.7l-.4 1.4c-13.3 37.5-4.8 71.1 25.9 102.4l.6.6.2.4c21.7 21.3 44.6 32.1 69.2 32.1 10.8 0 21.9-2 33.3-6.2l1.4-.4 377.5-167.6c5.8-2.6 10-8 11.2-14.1 1.2-6.4-.8-12.8-5.4-17.3L559.7 542.4l87.3-87.3 2.8.2c8 0 15.8-2.6 23.1-7.6 3.4-2.2 82.1-54.4 119.2-91.5l61-61 .4-.2c3.6-3.4 15.1-16.1 15.5-37.1.2-20.6-10.6-42.5-32.5-64.4zm0 0"/></svg>